<?xml version="1.0" encoding="utf-8"?>
<!-- Generator: Adobe Illustrator 17.1.0, SVG Export Plug-In . SVG Version: 6.00 Build 0)  -->
<!DOCTYPE svg PUBLIC "-//W3C//DTD SVG 1.1//EN" "http://www.w3.org/Graphics/SVG/1.1/DTD/svg11.dtd">
<svg version="1.1" id="Layer_1" xmlns="http://www.w3.org/2000/svg" xmlns:xlink="http://www.w3.org/1999/xlink" x="0px" y="0px"
	 viewBox="0 0 82.606 83.46" enable-background="new 0 0 82.606 83.46" xml:space="preserve">
<g>
	<g>
		<g>
			<path fill="#142A40" d="M23.463,49.033c0-1.269,0.624-2.378,1.564-3.081c0.17-0.101,0.328-0.203,0.497-0.304
				c4.836-2.934,10.305-4.395,15.786-4.395c5.469,0,10.938,1.461,15.773,4.395c0.17,0.101,0.328,0.203,0.499,0.304
				c0.94,0.703,1.562,1.812,1.562,3.081c0,2.128-1.721,3.849-3.85,3.849c-0.804,0-1.551-0.249-2.174-0.668
				c-2.481-1.506-5.186-2.48-7.961-2.954v8.91c0,2.129-1.732,3.85-3.849,3.85c-2.129,0-3.861-1.721-3.861-3.85v-8.91
				c-2.774,0.474-5.481,1.448-7.961,2.954c-0.612,0.419-1.359,0.668-2.173,0.668C25.185,52.883,23.463,51.162,23.463,49.033z"/>
		</g>
		<g>
			<path fill="#142A40" d="M23.463,49.033c0-1.269,0.624-2.378,1.564-3.081c0.17-0.101,0.328-0.203,0.497-0.304
				c4.836-2.934,10.305-4.395,15.786-4.395c5.469,0,10.938,1.461,15.773,4.395c0.17,0.101,0.328,0.203,0.499,0.304
				c0.94,0.703,1.562,1.812,1.562,3.081c0,2.128-1.721,3.849-3.85,3.849c-0.804,0-1.551-0.249-2.174-0.668
				c-2.481-1.506-5.186-2.48-7.961-2.954v8.91c0,2.129-1.732,3.85-3.849,3.85c-2.129,0-3.861-1.721-3.861-3.85v-8.91
				c-2.774,0.474-5.481,1.448-7.961,2.954c-0.612,0.419-1.359,0.668-2.173,0.668C25.185,52.883,23.463,51.162,23.463,49.033z"/>
		</g>
	</g>
	<g>
		<g>
			<path fill="#4690DC" d="M25.025,37.506c0.171,0.102,0.328,0.204,0.499,0.305c1.71,1.037,3.501,1.881,5.341,2.55
				c3.367-1.225,6.901-1.845,10.445-1.845c3.535,0,7.068,0.62,10.432,1.845c1.84-0.67,3.631-1.513,5.341-2.55
				c0.17-0.102,0.328-0.204,0.497-0.305c0.94-0.7,1.564-1.812,1.564-3.079c0-2.128-1.721-3.85-3.85-3.85
				c-0.815,0-1.563,0.248-2.174,0.669c-2.481,1.506-5.186,2.48-7.961,2.954v-8.911c0-2.128-1.733-3.849-3.861-3.849
				c-2.118,0-3.849,1.721-3.849,3.849v8.911c-2.774-0.474-5.481-1.448-7.961-2.954c-0.623-0.421-1.37-0.669-2.173-0.669
				c-2.129,0-3.851,1.722-3.851,3.85C23.463,35.694,24.085,36.805,25.025,37.506z"/>
		</g>
		<g>
			<path fill="#3E8EDE" d="M25.025,37.506c0.171,0.102,0.328,0.204,0.499,0.305c1.71,1.037,3.501,1.881,5.341,2.55
				c3.367-1.225,6.901-1.845,10.445-1.845c3.535,0,7.068,0.62,10.432,1.845c1.84-0.67,3.631-1.513,5.341-2.55
				c0.17-0.102,0.328-0.204,0.497-0.305c0.94-0.7,1.564-1.812,1.564-3.079c0-2.128-1.721-3.85-3.85-3.85
				c-0.815,0-1.563,0.248-2.174,0.669c-2.481,1.506-5.186,2.48-7.961,2.954v-8.911c0-2.128-1.733-3.849-3.861-3.849
				c-2.118,0-3.849,1.721-3.849,3.849v8.911c-2.774-0.474-5.481-1.448-7.961-2.954c-0.623-0.421-1.37-0.669-2.173-0.669
				c-2.129,0-3.851,1.722-3.851,3.85C23.463,35.694,24.085,36.805,25.025,37.506z"/>
		</g>
	</g>
</g>
</svg>
