<?xml version="1.0" encoding="UTF-8" standalone="no"?>
<svg width="365px" height="125px" viewBox="0 0 365 125" version="1.1" xmlns="http://www.w3.org/2000/svg" xmlns:xlink="http://www.w3.org/1999/xlink" xmlns:sketch="http://www.bohemiancoding.com/sketch/ns">
    <!-- Generator: Sketch 3.2.2 (9983) - http://www.bohemiancoding.com/sketch -->
    <title>brussels-airport</title>
    <desc>Created with Sketch.</desc>
    <defs></defs>
    <g id="Welcome" stroke="none" stroke-width="1" fill="none" fill-rule="evenodd" sketch:type="MSPage">
        <g id="Desktop-HD---Why-Us" sketch:type="MSArtboardGroup" transform="translate(-1006.000000, -893.000000)">
            <g id="brussels-airport" sketch:type="MSLayerGroup" transform="translate(1006.000000, 893.000000)">
                <rect id="Rectangle-84" fill="#FFFFFF" sketch:type="MSShapeGroup" x="0" y="0" width="365" height="125"></rect>
                <g transform="translate(49.000000, 44.000000)" fill="#95A2AA" sketch:type="MSShapeGroup">
                    <path d="M18.94988,20.6030596 C18.94988,17.203194 16.7632354,14.6731588 13.8341922,14.1336968 C16.0208368,13.0965914 17.505634,11.1886103 17.505634,8.11911303 C17.505634,4.22055876 14.9477901,1.52533942 9.05019235,1.52533942 L-0.107096716,1.52533942 L-0.107096716,29.520911 C2.49129835,29.520911 5.13128438,29.603503 7.40007112,29.603503 C15.5259044,29.603503 18.94988,25.5387192 18.94988,20.6030596 L18.94988,20.6030596 Z M5.33715962,5.42389369 L8.01873661,5.42389369 C10.7408648,5.42389369 11.8960536,6.91682357 11.8960536,8.9492155 C11.8960536,10.980562 10.7408648,12.9314073 7.4406223,12.9314073 L5.33715962,12.9314073 L5.33715962,5.42389369 L5.33715962,5.42389369 Z M5.33715962,16.746324 L7.89500351,16.746324 C11.7307296,16.746324 13.0917937,18.6543052 13.0917937,21.0191563 C13.0917937,23.7551489 11.6901784,25.6213112 8.18406066,25.6213112 C7.23474706,25.6213112 5.95582512,25.5387192 5.33715962,25.4561271 L5.33715962,16.746324 L5.33715962,16.746324 Z" id="Fill-1"></path>
                    <path d="M34.4747447,8.78298591 C33.773937,8.45157221 33.0731294,8.32716138 32.4544639,8.32716138 C30.968627,8.32716138 29.5659719,9.19803714 27.4625092,11.976894 L27.049719,8.74221262 L22.6785094,8.74221262 L22.6785094,29.520911 L27.9990326,29.520911 L27.9990326,16.3312728 C29.8550291,13.9685126 30.8459336,13.1802289 32.0011225,13.1802289 C32.412873,13.1802289 32.9493963,13.2210022 33.815528,13.4698239 L34.4747447,8.78298591" id="Fill-2"></path>
                    <path d="M43.437596,29.9767355 C45.8301159,29.9767355 47.9346183,28.9396302 49.7074329,27.3222895 L50.0786322,29.520911 L54.4103304,29.520911 L54.4103304,8.74221262 L49.1303583,8.74221262 L49.1303583,24.0039705 C47.7682545,24.9992571 46.4082302,25.7049488 45.2935925,25.7049488 C43.3960051,25.7049488 42.4477312,24.5434326 42.4477312,19.6485463 C42.4477312,17.1613753 42.5714643,12.9314073 42.5714643,8.74221262 L37.2509411,8.74221262 C37.2509411,13.3046398 37.127208,17.9904323 37.127208,20.5612408 C37.127208,27.3222895 39.2317104,29.9767355 43.437596,29.9767355" id="Fill-3"></path>
                    <path d="M63.2775225,26.1607733 C61.9996404,26.1607733 60.5980251,25.9955892 58.2460564,25.4561271 L57.7916752,28.234984 C59.8140355,29.3536359 61.9174982,29.9349167 64.2278759,29.9349167 C69.5483992,29.9349167 72.6427664,27.1152866 72.6427664,23.3411431 C72.6427664,20.3552834 71.1163783,18.4054835 67.0737372,17.0369645 C64.1436542,15.9580403 63.4438864,15.3359862 63.4438864,14.091878 C63.4438864,12.9314073 64.3921602,11.9350752 66.5372138,11.9350752 C67.6913629,11.9350752 68.8881427,12.1420781 70.6204061,12.5571294 L71.1985204,9.82009126 C69.0534668,8.70039385 67.2796124,8.28534262 65.4236159,8.28534262 C60.8860425,8.28534262 57.8748572,10.8153778 57.8748572,14.5884758 C57.8748572,17.6171998 59.4012453,19.318178 63.3617442,20.7285159 C66.3718898,21.8063945 67.0321462,22.5110407 67.0321462,23.8795597 C67.0321462,25.1247134 66.0006905,26.1607733 63.2775225,26.1607733" id="Fill-4"></path>
                    <path d="M89.4964621,23.3411431 C89.4964621,20.3552834 87.9711138,18.4054835 83.9284727,17.0369645 C80.9983898,15.9580403 80.2975821,15.3359862 80.2975821,14.091878 C80.2975821,12.9314073 81.2468957,11.9350752 83.3919494,11.9350752 C84.5471382,11.9350752 85.7428782,12.1420781 87.4751416,12.5571294 L88.0532559,9.82009126 C85.9082023,8.70039385 84.134348,8.28534262 82.2783515,8.28534262 C77.740778,8.28534262 74.7295927,10.8153778 74.7295927,14.5884758 C74.7295927,17.6171998 76.2559808,19.318178 80.21544,20.7285159 C83.2266253,21.8063945 83.8868818,22.5110407 83.8868818,23.8795597 C83.8868818,25.1247134 82.8543862,26.1607733 80.1332978,26.1607733 C78.8543759,26.1607733 77.4517209,25.9955892 75.0997522,25.4561271 L74.6464108,28.234984 C76.6677313,29.3536359 78.7722338,29.9349167 81.0826114,29.9349167 C86.4031347,29.9349167 89.4964621,27.1152866 89.4964621,23.3411431" id="Fill-5"></path>
                    <path d="M109.362383,27.7791595 L108.618945,24.7086167 C106.185874,25.5387192 103.751763,25.9129971 101.895766,25.9129971 C98.9677629,25.9129971 97.2760508,24.294611 97.2760508,20.4786487 L97.2760508,20.1890538 L109.485076,20.1890538 C110.022639,11.2712024 106.515482,8.28534262 101.23551,8.28534262 C95.4190145,8.28534262 91.8713058,12.2675344 91.8713058,19.6914105 C91.8713058,27.2815162 95.4190145,29.9767355 100.864311,29.9767355 C103.875496,29.9767355 106.84613,29.1058598 109.362383,27.7791595 L109.362383,27.7791595 Z M100.988044,11.8524832 C103.216279,11.8524832 104.370428,13.4698239 104.370428,16.7881428 L104.370428,16.8707349 L97.3176417,16.8707349 C97.481926,13.9685126 98.719257,11.8524832 100.988044,11.8524832 L100.988044,11.8524832 Z" id="Fill-6"></path>
                    <path d="M120.020066,26.2025921 C118.905428,26.2025921 118.617411,25.8701329 118.617411,23.5491915 L118.617411,0.115001601 L113.295848,0.115001601 L113.295848,25.66313 C113.295848,29.0232677 114.698503,29.8523247 117.38008,29.8523247 C118.98757,29.8523247 120.267532,29.6453218 121.339539,29.3139081 L121.133664,26.1607733 C120.804055,26.1607733 120.391265,26.2025921 120.020066,26.2025921" id="Fill-7"></path>
                    <path d="M132.728183,17.0369645 C129.79914,15.9580403 129.098332,15.3359862 129.098332,14.091878 C129.098332,12.9314073 130.046606,11.9350752 132.192699,11.9350752 C133.346848,11.9350752 134.543628,12.1420781 136.275892,12.5571294 L136.852966,9.82009126 C134.708952,8.70039385 132.935098,8.28534262 131.078062,8.28534262 C126.540488,8.28534262 123.530343,10.8153778 123.530343,14.5884758 C123.530343,17.6171998 125.055691,19.318178 129.01619,20.7285159 C132.026336,21.8063945 132.686592,22.5110407 132.686592,23.8795597 C132.686592,25.1247134 131.655136,26.1607733 128.933008,26.1607733 C127.655126,26.1607733 126.252471,25.9955892 123.900502,25.4561271 L123.447161,28.234984 C125.468481,29.3536359 127.572984,29.9349167 129.882322,29.9349167 C135.202845,29.9349167 138.297212,27.1152866 138.297212,23.3411431 C138.297212,20.3552834 136.770824,18.4054835 132.728183,17.0369645" id="Fill-8"></path>
                    <path d="M161.271017,24.0039705 C161.683808,25.6213112 162.137149,27.945389 162.467797,29.520911 L168.490168,29.520911 C166.261932,20.1064617 163.829901,11.1060183 160.611801,1.52533942 L153.310508,1.52533942 C150.381465,10.5257829 147.659337,20.1890538 145.596425,29.520911 L150.919028,29.520911 C151.248636,27.6118844 151.700938,25.5805379 152.073177,24.0039705 L161.271017,24.0039705 L161.271017,24.0039705 Z M156.527569,6.46099904 C157.889672,10.7746045 159.209146,15.5011703 160.364334,19.8147759 L152.939309,19.8147759 C153.970764,15.5858533 155.37342,10.4421454 156.527569,6.46099904 L156.527569,6.46099904 Z" id="Fill-9"></path>
                    <path d="M173.896992,6.08776657 C176.413245,6.08776657 177.031911,5.34130163 177.031911,3.3089097 C177.031911,1.15210695 176.454836,0.48823407 173.896992,0.48823407 C171.380739,0.48823407 170.720483,1.19288024 170.720483,3.3089097 C170.720483,5.42389369 171.339148,6.08776657 173.896992,6.08776657" id="Fill-10"></path>
                    <path d="M171.215415,8.74221262 L176.538018,8.74221262 L176.538018,29.520911 L171.215415,29.520911 L171.215415,8.74221262 Z" id="Fill-11"></path>
                    <path d="M186.543763,16.3312728 C188.399759,13.9685126 189.390664,13.1802289 190.544813,13.1802289 C190.957603,13.1802289 191.494126,13.2210022 192.360258,13.4698239 L193.020514,8.78298591 C192.318667,8.45157221 191.61682,8.32716138 190.998154,8.32716138 C189.514397,8.32716138 188.111742,9.19803714 186.008279,11.976894 L185.595489,8.74221262 L181.2222,8.74221262 L181.2222,29.520911 L186.543763,29.520911 L186.543763,16.3312728" id="Fill-12"></path>
                    <path d="M206.272433,8.28534262 C204.209522,8.28534262 202.229792,9.32244797 200.53808,10.8561511 L200.12633,8.74221262 L195.794631,8.74221262 L195.794631,36.6959654 L201.116194,36.6959654 L201.116194,29.8523247 C201.775411,29.9349167 202.683134,29.9767355 203.302839,29.9767355 C209.242028,29.9767355 213.614277,26.4932325 213.614277,18.2810727 C213.614277,12.7651777 211.222797,8.28534262 206.272433,8.28534262 L206.272433,8.28534262 Z M203.590856,26.1607733 C202.683134,26.1607733 201.817002,26.0363625 201.116194,25.7457221 L201.116194,14.1336968 C202.436707,12.9721806 203.796732,12.3919452 204.786596,12.3919452 C206.891099,12.3919452 208.168981,14.7557509 208.168981,19.0285831 C208.168981,23.9631972 206.272433,26.1607733 203.590856,26.1607733 L203.590856,26.1607733 Z" id="Fill-13"></path>
                    <path d="M226.257928,8.28534262 C220.110785,8.28534262 216.275059,11.8932565 216.275059,19.5669997 C216.275059,27.1978786 219.699034,29.9767355 225.391796,29.9767355 C231.53686,29.9767355 235.373626,26.3688216 235.373626,18.6543052 C235.373626,11.0641995 231.949651,8.28534262 226.257928,8.28534262 L226.257928,8.28534262 Z M225.886729,26.0363625 C223.163561,26.0363625 221.720355,24.5026593 221.720355,18.6543052 C221.720355,13.9256484 223.328885,12.2257157 225.762996,12.2257157 C228.443533,12.2257157 229.92937,13.7594188 229.92937,19.607773 C229.92937,24.3364297 228.3198,26.0363625 225.886729,26.0363625 L225.886729,26.0363625 Z" id="Fill-14"></path>
                    <path d="M243.808272,11.976894 L243.396522,8.74221262 L239.023233,8.74221262 L239.023233,29.520911 L244.344796,29.520911 L244.344796,16.3312728 C246.200792,13.9685126 247.190657,13.1802289 248.345846,13.1802289 C248.758636,13.1802289 249.29516,13.2210022 250.161291,13.4698239 L250.821548,8.78298591 C250.1197,8.45157221 249.417853,8.32716138 248.799187,8.32716138 C247.31543,8.32716138 245.912775,9.19803714 243.808272,11.976894" id="Fill-15"></path>
                    <path d="M262.370317,25.9548159 C260.967662,25.9548159 260.472729,25.290943 260.472729,23.1749135 L260.472729,12.4745373 L265.050854,12.4745373 L265.050854,8.74221262 L260.472729,8.74221262 L260.472729,2.68685559 L256.635964,2.68685559 C256.224213,5.00884246 255.851974,6.87605027 255.358081,8.74221262 L252.552771,8.74221262 L252.552771,12.4745373 L255.192757,12.4745373 L255.192757,24.5026593 C255.192757,28.4838056 256.595412,29.9349167 260.431138,29.9349167 C261.998078,29.9349167 263.649239,29.5627297 265.587377,28.5663977 L265.174587,25.4969004 C263.855114,25.8701329 262.988982,25.9548159 262.370317,25.9548159" id="Fill-16"></path>
                </g>
            </g>
        </g>
    </g>
</svg>