<?xml version="1.0" encoding="utf-8"?>
<!-- Generator: Adobe Illustrator 18.1.0, SVG Export Plug-In . SVG Version: 6.00 Build 0)  -->
<!DOCTYPE svg PUBLIC "-//W3C//DTD SVG 1.1//EN" "http://www.w3.org/Graphics/SVG/1.1/DTD/svg11.dtd">
<svg version="1.1" id="Layer_1" xmlns:sketch="http://www.bohemiancoding.com/sketch/ns"
	 xmlns="http://www.w3.org/2000/svg" xmlns:xlink="http://www.w3.org/1999/xlink" x="0px" y="0px" viewBox="-951 3197.7 365 125"
	 enable-background="new -951 3197.7 365 125" xml:space="preserve">
<title>delta</title>
<desc>Created with Sketch.</desc>
<g id="Welcome" sketch:type="MSPage">
	<g id="Desktop-HD---Why-Us" transform="translate(-107.000000, -893.000000)" sketch:type="MSArtboardGroup">
		<g id="delta" transform="translate(107.000000, 893.000000)" sketch:type="MSLayerGroup">
			<rect id="Rectangle-84" x="-951" y="3197.7" sketch:type="MSShapeGroup" fill="#FFFFFF" width="365" height="125">
			</rect>
		</g>
	</g>
</g>
<g>
	<g>
		<path fill="#8B2332" d="M-865.6,3265.9l21.5,10.3l-21.5-33.1l-21.5,33.1L-865.6,3265.9z M-888.8,3280.2h46.4l-23.2-9.8
			L-888.8,3280.2z"/>
		<path fill="#D13239" d="M-865.6,3265.9v-22.7l-21.5,33.1L-865.6,3265.9z M-888.8,3280.2h23.2l0-9.8L-888.8,3280.2z"/>
		<path fill="#8B2332" d="M-840.6,3273.4c0.8,0,1.5,0.7,1.5,1.5c0,0.8-0.7,1.5-1.5,1.5c-0.8,0-1.5-0.7-1.5-1.5
			C-842.1,3274.1-841.4,3273.4-840.6,3273.4z M-840.6,3276.2c0.7,0,1.3-0.6,1.3-1.3c0-0.7-0.6-1.3-1.3-1.3c-0.7,0-1.3,0.6-1.3,1.3
			C-841.9,3275.7-841.3,3276.2-840.6,3276.2z M-840.9,3275.8h-0.2v-1.8h0.7c0.4,0,0.6,0.2,0.6,0.5c0,0.3-0.2,0.5-0.4,0.5l0.5,0.8
			h-0.3l-0.5-0.8h-0.3V3275.8z M-840.9,3274.8h0.3c0.2,0,0.5,0,0.5-0.3c0-0.2-0.2-0.3-0.4-0.3h-0.4V3274.8z"/>
	</g>
	<g>
		<path fill="#003A70" d="M-824.4,3276.2h10.4c10.7,0,17.1-5.5,17.1-14.8c0-9.2-6.4-14.7-17.1-14.7h-10.4V3276.2z M-817.8,3251.9
			h3.8c7,0,10.4,3.4,10.4,9.6c0,6.2-3.5,9.6-10.4,9.6h-3.8V3251.9z"/>
		<polygon fill="#003A70" points="-774.5,3263.5 -761.9,3263.5 -761.9,3258.3 -774.5,3258.3 -774.5,3251.9 -760.3,3251.9 
			-760.3,3246.7 -781,3246.7 -781,3276.2 -759.8,3276.2 -759.8,3271.1 -774.5,3271.1 		"/>
		<polygon fill="#003A70" points="-722.3,3271.1 -735,3271.1 -735,3246.7 -741.6,3246.7 -741.6,3276.2 -722.3,3276.2 		"/>
		<polygon fill="#003A70" points="-686.7,3246.7 -713.2,3246.7 -713.2,3251.9 -703.3,3251.9 -703.3,3276.2 -696.6,3276.2 
			-696.6,3251.9 -686.7,3251.9 		"/>
		<path fill="#003A70" d="M-648.4,3276.2h-6.9l-2.9-7.4h-12l-2.9,7.4h-6.4l12.3-29.6v0h6.7L-648.4,3276.2z M-660.1,3263.9l-4.1-10.5
			l-4.1,10.5H-660.1z"/>
	</g>
</g>
</svg>
