<?xml version="1.0" encoding="UTF-8" standalone="no"?>
<svg width="365px" height="125px" viewBox="0 0 365 125" version="1.1" xmlns="http://www.w3.org/2000/svg" xmlns:xlink="http://www.w3.org/1999/xlink" xmlns:sketch="http://www.bohemiancoding.com/sketch/ns">
    <!-- Generator: Sketch 3.2.2 (9983) - http://www.bohemiancoding.com/sketch -->
    <title>delta</title>
    <desc>Created with Sketch.</desc>
    <defs></defs>
    <g id="Welcome" stroke="none" stroke-width="1" fill="none" fill-rule="evenodd" sketch:type="MSPage">
        <g id="Desktop-HD---Why-Us" sketch:type="MSArtboardGroup" transform="translate(-107.000000, -893.000000)">
            <g id="delta" sketch:type="MSLayerGroup" transform="translate(107.000000, 893.000000)">
                <rect id="Rectangle-84" fill="#FFFFFF" sketch:type="MSShapeGroup" x="0" y="0" width="365" height="125"></rect>
                <g transform="translate(62.000000, 44.000000)" fill="#95A2AA" sketch:type="MSShapeGroup">
                    <path d="M23.3262426,23.52318 L44.838206,33.8444206 L23.3262426,0.819643364 L1.81685305,33.8444206 L23.3262426,23.52318 L23.3262426,23.52318 Z M0.111819541,37.7906431 L46.5392357,37.7906431 L23.3262426,28.0136009 L0.111819541,37.7906431 L0.111819541,37.7906431 Z" id="Fill-1"></path>
                    <path d="M23.3262426,23.52318 L23.3262426,0.819643364 L1.81685305,33.8444206 L23.3262426,23.52318 L23.3262426,23.52318 Z M0.111819541,37.7906431 L23.3268145,37.7906431 L23.3262426,28.0136009 L0.111819541,37.7906431 L0.111819541,37.7906431 Z" id="Fill-2"></path>
                    <path d="M48.4192911,31.0039841 C49.2606545,31.0039841 49.9435831,31.6878668 49.9435831,32.5279678 C49.9435831,33.3672136 49.2606545,34.0510962 48.4192911,34.0510962 C47.5764978,34.0510962 46.8918533,33.3672136 46.8918533,32.5279678 C46.8918533,31.6878668 47.5764978,31.0039841 48.4192911,31.0039841 L48.4192911,31.0039841 Z M48.4192911,33.8250358 C49.1413994,33.8250358 49.7253777,33.2471991 49.7253777,32.5279678 C49.7253777,31.8050305 49.1413994,31.2243432 48.4192911,31.2243432 C47.6954669,31.2243432 47.1143485,31.8050305 47.1143485,32.5279678 C47.1143485,33.2471991 47.6954669,33.8250358 48.4192911,33.8250358 L48.4192911,33.8250358 Z M48.0846904,33.3980011 L47.8633392,33.3980011 L47.8633392,31.6431108 L48.542264,31.6431108 C48.941211,31.6431108 49.096786,31.8135826 49.096786,32.1288699 C49.096786,32.4524243 48.8908779,32.5878325 48.6529396,32.6297377 L49.1794352,33.3980011 L48.9274838,33.3980011 L48.4009882,32.6297377 L48.0846904,32.6297377 L48.0846904,33.3980011 L48.0846904,33.3980011 Z M48.0846904,32.4330395 L48.368672,32.4330395 C48.6109,32.4330395 48.8742908,32.4204964 48.8742908,32.1288699 C48.8742908,31.9028095 48.6698126,31.8372434 48.4793476,31.8372434 L48.0846904,31.8372434 L48.0846904,32.4330395 L48.0846904,32.4330395 Z" id="Fill-3"></path>
                    <path d="M64.6522854,33.8415699 L75.0912544,33.8415699 C85.8199247,33.8415699 92.2216649,28.3080781 92.2216649,19.1122935 C92.2216649,9.92078483 85.8199247,4.38786324 75.0912544,4.38786324 L64.6522854,4.38786324 L64.6522854,33.8415699 L64.6522854,33.8415699 Z M71.2513542,9.50344251 L75.0869647,9.50344251 C82.0515204,9.50344251 85.5316533,12.9251365 85.5316533,19.1122935 C85.5316533,25.2968848 82.0515204,28.7239951 75.0869647,28.7239951 L71.2513542,28.7239951 L71.2513542,9.50344251 L71.2513542,9.50344251 Z" id="Fill-4"></path>
                    <path d="M114.641054,21.0741445 L127.189723,21.0741445 L127.189723,15.9599906 L114.641054,15.9599906 L114.641054,9.50344251 L128.82612,9.50344251 L128.82612,4.38786324 L108.039125,4.38786324 L108.039125,33.8415699 L129.289414,33.8415699 L129.289414,28.7239951 L114.641054,28.7239951 L114.641054,21.0741445" id="Fill-5"></path>
                    <path d="M166.889664,28.7239951 L154.164829,28.7239951 L154.164829,4.38786324 L147.540593,4.38786324 L147.540593,33.8415699 L166.889664,33.8415699 L166.889664,28.7239951" id="Fill-6"></path>
                    <path d="M202.533787,4.38786324 L176.011393,4.38786324 L176.011393,9.50344251 L185.953323,9.50344251 L185.953323,33.8415699 L192.588997,33.8415699 L192.588997,9.50344251 L202.533787,9.50344251 L202.533787,4.38786324" id="Fill-7"></path>
                    <path d="M240.887889,33.8415699 L233.975097,33.8415699 L231.080372,26.4633908 L219.058198,26.4633908 L216.171481,33.8415699 L209.715118,33.8415699 L222.070462,4.26357277 L222.070462,4.26214742 L228.736737,4.26214742 L240.887889,33.8415699 L240.887889,33.8415699 Z M229.20432,21.5373831 L225.077579,11.0830148 L220.936824,21.5373831 L229.20432,21.5373831 L229.20432,21.5373831 Z" id="Fill-8"></path>
                </g>
            </g>
        </g>
    </g>
</svg>