<?xml version="1.0" encoding="utf-8"?>
<!-- Generator: Adobe Illustrator 18.1.0, SVG Export Plug-In . SVG Version: 6.00 Build 0)  -->
<!DOCTYPE svg PUBLIC "-//W3C//DTD SVG 1.1//EN" "http://www.w3.org/Graphics/SVG/1.1/DTD/svg11.dtd">
<svg version="1.1" id="Layer_1" xmlns:sketch="http://www.bohemiancoding.com/sketch/ns"
	 xmlns="http://www.w3.org/2000/svg" xmlns:xlink="http://www.w3.org/1999/xlink" x="0px" y="0px" viewBox="-951 3197.7 365 125"
	 enable-background="new -951 3197.7 365 125" xml:space="preserve">
<title>emirates</title>
<desc>Created with Sketch.</desc>
<rect id="Rectangle-84" x="-951" y="3197.7" sketch:type="MSShapeGroup" fill="#FFFFFF" width="365" height="125">
</rect>
<path id="Fill-1" fill="#E03A3E" d="M-760.5,3220.1c-0.4,0.4-1.7,2.4-1.7,4.8c0,0.6,0,14.6,0,15.1c0,1.1-0.7,2.6-1.2,3.1
	c-0.4,0.4-2.7,2.5-2.9,2.7l1.3,0c0.4-0.4,4.9-4.4,5.4-4.9c0.6-0.7,2.1-2.5,2.1-5.2c0-0.7,0-14,0-14.6c0-2.2,1-3.4,1.5-4
	c0.5-0.6,2.3-2.1,2.6-2.4l-1.4,0C-755.1,3215.1-760,3219.6-760.5,3220.1"/>
<path id="Fill-2" fill="#E03A3E" d="M-771.6,3275.1l5.5,4.8h3.7c3.7,0,7.2-1.6,9.4-3.9c2.3-2.3,3.1-5.3,3.1-8.1v-7.9
	c0-2.6-1.7-4.2-2.1-4.6c-0.3-0.3-1.9-1.8-1.9-1.8v6c0,0,1.8,1.8,2.1,2.2c1.6,1.7,1.6,4.9-3.6,9.9c-0.9,0.9-3.5,3.3-7,3.3H-771.6"/>
<path id="Fill-3" fill="#E03A3E" d="M-756.3,3242.8c-0.6,0.6-1.2,2.2-1.2,3.6v3h3c1.2,0,2.7-1.1,3.1-1.6c0,0,0-3,0-3
	s0.8,1.1,1.6,1.7c0.3-0.4,3.1-3.7,5.4-3.8c3.8,0,3,4.8,1.4,6.4c-0.5,0.5-2.8,2.6-3.5,3.3c-1.8,1.7-4.9,0.9-4.9-3.6
	c0,0-3.3,3.2-3.8,3.6c-0.5,0.4-2.2,2.2-2.2,2.2v7.9c0,3.8-1.2,5-2.3,6.2c-0.4,0.4-4.6,4.3-5.2,4.7l-1.4,0c0,0,2.5-2.3,3-2.8
	c0.6-0.6,1.2-1.8,1.2-3.8c0-0.5-0.1-12.3-0.1-12.3h-19.3c-6.7,0-8.1-7.4-8.2-9.4c0-0.6,0-6.5,0-7.5c0-1.2-0.8-3.3-2-3.9h1.9
	c0.2,0.1,1.4,0.6,1.4,5.1c0,0-0.1,5.3-0.1,5.6c0,2.3,1.8,5,4.5,5c0.5,0,21.8,0,21.8,0c0-0.6,0.6-2.8,1.7-4c0.6-0.7,5.3-5,5.8-5.4
	l1.4,0C-753.5,3240.3-755.8,3242.3-756.3,3242.8L-756.3,3242.8z M-749.1,3247.3c0,0,1.3,1.7,1.9,2.2c2.4,1.9,3.5-0.1,1.9-2.3
	C-746,3246.3-748.4,3246.5-749.1,3247.3L-749.1,3247.3z"/>
<path id="Fill-4" fill="#E03A3E" d="M-772.5,3261.4c0,1.1-3.4,3.9-3.6,4.1c-0.2-1.1-1.1-2.4-3.6-4.9l3.7-3.7
	C-773.6,3259.3-772.5,3259.8-772.5,3261.4"/>
<path id="Fill-5" fill="#E03A3E" d="M-766.1,3219.1c0.7,0.7,2.3,2.7,1.4,3.7c-0.8,0.8-2.2,2.2-2.2,2.2c-0.1-0.5-1.3-1.6-1.3-1.6
	s0,3.6,0,4c0,1.6-0.6,2.1-0.6,2.1s3,2.9,3,6.7c0,1.8,0,3.5,0,3.9c0,0.8-0.2,1.4-0.7,2c-0.3,0.3-3,3.1-3.4,3.4
	c-0.8,0.7-1.6,0.8-2.3,0.8h-10.2c-1.6,0-3.3-1.3-3.3-2.5c0-0.3,0-3.8,0-3.8c0.5,0.6,1.1,1.3,2.3,1.3c1,0,2.1-0.8,2.4-1.1
	c0.3-0.3,7.7-8.1,7.7-8.1s-3.5-3.2-5.8-4.8c-1.1-0.8-2.6,0.2-2.8,1.2c-0.7,3.1,0,7.7,0,7.7s-2.3-2.3-2.8-2.8
	c-1.1-1.1-1.1-3.7,0.3-5.1c0.2-0.2,2.3-2.6,4.9-2.6h4.1c2.7,0,5.7,2.7,5.7,2.7s0.4-0.5,0.4-0.9c0-1.4-0.1-5.2-0.1-5.2
	c-2.1-2.1-2.3-4.2-1.4-5.2c1.8-1.8,2.5-2.5,2.5-2.5S-768.3,3217-766.1,3219.1L-766.1,3219.1z M-779,3239.7c-1,1.1-1.2,1.3-2.1,1.9
	h11.5c3.1,0,2.5-1.9,1.9-2.9c-1.1-2-4.8-5.7-4.8-5.7S-778.8,3239.5-779,3239.7L-779,3239.7z"/>
<path id="Fill-6" fill="#E03A3E" d="M-792.1,3250.2h-1.9c0,0,2,1.1,2,4v9.2c0,6,4.9,11.5,10.9,11.5h5c3,0,4.1-0.7,5.9-2.3
	c0.7-0.6,1.5-1.6,1.9-1.9c1-1.2,2.2-2.1,2.2-5.2v-3c0-2.6-1.5-3.7-2.2-4.4c-0.5-0.5-1.7-1.7-1.7-1.7v6.2c0,0,1.3,1.3,1.8,1.8
	c2.6,2.1,0.5,5.6-1.9,5.6c-0.5,0-10.3,0-11,0c-4.1,0.1-9.5-3.5-9.5-9.6v-5C-790.7,3250.2-792.1,3250.2-792.1,3250.2"/>
<path id="Fill-7" fill="#E03A3E" d="M-780.1,3261.4c0,1.1-3.4,3.9-3.6,4.1c-0.2-1.1-1.1-2.4-3.6-4.9l3.7-3.7
	C-781.1,3259.3-780.1,3259.8-780.1,3261.4"/>
<path id="Fill-8" fill="#E03A3E" d="M-818.6,3302.3c-0.6,0-5.2,0-5.9,0c-1.9,0-1.7-1.5-1.9-2.9v-8.5c0,0,1.3,0,2.8,0
	c1.6,0,3.7-0.2,5.6,0.9c0,0-1.4-3.4-5.7-3.4h-2.7v-1.7v-1c0,0,0-2.4-0.6-3.1c0,0,3.6,0,3.9,0c3.4,0,6-0.1,8.7,1.8c0,0-0.5-4.5-7-4.5
	h-12.7c0,0,2.2,1.9,2.1,5.7l0.1,15.4c0,3.9,1.5,4,1.5,4h4.3h2h6.2c2.8,0,3.8-2,3.8-3.1l0-1.5C-814,3300.5-814.9,3302.3-818.6,3302.3
	"/>
<path id="Fill-9" fill="#E03A3E" d="M-785.2,3301v-10.8c0-4.2-3.4-5.3-6-5.3c-3.4,0-4.4,2.8-4.8,3.8c-0.8-2.6-3.4-3.8-5.5-3.8
	c-4.1,0-5.1,3.9-5.1,3.9s-0.1-3.7-3.4-3.7l-3.2,0c0,0,1.9,0.8,1.9,4l0,12c0,4,1.6,4,1.6,4h5.3c-0.1-0.1-2-1.5-2-4.1v-10.6
	c0.1-0.5,0.9-2.1,3.1-2.1c1.3,0,2.7,1.3,2.7,2.9l0,9.9c0,4,1.6,4,1.6,4h5.3c0,0-2-1.4-2-4.1l0-10.6c0.2-0.6,0.9-2,2.9-2
	c1.6,0,2.9,1.3,2.9,2.9c0,0,0,9,0,9.8c0,4,1.6,4,1.6,4c2.8,0,5.3,0,5.3,0S-785.2,3303.6-785.2,3301"/>
<path id="Fill-10" fill="#E03A3E" d="M-776,3301c0,2.7,2,4,2,4s-2.5,0-5.3,0c0,0-1.6,0-1.6-4v0l0-12c0-3.2-1.8-4-1.8-4h3.2
	c1.1,0,3.5,0,3.5,4.5L-776,3301L-776,3301"/>
<path id="Fill-11" fill="#E03A3E" d="M-759.7,3286.5c0,0-0.5-1.4-2.7-1.4c-3.3,0-4.1,3.9-4.1,3.9c-0.3-3.1-1.1-4-3.4-4l-3.2,0
	c0,0,1.9,0.8,1.9,4l0,12c0,4,1.6,4,1.6,4h5.3c-0.1-0.1-2-1.5-2-4.1l0-9.8c0.1-0.9,0.6-1.6,1.3-2c1.7-1.1,4.1-0.9,5.5,0.8V3286.5"/>
<path id="Fill-12" fill="#E03A3E" d="M-735.1,3287.3c1.8,0,3.1,0.8,3.1,0.8l0-3h-4.4l0-4.6c0,0-1.2,2-3.6,4
	c-1.5,1.2-4.7,2.8-4.7,2.8l3.4,0.1l0,13.9c0,3.9,1.6,3.9,1.6,3.9c2.9,0,5.3,0,5.3,0s-2-1.4-2-3.9l0-13.9
	C-735,3287.3-735.9,3287.3-735.1,3287.3"/>
<path id="Fill-13" fill="#E03A3E" d="M-719,3293.3c-3,3.1-5.3,2.6-7.2,4.9c0,0,0.3,3.1,2.7,4.2c0.8,0.4,4.1,1.5,6.2-2.1l0,3.2
	c0,0-1.4,1.6-5.7,1.6c-5.2,0-8.7-4.1-8.7-9.6c0-5.4,2.9-10.5,8.4-10.5C-718,3284.9-715.1,3289.2-719,3293.3L-719,3293.3z
	 M-722.2,3292c0.9-1.6,1.6-5.7-1.4-5.5c-3.5,0.3-2.8,9.5-2.8,9.5C-725.3,3294.8-723.6,3294.5-722.2,3292L-722.2,3292z"/>
<path id="Fill-14" fill="#E03A3E" d="M-778.4,3283.4c1.4,0,2.5-1.1,2.5-2.4c0-1.3-1.1-2.4-2.5-2.4c-1.4,0-2.5,1.1-2.5,2.4
	C-780.9,3282.3-779.8,3283.4-778.4,3283.4"/>
<path id="Fill-15" fill="#E03A3E" d="M-754.2,3302.8c-1.2,0-2.1-1.3-2.1-2.5c0-5,4.1-5.7,5.2-7l0,8.4
	C-751.6,3302.1-752.1,3302.8-754.2,3302.8L-754.2,3302.8z M-751.1,3291.3c-1.2,2.2-10.8,2.6-9.3,10c0.6,2.9,2.5,3.8,5,3.8
	c2.4,0,3.8-1.2,4.4-2.4c0.4,2.2,1.5,2.4,1.5,2.4c2.8,0,5.3,0,5.3,0s-2.1-1.4-2.1-4v-11.2c0-2.7-3-4.8-6.2-4.8c-3,0-5,1.5-5,1.5v3.5
	c0,0,1.1-2.8,3.8-2.8c2.7,0,2.9,1.3,2.9,2C-750.7,3289.2-750.4,3290.1-751.1,3291.3L-751.1,3291.3z"/>
<path id="Fill-16" fill="#E03A3E" d="M-707.3,3299.6c0,1.4-1.2,3.3-3.9,3.3c-2.8,0-3.9-2.8-3.9-2.8v3.6c0,0,2,1.4,5,1.4
	c3.6,0,7.3-2.7,7.2-6.6c0-1.3-0.5-2.5-1.2-3.5c-1.2-1.6-3.4-2.8-5.2-3.8c-1-0.6-1.5-1.7-1.5-2.1c0-0.7,0.3-2,3-2
	c2.6,0,3.7,2.8,3.7,2.8l0-3.3c0,0-2-1.6-5.1-1.6c-3.2,0-6,2.1-6,4.8c0,2.4,1,3.9,3,5.3c0.8,0.6,1.7,1.1,2.7,1.7
	C-707.9,3297.6-707.3,3298.6-707.3,3299.6"/>
</svg>
