<?xml version="1.0" encoding="UTF-8" standalone="no"?>
<svg width="365px" height="125px" viewBox="0 0 365 125" version="1.1" xmlns="http://www.w3.org/2000/svg" xmlns:xlink="http://www.w3.org/1999/xlink" xmlns:sketch="http://www.bohemiancoding.com/sketch/ns">
    <!-- Generator: Sketch 3.2.2 (9983) - http://www.bohemiancoding.com/sketch -->
    <title>gogo</title>
    <desc>Created with Sketch.</desc>
    <defs></defs>
    <g id="Welcome" stroke="none" stroke-width="1" fill="none" fill-rule="evenodd" sketch:type="MSPage">
        <g id="Desktop-HD---Why-Us" sketch:type="MSArtboardGroup" transform="translate(-570.000000, -1496.000000)">
            <g id="gogo" sketch:type="MSLayerGroup" transform="translate(570.000000, 1496.000000)">
                <rect id="Rectangle-84" fill="#FFFFFF" sketch:type="MSShapeGroup" x="0" y="0" width="365" height="125"></rect>
                <g transform="translate(113.000000, 16.000000)" fill="#95A2AA" sketch:type="MSShapeGroup">
                    <path d="M131.453563,14.7710209 L125.918847,14.7710209 L130.889252,19.3342994 L121.642483,19.3342994 C119.334093,11.7774886 110.869772,8.58495058 105.552177,9.89183353 C103.761016,5.45458075 98.3892253,3.88382097 94.5369412,5.18327077 C92.2576816,2.26001552 87.3103096,0.112848735 82.9011668,0.112848735 C76.5440343,0.112848735 70.6611125,3.87638782 68.1112141,9.61342827 C60.9489397,10.5334495 56.2230919,15.6532007 56.2230919,21.7436536 C56.2230919,28.652091 62.349216,34.272904 70.2499041,34.272904 C72.0657922,34.272904 74.2905176,33.8759062 75.8167984,33.0579218 C79.1271275,35.2229957 83.8489106,36.411624 88.52666,36.411624 C93.3846093,36.411624 98.2754147,35.14934 101.915998,32.940005 C105.553532,35.4132168 110.629957,34.6296952 113.552449,31.3425535 C115.143765,29.5525158 115.842887,27.2533073 115.842887,24.8584814 C115.842887,20.1870844 112.123382,16.4657791 107.535733,16.4657791 C104.851023,16.4657791 102.669315,17.3996531 100.955382,18.8913512 L103.522556,22.5349462 C104.253517,21.8412982 105.51153,21.0060824 107.305063,21.0060824 C109.058287,21.0060824 111.136007,22.0815241 111.23085,24.9257176 C111.314175,27.4516372 109.099611,29.4217599 107.065587,29.4217599 C105.0319,29.4217599 103.396212,28.6362111 102.203572,27.1455266 C98.7137208,30.1765625 93.0055795,31.4486448 88.52666,31.4486448 C82.3819061,31.4486448 78.3111464,29.2646501 76.274073,27.7705869 C74.7159523,28.7470326 72.1237136,29.3106005 70.2499041,29.3106005 C65.0938795,29.3106005 61.1979003,25.916016 61.1979003,21.7436536 C61.1979003,17.8128687 65.1812697,14.0510189 71.4147687,14.1047403 C72.8323198,8.85558483 77.5530868,5.06636759 82.9011668,5.07549009 C88.2959903,5.08528833 90.9302305,7.81663315 92.9771269,10.7172511 C94.2652862,9.28839689 97.5844221,8.64137495 99.9266839,10.0553628 C101.901433,11.2493971 102.81903,13.1059952 102.775335,15.3920268 C104.845603,14.3763882 109.87393,13.7516657 113.192727,16.1741969 C116.512201,18.5977417 117.396604,21.0341257 117.760053,24.2969407 L130.866558,24.2969407 L125.935783,28.8217019 L131.471176,28.8217019 L138.157208,21.8041324 L131.453563,14.7710209" id="Fill-1"></path>
                    <path d="M100.720987,45.3722866 C91.399699,45.3722866 87.1426423,49.9963817 87.1426423,56.7950112 C87.1426423,58.4211817 87.5362371,60.3095397 88.0334809,61.5360095 C87.3465529,62.1455278 86.3093865,62.9172239 84.7123127,63.835218 L84.7123127,45.801382 L76.9345807,45.801382 L77.0429717,47.546483 C75.542095,46.2541285 73.522635,45.3722866 70.4853158,45.3722866 C67.1224849,45.3722866 64.448953,46.2037858 62.4701397,47.6623726 C59.6086172,48.1418107 55.7631076,48.4790055 51.9355502,47.8552966 C49.7230188,46.2713599 46.6006804,45.3722866 42.4953711,45.3722866 C33.1710348,45.3722866 28.9146555,49.9963817 28.9146555,56.7950112 C28.9146555,58.4786197 29.1768263,60.0280936 29.7120069,61.4066051 C29.0308372,62.0333548 27.9570888,62.8506635 26.2434947,63.835218 L26.2434947,45.801382 L18.4745694,45.801382 L18.5751698,47.546483 C17.2944623,46.2541285 14.9650719,45.3722866 12.0161591,45.3722866 C4.04129089,45.3722866 -0.108052283,49.9963817 -0.108052283,56.7950112 C-0.108052283,63.59533 4.04129089,68.2184115 12.0161591,68.2184115 C13.5458272,68.2184115 15.7810529,67.9136523 17.512938,67.1311443 L17.512938,68.115361 C16.8175419,68.3714668 16.1160489,68.5954749 14.5037327,68.9664567 C10.6677073,69.8503258 2.13157686,71.0906483 2.13157686,78.4724422 C2.13157686,83.6418602 7.1314507,86.7634455 13.1776365,86.7634455 C19.2207737,86.7634455 26.2434947,83.2823661 26.2434947,71.7508472 L26.2434947,70.6723647 C28.8076194,69.4496115 31.5106201,67.8906771 33.5558229,66.0540133 C35.72974,67.4342142 38.6817013,68.2184115 42.4953711,68.2184115 C51.8173362,68.2184115 56.0757479,63.59533 56.0757479,56.7950112 C56.0757479,55.8830988 55.9958095,55.0093658 55.8396587,54.1805695 C56.7179646,54.2278714 57.6386107,54.2187489 58.5971936,54.1484718 C58.4434139,54.9870663 58.360427,55.8699218 58.360427,56.7950112 C58.360427,63.59533 62.5084153,68.2184115 70.4853158,68.2184115 C71.9844989,68.2184115 75.0130114,67.5673351 75.981756,67.1311443 L75.981756,68.115361 C75.4448818,68.3809272 74.4642819,68.6272348 72.9711958,68.9664567 C69.1334768,69.8452578 60.5987013,71.0906483 60.5987013,78.4724422 C60.5987013,83.6418602 65.6002687,86.7634455 71.643406,86.7634455 C77.6885756,86.7634455 84.7123127,83.2823661 84.7123127,71.7508472 L84.7123127,70.6723647 C87.2361295,69.4698837 89.8886607,67.9383169 91.9233631,66.1398324 C94.0820377,67.4642846 96.9906426,68.2184115 100.720987,68.2184115 C110.046339,68.2184115 114.302718,63.59533 114.302718,56.7950112 C114.302718,49.50005 109.903737,45.3722866 100.720987,45.3722866 L100.720987,45.3722866 Z M13.2386064,80.3199179 C10.9562983,80.5641982 9.84495178,79.7036421 9.84495178,78.2886406 C9.84495178,75.642777 12.7979292,75.0082563 15.8111992,74.3423136 C16.3514606,74.2230454 16.9005288,74.0980333 17.4448549,73.9676153 C17.0627766,78.746793 15.1578046,80.1124654 13.2386064,80.3199179 L13.2386064,80.3199179 Z M17.512938,60.4399577 C16.5990663,61.200842 15.3041325,61.6914299 13.5803768,61.6914299 C9.96960143,61.6914299 8.6214883,59.5692655 8.6214883,56.7950112 C8.6214883,54.0217704 9.96960143,51.8999439 13.5803768,51.8999439 C15.3041325,51.8999439 16.5990663,52.3341074 17.512938,53.0980326 L17.512938,60.4399577 L17.512938,60.4399577 Z M42.4953711,61.6914299 C38.8835795,61.6914299 37.6452123,59.5692655 37.6452123,56.7950112 C37.6452123,54.0741403 38.8835795,51.8999439 42.4953711,51.8999439 C46.1044528,51.8999439 47.3445137,54.0741403 47.3445137,56.7950112 C47.3445137,59.5692655 46.1044528,61.6914299 42.4953711,61.6914299 L42.4953711,61.6914299 Z M71.7043759,80.3199179 C69.4244389,80.5641982 68.3120762,79.7036421 68.3120762,78.2886406 C68.3120762,75.642777 71.2657311,75.0082563 74.2783236,74.3423136 C74.8175688,74.2230454 75.3676532,74.0980333 75.9140116,73.9676153 C75.5312559,78.746793 73.6245903,80.1124654 71.7043759,80.3199179 L71.7043759,80.3199179 Z M75.981756,60.4399577 C75.0644971,61.200842 73.7729505,61.6914299 72.0478399,61.6914299 C68.4357097,61.6914299 67.0899676,59.5692655 67.0899676,56.7950112 C67.0899676,54.0217704 68.4357097,51.8999439 72.0478399,51.8999439 C73.7729505,51.8999439 75.0644971,52.3341074 75.981756,53.0980326 L75.981756,60.4399577 L75.981756,60.4399577 Z M100.720987,61.6914299 C97.1125825,61.6914299 95.8715054,59.5692655 95.8715054,56.7950112 C95.8715054,54.0741403 97.1125825,51.8999439 100.720987,51.8999439 C104.334133,51.8999439 105.573517,54.0741403 105.573517,56.7950112 C105.573517,59.5692655 104.334133,61.6914299 100.720987,61.6914299 L100.720987,61.6914299 Z" id="Fill-2"></path>
                    <path d="M95.2292887,77.7348709 L96.3955082,77.7348709 L96.3955082,83.9290501 L95.2292887,83.9290501 L95.2292887,77.7348709 Z" id="Fill-3"></path>
                    <path d="M103.855519,83.9290501 L99.816938,79.7806766 L99.4263917,79.344148 L99.4263917,83.9290501 L98.2601722,83.9290501 L98.2601722,77.7348709 L99.3786319,77.7348709 L103.295951,81.8724326 L103.696997,82.3207867 L103.696997,77.7348709 L104.861523,77.7348709 L104.861523,83.9290501 L103.855519,83.9290501" id="Fill-4"></path>
                    <path d="M115.64338,83.9290501 L114.82164,82.3954561 L111.17767,82.3954561 L110.383706,83.9290501 L109.15313,83.9290501 L112.509863,77.7348709 L113.480302,77.7348709 L116.892586,83.9290501 L115.64338,83.9290501 L115.64338,83.9290501 Z M112.967138,78.9437715 L111.61496,81.5477391 L114.365721,81.5477391 L112.967138,78.9437715 L112.967138,78.9437715 Z" id="Fill-5"></path>
                    <path d="M117.99411,77.7348709 L119.15999,77.7348709 L119.15999,83.9290501 L117.99411,83.9290501 L117.99411,77.7348709 Z" id="Fill-6"></path>
                    <path d="M126.377815,83.9290501 C126.060771,83.9290501 125.920541,83.49117 125.882604,82.9333459 L125.847715,82.301866 C125.808762,81.6879554 125.556415,81.4274572 124.391889,81.4274572 L122.190874,81.4274572 L122.190874,83.9290501 L121.026009,83.9290501 L121.026009,77.7348709 L124.409841,77.7348709 C126.274505,77.7348709 127.114535,78.4791996 127.114535,79.4370623 C127.114535,80.1148305 126.768362,80.7567844 125.556415,80.9804546 C126.768362,81.0730311 127.030194,81.6220706 127.039339,82.3471406 L127.048146,82.8586765 C127.057969,83.2874341 127.132488,83.5938826 127.431579,83.9013448 L127.431579,83.9290501 L126.377815,83.9290501 L126.377815,83.9290501 Z M125.938832,79.5860632 C125.938832,79.1393985 125.575044,78.7021941 124.578863,78.7021941 L122.190874,78.7021941 L122.190874,80.5614952 L124.681157,80.5614952 C125.538801,80.5614952 125.938832,80.1530099 125.938832,79.6607326 L125.938832,79.5860632 L125.938832,79.5860632 Z" id="Fill-7"></path>
                    <path d="M128.755982,82.8786109 L129.837859,82.8786109 L129.837859,83.9290501 L128.755982,83.9290501 L128.755982,82.8786109 Z" id="Fill-8"></path>
                    <path d="M98.1063925,93.6715449 C95.9063938,93.6715449 94.4790198,92.0909869 94.4790198,90.4445441 L94.4790198,90.2397946 C94.4790198,88.5656465 95.9063938,87.0114424 98.1063925,87.0114424 C100.317569,87.0114424 101.743927,88.5656465 101.743927,90.2397946 L101.743927,90.4445441 C101.743927,92.0909869 100.317569,93.6715449 98.1063925,93.6715449 L98.1063925,93.6715449 Z M100.568223,90.2577018 C100.568223,89.0585995 99.6916109,87.9885637 98.1063925,87.9885637 C96.5221902,87.9885637 95.6543847,89.0585995 95.6543847,90.2577018 L95.6543847,90.4067026 C95.6543847,91.6061428 96.5221902,92.6961129 98.1063925,92.6961129 C99.6916109,92.6961129 100.568223,91.6061428 100.568223,90.4067026 L100.568223,90.2577018 L100.568223,90.2577018 Z" id="Fill-9"></path>
                    <path d="M108.831005,93.4296297 L104.794456,89.2802425 L104.402216,88.8454032 L104.402216,93.4296297 L103.23769,93.4296297 L103.23769,87.2351126 L104.35615,87.2351126 L108.272453,91.37335 L108.674177,91.8213663 L108.674177,87.2351126 L109.839041,87.2351126 L109.839041,93.4296297 L108.831005,93.4296297" id="Fill-10"></path>
                    <path d="M111.704044,93.4296297 L111.704044,87.2351126 L112.870941,87.2351126 L112.870941,92.4616308 L117.72889,92.4616308 L117.72889,93.4296297 L111.704044,93.4296297" id="Fill-11"></path>
                    <path d="M119.035341,87.2351126 L120.200544,87.2351126 L120.200544,93.4296297 L119.035341,93.4296297 L119.035341,87.2351126 Z" id="Fill-12"></path>
                    <path d="M127.660216,93.4296297 L123.623329,89.2802425 L123.231089,88.8454032 L123.231089,93.4296297 L122.065208,93.4296297 L122.065208,87.2351126 L123.1857,87.2351126 L127.100309,91.37335 L127.501694,91.8213663 L127.501694,87.2351126 L128.66622,87.2351126 L128.66622,93.4296297 L127.660216,93.4296297" id="Fill-13"></path>
                    <path d="M130.533594,93.4296297 L130.533594,87.2351126 L136.175007,87.2351126 L136.175007,88.2024358 L131.698459,88.2024358 L131.698459,89.7931299 L135.139196,89.7931299 L135.139196,90.7334234 L131.698459,90.7334234 L131.698459,92.4616308 L136.175007,92.4616308 L136.175007,93.4296297 L130.533594,93.4296297" id="Fill-14"></path>
                    <path d="M117.679098,47.9536169 C117.679098,47.0673827 116.95525,46.3460292 116.062717,46.3460292 C115.170185,46.3460292 114.445998,47.0673827 114.445998,47.9536169 C114.445998,48.8445813 115.170185,49.565259 116.062717,49.565259 C116.95525,49.565259 117.679098,48.8445813 117.679098,47.9536169 L117.679098,47.9536169 Z M117.356974,47.9536169 C117.356974,48.6790248 116.777082,49.2669194 116.062717,49.2669194 C115.348014,49.2669194 114.767445,48.6790248 114.767445,47.9536169 C114.767445,47.2322635 115.348014,46.6436931 116.062717,46.6436931 C116.777082,46.6436931 117.356974,47.2322635 117.356974,47.9536169 L117.356974,47.9536169 Z M116.500346,48.1455273 C116.722548,48.0647763 116.870569,47.8590132 116.870569,47.6062861 C116.870569,47.254225 116.634141,47.027514 116.258837,47.027514 L115.405936,47.027514 L115.405936,48.8003203 L115.740932,48.8003203 L115.740932,48.1843824 L116.174496,48.1843824 L116.495265,48.803699 L116.879376,48.803699 L116.500346,48.1455273 L116.500346,48.1455273 Z M115.740932,47.8789475 L115.740932,47.3343003 L116.262225,47.3343003 C116.433618,47.3343003 116.540993,47.405591 116.540993,47.6062861 C116.540993,47.8066432 116.402117,47.8789475 116.262225,47.8789475 L115.740932,47.8789475 L115.740932,47.8789475 Z" id="Fill-15"></path>
                    <path d="M137.608817,92.3781768 L138.691711,92.3781768 L138.691711,93.4296297 L137.608817,93.4296297 L137.608817,92.3781768 Z" id="Fill-16"></path>
                </g>
            </g>
        </g>
    </g>
</svg>