<?xml version="1.0" encoding="UTF-8" standalone="no"?>
<svg width="365px" height="125px" viewBox="0 0 365 125" version="1.1" xmlns="http://www.w3.org/2000/svg" xmlns:xlink="http://www.w3.org/1999/xlink" xmlns:sketch="http://www.bohemiancoding.com/sketch/ns">
    <!-- Generator: Sketch 3.2.2 (9983) - http://www.bohemiancoding.com/sketch -->
    <title>nordstrom</title>
    <desc>Created with Sketch.</desc>
    <defs></defs>
    <g id="Welcome" stroke="none" stroke-width="1" fill="none" fill-rule="evenodd" sketch:type="MSPage">
        <g id="Desktop-HD---Why-Us" sketch:type="MSArtboardGroup" transform="translate(-107.000000, -1496.000000)">
            <g id="nordstrom" sketch:type="MSLayerGroup" transform="translate(107.000000, 1496.000000)">
                <rect id="Rectangle-84" fill="#FFFFFF" sketch:type="MSShapeGroup" x="0" y="0" width="365" height="125"></rect>
                <g transform="translate(53.000000, 46.000000)" fill="#95A2AA" sketch:type="MSShapeGroup">
                    <path d="M43.7476596,0.121952337 C52.1955326,0.121952337 57.7818653,6.46604669 57.7818653,15.844027 C57.7818653,25.222522 52.059293,31.7045202 43.7476596,31.7045202 C35.4365346,31.7045202 29.5777227,24.9467141 29.5777227,15.844027 C29.5777227,6.6039506 35.4365346,0.121952337 43.7476596,0.121952337 L43.7476596,0.121952337 Z M43.7476596,29.6359616 C49.8794591,29.6359616 53.14921,24.6709063 53.14921,15.844027 C53.14921,7.15556624 49.8794591,2.05260706 43.7476596,2.05260706 C37.6168768,2.05260706 34.210378,7.15556624 34.210378,15.5682192 C34.210378,24.6709063 37.4806372,29.6359616 43.7476596,29.6359616 L43.7476596,29.6359616 Z" id="Fill-1"></path>
                    <path d="M117.051691,15.2924114 C117.051691,25.084618 111.601598,31.1529046 102.200048,31.1529046 L92.6622576,31.1529046 C92.6622576,31.1529046 92.9347368,21.4986019 92.9347368,15.844027 C92.9347368,10.3273561 92.6622576,0.535664062 92.6622576,0.535664062 L103.562444,0.535664062 C112.418527,0.535664062 117.051691,5.63862324 117.051691,15.2924114 L117.051691,15.2924114 Z M112.555275,15.4308299 C112.555275,7.15556624 108.740058,2.46683335 101.38261,2.46683335 C98.1123507,2.46683335 96.8861941,2.60473726 96.8861941,2.60473726 C96.8861941,2.60473726 97.1586733,3.29374223 97.1586733,4.53539198 C97.0224337,7.15556624 97.0224337,12.1206215 97.0224337,15.844027 C97.0224337,19.9816589 97.1586733,24.2571946 97.1586733,26.8773689 C97.1586733,28.2569225 96.8861941,29.084346 96.8861941,29.084346 C96.8861941,29.084346 98.1123507,29.2222499 100.837651,29.2222499 C108.603818,29.2222499 112.555275,24.3950985 112.555275,15.4308299 L112.555275,15.4308299 Z" id="Fill-2"></path>
                    <path d="M209.021567,0.121952337 C217.605679,0.121952337 223.192012,6.46604669 223.192012,15.844027 C223.192012,25.222522 217.46944,31.7045202 209.021567,31.7045202 C200.709933,31.7045202 194.987869,24.9467141 194.987869,15.844027 C194.987869,6.6039506 200.709933,0.121952337 209.021567,0.121952337 L209.021567,0.121952337 Z M209.021567,29.6359616 C215.152858,29.6359616 218.558848,24.6709063 218.558848,15.844027 C218.558848,7.15556624 215.152858,2.05260706 209.021567,2.05260706 C202.890275,2.05260706 199.620016,7.15556624 199.620016,15.5682192 C199.620016,24.6709063 202.890275,29.6359616 209.021567,29.6359616 L209.021567,29.6359616 Z" id="Fill-3"></path>
                    <path d="M2.87221582,20.3958852 C2.87221582,27.8432108 3.28093467,31.1529046 3.28093467,31.1529046 L0.147423467,31.1529046 C0.14691511,31.1529046 0.55614232,18.8789422 0.55614232,7.01766233 C0.55614232,4.9491037 0.419394346,0.535664062 0.419394346,0.535664062 L2.59973659,0.535664062 C2.59973659,0.535664062 11.0471012,12.6722371 16.6339423,20.5337891 C17.3151404,21.4986019 18.1320697,22.8781555 18.6775365,23.9813868 C18.6775365,23.9813868 18.4050573,21.9128281 18.4050573,19.9816589 L18.4050573,11.2931981 C18.4050573,3.57006462 17.9963385,0.535664062 17.9963385,0.535664062 L21.130358,0.535664062 C21.130358,0.535664062 20.7211308,11.8448137 20.7211308,24.8088102 C20.7211308,26.0499454 20.8573704,31.1529046 20.8573704,31.1529046 L18.6775365,31.1529046 C18.6775365,31.1529046 10.3664115,19.2921393 4.64333085,11.2931981 C3.8264015,10.0515483 3.28093467,9.22463943 2.7359762,8.12140816 C2.7359762,8.12140816 2.87221582,10.7415824 2.87221582,12.1206215 L2.87221582,20.3958852" id="Fill-4"></path>
                    <path d="M131.085388,29.6359616 C134.628127,29.4980577 137.216679,26.4636571 136.671721,23.1539633 C136.263002,20.5337891 134.355647,19.0163315 131.085388,17.0856768 C126.861452,14.7413103 124.409139,12.948045 124.00042,8.81041314 C123.455461,3.70796852 127.543158,0.121952337 132.584024,-0.0159515715 C135.445564,-0.15385548 138.034117,0.673567971 138.987794,0.949375788 L138.987794,4.25958416 C138.987794,4.25958416 136.671721,1.91470315 132.857012,1.91470315 C130.131711,1.91470315 127.270171,3.57006462 127.270171,6.6039506 C127.270171,9.22463943 129.450513,10.6036785 132.993251,12.8101411 C137.897878,15.7061231 140.350699,18.0510041 140.350699,22.3265399 C140.350699,27.8432108 135.990523,31.7045202 130.676669,31.7045202 C127.951369,31.7045202 125.226576,31.1529046 124.272899,30.7391929 L124.272899,27.1536912 C124.272899,27.1536912 126.861452,29.7738655 131.085388,29.6359616" id="Fill-5"></path>
                    <path d="M164.467145,0.535664062 L164.467145,3.43164614 C164.467145,3.43164614 162.287311,2.7421266 158.608333,2.7421266 L156.70047,2.7421266 L156.70047,4.67329588 L156.70047,11.7069098 C156.70047,20.2579812 157.109697,31.1529046 157.109697,31.1529046 L152.340802,31.1529046 C152.340802,31.1529046 152.749521,20.2579812 152.749521,11.7069098 C152.749521,10.1894522 152.613281,4.67329588 152.613281,4.67329588 C152.613281,3.57006462 152.749521,2.7421266 152.749521,2.7421266 L150.705927,2.7421266 C147.163188,2.7421266 144.983354,3.43164614 144.983354,3.43164614 L144.983354,0.535664062 L164.467145,0.535664062" id="Fill-6"></path>
                    <path d="M258.481123,31.1529046 L253.984707,31.1529046 C253.984707,31.1529046 253.712228,19.9816589 253.303509,12.1206215 L253.303509,8.81041314 C253.303509,8.81041314 252.758551,10.3273561 252.077353,11.9827176 L243.765719,31.980328 C243.765719,31.980328 239.133572,21.222794 235.454594,13.0859489 C234.909127,11.9827176 234.227929,9.77625507 233.683479,8.81041314 C233.819719,10.4657746 233.683479,12.2585254 233.546731,13.4996606 C233.001773,21.4986019 232.865533,31.1529046 232.865533,31.1529046 L230.004501,31.1529046 L231.911856,0.535664062 L234.500409,0.535664062 C234.500409,0.535664062 240.086741,13.2243673 243.62948,21.0848901 C244.038199,22.0507321 244.583665,23.1539633 244.855636,24.2571946 C245.128115,23.0160594 245.536834,22.0507321 245.946062,21.0848901 C249.215812,13.2243673 254.257187,0.535664062 254.257187,0.535664062 L256.846248,0.535664062 L258.481123,31.1529046" id="Fill-7"></path>
                    <path d="M188.71983,7.70769644 C188.71983,11.8448137 186.267517,14.6034064 181.771101,15.7061231 C184.632642,21.0848901 190.490945,31.1529046 190.490945,31.1529046 L185.722559,31.1529046 C185.722559,31.1529046 183.269737,25.9125561 176.729727,14.327084 L177.138954,14.327084 C182.043581,14.327084 184.632642,12.2585254 184.632642,8.25879751 C184.632642,4.81068523 182.452299,2.46683335 178.50135,2.46683335 C177.275194,2.46683335 175.503571,2.60473726 175.503571,2.60473726 C175.503571,2.60473726 175.77605,3.29374223 175.77605,5.22491152 L175.77605,20.9469862 C175.77605,27.8432108 176.048529,31.1529046 176.048529,31.1529046 L171.552113,31.1529046 C171.552113,31.1529046 171.825101,19.1542354 171.825101,12.8101411 C171.825101,8.53460532 171.552113,0.535664062 171.552113,0.535664062 L180.408705,0.535664062 C185.858798,0.535664062 188.71983,3.15583832 188.71983,7.70769644" id="Fill-8"></path>
                    <path d="M83.5336949,7.70769644 C83.5336949,11.8448137 80.9446338,14.6034064 76.584966,15.7061231 C79.445998,21.0848901 85.1685703,31.1529046 85.1685703,31.1529046 L80.3996753,31.1529046 C80.3996753,31.1529046 77.9473622,25.9125561 71.4068438,14.327084 L71.9518023,14.327084 C76.7206973,14.327084 79.3097584,12.2585254 79.3097584,8.25879751 C79.3097584,4.81068523 77.1294161,2.46683335 73.1784672,2.46683335 C72.0880419,2.46683335 70.1806873,2.60473726 70.1806873,2.60473726 C70.1806873,2.60473726 70.4531665,3.29374223 70.4531665,5.22491152 L70.4531665,20.9469862 C70.4531665,27.8432108 70.7256457,31.1529046 70.7256457,31.1529046 L66.22923,31.1529046 C66.22923,31.1529046 66.6379488,19.1542354 66.6379488,12.8101411 C66.6379488,8.53460532 66.22923,0.535664062 66.22923,0.535664062 L75.2220615,0.535664062 C80.5359149,0.535664062 83.5336949,3.15583832 83.5336949,7.70769644" id="Fill-9"></path>
                </g>
            </g>
        </g>
    </g>
</svg>