<?xml version="1.0" encoding="UTF-8" standalone="no"?>
<svg width="365px" height="125px" viewBox="0 0 365 125" version="1.1" xmlns="http://www.w3.org/2000/svg" xmlns:xlink="http://www.w3.org/1999/xlink" xmlns:sketch="http://www.bohemiancoding.com/sketch/ns">
    <!-- Generator: Sketch 3.2.2 (9983) - http://www.bohemiancoding.com/sketch -->
    <title>uber</title>
    <desc>Created with Sketch.</desc>
    <defs></defs>
    <g id="Welcome" stroke="none" stroke-width="1" fill="none" fill-rule="evenodd" sketch:type="MSPage">
        <g id="Desktop-HD---Why-Us" sketch:type="MSArtboardGroup" transform="translate(-570.000000, -1828.000000)">
            <g id="uber" sketch:type="MSLayerGroup" transform="translate(570.000000, 1828.000000)">
                <rect id="Rectangle-84" fill="#FFFFFF" sketch:type="MSShapeGroup" x="0" y="0" width="365" height="125"></rect>
                <g transform="translate(71.000000, 46.569106)" fill="#95A2AA" sketch:type="MSShapeGroup">
                    <path d="M220.948838,27.2679755 C219.947177,28.36975 218.880903,27.8648225 218.595975,27.5248463 L211.683631,18.8343636 L212.124891,18.8343636 C225.361127,15.9946184 222.015112,0.277961977 211.171139,0.00849940359 L188.522505,0.00849940359 L188.522505,30.9035167 L192.125711,30.9035167 L192.125711,20.7804122 C192.125711,19.4951135 192.603848,18.8343636 194.037629,18.8343636 L207.161343,18.8343636 L216.205919,30.1322745 C218.016663,31.683573 221.252362,32.3355088 223.302017,30.1322745 L220.948838,27.2679755 L220.948838,27.2679755 Z M193.74356,15.456008 C192.444364,15.456008 192.125711,16.116758 192.125711,16.116758 L192.125711,3.4359626 L211.171139,3.4359626 C219.208696,3.75547722 219.453911,15.0411112 211.171139,15.456008 L193.74356,15.456008 L193.74356,15.456008 Z" id="Fill-1"></path>
                    <path d="M156.082303,0.00849940359 L127.551038,0.00849940359 L127.551038,30.9035167 L157.038262,30.9035167 L157.038262,27.3687091 L131.154244,27.3687091 L131.154244,18.6017317 C131.154244,17.3167478 131.632381,16.6556831 133.066162,16.6556831 L148.43463,16.6556831 L148.43463,13.2773276 L132.772093,13.2773276 C131.472897,13.2773276 131.154244,13.9383923 131.154244,13.9383923 L131.154244,3.4359626 L156.082303,3.4359626 L156.082303,0.00849940359" id="Fill-2"></path>
                    <path d="M92.1915835,15.039852 C98.3682832,10.4863753 95.7210361,1.01237341 87.9264869,0.00849940359 L64.3222089,0.00849940359 L64.3222089,30.9035167 L87.9264869,30.9035167 C95.5486294,29.9213634 99.2681391,20.2565971 92.1915835,15.039852 L92.1915835,15.039852 Z M67.9254151,3.4359626 L87.55898,3.4359626 C93.8828715,4.17037403 93.6622413,12.6899244 87.55898,13.2773276 L69.5432647,13.2773276 C68.2440681,13.2773276 67.9254151,13.9383923 67.9254151,13.9383923 L67.9254151,3.4359626 L67.9254151,3.4359626 Z M87.55898,27.3687091 L67.9254151,27.3687091 L67.9254151,18.6017317 C67.9254151,17.3167478 68.4035522,16.6556831 69.8373332,16.6556831 L87.55898,16.6556831 C94.2897766,17.5065678 94.0710375,26.6862385 87.55898,27.3687091 L87.55898,27.3687091 Z" id="Fill-3"></path>
                    <path d="M19.2462014,31.539398 C21.8934484,31.539398 32.7765051,29.8017421 32.7765051,19.5926992 L32.7765051,0.00849940359 L29.1487145,0.00849940359 L29.1487145,18.8094949 C29.1487145,27.8657669 19.0498405,27.426631 19.0498405,27.426631 L15.8636255,27.426631 C15.8636255,27.426631 5.76506673,27.8657669 5.76506673,18.8094949 L5.76506673,5.29607281 C5.76506673,2.50637968 3.55908007,0.00849940359 0.029312296,0.00849940359 L0.029312296,3.53449272 C1.45080106,3.53449272 2.13727612,4.85630738 2.13727612,5.88379083 L2.13727612,19.5926992 C2.13727612,29.8017421 13.0203328,31.539398 15.6675798,31.539398 L19.2462014,31.539398" id="Fill-4"></path>
                </g>
            </g>
        </g>
    </g>
</svg>