<?xml version="1.0" encoding="UTF-8" standalone="no"?>
<svg width="365px" height="125px" viewBox="0 0 365 125" version="1.1" xmlns="http://www.w3.org/2000/svg" xmlns:xlink="http://www.w3.org/1999/xlink" xmlns:sketch="http://www.bohemiancoding.com/sketch/ns">
    <!-- Generator: Sketch 3.2.2 (9983) - http://www.bohemiancoding.com/sketch -->
    <title>emirates</title>
    <desc>Created with Sketch.</desc>
    <defs></defs>
    <g id="Welcome" stroke="none" stroke-width="1" fill="none" fill-rule="evenodd" sketch:type="MSPage">
        <g id="Desktop-HD---Why-Us" sketch:type="MSArtboardGroup" transform="translate(-107.000000, -1828.000000)">
            <g id="emirates" sketch:type="MSLayerGroup" transform="translate(107.000000, 1828.000000)">
                <rect id="Rectangle-84" fill="#FFFFFF" sketch:type="MSShapeGroup" x="0" y="0" width="365" height="125"></rect>
                <g transform="translate(117.000000, 17.000000)" fill="#95A2AA" sketch:type="MSShapeGroup">
                    <path d="M73.5310179,5.36228046 C73.1584898,5.75002364 71.8501408,7.72959106 71.8501408,10.1820667 C71.8501408,10.7692206 71.8605272,24.8276805 71.8501408,25.3317466 C71.8290216,26.4015024 71.1760588,27.9254716 70.6380396,28.4627728 C70.2578948,28.8428996 67.9264784,30.9619853 67.7197877,31.1852839 L69.0416391,31.2060558 C69.4712928,30.7940787 73.9634413,26.8134795 74.433256,26.2779092 C75.0446729,25.5830873 76.5001636,23.8233564 76.5001636,21.0596477 C76.5001636,20.4091392 76.5074341,7.09050721 76.5074341,6.50231465 C76.5074341,4.31848967 77.5253082,3.10644603 78.0501712,2.52171547 C78.587498,1.92105974 80.3576987,0.444866059 80.6720626,0.111476164 L79.2847763,0.0702784514 C78.9496396,0.405399343 73.9925234,4.87967868 73.5310179,5.36228046" id="Fill-1"></path>
                    <path d="M62.4112626,60.451239 L67.9108987,65.2557924 L71.5929025,65.2557924 C75.3379175,65.2557924 78.7606058,63.653236 81.0186245,61.3956706 C83.2790667,59.1349894 84.1103305,56.1005528 84.1103305,53.2606802 L84.1103305,45.3856854 C84.1103305,42.7393382 82.448149,41.1997901 81.9862973,40.7383065 C81.7342523,40.4869658 80.1323123,38.9764984 80.1323123,38.9764984 L80.1323123,45.018368 C80.1323123,45.018368 81.8973199,46.8411072 82.2459591,47.210848 C83.8766349,48.9439215 83.8589779,52.0988354 78.6944786,57.1339576 C77.789817,58.0146885 75.2094715,60.451239 71.6583373,60.451239 L62.4112626,60.451239" id="Fill-2"></path>
                    <path d="M77.7088025,28.1321525 C77.0946159,28.7802375 76.5074341,30.3668688 76.5074341,31.764129 L76.5074341,34.7466357 L79.5316281,34.7466357 C80.7063379,34.7466357 82.2591153,33.6761876 82.5942521,33.1098056 C82.6153712,33.0679155 82.5942521,30.151879 82.5942521,30.151879 C82.5942521,30.151879 83.3708138,31.2638711 84.2100406,31.8510251 C84.5250969,31.4528959 87.2785503,28.1144964 89.5840005,28.0958016 C93.4332265,28.0642975 92.5628402,32.9207808 90.9896362,34.4738307 C90.4803529,34.9740886 88.2071007,37.0592468 87.5039367,37.7281038 C85.6863043,39.458754 82.5734791,38.6299529 82.5734791,34.1584432 C82.5734791,34.1584432 79.2349213,37.3289361 78.7339472,37.749222 C78.2305496,38.1684693 76.5074341,39.993978 76.5074341,39.993978 L76.5074341,47.8506242 C76.5074341,51.6186571 75.2676358,52.883323 74.2393752,54.016087 C73.8401885,54.4561063 69.5969691,58.3269603 69.030214,58.7469 L67.6429278,58.7780579 C67.6429278,58.7780579 70.1270253,56.5204925 70.6248835,56.0039632 C71.1912923,55.4161168 71.8501408,54.2227679 71.8501408,52.235238 C71.8501408,51.7318642 71.7867833,39.8883873 71.7867833,39.8883873 L52.4852589,39.8883873 C45.7714444,39.8883873 44.3367266,32.4385252 44.2944883,30.445456 C44.2841018,29.8583021 44.2944883,23.9074828 44.2944883,22.9841694 C44.2944883,21.7600088 43.5110022,19.6935454 42.2597787,19.0565387 L44.1532323,19.0565387 C44.371002,19.1479353 45.5612915,19.6281137 45.5612915,24.1958668 C45.5612915,24.1958668 45.480277,29.5117566 45.480277,29.7949476 C45.480277,32.1106745 47.3217982,34.7674077 49.982812,34.7674077 C50.5284479,34.7674077 71.8290216,34.7466357 71.8290216,34.7466357 C71.8501408,34.1584432 72.4373226,31.9299585 73.4863561,30.7525348 C74.081847,30.0885246 78.7682225,25.8008466 79.303472,25.3892157 L80.6907582,25.3736367 C80.4809515,25.5654311 78.2153161,27.5976208 77.7088025,28.1321525 L77.7088025,28.1321525 Z M84.8810066,32.6064319 C84.8810066,32.6064319 86.1457325,34.2848059 86.748494,34.7674077 C89.1013758,36.6555785 90.2182676,34.6282356 88.6398703,32.4592972 C88.0152972,31.6045312 85.5949034,31.8510251 84.8810066,32.6064319 L84.8810066,32.6064319 Z" id="Fill-3"></path>
                    <path d="M61.4567459,46.6808169 C61.4567459,47.7353399 58.0870287,50.5357457 57.8896858,50.7327331 C57.6459499,49.5968533 56.7963366,48.3411886 54.2841956,45.8284743 L57.9713927,42.1417983 C60.4419878,44.6150459 61.4567459,45.1419611 61.4567459,46.6808169" id="Fill-4"></path>
                    <path d="M67.8506572,4.41507926 C68.5901739,5.1545609 70.1817274,7.16113186 69.2272107,8.11768044 C68.3827907,8.96206045 67.0744416,10.3004668 67.0744416,10.3004668 C67.0090069,9.81717264 65.7837496,8.6560203 65.7837496,8.6560203 C65.7837496,8.6560203 65.794136,12.2166798 65.7837496,12.6573914 C65.7422037,14.265487 65.1366724,14.7238549 65.1366724,14.7238549 C65.1366724,14.7238549 68.1078954,17.6713954 68.1078954,21.458123 C68.1078954,23.2943639 68.1155122,24.983124 68.1155122,25.3473256 C68.1155122,26.1235044 67.9192079,26.7241601 67.3787652,27.3196228 C67.1111405,27.6156232 64.3573409,30.3824478 63.9380737,30.759805 C63.1403928,31.4788608 62.301166,31.598992 61.6720921,31.598992 L51.4310322,31.598992 C49.8180133,31.598992 48.1579091,30.3405576 48.1579091,29.0821233 C48.1579091,28.767082 48.1786821,25.2843173 48.1786821,25.2843173 C48.703545,25.8929357 49.238102,26.6036827 50.5284479,26.584988 C51.5359355,26.5697552 52.5953555,25.7779975 52.87856,25.4944603 C53.1721509,25.1981137 60.6254821,17.4068992 60.6254821,17.4068992 C60.6254821,17.4068992 57.1345894,14.1709746 54.8350248,12.6335037 C53.7125935,11.8815589 52.2228275,12.8308373 51.997441,13.8192362 C51.2921997,16.9191044 51.997441,21.5682144 51.997441,21.5682144 C51.997441,21.5682144 49.7183032,19.29507 49.1702438,18.7473828 C48.0322328,17.6059638 48.0737787,15.0257406 49.4299055,13.6700243 C49.6445593,13.4543422 51.7114669,11.1178433 54.3364742,11.1178433 L58.4249352,11.1178433 C61.1683483,11.1178433 64.1686534,13.8503941 64.1686534,13.8503941 C64.1686534,13.8503941 64.609386,13.3681385 64.609386,12.9011157 C64.609386,11.4955467 64.556415,7.70362611 64.556415,7.70362611 C62.4929695,5.64027847 62.2118423,3.51046058 63.2006343,2.52171547 C65.0470026,0.675780971 65.7183148,0.0252725466 65.7183148,0.0252725466 C65.7183148,0.0252725466 65.6975418,2.26448941 67.8506572,4.41507926 L67.8506572,4.41507926 Z M55.0025932,24.9907404 C53.9930282,26.0476867 53.8174969,26.3125292 52.8733667,26.8789112 L64.407196,26.8789112 C67.5331774,26.8789112 66.9117202,24.9384643 66.3505046,23.9601051 C65.201761,21.9538804 61.5716895,18.2253143 61.5716895,18.2253143 C61.5716895,18.2253143 55.2127461,24.767788 55.0025932,24.9907404 L55.0025932,24.9907404 Z" id="Fill-5"></path>
                    <path d="M41.850898,35.4885408 L39.9574444,35.4885408 C39.9574444,35.4885408 41.992154,36.6057258 41.992154,39.4878347 L41.992154,48.6922346 C41.992154,54.6821744 46.9326518,60.2203241 52.936378,60.2203241 L57.9506197,60.2203241 C60.9616575,60.2203241 62.0179616,59.4915746 63.8376712,57.876555 C64.5044826,57.2831695 65.3720991,56.3103495 65.6895789,55.9565339 C66.7386124,54.7818798 67.8558504,53.8326014 67.8558504,50.7483121 L67.8558504,47.7353399 C67.8558504,45.131229 66.3480811,44.0483177 65.6189509,43.319222 C65.1519059,42.8521992 63.869523,41.627 63.869523,41.627 L63.869523,47.7980019 C63.869523,47.7980019 65.1335565,49.1433323 65.6895789,49.5812744 C68.2938133,51.6373518 66.2217124,55.2063201 63.8065118,55.2063201 C63.3242333,55.2063201 53.4657418,55.2094359 52.7944295,55.227092 C48.7402439,55.3274898 43.2589572,51.7110923 43.2589572,45.6297559 L43.2589572,40.6282151 C43.2589572,35.4885408 41.850898,35.4885408 41.850898,35.4885408" id="Fill-6"></path>
                    <path d="M53.9192843,46.6970883 C53.9192843,47.7481492 50.5495671,50.5513247 50.3532628,50.7483121 C50.1116042,49.6124323 49.2595674,48.3567676 46.7470802,45.8443995 L50.4342772,42.1570311 C52.9072959,44.6302786 53.9192843,45.1544243 53.9192843,46.6970883" id="Fill-7"></path>
                    <path d="M15.3657445,87.6327283 C14.7650602,87.6327283 10.1306171,87.6254581 9.46761408,87.6254581 C7.60774342,87.6254581 7.74969185,86.080717 7.58697048,84.7610054 L7.58697048,76.2985105 C7.58697048,76.2985105 8.87731634,76.2673525 10.3404238,76.2673525 C11.9745618,76.2673525 14.0099638,76.0257054 15.9892789,77.1460063 C15.9892789,77.1460063 14.56564,73.7130943 10.3300373,73.7130943 L7.58697048,73.7130943 L7.58697048,72.0502993 L7.58697048,71.0013155 C7.58697048,71.0013155 7.58697048,68.6388517 7.00982894,67.9409139 C7.00982894,67.9409139 10.6579036,67.9544157 10.9068327,67.9544157 C14.2796659,67.9564929 16.8870162,67.904563 19.597885,69.7110308 C19.597885,69.7110308 19.0789077,65.2478298 12.5645134,65.2478298 L-0.160297861,65.2478298 C-0.160297861,65.2478298 2.0485582,67.1387702 1.98762424,70.9878137 L2.0485582,86.4082215 C2.0485582,90.2790755 3.59787338,90.3860511 3.59787338,90.3860511 L7.94357264,90.3860511 L9.95750927,90.3860511 L16.1388441,90.3860511 C18.9816211,90.3860511 19.970413,88.3538614 19.970413,87.2529477 L20.0129976,85.7736382 C20.0129976,85.7736382 19.1104133,87.6327283 15.3657445,87.6327283" id="Fill-8"></path>
                    <path d="M48.7502841,86.3296343 L48.7502841,75.5434499 C48.7502841,71.3582469 45.3307118,70.2459087 42.7839493,70.2459087 C39.4118085,70.2459087 38.4022436,73.0625859 37.9718975,74.0305591 C37.2195708,71.4049838 34.5914476,70.2147507 32.4355625,70.2147507 C28.3626812,70.2147507 27.3292274,74.0932211 27.3292274,74.0932211 C27.3292274,74.0932211 27.2326332,70.3487298 23.9622799,70.3487298 L20.7577075,70.356 C20.7577075,70.356 22.6137698,71.1193694 22.6137698,74.355294 L22.6089228,86.3317115 C22.6089228,90.2866919 24.203246,90.3548931 24.203246,90.3548931 L29.4851125,90.3548931 C29.3490497,90.2866919 27.4580196,88.8600047 27.4580196,86.2984763 L27.4580196,75.6750056 C27.5231082,75.2027898 28.3211353,73.59781 30.5995807,73.59781 C31.8899266,73.59781 33.3090647,74.9424479 33.2772128,76.4560311 L33.2720196,86.3265185 C33.2720196,90.3393142 34.8459161,90.3497002 34.8459161,90.3497002 L40.1485555,90.3497002 C40.1485555,90.3497002 38.1211165,88.923013 38.1211165,86.2932833 L38.105883,75.6666968 C38.304957,75.0743499 39.0022354,73.6313913 41.003362,73.6313913 C42.5980315,73.6313913 43.9330391,74.9770679 43.9011873,76.4903049 C43.9011873,76.4903049 43.8908008,85.500487 43.8959941,86.3369044 C43.9198829,90.3756651 45.4698906,90.3393142 45.4698906,90.3393142 C48.2313068,90.3393142 50.77253,90.3497002 50.77253,90.3497002 C50.77253,90.3497002 48.7502841,88.9520937 48.7502841,86.3296343" id="Fill-9"></path>
                    <path d="M58.0160545,86.3244413 C58.0160545,88.9832516 60.0511103,90.3497002 60.0511103,90.3497002 C60.0511103,90.3497002 57.5285828,90.3393142 54.7688976,90.3393142 C54.7688976,90.3393142 53.1486082,90.3628557 53.1486082,86.3555992 L53.1486082,86.3369044 L53.1534552,74.3265594 C53.1534552,71.1588361 51.3181659,70.3456141 51.3181659,70.3456141 L54.5230845,70.3456141 C55.6527862,70.3456141 58.005668,70.3456141 58.005668,74.8250864 L57.9977051,86.3057465 L58.0160545,86.3244413" id="Fill-10"></path>
                    <path d="M74.2892302,71.8560815 C74.2892302,71.8560815 73.779947,70.4162387 71.5852858,70.4162387 C68.2675009,70.4162387 67.4594335,74.3584098 67.4594335,74.3584098 C67.1897314,71.2429626 66.3556979,70.3217263 64.013895,70.3217263 L60.8089764,70.3300351 C60.8089764,70.3300351 62.6660773,71.0902887 62.6660773,74.3265594 L62.6601917,86.3189021 C62.6601917,90.2759597 64.2548611,90.3413914 64.2548611,90.3413914 L69.5367276,90.3413914 C69.4006648,90.2759597 67.5092885,88.8496187 67.5092885,86.2870517 L67.5144818,76.4688405 C67.6536605,75.5773774 68.1130887,74.8929414 68.8103671,74.4414976 C70.5521782,73.314619 72.9279102,73.5815386 74.2892302,75.2443337 L74.2892302,71.8560815" id="Fill-11"></path>
                    <path d="M98.9380558,72.5799841 C100.726952,72.5799841 102.06196,73.3613559 102.06196,73.3613559 L102.07754,70.3435369 L97.6349,70.3435369 L97.6369773,65.7674749 C97.6369773,65.7674749 96.4705766,67.7865091 94.0813422,69.7480741 C92.5815359,70.9805435 89.4313194,72.5013969 89.4313194,72.5013969 L92.7858031,72.5616356 L92.7806099,86.4788461 C92.7806099,90.3393142 94.393975,90.3393142 94.393975,90.3393142 C97.291454,90.3393142 99.670302,90.3497002 99.670302,90.3497002 C99.670302,90.3497002 97.6297067,88.9832516 97.6297067,86.4449186 L97.6349,72.5720215 C99.0273795,72.5772145 98.0676696,72.5799841 98.9380558,72.5799841" id="Fill-12"></path>
                    <path d="M114.998655,78.6225462 C112.035395,81.7220682 109.709172,81.2366968 107.846878,83.507764 C107.846878,83.5105336 108.145662,86.5865141 110.498544,87.672195 C111.303841,88.0447054 114.565886,89.2217829 116.680225,85.5742275 L116.664299,88.8025356 C116.664299,88.8028818 115.308518,90.3787809 111.001941,90.3787809 C105.812514,90.3787809 102.257918,86.2984763 102.257918,80.7648272 C102.257918,75.3232671 105.156782,70.2722198 110.627336,70.2438315 C115.990217,70.2147507 118.893235,74.5474346 114.998655,78.6225462 L114.998655,78.6225462 Z M111.75496,77.3526872 C112.632963,75.7321285 113.322971,71.6175502 110.325436,71.8429259 C106.852893,72.1029215 107.513818,81.3364022 107.513818,81.3364022 C108.675718,80.0748521 110.416837,79.817626 111.75496,77.3526872 L111.75496,77.3526872 Z" id="Fill-13"></path>
                    <path d="M55.5613853,68.7274787 C56.9227054,68.7274787 58.026441,67.647337 58.026441,66.3151622 C58.026441,64.9829874 56.9227054,63.9021533 55.5613853,63.9021533 C54.2004114,63.9021533 53.0963296,64.9829874 53.0963296,66.3151622 C53.0963296,67.647337 54.2004114,68.7274787 55.5613853,68.7274787" id="Fill-14"></path>
                    <path d="M79.7933672,88.0810564 C78.587498,88.0810564 77.7274982,86.8274688 77.7274982,85.5430695 C77.7274982,80.5498375 81.8152668,79.8602085 82.9089621,78.5280338 L82.9169251,86.945869 C82.4346466,87.3755022 81.944059,88.0810564 79.7933672,88.0810564 L79.7933672,88.0810564 Z M82.9089621,76.6003962 C81.6795502,78.7534095 72.1198428,79.2097001 73.5860662,86.6024393 C74.1656312,89.5344009 76.1193263,90.3891669 78.5771115,90.3891669 C80.9635762,90.3891669 82.398294,89.1431957 82.9982858,87.9841206 C83.3548879,90.2105281 84.4804351,90.3393142 84.4804351,90.3393142 C87.2415052,90.3393142 89.7623016,90.3497002 89.7623016,90.3497002 C89.7623016,90.3497002 87.7061266,88.9832516 87.7061266,86.3452132 L87.7061266,75.1055078 C87.7061266,72.4176167 84.7241709,70.3248421 81.5559512,70.3248421 C78.5109843,70.3248421 76.5967578,71.7906498 76.5967578,71.7906498 L76.5967578,75.2786074 C76.5967578,75.2786074 77.6828364,72.5148987 80.4387132,72.5148987 C83.1267318,72.5148987 83.326152,73.8543436 83.3102261,74.5232006 C83.3102261,74.5232006 83.5809668,75.4281655 82.9089621,76.6003962 L82.9089621,76.6003962 Z" id="Fill-15"></path>
                    <path d="M126.692782,84.918526 C126.721864,86.3317115 125.457485,88.1887243 122.767043,88.1887243 C120.012897,88.1887243 118.911931,85.3696237 118.911931,85.3696237 L118.911931,88.9417077 C118.911931,88.9417077 120.899555,90.3580089 123.944868,90.3580089 C127.558321,90.3580089 131.211589,87.6116101 131.130229,83.7878392 C131.10357,82.4432013 130.624061,81.2969355 129.889738,80.3085366 C128.66725,78.6692831 126.441083,77.5237097 124.717968,76.4636475 C123.734369,75.8577988 123.212622,74.7752337 123.199812,74.3947607 C123.17073,73.7255575 123.49548,72.372957 126.186961,72.372957 C128.811622,72.372957 129.929206,75.1366657 129.929206,75.1366657 L129.91882,71.7906498 C129.91882,71.7906498 127.910077,70.1964022 124.86511,70.1964022 C121.69689,70.1964022 118.819491,72.2888305 118.87454,74.9770679 C118.924395,77.3371083 119.91838,78.8662704 121.848879,80.3061132 C122.61263,80.8745724 123.522485,81.4277988 124.576712,82.0128756 C126.113217,82.8655644 126.672356,83.909009 126.692782,84.918526" id="Fill-16"></path>
                </g>
            </g>
        </g>
    </g>
</svg>