<?xml version="1.0" encoding="UTF-8" standalone="no"?>
<svg width="365px" height="125px" viewBox="0 0 365 125" version="1.1" xmlns="http://www.w3.org/2000/svg" xmlns:xlink="http://www.w3.org/1999/xlink" xmlns:sketch="http://www.bohemiancoding.com/sketch/ns">
    <!-- Generator: Sketch 3.2.2 (9983) - http://www.bohemiancoding.com/sketch -->
    <title>jetblue</title>
    <desc>Created with Sketch.</desc>
    <defs></defs>
    <g id="Welcome" stroke="none" stroke-width="1" fill="none" fill-rule="evenodd" sketch:type="MSPage">
        <g id="Desktop-HD---Why-Us" sketch:type="MSArtboardGroup" transform="translate(-107.000000, -1164.000000)">
            <g id="jetblue" sketch:type="MSLayerGroup" transform="translate(107.000000, 1164.000000)">
                <rect id="Rectangle-84" fill="#FFFFFF" sketch:type="MSShapeGroup" x="0" y="0" width="365" height="125"></rect>
                <g transform="translate(92.703429, 28.443645)" fill="#95A2AA" sketch:type="MSShapeGroup">
                    <path d="M62.1850777,62.6084643 L65.1686127,56.255125 L68.1521478,62.6084643 L62.1850777,62.6084643 L62.1850777,62.6084643 Z M56.5527095,68.2742679 L59.5148631,68.2742679 L61.0280121,65.0012857 L69.2508255,65.0012857 L70.742593,68.2742679 L73.6862435,68.2742679 L66.7578303,54.0208393 L63.5777504,54.0208393 L56.5527095,68.2742679 L56.5527095,68.2742679 Z" id="Fill-1"></path>
                    <path d="M77.476106,54.0208393 L80.2622738,54.0208393 L80.2622738,68.2742679 L77.476106,68.2742679 L77.476106,54.0208393 Z" id="Fill-2"></path>
                    <path d="M88.3695451,60.3561071 L88.3695451,56.3352143 L93.745747,56.3352143 C96.0236941,56.3352143 97.1828155,56.6674821 97.1828155,58.3353929 C97.1828155,60.0217857 96.0236941,60.3561071 93.745747,60.3561071 L88.3695451,60.3561071 L88.3695451,60.3561071 Z M85.5821438,68.2742679 L88.3695451,68.2742679 L88.3695451,62.6680179 L92.7852263,62.6680179 L96.9258269,68.2742679 L100.361662,68.2742679 L95.9858653,62.4712857 C98.0849484,62.3554643 99.9689833,60.9035893 99.9689833,58.2766607 C99.9689833,54.7847679 97.5351983,54.0208393 94.1593958,54.0208393 L85.5821438,54.0208393 L85.5821438,68.2742679 L85.5821438,68.2742679 Z" id="Fill-3"></path>
                    <path d="M103.483765,54.0208393 L106.270344,54.0208393 L109.019917,63.8233571 L109.056512,63.8233571 L111.786348,54.0208393 L114.456974,54.0208393 L117.225049,63.8024107 L117.263289,63.8024107 L119.99148,54.0208393 L122.720083,54.0208393 L118.559334,68.2742679 L115.88912,68.2742679 L113.180665,58.1600179 L113.140781,58.1600179 L110.412178,68.2742679 L107.685632,68.2742679 L103.483765,54.0208393" id="Fill-4"></path>
                    <path d="M129.925221,62.6084643 L132.90999,56.255125 L135.89188,62.6084643 L129.925221,62.6084643 L129.925221,62.6084643 Z M124.292442,68.2742679 L127.25624,68.2742679 L128.767745,65.0012857 L136.99138,65.0012857 L138.482737,68.2742679 L141.429677,68.2742679 L134.499619,54.0208393 L131.319128,54.0208393 L124.292442,68.2742679 L124.292442,68.2742679 Z" id="Fill-5"></path>
                    <path d="M148.143042,62.5665714 L141.176389,54.0208393 L144.590431,54.0208393 L149.535303,60.0583393 L154.464139,54.0208393 L157.899563,54.0208393 L150.929621,62.5665714 L150.929621,68.2742679 L148.143042,68.2742679 L148.143042,62.5665714" id="Fill-6"></path>
                    <path d="M171.34274,58.3534643 C170.890852,57.0786071 169.735431,55.9815893 166.338247,55.9815893 C164.452567,55.9815893 162.550029,56.4518571 162.550029,57.7649107 C162.550029,58.3735893 162.902823,59.0200536 165.750257,59.3740893 L169.126059,59.8829643 C172.324643,60.3745893 174.211967,61.6071429 174.211967,64.0007857 C174.211967,67.3731607 170.991591,68.6278929 167.182403,68.6278929 C161.058262,68.6278929 159.566494,65.6083214 159.232614,64.529375 L161.922566,63.6865893 C162.432431,64.7252857 163.490813,66.2367143 167.261761,66.2367143 C169.538064,66.2367143 171.420865,65.4908571 171.420865,64.2546071 C171.420865,63.3337857 170.362483,62.7271607 168.321377,62.4712857 L164.906101,62.0018393 C161.608012,61.5496429 159.762217,60.1178929 159.762217,57.9406964 C159.762217,53.6684464 165.318105,53.6684464 166.41596,53.6684464 C172.561483,53.6684464 173.619454,56.5114107 173.972248,57.4901429 L171.34274,58.3534643" id="Fill-7"></path>
                    <path d="M4.83796491,11.8790893 L10.6520754,11.8790893 L10.6520754,42.9976786 C10.6520754,47.8363036 7.11591202,51.0838214 2.21339156,51.0838214 L-0.0629108135,51.0838214 L-0.0629108135,45.6180357 L1.5871617,45.6180357 C3.58262692,45.6180357 4.83796491,44.7037857 4.83796491,42.5417857 L4.83796491,11.8790893 L4.83796491,11.8790893 Z M4.83796491,0.205357143 L10.6520754,0.205357143 L10.6520754,6.01408929 L4.83796491,6.01408929 L4.83796491,0.205357143 Z" id="Fill-8"></path>
                    <path d="M20.219042,23.7228571 C20.332117,19.3388929 22.8987138,17.0052143 26.3201574,17.0052143 C29.7416011,17.0052143 32.2489876,19.3388929 32.4179833,23.7228571 L20.219042,23.7228571 L20.219042,23.7228571 Z M38.2320938,28.5035714 L38.2320938,23.7228571 C38.2320938,16.2634643 32.7008764,11.5377857 26.3201574,11.5377857 C20.7305522,11.5377857 14.4049316,15.1804107 14.4049316,26.3990714 C14.4049316,38.2420179 21.3016837,41.0899107 27.2317474,41.0899107 C31.1050799,41.0899107 34.8122949,39.7201786 37.6601399,36.4196786 L33.4459378,32.8337321 C31.7329545,34.5973393 29.3402876,35.6228929 27.1174389,35.6228929 C23.1260973,35.6228929 20.219042,33.2304821 20.219042,28.5035714 L38.2320938,28.5035714 L38.2320938,28.5035714 Z" id="Fill-9"></path>
                    <path d="M42.8418528,3.10951786 L48.6559633,3.10951786 L48.6559633,11.8790893 L52.871399,11.8790893 L52.871399,16.3209643 L48.6559633,16.3209643 L48.6559633,33.1167143 C48.6559633,34.7131607 49.2821932,35.2815893 50.7032374,35.2815893 L52.871399,35.2815893 L52.871399,40.7477857 L49.8516799,40.7477857 C45.8023617,40.7477857 42.8418528,38.1816429 42.8418528,33.6305179 L42.8418528,16.3209643 L39.9298634,16.3209643 L39.9298634,11.8790893 L42.8418528,11.8790893 L42.8418528,3.10951786" id="Fill-10"></path>
                    <path d="M72.1994101,22.7548036 C76.7585938,22.7548036 78.8071014,25.6577321 78.8071014,28.8456964 C78.8071014,32.036125 76.7585938,34.9390536 72.1994101,34.9390536 L62.7348277,34.9390536 L62.7348277,22.7548036 L72.1994101,22.7548036 L72.1994101,22.7548036 Z M56.5753245,40.7477857 L73.6788422,40.7477857 C79.7799575,40.7477857 84.9649599,36.2492321 84.9649599,29.2465536 C84.9649599,25.1468036 82.8000878,20.9332857 78.3539791,19.9056786 L78.3539791,19.7939643 C83.0854479,17.6861786 84.3407859,14.4407143 84.3407859,11.0827143 C84.3407859,4.70432143 80.2318463,0.205357143 72.3108404,0.205357143 L56.5753245,0.205357143 L56.5753245,40.7477857 L56.5753245,40.7477857 Z M71.6254003,5.67360714 C76.0731537,5.67360714 78.1816939,8.34858929 78.1816939,11.4806964 C78.1816939,14.6674286 76.0731537,17.2898393 71.6254003,17.2898393 L62.7348277,17.2898393 L62.7348277,5.67360714 L71.6254003,5.67360714 L71.6254003,5.67360714 Z" id="Fill-11"></path>
                    <path d="M88.3070455,0.205357143 L94.1215671,0.205357143 L94.1215671,33.2879821 C94.1215671,34.5973393 94.8633391,35.2815893 96.292607,35.2815893 L98.2847827,35.2815893 L98.2847827,40.7477857 L95.7202419,40.7477857 C91.4982273,40.7477857 88.3070455,38.9275 88.3070455,33.7426429 L88.3070455,0.205357143" id="Fill-12"></path>
                    <path d="M100.735426,11.8790893 L106.549537,11.8790893 L106.549537,29.0736429 C106.549537,33.005 109.00018,35.2815893 112.310605,35.2815893 C115.557707,35.2815893 118.006706,33.005 118.006706,29.0736429 L118.006706,11.8790893 L123.822461,11.8790893 L123.822461,40.7477857 L118.006706,40.7477857 L118.006706,37.6715357 L117.89692,37.6715357 C116.070862,39.9501786 113.447934,41.0899107 110.426159,41.0899107 C105.86862,41.0899107 100.735426,37.6148571 100.735426,31.0688929 L100.735426,11.8790893" id="Fill-13"></path>
                    <path d="M132.762376,23.7228571 C132.879562,19.3388929 135.439991,17.0052143 138.861435,17.0052143 C142.281645,17.0052143 144.789032,19.3388929 144.964195,23.7228571 L132.762376,23.7228571 L132.762376,23.7228571 Z M150.776661,28.5035714 L150.776661,23.7228571 C150.776661,16.2634643 145.246677,11.5377857 138.861435,11.5377857 C133.275119,11.5377857 126.944976,15.1804107 126.944976,26.3990714 C126.944976,38.2420179 133.844606,41.0899107 139.771792,41.0899107 C143.652525,41.0899107 147.355217,39.7201786 150.205529,36.4196786 L145.985982,32.8337321 C144.275877,34.5973393 141.884444,35.6228929 139.65995,35.6228929 C135.670664,35.6228929 132.762376,33.2304821 132.762376,28.5035714 L150.776661,28.5035714 L150.776661,28.5035714 Z" id="Fill-14"></path>
                    <path d="M175.400693,56.094125 C175.400693,55.27475 176.069275,54.6065179 176.897395,54.6065179 C177.722637,54.6065179 178.387518,55.27475 178.387518,56.094125 C178.387518,56.9213036 177.722637,57.5895357 176.897395,57.5895357 C176.069275,57.5895357 175.400693,56.9213036 175.400693,56.094125 L175.400693,56.094125 Z M178.20742,56.094125 C178.20742,55.3720893 177.621075,54.7864107 176.897395,54.7864107 C176.170837,54.7864107 175.584492,55.3720893 175.584492,56.094125 C175.584492,56.8239643 176.170837,57.4104643 176.897395,57.4104643 C177.621075,57.4104643 178.20742,56.8239643 178.20742,56.094125 L178.20742,56.094125 Z M177.640401,56.9299286 L177.398215,56.9299286 L176.922066,56.1606607 L176.545835,56.1606607 L176.545835,56.9299286 L176.342711,56.9299286 L176.342711,55.2620179 L177.070092,55.2620179 C177.210305,55.2620179 177.350929,55.2698214 177.475928,55.3445714 C177.602161,55.4148036 177.665072,55.5626607 177.665072,55.7035357 C177.665072,56.0316964 177.433576,56.1528571 177.136292,56.1606607 L177.640401,56.9299286 L177.640401,56.9299286 Z M176.859155,56.0004821 C177.09394,56.0004821 177.457014,56.0390893 177.457014,55.6998393 C177.457014,55.4423214 177.230452,55.4111071 177.022394,55.4111071 L176.545835,55.4111071 L176.545835,56.0004821 L176.859155,56.0004821 L176.859155,56.0004821 Z" id="Fill-15"></path>
                    <path d="M175.400693,56.094125 C175.400693,55.27475 176.069275,54.6065179 176.897395,54.6065179 C177.722637,54.6065179 178.387518,55.27475 178.387518,56.094125 C178.387518,56.9213036 177.722637,57.5895357 176.897395,57.5895357 C176.069275,57.5895357 175.400693,56.9213036 175.400693,56.094125 L175.400693,56.094125 Z M178.20742,56.094125 C178.20742,55.3720893 177.621075,54.7864107 176.897395,54.7864107 C176.170837,54.7864107 175.584492,55.3720893 175.584492,56.094125 C175.584492,56.8239643 176.170837,57.4104643 176.897395,57.4104643 C177.621075,57.4104643 178.20742,56.8239643 178.20742,56.094125 L178.20742,56.094125 Z M177.640401,56.9299286 L177.398215,56.9299286 L176.922066,56.1606607 L176.545835,56.1606607 L176.545835,56.9299286 L176.342711,56.9299286 L176.342711,55.2620179 L177.070092,55.2620179 C177.210305,55.2620179 177.350929,55.2698214 177.475928,55.3445714 C177.602161,55.4148036 177.665072,55.5626607 177.665072,55.7035357 C177.665072,56.0316964 177.433576,56.1528571 177.136292,56.1606607 L177.640401,56.9299286 L177.640401,56.9299286 Z M176.859155,56.0004821 C177.09394,56.0004821 177.457014,56.0390893 177.457014,55.6998393 C177.457014,55.4423214 177.230452,55.4111071 177.022394,55.4111071 L176.545835,55.4111071 L176.545835,56.0004821 L176.859155,56.0004821 L176.859155,56.0004821 Z" id="Fill-16"></path>
                </g>
            </g>
        </g>
    </g>
</svg>