<?xml version="1.0" encoding="UTF-8" standalone="no"?>
<svg width="365px" height="125px" viewBox="0 0 365 125" version="1.1" xmlns="http://www.w3.org/2000/svg" xmlns:xlink="http://www.w3.org/1999/xlink" xmlns:sketch="http://www.bohemiancoding.com/sketch/ns">
    <!-- Generator: Sketch 3.2.2 (9983) - http://www.bohemiancoding.com/sketch -->
    <title>lyft</title>
    <desc>Created with Sketch.</desc>
    <defs></defs>
    <g id="Welcome" stroke="none" stroke-width="1" fill="none" fill-rule="evenodd" sketch:type="MSPage">
        <g id="Desktop-HD---Why-Us" sketch:type="MSArtboardGroup" transform="translate(-570.000000, -1164.000000)">
            <g id="lyft" sketch:type="MSLayerGroup" transform="translate(570.000000, 1164.000000)">
                <rect id="Rectangle-84" fill="#FFFFFF" sketch:type="MSShapeGroup" x="0" y="0" width="365" height="125"></rect>
                <g transform="translate(128.000000, 30.000000)" fill="#95A2AA" sketch:type="MSShapeGroup">
                    <path d="M40.5412949,38.6899504 C40.5412949,41.4415524 40.0731956,42.8169619 38.0888449,42.8169619 C36.0175058,42.8169619 35.5100082,41.5668031 35.5100082,39.0688338 L35.5100082,17.0869394 L19.5782506,17.0869394 L19.5782506,42.9007234 C19.5782506,47.3913534 20.6537086,51.0893812 23.1716925,53.9944153 C25.6892862,56.8998408 28.8009759,58.3519665 32.6885401,58.3519665 C35.3192578,58.3519665 37.9585573,57.5394024 40.6996684,55.9103601 C39.1892682,61.6644569 35.7947686,64.5413096 30.7030191,64.5413096 C29.1099214,64.5413096 27.5433493,64.0907984 25.0288762,63.1932986 C25.0288762,63.1932986 22.6879899,62.4312262 19.4928225,60.6084367 L19.4928225,74.0177015 C19.4928225,74.0177015 22.6333783,75.9704387 25.0288762,76.8765494 C27.9638584,77.9983263 30.8758258,78.5615631 33.7858427,78.5615631 C40.4160783,78.5615631 45.994651,76.0064482 50.6662814,70.8981755 C54.5834919,66.6036411 56.4722723,60.9614872 56.4722723,53.9736707 L56.4722723,17.0869394 L40.5412949,17.0869394 L40.5412949,38.6899504" id="Fill-1"></path>
                    <path d="M19.4865812,54.3979575 C16.9682073,51.4933148 15.8919691,47.795287 15.8919691,43.3038741 L15.8919691,17.490873 L15.8931394,17.49283 L15.8931394,0.144821156 L-0.0378380218,0.144821156 L-0.0378380218,17.490873 L-0.0390082699,17.490873 L-0.0390082699,43.3038741 C-0.0390082699,47.795287 1.03683981,51.4933148 3.5556038,54.3979575 C6.07241737,57.303383 9.18410706,58.7551173 13.0724514,58.7551173 C13.9731523,58.7551173 14.9058401,58.6416088 15.8494501,58.4333795 L15.8931394,58.5097041 L15.8931394,58.4243771 C17.6902504,58.0235747 19.5314407,57.2642422 21.3055368,56.171821 L21.3043666,56.1475536 C20.6681417,55.6363741 20.0596127,55.0598293 19.4865812,54.3979575" id="Fill-2"></path>
                    <path d="M83.1106297,0.0414893042 L83.130914,0.0461862066 C96.9659771,1.09437825 100.695948,10.4416054 101.693389,16.7507195 L107.864888,16.7507195 L107.864888,33.578155 L101.397317,33.578155 C101.397317,36.5235042 101.903254,39.1240224 102.953356,40.3859235 C104.001899,41.6513473 105.413218,42.1848372 108.704346,42.1848372 L108.704346,58.7320242 C108.045496,58.7602056 107.302778,58.7727307 106.910745,58.7727307 C103.357482,58.7727307 100.019935,57.9460758 96.871577,56.2900264 C93.72517,54.6328026 91.1861217,52.3884661 89.2848586,49.5538856 C86.8788285,45.9329652 85.6461672,41.1331224 85.6461672,35.1539657 L85.6461672,18.8713709 L85.607549,18.6126498 C85.2190267,17.1053356 83.7608975,16.6129437 82.5411089,16.4736022 C82.4178428,16.4599029 82.2980874,16.4505091 82.1818428,16.4430724 C82.1475155,16.4407239 82.1139684,16.4387669 82.0800312,16.4372012 C81.970418,16.4313301 81.8627551,16.427416 81.7621138,16.4258504 C81.758213,16.4258504 81.7547022,16.425459 81.7504113,16.425459 C79.8315945,16.4555974 78.3133927,17.1104239 77.2605595,18.398158 C76.1835411,19.7183789 75.5867146,21.5979227 75.5867146,24.0403119 L75.5867146,26.0059656 L82.5504709,26.0059656 L82.5504709,41.5703258 L75.5867146,41.5703258 L75.5867146,47.6438119 C75.5867146,47.6438119 76.0946023,58.3965871 60.0707852,58.3965871 L60.0309967,21.8276795 C59.9650728,18.361757 60.0817075,2.13709057 77.7797595,0.134644534 C77.7797595,0.134644534 80.3589863,-0.163217357 83.1106297,0.0414893042" id="Fill-3"></path>
                </g>
            </g>
        </g>
    </g>
</svg>