<?xml version="1.0" encoding="UTF-8" standalone="no"?>
<svg width="365px" height="125px" viewBox="0 0 365 125" version="1.1" xmlns="http://www.w3.org/2000/svg" xmlns:xlink="http://www.w3.org/1999/xlink" xmlns:sketch="http://www.bohemiancoding.com/sketch/ns">
    <!-- Generator: Sketch 3.2.2 (9983) - http://www.bohemiancoding.com/sketch -->
    <title>mobile-vikings</title>
    <desc>Created with Sketch.</desc>
    <defs></defs>
    <g id="Welcome" stroke="none" stroke-width="1" fill="none" fill-rule="evenodd" sketch:type="MSPage">
        <g id="Desktop-HD---Why-Us" sketch:type="MSArtboardGroup" transform="translate(-1006.000000, -2150.000000)">
            <g id="mobile-vikings" sketch:type="MSLayerGroup" transform="translate(1006.000000, 2150.000000)">
                <rect id="Rectangle-84" fill="#FFFFFF" sketch:type="MSShapeGroup" x="0" y="0" width="365" height="125"></rect>
                <path d="M145.716682,57.2654483 L144.320742,61.3936143 L146.311378,61.3936143 L147.548346,57.7385522 C148.201061,57.8555188 149.029575,57.9131293 149.80413,57.9131293 C155.061824,57.9160389 158.23431,55.8763967 160.061332,53.2507574 C161.891836,50.6291916 162.392541,47.4408322 162.392541,45.1230305 C162.396022,39.9386731 159.56875,35.9274738 155.298542,34.4877948 L156.822704,30 L154.866299,30 L153.497048,34.0525159 C152.712049,33.9308939 151.892819,33.8412777 150.981918,33.8412777 C143.079133,33.8983062 138.64241,39.4149419 138.654013,46.6657099 C138.647631,51.5212805 140.970137,55.6063841 145.716682,57.2654483 L145.716682,57.2654483 Z M154.427094,37.1384568 C157.096555,39.3707157 158.064314,42.9216135 158.064314,46.4026805 C158.047488,51.8337734 156.274424,56.0940361 150.749842,56.1982004 C149.813413,56.1993643 148.842753,56.0236233 148.188877,55.7152038 L154.427094,37.1384568 L154.427094,37.1384568 Z M150.002555,35.5550427 C150.916357,35.5550427 152.046569,35.7360209 152.794436,36.131147 L146.556799,54.7061483 C143.987132,52.3586685 142.97934,48.0105354 142.983401,44.7942437 C142.998486,40.0521482 144.581248,35.6562974 150.002555,35.5550427 L150.002555,35.5550427 Z M238.006554,52.2783631 C238.005393,51.6306821 237.72342,51.4054777 237.494825,51.4043138 C236.673854,51.4741446 236.561297,52.5716525 235.511731,53.6010754 C234.487693,54.6421367 232.62586,55.7041473 228.591209,55.7047292 C226.540233,55.668068 226.557639,54.9185504 226.514704,53.2245708 C226.514704,53.0395191 226.517025,52.8451566 226.517025,52.6409015 L226.517025,37.2426211 C226.533851,36.0461862 227.014829,35.8326202 227.568332,35.6568793 C228.093405,35.506743 228.824446,35.4887034 228.840111,34.714745 C228.849394,34.508744 228.779191,34.2975058 228.584247,34.2166184 C228.403227,34.1386406 228.186236,34.1386406 227.838121,34.1368949 C227.287519,34.1368949 226.921999,34.2672457 224.139981,34.2672457 C222.904754,34.2678277 221.005788,34.1368949 219.688174,34.135731 C218.976279,34.1368949 218.504583,34.4057436 218.488918,34.8474236 C218.5568,35.6318566 219.564593,35.6173085 220.447064,35.903033 C221.360285,36.1829382 222.180095,36.588539 222.187638,37.8996129 L222.187638,53.428826 C222.174873,55.4073662 221.603385,55.8595209 221.039439,56.0940361 C220.749343,56.2098389 220.441842,56.2523193 220.176695,56.3739413 C219.906325,56.4891622 219.690494,56.7510278 219.700938,57.1717586 C219.704999,57.4923985 220.022364,57.6826875 220.474333,57.6826875 C222.281629,57.6826875 223.659583,57.5523366 224.663314,57.5523366 C226.291331,57.5523366 228.26108,57.6826875 233.239702,57.6826875 C236.033323,57.6745406 238.003653,54.9092396 238.006554,52.2783631 L238.006554,52.2783631 Z M185.795138,44.5795138 C187.944166,43.7438716 189.10861,41.9550384 189.105709,39.9351816 C189.105709,39.5324905 189.099327,38.0788453 188.056143,36.7235453 C187.012959,35.3647537 184.939355,34.1345672 180.903545,34.135731 C178.148796,34.1368949 175.365619,34.2678277 172.589403,34.2672457 C171.082066,34.2672457 170.908009,34.1409683 170.625456,34.1368949 C170.615592,34.1368949 170.592965,34.1345672 170.562215,34.1345672 C170.464162,34.135731 170.310412,34.1368949 170.164204,34.2300026 C170.015675,34.3236923 169.914141,34.5163091 169.917042,34.7810843 C169.908919,35.2466232 170.207718,35.5160538 170.555252,35.6405854 C171.60946,36.0682993 173.354676,35.7977048 173.387166,39.1140874 L173.387166,53.6255162 C173.376143,55.1705233 172.739093,55.6558476 172.069552,55.9636852 C171.420898,56.2750143 170.619654,56.2808336 170.571498,57.0064923 C170.562215,57.2683579 170.695079,57.4953081 170.921933,57.5808509 C171.142986,57.6727948 171.422638,57.6821056 171.804404,57.6826875 C172.508757,57.6826875 173.358157,57.5523366 174.12749,57.5523366 C175.755507,57.5523366 177.399189,57.6826875 182.278018,57.6826875 C184.969525,57.6826875 187.095927,56.970995 188.551046,55.691345 C190.007327,54.4151865 190.77666,52.5763079 190.7755,50.3754729 C190.792325,47.464691 189.53215,45.6077728 185.795138,44.5795138 L185.795138,44.5795138 Z M177.714813,38.8196341 C177.750785,36.9184897 177.725837,35.8780103 179.856299,35.8518237 C182.697496,35.857061 185.039148,37.8891382 185.039148,40.8214512 C185.010719,43.214903 184.180465,44.3211398 181.754685,44.3461625 L179.789577,44.3461625 C177.880168,44.1587831 177.76529,44.2041731 177.714813,42.6259963 L177.714813,38.8196341 L177.714813,38.8196341 Z M181.590491,56.0678495 C178.442953,56.0236233 177.757747,55.2746877 177.714813,52.1805999 L177.714813,48.5040066 C177.760648,46.7687104 177.699728,46.1675833 179.561562,46.1268487 C185.465009,46.1512895 186.291781,48.9835116 186.314989,50.900368 C186.299324,54.0346085 184.719463,56.0544653 181.590491,56.0678495 L181.590491,56.0678495 Z M263.732237,52.2795269 C263.732237,51.6295182 263.449683,51.4054777 263.221668,51.4054777 C262.400117,51.4741446 262.28756,52.5716525 261.239154,53.6004935 C260.215117,54.6427186 258.353283,55.7041473 254.317472,55.7047292 C252.265916,55.668068 252.285062,54.9173866 252.241548,53.223407 C252.241548,53.0377734 252.242708,52.8439928 252.242708,52.6391557 L252.242708,48.4376673 C252.242708,48.1536886 252.239807,47.9052072 252.239807,47.6875678 C252.297246,46.4102455 252.211378,46.3468158 253.467492,46.2926969 L255.88863,46.2926969 C257.534053,46.3031715 258.07131,47.0922599 258.398538,47.9325576 C258.740271,48.7530699 258.686893,49.69695 259.423736,49.7720181 C260.061946,49.7621254 260.175084,49.1377214 260.177404,48.6832391 C260.177404,48.4103169 260.143173,48.1472874 260.130989,47.9988969 L259.901814,42.1604574 C259.887309,41.7595121 259.810723,41.5168499 259.670897,41.364386 C259.52759,41.2066847 259.341929,41.1921366 259.22415,41.1938823 C259.185277,41.1938823 259.153367,41.1950462 259.131319,41.1950462 C258.832521,41.2159954 258.710101,41.4702961 258.55809,41.7490375 C258.104961,42.6259963 257.571185,44.2134839 255.562563,44.2158116 L253.500563,44.2158116 C252.79389,44.2175574 252.496252,44.1419073 252.389496,43.9836241 C252.259534,43.8288324 252.238647,43.4337063 252.242708,42.727251 L252.242708,38.1300546 C252.242708,36.9807555 252.290864,36.4931035 252.724847,36.2638256 C253.178557,36.0031238 254.207236,35.9798469 256.184528,35.9827565 C259.322202,35.9932311 260.159418,36.9132524 260.485486,37.8041774 C260.64968,38.2580778 260.670567,38.7241986 260.748893,39.1036128 C260.809233,39.4713885 261.018102,39.8368365 261.486896,39.8240342 C262.118725,39.817633 262.228961,39.1996302 262.231282,38.759114 C262.231282,38.5176157 262.203432,38.2918294 262.194149,38.1510038 L262.063606,34.905034 C262.063606,34.5436595 261.77003,34.1368949 261.25714,34.1368949 C258.371849,34.1368949 256.110843,34.2678277 253.79414,34.2678277 C248.787669,34.2678277 246.438474,34.1368949 245.087789,34.1368949 C244.574319,34.1368949 244.216922,34.4511336 244.215761,34.8474236 C244.27146,35.6993597 245.295497,35.705179 246.173907,35.9850842 C247.085968,36.2655714 247.906358,36.6653529 247.913901,38.0648792 L247.913901,53.4299899 C247.901717,55.4073662 247.331389,55.858357 246.768023,56.0934542 C246.477347,56.2110027 246.168105,56.2523193 245.903538,56.3745233 C245.634329,56.4891622 245.416177,56.7510278 245.428361,57.1717586 C245.431842,57.4918166 245.749787,57.6826875 246.201176,57.6826875 C248.007311,57.6826875 249.389327,57.5523366 250.391318,57.5523366 C252.018754,57.5523366 253.989084,57.6826875 258.965385,57.6850152 C261.760166,57.6745406 263.732237,54.9092396 263.732237,52.2795269 L263.732237,52.2795269 Z M201.488152,56.0364257 C200.953796,56.3401898 200.255246,56.4117664 200.230297,57.1391709 C200.230297,57.3259684 200.342274,57.6826875 200.742026,57.6826875 C201.607091,57.6826875 203.008253,57.5523366 204.408835,57.5523366 C206.956455,57.5523366 208.160933,57.6826875 209.383396,57.6826875 C209.769223,57.6826875 210.044814,57.6535913 210.253683,57.5599016 C210.464872,57.4679577 210.589613,57.2613748 210.581491,57.0408258 C210.576269,56.6544285 210.226994,56.5165126 209.886421,56.4559926 C208.803785,56.2179858 206.936729,56.3849979 206.916422,53.4614137 L206.916422,37.8012678 C206.930347,36.2783737 207.475146,35.8966318 208.045474,35.6656082 C208.336731,35.5538788 208.63785,35.5015057 208.893714,35.3973414 C209.146097,35.3036517 209.378754,35.0912496 209.371792,34.7473327 C209.384556,34.5413318 209.299268,34.3091442 209.071833,34.2294207 C208.860063,34.1473695 208.569387,34.1386406 208.073904,34.1368949 C206.200466,34.1368949 205.016876,34.2678277 203.851271,34.2672457 C202.718158,34.2678277 201.439416,34.1368949 200.153712,34.135731 C200.084669,34.1368949 199.968051,34.128166 199.839249,34.128166 C199.499837,34.1293299 198.909202,34.1764657 198.889475,34.7473327 C198.959098,35.5352573 199.96515,35.5096526 200.84472,35.8128348 C201.752719,36.1078701 202.578912,36.5483863 202.588195,37.9647883 L202.588195,53.7238613 C202.577752,55.2461734 202.041075,55.7250965 201.488152,56.0364257 L201.488152,56.0364257 Z M126.853502,57.5523366 C127.788191,57.5511728 128.704893,57.6826875 129.66801,57.6826875 C130.2424,57.6826875 130.635769,57.6861791 130.924705,57.6093651 C131.218862,57.5430259 131.407424,57.2898891 131.390598,56.9733227 C131.398141,56.5915808 131.116168,56.3820883 130.817369,56.2866528 C129.90937,55.942736 128.367221,56.0533014 128.215792,52.8963659 L127.658808,38.3540952 C127.656487,38.279027 127.655327,38.2080324 127.655327,38.1382015 C127.668671,36.4308377 128.36374,35.9536603 129.095362,35.6725912 C129.804936,35.3897764 130.681024,35.4572795 130.736723,34.6827392 C130.745426,34.5506425 130.702491,34.3428958 130.511028,34.2515338 C130.33291,34.1642453 130.086328,34.1374768 129.634939,34.135731 C128.704893,34.135731 128.073645,34.2689915 127.507378,34.2678277 C127.042645,34.2689915 126.410816,34.1374768 125.609572,34.135731 C124.897097,34.1240925 124.727101,34.6862307 124.652837,34.8852486 L117.060453,50.7682713 C117.047689,50.808424 116.964141,50.9882384 116.86899,51.1331374 C116.822575,51.2082056 116.769777,51.2792002 116.725683,51.3240084 C116.704216,51.3455395 116.683909,51.3606695 116.672885,51.3688165 L116.673466,51.372308 C116.623569,51.3938392 116.515654,51.250686 116.386851,50.9352834 L109.184936,35.1767923 C108.769519,34.2294207 108.325673,34.1171095 107.967695,34.135731 L107.901553,34.135731 C106.810793,34.135731 105.595293,34.2678277 104.857869,34.2678277 C103.821068,34.2678277 103.351113,34.1374768 102.893342,34.135731 C102.539425,34.1531887 102.356665,34.4813936 102.350283,34.7473327 C102.393217,35.6266193 103.327905,35.5917039 104.086795,36.0124346 C104.868313,36.4308377 105.653312,37.2123611 105.662595,39.6360729 C105.662595,39.7734068 105.660854,39.9142324 105.654472,40.0597133 L105.197281,53.2583224 C105.125338,54.9418274 104.473783,55.5202594 103.819327,55.8839617 C103.186338,56.2465001 102.415844,56.3186586 102.381613,57.0728316 C102.382773,57.3393526 102.607307,57.6826875 103.155588,57.6826875 C103.665576,57.6826875 104.79753,57.5511728 106.395957,57.5523366 C107.890529,57.5511728 108.574575,57.6826875 109.766868,57.6850152 C110.138771,57.6826875 110.367366,57.6239132 110.520537,57.5127658 C110.675448,57.4010365 110.71316,57.229369 110.710259,57.1240409 C110.710259,57.0664304 110.703877,57.016385 110.703877,57.0064923 C110.710839,56.5933265 110.392895,56.3884894 110.063346,56.300037 C109.057294,55.9677587 107.328904,56.1283696 107.291772,52.3801997 C107.291772,52.2446115 107.294093,52.1026221 107.299315,51.9565593 L107.627123,42.7639122 C107.627123,42.644036 107.628283,42.4450181 107.653231,42.2861529 C107.665995,42.2116667 107.684562,42.1464913 107.702547,42.1121578 C107.757085,42.1907175 107.865581,42.4176677 107.929982,42.5631486 L114.277856,56.7079655 C114.435087,57.0361704 114.598121,57.6954898 115.233431,57.7164391 C115.886146,57.7048006 116.038736,57.100182 116.220916,56.7091293 L122.406916,43.7427077 C122.652337,43.2021007 122.871649,42.7703134 123.043966,42.4787697 C123.129254,42.3327068 123.203519,42.2209775 123.258637,42.1528924 C123.26734,42.141254 123.274882,42.133107 123.283005,42.1232143 C123.302151,42.1750055 123.32768,42.2739325 123.341024,42.4234869 C123.367713,42.6556744 123.382218,42.9896986 123.396142,43.4197401 L123.886404,53.3694698 C123.893946,53.5021484 123.898008,53.6284258 123.898008,53.7483021 C123.886404,55.3043658 123.348567,55.7646673 122.799125,56.0480641 C122.26767,56.3256417 121.562158,56.3361163 121.529667,57.03908 C121.550554,57.6431167 122.162656,57.6890887 122.66278,57.6896706 C122.839159,57.6890887 123.018438,57.6826875 123.186693,57.6826875 C123.958348,57.6826875 124.730582,57.5511728 126.853502,57.5523366 L126.853502,57.5523366 Z M267.356692,79.8871463 C264.982549,78.9188254 263.310437,78.3258453 262.254489,77.7142436 C261.197381,77.0927492 260.776162,76.5166448 260.768619,75.4697642 C260.777902,73.3597093 262.254489,72.1946982 264.537542,72.1824778 C267.522046,72.1859694 269.114671,73.6640553 270.096935,75.1619267 C270.585456,75.9114443 270.915005,76.667363 271.174351,77.2405577 C271.456323,77.8032779 271.565399,78.2298279 271.965731,78.2880202 C272.309205,78.2880202 272.56855,78.2146979 272.739126,78.0366292 C272.909123,77.855651 272.954377,77.6141527 272.954377,77.3429763 C272.954377,77.2347385 272.947995,77.1200996 272.935811,76.9978956 L272.547663,72.599717 C272.513432,72.2307775 272.523295,71.9235218 272.468757,71.6715489 C272.432205,71.4189941 272.214053,71.1885523 271.896689,71.2089196 C271.35363,71.2223039 270.469998,71.747199 270.091133,71.7332328 C269.14194,71.754764 267.582386,70.4559105 264.644297,70.4541647 C260.433269,70.459984 257.52419,73.2840592 257.517227,77.1451223 C257.508524,80.673907 259.699327,82.029207 262.743591,83.2657947 C265.59407,84.4319696 267.577745,85.1232948 268.821675,85.8576824 C270.065025,86.6007988 270.561088,87.3177287 270.569211,88.6677915 C270.56631,91.1945037 268.551306,92.7022678 265.847614,92.7115785 C262.011969,92.7115785 259.870483,89.806034 258.741431,86.6776128 C258.630034,86.2784132 258.458298,85.8314958 257.815446,85.8512812 C257.558421,85.8489535 257.356514,85.9257675 257.231773,86.0706664 C257.107032,86.2178931 257.073381,86.4000352 257.07222,86.5734484 C257.074541,86.9004895 257.189419,87.2455702 257.236995,87.4556446 L257.390746,87.4201473 L257.236995,87.4568084 L258.335297,91.9568236 C258.475123,92.7011039 258.548807,93.1439478 259.479434,93.3185249 C261.511844,93.7404195 263.329584,94.536491 265.526768,94.5382367 C270.227478,94.5306717 273.566479,91.5483133 273.576343,87.1594455 C273.585626,82.9102394 271.138959,81.4152776 267.356692,79.8871463 L267.356692,79.8871463 Z M249.007561,83.1331161 C247.816429,83.1331161 246.671711,83.2628851 245.471875,83.2628851 C243.941911,83.2628851 242.435734,83.1331161 240.889524,83.1331161 C240.705024,83.1331161 240.441617,83.0987826 240.176469,83.0987826 C239.93743,83.1005284 239.689109,83.1238053 239.478499,83.2529924 C239.266729,83.3810156 239.129804,83.6324066 239.133866,83.9734138 C239.131545,84.4005457 239.513311,84.5442808 239.87477,84.5757047 C241.022388,84.7514456 242.993298,84.3551557 243.03043,88.1108906 C242.990397,90.0073796 243.025789,92.5818096 237.189644,92.6207985 C234.59909,92.6178888 232.755242,91.169481 231.5351,89.143223 C230.317278,87.1192928 229.748111,84.5221677 229.748111,82.2992196 C229.766677,74.047543 233.986408,72.158037 236.96279,72.1423251 C241.223134,72.1463986 243.308922,73.8979886 244.456541,75.6519063 C245.029189,76.5288652 245.360479,77.4122252 245.594876,78.0802735 C245.713815,78.4131338 245.806066,78.6942029 245.895995,78.9013677 C245.992307,79.0957302 246.057869,79.2732169 246.289945,79.2982396 C246.611951,79.2982396 246.845768,79.2604146 247.022147,79.1335552 C247.200265,79.0020405 247.262346,78.7878926 247.259445,78.556287 L247.259445,73.0739848 C247.2461,72.5764401 247.314563,71.7343967 246.617753,71.6744585 C246.249332,71.6837693 246.080496,71.9805503 245.915142,72.1946982 C245.742245,72.4216484 245.594296,72.592152 245.308842,72.5933159 C244.930557,72.6084459 244.020237,72.066675 242.624296,71.526068 C241.246922,70.9912802 239.397853,70.4576563 237.125823,70.459984 C228.767587,70.4623117 225.364765,77.817826 225.354322,83.3821794 C225.364765,86.0049091 226.861079,94.5277621 236.56942,94.5318356 C240.17821,94.5306717 243.831094,93.0071957 246.950783,91.2963404 C247.302959,91.1141983 247.372002,90.8179992 247.357497,90.3093979 C247.357497,89.8322206 247.259445,88.9244198 247.259445,87.5848316 C247.269308,85.4997994 247.800763,84.9911982 248.300308,84.7555191 C248.560234,84.6356428 248.834664,84.596654 249.077764,84.4866704 C249.325506,84.3836699 249.529733,84.1375162 249.516969,83.742972 C249.516969,83.3495917 249.250661,83.1331161 249.007561,83.1331161 L249.007561,83.1331161 Z M218.000397,70.7561831 C217.683032,70.7561831 216.558041,70.8859521 214.497782,70.8859521 C212.241998,70.8859521 211.310211,70.7561831 210.765992,70.7561831 C210.238598,70.7561831 210.091809,71.206592 210.091809,71.464966 C210.168394,72.2255402 211.226083,72.2528906 212.18746,72.6340505 C213.173205,72.9989166 214.079464,73.5342863 214.084106,74.9454511 L214.085266,85.8786317 C214.085266,86.2824866 214.06728,86.5815954 214.030728,86.7614097 C214.012742,86.8516079 213.988374,86.9109641 213.972709,86.9319134 L213.97503,86.9406422 C213.929775,86.9761396 213.472584,86.5938158 213.069931,86.13526 L199.914093,71.6587466 C199.63154,71.3608017 199.606592,71.1873885 199.469086,71.0046645 C199.315336,70.8108839 199.079198,70.7532735 198.557026,70.7561831 C196.814711,70.7561831 195.954288,70.8859521 195.121133,70.8859521 C194.520055,70.8876978 193.93116,70.7561831 193.287148,70.7561831 C192.815453,70.7561831 192.580475,71.1169757 192.580475,71.464966 C192.570612,71.9322507 192.89726,72.1725851 193.254077,72.2831506 C194.32395,72.6852598 196.20551,72.5304681 196.246704,77.2102977 L196.246124,77.2102977 L196.246124,89.6867397 C196.237421,91.3091427 195.513922,91.9201625 194.753872,92.3507859 C194.010647,92.7802455 193.136298,92.9391107 193.102647,93.7567133 C193.098586,93.9673697 193.195478,94.1431106 193.340526,94.2257438 C193.484413,94.3101227 193.641645,94.3223431 193.794815,94.3223431 C193.972934,94.3223431 194.151053,94.3008119 194.269992,94.3008119 C195.169289,94.3008119 196.049439,94.1698791 197.0845,94.1698791 C198.218774,94.1698791 199.333902,94.3008119 200.946254,94.3008119 L201.122632,94.3008119 C201.546171,94.284518 202.279533,94.3357273 202.342774,93.7235437 C202.347996,93.2457844 201.973772,93.0304727 201.575181,92.9344553 C200.353878,92.578318 198.189184,92.7738444 198.151472,88.1108906 L198.152632,76.9484321 C198.151472,76.8116801 198.169458,76.6958773 198.196727,76.6353572 C198.230958,76.5736733 198.230958,76.5794925 198.262869,76.5736733 C198.323789,76.5602891 198.519894,76.690058 198.737465,76.949596 L214.485598,94.0232343 C214.697948,94.2786988 214.939308,94.5405644 215.447555,94.5318356 C215.459159,94.5329994 215.470763,94.5329994 215.482367,94.5329994 C215.694137,94.5329994 215.88618,94.4038124 215.934916,94.2047945 C215.995256,94.0057766 215.990034,93.7578772 215.990614,93.3965026 L215.990614,74.9780388 C216.000478,73.29337 216.641589,72.714356 217.300106,72.3669476 C217.939477,72.0119742 218.716353,72.0183754 218.773212,71.3340332 C218.773212,71.2810782 218.776113,71.1268684 218.660075,70.985461 C218.545777,70.8452174 218.334007,70.7544373 218.000397,70.7561831 L218.000397,70.7561831 Z M165.292917,93.2003944 C164.727811,92.9303818 163.533197,92.8401837 161.622047,90.2512056 L155.368745,81.8156411 C154.873262,81.1627228 154.599991,80.7547944 154.612756,80.559268 C154.582586,80.4068041 155.090253,79.8609597 155.279395,79.7242077 L155.182503,79.607241 L155.284617,79.7183884 L161.045337,74.3658552 C162.620556,72.9331593 163.652136,72.4740216 164.293828,72.2528906 C164.616414,72.1423251 164.841528,72.0957712 165.023128,72.0038273 C165.212271,71.9177026 165.328889,71.7111197 165.316125,71.464966 C165.313804,70.7940081 164.671532,70.7556012 164.401163,70.7556012 L164.314135,70.7556012 C162.897888,70.7556012 162.039204,70.8859521 161.2368,70.8859521 C160.262078,70.8859521 158.010356,70.7556012 157.670364,70.7556012 C157.453952,70.7573469 157.242763,70.7561831 157.055361,70.8667486 C156.862738,70.9813875 156.761784,71.2118293 156.765846,71.5301415 C156.806459,72.0876243 157.412179,72.1318505 157.881553,72.2528906 C158.394443,72.3733488 158.774468,72.5042816 158.762284,72.8772946 C158.799996,74.1947696 155.644916,76.9181721 154.715449,77.8242271 L150.395925,82.0577213 C150.008357,82.4534293 149.807031,82.5907633 149.731606,82.577961 C149.719422,82.577961 149.710139,82.5756333 149.704337,82.5750514 L149.697955,82.5738875 C149.68287,82.5232602 149.663144,82.3771974 149.668365,82.2299707 C149.668365,82.143846 149.670686,82.0548117 149.670686,81.9704328 L149.670686,74.4531437 C149.687512,72.6701298 150.213165,72.3279587 150.739398,72.1615286 C151.013829,72.0788954 151.303344,72.066675 151.555728,71.9846238 C151.813913,71.9113014 152.041348,71.6773681 152.026843,71.3008636 C152.035546,71.0500545 151.870771,70.8667486 151.694393,70.8132116 C151.522076,70.7515277 151.336995,70.7561831 151.189047,70.7556012 C150.522987,70.7556012 148.467369,70.8859521 146.639186,70.8859521 C144.417634,70.8859521 143.351242,70.7556012 142.711291,70.7556012 C142.497781,70.7561831 142.306318,70.7881889 142.151407,70.8911894 C141.994175,70.9959356 141.901924,71.183315 141.904825,71.4003725 C141.896122,71.8344875 142.203624,72.0759858 142.545357,72.1784044 C143.592022,72.5421066 145.31635,72.2633652 145.341879,75.1409774 L145.341879,89.4231283 C145.333176,91.885247 144.70947,92.4921934 144.123477,92.7598782 C143.820037,92.8954664 143.500932,92.9362011 143.22302,93.0554954 C142.939887,93.1672247 142.711291,93.4372373 142.722895,93.8882281 C142.806443,94.3462019 143.288001,94.2786988 143.88966,94.3013938 C144.915438,94.3013938 146.613658,94.1698791 148.177274,94.1698791 C150.036207,94.1698791 150.911135,94.3013938 151.811012,94.3013938 C152.211344,94.299648 152.448642,94.2816084 152.627341,94.2018849 C152.818804,94.1209975 152.888427,93.9179062 152.878564,93.7567133 C152.825186,92.9722803 151.920668,92.9926476 151.1699,92.7255447 C150.393024,92.4549502 149.68287,92.053423 149.670686,90.605597 L149.670686,86.3040178 C149.670686,86.1434069 149.666625,86.0049091 149.666625,85.8815413 C149.673007,85.4183301 149.692153,85.2222218 150.057674,84.7956718 C150.753323,83.9751596 151.37993,83.4293152 151.483784,83.4683041 C151.488425,83.4642306 151.569072,83.5020557 151.688011,83.6609208 C151.808691,83.8145486 151.965923,84.0461542 152.182334,84.3278053 L158.692661,93.287101 C159.311145,94.1500937 159.745128,94.3025577 160.333442,94.3025577 C160.361871,94.3025577 160.390301,94.3025577 160.41931,94.3013938 C161.350517,94.3013938 162.012516,94.1692972 162.611853,94.1698791 C163.48156,94.1698791 164.3298,94.3008119 165.067803,94.3013938 C165.283634,94.3025577 165.45305,94.2437834 165.549362,94.1134325 C165.640452,93.9842455 165.642773,93.842838 165.643353,93.7235437 C165.655537,93.4680792 165.489602,93.2818637 165.292917,93.2003944 L165.292917,93.2003944 Z M134.080365,93.0758627 C132.996568,92.8366921 131.130673,93.0042861 131.109786,90.08012 L131.109786,74.4188102 C131.12313,72.89708 131.66851,72.5147562 132.238838,72.2831506 C132.530674,72.1720032 132.832954,72.1196301 133.086498,72.0172115 C133.338881,71.9235218 133.572698,71.7105378 133.563995,71.3672029 C133.57792,71.1617838 133.492631,70.9278505 133.264616,70.848127 C133.053427,70.7660758 132.763331,70.7573469 132.267848,70.7544373 C130.39441,70.7544373 129.21082,70.8859521 128.045215,70.8859521 C126.910361,70.8859521 125.63336,70.7544373 124.345915,70.7544373 C124.277453,70.7544373 124.161995,70.7468723 124.032612,70.7468723 C123.69262,70.7492 123.102565,70.7940081 123.081679,71.3672029 C123.151302,72.151054 124.157353,72.1289409 125.038084,72.4303773 C125.946083,72.7259945 126.771695,73.1676745 126.780978,74.5840765 L126.780978,90.3431495 C126.771695,91.8654616 126.234438,92.3449667 125.681516,92.6539681 C125.14774,92.9577322 124.448609,93.0304727 124.423661,93.7567133 C124.425402,93.9452566 124.535638,94.3008119 124.93539,94.3008119 C125.799875,94.3008119 127.202197,94.1698791 128.601619,94.1698791 C131.149239,94.1698791 132.354296,94.3008119 133.577339,94.3025577 C133.961426,94.3008119 134.238177,94.2722976 134.445886,94.1762802 C134.658816,94.0872459 134.784137,93.8800811 134.775434,93.6583682 C134.770213,93.2725529 134.420357,93.1363828 134.080365,93.0758627 L134.080365,93.0758627 Z M115.336705,70.8457993 C115.174251,70.7561831 114.990331,70.7492 114.779721,70.7480362 C114.630612,70.7480362 114.468158,70.7561831 114.292941,70.7561831 C113.362894,70.7561831 112.446192,70.8871159 111.543414,70.8859521 C110.608726,70.8871159 109.692023,70.7561831 108.728906,70.7561831 C108.639556,70.7561831 108.511334,70.7492 108.370348,70.7492 C107.950289,70.7503639 107.262182,70.7881889 107.234913,71.4317964 C107.298734,72.2139017 108.228201,72.1266132 108.999855,72.3628741 C109.800519,72.5979713 110.526339,72.973312 110.541424,74.4531437 C110.540263,74.9599992 110.481664,76.0790382 109.506942,78.2647433 L105.022644,88.2441511 C104.969266,88.3715923 104.911827,88.5409321 104.848586,88.6707011 C104.817836,88.7364584 104.784185,88.7899954 104.758077,88.8185097 C104.736029,88.8441143 104.736029,88.8371312 104.736029,88.8441143 C104.734289,88.8441143 104.733128,88.8458601 104.703539,88.8150181 C104.607227,88.7195827 104.489448,88.4228016 104.415764,88.2476426 L100.161801,77.6793281 C99.3454718,75.685076 98.9271539,74.1482157 98.9294747,73.2043357 C98.9346964,72.6101917 99.3158821,72.4484169 99.8067239,72.2790771 C100.262754,72.1225397 100.868474,72.0305958 100.894002,71.4317964 C100.897484,71.1827331 100.858031,70.9581106 100.648582,70.848127 C100.455958,70.7521096 100.223301,70.7573469 99.831092,70.7544373 C99.7400019,70.7544373 99.6396288,70.7561831 99.531133,70.7561831 C98.9863334,70.7561831 98.0551264,70.8859521 95.9635367,70.8871159 C94.8617534,70.8871159 93.7495266,70.7561831 92.6581868,70.7544373 C92.480068,70.7561831 92.1957743,70.7125388 91.9155419,70.7125388 C91.5157901,70.7125388 91.0005802,70.8452174 91,71.4317964 C91.0504766,71.8408887 91.5088278,71.9729853 91.6266066,72.036415 C92.9662684,72.3780042 93.3312087,72.661401 93.8928339,73.9235932 L102.042781,93.0269811 C102.636897,94.4014847 102.963545,94.8065035 103.426538,94.8274528 L103.432339,94.8274528 C103.882568,94.8274528 104.105361,94.5213609 104.447094,93.6874644 L104.447674,93.6874644 L113.35129,73.9567629 C113.781792,73.0169563 114.305705,72.6037905 114.740268,72.3145745 C115.159166,72.0305958 115.576324,71.8647475 115.589668,71.3672029 C115.59605,71.1344334 115.50554,70.9383252 115.336705,70.8457993 L115.336705,70.8457993 Z M183.846855,93.0758627 C182.762478,92.8366921 180.896582,93.0042861 180.876856,90.08012 L180.876856,74.4188102 C180.88962,72.89708 181.435,72.5147562 182.006488,72.2831506 C182.297164,72.1720032 182.598864,72.1196301 182.852988,72.0172115 C183.104791,71.9235218 183.338608,71.7105378 183.331065,71.3672029 C183.343829,71.1617838 183.259121,70.9278505 183.031686,70.848127 C182.819917,70.7660758 182.529241,70.7573469 182.033757,70.7544373 C180.16032,70.7544373 178.97789,70.8859521 177.812285,70.8859521 C176.676851,70.8859521 175.39985,70.7544373 174.112405,70.7544373 C174.044523,70.7544373 173.928485,70.7468723 173.799102,70.7468723 C173.45911,70.7492 172.868475,70.7940081 172.848169,71.3672029 C172.917791,72.151054 173.923843,72.1289409 174.804574,72.4303773 C175.713153,72.7259945 176.538765,73.1676745 176.547468,74.5840765 L176.547468,90.3431495 C176.537605,91.8654616 176.001508,92.3449667 175.448586,92.6539681 C174.91423,92.9577322 174.215679,93.0304727 174.191311,93.7567133 C174.191311,93.9452566 174.303288,94.3008119 174.70188,94.3008119 C175.565785,94.3008119 176.968687,94.1698791 178.368109,94.1698791 C180.916309,94.1698791 182.119626,94.3008119 183.343249,94.3025577 C183.727916,94.3008119 184.004087,94.2722976 184.212956,94.1762802 C184.424726,94.0872459 184.549467,93.8800811 184.541344,93.6583682 C184.536123,93.2725529 184.186847,93.1363828 183.846855,93.0758627 L183.846855,93.0758627 Z" fill="#95A2AA" sketch:type="MSShapeGroup"></path>
            </g>
        </g>
    </g>
</svg>