<?xml version="1.0" encoding="UTF-8" standalone="no"?>
<svg width="365px" height="125px" viewBox="0 0 365 125" version="1.1" xmlns="http://www.w3.org/2000/svg" xmlns:xlink="http://www.w3.org/1999/xlink" xmlns:sketch="http://www.bohemiancoding.com/sketch/ns">
    <!-- Generator: Sketch 3.2.2 (9983) - http://www.bohemiancoding.com/sketch -->
    <title>nyu</title>
    <desc>Created with Sketch.</desc>
    <defs></defs>
    <g id="Welcome" stroke="none" stroke-width="1" fill="none" fill-rule="evenodd" sketch:type="MSPage">
        <g id="Desktop-HD---Why-Us" sketch:type="MSArtboardGroup" transform="translate(-1006.000000, -1496.000000)">
            <g id="nyu" sketch:type="MSLayerGroup" transform="translate(1006.000000, 1496.000000)">
                <rect id="Rectangle-84" fill="#FFFFFF" sketch:type="MSShapeGroup" x="0" y="0" width="365" height="125"></rect>
                <g id="NYU" transform="translate(87.000000, 29.000000)" fill="#95A2AA" sketch:type="MSShapeGroup">
                    <path d="M106.570223,37.6767821 L89.3660619,14.6883849 L81.9124952,14.6883849 L81.9124952,52.0244442 L89.8866866,52.0244442 L89.8866866,28.2888244 L107.676504,52.0244442 L114.547778,52.0244442 L114.547778,14.6883849 L106.570223,14.6883849 L106.570223,37.6767821" id="Fill-26"></path>
                    <path d="M136.793739,29.6765236 L128.032443,14.6883849 L118.584581,14.6883849 L132.69751,37.3022211 L132.69751,52.0244442 L140.780834,52.0244442 L140.780834,37.144951 L154.890399,14.6883849 L145.712753,14.6883849 L136.793739,29.6765236" id="Fill-27"></path>
                    <path d="M182.284303,14.6902843 L182.284303,36.0782499 C182.284303,41.9929709 179.284637,45.0350445 174.359072,45.0350445 C169.420799,45.0350445 166.439073,41.8923029 166.439073,35.8100551 L166.439073,14.6902843 L158.355001,14.6902843 L158.355001,36.0239272 C158.355001,47.0107969 164.391706,52.610598 174.247322,52.610598 C184.11602,52.610598 190.360526,47.0624605 190.360526,35.7564921 L190.360526,14.6902843 L182.284303,14.6902843" id="Fill-28"></path>
                    <path d="M0.478644762,66.5111421 L65.1426243,66.5111421 L65.1426243,0.782902343 L0.478644762,0.782902343 L0.478644762,66.5111421 Z M40.4097743,15.2916333 C40.4363101,15.2392099 40.5032101,15.2027415 40.5461906,15.2627625 C41.0249561,15.8314418 42.8906836,20.6202005 41.8688689,23.3249413 C41.217434,25.0552916 33.9111223,25.2763814 32.0382936,34.4037418 C32.0162427,34.4823769 31.9209381,34.5044099 31.88319,34.4113394 C28.6376014,26.7134649 34.9833924,21.9319238 36.6401973,20.5772742 C37.8133782,19.6063026 39.4201015,17.5010114 40.4097743,15.2916333 L40.4097743,15.2916333 Z M33.9544765,11.2102098 C33.9847497,11.1110613 34.0423062,11.071174 34.11257,11.1653841 C34.6145075,11.7925648 36.1401285,16.1748527 36.1401285,18.8837722 C36.1367648,19.07941 36.183109,19.2370599 35.9999747,19.4049666 C34.7098121,20.6103237 26.7845812,26.1633996 30.7458885,34.771465 C30.7929802,34.8675745 30.6939382,34.9279753 30.6165733,34.8751721 C24.2278019,30.6292609 22.8266375,26.1235123 28.9433236,18.7291613 C29.668386,17.861137 33.277627,13.8803816 33.9544765,11.2102098 L33.9544765,11.2102098 Z M20.6604201,23.747747 C22.6285534,20.4348194 23.9093724,17.5568537 23.9508579,16.4115175 C23.9575853,16.2880567 24.0573748,16.2743811 24.1724878,16.4487457 C24.6221013,17.1386065 25.7014725,19.6773401 25.8147168,20.6813611 C25.8348989,20.8496476 25.8147168,20.9997 25.7571603,21.0851728 C23.0082768,25.3056321 22.3441346,31.0478879 28.9724756,35.0662514 C29.0733864,35.1258924 29.0423656,35.2265605 28.9433236,35.2223818 C18.5648403,34.9279753 18.5674565,27.2722673 20.6604201,23.747747 L20.6604201,23.747747 Z M31.8510481,58.8315018 C31.6294182,59.5152845 30.6457253,59.2922954 30.5720978,58.8315018 L28.6196617,40.6212267 L34.1088326,40.6212267 L31.8510481,58.8315018 L31.8510481,58.8315018 Z M26.6963777,36.5451216 L36.0283792,36.5451216 L36.0283792,39.3060845 L26.6963777,39.3060845 L26.6963777,36.5451216 Z M33.3355573,35.1980695 C33.2813645,35.1980695 33.2111007,35.149445 33.2290404,35.0662514 C33.6270772,31.6769681 35.9184986,27.9089451 39.7295611,26.2450736 C43.9958432,24.389743 45.531929,21.3324743 45.8862378,20.4804049 C45.9404306,20.3094592 46.0585336,20.3333916 46.0518062,20.5727156 C46.006957,24.670094 45.1667816,35.6326515 33.3355573,35.1980695 L33.3355573,35.1980695 Z" id="Fill-35"></path>
                </g>
            </g>
        </g>
    </g>
</svg>