<?xml version="1.0" encoding="UTF-8" standalone="no"?>
<svg width="355px" height="350px" viewBox="0 0 355 350" version="1.1" xmlns="http://www.w3.org/2000/svg" xmlns:xlink="http://www.w3.org/1999/xlink" xmlns:sketch="http://www.bohemiancoding.com/sketch/ns">
    <!-- Generator: Sketch 3.2.2 (9983) - http://www.bohemiancoding.com/sketch -->
    <title>canvas-graphic</title>
    <desc>Created with Sketch.</desc>
    <defs></defs>
    <g id="Welcome" stroke="none" stroke-width="1" fill="none" fill-rule="evenodd" sketch:type="MSPage">
        <g id="Desktop-HD---Product" sketch:type="MSArtboardGroup" transform="translate(-845.000000, -2643.000000)">
            <g id="canvas-graphic" sketch:type="MSLayerGroup" transform="translate(845.000000, 2643.000000)">
                <path d="M212.382474,155.205762 C215.72208,151.873936 220.14903,150.033333 224.870778,150.033333 C227.596582,150.033333 230.334178,150.681826 232.749668,151.893174 C233.704196,152.366667 234.597902,152.930142 235.425201,153.547606 L244.208348,144.259574 C270.702395,154.479078 301.926259,148.938652 323.259773,127.602926 C337.681958,113.187145 345.560227,93.2179078 344.884983,72.8111702 C344.78382,69.8442376 342.842491,67.2701241 340.019248,66.3541667 C337.20035,65.4413121 334.113339,66.3926418 332.296136,68.7340426 C330.405079,71.1722518 328.354519,73.4981383 326.226381,75.6335106 C305.200079,96.6546099 275.6184,101.271011 260.280787,85.9305851 C244.938208,70.589539 249.559414,41.0114362 270.581993,19.9903369 C272.718199,17.8549645 275.039974,15.8089539 277.478427,13.9218085 C279.823785,12.1047872 280.77521,9.0143617 279.85854,6.19512411 C278.950559,3.3802305 276.360052,1.43537234 273.405236,1.33421986 C252.995839,0.662765957 233.01778,8.5445922 218.603663,22.9566489 C197.265804,44.2923759 191.728549,75.516844 201.941005,102.008865 L171.804484,130.503457 L204.445865,163.137234 L212.382474,155.205762" id="Fill-1" fill="#D9E8EB" sketch:type="MSShapeGroup"></path>
                <path d="M204.445865,164.892819 L170.024519,130.478635 L200.486871,101.675 C190.185664,74.0529255 196.907701,42.8954787 217.725472,22.0797872 C232.300332,7.50576241 252.736416,-0.578989362 273.446198,0.0937056738 C276.922963,0.212234043 279.973977,2.51143617 281.040219,5.81409574 C282.115149,9.11861702 280.988706,12.7718972 278.238698,14.9029255 C275.85486,16.7484929 273.574047,18.7547872 271.460184,20.8678191 C250.922316,41.4036348 246.30049,70.1967199 261.157736,85.0531028 C266.844563,90.7406028 274.729038,93.7460106 283.957797,93.7460106 C297.982159,93.7453901 313.455691,86.6460993 325.349432,74.7560284 C327.461434,72.6361702 329.468549,70.3537234 331.315542,67.973227 C332.895044,65.937766 335.27826,64.7698582 337.853872,64.7698582 C338.71965,64.7698582 339.576119,64.9057624 340.402177,65.1726064 C343.707649,66.2455674 346.00708,69.2981383 346.125621,72.7683511 C346.812657,93.5201241 338.79785,113.82633 324.137963,128.481028 C309.959685,142.660372 291.073934,150.469592 270.961198,150.469592 C261.883252,150.469592 252.998942,148.87039 244.542247,145.714184 L235.567325,155.20328 L234.681687,154.541755 C233.87611,153.940426 233.040122,153.422872 232.197928,153.00523 C229.938837,151.872074 227.40667,151.274468 224.870778,151.274468 C220.492238,151.274468 216.368156,152.98227 213.258802,156.083865 L204.445865,164.892819 L204.445865,164.892819 Z M173.584449,130.52828 L204.445865,161.38289 L211.504904,154.32766 C215.083453,150.757535 219.830026,148.792199 224.870778,148.792199 C227.79146,148.792199 230.707797,149.480408 233.305752,150.783599 C233.96424,151.110018 234.619003,151.489805 235.260734,151.914273 L243.878794,142.802482 L244.655201,143.102216 C253.059764,146.34406 261.910559,147.987323 270.961198,147.987323 C290.411101,147.987323 308.673121,140.436879 322.382203,126.725443 C336.558619,112.554787 344.308418,92.9187943 343.644344,72.8521277 C343.56118,70.423227 341.951267,68.2853723 339.63632,67.5338652 C339.059135,67.3470745 338.459607,67.2521277 337.853872,67.2521277 C336.050944,67.2521277 334.382692,68.0700355 333.276731,69.4948582 C331.368295,71.9554078 329.29167,74.3160461 327.106434,76.5091312 C314.755288,88.8565603 298.625752,96.2276596 283.957797,96.2282801 C274.056276,96.2289007 265.565446,92.9715426 259.402596,86.8080674 C243.577788,70.9842199 248.198995,40.6167553 269.704423,19.1128546 C271.892762,16.9259752 274.252395,14.8489362 276.718156,12.9406915 C278.643348,11.4494681 279.430927,8.8927305 278.678724,6.57925532 C277.932107,4.26578014 275.796521,2.6572695 273.363033,2.57535461 C253.354563,1.9231383 233.574484,9.74228723 219.481233,23.8341312 C199.159965,44.1539894 192.729624,74.6635638 203.0991,101.561436 L203.398864,102.338387 L173.584449,130.52828 L173.584449,130.52828 Z" id="Fill-2" fill="#4E83B7" sketch:type="MSShapeGroup"></path>
                <path d="M197.494816,170.394149 L55.658042,28.575266 C55.5531556,28.4623227 55.4290297,28.3698582 55.3005594,28.2879433 L25.2261014,9.58528369 C24.4379021,9.09565603 23.4088986,9.20425532 22.7448252,9.86888298 L19.191722,13.4172872 L15.6386189,16.9700355 C14.9788899,17.6303191 14.8622115,18.6592199 15.3556119,19.4504433 L34.0638636,49.5218972 C34.1457867,49.6503546 34.2388811,49.7707447 34.3474913,49.879344 L176.184886,191.702571 C176.577124,192.098493 177.08542,192.29273 177.601783,192.29273 C178.114423,192.29273 178.635131,192.09477 179.027369,191.702571 L197.494816,173.232624 C197.871538,172.85594 198.081311,172.347074 198.081311,171.811525 C198.081311,171.283422 197.871538,170.774557 197.494816,170.394149" id="Fill-3" fill="#F0AFAF" sketch:type="MSShapeGroup"></path>
                <path d="M177.601783,193.533245 C176.73104,193.533245 175.914292,193.193794 175.302972,192.57633 L33.4699213,50.7568262 C33.302972,50.5905142 33.1502972,50.3987589 33.0162413,50.187766 L14.3011626,20.106383 C13.4986888,18.816844 13.6879808,17.1655142 14.761049,16.0925532 L21.8678759,8.99078014 C22.4798164,8.37828014 23.2947028,8.04069149 24.1629633,8.04069149 C24.7705594,8.04069149 25.3645017,8.20948582 25.8808654,8.53093972 L55.9559441,27.2342199 C56.2029545,27.3899823 56.3996941,27.5507092 56.567264,27.7300532 L198.372386,169.516667 C198.986809,170.136613 199.32257,170.950177 199.32257,171.811525 C199.32257,172.682181 198.984948,173.498227 198.371766,174.110727 L179.904318,192.580053 C179.298584,193.186348 178.459493,193.533245 177.601783,193.533245 L177.601783,193.533245 Z M24.1629633,10.5235816 C23.9587762,10.5235816 23.7670017,10.601773 23.6230157,10.7457447 L16.5161888,17.8475177 C16.2635927,18.1007092 16.219528,18.4904255 16.4094406,18.7951241 L35.1183129,48.866578 C35.1487238,48.9149823 35.1865822,48.9633865 35.2250612,49.0018617 L177.062456,190.825089 C177.248645,191.0125 177.458418,191.051596 177.601783,191.051596 C177.80597,191.051596 178.005813,190.96906 178.149178,190.825089 L196.617247,172.355142 C196.761233,172.21055 196.840052,172.017553 196.840052,171.811525 C196.840052,171.608599 196.759371,171.415603 196.612902,171.267287 L54.780472,29.4527482 C54.7438549,29.4148936 54.7159266,29.3875887 54.6371066,29.3373227 L24.5707168,10.6390071 C24.4490734,10.5632979 24.3075699,10.5235816 24.1629633,10.5235816 L24.1629633,10.5235816 Z" id="Fill-4" fill="#DE4243" sketch:type="MSShapeGroup"></path>
                <path d="M157.68951,226.980585 C154.280393,220.174202 155.604196,211.977748 160.990017,206.588741 L168.922902,198.656649 L158.236906,187.963652 L135.295962,165.020656 L15.8521154,277.960195 C14.6871941,278.876773 13.5533042,279.84734 12.4820979,280.91906 C-2.09896853,295.49867 -2.09896853,319.136082 12.4820979,333.719415 C27.0625437,348.295301 50.7066608,348.295301 65.2877273,333.719415 C66.3558304,332.647695 67.3264948,331.518262 68.2350962,330.353457 L161.359292,231.880585 C159.898951,230.486791 158.632867,228.859663 157.68951,226.980585" id="Fill-5" fill="#D9E8EB" sketch:type="MSShapeGroup"></path>
                <path d="M38.8849126,345.892465 C28.5793619,345.892465 18.8907168,341.881117 11.6039073,334.596897 C-3.4358042,319.554344 -3.4358042,295.080408 11.6039073,280.041578 C12.6006381,279.046188 13.7245979,278.057004 15.0397115,277.020035 L135.320166,163.289273 L170.678663,198.656028 L161.868208,207.466223 C156.861591,212.475443 155.6284,220.094149 158.799196,226.425177 C159.628977,228.077128 160.779003,229.61117 162.21576,230.983245 L163.108846,231.835904 L69.1772115,331.163918 C68.1693094,332.452216 67.1843706,333.575443 66.1671591,334.595656 C58.8791084,341.881117 49.1904633,345.892465 38.8849126,345.892465 L38.8849126,345.892465 Z M135.271757,166.752039 L16.6638986,278.900975 L16.6192133,278.936348 C15.3630594,279.924291 14.2961976,280.860106 13.3590472,281.797163 C-0.712482517,295.867908 -0.712482517,318.766844 13.3590472,332.841933 C20.1772815,339.657004 29.2421941,343.410195 38.8849126,343.410195 C48.5276311,343.410195 57.5925437,339.657004 64.4101573,332.841933 C65.3665472,331.882535 66.2981119,330.818262 67.2569843,329.59016 L67.3333217,329.500798 L159.633322,231.899202 C158.387719,230.560018 157.36368,229.09734 156.580446,227.537234 C152.929283,220.24867 154.348663,211.477571 160.111827,205.710638 L167.168383,198.656028 L135.271757,166.752039 L135.271757,166.752039 Z" id="Fill-6" fill="#4E83B7" sketch:type="MSShapeGroup"></path>
                <path d="M348.003024,290.897163 L261.985035,204.89211 L262.027858,204.849291 C263.732727,203.144592 264.155376,200.53945 263.076101,198.38484 C262.120953,196.466667 260.167832,195.290071 258.074449,195.290071 C257.810682,195.290071 257.538846,195.305585 257.275079,195.34406 C256.106434,195.511613 254.937168,195.592908 253.787762,195.596631 C247.528715,195.596631 241.58743,193.158422 237.094694,188.666135 C231.770935,183.346631 229.332483,175.992908 230.411757,168.487766 C230.757448,166.100443 229.534187,163.759043 227.375017,162.683599 C226.913269,162.450266 226.427937,162.306915 225.934537,162.213209 C225.581399,162.131915 225.22764,162.089096 224.870778,162.089096 C223.418505,162.09344 221.989196,162.656294 220.909921,163.731738 L177.454694,207.182624 L169.521189,215.10727 C167.816941,216.815691 167.393051,219.420833 168.468601,221.579787 C168.659135,221.948404 168.899939,222.274823 169.159983,222.573936 C169.311416,222.767553 169.474642,222.942553 169.645315,223.109486 C169.649659,223.109486 169.649659,223.113209 169.649659,223.113209 C170.06486,223.505408 170.534677,223.820035 171.039248,224.064539 C171.245297,224.165691 171.443278,224.258777 171.653051,224.336348 C171.823724,224.394681 171.990673,224.449291 172.169414,224.49211 C172.58896,224.596365 173.024021,224.674557 173.474598,224.674557 C173.738365,224.674557 174.002133,224.654699 174.273969,224.616223 C175.43889,224.449291 176.603811,224.367996 177.753217,224.367996 C184.016608,224.367996 189.961617,226.801862 194.454353,231.294149 C199.778112,236.613652 202.212841,243.97172 201.133566,251.472518 C200.7916,253.856738 202.018584,256.201862 204.170306,257.277305 C204.962229,257.67695 205.824283,257.867465 206.674545,257.867465 C208.130542,257.867465 209.567299,257.300266 210.639126,256.225443 L295.934703,342.952837 C299.693855,346.703546 304.601792,348.578901 309.521521,348.574557 C314.433802,348.574557 319.349808,346.703546 323.097168,342.952837 L348.003024,318.053191 C355.501469,310.563564 355.505192,298.402926 348.003024,290.897163" id="Fill-7" fill="#F0AFAF" sketch:type="MSShapeGroup"></path>
                <path d="M309.522142,349.815691 L309.507247,349.815691 C304.0575,349.815691 298.926136,347.690869 295.057753,343.83156 L210.553479,257.907801 C209.422692,258.688475 208.081512,259.108599 206.674545,259.108599 C205.607684,259.108599 204.547649,258.858511 203.610498,258.385638 C200.976547,257.068794 199.485795,254.219149 199.905341,251.296277 C200.928138,244.183333 198.621879,237.213121 193.576783,232.172252 C189.344091,227.939362 183.724292,225.608511 177.753217,225.608511 C176.655944,225.608511 175.545017,225.687943 174.450227,225.844326 C173.602448,225.964716 172.856451,225.942376 171.868409,225.696011 C171.665463,225.647606 171.461276,225.582447 171.253365,225.511702 C170.973462,225.408688 170.737622,225.298848 170.493715,225.179699 C170.020795,224.950089 169.580149,224.672074 169.181705,224.351241 L169.139502,224.351241 L168.4084,223.609663 C168.335787,223.527748 168.268138,223.446454 168.202972,223.363918 C167.852316,222.958067 167.577998,222.560904 167.365743,222.148848 C166.043182,219.49406 166.559545,216.317996 168.642998,214.230408 L220.032351,162.854255 C221.326364,161.564716 223.043024,160.852926 224.867675,160.847961 C225.314528,160.847961 225.766967,160.90133 226.214441,161.004965 C226.82576,161.118528 227.404808,161.308422 227.934205,161.574645 C230.571879,162.889628 232.063252,165.739894 231.639983,168.665248 C230.617806,175.775709 232.925306,182.746543 237.972264,187.788032 C242.208059,192.023404 247.824755,194.356117 253.787762,194.356117 C254.898068,194.351773 256.01396,194.271099 257.099441,194.115957 C257.397343,194.071897 257.727517,194.049557 258.074449,194.049557 C260.682955,194.049557 263.02521,195.497961 264.187028,197.831294 C265.328365,200.108156 265.099353,202.787145 263.668802,204.820124 L348.880594,290.019681 C352.742771,293.883954 354.869668,299.01977 354.869047,304.481383 C354.868427,309.941755 352.74153,315.073848 348.879974,318.931294 L323.974738,343.830319 C320.118147,347.690248 314.985542,349.815691 309.522142,349.815691 L309.522142,349.815691 Z M210.645332,254.46055 L296.81972,342.082801 C300.210839,345.466135 304.719091,347.333422 309.507247,347.333422 L309.507247,348.574557 L309.5209,347.333422 C314.322089,347.333422 318.830962,345.466755 322.218977,342.075975 L347.125455,317.175709 C350.517815,313.786791 352.38653,309.278369 352.38653,304.481383 C352.38715,299.681915 350.518435,295.16977 347.124834,291.774645 L260.229895,204.89211 L261.107465,204.014628 C262.480297,202.641933 262.80799,200.620124 261.966416,198.941489 C261.225385,197.453989 259.735253,196.531206 258.074449,196.531206 C257.84792,196.531206 257.639388,196.545479 257.455682,196.572163 C256.252902,196.74406 255.021573,196.834043 253.792727,196.837766 C247.161302,196.837766 240.921495,194.247518 236.216503,189.543617 C230.6116,183.943617 228.04778,176.204521 229.182911,168.310904 C229.452885,166.44734 228.503942,164.632181 226.822037,163.794415 C226.498068,163.631206 226.135,163.513918 225.705524,163.433865 C225.386521,163.360638 225.130201,163.330851 224.870778,163.330851 C223.708339,163.333333 222.612308,163.788209 221.78625,164.611082 L170.398759,215.985372 C169.070612,217.316489 168.741058,219.342021 169.579528,221.026241 C169.696206,221.251507 169.8675,221.496011 170.095271,221.75789 L170.139956,221.810638 C170.154231,221.829876 170.169747,221.849734 170.185883,221.868351 L170.887194,221.868351 L170.889056,222.532979 C171.101932,222.689362 171.333427,222.827748 171.581678,222.948138 C171.752351,223.031915 171.913094,223.109486 172.083767,223.172163 C172.186792,223.206915 172.315883,223.250975 172.456145,223.283865 C173.158698,223.460106 173.580105,223.461968 174.099572,223.386879 C175.309178,223.213741 176.538645,223.126241 177.753217,223.126241 C184.387745,223.126241 190.630656,225.715248 195.331923,230.416667 C200.936206,236.016046 203.498164,243.754521 202.362413,251.649379 C202.095542,253.511082 203.044484,255.327482 204.725149,256.16711 C205.321573,256.468085 205.994336,256.62633 206.674545,256.62633 C207.843191,256.62633 208.938601,256.172695 209.760315,255.348582 L210.645332,254.46055 L210.645332,254.46055 Z" id="Fill-8" fill="#DE4243" sketch:type="MSShapeGroup"></path>
                <path d="M50.1983654,318.63156 C43.9504895,324.882535 33.8118881,324.882535 27.5596678,318.63156 C21.3080682,312.388652 21.3080682,302.24672 27.5596678,295.999468 C33.8075437,289.752216 43.9467657,289.752216 50.194021,295.999468 C56.449965,302.24672 56.449965,312.384309 50.1983654,318.63156" id="Fill-9" fill="#FFFFFF" sketch:type="MSShapeGroup"></path>
                <path d="M38.8805682,324.561082 C34.2723951,324.561082 29.9397815,322.767021 26.6820979,319.509043 C23.4244143,316.255408 21.6301748,311.925709 21.6301748,307.316755 C21.6301748,302.708422 23.4237937,298.377482 26.6820979,295.121365 C29.9385402,291.865248 34.269292,290.072429 38.877465,290.072429 C43.4850175,290.072429 47.8157692,291.865248 51.0722115,295.121986 C54.331757,298.376862 56.1278584,302.707181 56.1278584,307.315514 C56.128479,311.922606 54.3342395,316.252926 51.0759353,319.509663 C47.8201136,322.767021 43.4887413,324.561082 38.8805682,324.561082 L38.8805682,324.561082 Z M38.877465,292.554699 C34.9321241,292.554699 31.2251049,294.089362 28.4372378,296.87695 C25.6481294,299.664539 24.1126923,303.371809 24.1126923,307.316755 C24.1126923,311.262323 25.6481294,314.96773 28.4366171,317.752837 C31.2263462,320.542908 34.9352273,322.078812 38.8805682,322.078812 C42.8252885,322.078812 46.5329283,320.542908 49.3201748,317.753457 C52.1099038,314.966489 53.6459615,311.25922 53.6459615,307.315514 C53.6453409,303.371809 52.108042,299.664539 49.3176923,296.877571 C46.5298252,294.089362 42.8221853,292.554699 38.877465,292.554699 L38.877465,292.554699 Z" id="Fill-10" fill="#AFBAB9" sketch:type="MSShapeGroup"></path>
                <path d="M306.078269,334.339982 L219.796512,248.123936 L221.552273,246.36773 L307.833409,332.583777 L306.078269,334.339982" id="Fill-11" fill="#FFFFFF" sketch:type="MSShapeGroup"></path>
                <path d="M316.308103,324.30789 L230.07972,238.005585 L231.836101,236.251862 L318.064484,322.554167 L316.308103,324.30789" id="Fill-12" fill="#FFFFFF" sketch:type="MSShapeGroup"></path>
                <path d="M326.844528,313.979167 L240.758269,227.885993 L242.513409,226.131028 L328.599668,312.224202 L326.844528,313.979167" id="Fill-13" fill="#FFFFFF" sketch:type="MSShapeGroup"></path>
                <path d="M337.146976,303.87695 L251.135192,217.764539 L252.891573,216.010816 L338.903357,302.123227 L337.146976,303.87695" id="Fill-14" fill="#FFFFFF" sketch:type="MSShapeGroup"></path>
            </g>
        </g>
    </g>
</svg>