<?xml version="1.0" encoding="utf-8"?>
<!-- Generator: Adobe Illustrator 18.1.0, SVG Export Plug-In . SVG Version: 6.00 Build 0)  -->
<!DOCTYPE svg PUBLIC "-//W3C//DTD SVG 1.1//EN" "http://www.w3.org/Graphics/SVG/1.1/DTD/svg11.dtd">
<svg version="1.1" id="Layer_1" xmlns="http://www.w3.org/2000/svg" xmlns:xlink="http://www.w3.org/1999/xlink" x="0px" y="0px"
	 viewBox="0 0 682.2 542.7" enable-background="new 0 0 682.2 542.7" xml:space="preserve">
<ellipse opacity="0.4" fill="#B5C0C3" cx="330.2" cy="470" rx="156.8" ry="8.6"/>
<path fill="#FFFFFF" stroke="#B5C0C3" stroke-width="4" stroke-miterlimit="10" d="M386.1,465.3H274.4c-2.4,0-4.3-1.9-4.3-4.3v-2
	c0-2.4,1.9-4.3,4.3-4.3h111.8c2.4,0,4.3,1.9,4.3,4.3v2C390.4,463.4,388.5,465.3,386.1,465.3z"/>
<path fill="#FFFFFF" stroke="#B5C0C3" stroke-width="4" stroke-miterlimit="10" d="M499.1,425.1H160.9c-5.2,0-9.4-4.2-9.4-9.4V207
	c0-5.2,4.2-9.4,9.4-9.4h338.2c5.2,0,9.4,4.2,9.4,9.4v208.7C508.4,420.9,504.2,425.1,499.1,425.1z"/>
<path fill="#FFFFFF" stroke="#B5C0C3" stroke-width="4" stroke-miterlimit="10" d="M373.6,432.9c0-2.5,0.2-5,0.6-7.4h-87.9
	c0.4,2.4,0.6,4.9,0.6,7.4c0,8.3-2.1,15.9-5.8,22.3h8.6h81h8.6C375.7,448.9,373.6,441.2,373.6,432.9z"/>
<rect x="162.6" y="207.5" fill="#FFFFFF" stroke="#B5C0C3" stroke-width="4" stroke-miterlimit="10" width="334.7" height="194.3"/>
<path opacity="0.4" fill="#B5C0C3" d="M375.3,426.4h-82.7h-3.5h-1.1l0,0.2c0.4,2.5,0.6,5.1,0.6,7.6c0,0.9,0,1.8-0.1,2.7h1.1h1.1h84
	c0-0.9-0.1-1.8-0.1-2.7c0-2.5,0.2-5.1,0.6-7.6L375.3,426.4z"/>
<g>
	<g>
		
			<ellipse fill="none" stroke="#E8EAEA" stroke-width="3" stroke-linecap="round" stroke-linejoin="round" stroke-miterlimit="10" cx="65.6" cy="387.3" rx="10.8" ry="12.9"/>
		<path fill="none" stroke="#E8EAEA" stroke-width="3" stroke-linecap="round" stroke-linejoin="round" stroke-miterlimit="10" d="
			M71.4,404.7l1,2.6l10.9,3.5c0,0,3.2,0.7,3.2,10.3H44.7c0-9.5,3.2-10.3,3.2-10.3l10.9-3.5l1.1-2.8"/>
	</g>
	<path fill="none" stroke="#E8EAEA" stroke-width="3" stroke-linecap="round" stroke-linejoin="round" stroke-miterlimit="10" d="
		M55.1,381.4c0,0,5.5,4.3,11.8,1.4c6.4-2.9,0.1,5.2,9.2-0.2"/>
</g>
<g>
	<g>
		<path fill="#4F8FCC" d="M288.1,322c0-3,1.5-5.6,3.7-7.3c0.4-0.2,0.8-0.5,1.2-0.7c11.4-6.9,24.4-10.4,37.3-10.4
			c12.9,0,25.9,3.5,37.3,10.4c0.4,0.2,0.8,0.5,1.2,0.7c2.2,1.7,3.7,4.3,3.7,7.3c0,5-4.1,9.1-9.1,9.1c-1.9,0-3.7-0.6-5.1-1.6
			c-5.9-3.6-12.3-5.9-18.8-7v21.1c0,5-4.1,9.1-9.1,9.1c-5,0-9.1-4.1-9.1-9.1v-21.1c-6.6,1.1-13,3.4-18.8,7c-1.4,1-3.2,1.6-5.1,1.6
			C292.1,331.1,288.1,327,288.1,322z"/>
		<g>
			<path fill="#4F8FCC" d="M291.8,294.7c0.4,0.2,0.8,0.5,1.2,0.7c4,2.5,8.3,4.4,12.6,6c8-2.9,16.3-4.4,24.7-4.4
				c8.4,0,16.7,1.5,24.7,4.4c4.4-1.6,8.6-3.6,12.6-6c0.4-0.2,0.8-0.5,1.2-0.7c2.2-1.7,3.7-4.3,3.7-7.3c0-5-4.1-9.1-9.1-9.1
				c-1.9,0-3.7,0.6-5.1,1.6c-5.9,3.6-12.3,5.9-18.8,7v-21.1c0-5-4.1-9.1-9.1-9.1c-5,0-9.1,4.1-9.1,9.1v21.1c-6.6-1.1-13-3.4-18.8-7
				c-1.5-1-3.2-1.6-5.1-1.6c-5,0-9.1,4.1-9.1,9.1C288.1,290.4,289.5,293.1,291.8,294.7z"/>
		</g>
	</g>
</g>
<g>
	<path fill="#E8EAEA" d="M110.9,155.7c-0.3,0-0.5,0.2-0.5,0.5v26.2c0,0.3,0.2,0.5,0.5,0.5c0.3,0,0.5-0.2,0.5-0.5v-26.2
		C111.3,155.9,111.1,155.7,110.9,155.7z"/>
	<path fill="#E8EAEA" d="M102.1,170.3c-0.3,0-0.5,0.2-0.5,0.5v11.6c0,0.3,0.2,0.5,0.5,0.5c0.3,0,0.5-0.2,0.5-0.5v-11.6
		C102.6,170.6,102.4,170.3,102.1,170.3z"/>
	<path fill="#E8EAEA" d="M93.3,164.6c-0.3,0-0.5,0.2-0.5,0.5v17.3c0,0.3,0.2,0.5,0.5,0.5c0.3,0,0.5-0.2,0.5-0.5v-17.3
		C93.7,164.8,93.5,164.6,93.3,164.6z"/>
	<path fill="#E8EAEA" d="M84.4,169.5c-0.3,0-0.5,0.2-0.5,0.5v12.5c0,0.3,0.2,0.5,0.5,0.5c0.3,0,0.5-0.2,0.5-0.5v-12.5
		C84.9,169.7,84.7,169.5,84.4,169.5z"/>
	<path fill="#E8EAEA" d="M75.6,176.3c-0.3,0-0.5,0.2-0.5,0.5v5.6c0,0.3,0.2,0.5,0.5,0.5s0.5-0.2,0.5-0.5v-5.6
		C76,176.5,75.8,176.3,75.6,176.3z"/>
	<path fill="#E8EAEA" d="M66.7,173.1c-0.3,0-0.5,0.2-0.5,0.5v8.9c0,0.3,0.2,0.5,0.5,0.5s0.5-0.2,0.5-0.5v-8.9
		C67.2,173.3,67,173.1,66.7,173.1z"/>
	<path fill="#E8EAEA" d="M111.3,145.3c-1.9,0-3.4,1.5-3.4,3.4c0,0.7,0.2,1.4,0.6,1.9l-7,9.8c-0.3-0.1-0.6-0.1-0.9-0.1
		c-0.8,0-1.6,0.3-2.2,0.8l-5.4-3c0-0.2,0.1-0.4,0.1-0.6c0-1.9-1.5-3.4-3.4-3.4c-1.9,0-3.4,1.5-3.4,3.4c0,0.6,0.2,1.2,0.5,1.8
		l-7.6,9.8c-0.3-0.1-0.7-0.2-1.1-0.2c-0.8,0-1.6,0.3-2.2,0.8l-5.5-3.2c0-0.2,0.1-0.4,0.1-0.6c0-1.9-1.5-3.4-3.4-3.4
		c-1.9,0-3.4,1.5-3.4,3.4c0,0.7,0.2,1.3,0.5,1.8l-6.6,8.5c-0.3-0.1-0.7-0.2-1-0.2c-1.9,0-3.4,1.5-3.4,3.4s1.5,3.4,3.4,3.4
		c1.9,0,3.4-1.5,3.4-3.4c0-0.7-0.2-1.3-0.5-1.8l6.6-8.5c0.3,0.1,0.7,0.2,1,0.2c0.8,0,1.6-0.3,2.2-0.8l5.5,3.2c0,0.2-0.1,0.4-0.1,0.6
		c0,1.9,1.5,3.4,3.4,3.4c1.9,0,3.4-1.5,3.4-3.4c0-0.6-0.2-1.2-0.5-1.8l7.6-9.8c0.3,0.1,0.7,0.2,1.1,0.2c0.8,0,1.6-0.3,2.2-0.8l5.4,3
		c0,0.2-0.1,0.4-0.1,0.6c0,1.9,1.5,3.4,3.4,3.4s3.4-1.5,3.4-3.4c0-0.7-0.2-1.4-0.6-1.9l7-9.8c0.3,0.1,0.6,0.1,0.9,0.1
		c1.9,0,3.4-1.5,3.4-3.4S113.2,145.3,111.3,145.3z M56.8,180.5c-0.6,0-1-0.5-1-1c0-0.6,0.5-1,1-1c0.6,0,1,0.5,1,1
		C57.8,180,57.3,180.5,56.8,180.5z M67.2,166.9c-0.6,0-1-0.5-1-1c0-0.6,0.5-1,1-1c0.6,0,1,0.5,1,1C68.3,166.5,67.8,166.9,67.2,166.9
		z M78.2,173.3c-0.6,0-1-0.5-1-1s0.5-1,1-1c0.6,0,1,0.5,1,1S78.8,173.3,78.2,173.3z M89.8,158.5c-0.6,0-1-0.5-1-1c0-0.6,0.5-1,1-1
		c0.6,0,1,0.5,1,1C90.9,158.1,90.4,158.5,89.8,158.5z M100.7,164.8c-0.6,0-1-0.5-1-1c0-0.6,0.5-1,1-1s1,0.5,1,1
		C101.7,164.3,101.3,164.8,100.7,164.8z M111.3,149.7c-0.6,0-1-0.5-1-1c0-0.6,0.5-1,1-1s1,0.5,1,1
		C112.4,149.3,111.9,149.7,111.3,149.7z"/>
</g>
<g>
	<g>
		<path fill="none" stroke="#E8EAEA" stroke-width="3" stroke-linecap="round" stroke-linejoin="round" stroke-miterlimit="10" d="
			M618.8,407.1c2,2.7,3.3,6,3.5,9.5h16.9c-0.2-8.1-3.2-15.5-8.1-21.2"/>
		<path fill="none" stroke="#E8EAEA" stroke-width="3" stroke-linecap="round" stroke-linejoin="round" stroke-miterlimit="10" d="
			M623.5,388.8c-5.4-3.5-11.8-5.5-18.6-5.5c-18.6,0-33.7,14.9-34.2,33.4h16.9c0.5-9.2,8.1-16.5,17.4-16.5c2.6,0,5.1,0.6,7.3,1.6"/>
	</g>
	
		<line fill="none" stroke="#E8EAEA" stroke-width="3" stroke-linecap="round" stroke-linejoin="round" stroke-miterlimit="10" x1="606.7" y1="413.9" x2="627.6" y2="391.7"/>
	
		<circle fill="none" stroke="#E8EAEA" stroke-width="3" stroke-linecap="round" stroke-linejoin="round" stroke-miterlimit="10" cx="604.5" cy="416.3" r="2.8"/>
</g>
<g>
	<g>
		<path fill="none" stroke="#E8EAEA" stroke-width="3" stroke-linecap="round" stroke-linejoin="round" stroke-miterlimit="10" d="
			M329.5,65.2c-12.9,0-23.4,10.5-23.4,23.4c0,12.9,10.5,23.4,23.4,23.4c12.9,0,23.4-10.5,23.4-23.4h-23.4V65.2z"/>
	</g>
	<g>
		<path fill="none" stroke="#E8EAEA" stroke-width="3" stroke-linecap="round" stroke-linejoin="round" stroke-miterlimit="10" d="
			M337.1,64.1v16.8h16.8C353.9,71.6,346.4,64.1,337.1,64.1z"/>
	</g>
</g>
<g>
	<g>
		<path fill="#43609E" d="M218.4,75.8v12.6h-10.3c-0.6,0-1.2,0.4-1.7,1.2c-0.5,0.8-0.8,1.7-0.8,2.8V99h12.9v12.9h-12.9v31.2h-12.9
			v-31.2h-10.3V99h10.3v-6.4c0-2.3,0.4-4.5,1.2-6.6c0.8-2,1.9-3.8,3.3-5.3c1.4-1.5,3-2.7,4.9-3.6c1.9-0.9,3.9-1.3,6-1.3H218.4
			 M218.4,71.8h-10.3c-2.7,0-5.3,0.6-7.7,1.7c-2.3,1.1-4.4,2.6-6.1,4.5c-1.7,1.9-3.1,4.1-4.1,6.6c-1,2.5-1.5,5.2-1.5,8.1V95h-6.3
			c-2.2,0-4,1.8-4,4v12.9c0,2.2,1.8,4,4,4h6.3v27.2c0,2.2,1.8,4,4,4h12.9c2.2,0,4-1.8,4-4v-27.2h8.9c2.2,0,4-1.8,4-4V99
			c0-2.2-1.8-4-4-4h-8.9v-2.5h8.9c2.2,0,4-1.8,4-4V75.8C222.4,73.6,220.6,71.8,218.4,71.8L218.4,71.8z"/>
	</g>
</g>
<g>
	<g>
		<path fill="#4F8FCC" d="M67.6,249.7c2.1,0,3.9,0.4,5.6,1.2c1.7,0.8,3.1,1.8,4.4,3.1c1.5-0.2,3-0.6,4.6-1.3
			c1.5-0.6,2.9-1.3,4.2-1.9c-1.2,3.2-3.2,5.7-6,7.5c1.4-0.2,2.8-0.4,4.1-0.8c1.3-0.4,2.5-0.8,3.8-1.4c-1.8,2.7-4.1,5-6.8,7.2v1.6
			c0,4.6-0.9,9.2-2.6,13.8s-4.2,8.9-7.5,12.6c-3.3,3.8-7.4,6.8-12.2,9.2c-4.8,2.4-10.4,3.5-16.7,3.5c-3.9,0-7.6-0.6-11.1-1.7
			c-3.5-1.1-6.9-2.6-10-4.6c0.5,0.1,1.1,0.1,1.6,0.1c0.5,0,1.1,0,1.7,0c6.5,0,12.2-1.9,17-5.8c-3-0.1-5.7-1-8-2.8
			c-2.3-1.8-3.9-4-4.7-6.8c0.9,0.2,1.7,0.3,2.5,0.3c0.7,0,1.3,0,1.9-0.1c0.6-0.1,1.2-0.2,1.8-0.3c-3.2-0.7-5.8-2.3-7.9-4.7
			c-2.1-2.5-3.1-5.4-3.1-8.7V269c0.9,0.5,1.9,0.8,2.9,1.1c1,0.3,2.2,0.5,3.5,0.5c-2-1.2-3.5-2.8-4.6-4.8c-1.1-2-1.6-4.2-1.6-6.6
			c0-2.4,0.6-4.7,1.8-6.9c3.4,4.3,7.6,7.6,12.4,10.2c4.9,2.5,10.1,3.9,15.8,4.2c-0.2-0.9-0.3-1.9-0.3-3c0-1.9,0.4-3.7,1.1-5.4
			c0.7-1.7,1.7-3.2,3-4.4s2.7-2.2,4.3-3C64,250.1,65.7,249.7,67.6,249.7 M86.4,250.9L86.4,250.9 M67.6,245.7c-2.4,0-4.8,0.5-6.9,1.4
			c-2.1,0.9-3.9,2.2-5.5,3.8c-1.6,1.6-2.9,3.5-3.8,5.7c-0.7,1.7-1.2,3.6-1.3,5.5c-3.4-0.6-6.7-1.7-9.7-3.2
			c-4.3-2.3-8.1-5.4-11.2-9.2c-0.8-0.9-1.9-1.5-3.1-1.5c-0.1,0-0.2,0-0.3,0c-1.3,0.1-2.5,0.9-3.2,2.1c-1.5,2.8-2.3,5.8-2.3,8.9
			c0,2.4,0.4,4.6,1.2,6.7c-0.9,0.8-1.5,1.9-1.5,3.1v0.1c0,4.3,1.4,8.1,4.1,11.3c0.3,0.4,0.6,0.7,1,1.1c-0.2,0.7-0.2,1.6,0,2.3
			c1.1,3.5,3.1,6.5,6.1,8.8c0.2,0.2,0.4,0.3,0.6,0.4c-2.2,0.7-4.6,1-7.1,1H23c-0.3,0-0.7,0-1-0.1c-0.2,0-0.4,0-0.6,0
			c-1.7,0-3.2,1-3.7,2.6c-0.7,1.8,0,3.8,1.6,4.8c3.4,2.2,7.1,3.9,10.9,5.1c3.9,1.2,8,1.8,12.3,1.8c6.9,0,13.1-1.3,18.4-3.9
			c5.3-2.6,9.8-6,13.4-10.1c3.6-4.1,6.4-8.8,8.3-13.9c1.8-5,2.8-10,2.8-14.9c2.4-2.1,4.4-4.3,6.1-6.8c1-1.5,0.9-3.4-0.2-4.8
			c-0.4-0.4-0.8-0.8-1.3-1c0-0.1,0-0.1,0.1-0.2c0.2-0.5,0.3-1,0.3-1.6c0-2.2-1.8-4-4-4c0,0,0,0,0,0c-0.1,0-0.2,0-0.2,0
			c-0.6,0-1.2,0.2-1.7,0.5c-1.2,0.6-2.4,1.2-3.8,1.7c-0.6,0.3-1.3,0.5-1.9,0.6c-1.2-0.9-2.5-1.8-3.9-2.4
			C72.7,246.3,70.3,245.7,67.6,245.7L67.6,245.7z"/>
	</g>
</g>
<g>
	<rect x="567.3" y="252.1" fill="none" stroke="#EF4645" stroke-width="4" stroke-miterlimit="10" width="77.5" height="54"/>
	<polyline fill="none" stroke="#EF4645" stroke-width="4" stroke-miterlimit="10" points="568.9,253.5 606.1,285 643.6,253.5 	"/>
	<line fill="none" stroke="#EF4645" stroke-width="4" stroke-miterlimit="10" x1="567.3" y1="298.9" x2="597.9" y2="278.7"/>
	<line fill="none" stroke="#EF4645" stroke-width="4" stroke-miterlimit="10" x1="644.9" y1="300.2" x2="614.3" y2="278.7"/>
</g>
<g>
	<path fill="none" stroke="#5CC19D" stroke-width="4" stroke-linejoin="round" stroke-miterlimit="10" d="M464.5,73.8
		c-22.4,0-40.5,15.4-40.5,34.4c0,9.8,4.8,18.7,12.6,25v12.1l9-6.6c5.6,2.5,12.1,4,18.9,4c22.4,0,40.5-15.4,40.5-34.4
		S486.9,73.8,464.5,73.8z"/>
	<g>
		
			<circle fill="none" stroke="#5CC19D" stroke-width="4" stroke-linejoin="round" stroke-miterlimit="10" cx="445.8" cy="109.4" r="5.6"/>
		
			<circle fill="none" stroke="#5CC19D" stroke-width="4" stroke-linejoin="round" stroke-miterlimit="10" cx="464.5" cy="109.4" r="5.6"/>
		
			<circle fill="none" stroke="#5CC19D" stroke-width="4" stroke-linejoin="round" stroke-miterlimit="10" cx="483.2" cy="109.4" r="5.6"/>
	</g>
</g>
<g>
	
		<rect x="555.2" y="157.8" fill="none" stroke="#E8EAEA" stroke-width="3" stroke-linecap="round" stroke-linejoin="round" stroke-miterlimit="10" width="11.5" height="28.1"/>
	
		<rect x="574.8" y="142.4" fill="none" stroke="#E8EAEA" stroke-width="3" stroke-linecap="round" stroke-linejoin="round" stroke-miterlimit="10" width="11.5" height="43.5"/>
	
		<rect x="594.3" y="168.4" fill="none" stroke="#E8EAEA" stroke-width="3" stroke-linecap="round" stroke-linejoin="round" stroke-miterlimit="10" width="11.5" height="17.5"/>
</g>
</svg>
