<?xml version="1.0" encoding="UTF-8" standalone="no"?>
<svg width="122px" height="134px" viewBox="0 0 122 134" version="1.1" xmlns="http://www.w3.org/2000/svg" xmlns:xlink="http://www.w3.org/1999/xlink" xmlns:sketch="http://www.bohemiancoding.com/sketch/ns">
    <!-- Generator: Sketch 3.2.2 (9983) - http://www.bohemiancoding.com/sketch -->
    <title>delight-icon</title>
    <desc>Created with Sketch.</desc>
    <defs></defs>
    <g id="Welcome" stroke="none" stroke-width="1" fill="none" fill-rule="evenodd" sketch:type="MSPage">
        <g id="Desktop-HD" sketch:type="MSArtboardGroup" transform="translate(-1034.000000, -1022.000000)">
            <g id="delight-icon" sketch:type="MSLayerGroup" transform="translate(1036.000000, 1024.000000)">
                <path d="M89.1597273,36.155034 C89.1597273,55.8867347 75.6862727,71.8811565 59.0652576,71.8811565 C42.4442424,71.8811565 28.9707879,55.8867347 28.9707879,36.155034 C28.9707879,16.4242177 42.4442424,0.428911565 59.0652576,0.428911565 C75.6862727,0.428911565 89.1597273,16.4242177 89.1597273,36.155034 L89.1597273,36.155034 Z" id="Fill-1" fill="#FFFFFF" sketch:type="MSShapeGroup"></path>
                <path d="M89.1597273,36.155034 C89.1597273,55.8867347 75.6862727,71.8811565 59.0652576,71.8811565 C42.4442424,71.8811565 28.9707879,55.8867347 28.9707879,36.155034 C28.9707879,16.4242177 42.4442424,0.428911565 59.0652576,0.428911565 C75.6862727,0.428911565 89.1597273,16.4242177 89.1597273,36.155034 L89.1597273,36.155034 Z" id="Stroke-2" stroke="#AFBAB9" stroke-width="4" sketch:type="MSShapeGroup"></path>
                <path d="M75.3054545,84.5433333 L78.1249394,91.707483 L108.620788,101.384082 C108.620788,101.384082 117.448439,103.38449 117.448439,129.81517 L0.682075758,129.81517 C0.682075758,103.533946 9.50972727,101.384082 9.50972727,101.384082 L40.0055758,91.707483 L43.0172576,84.0542857" id="Fill-3" fill="#FFFFFF" sketch:type="MSShapeGroup"></path>
                <path d="M75.3054545,84.5433333 L78.1249394,91.707483 L108.620788,101.384082 C108.620788,101.384082 117.448439,103.38449 117.448439,129.81517 L0.682075758,129.81517 C0.682075758,103.533946 9.50972727,101.384082 9.50972727,101.384082 L40.0055758,91.707483 L43.0172576,84.0542857" id="Stroke-4" stroke="#AFBAB9" stroke-width="4" sketch:type="MSShapeGroup"></path>
                <path d="M30.6549697,20.5736054 C30.6549697,20.5736054 45.1439394,31.8676871 62.9878636,23.8209524 C80.8326818,15.772449 62.7509697,38.4384354 88.3247879,23.4583673" id="Stroke-5" stroke="#AFBAB9" stroke-width="4" sketch:type="MSShapeGroup"></path>
                <path d="M78.4834091,101.566259 C78.808803,101.566259 79.1556515,101.581293 79.5257424,101.615782 C81.7793636,101.817415 84.3860909,103.715238 84.7034394,107.350816 L84.7034394,108.560612 C84.4075455,112.038776 78.8722727,116.502109 73.2011212,121.716259 C67.1554091,116.158095 61.994697,112.038776 61.6979091,108.560612 L61.6979091,107.350816 C62.0152576,103.715238 64.6219848,101.817415 66.8747121,101.615782 C67.244803,101.581293 67.5925455,101.566259 67.9179394,101.566259 C70.5210909,101.566259 71.7717121,102.832653 73.2011212,104.401497 C74.6305303,102.832653 75.8775758,101.566259 78.4834091,101.566259" id="Fill-6" fill="#FFFFFF" sketch:type="MSShapeGroup"></path>
                <path d="M78.4834091,101.566259 C78.808803,101.566259 79.1556515,101.581293 79.5257424,101.615782 C81.7793636,101.817415 84.3860909,103.715238 84.7034394,107.350816 L84.7034394,108.560612 C84.4075455,112.038776 78.8722727,116.502109 73.2011212,121.716259 C67.1554091,116.158095 61.994697,112.038776 61.6979091,108.560612 L61.6979091,107.350816 C62.0152576,103.715238 64.6219848,101.817415 66.8747121,101.615782 C67.244803,101.581293 67.5925455,101.566259 67.9179394,101.566259 C70.5210909,101.566259 71.7717121,102.832653 73.2011212,104.401497 C74.6305303,102.832653 75.8775758,101.566259 78.4834091,101.566259" id="Stroke-7" stroke="#4690DC" stroke-width="4" sketch:type="MSShapeGroup"></path>
                <path d="M59.3307576,60.8806803 C66.5564697,60.8806803 72.4975909,55.4419048 73.2011212,48.4767347 L45.4595,48.4767347 C46.1639242,55.4419048 52.1041515,60.8806803 59.3307576,60.8806803 L59.3307576,60.8806803 Z" id="Fill-8" fill="#EDEFF0" sketch:type="MSShapeGroup"></path>
                <path d="M59.3307576,60.8806803 C66.5564697,60.8806803 72.4975909,55.4419048 73.2011212,48.4767347 L45.4595,48.4767347 C46.1639242,55.4419048 52.1041515,60.8806803 59.3307576,60.8806803 L59.3307576,60.8806803 Z" id="Stroke-9" stroke="#AFBAB9" stroke-width="4" sketch:type="MSShapeGroup"></path>
            </g>
        </g>
    </g>
</svg>