<?xml version="1.0" encoding="UTF-8" standalone="no"?>
<svg width="129px" height="21px" viewBox="0 0 129 21" version="1.1" xmlns="http://www.w3.org/2000/svg" xmlns:xlink="http://www.w3.org/1999/xlink" xmlns:sketch="http://www.bohemiancoding.com/sketch/ns">
    <!-- Generator: Sketch 3.2.2 (9983) - http://www.bohemiancoding.com/sketch -->
    <title>Delta</title>
    <desc>Created with Sketch.</desc>
    <defs></defs>
    <g id="Welcome" stroke="none" stroke-width="1" fill="none" fill-rule="evenodd" sketch:type="MSPage">
        <g id="Delta" sketch:type="MSLayerGroup" transform="translate(-35.000000, -36.000000)">
            <rect id="Rectangle-86" opacity="0" fill="#EDEFF0" sketch:type="MSShapeGroup" x="0" y="0" width="199" height="95"></rect>
            <g transform="translate(35.486154, 36.338217)" fill="#71777A" sketch:type="MSShapeGroup">
                <path d="M12.6421333,12.3313312 L24.0945516,17.8465859 L12.6421333,0.199096037 L1.19131354,17.8465859 L12.6421333,12.3313312 L12.6421333,12.3313312 Z M0.283623823,19.9554472 L24.9999578,19.9554472 L12.6421333,14.7308177 L0.283623823,19.9554472 L0.283623823,19.9554472 Z" id="Fill-1"></path>
                <path d="M12.6421333,12.3313312 L12.6421333,0.199096037 L1.19131354,17.8465859 L12.6421333,12.3313312 L12.6421333,12.3313312 Z M0.283623823,19.9554472 L12.64259,19.9554472 L12.6421333,14.7308177 L0.283623823,19.9554472 L0.283623823,19.9554472 Z" id="Fill-2"></path>
                <path d="M26.0008141,16.3287999 C26.4486077,16.3287999 26.8123687,16.6941378 26.8123687,17.1430991 C26.8123687,17.5918319 26.4486077,17.9569413 26.0008141,17.9569413 C25.5521072,17.9569413 25.1878895,17.5918319 25.1878895,17.1430991 C25.1878895,16.6941378 25.5521072,16.3287999 26.0008141,16.3287999 L26.0008141,16.3287999 Z M26.0008141,17.8363044 C26.3853549,17.8363044 26.6961387,17.5276293 26.6961387,17.1430991 C26.6961387,16.7569696 26.3853549,16.4466951 26.0008141,16.4466951 C25.6155883,16.4466951 25.3061746,16.7569696 25.3061746,17.1430991 C25.3061746,17.5276293 25.6155883,17.8363044 26.0008141,17.8363044 L26.0008141,17.8363044 Z M25.8227014,17.6080539 L25.704873,17.6080539 L25.704873,16.670376 L26.0663505,16.670376 C26.2787156,16.670376 26.3613782,16.7613107 26.3613782,16.9299282 C26.3613782,17.1028868 26.2519987,17.1750861 26.1252647,17.1974771 L26.4054497,17.6080539 L26.2714084,17.6080539 L25.9912235,17.1974771 L25.8227014,17.1974771 L25.8227014,17.6080539 L25.8227014,17.6080539 Z M25.8227014,17.0923767 L25.9738689,17.0923767 C26.1028864,17.0923767 26.2430931,17.0857509 26.2430931,16.9299282 C26.2430931,16.8090628 26.1341703,16.7741055 26.0327831,16.7741055 L25.8227014,16.7741055 L25.8227014,17.0923767 L25.8227014,17.0923767 Z" id="Fill-3"></path>
                <path d="M34.6427053,17.8452151 L40.2000499,17.8452151 C45.9117588,17.8452151 49.3196485,14.8880113 49.3196485,9.97434181 C49.3196485,5.06250015 45.9117588,2.10598182 40.2000499,2.10598182 L34.6427053,2.10598182 L34.6427053,17.8452151 L34.6427053,17.8452151 Z M38.1558641,4.83950464 L40.1979948,4.83950464 C43.9054791,4.83950464 45.7580795,6.66779364 45.7580795,9.97434181 C45.7580795,13.2790621 43.9054791,15.1103214 40.1979948,15.1103214 L38.1558641,15.1103214 L38.1558641,4.83950464 L38.1558641,4.83950464 Z" id="Fill-4"></path>
                <path d="M61.2550261,11.0226035 L67.9353941,11.0226035 L67.9353941,8.28953762 L61.2550261,8.28953762 L61.2550261,4.83950464 L68.8065479,4.83950464 L68.8065479,2.10598182 L57.7402689,2.10598182 L57.7402689,17.8452151 L69.0531655,17.8452151 L69.0531655,15.1103214 L61.2550261,15.1103214 L61.2550261,11.0226035" id="Fill-5"></path>
                <path d="M89.0702927,15.1103214 L82.296073,15.1103214 L82.296073,2.10598182 L78.7694416,2.10598182 L78.7694416,17.8452151 L89.0702927,17.8452151 L89.0702927,15.1103214" id="Fill-6"></path>
                <path d="M108.045917,2.10598182 L93.9263756,2.10598182 L93.9263756,4.83950464 L99.2192914,4.83950464 L99.2192914,17.8452151 L102.751632,17.8452151 L102.751632,4.83950464 L108.045917,4.83950464 L108.045917,2.10598182" id="Fill-7"></path>
                <path d="M128.464255,17.8452151 L124.784172,17.8452151 L123.243269,13.9023529 L116.842858,13.9023529 L115.306293,17.8452151 L111.869175,17.8452151 L118.446557,2.03949443 L118.446557,2.03880899 L121.995567,2.03880899 L128.464255,17.8452151 L128.464255,17.8452151 Z M122.244468,11.2702747 L120.047516,5.68350609 L117.843029,11.2702747 L122.244468,11.2702747 L122.244468,11.2702747 Z" id="Fill-8"></path>
            </g>
        </g>
    </g>
</svg>