<?xml version="1.0" encoding="UTF-8" standalone="no"?>
<svg width="111px" height="30px" viewBox="0 0 111 30" version="1.1" xmlns="http://www.w3.org/2000/svg" xmlns:xlink="http://www.w3.org/1999/xlink" xmlns:sketch="http://www.bohemiancoding.com/sketch/ns">
    <!-- Generator: Sketch 3.2.2 (9983) - http://www.bohemiancoding.com/sketch -->
    <title>Dropbox</title>
    <desc>Created with Sketch.</desc>
    <defs></defs>
    <g id="Welcome" stroke="none" stroke-width="1" fill="none" fill-rule="evenodd" sketch:type="MSPage">
        <g id="Dropbox" sketch:type="MSLayerGroup" transform="translate(-44.000000, -33.000000)">
            <rect id="Rectangle-84" opacity="0" fill="#EDEFF0" sketch:type="MSShapeGroup" x="0" y="0.0785103176" width="199" height="95"></rect>
            <g transform="translate(44.000000, 33.078510)" fill="#71777A" sketch:type="MSShapeGroup">
                <path d="M9.75888771,0.173858038 L0.536190982,6.19870377 L6.91307287,11.3083209 L16.2120326,5.5630416 L9.75888771,0.173858038" id="Fill-36"></path>
                <path d="M0.536190982,16.4179381 L9.75888771,22.4430069 L16.2120326,17.0533771 L6.91307287,11.3083209 L0.536190982,16.4179381" id="Fill-37"></path>
                <path d="M16.2120326,17.0533771 L22.6656235,22.4430069 L31.8880972,16.4179381 L25.5109924,11.3083209 L16.2120326,17.0533771" id="Fill-38"></path>
                <path d="M31.8880972,6.19870377 L22.6656235,0.173858038 L16.2120326,5.5630416 L25.5109924,11.3083209 L31.8880972,6.19870377" id="Fill-39"></path>
                <path d="M16.2309869,18.2129195 L9.75888771,23.5864848 L6.9893359,21.777447 L6.9893359,23.8055864 L16.2309869,29.3509523 L25.4728609,23.8055864 L25.4728609,21.777447 L22.703532,23.5864848 L16.2309869,18.2129195" id="Fill-40"></path>
                <path d="M39.8254722,22.1156933 L44.0890656,22.1156933 C45.3317961,22.1156933 47.0860686,22.1156933 48.5241394,20.9963121 C50.2786348,19.6582756 51.1801886,16.9331167 51.1801886,13.8911308 C51.1801886,5.91043577 46.1359027,5.88589283 43.6506648,5.88589283 L39.8254722,5.88589283 L39.8254722,22.1156933 L39.8254722,22.1156933 Z M43.3830752,8.68468055 L43.9916184,8.68468055 C45.4294663,8.68468055 47.4033852,8.85491931 47.4033852,13.8427142 C47.4033852,19.1471131 45.4053832,19.3177981 43.9916184,19.3177981 L43.3830752,19.3177981 L43.3830752,8.68468055 L43.3830752,8.68468055 Z" id="Fill-41"></path>
                <path d="M52.4050798,10.1199963 L52.4050798,22.1156933 L55.7428134,22.1156933 L55.7428134,16.9331167 C55.7428134,16.0082941 55.7428134,13.2347187 58.2032993,13.2347187 C58.3254985,13.2347187 58.4715578,13.2347187 58.7632304,13.2831352 L58.7632304,10.0227171 C58.593311,9.97407741 58.4233917,9.94931135 58.1787702,9.94931135 C56.2300493,9.94931135 55.6451432,11.9935152 55.3528016,13.0156171 L55.3528016,10.1199963 L52.4050798,10.1199963" id="Fill-42"></path>
                <path d="M64.1152443,9.85203206 C60.5337812,9.85203206 59.2183556,12.3585357 59.2183556,16.1057965 C59.2183556,19.9746564 60.6307824,22.3588916 64.0911613,22.3588916 C67.5999292,22.3588916 68.9887189,19.9503366 68.9887189,16.1057965 C68.9887189,12.3585357 67.6732933,9.85203206 64.1152443,9.85203206 L64.1152443,9.85203206 Z M64.1152443,12.1882969 C65.1392203,12.1882969 65.5285631,13.0156171 65.5285631,16.1057965 C65.5285631,19.3177981 65.0901622,20.0235192 64.1152443,20.0235192 C63.1164663,20.0235192 62.6780655,19.2932551 62.6780655,16.1057965 C62.6780655,13.1617592 63.0190191,12.1882969 64.0911613,12.1882969 L64.1152443,12.1882969 L64.1152443,12.1882969 Z" id="Fill-43"></path>
                <path d="M69.9788003,10.1199963 L69.9788003,26.1795581 L73.2683678,26.1795581 L73.2683678,21.2404028 C73.6336275,21.6292969 74.2428397,22.2859321 75.5587113,22.2859321 C79.3839039,22.2859321 79.6278563,17.6627114 79.6278563,15.9598776 C79.6278563,13.9404398 79.2382906,12.0664747 78.0682553,10.8743571 C77.4840181,10.2902351 76.5822413,9.94931135 75.7781347,9.94931135 C74.1456155,9.94931135 73.4875682,11.141652 73.0732504,11.9203326 L73.0732504,10.1199963 L69.9788003,10.1199963 L69.9788003,10.1199963 Z M73.2683678,14.9377756 C73.2683678,13.8674803 73.2683678,12.1642002 74.7786878,12.1642002 C76.0702533,12.1642002 76.1674775,13.8427142 76.1674775,15.9598776 C76.1674775,18.4904779 76.0463932,19.9746564 74.6812406,19.9746564 C73.2683678,19.9746564 73.2683678,18.9525545 73.2683678,17.2249546 L73.2683678,14.9377756 L73.2683678,14.9377756 Z" id="Fill-44"></path>
                <path d="M80.6217285,5.88589283 L80.6217285,22.1156933 L82.5956474,22.1156933 C82.8634599,21.2642764 82.9856592,21.0210782 83.2293886,20.5583322 C83.5210612,21.166774 84.0821073,22.3588916 86.0074141,22.3588916 C86.6407094,22.3588916 87.2985337,22.2375156 87.956358,21.8968149 C90.1494773,20.753337 90.2957596,17.1519951 90.2957596,16.0326139 C90.2957596,13.1374394 89.3698998,9.94931135 86.42084,9.94931135 C84.9836611,9.94931135 84.3262828,10.7284382 83.911073,11.2396007 L83.911073,5.88589283 L80.6217285,5.88589283 L80.6217285,5.88589283 Z M83.911073,14.3540999 C83.911073,13.7456581 83.911073,13.1374394 84.3017538,12.6746934 C84.5452602,12.3585357 84.934826,12.1642002 85.3734499,12.1642002 C86.3238388,12.1642002 86.8353808,12.9672006 86.8353808,16.1301163 C86.8353808,19.2205188 86.3731198,20.0473928 85.3246148,20.0473928 C83.911073,20.0473928 83.911073,18.4904779 83.911073,17.1274522 L83.911073,14.3540999 L83.911073,14.3540999 Z" id="Fill-45"></path>
                <path d="M96.0319875,9.85203206 C92.4496325,9.85203206 91.1337609,12.3585357 91.1337609,16.1057965 C91.1337609,19.9746564 92.5475256,22.3588916 96.0072355,22.3588916 C99.5160034,22.3588916 100.904793,19.9503366 100.904793,16.1057965 C100.904793,12.3585357 99.5886986,9.85203206 96.0319875,9.85203206 L96.0319875,9.85203206 Z M96.0319875,12.1882969 C97.0544026,12.1882969 97.4448603,13.0156171 97.4448603,16.1057965 C97.4448603,19.3177981 97.0064595,20.0235192 96.0319875,20.0235192 C95.0325406,20.0235192 94.5932477,19.2932551 94.5932477,16.1057965 C94.5932477,13.1617592 94.9348704,12.1882969 96.0072355,12.1882969 L96.0319875,12.1882969 L96.0319875,12.1882969 Z" id="Fill-46"></path>
                <path d="M100.775012,10.1199963 L103.870131,15.9841974 L100.312751,22.1156933 L103.211638,22.1156933 L105.234169,18.5150208 L106.988442,22.1156933 L110.618963,22.1156933 L107.037054,15.4000754 L110.131281,10.1199963 L107.232617,10.1199963 L105.697099,12.8935718 L104.405979,10.1199963 L100.775012,10.1199963" id="Fill-47"></path>
            </g>
        </g>
    </g>
</svg>