<?xml version="1.0" encoding="UTF-8" standalone="no"?>
<svg width="175px" height="134px" viewBox="0 0 175 134" version="1.1" xmlns="http://www.w3.org/2000/svg" xmlns:xlink="http://www.w3.org/1999/xlink" xmlns:sketch="http://www.bohemiancoding.com/sketch/ns">
    <!-- Generator: Sketch 3.2.2 (9983) - http://www.bohemiancoding.com/sketch -->
    <title>fastest-icon</title>
    <desc>Created with Sketch.</desc>
    <defs></defs>
    <g id="Welcome" stroke="none" stroke-width="1" fill="none" fill-rule="evenodd" sketch:type="MSPage">
        <g id="Desktop-HD" sketch:type="MSArtboardGroup" transform="translate(-619.000000, -1022.000000)">
            <g id="fastest-icon" sketch:type="MSLayerGroup" transform="translate(621.000000, 1024.000000)">
                <path d="M170.140892,16.1313869 L170.140892,129.56153 L0.95,129.56153 L0.95,16.1313869" id="Fill-1" fill="#FFFFFF" sketch:type="MSShapeGroup"></path>
                <path d="M170.05,16.3346613 L170.05,129.764804 L0.859107619,129.764804 L0.859107619,16.3346613" id="Stroke-2" stroke="#AFBAB9" stroke-width="4" sketch:type="MSShapeGroup"></path>
                <path d="M170.05,16.3346613 L0.859107619,16.3346613 L0.859107619,6.52030657 C0.859107619,3.38770511 3.21412811,0.848264234 6.11923241,0.848264234 L164.789875,0.848264234 C167.69498,0.848264234 170.05,3.38770511 170.05,6.52030657 L170.05,16.3346613 L170.05,16.3346613 Z" id="Fill-3" fill="#EDEFF0" sketch:type="MSShapeGroup"></path>
                <path d="M170.05,16.3346613 L0.859107619,16.3346613 L0.859107619,6.52030657 C0.859107619,3.38770511 3.21412811,0.848264234 6.11923241,0.848264234 L164.789875,0.848264234 C167.69498,0.848264234 170.05,3.38770511 170.05,6.52030657 L170.05,16.3346613 L170.05,16.3346613 Z" id="Stroke-4" stroke="#AFBAB9" stroke-width="4" sketch:type="MSShapeGroup"></path>
                <path d="M11.0552179,8.59146277 C11.0552179,10.1756029 9.77279476,11.4582569 8.18914929,11.4582569 C6.606395,11.4582569 5.32308071,10.1756029 5.32308071,8.59146277 C5.32308071,7.0082146 6.606395,5.72466861 8.18914929,5.72466861 C9.77279476,5.72466861 11.0552179,7.0082146 11.0552179,8.59146277" id="Fill-5" fill="#AFBAB9" sketch:type="MSShapeGroup"></path>
                <path d="M20.3512257,8.59146277 C20.3512257,10.1756029 19.0679114,11.4582569 17.4851571,11.4582569 C15.9024029,11.4582569 14.6190886,10.1756029 14.6190886,8.59146277 C14.6190886,7.0082146 15.9024029,5.72466861 17.4851571,5.72466861 C19.0679114,5.72466861 20.3512257,7.0082146 20.3512257,8.59146277" id="Fill-6" fill="#AFBAB9" sketch:type="MSShapeGroup"></path>
                <path d="M29.6472336,8.59146277 C29.6472336,10.1756029 28.3639193,11.4582569 26.7802738,11.4582569 C25.1975195,11.4582569 23.9142052,10.1756029 23.9142052,8.59146277 C23.9142052,7.0082146 25.1975195,5.72466861 26.7802738,5.72466861 C28.3639193,5.72466861 29.6472336,7.0082146 29.6472336,8.59146277" id="Fill-7" fill="#AFBAB9" sketch:type="MSShapeGroup"></path>
                <g id="Group" transform="translate(29.450000, 36.058394)" fill="#4690DC" sketch:type="MSShapeGroup">
                    <path d="M61.0379524,0.577522628 C45.8030512,0.577522628 32.6294736,8.28415036 26.5078862,19.3945387 L21.1856967,19.3945387 C20.1278536,19.3945387 19.2705283,20.2517226 19.2705283,21.3113839 C19.2705283,22.3692613 20.1278536,23.2282292 21.1856967,23.2282292 L24.7353083,23.2282292 C24.7326348,23.2362569 24.72907,23.2451766 24.7255052,23.2540964 L28.8552819,23.2540964 C33.7336586,12.2605562 46.3172681,4.41121314 61.0379524,4.41121314 C79.9784236,4.41121314 95.3879981,17.4027679 95.3879981,33.3708292 C95.3879981,49.3406745 79.9784236,62.3313372 61.0379524,62.3313372 C55.4136493,62.3313372 49.8276674,61.1530438 44.8824514,58.9249007 L43.8593648,58.4628599 L37.9819636,62.8228131 L37.9819636,54.8361066 L37.2707936,54.2607854 C36.711126,53.8067723 36.1790852,53.3358117 35.6604124,52.8577153 L32.1678369,52.8577153 C31.4513198,52.8577153 31.0823669,53.722035 31.5814336,54.2393781 C32.3861786,55.0733708 33.2426126,55.8788204 34.1516269,56.6512672 L34.1516269,70.434892 L44.3495195,62.8709796 C49.5210979,65.0286569 55.2648205,66.1650277 61.0379524,66.1650277 C82.0914362,66.1650277 99.2183348,51.4537533 99.2183348,33.3708292 C99.2183348,15.2896891 82.0914362,0.577522628 61.0379524,0.577522628" id="Fill-8"></path>
                    <path d="M23.2514762,28.6960102 C23.00729,30.1534905 22.8753938,31.6412978 22.8638083,33.1540803 L12.868216,33.1540803 C11.811264,33.1540803 10.9539388,34.0121562 10.9539388,35.0700336 C10.9539388,36.1279109 11.811264,36.9859869 12.868216,36.9859869 L26.9615021,36.9859869 C26.7859376,35.7960978 26.6870155,34.5919372 26.6870155,33.3708292 C26.6870155,31.9873825 26.806435,30.626235 27.0336886,29.2936307 C27.2297505,28.1367445 26.3189538,27.0877869 25.1461471,27.0877869 C24.2068324,27.0877869 23.4065433,27.7692526 23.2514762,28.6960102" id="Fill-9"></path>
                    <path d="M26.4704562,40.8196774 L26.4704562,40.8196774 C25.1309969,40.8196774 24.2077236,42.1603095 24.6755986,43.4162044 C24.8957226,44.0066891 25.1354529,44.5927139 25.3947893,45.1707109 L20.1287448,45.1707109 C19.0709017,45.1707109 18.2135764,46.0287869 18.2135764,47.0884482 C18.2135764,48.1463255 19.0709017,49.0044015 20.1287448,49.0044015 L27.4489833,49.0044015 C27.4525481,49.0115372 27.457004,49.017781 27.46146,49.0240248 L32.1464483,49.0240248 C30.4736838,46.8458321 29.164525,44.5017328 28.2501636,42.0381095 C27.9756769,41.2986657 27.2582686,40.8196774 26.4704562,40.8196774" id="Fill-10"></path>
                    <path d="M44.2960481,41.3628876 C48.1032138,41.3628876 51.2001007,38.2632891 51.2001007,34.4536818 C51.2001007,30.6431825 48.1032138,27.5435839 44.2960481,27.5435839 C40.4906648,27.5435839 37.3937779,30.6431825 37.3937779,34.4536818 C37.3937779,38.2632891 40.4906648,41.3628876 44.2960481,41.3628876 L44.2960481,41.3628876 Z M44.2960481,31.3772745 C45.9910924,31.3772745 47.369764,32.7580453 47.369764,34.4536818 C47.369764,36.1493182 45.9910924,37.5291971 44.2960481,37.5291971 C42.601895,37.5291971 41.2241145,36.1493182 41.2241145,34.4536818 C41.2241145,32.7580453 42.601895,31.3772745 44.2960481,31.3772745 L44.2960481,31.3772745 Z" id="Fill-11"></path>
                    <path d="M67.9411138,34.4536818 C67.9411138,30.6431825 64.8442269,27.5435839 61.0379524,27.5435839 C57.2316779,27.5435839 54.134791,30.6431825 54.134791,34.4536818 C54.134791,38.2632891 57.2316779,41.3628876 61.0379524,41.3628876 C64.8442269,41.3628876 67.9411138,38.2632891 67.9411138,34.4536818 L67.9411138,34.4536818 Z M57.9642364,34.4536818 C57.9642364,32.7580453 59.3437993,31.3772745 61.0379524,31.3772745 C62.7321055,31.3772745 64.1116683,32.7580453 64.1116683,34.4536818 C64.1116683,36.1493182 62.7321055,37.5291971 61.0379524,37.5291971 C59.3437993,37.5291971 57.9642364,36.1493182 57.9642364,34.4536818 L57.9642364,34.4536818 Z" id="Fill-12"></path>
                    <path d="M84.6821269,34.4536818 C84.6821269,30.6431825 81.58524,27.5435839 77.7789655,27.5435839 C73.972691,27.5435839 70.875804,30.6431825 70.875804,34.4536818 C70.875804,38.2632891 73.972691,41.3628876 77.7789655,41.3628876 C81.58524,41.3628876 84.6821269,38.2632891 84.6821269,34.4536818 L84.6821269,34.4536818 Z M74.7061407,34.4536818 C74.7061407,32.7580453 76.0848124,31.3772745 77.7789655,31.3772745 C79.4740098,31.3772745 80.8517902,32.7580453 80.8517902,34.4536818 C80.8517902,36.1493182 79.4740098,37.5291971 77.7789655,37.5291971 C76.0848124,37.5291971 74.7061407,36.1493182 74.7061407,34.4536818 L74.7061407,34.4536818 Z" id="Fill-13"></path>
                    <path d="M13.4697695,19.3945387 L9.91391952,19.3945387 C8.85607643,19.3945387 7.99875119,20.2517226 7.99875119,21.3113839 C7.99875119,22.3692613 8.85607643,23.2282292 9.91391952,23.2282292 L13.4697695,23.2282292 C14.5276126,23.2282292 15.3849379,22.3692613 15.3849379,21.3113839 C15.3849379,20.2517226 14.5276126,19.3945387 13.4697695,19.3945387" id="Fill-14"></path>
                    <path d="M10.2819812,49.0044015 L12.8388067,49.0044015 C13.8966498,49.0044015 14.753975,48.1463255 14.753975,47.0884482 C14.753975,46.0287869 13.8966498,45.1707109 12.8388067,45.1707109 L10.2819812,45.1707109 C9.2241381,45.1707109 8.36681286,46.0287869 8.36681286,47.0884482 C8.36681286,48.1463255 9.2241381,49.0044015 10.2819812,49.0044015" id="Fill-15"></path>
                    <path d="M0.45660619,35.0700336 C0.45660619,36.1288029 1.31393143,36.9868788 2.37177452,36.9868788 L5.34835071,36.9868788 C6.40619381,36.9859869 7.26351905,36.1279109 7.26351905,35.0700336 C7.26351905,34.0121562 6.40619381,33.1540803 5.34835071,33.1540803 L2.37177452,33.1540803 C1.31393143,33.1540803 0.45660619,34.0121562 0.45660619,35.0700336" id="Fill-16"></path>
                </g>
                <path d="M44.2039388,73.045273 L58.7125198,73.045273 L58.7125198,73.044381 L44.2039388,73.044381 L44.2039388,73.045273 Z" id="Fill-17" fill="#4E83B7" sketch:type="MSShapeGroup"></path>
            </g>
        </g>
    </g>
</svg>