<?xml version="1.0" encoding="utf-8"?>
<!-- Generator: Adobe Illustrator 17.1.0, SVG Export Plug-In . SVG Version: 6.00 Build 0)  -->
<!DOCTYPE svg PUBLIC "-//W3C//DTD SVG 1.1//EN" "http://www.w3.org/Graphics/SVG/1.1/DTD/svg11.dtd">
<svg version="1.1" id="Layer_1" xmlns="http://www.w3.org/2000/svg" xmlns:xlink="http://www.w3.org/1999/xlink" x="0px" y="0px"
	 viewBox="7.5 7.5 40 40" enable-background="new 7.5 7.5 40 40" xml:space="preserve">
<g>
	<path fill="#5190CA" d="M19.029,20.378l0.017,0.036c0.021-0.012,0.041-0.025,0.062-0.036H19.029z"/>
	<path fill="#5190CA" d="M35.969,20.378h-0.081c0.023,0.012,0.042,0.025,0.063,0.036L35.969,20.378z"/>
	<g>
		<path fill="#5190CA" d="M27.498,40.728L27.498,40.728c-0.409,0-0.782-0.237-0.956-0.607l-9.523-20.257
			c-0.238-0.507-0.04-1.112,0.452-1.379l0.07-0.04c3.038-1.652,6.48-2.526,9.956-2.526c3.477,0,6.919,0.874,9.956,2.527
			c0.008,0.004,0.054,0.03,0.062,0.035c0.507,0.261,0.704,0.869,0.462,1.384L28.455,40.12
			C28.281,40.491,27.908,40.728,27.498,40.728z M19.365,19.884l8.133,17.302l8.133-17.301C30.572,17.45,24.409,17.456,19.365,19.884
			z"/>
	</g>
	<circle fill="#5190CA" cx="25.93" cy="23.732" r="2.014"/>
	<circle fill="#5190CA" cx="27.629" cy="30.152" r="1.007"/>
	<circle fill="#5190CA" cx="32.076" cy="21.551" r="1.174"/>
</g>
<circle fill="none" stroke="#5190CA" stroke-width="2" stroke-miterlimit="10" cx="27.5" cy="27.5" r="17.164"/>
</svg>
