<?xml version="1.0" encoding="utf-8"?>
<!-- Generator: Adobe Illustrator 17.1.0, SVG Export Plug-In . SVG Version: 6.00 Build 0)  -->
<!DOCTYPE svg PUBLIC "-//W3C//DTD SVG 1.1//EN" "http://www.w3.org/Graphics/SVG/1.1/DTD/svg11.dtd">
<svg version="1.1" id="Isolation_Mode" xmlns="http://www.w3.org/2000/svg" xmlns:xlink="http://www.w3.org/1999/xlink" x="0px"
	 y="0px" viewBox="7.5 7.5 40 40" enable-background="new 7.5 7.5 40 40" xml:space="preserve">
<g>
	<g>
		<g>
			<g>
				<path fill="#5190CA" d="M28.786,18.774v1.91c1.609,0.221,3.016,0.825,4.162,1.789l-1.89,2.473
					c-1.126-0.924-2.594-1.387-3.921-1.387c-1.006,0-1.448,0.402-1.448,0.965c0,1.709,7.58,0.462,7.58,5.449
					c0,2.413-1.59,4.102-4.484,4.423v1.83h-2.231v-1.83c-2.131-0.201-3.681-0.965-4.826-2.071l1.83-2.594
					c0.965,0.965,2.453,1.769,4.282,1.769c1.186,0,1.91-0.462,1.91-1.107c0-1.83-7.6-0.362-7.6-5.529
					c0-2.032,1.547-3.861,4.404-4.202v-1.89H28.786 M28.786,17.022h-2.231c-0.968,0-1.752,0.784-1.752,1.752v0.479
					c-2.688,0.844-4.404,2.964-4.404,5.614c0,1.849,0.677,3.107,1.637,3.983l-1.74,2.467c-0.498,0.707-0.406,1.671,0.215,2.271
					c1.171,1.13,2.61,1.898,4.291,2.296v0.343c0,0.968,0.784,1.752,1.752,1.752h2.231c0.968,0,1.752-0.784,1.752-1.752v-0.397
					c2.803-0.827,4.484-2.969,4.484-5.856c0-2.165-0.974-3.516-2.245-4.392l1.563-2.044c0.568-0.743,0.451-1.801-0.264-2.404
					c-1.027-0.865-2.213-1.49-3.538-1.869v-0.491C30.538,17.806,29.754,17.022,28.786,17.022L28.786,17.022z"/>
			</g>
		</g>
	</g>
	<circle fill="none" stroke="#5190CA" stroke-width="2" stroke-miterlimit="10" cx="27.5" cy="27.5" r="17.164"/>
</g>
</svg>
