<?xml version="1.0" encoding="UTF-8" standalone="no"?>
<svg width="101px" height="36px" viewBox="0 0 101 36" version="1.1" xmlns="http://www.w3.org/2000/svg" xmlns:xlink="http://www.w3.org/1999/xlink" xmlns:sketch="http://www.bohemiancoding.com/sketch/ns">
    <!-- Generator: Sketch 3.2.2 (9983) - http://www.bohemiancoding.com/sketch -->
    <title>NYU</title>
    <desc>Created with Sketch.</desc>
    <defs></defs>
    <g id="Welcome" stroke="none" stroke-width="1" fill="none" fill-rule="evenodd" sketch:type="MSPage">
        <g id="NYU" sketch:type="MSLayerGroup" transform="translate(-50.000000, -29.000000)">
            <rect id="Rectangle-87" opacity="0" fill="#EDEFF0" sketch:type="MSShapeGroup" x="0" y="0" width="199" height="95"></rect>
            <g transform="translate(50.000000, 29.000000)" fill="#71777A" sketch:type="MSShapeGroup">
                <path d="M56.3334881,19.9161126 L47.2392931,7.76434483 L43.299305,7.76434483 L43.299305,27.5003499 L47.5144976,27.5003499 L47.5144976,14.9535969 L56.918273,27.5003499 L60.5504588,27.5003499 L60.5504588,7.76434483 L56.3334881,7.76434483 L56.3334881,19.9161126" id="Fill-26"></path>
                <path d="M72.3097714,15.6871408 L67.6785123,7.76434483 L62.6843309,7.76434483 L70.1444869,19.718118 L70.1444869,27.5003499 L74.4173677,27.5003499 L74.4173677,19.6349844 L81.8757456,7.76434483 L77.0244019,7.76434483 L72.3097714,15.6871408" id="Fill-27"></path>
                <path d="M96.3562835,7.76534886 L96.3562835,19.0711215 C96.3562835,22.197669 94.7706472,23.8057225 92.1669716,23.8057225 C89.5565788,23.8057225 87.9804256,22.1444554 87.9804256,18.9293525 L87.9804256,7.76534886 L83.7071496,7.76534886 L83.7071496,19.0424062 C83.7071496,24.8501139 86.8981784,27.8101933 92.1079004,27.8101933 C97.3245371,27.8101933 100.625411,24.8774235 100.625411,18.9010389 L100.625411,7.76534886 L96.3562835,7.76534886" id="Fill-28"></path>
                <path d="M0.253013725,35.1580821 L34.4346775,35.1580821 L34.4346775,0.41384562 L0.253013725,0.41384562 L0.253013725,35.1580821 Z M21.3607843,8.08322456 C21.3748112,8.05551335 21.4101749,8.03623599 21.4328946,8.06796332 C21.6859721,8.36856972 22.6722039,10.8999286 22.1320681,12.3296665 C21.7877168,13.2443373 17.9255683,13.3612063 16.9355828,18.1859691 C16.9239266,18.227536 16.8735482,18.2391827 16.8535944,18.1899853 C15.137962,14.1208549 18.492375,11.5933113 19.3681693,10.8772376 C19.9883179,10.3639777 20.8376389,9.25111155 21.3607843,8.08322456 L21.3607843,8.08322456 Z M17.9484855,5.9257662 C17.9644881,5.87335586 17.9949127,5.85227124 18.0320544,5.9020711 C18.2973808,6.23360161 19.1038308,8.55009823 19.1038308,9.98204496 C19.1020527,10.08546 19.1265504,10.1687944 19.0297448,10.2575506 C18.3477592,10.8947077 14.1584473,13.830088 16.2524118,18.3803492 C16.2773047,18.4311531 16.2249506,18.4630813 16.1840552,18.4351692 C12.8069225,16.1907619 12.0662609,13.8090034 15.2995681,9.90031696 C15.6828392,9.44147553 17.5906999,7.33723072 17.9484855,5.9257662 L17.9484855,5.9257662 Z M10.9211889,12.5531634 C11.9615528,10.8019354 12.6385993,9.28063002 12.6605288,8.67520029 C12.6640849,8.60993838 12.7168341,8.60270937 12.7776833,8.69487927 C13.0153509,9.05954275 13.5859113,10.4015284 13.6457727,10.9322584 C13.6564411,11.0212154 13.6457727,11.1005337 13.6153481,11.145715 C12.1622762,13.3766683 11.8112078,16.41205 15.3149779,18.5361746 C15.3683198,18.5677011 15.3519221,18.6209147 15.2995681,18.6187058 C9.81345618,18.4630813 9.81483912,14.4162404 10.9211889,12.5531634 L10.9211889,12.5531634 Z M16.836604,31.0985904 C16.7194495,31.460041 16.1994651,31.3421679 16.1605453,31.0985904 L15.128479,21.472559 L18.0300788,21.472559 L16.836604,31.0985904 L16.836604,31.0985904 Z M14.1118226,19.3179119 L19.0447596,19.3179119 L19.0447596,20.777369 L14.1118226,20.777369 L14.1118226,19.3179119 Z M17.6213221,18.6058542 C17.5926755,18.6058542 17.5555338,18.5801511 17.5650168,18.5361746 C17.7754208,16.7445845 18.9866762,14.752791 21.0012206,13.8732613 C23.2563961,12.8925254 24.0683778,11.2764397 24.255667,10.8260321 C24.2843135,10.7356694 24.3467433,10.7483202 24.3431871,10.8748279 C24.3194797,13.0407201 23.8753592,18.8355762 17.6213221,18.6058542 L17.6213221,18.6058542 Z" id="Fill-35"></path>
            </g>
        </g>
    </g>
</svg>