<?xml version="1.0" encoding="utf-8"?>
<!-- Generator: Adobe Illustrator 18.1.0, SVG Export Plug-In . SVG Version: 6.00 Build 0)  -->
<!DOCTYPE svg PUBLIC "-//W3C//DTD SVG 1.1//EN" "http://www.w3.org/Graphics/SVG/1.1/DTD/svg11.dtd">
<svg version="1.1" id="Layer_1" xmlns="http://www.w3.org/2000/svg" xmlns:xlink="http://www.w3.org/1999/xlink" x="0px" y="0px"
	 viewBox="0 0 682.2 542.7" enable-background="new 0 0 682.2 542.7" xml:space="preserve">
<g>
	<path fill="#FFFFFF" stroke="#B5C0C3" stroke-width="4" stroke-miterlimit="10" d="M441.4,194.1V469c0,2.8-2.3,5-5,5H21.7
		c-2.8,0-5-2.3-5-5V194.1"/>
	<path fill="#E0E2E2" stroke="#B5C0C3" stroke-width="4" stroke-miterlimit="10" d="M441.4,194.1H16.6V154c0-3.5,2.8-6.4,6.4-6.4
		H435c3.5,0,6.4,2.8,6.4,6.4V194.1z"/>
	<g>
		<ellipse fill="#FFFFFF" stroke="#B5C0C3" stroke-width="4" stroke-miterlimit="10" cx="38.6" cy="170.9" rx="8.6" ry="8.6"/>
		<ellipse fill="#FFFFFF" stroke="#B5C0C3" stroke-width="4" stroke-miterlimit="10" cx="66.5" cy="170.9" rx="8.6" ry="8.6"/>
		<ellipse fill="#FFFFFF" stroke="#B5C0C3" stroke-width="4" stroke-miterlimit="10" cx="94.4" cy="170.9" rx="8.6" ry="8.6"/>
	</g>
</g>
<rect x="43.5" y="230.3" fill="#E0E2E2" width="320.5" height="18.4"/>
<rect x="43.5" y="269.5" fill="#E0E2E2" width="320.5" height="18.4"/>
<rect x="43.5" y="308.8" fill="#E0E2E2" width="320.5" height="18.4"/>
<g>
	<path fill="#FFFFFF" d="M457.7,523.7H307.2c-24,0-43.5-19.5-43.5-43.5v-417c0-24,19.5-43.5,43.5-43.5h150.4
		c24,0,43.5,19.5,43.5,43.5v417C501.2,504.2,481.7,523.7,457.7,523.7z"/>
	<path fill="#B5C0C3" d="M464.7,525.4H300.2c-21.1,0-38.2-17.1-38.2-38.2V56.1c0-21.1,17.1-38.2,38.2-38.2h164.5
		c21.1,0,38.2,17.1,38.2,38.2v431.1C502.9,508.3,485.7,525.4,464.7,525.4z M300.2,21.3c-19.2,0-34.9,15.6-34.9,34.9v431.1
		c0,19.2,15.6,34.9,34.9,34.9h164.5c19.2,0,34.9-15.6,34.9-34.9V56.1c0-19.2-15.6-34.9-34.9-34.9H300.2z"/>
</g>
<g>
	<circle fill="#E0E2E2" cx="382.4" cy="487.5" r="21"/>
	<path fill="#B5C0C3" d="M382.4,510.2c-12.5,0-22.6-10.2-22.6-22.6c0-12.5,10.2-22.6,22.6-22.6s22.6,10.2,22.6,22.6
		C405.1,500,394.9,510.2,382.4,510.2z M382.4,468.2c-10.6,0-19.3,8.6-19.3,19.3s8.6,19.3,19.3,19.3s19.3-8.6,19.3-19.3
		S393.1,468.2,382.4,468.2z"/>
</g>
<g>
	<rect x="277.4" y="89.5" fill="#FFFFFF" width="208.9" height="361.9"/>
	<path fill="#B5C0C3" d="M488,453H275.7V87.8H488V453z M279.1,449.6h205.6V91.1H279.1V449.6z"/>
</g>
<g>
	<path fill="#E0E2E2" d="M397.1,68.5h-29.4c-2.1,0-3.7-1.7-3.7-3.7v-0.1c0-2.1,1.7-3.7,3.7-3.7h29.4c2.1,0,3.7,1.7,3.7,3.7v0.1
		C400.8,66.8,399.2,68.5,397.1,68.5z"/>
	<path fill="#B5C0C3" d="M397.3,70.2h-29.7c-2.9,0-5.2-2.3-5.2-5.2v-0.5c0-2.9,2.3-5.2,5.2-5.2h29.7c2.9,0,5.2,2.3,5.2,5.2V65
		C402.5,67.8,400.2,70.2,397.3,70.2z M367.6,62.6c-1,0-1.9,0.8-1.9,1.9V65c0,1,0.8,1.9,1.9,1.9h29.7c1,0,1.9-0.8,1.9-1.9v-0.5
		c0-1-0.8-1.9-1.9-1.9H367.6z"/>
</g>
<g>
	<path fill="#EF3D23" d="M356.8,282.2l20.6-35.6c2.2-3.1,6.8-3.1,8.9,0l20.6,35.6c2.5,3.6-0.1,8.5-4.5,8.5h-41.2
		C356.9,290.7,354.3,285.8,356.8,282.2z"/>
</g>
<g>
	<path fill="#FFFFFF" d="M381.8,276.8c1.6,0,3,1.4,3,3c0,1.6-1.4,3-3,3c-1.6,0-3-1.4-3-3C378.9,278.2,380.2,276.8,381.8,276.8z
		 M380.6,273.4l-1.5-8.8v-3.6c0-0.3,0.3-0.6,0.6-0.6h4.4c0.3,0,0.6,0.3,0.6,0.6v3.5l-1.5,8.8c0,0.3-0.3,0.5-0.6,0.5h-1.3
		C380.9,273.9,380.6,273.7,380.6,273.4z"/>
</g>
<polygon opacity="0.4" fill="#B5C0C3" points="263.7,474 226.9,474 252.5,147.8 263.7,147.8 "/>
<g>
	<g>
		<path fill="#62A5DA" d="M641.1,236.5H429.3c-14.4,0-26.1-11.7-26.1-26.1v-75.9c0-14.4,11.7-26.1,26.1-26.1h211.8
			c14.4,0,26.1,11.7,26.1,26.1v75.9C667.2,224.8,655.5,236.5,641.1,236.5z"/>
	</g>
	<g>
		<path fill="#FFFFFF" d="M418.1,133.8c-0.1-0.3,0.1-0.6,0.4-0.6h1.5c0.2,0,0.4,0.2,0.4,0.3l2.8,10.6h0.1l3.8-10.9
			c0-0.1,0.2-0.3,0.4-0.3h0.4c0.2,0,0.3,0.1,0.4,0.3l3.8,10.9h0.1l2.7-10.6c0-0.2,0.2-0.3,0.4-0.3h1.5c0.3,0,0.5,0.2,0.4,0.6
			l-4.3,15.5c0,0.2-0.2,0.3-0.4,0.3h-0.4c-0.2,0-0.3-0.1-0.4-0.3l-4.1-11.4h-0.1l-4,11.4c0,0.1-0.2,0.3-0.4,0.3h-0.4
			c-0.2,0-0.4-0.1-0.4-0.3L418.1,133.8z"/>
		<path fill="#FFFFFF" d="M443.2,140c2.4,0,4.2,1.8,4.2,4.3c0,0.2,0,0.5,0,0.6c0,0.2-0.2,0.4-0.4,0.4h-6.3c0.1,1.2,1.2,2.5,2.6,2.5
			c0.8,0,1.6-0.4,2-0.7c0.3-0.2,0.4-0.3,0.6,0l0.6,0.9c0.2,0.2,0.2,0.4,0,0.6c-0.7,0.6-1.9,1.2-3.4,1.2c-2.8,0-4.6-2.2-4.6-4.8
			C438.6,142.2,440.5,140,443.2,140z M445.3,143.8c-0.1-1.1-1-2-2.1-2c-1.2,0-2.2,0.9-2.3,2H445.3z"/>
		<path fill="#FFFFFF" d="M450.4,133.7c0-0.2,0.2-0.4,0.4-0.4h1.3c0.2,0,0.4,0.2,0.4,0.4V149c0,0.2-0.2,0.4-0.4,0.4h-1.3
			c-0.2,0-0.4-0.2-0.4-0.4V133.7z"/>
		<path fill="#FFFFFF" d="M460.4,140c1.4,0,2.5,0.6,3.3,1.6c0.2,0.2,0.1,0.5-0.1,0.6l-0.8,0.7c-0.3,0.3-0.4,0.1-0.6-0.1
			c-0.4-0.5-1.1-0.9-1.8-0.9c-1.5,0-2.7,1.3-2.7,2.8c0,1.6,1.2,2.9,2.6,2.9c1.2,0,1.7-0.6,2.1-1.1c0.2-0.2,0.4-0.2,0.6,0l0.6,0.5
			c0.2,0.2,0.3,0.4,0.2,0.6c-0.7,1.2-2,1.9-3.6,1.9c-2.6,0-4.8-2-4.8-4.8C455.5,142.1,457.8,140,460.4,140z"/>
		<path fill="#FFFFFF" d="M470.7,140c2.6,0,4.6,2.2,4.6,4.8c0,2.6-2.1,4.9-4.6,4.9s-4.6-2.2-4.6-4.9
			C466.1,142.2,468.1,140,470.7,140z M470.7,147.6c1.4,0,2.6-1.3,2.6-2.9c0-1.5-1.2-2.8-2.6-2.8c-1.4,0-2.6,1.3-2.6,2.8
			C468.1,146.4,469.3,147.6,470.7,147.6z"/>
		<path fill="#FFFFFF" d="M478.3,140.6c0-0.2,0.2-0.4,0.4-0.4h0.6c0.2,0,0.3,0.1,0.4,0.3l0.3,0.8c0.2-0.2,1.3-1.3,3-1.3
			c1.3,0,2.3,0.5,3,1.5c0.3-0.3,1.6-1.5,3.3-1.5c2.8,0,3.8,2,3.8,4.4v4.6c0,0.2-0.2,0.4-0.4,0.4h-1.3c-0.3,0-0.4-0.2-0.4-0.4v-4.7
			c0-1.4-0.7-2.3-1.9-2.3c-1.4,0-2.2,1-2.4,1.1c0,0.2,0.1,0.6,0.1,1.1v4.8c0,0.2-0.2,0.4-0.4,0.4h-1.2c-0.3,0-0.4-0.2-0.4-0.4v-4.7
			c0-1.5-0.7-2.3-2-2.3c-1.4,0-2.2,1.1-2.3,1.4v5.6c0,0.2-0.2,0.4-0.4,0.4h-1.3c-0.2,0-0.4-0.2-0.4-0.4V140.6z"/>
		<path fill="#FFFFFF" d="M500.8,140c2.4,0,4.2,1.8,4.2,4.3c0,0.2,0,0.5,0,0.6c0,0.2-0.2,0.4-0.4,0.4h-6.3c0.1,1.2,1.2,2.5,2.6,2.5
			c0.8,0,1.6-0.4,2-0.7c0.3-0.2,0.4-0.3,0.6,0l0.6,0.9c0.2,0.2,0.2,0.4,0,0.6c-0.7,0.6-1.9,1.2-3.4,1.2c-2.8,0-4.6-2.2-4.6-4.8
			C496.1,142.2,498,140,500.8,140z M502.8,143.8c-0.1-1.1-1-2-2.1-2c-1.2,0-2.2,0.9-2.3,2H502.8z"/>
		<path fill="#FFFFFF" d="M514.7,142.1h-1c-0.3,0-0.4-0.2-0.4-0.4v-1c0-0.3,0.2-0.4,0.4-0.4h1v-2.6c0-0.2,0.2-0.4,0.4-0.4l1.3,0
			c0.2,0,0.4,0.2,0.4,0.4v2.6h2.3c0.3,0,0.4,0.2,0.4,0.4v1c0,0.2-0.2,0.4-0.4,0.4h-2.3v4.6c0,0.8,0.3,0.9,0.7,0.9
			c0.5,0,1.1-0.3,1.4-0.4c0.3-0.1,0.4,0,0.5,0.2l0.4,1c0.1,0.3,0,0.4-0.2,0.6c-0.2,0.1-1.6,0.7-2.7,0.7c-1.8,0-2.3-1.1-2.3-2.7
			V142.1z"/>
		<path fill="#FFFFFF" d="M526.4,140c2.6,0,4.6,2.2,4.6,4.8c0,2.6-2.1,4.9-4.6,4.9s-4.6-2.2-4.6-4.9
			C521.7,142.2,523.8,140,526.4,140z M526.4,147.6c1.4,0,2.6-1.3,2.6-2.9c0-1.5-1.2-2.8-2.6-2.8s-2.6,1.3-2.6,2.8
			C523.8,146.4,524.9,147.6,526.4,147.6z"/>
		<path fill="#FFFFFF" d="M540.8,142.1h-1c-0.3,0-0.4-0.2-0.4-0.4v-1c0-0.3,0.2-0.4,0.4-0.4h1v-2.6c0-0.2,0.2-0.4,0.4-0.4l1.3,0
			c0.2,0,0.4,0.2,0.4,0.4v2.6h2.3c0.3,0,0.4,0.2,0.4,0.4v1c0,0.2-0.2,0.4-0.4,0.4H543v4.6c0,0.8,0.3,0.9,0.7,0.9
			c0.5,0,1.1-0.3,1.4-0.4c0.3-0.1,0.4,0,0.5,0.2l0.4,1c0.1,0.3,0,0.4-0.2,0.6c-0.2,0.1-1.6,0.7-2.7,0.7c-1.8,0-2.3-1.1-2.3-2.7
			V142.1z"/>
		<path fill="#FFFFFF" d="M548.7,133.7c0-0.2,0.2-0.4,0.4-0.4h1.3c0.2,0,0.4,0.2,0.4,0.4v7.2c0.2-0.2,1.3-1,2.8-1
			c2.6,0,3.8,1.9,3.8,4.4v4.6c0,0.2-0.2,0.4-0.4,0.4h-1.3c-0.3,0-0.4-0.2-0.4-0.4v-4.7c0-1.5-0.8-2.3-2-2.3c-1.4,0-2.4,1.1-2.5,1.4
			v5.5c0,0.3-0.2,0.4-0.5,0.4h-1.3c-0.2,0-0.4-0.2-0.4-0.4V133.7z"/>
		<path fill="#FFFFFF" d="M565,140c2.4,0,4.2,1.8,4.2,4.3c0,0.2,0,0.5,0,0.6c0,0.2-0.2,0.4-0.4,0.4h-6.3c0.1,1.2,1.2,2.5,2.6,2.5
			c0.8,0,1.6-0.4,2-0.7c0.3-0.2,0.4-0.3,0.6,0l0.6,0.9c0.2,0.2,0.2,0.4,0,0.6c-0.7,0.6-1.9,1.2-3.4,1.2c-2.8,0-4.6-2.2-4.6-4.8
			C560.4,142.2,562.2,140,565,140z M567.1,143.8c-0.1-1.1-1-2-2.1-2c-1.2,0-2.2,0.9-2.3,2H567.1z"/>
		<path fill="#FFFFFF" d="M581.4,143.6c1,0,1.8,0.3,1.8,0.3c0-1.4-0.3-2-1.4-2c-1.1,0-2.1,0.3-2.6,0.4c-0.3,0.1-0.4-0.1-0.5-0.4
			l-0.2-0.9c-0.1-0.3,0.1-0.5,0.3-0.5c0.2-0.1,1.5-0.5,3.2-0.5c2.9,0,3.2,1.8,3.2,4.1v4.9c0,0.2-0.2,0.4-0.4,0.4h-0.6
			c-0.2,0-0.3-0.1-0.4-0.3l-0.2-0.6c-0.5,0.5-1.4,1.2-2.8,1.2c-1.7,0-3-1.2-3-3.1C577.7,144.9,579,143.6,581.4,143.6z M581.1,148
			c0.9,0,1.8-0.7,2.1-1.2v-1.5c-0.1-0.1-0.8-0.4-1.6-0.4c-1.1,0-1.9,0.6-1.9,1.5C579.7,147.3,580.2,148,581.1,148z"/>
		<path fill="#FFFFFF" d="M588.4,135.1c0-0.8,0.6-1.4,1.3-1.4c0.8,0,1.4,0.6,1.4,1.4c0,0.7-0.6,1.3-1.4,1.3
			C589,136.4,588.4,135.8,588.4,135.1z M588.7,140.6c0-0.2,0.2-0.4,0.4-0.4h1.3c0.2,0,0.4,0.2,0.4,0.4v8.3c0,0.2-0.2,0.4-0.4,0.4
			h-1.3c-0.2,0-0.4-0.2-0.4-0.4V140.6z"/>
		<path fill="#FFFFFF" d="M594.4,140.6c0-0.2,0.2-0.4,0.4-0.4h0.7c0.2,0,0.3,0.1,0.4,0.3l0.3,0.8c0.2-0.2,1-1.3,2.7-1.3
			c0.9,0,1.9,0.2,1.7,0.9l-0.6,1.1c-0.1,0.3-0.3,0.3-0.6,0.2c-0.1-0.1-0.5-0.2-0.8-0.2c-1.3,0-2,1-2.1,1.1v5.8
			c0,0.4-0.3,0.4-0.6,0.4h-1.1c-0.2,0-0.4-0.2-0.4-0.4V140.6z"/>
		<path fill="#FFFFFF" d="M605.1,155.9c0,0.3-0.2,0.4-0.5,0.4h-1.3c-0.2,0-0.4-0.2-0.4-0.4v-15.2c0-0.2,0.2-0.4,0.4-0.4h0.7
			c0.2,0,0.3,0.1,0.4,0.3l0.2,0.6c0.2-0.2,1.1-1.1,2.8-1.1c2.5,0,4.4,2.2,4.4,4.9c0,2.7-2,4.8-4.5,4.8c-1.2,0-2.1-0.5-2.3-0.6V155.9
			z M607.1,147.6c1.5,0,2.6-1.3,2.6-2.8c0-1.5-1-2.9-2.5-2.9c-1.3,0-2,1.1-2.1,1.3v3.7C605.1,147,605.9,147.6,607.1,147.6z"/>
		<path fill="#FFFFFF" d="M618.9,140c2.6,0,4.6,2.2,4.6,4.8c0,2.6-2.1,4.9-4.6,4.9s-4.6-2.2-4.6-4.9
			C614.3,142.2,616.4,140,618.9,140z M618.9,147.6c1.4,0,2.6-1.3,2.6-2.9c0-1.5-1.2-2.8-2.6-2.8c-1.4,0-2.6,1.3-2.6,2.8
			C616.3,146.4,617.5,147.6,618.9,147.6z"/>
		<path fill="#FFFFFF" d="M626.6,140.6c0-0.2,0.2-0.4,0.4-0.4h0.7c0.2,0,0.3,0.1,0.4,0.3l0.3,0.8c0.2-0.2,1-1.3,2.7-1.3
			c0.9,0,1.9,0.2,1.7,0.9l-0.6,1.1c-0.1,0.3-0.3,0.3-0.6,0.2c-0.1-0.1-0.5-0.2-0.8-0.2c-1.3,0-2,1-2.1,1.1v5.8
			c0,0.4-0.3,0.4-0.6,0.4H627c-0.2,0-0.4-0.2-0.4-0.4V140.6z"/>
		<path fill="#FFFFFF" d="M636.1,142.1h-1c-0.3,0-0.4-0.2-0.4-0.4v-1c0-0.3,0.2-0.4,0.4-0.4h1v-2.6c0-0.2,0.2-0.4,0.4-0.4l1.3,0
			c0.2,0,0.4,0.2,0.4,0.4v2.6h2.3c0.3,0,0.4,0.2,0.4,0.4v1c0,0.2-0.2,0.4-0.4,0.4h-2.3v4.6c0,0.8,0.3,0.9,0.7,0.9
			c0.5,0,1.1-0.3,1.4-0.4c0.3-0.1,0.4,0,0.5,0.2l0.4,1c0.1,0.3,0,0.4-0.2,0.6c-0.2,0.1-1.6,0.7-2.7,0.7c-1.8,0-2.3-1.1-2.3-2.7
			V142.1z"/>
		<path fill="#FFFFFF" d="M645.7,146.4c0.9,0,1.6,0.7,1.6,1.6c0,0.9-0.7,1.6-1.6,1.6c-0.9,0-1.6-0.7-1.6-1.6
			C644.2,147.1,644.9,146.4,645.7,146.4z M645.1,142.8l-0.7-6.4v-2.6c0-0.2,0.2-0.4,0.4-0.4h1.8c0.2,0,0.4,0.2,0.4,0.4v2.6l-0.7,6.5
			c0,0.2-0.2,0.4-0.4,0.4h-0.5C645.3,143.1,645.1,142.9,645.1,142.8z"/>
		<path fill="#FFFFFF" d="M422.7,169.3l-5.4-7.7c-0.2-0.3,0-0.7,0.4-0.7h1.7c0.2,0,0.3,0.1,0.4,0.2l4.2,5.9l4.2-5.9
			c0.1-0.1,0.2-0.2,0.4-0.2h1.7c0.4,0,0.6,0.4,0.4,0.7l-5.5,7.7v7.3c0,0.2-0.2,0.4-0.4,0.4h-1.5c-0.3,0-0.4-0.2-0.4-0.4V169.3z"/>
		<path fill="#FFFFFF" d="M435,167.6c2.6,0,4.6,2.2,4.6,4.8c0,2.6-2.1,4.9-4.6,4.9s-4.6-2.2-4.6-4.9
			C430.3,169.8,432.4,167.6,435,167.6z M435,175.3c1.4,0,2.6-1.3,2.6-2.9c0-1.5-1.2-2.8-2.6-2.8s-2.6,1.3-2.6,2.8
			C432.4,174,433.5,175.3,435,175.3z"/>
		<path fill="#FFFFFF" d="M442.5,168.2c0-0.2,0.2-0.4,0.4-0.4h1.3c0.2,0,0.4,0.2,0.4,0.4v4.7c0,1.5,0.7,2.3,1.9,2.3
			c1.4,0,2.2-1.1,2.3-1.5v-5.5c0-0.4,0.2-0.4,0.5-0.4h1.2c0.2,0,0.4,0.2,0.4,0.4v8.3c0,0.2-0.2,0.4-0.4,0.4h-0.6
			c-0.2,0-0.3-0.2-0.4-0.4l-0.2-0.7c-0.2,0.2-1.2,1.3-3,1.3c-2.8,0-3.7-2-3.7-4.3V168.2z"/>
		<path fill="#FFFFFF" d="M454.5,168.2c0-0.2,0.2-0.4,0.4-0.4h0.7c0.2,0,0.3,0.1,0.4,0.3l0.3,0.8c0.2-0.2,1-1.3,2.7-1.3
			c0.9,0,1.9,0.2,1.7,0.9l-0.6,1.1c-0.1,0.3-0.3,0.3-0.6,0.2c-0.1-0.1-0.5-0.2-0.8-0.2c-1.3,0-2,1-2.1,1.1v5.8
			c0,0.4-0.3,0.4-0.6,0.4H455c-0.2,0-0.4-0.2-0.4-0.4V168.2z"/>
		<path fill="#FFFFFF" d="M469.9,169.7h-1.1c-0.3,0-0.4-0.2-0.4-0.4v-1c0-0.3,0.2-0.4,0.4-0.4h1.1V165c0-2.8,1.9-4.3,4.1-4.3
			c2,0,3.2,1.2,3.2,1.2l0.2-0.6c0.1-0.2,0.2-0.4,0.5-0.4h0.6c0.2,0,0.4,0.2,0.4,0.4v15.2c0,0.2-0.2,0.4-0.4,0.4h-1.3
			c-0.2,0-0.4-0.2-0.4-0.4v-12.5c-0.1-0.1-1-1.3-2.5-1.3c-1,0-2.1,0.6-2.1,2.2v2.9h2.3c0.3,0,0.4,0.2,0.4,0.4v1
			c0,0.2-0.2,0.4-0.4,0.4h-2.3v6.9c0,0.2-0.2,0.4-0.4,0.4h-1.4c-0.2,0-0.4-0.2-0.4-0.4V169.7z"/>
		<path fill="#FFFFFF" d="M482.3,162.7c0-0.8,0.6-1.4,1.3-1.4c0.8,0,1.4,0.6,1.4,1.4c0,0.7-0.6,1.3-1.4,1.3
			C482.9,164.1,482.3,163.5,482.3,162.7z M482.6,168.2c0-0.2,0.2-0.4,0.4-0.4h1.3c0.2,0,0.4,0.2,0.4,0.4v8.3c0,0.2-0.2,0.4-0.4,0.4
			H483c-0.2,0-0.4-0.2-0.4-0.4V168.2z"/>
		<path fill="#FFFFFF" d="M489.1,173.8c0,0-0.7-0.9-0.7-2.2c0-2.1,1.6-4,4-4h4c0.3,0,0.4,0.2,0.4,0.4v0.6c0,0.2-0.1,0.4-0.3,0.4
			l-1.3,0.3c0,0,1,0.7,1,2.5c0,2-1.5,3.8-3.9,3.8c-1.2,0-1.8-0.4-2-0.4c-0.2,0-0.9,0.4-0.9,1.1c0,0.5,0.4,0.9,1.1,0.9h3.1
			c2,0,3.6,1.1,3.6,3.1c0,2-1.8,3.8-4.9,3.8c-3.2,0-4.6-1.7-4.6-3.2c0-1.4,1.1-2,1.4-2.2v-0.1c-0.5-0.1-1.7-0.8-1.7-2.3
			C487.5,174.7,489.1,173.8,489.1,173.8z M492.4,182.3c1.4,0,2.6-0.7,2.6-1.8c0-0.4-0.2-1.3-1.7-1.3c-0.7,0-1.4,0-2,0
			c-0.1,0-1.3,0.4-1.3,1.4C490,181.6,491,182.3,492.4,182.3z M494.4,171.7c0-1.2-0.8-2.1-1.9-2.1c-1.2,0-2,0.9-2,2.1
			c0,1.2,0.9,2.1,2,2.1C493.6,173.8,494.4,172.9,494.4,171.7z"/>
		<path fill="#FFFFFF" d="M499.5,161.3c0-0.2,0.2-0.4,0.4-0.4h1.3c0.2,0,0.4,0.2,0.4,0.4v7.2c0.2-0.2,1.3-1,2.8-1
			c2.6,0,3.8,1.9,3.8,4.4v4.6c0,0.2-0.2,0.4-0.4,0.4h-1.3c-0.3,0-0.4-0.2-0.4-0.4v-4.7c0-1.5-0.8-2.3-2-2.3c-1.4,0-2.4,1.1-2.5,1.4
			v5.5c0,0.3-0.2,0.4-0.5,0.4h-1.3c-0.2,0-0.4-0.2-0.4-0.4V161.3z"/>
		<path fill="#FFFFFF" d="M512.1,169.7h-1c-0.3,0-0.4-0.2-0.4-0.4v-1c0-0.3,0.2-0.4,0.4-0.4h1v-2.6c0-0.2,0.2-0.4,0.4-0.4l1.3,0
			c0.2,0,0.4,0.2,0.4,0.4v2.6h2.3c0.3,0,0.4,0.2,0.4,0.4v1c0,0.2-0.2,0.4-0.4,0.4h-2.3v4.6c0,0.8,0.3,0.9,0.7,0.9
			c0.5,0,1.1-0.3,1.4-0.4c0.3-0.1,0.4,0,0.5,0.2l0.4,1c0.1,0.3,0,0.4-0.2,0.6c-0.2,0.1-1.6,0.7-2.7,0.7c-1.8,0-2.3-1.1-2.3-2.7
			V169.7z"/>
		<path fill="#FFFFFF" d="M526.2,162.7c0-0.8,0.6-1.4,1.3-1.4c0.8,0,1.4,0.6,1.4,1.4c0,0.7-0.6,1.3-1.4,1.3
			C526.7,164.1,526.2,163.5,526.2,162.7z M526.4,168.2c0-0.2,0.2-0.4,0.4-0.4h1.3c0.2,0,0.4,0.2,0.4,0.4v8.3c0,0.2-0.2,0.4-0.4,0.4
			h-1.3c-0.2,0-0.4-0.2-0.4-0.4V168.2z"/>
		<path fill="#FFFFFF" d="M531.6,175.8l0.5-0.9c0.1-0.2,0.3-0.3,0.6-0.1c0,0,1,0.6,2.1,0.6c0.7,0,1.1-0.3,1.1-0.8
			c0-0.6-0.5-0.9-1.8-1.5c-1.4-0.6-2.6-1.5-2.6-3c0-1.2,0.9-2.5,3.2-2.5c1.3,0,2.3,0.4,2.7,0.7c0.2,0.1,0.3,0.4,0.2,0.7l-0.4,0.8
			c-0.1,0.2-0.4,0.3-0.6,0.2c0,0-1-0.5-1.9-0.5c-0.8,0-1,0.3-1,0.7c0,0.6,0.6,0.9,1.5,1.2c1.7,0.7,3.1,1.4,3.1,3.2
			c0,1.4-1.4,2.7-3.4,2.7c-1.5,0-2.6-0.6-3-0.9C531.6,176.2,531.5,176,531.6,175.8z"/>
		<path fill="#FFFFFF" d="M547.3,161.3c0-0.2,0.2-0.4,0.4-0.4h1.3c0.2,0,0.4,0.2,0.4,0.4v6.7c0.2-0.1,1-0.5,2.2-0.5
			c2.6,0,4.5,2.1,4.5,4.8c0,2.6-1.9,4.8-4.3,4.8c-1.8,0-2.9-1.3-2.9-1.3l-0.2,0.7c-0.1,0.2-0.2,0.4-0.4,0.4h-0.7
			c-0.2,0-0.4-0.2-0.4-0.4V161.3z M551.7,175.3c1.5,0,2.4-1.3,2.4-2.9c0-1.6-1.1-2.8-2.6-2.8c-1.2,0-2,0.5-2,0.5v3.8
			C549.6,174.1,550.3,175.3,551.7,175.3z"/>
		<path fill="#FFFFFF" d="M563.4,167.6c2.6,0,4.6,2.2,4.6,4.8c0,2.6-2.1,4.9-4.6,4.9s-4.6-2.2-4.6-4.9
			C558.7,169.8,560.8,167.6,563.4,167.6z M563.4,175.3c1.4,0,2.6-1.3,2.6-2.9c0-1.5-1.2-2.8-2.6-2.8c-1.4,0-2.6,1.3-2.6,2.8
			C560.8,174,561.9,175.3,563.4,175.3z"/>
		<path fill="#FFFFFF" d="M574,171.2c1,0,1.8,0.3,1.8,0.3c0-1.4-0.3-2-1.4-2c-1.1,0-2.1,0.3-2.6,0.4c-0.3,0.1-0.4-0.1-0.5-0.4
			l-0.2-0.9c-0.1-0.3,0.1-0.5,0.3-0.5c0.2-0.1,1.5-0.5,3.2-0.5c2.9,0,3.2,1.8,3.2,4.1v4.9c0,0.2-0.2,0.4-0.4,0.4h-0.6
			c-0.2,0-0.3-0.1-0.4-0.3l-0.2-0.6c-0.5,0.5-1.4,1.2-2.8,1.2c-1.7,0-3-1.2-3-3.1C570.3,172.5,571.6,171.2,574,171.2z M573.7,175.6
			c0.9,0,1.8-0.7,2.1-1.2V173c-0.1-0.1-0.8-0.4-1.6-0.4c-1.1,0-1.9,0.6-1.9,1.5C572.3,175,572.9,175.6,573.7,175.6z"/>
		<path fill="#FFFFFF" d="M581.3,168.2c0-0.2,0.2-0.4,0.4-0.4h0.7c0.2,0,0.3,0.1,0.4,0.3l0.3,0.8c0.2-0.2,1-1.3,2.7-1.3
			c0.9,0,1.9,0.2,1.7,0.9l-0.6,1.1c-0.1,0.3-0.3,0.3-0.6,0.2c-0.1-0.1-0.5-0.2-0.8-0.2c-1.3,0-2,1-2.1,1.1v5.8
			c0,0.4-0.3,0.4-0.6,0.4h-1.1c-0.2,0-0.4-0.2-0.4-0.4V168.2z"/>
		<path fill="#FFFFFF" d="M593.4,167.6c1.2,0,2,0.4,2.2,0.5v-6.7c0-0.2,0.2-0.4,0.4-0.4h1.3c0.2,0,0.4,0.2,0.4,0.4v15.2
			c0,0.2-0.2,0.4-0.4,0.4h-0.7c-0.2,0-0.3-0.2-0.4-0.4l-0.2-0.7c0,0-1.1,1.3-2.9,1.3c-2.4,0-4.3-2.2-4.3-4.8
			C588.9,169.7,590.8,167.6,593.4,167.6z M593.4,175.3c1.4,0,2.1-1.1,2.2-1.4v-3.8c0,0-0.8-0.6-2-0.6c-1.5,0-2.6,1.3-2.6,2.8
			C591,174,592,175.3,593.4,175.3z"/>
		<path fill="#FFFFFF" d="M601.2,162.7c0-0.8,0.6-1.4,1.3-1.4c0.8,0,1.4,0.6,1.4,1.4c0,0.7-0.6,1.3-1.4,1.3
			C601.7,164.1,601.2,163.5,601.2,162.7z M601.4,168.2c0-0.2,0.2-0.4,0.4-0.4h1.3c0.2,0,0.4,0.2,0.4,0.4v8.3c0,0.2-0.2,0.4-0.4,0.4
			h-1.3c-0.2,0-0.4-0.2-0.4-0.4V168.2z"/>
		<path fill="#FFFFFF" d="M607.2,168.2c0-0.2,0.2-0.4,0.4-0.4h0.7c0.2,0,0.3,0.1,0.4,0.3l0.3,0.8c0.2-0.2,1.4-1.3,3.2-1.3
			c2.8,0,3.8,2,3.8,4.4v4.6c0,0.2-0.2,0.4-0.4,0.4h-1.3c-0.3,0-0.4-0.2-0.4-0.4v-4.7c0-1.5-0.7-2.3-1.9-2.3c-1.4,0-2.4,1.1-2.6,1.4
			v5.6c0,0.3-0.1,0.4-0.5,0.4h-1.2c-0.2,0-0.4-0.2-0.4-0.4V168.2z"/>
		<path fill="#FFFFFF" d="M620.2,173.8c0,0-0.7-0.9-0.7-2.2c0-2.1,1.6-4,4-4h4c0.3,0,0.4,0.2,0.4,0.4v0.6c0,0.2-0.1,0.4-0.3,0.4
			l-1.3,0.3c0,0,1,0.7,1,2.5c0,2-1.5,3.8-3.9,3.8c-1.2,0-1.8-0.4-2-0.4c-0.2,0-0.9,0.4-0.9,1.1c0,0.5,0.4,0.9,1.1,0.9h3.1
			c2,0,3.6,1.1,3.6,3.1c0,2-1.8,3.8-4.9,3.8c-3.2,0-4.6-1.7-4.6-3.2c0-1.4,1.1-2,1.4-2.2v-0.1c-0.5-0.1-1.7-0.8-1.7-2.3
			C618.6,174.7,620.2,173.8,620.2,173.8z M623.5,182.3c1.4,0,2.6-0.7,2.6-1.8c0-0.4-0.2-1.3-1.7-1.3c-0.7,0-1.4,0-2,0
			c-0.1,0-1.3,0.4-1.3,1.4C621.1,181.6,622.1,182.3,623.5,182.3z M625.5,171.7c0-1.2-0.8-2.1-1.9-2.1c-1.2,0-2,0.9-2,2.1
			c0,1.2,0.9,2.1,2,2.1C624.7,173.8,625.5,172.9,625.5,171.7z"/>
		<path fill="#FFFFFF" d="M640,171.2c1,0,1.8,0.3,1.8,0.3c0-1.4-0.3-2-1.4-2c-1.1,0-2.1,0.3-2.6,0.4c-0.3,0.1-0.4-0.1-0.5-0.4
			l-0.2-0.9c-0.1-0.3,0.1-0.5,0.3-0.5c0.2-0.1,1.5-0.5,3.2-0.5c2.9,0,3.2,1.8,3.2,4.1v4.9c0,0.2-0.2,0.4-0.4,0.4h-0.6
			c-0.2,0-0.3-0.1-0.4-0.3l-0.2-0.6c-0.5,0.5-1.4,1.2-2.8,1.2c-1.7,0-3-1.2-3-3.1C636.4,172.5,637.7,171.2,640,171.2z M639.8,175.6
			c0.9,0,1.8-0.7,2.1-1.2V173c-0.1-0.1-0.8-0.4-1.6-0.4c-1.1,0-1.9,0.6-1.9,1.5C638.4,175,638.9,175.6,639.8,175.6z"/>
		<path fill="#FFFFFF" d="M647.8,169.7h-1c-0.3,0-0.4-0.2-0.4-0.4v-1c0-0.3,0.2-0.4,0.4-0.4h1v-2.6c0-0.2,0.2-0.4,0.4-0.4l1.3,0
			c0.2,0,0.4,0.2,0.4,0.4v2.6h2.3c0.3,0,0.4,0.2,0.4,0.4v1c0,0.2-0.2,0.4-0.4,0.4h-2.3v4.6c0,0.8,0.3,0.9,0.7,0.9
			c0.5,0,1.1-0.3,1.4-0.4c0.3-0.1,0.4,0,0.5,0.2l0.4,1c0.1,0.3,0,0.4-0.2,0.6c-0.2,0.1-1.6,0.7-2.7,0.7c-1.8,0-2.3-1.1-2.3-2.7
			V169.7z"/>
		<path fill="#FFFFFF" d="M419.6,201.5c0,0-0.7-0.9-0.7-2.2c0-2.1,1.6-4,4-4h4c0.3,0,0.4,0.2,0.4,0.4v0.6c0,0.2-0.1,0.4-0.3,0.4
			l-1.3,0.3c0,0,1,0.7,1,2.5c0,2-1.5,3.8-3.9,3.8c-1.2,0-1.8-0.4-2-0.4c-0.2,0-0.9,0.4-0.9,1.1c0,0.5,0.4,0.9,1.1,0.9h3.1
			c2,0,3.6,1.1,3.6,3.1c0,2-1.8,3.8-4.9,3.8c-3.2,0-4.6-1.7-4.6-3.2c0-1.4,1.1-2,1.4-2.2v-0.1c-0.5-0.1-1.7-0.8-1.7-2.3
			C417.9,202.3,419.6,201.5,419.6,201.5z M422.8,209.9c1.4,0,2.6-0.7,2.6-1.8c0-0.4-0.2-1.3-1.7-1.3c-0.7,0-1.4,0-2,0
			c-0.1,0-1.3,0.4-1.3,1.4C420.4,209.2,421.4,209.9,422.8,209.9z M424.8,199.3c0-1.2-0.8-2.1-1.9-2.1c-1.2,0-2,0.9-2,2.1
			c0,1.2,0.9,2.1,2,2.1C424,201.4,424.8,200.5,424.8,199.3z"/>
		<path fill="#FFFFFF" d="M432.8,198.8c1,0,1.8,0.3,1.8,0.3c0-1.4-0.3-2-1.4-2c-1.1,0-2.1,0.3-2.6,0.4c-0.3,0.1-0.4-0.1-0.5-0.4
			l-0.2-0.9c-0.1-0.3,0.1-0.5,0.3-0.5c0.2-0.1,1.5-0.5,3.2-0.5c2.9,0,3.2,1.8,3.2,4.1v4.9c0,0.2-0.2,0.4-0.4,0.4h-0.6
			c-0.2,0-0.3-0.1-0.4-0.3l-0.2-0.6c-0.5,0.5-1.4,1.2-2.8,1.2c-1.7,0-3-1.2-3-3.1C429.2,200.1,430.5,198.8,432.8,198.8z
			 M432.6,203.2c0.9,0,1.8-0.7,2.1-1.2v-1.5c-0.1-0.1-0.8-0.4-1.6-0.4c-1.1,0-1.9,0.6-1.9,1.5C431.2,202.6,431.7,203.2,432.6,203.2z
			"/>
		<path fill="#FFFFFF" d="M440.6,197.3h-1c-0.3,0-0.4-0.2-0.4-0.4v-1c0-0.3,0.2-0.4,0.4-0.4h1v-2.6c0-0.2,0.2-0.4,0.4-0.4l1.3,0
			c0.2,0,0.4,0.2,0.4,0.4v2.6h2.3c0.3,0,0.4,0.2,0.4,0.4v1c0,0.2-0.2,0.4-0.4,0.4h-2.3v4.6c0,0.8,0.3,0.9,0.7,0.9
			c0.5,0,1.1-0.3,1.4-0.4c0.3-0.1,0.4,0,0.5,0.2l0.4,1c0.1,0.3,0,0.4-0.2,0.6c-0.2,0.1-1.6,0.7-2.7,0.7c-1.8,0-2.3-1.1-2.3-2.7
			V197.3z"/>
		<path fill="#FFFFFF" d="M452.3,195.2c2.4,0,4.2,1.8,4.2,4.3c0,0.2,0,0.5,0,0.6c0,0.2-0.2,0.4-0.4,0.4h-6.3
			c0.1,1.2,1.2,2.5,2.6,2.5c0.8,0,1.6-0.4,2-0.7c0.3-0.2,0.4-0.3,0.6,0l0.6,0.9c0.2,0.2,0.2,0.4,0,0.6c-0.7,0.6-1.9,1.2-3.4,1.2
			c-2.8,0-4.6-2.2-4.6-4.8C447.6,197.4,449.5,195.2,452.3,195.2z M454.3,199c-0.1-1.1-1-2-2.1-2c-1.2,0-2.2,0.9-2.3,2H454.3z"/>
		<path fill="#FFFFFF" d="M464.9,203.6c1.7-1.9,4.1-4.9,5.8-6.9c1.2-1.3,1.7-2.4,1.7-3.4c0-1.2-0.8-2.5-2.8-2.5
			c-1.3,0-2.3,0.9-2.9,1.5c-0.2,0.2-0.4,0.2-0.6,0l-0.8-0.8c-0.1-0.1-0.2-0.4,0-0.6c0,0,1.7-2.3,4.5-2.3c3.3,0,5,2.1,5,4.5
			c0,1.8-1,3-2.2,4.5c-1.2,1.5-2.8,3.4-4.2,4.9h5.9c0.2,0,0.4,0.2,0.4,0.4v1.1c0,0.2-0.2,0.4-0.4,0.4h-8.9c-0.3,0-0.4-0.2-0.4-0.4
			V203.6z"/>
		<path fill="#FFFFFF" d="M478.2,203.9l6.2-12.9h-6.8c-0.2,0-0.4-0.2-0.4-0.4v-1.2c0-0.2,0.2-0.4,0.4-0.4h9.4c0.2,0,0.4,0.2,0.4,0.4
			v0.2l-6.8,14.4c-0.2,0.5-0.3,0.6-0.9,0.6h-1.1c-0.3,0-0.5-0.2-0.5-0.4V203.9z"/>
		<path fill="#FFFFFF" d="M499,198.8c1,0,1.8,0.3,1.8,0.3c0-1.4-0.3-2-1.4-2c-1.1,0-2.1,0.3-2.6,0.4c-0.3,0.1-0.4-0.1-0.5-0.4
			l-0.2-0.9c-0.1-0.3,0.1-0.5,0.3-0.5c0.2-0.1,1.5-0.5,3.2-0.5c2.9,0,3.2,1.8,3.2,4.1v4.9c0,0.2-0.2,0.4-0.4,0.4h-0.6
			c-0.2,0-0.3-0.1-0.4-0.3l-0.2-0.6c-0.5,0.5-1.4,1.2-2.8,1.2c-1.7,0-3-1.2-3-3.1C495.3,200.1,496.7,198.8,499,198.8z M498.7,203.2
			c0.9,0,1.8-0.7,2.1-1.2v-1.5c-0.1-0.1-0.8-0.4-1.6-0.4c-1.1,0-1.9,0.6-1.9,1.5C497.3,202.6,497.9,203.2,498.7,203.2z"/>
		<path fill="#FFFFFF" d="M506.8,197.3h-1c-0.3,0-0.4-0.2-0.4-0.4v-1c0-0.3,0.2-0.4,0.4-0.4h1v-2.6c0-0.2,0.2-0.4,0.4-0.4l1.3,0
			c0.2,0,0.4,0.2,0.4,0.4v2.6h2.3c0.3,0,0.4,0.2,0.4,0.4v1c0,0.2-0.2,0.4-0.4,0.4h-2.3v4.6c0,0.8,0.3,0.9,0.7,0.9
			c0.5,0,1.1-0.3,1.4-0.4c0.3-0.1,0.4,0,0.5,0.2l0.4,1c0.1,0.3,0,0.4-0.2,0.6c-0.2,0.1-1.6,0.7-2.7,0.7c-1.8,0-2.3-1.1-2.3-2.7
			V197.3z"/>
		<path fill="#FFFFFF" d="M522.9,192.5l-1.8,0.9c-0.2,0.1-0.4,0-0.5-0.2l-0.3-0.8c-0.1-0.2,0-0.4,0.1-0.5l3.3-3h1.1
			c0.2,0,0.4,0.2,0.4,0.4v14.8c0,0.2-0.2,0.4-0.4,0.4h-1.4c-0.3,0-0.4-0.2-0.4-0.4V192.5z"/>
		<path fill="#FFFFFF" d="M528.5,203.6c1.7-1.9,4.1-4.9,5.8-6.9c1.2-1.3,1.7-2.4,1.7-3.4c0-1.2-0.8-2.5-2.8-2.5
			c-1.3,0-2.3,0.9-2.9,1.5c-0.2,0.2-0.4,0.2-0.6,0l-0.8-0.8c-0.1-0.1-0.2-0.4,0-0.6c0,0,1.7-2.3,4.5-2.3c3.3,0,5,2.1,5,4.5
			c0,1.8-1,3-2.2,4.5c-1.2,1.5-2.8,3.4-4.2,4.9h5.9c0.2,0,0.4,0.2,0.4,0.4v1.1c0,0.2-0.2,0.4-0.4,0.4h-8.9c-0.3,0-0.4-0.2-0.4-0.4
			V203.6z"/>
		<path fill="#FFFFFF" d="M541.3,196.7c0-0.8,0.7-1.5,1.5-1.5c0.8,0,1.5,0.7,1.5,1.5c0,0.8-0.6,1.5-1.5,1.5
			C542,198.2,541.3,197.5,541.3,196.7z M542.8,201.9c0.8,0,1.5,0.7,1.5,1.5c0,0.8-0.6,1.5-1.5,1.5c-0.8,0-1.5-0.7-1.5-1.5
			C541.3,202.6,542,201.9,542.8,201.9z"/>
		<path fill="#FFFFFF" d="M547.2,202.3l0.9-0.8c0.2-0.2,0.4-0.2,0.6,0c0.1,0.2,1.4,1.4,3.1,1.4c1.5,0,2.9-0.9,2.9-2.5
			c0-1.4-1.2-2.7-3.6-2.7h-1.3c-0.3,0-0.4-0.2-0.4-0.5v-1c0-0.3,0.1-0.5,0.5-0.5h1.3c2.2,0,3.2-1.1,3.2-2.5c0-1.5-1.3-2.5-2.6-2.5
			c-1.4,0-2.2,0.8-2.7,1.3c-0.1,0.2-0.4,0.2-0.6,0l-0.9-0.8c-0.2-0.2-0.2-0.4,0-0.6c0,0,1.7-2,4.3-2c2.7,0,4.8,1.6,4.8,4.2
			c0,1.8-1.3,3.1-2.4,3.6v0.1c1.1,0.5,2.8,1.8,2.8,3.8c0,2.5-2,4.4-5.2,4.4c-2.9,0-4.2-1.4-4.7-2
			C547.1,202.7,547.1,202.4,547.2,202.3z"/>
		<path fill="#FFFFFF" d="M560.5,196.8c0-5,2.1-8.1,5.7-8.1c3.6,0,5.7,3,5.7,8.1c0,5-2.1,8.1-5.7,8.1
			C562.6,204.9,560.5,201.8,560.5,196.8z M569.6,196.8c0-3.8-1.2-5.9-3.4-5.9c-2.2,0-3.4,2.2-3.4,5.9c0,3.8,1.2,6,3.4,6
			C568.3,202.8,569.6,200.6,569.6,196.8z"/>
		<path fill="#FFFFFF" d="M576.5,201.7c0.9,0,1.6,0.7,1.6,1.6c0,0.9-0.7,1.6-1.6,1.6c-0.9,0-1.6-0.7-1.6-1.6
			C574.9,202.4,575.6,201.7,576.5,201.7z"/>
	</g>
	<path fill="#62A5DA" d="M417,214.6c0,0-2,18.1-11.1,30.3c-0.3,0.4,0.1,1.1,0.6,1c6.3-1.1,30.6-6.8,46-29.6L417,214.6z"/>
</g>
</svg>
