<?xml version="1.0" encoding="UTF-8" standalone="no"?>
<svg width="101px" height="28px" viewBox="0 0 101 28" version="1.1" xmlns="http://www.w3.org/2000/svg" xmlns:xlink="http://www.w3.org/1999/xlink" xmlns:sketch="http://www.bohemiancoding.com/sketch/ns">
    <!-- Generator: Sketch 3.2.2 (9983) - http://www.bohemiancoding.com/sketch -->
    <title>Sears</title>
    <desc>Created with Sketch.</desc>
    <defs></defs>
    <g id="Welcome" stroke="none" stroke-width="1" fill="none" fill-rule="evenodd" sketch:type="MSPage">
        <g id="Sears" sketch:type="MSLayerGroup" transform="translate(-49.000000, -33.000000)">
            <rect id="Rectangle-85" opacity="0" fill="#EDEFF0" sketch:type="MSShapeGroup" x="0" y="0" width="199" height="95"></rect>
            <g transform="translate(49.500000, 33.486277)" fill="#71777A" sketch:type="MSShapeGroup">
                <path d="M2.19082214,17.5942951 C2.48590673,22.2695845 5.97821011,24.976673 10.552779,24.976673 C13.8482871,24.976673 18.5702901,23.9921393 18.5702901,19.6118851 C18.5702901,15.3299759 14.2418776,14.690733 9.91324863,13.8045444 C5.53569148,12.9183558 1.20706252,11.7869544 1.20706252,6.61885657 C1.20706252,1.59914283 6.07671598,0.122667241 10.3559838,0.122667241 C15.7173005,0.122667241 19.7019167,2.43572568 19.7019167,8.19367722 L17.8326868,8.19367722 C17.7833257,3.61673286 14.5861069,1.74687704 10.3559838,1.74687704 C6.91282506,1.74687704 3.07607591,3.02622927 3.07607591,6.61885657 C3.07607591,10.6546865 7.40470488,11.2945792 11.4871774,12.180118 C16.5044814,13.1156958 20.43952,14.2967029 20.43952,19.6118851 C20.43952,25.0750181 14.9796973,26.6004496 10.552779,26.6004496 C4.79787176,26.6004496 0.469026297,23.4999808 0.321808747,17.5942951 L2.19082214,17.5942951" id="Fill-9"></path>
                <path d="M23.5854291,13.6078543 C23.4871397,19.5624959 26.6349973,24.976673 32.8820009,24.976673 C37.6531485,24.976673 41.0471625,22.1218503 41.9326328,17.4465609 L43.8016462,17.4465609 C42.818103,23.3522466 38.8830645,26.6004496 32.8820009,26.6004496 C25.5038037,26.6004496 21.6179098,20.7931089 21.7161992,13.8045444 C21.6179098,6.86493584 25.2578638,0.122667241 32.8820009,0.122667241 C40.8012226,0.122667241 44.3426707,6.37277731 43.9984414,13.6078543 L23.5854291,13.6078543 L23.5854291,13.6078543 Z M42.129428,11.9834279 C42.0311386,6.66824572 38.6862693,1.74687704 32.8820009,1.74687704 C27.2745277,1.74687704 23.9790196,6.9632809 23.5854291,11.9834279 L42.129428,11.9834279 L42.129428,11.9834279 Z" id="Fill-10"></path>
                <path d="M64.901818,26.009946 L63.0325881,26.009946 L63.0325881,20.9895824 L62.9342988,20.9895824 C61.7533109,23.9921393 58.3592969,26.6004496 53.5390046,26.6004496 C48.767857,26.6004496 45.0787584,24.7795497 45.0787584,19.4641509 C45.0787584,13.5584651 50.1943518,12.3278522 54.3751137,11.9834279 C62.7370705,11.3929243 63.0812998,10.8513766 63.0812998,6.71720163 C63.0812998,5.5855836 61.8026721,1.74687704 56.0475484,1.74687704 C51.5225572,1.74687704 48.5219171,4.10889139 48.2759772,8.48936225 L46.4067473,8.48936225 C46.6526872,2.92788421 50.0958459,0.122667241 56.0475484,0.122667241 C60.4746832,0.122667241 64.901818,1.50079777 64.901818,6.71720163 L64.901818,26.009946 L64.901818,26.009946 Z M63.0325881,11.6392202 C61.5567322,13.3123859 57.5231878,13.1156958 53.8836669,13.6078543 C49.4565321,14.1000128 46.9477718,15.6748335 46.9477718,19.4641509 C46.9477718,22.5156637 49.1614475,24.976673 53.5883658,24.976673 C62.0975402,24.976673 63.0325881,17.6926401 63.0325881,16.3638987 L63.0325881,11.6392202 L63.0325881,11.6392202 Z" id="Fill-11"></path>
                <path d="M70.6062816,6.3238214 L70.7539321,6.3238214 C71.7366093,3.02622927 75.8686595,0.368529887 80.4434449,0.565220004 L80.4434449,2.43572568 C78.4757091,2.18964642 75.721875,2.68180495 73.4588381,4.89673495 C71.5900412,6.81597993 70.8028603,8.39080058 70.6062816,12.180118 L70.6062816,26.009946 L68.7361857,26.009946 L68.7361857,0.71295421 L70.6062816,0.71295421 L70.6062816,6.3238214" id="Fill-12"></path>
                <path d="M81.5737726,17.5942951 C81.8692902,22.2695845 85.361377,24.976673 89.9363789,24.976673 C93.2321036,24.976673 97.9536735,23.9921393 97.9536735,19.6118851 C97.9536735,15.3299759 93.625261,14.690733 89.2968485,13.8045444 C84.9184254,12.9183558 80.5900129,11.7869544 80.5900129,6.61885657 C80.5900129,1.59914283 85.4603159,0.122667241 89.7387177,0.122667241 C95.1009005,0.122667241 99.0850837,2.43572568 99.0850837,8.19367722 L97.2162868,8.19367722 C97.1664926,3.61673286 93.9694903,1.74687704 89.7387177,1.74687704 C86.296425,1.74687704 82.4598923,3.02622927 82.4598923,6.61885657 C82.4598923,10.6546865 86.7885213,11.2945792 90.8703444,12.180118 C95.8882979,13.1156958 99.8224704,14.2967029 99.8224704,19.6118851 C99.8224704,25.0750181 94.3626477,26.6004496 89.9363789,26.6004496 C84.1810387,26.6004496 79.8526262,23.4999808 79.7049757,17.5942951 L81.5737726,17.5942951" id="Fill-13"></path>
            </g>
        </g>
    </g>
</svg>