<?xml version="1.0" encoding="utf-8"?>
<!-- Generator: Adobe Illustrator 18.1.0, SVG Export Plug-In . SVG Version: 6.00 Build 0)  -->
<!DOCTYPE svg PUBLIC "-//W3C//DTD SVG 1.1//EN" "http://www.w3.org/Graphics/SVG/1.1/DTD/svg11.dtd">
<svg version="1.1" id="Layer_1" xmlns="http://www.w3.org/2000/svg" xmlns:xlink="http://www.w3.org/1999/xlink" x="0px" y="0px"
	 viewBox="0 0 682.2 542.7" enable-background="new 0 0 682.2 542.7" xml:space="preserve">
<g>
	<path opacity="0.2" fill="#B5C0C3" d="M624.7,435.6H71.6c-4.3,0-7.8-3.5-7.8-7.8V106.9c0-4.3,3.5-7.8,7.8-7.8h553.1
		c4.3,0,7.8,3.5,7.8,7.8v320.9C632.5,432.1,629,435.6,624.7,435.6z"/>
	<g>
		<path fill="#FFFFFF" stroke="#B5C0C3" stroke-width="4" stroke-miterlimit="10" d="M611.8,102.7V409c0,3.1-2.5,5.6-5.6,5.6H55.3
			c-3.1,0-5.6-2.5-5.6-5.6V102.7"/>
		<path fill="#E0E2E2" stroke="#B5C0C3" stroke-width="4" stroke-miterlimit="10" d="M611.8,102.7H49.7V57.3c0-3.5,2.8-6.4,6.4-6.4
			h549.4c3.5,0,6.4,2.8,6.4,6.4V102.7z"/>
		<g>
			<ellipse fill="#FFFFFF" stroke="#B5C0C3" stroke-width="4" stroke-miterlimit="10" cx="74.2" cy="76.8" rx="9.6" ry="9.6"/>
			<ellipse fill="#FFFFFF" stroke="#B5C0C3" stroke-width="4" stroke-miterlimit="10" cx="105.3" cy="76.8" rx="9.6" ry="9.6"/>
			<ellipse fill="#FFFFFF" stroke="#B5C0C3" stroke-width="4" stroke-miterlimit="10" cx="136.4" cy="76.8" rx="9.6" ry="9.6"/>
		</g>
		<g>
			<path fill="#B5C2C9" d="M288.2,155.4h-89.4c-0.6,0-1.2-0.5-1.2-1.2v-10.9c0-0.6,0.5-1.2,1.2-1.2h89.4c0.6,0,1.2,0.5,1.2,1.2v10.9
				C289.4,154.8,288.9,155.4,288.2,155.4z"/>
			<path fill="#E0E2E2" d="M386,170.5H198.9c-0.6,0-1.2-0.5-1.2-1.2v-7.2c0-0.6,0.5-1.2,1.2-1.2H386c0.6,0,1.2,0.5,1.2,1.2v7.2
				C387.1,170,386.6,170.5,386,170.5z"/>
			<path fill="#E0E2E2" d="M385.7,185.6H199.1c-0.8,0-1.4-0.6-1.4-1.4v-6.7c0-0.8,0.6-1.4,1.4-1.4h186.6c0.8,0,1.4,0.6,1.4,1.4v6.7
				C387.1,185,386.5,185.6,385.7,185.6z"/>
		</g>
		<g>
			<path fill="#E0E2E2" d="M581.9,172.9h-84.7c-0.6,0-1.1-0.5-1.1-1.1v-7.3c0-0.6,0.5-1.1,1.1-1.1h84.7c0.6,0,1.1,0.5,1.1,1.1v7.3
				C583,172.4,582.5,172.9,581.9,172.9z"/>
			<path fill="#E0E2E2" d="M581.9,157.4h-84.7c-0.6,0-1.1-0.5-1.1-1.1V149c0-0.6,0.5-1.1,1.1-1.1h84.7c0.6,0,1.1,0.5,1.1,1.1v7.3
				C583,156.9,582.5,157.4,581.9,157.4z"/>
			<path fill="#E0E2E2" d="M581.8,188h-84.7c-0.6,0-1.1-0.5-1.1-1.1v-7.2c0-0.6,0.5-1.1,1.1-1.1h84.7c0.6,0,1.1,0.5,1.1,1.1v7.2
				C583,187.5,582.5,188,581.8,188z"/>
		</g>
		<g>
			<g>
				<path fill="#B5C2C9" d="M221.8,272.1h-88.4c-0.9,0-1.6-0.7-1.6-1.6v-10c0-0.9,0.7-1.6,1.6-1.6h88.4c0.9,0,1.6,0.7,1.6,1.6v10
					C223.4,271.4,222.7,272.1,221.8,272.1z"/>
				<path fill="#E0E2E2" d="M581.4,287.3h-448c-0.9,0-1.6-0.7-1.6-1.6v-6.2c0-0.9,0.7-1.6,1.6-1.6h448c0.9,0,1.6,0.7,1.6,1.6v6.2
					C583,286.6,582.3,287.3,581.4,287.3z"/>
				<path fill="#E0E2E2" d="M581.4,302.4h-448c-0.9,0-1.6-0.7-1.6-1.6v-6.2c0-0.9,0.7-1.6,1.6-1.6h448c0.9,0,1.6,0.7,1.6,1.6v6.2
					C583,301.7,582.3,302.4,581.4,302.4z"/>
			</g>
			<g>
				<circle fill="#F8B5B8" cx="94.4" cy="280.7" r="21.9"/>
				<path fill="#E31E26" d="M100.6,280.4l-14.4-13.8c-0.1-0.1-0.3-0.1-0.4,0c-0.1,0.1-0.1,0.4-0.1,0.5l7.2,12.6l-4.8,1.2
					c-0.1,0-0.2,0-0.3,0.1c0,0.1,0,0.2,0.1,0.3l14.5,13.6c0.1,0.1,0.2,0.1,0.3,0.1c0,0,0.1,0,0.1-0.1c0.1-0.1,0.2-0.2,0.1-0.4
					l-7.3-12.2l4.9-1.2c0.1,0,0.2-0.2,0.2-0.3C100.7,280.7,100.7,280.5,100.6,280.4z"/>
			</g>
		</g>
		<g>
			<g>
				<g>
					<g>
						<path fill="#62A5DA" d="M86.5,191.6l20.8-7.8l1.7-5.8c2.6,1.5,5.5,2.4,8.6,2.4c3.2,0,6.2-0.9,8.9-2.5l1.7,6l20.8,7.8
							c0,0,1.2,0.3,2.5,2.3c7.1-8,11.4-18.5,11.4-30c0-25-20.2-45.2-45.2-45.2c-25,0-45.2,20.2-45.2,45.2c0,11.5,4.3,22.1,11.5,30.1
							C85.3,191.9,86.5,191.6,86.5,191.6z M117.6,133.2c7.2,0,13.4,5.1,16.4,12.5c-5.2,3.3-6.4,3-6.5,3c-0.1-0.1-0.3-0.6-0.4-0.9
							c-0.3-0.9-0.7-2.3-2.1-2.9c-1.4-0.6-3.1-0.3-5.8,1c-8.2,4-15.4-0.5-17.3-1.9C105.1,137.6,110.9,133.2,117.6,133.2z
							 M100.7,147.1c3,2,10.9,6.1,19.9,1.7c1.8-0.9,2.6-1,2.9-1c0.2,0,0.2,0,0.2,0c0.1,0.1,0.3,0.6,0.4,0.9c0.3,0.9,0.7,2.4,2.3,2.9
							c0.4,0.1,0.8,0.2,1.3,0.2c1.7,0,4-1,7.4-3c0.5,2,0.8,4.2,0.8,6.4c0,9.7-5.2,17.9-12.4,20.8c-1.8,0.7-3.7,1.1-5.8,1.1
							c-2.2,0-4.3-0.5-6.3-1.4c-6.9-3.1-11.9-11.2-11.9-20.6C99.4,152.3,99.9,149.6,100.7,147.1z"/>
					</g>
				</g>
				<g>
					<path fill="#7FC2EB" d="M117.7,209.1c13.4,0,25.5-5.9,33.8-15.2c-1.3-2-2.5-2.3-2.5-2.3l-20.8-7.8l-1.7-6
						c-2.7,1.6-5.7,2.5-8.9,2.5c-3.1,0-6-0.9-8.6-2.4l-1.7,5.8l-20.8,7.8c0,0-1.2,0.3-2.5,2.3C92.2,203.2,104.3,209.1,117.7,209.1z"
						/>
				</g>
				<g>
					<path fill="#7FC2EB" d="M111.3,175.8c2,0.9,4.1,1.4,6.3,1.4c2,0,3.9-0.4,5.8-1.1c7.2-2.9,12.4-11.1,12.4-20.8
						c0-2.2-0.3-4.3-0.8-6.4c-3.4,2.1-5.7,3-7.4,3c-0.5,0-0.9-0.1-1.3-0.2c-1.5-0.6-2-2-2.3-2.9c-0.1-0.3-0.3-0.8-0.4-0.9
						c0,0,0,0-0.2,0c-0.3,0-1.2,0.1-2.9,1c-9,4.4-16.9,0.3-19.9-1.7c-0.8,2.5-1.3,5.3-1.3,8.1C99.4,164.7,104.4,172.7,111.3,175.8z"
						/>
				</g>
				<g>
					<path fill="#7FC2EB" d="M119.2,145.9c2.6-1.3,4.4-1.6,5.8-1c1.4,0.6,1.8,2,2.1,2.9c0.1,0.3,0.2,0.8,0.4,0.9
						c0.1,0,1.3,0.3,6.5-3c-2.9-7.4-9.2-12.5-16.4-12.5c-6.7,0-12.5,4.4-15.6,10.8C103.8,145.5,111,150,119.2,145.9z"/>
				</g>
			</g>
		</g>
		<g>
			<g>
				<path fill="#B5C2C9" d="M221.8,349.7h-88.4c-0.9,0-1.6-0.7-1.6-1.6v-10c0-0.9,0.7-1.6,1.6-1.6h88.4c0.9,0,1.6,0.7,1.6,1.6v10
					C223.4,349,222.7,349.7,221.8,349.7z"/>
				<path fill="#E0E2E2" d="M581.4,364.9h-448c-0.9,0-1.6-0.7-1.6-1.6V357c0-0.9,0.7-1.6,1.6-1.6h448c0.9,0,1.6,0.7,1.6,1.6v6.2
					C583,364.1,582.3,364.9,581.4,364.9z"/>
				<path fill="#E0E2E2" d="M581.4,380h-448c-0.9,0-1.6-0.7-1.6-1.6v-6.2c0-0.9,0.7-1.6,1.6-1.6h448c0.9,0,1.6,0.7,1.6,1.6v6.2
					C583,379.3,582.3,380,581.4,380z"/>
			</g>
			<g>
				<g>
					<g>
						<g>
							<path fill="#62A5DA" d="M79.1,372.1l10.2-3.8l0.8-2.8c1.3,0.7,2.7,1.1,4.2,1.1c1.6,0,3-0.5,4.3-1.2l0.8,2.9l10.2,3.8
								c0,0,0.6,0.1,1.2,1.1c3.5-3.9,5.6-9,5.6-14.7c0-12.2-9.9-22.1-22.1-22.1c-12.2,0-22.1,9.9-22.1,22.1c0,5.6,2.1,10.8,5.6,14.7
								C78.5,372.2,79.1,372.1,79.1,372.1z M94.3,343.6c3.5,0,6.6,2.5,8,6.1c-2.5,1.6-3.1,1.5-3.2,1.5c-0.1-0.1-0.1-0.3-0.2-0.4
								c-0.1-0.4-0.3-1.1-1-1.4c-0.7-0.3-1.5-0.1-2.8,0.5c-4,2-7.5-0.2-8.4-0.9C88.2,345.7,91,343.6,94.3,343.6z M86.1,350.3
								c1.5,1,5.3,3,9.7,0.8c0.9-0.4,1.3-0.5,1.4-0.5c0.1,0,0.1,0,0.1,0c0.1,0.1,0.1,0.3,0.2,0.5c0.1,0.5,0.4,1.2,1.1,1.4
								c0.2,0.1,0.4,0.1,0.6,0.1c0.8,0,1.9-0.5,3.6-1.5c0.2,1,0.4,2,0.4,3.1c0,4.7-2.5,8.7-6.1,10.2c-0.9,0.4-1.8,0.6-2.8,0.6
								c-1.1,0-2.1-0.2-3.1-0.7c-3.4-1.5-5.8-5.4-5.8-10.1C85.4,352.9,85.7,351.6,86.1,350.3z"/>
						</g>
					</g>
					<g>
						<path fill="#7FC2EB" d="M94.4,380.6c6.6,0,12.4-2.9,16.5-7.4c-0.6-1-1.2-1.1-1.2-1.1l-10.2-3.8l-0.8-2.9
							c-1.3,0.8-2.8,1.2-4.3,1.2c-1.5,0-2.9-0.4-4.2-1.1l-0.8,2.8l-10.2,3.8c0,0-0.6,0.1-1.2,1.1C81.9,377.7,87.8,380.6,94.4,380.6z
							"/>
					</g>
					<g>
						<path fill="#7FC2EB" d="M91.2,364.4c1,0.4,2,0.7,3.1,0.7c1,0,1.9-0.2,2.8-0.6c3.5-1.4,6.1-5.4,6.1-10.2c0-1.1-0.1-2.1-0.4-3.1
							c-1.7,1-2.8,1.5-3.6,1.5c-0.2,0-0.4,0-0.6-0.1c-0.7-0.3-1-1-1.1-1.4c0-0.2-0.1-0.4-0.2-0.5c0,0,0,0-0.1,0
							c-0.2,0-0.6,0.1-1.4,0.5c-4.4,2.2-8.2,0.1-9.7-0.8c-0.4,1.2-0.6,2.6-0.6,4C85.4,358.9,87.9,362.9,91.2,364.4z"/>
					</g>
					<g>
						<path fill="#7FC2EB" d="M95.1,349.8c1.3-0.6,2.2-0.8,2.8-0.5c0.7,0.3,0.9,1,1,1.4c0,0.1,0.1,0.4,0.2,0.4c0,0,0.6,0.1,3.2-1.5
							c-1.4-3.6-4.5-6.1-8-6.1c-3.2,0-6.1,2.1-7.6,5.3C87.6,349.6,91.1,351.7,95.1,349.8z"/>
					</g>
				</g>
			</g>
		</g>
		<rect x="51.3" y="223.4" opacity="0.5" fill="#B5C0C3" width="558.9" height="3.5"/>
	</g>
</g>
</svg>
