<?xml version="1.0" encoding="utf-8"?>
<!-- Generator: Adobe Illustrator 18.1.0, SVG Export Plug-In . SVG Version: 6.00 Build 0)  -->
<!DOCTYPE svg PUBLIC "-//W3C//DTD SVG 1.1//EN" "http://www.w3.org/Graphics/SVG/1.1/DTD/svg11.dtd">
<svg version="1.1" id="Layer_1" xmlns="http://www.w3.org/2000/svg" xmlns:xlink="http://www.w3.org/1999/xlink" x="0px" y="0px"
	 viewBox="0 0 2267.7 6519.7" enable-background="new 0 0 2267.7 6519.7" xml:space="preserve">
<g>
	<path fill="#FFFFFF" stroke="#B5C0C3" stroke-width="3" stroke-miterlimit="10" d="M1405.7,3119.7V3426c0,3.1-2.5,5.6-5.6,5.6
		H849.2c-3.1,0-5.6-2.5-5.6-5.6v-306.3"/>
	<path fill="#E0E2E2" stroke="#B5C0C3" stroke-width="3" stroke-miterlimit="10" d="M1405.7,3119.7H843.6v-45.4
		c0-3.5,2.8-6.4,6.4-6.4h549.4c3.5,0,6.4,2.8,6.4,6.4v45.4H1405.7z"/>
	<g>
		<ellipse fill="#FFFFFF" stroke="#B5C0C3" stroke-width="4" stroke-miterlimit="10" cx="868.1" cy="3093.8" rx="9.6" ry="9.6"/>
		<ellipse fill="#FFFFFF" stroke="#B5C0C3" stroke-width="4" stroke-miterlimit="10" cx="899.2" cy="3093.8" rx="9.6" ry="9.6"/>
		<ellipse fill="#FFFFFF" stroke="#B5C0C3" stroke-width="4" stroke-miterlimit="10" cx="930.3" cy="3093.8" rx="9.6" ry="9.6"/>
	</g>
	<g>
		<path fill="#B5C2C9" d="M1082.2,3172.4h-89.4c-0.6,0-1.2-0.5-1.2-1.2v-10.9c0-0.6,0.5-1.2,1.2-1.2h89.4c0.6,0,1.2,0.5,1.2,1.2
			v10.9C1083.3,3171.8,1082.8,3172.4,1082.2,3172.4z"/>
		<path fill="#E0E2E2" d="M1179.9,3187.5H992.8c-0.6,0-1.2-0.5-1.2-1.2v-7.2c0-0.6,0.5-1.2,1.2-1.2h187.1c0.6,0,1.2,0.5,1.2,1.2v7.2
			C1181.1,3187,1180.6,3187.5,1179.9,3187.5z"/>
		<path fill="#E0E2E2" d="M1179.7,3202.6H993.1c-0.8,0-1.4-0.6-1.4-1.4v-6.7c0-0.8,0.6-1.4,1.4-1.4h186.6c0.8,0,1.4,0.6,1.4,1.4v6.7
			C1181.1,3202,1180.4,3202.6,1179.7,3202.6z"/>
	</g>
	<g>
		<path fill="#E0E2E2" d="M1375.8,3189.9h-84.7c-0.6,0-1.1-0.5-1.1-1.1v-7.3c0-0.6,0.5-1.1,1.1-1.1h84.7c0.6,0,1.1,0.5,1.1,1.1v7.3
			C1376.9,3189.4,1376.4,3189.9,1375.8,3189.9z"/>
		<path fill="#E0E2E2" d="M1375.8,3174.4h-84.7c-0.6,0-1.1-0.5-1.1-1.1v-7.3c0-0.6,0.5-1.1,1.1-1.1h84.7c0.6,0,1.1,0.5,1.1,1.1v7.3
			C1376.9,3173.9,1376.4,3174.4,1375.8,3174.4z"/>
		<path fill="#E0E2E2" d="M1375.8,3205h-84.7c-0.6,0-1.1-0.5-1.1-1.1v-7.2c0-0.6,0.5-1.1,1.1-1.1h84.7c0.6,0,1.1,0.5,1.1,1.1v7.2
			C1376.9,3204.5,1376.4,3205,1375.8,3205z"/>
	</g>
	<g>
		<g>
			<path fill="#B5C2C9" d="M1015.7,3289.1h-88.4c-0.9,0-1.6-0.7-1.6-1.6v-10c0-0.9,0.7-1.6,1.6-1.6h88.4c0.9,0,1.6,0.7,1.6,1.6v10
				C1017.3,3288.4,1016.6,3289.1,1015.7,3289.1z"/>
			<path fill="#E0E2E2" d="M1375.3,3304.3h-448c-0.9,0-1.6-0.7-1.6-1.6v-6.2c0-0.9,0.7-1.6,1.6-1.6h448c0.9,0,1.6,0.7,1.6,1.6v6.2
				C1376.9,3303.6,1376.2,3304.3,1375.3,3304.3z"/>
			<path fill="#E0E2E2" d="M1375.3,3319.4h-448c-0.9,0-1.6-0.7-1.6-1.6v-6.2c0-0.9,0.7-1.6,1.6-1.6h448c0.9,0,1.6,0.7,1.6,1.6v6.2
				C1376.9,3318.7,1376.2,3319.4,1375.3,3319.4z"/>
		</g>
		<g>
			<circle fill="#F8B5B8" cx="888.3" cy="3297.7" r="21.9"/>
			<path fill="#E31E26" d="M894.5,3297.4l-14.4-13.8c-0.1-0.1-0.3-0.1-0.4,0c-0.1,0.1-0.1,0.4-0.1,0.5l7.2,12.6l-4.8,1.2
				c-0.1,0-0.2,0-0.3,0.1c0,0.1,0,0.2,0.1,0.3l14.5,13.6c0.1,0.1,0.2,0.1,0.3,0.1c0,0,0.1,0,0.1-0.1c0.1-0.1,0.2-0.2,0.1-0.4
				l-7.3-12.2l4.9-1.2c0.1,0,0.2-0.2,0.2-0.3S894.6,3297.5,894.5,3297.4z"/>
		</g>
	</g>
	<g>
		<g>
			<g>
				<g>
					<path fill="#62A5DA" d="M880.4,3208.6l20.8-7.8l1.7-5.8c2.6,1.5,5.5,2.4,8.6,2.4c3.2,0,6.2-0.9,8.9-2.5l1.7,6l20.8,7.8
						c0,0,1.2,0.3,2.5,2.3c7.1-8,11.4-18.5,11.4-30c0-25-20.2-45.2-45.2-45.2s-45.2,20.2-45.2,45.2c0,11.5,4.3,22.1,11.5,30.1
						C879.2,3208.9,880.4,3208.6,880.4,3208.6z M911.5,3150.2c7.2,0,13.4,5.1,16.4,12.5c-5.2,3.3-6.4,3-6.5,3
						c-0.1-0.1-0.3-0.6-0.4-0.9c-0.3-0.9-0.7-2.3-2.1-2.9c-1.4-0.6-3.1-0.3-5.8,1c-8.2,4-15.4-0.5-17.3-1.9
						C899,3154.6,904.8,3150.2,911.5,3150.2z M894.6,3164.1c3,2,10.9,6.1,19.9,1.7c1.8-0.9,2.6-1,2.9-1c0.2,0,0.2,0,0.2,0
						c0.1,0.1,0.3,0.6,0.4,0.9c0.3,0.9,0.7,2.4,2.3,2.9c0.4,0.1,0.8,0.2,1.3,0.2c1.7,0,4-1,7.4-3c0.5,2,0.8,4.2,0.8,6.4
						c0,9.7-5.2,17.9-12.4,20.8c-1.8,0.7-3.7,1.1-5.8,1.1c-2.2,0-4.3-0.5-6.3-1.4c-6.9-3.1-11.9-11.2-11.9-20.6
						C893.3,3169.3,893.8,3166.6,894.6,3164.1z"/>
				</g>
			</g>
			<g>
				<path fill="#7FC2EB" d="M911.7,3226.1c13.4,0,25.5-5.9,33.8-15.2c-1.3-2-2.5-2.3-2.5-2.3l-20.8-7.8l-1.7-6
					c-2.7,1.6-5.7,2.5-8.9,2.5c-3.1,0-6-0.9-8.6-2.4l-1.7,5.8l-20.8,7.8c0,0-1.2,0.3-2.5,2.3
					C886.2,3220.2,898.2,3226.1,911.7,3226.1z"/>
			</g>
			<g>
				<path fill="#7FC2EB" d="M905.2,3192.8c2,0.9,4.1,1.4,6.3,1.4c2,0,3.9-0.4,5.8-1.1c7.2-2.9,12.4-11.1,12.4-20.8
					c0-2.2-0.3-4.3-0.8-6.4c-3.4,2.1-5.7,3-7.4,3c-0.5,0-0.9-0.1-1.3-0.2c-1.5-0.6-2-2-2.3-2.9c-0.1-0.3-0.3-0.8-0.4-0.9
					c0,0,0,0-0.2,0c-0.3,0-1.2,0.1-2.9,1c-9,4.4-16.9,0.3-19.9-1.7c-0.8,2.5-1.3,5.3-1.3,8.1
					C893.3,3181.7,898.3,3189.7,905.2,3192.8z"/>
			</g>
			<g>
				<path fill="#7FC2EB" d="M913.1,3162.9c2.6-1.3,4.4-1.6,5.8-1c1.4,0.6,1.8,2,2.1,2.9c0.1,0.3,0.2,0.8,0.4,0.9
					c0.1,0,1.3,0.3,6.5-3c-2.9-7.4-9.2-12.5-16.4-12.5c-6.7,0-12.5,4.4-15.6,10.8C897.7,3162.5,904.9,3166.9,913.1,3162.9z"/>
			</g>
		</g>
	</g>
	<g>
		<g>
			<path fill="#B5C2C9" d="M1015.7,3366.7h-88.4c-0.9,0-1.6-0.7-1.6-1.6v-10c0-0.9,0.7-1.6,1.6-1.6h88.4c0.9,0,1.6,0.7,1.6,1.6v10
				C1017.3,3366,1016.6,3366.7,1015.7,3366.7z"/>
			<path fill="#E0E2E2" d="M1375.3,3381.9h-448c-0.9,0-1.6-0.7-1.6-1.6v-6.2c0-0.9,0.7-1.6,1.6-1.6h448c0.9,0,1.6,0.7,1.6,1.6v6.2
				C1376.9,3381.1,1376.2,3381.9,1375.3,3381.9z"/>
			<path fill="#E0E2E2" d="M1375.3,3397h-448c-0.9,0-1.6-0.7-1.6-1.6v-6.2c0-0.9,0.7-1.6,1.6-1.6h448c0.9,0,1.6,0.7,1.6,1.6v6.2
				C1376.9,3396.3,1376.2,3397,1375.3,3397z"/>
		</g>
		<g>
			<g>
				<g>
					<g>
						<path fill="#62A5DA" d="M873.1,3389.1l10.2-3.8l0.8-2.8c1.3,0.7,2.7,1.1,4.2,1.1c1.6,0,3-0.5,4.3-1.2l0.8,2.9l10.2,3.8
							c0,0,0.6,0.1,1.2,1.1c3.5-3.9,5.6-9,5.6-14.7c0-12.2-9.9-22.1-22.1-22.1s-22.1,9.9-22.1,22.1c0,5.6,2.1,10.8,5.6,14.7
							C872.5,3389.2,873.1,3389.1,873.1,3389.1z M888.2,3360.6c3.5,0,6.6,2.5,8,6.1c-2.5,1.6-3.1,1.5-3.2,1.5
							c-0.1-0.1-0.1-0.3-0.2-0.4c-0.1-0.4-0.3-1.1-1-1.4c-0.7-0.3-1.5-0.1-2.8,0.5c-4,2-7.5-0.2-8.4-0.9
							C882.1,3362.7,885,3360.6,888.2,3360.6z M880,3367.3c1.5,1,5.3,3,9.7,0.8c0.9-0.4,1.3-0.5,1.4-0.5c0.1,0,0.1,0,0.1,0
							c0.1,0.1,0.1,0.3,0.2,0.5c0.1,0.5,0.4,1.2,1.1,1.4c0.2,0.1,0.4,0.1,0.6,0.1c0.8,0,1.9-0.5,3.6-1.5c0.2,1,0.4,2,0.4,3.1
							c0,4.7-2.5,8.7-6.1,10.2c-0.9,0.4-1.8,0.6-2.8,0.6c-1.1,0-2.1-0.2-3.1-0.7c-3.4-1.5-5.8-5.4-5.8-10.1
							C879.4,3369.9,879.6,3368.6,880,3367.3z"/>
					</g>
				</g>
				<g>
					<path fill="#7FC2EB" d="M888.3,3397.6c6.6,0,12.4-2.9,16.5-7.4c-0.6-1-1.2-1.1-1.2-1.1l-10.2-3.8l-0.8-2.9
						c-1.3,0.8-2.8,1.2-4.3,1.2s-2.9-0.4-4.2-1.1l-0.8,2.8l-10.2,3.8c0,0-0.6,0.1-1.2,1.1C875.9,3394.7,881.8,3397.6,888.3,3397.6z"
						/>
				</g>
				<g>
					<path fill="#7FC2EB" d="M885.2,3381.4c1,0.4,2,0.7,3.1,0.7c1,0,1.9-0.2,2.8-0.6c3.5-1.4,6.1-5.4,6.1-10.2
						c0-1.1-0.1-2.1-0.4-3.1c-1.7,1-2.8,1.5-3.6,1.5c-0.2,0-0.4,0-0.6-0.1c-0.7-0.3-1-1-1.1-1.4c0-0.2-0.1-0.4-0.2-0.5
						c0,0,0,0-0.1,0c-0.2,0-0.6,0.1-1.4,0.5c-4.4,2.2-8.2,0.1-9.7-0.8c-0.4,1.2-0.6,2.6-0.6,4
						C879.4,3375.9,881.8,3379.9,885.2,3381.4z"/>
				</g>
				<g>
					<path fill="#7FC2EB" d="M889,3366.8c1.3-0.6,2.2-0.8,2.8-0.5c0.7,0.3,0.9,1,1,1.4c0,0.1,0.1,0.4,0.2,0.4c0,0,0.6,0.1,3.2-1.5
						c-1.4-3.6-4.5-6.1-8-6.1c-3.2,0-6.1,2.1-7.6,5.3C881.5,3366.6,885,3368.7,889,3366.8z"/>
				</g>
			</g>
		</g>
	</g>
	<rect x="845.2" y="3240.4" fill="#E0E2E2" width="558.9" height="3.5"/>
</g>
</svg>
