<?xml version="1.0" encoding="UTF-8" standalone="no"?>
<svg width="197px" height="141px" viewBox="0 0 197 141" version="1.1" xmlns="http://www.w3.org/2000/svg" xmlns:xlink="http://www.w3.org/1999/xlink" xmlns:sketch="http://www.bohemiancoding.com/sketch/ns">
    <!-- Generator: Sketch 3.2.2 (9983) - http://www.bohemiancoding.com/sketch -->
    <title>Imported Layers</title>
    <desc>Created with Sketch.</desc>
    <defs></defs>
    <g id="Welcome" stroke="none" stroke-width="1" fill="none" fill-rule="evenodd" sketch:type="MSPage">
        <g id="Desktop-HD" sketch:type="MSArtboardGroup" transform="translate(-619.000000, -1022.000000)">
            <g id="Imported-Layers" sketch:type="MSLayerGroup" transform="translate(621.000000, 1024.000000)">
                <path d="M192.778571,17.21422 L192.778571,136.75214 L0.90432381,136.75214 L0.90432381,17.21422" id="Fill-1" fill="#FFFFFF" sketch:type="MSShapeGroup"></path>
                <path d="M192.778571,17.21422 L192.778571,136.75214 L0.90432381,136.75214 L0.90432381,17.21422" id="Stroke-2" stroke="#AFBAB9" stroke-width="4" sketch:type="MSShapeGroup"></path>
                <path d="M192.778571,17.21422 L0.90432381,17.21422 L0.90432381,6.8714 C0.90432381,3.57012 3.57508095,0.89394 6.86967143,0.89394 L186.813224,0.89394 C190.107814,0.89394 192.778571,3.57012 192.778571,6.8714 L192.778571,17.21422 L192.778571,17.21422 Z" id="Fill-3" fill="#DFE0DC" sketch:type="MSShapeGroup"></path>
                <path d="M192.778571,17.21422 L0.90432381,17.21422 L0.90432381,6.8714 C0.90432381,3.57012 3.57508095,0.89394 6.86967143,0.89394 L186.813224,0.89394 C190.107814,0.89394 192.778571,3.57012 192.778571,6.8714 L192.778571,17.21422 L192.778571,17.21422 Z" id="Stroke-4" stroke="#AFBAB9" stroke-width="4" sketch:type="MSShapeGroup"></path>
                <path d="M11.6370714,9.05408 C11.6370714,10.72352 10.2871524,12.07524 8.62015714,12.07524 C6.9541,12.07524 5.60324286,10.72352 5.60324286,9.05408 C5.60324286,7.38558 6.9541,6.03292 8.62015714,6.03292 C10.2871524,6.03292 11.6370714,7.38558 11.6370714,9.05408" id="Fill-5" fill="#AFBAB9" sketch:type="MSShapeGroup"></path>
                <path d="M21.4223429,9.05408 C21.4223429,10.72352 20.0714857,12.07524 18.4054286,12.07524 C16.7393714,12.07524 15.3885143,10.72352 15.3885143,9.05408 C15.3885143,7.38558 16.7393714,6.03292 18.4054286,6.03292 C20.0714857,6.03292 21.4223429,7.38558 21.4223429,9.05408" id="Fill-6" fill="#AFBAB9" sketch:type="MSShapeGroup"></path>
                <path d="M31.2076143,9.05408 C31.2076143,10.72352 29.8567571,12.07524 28.1897619,12.07524 C26.5237048,12.07524 25.1728476,10.72352 25.1728476,9.05408 C25.1728476,7.38558 26.5237048,6.03292 28.1897619,6.03292 C29.8567571,6.03292 31.2076143,7.38558 31.2076143,9.05408" id="Fill-7" fill="#AFBAB9" sketch:type="MSShapeGroup"></path>
                <path d="M99.2504762,38.60862 C83.2137381,38.60862 69.3468143,46.73022 62.9030381,58.43886 L57.3007333,58.43886 C56.1872143,58.43886 55.2847667,59.3422 55.2847667,60.45892 C55.2847667,61.57376 56.1872143,62.47898 57.3007333,62.47898 L61.0371667,62.47898 C61.0343524,62.48744 61.0306,62.49684 61.0268476,62.50624 L65.373981,62.50624 C70.5091143,50.92074 83.755019,42.64874 99.2504762,42.64874 C119.187814,42.64874 135.408419,56.33984 135.408419,73.16772 C135.408419,89.99748 119.187814,103.68764 99.2504762,103.68764 C93.3301571,103.68764 87.4501762,102.4459 82.2446857,100.09778 L81.1677524,99.61086 L74.9810143,104.20558 L74.9810143,95.78882 L74.2324143,95.18252 C73.6432905,94.70406 73.0832476,94.20774 72.5372762,93.7039 L68.860881,93.7039 C68.1066524,93.7039 67.718281,94.61476 68.2436143,95.15996 C69.0907143,96.03886 69.9922238,96.88768 70.949081,97.70172 L70.949081,112.22754 L81.6837048,104.25634 C87.1274714,106.5302 93.1734952,107.72776 99.2504762,107.72776 C121.412038,107.72776 139.440352,92.22434 139.440352,73.16772 C139.440352,54.11298 121.412038,38.60862 99.2504762,38.60862" id="Fill-8" fill="#4E83B7" sketch:type="MSShapeGroup"></path>
                <path d="M59.4752381,68.24118 C59.2182,69.77714 59.0793619,71.34506 59.0671667,72.9393 L48.5454905,72.9393 C47.4329095,72.9393 46.5304619,73.84358 46.5304619,74.95842 C46.5304619,76.07326 47.4329095,76.97754 48.5454905,76.97754 L63.3805286,76.97754 C63.1957238,75.72358 63.0915952,74.45458 63.0915952,73.16772 C63.0915952,71.70978 63.2173,70.27534 63.4565143,68.87098 C63.6628952,67.6518 62.7041619,66.54636 61.4696286,66.54636 C60.4808762,66.54636 59.6384667,67.26452 59.4752381,68.24118" id="Fill-9" fill="#4E83B7" sketch:type="MSShapeGroup"></path>
                <path d="M62.8636381,81.01766 L62.8636381,81.01766 C61.453681,81.01766 60.4818143,82.43048 60.9743143,83.754 C61.2060238,84.37628 61.4583714,84.99386 61.7313571,85.60298 L56.1881524,85.60298 C55.0746333,85.60298 54.1721857,86.50726 54.1721857,87.62398 C54.1721857,88.73882 55.0746333,89.6431 56.1881524,89.6431 L63.8936667,89.6431 C63.897419,89.65062 63.9021095,89.6572 63.9068,89.66378 L68.8383667,89.66378 C67.0775619,87.3683 65.6995,84.89798 64.7370143,82.3017 C64.448081,81.52244 63.6929143,81.01766 62.8636381,81.01766" id="Fill-10" fill="#4E83B7" sketch:type="MSShapeGroup"></path>
                <path d="M81.627419,81.59012 C85.6349619,81.59012 88.8948429,78.32362 88.8948429,74.30888 C88.8948429,70.2932 85.6349619,67.0267 81.627419,67.0267 C77.6217524,67.0267 74.3618714,70.2932 74.3618714,74.30888 C74.3618714,78.32362 77.6217524,81.59012 81.627419,81.59012 L81.627419,81.59012 Z M81.627419,71.06682 C83.4116762,71.06682 84.8629095,72.52194 84.8629095,74.30888 C84.8629095,76.09582 83.4116762,77.55 81.627419,77.55 C79.8441,77.55 78.3938048,76.09582 78.3938048,74.30888 C78.3938048,72.52194 79.8441,71.06682 81.627419,71.06682 L81.627419,71.06682 Z" id="Fill-11" fill="#4E83B7" sketch:type="MSShapeGroup"></path>
                <path d="M106.516962,74.30888 C106.516962,70.2932 103.257081,67.0267 99.2504762,67.0267 C95.2438714,67.0267 91.9839905,70.2932 91.9839905,74.30888 C91.9839905,78.32362 95.2438714,81.59012 99.2504762,81.59012 C103.257081,81.59012 106.516962,78.32362 106.516962,74.30888 L106.516962,74.30888 Z M96.0149857,74.30888 C96.0149857,72.52194 97.4671571,71.06682 99.2504762,71.06682 C101.033795,71.06682 102.485967,72.52194 102.485967,74.30888 C102.485967,76.09582 101.033795,77.55 99.2504762,77.55 C97.4671571,77.55 96.0149857,76.09582 96.0149857,74.30888 L96.0149857,74.30888 Z" id="Fill-12" fill="#4E83B7" sketch:type="MSShapeGroup"></path>
                <path d="M124.139081,74.30888 C124.139081,70.2932 120.8792,67.0267 116.872595,67.0267 C112.86599,67.0267 109.60611,70.2932 109.60611,74.30888 C109.60611,78.32362 112.86599,81.59012 116.872595,81.59012 C120.8792,81.59012 124.139081,78.32362 124.139081,74.30888 L124.139081,74.30888 Z M113.638043,74.30888 C113.638043,72.52194 115.089276,71.06682 116.872595,71.06682 C118.656852,71.06682 120.107148,72.52194 120.107148,74.30888 C120.107148,76.09582 118.656852,77.55 116.872595,77.55 C115.089276,77.55 113.638043,76.09582 113.638043,74.30888 L113.638043,74.30888 Z" id="Fill-13" fill="#4E83B7" sketch:type="MSShapeGroup"></path>
                <path d="M49.1787048,58.43886 L45.4357048,58.43886 C44.3221857,58.43886 43.4197381,59.3422 43.4197381,60.45892 C43.4197381,61.57376 44.3221857,62.47898 45.4357048,62.47898 L49.1787048,62.47898 C50.2922238,62.47898 51.1946714,61.57376 51.1946714,60.45892 C51.1946714,59.3422 50.2922238,58.43886 49.1787048,58.43886" id="Fill-14" fill="#4E83B7" sketch:type="MSShapeGroup"></path>
                <path d="M45.8231381,89.6431 L48.5145333,89.6431 C49.6280524,89.6431 50.5305,88.73882 50.5305,87.62398 C50.5305,86.50726 49.6280524,85.60298 48.5145333,85.60298 L45.8231381,85.60298 C44.709619,85.60298 43.8071714,86.50726 43.8071714,87.62398 C43.8071714,88.73882 44.709619,89.6431 45.8231381,89.6431" id="Fill-15" fill="#4E83B7" sketch:type="MSShapeGroup"></path>
                <path d="M35.4806381,74.95842 C35.4806381,76.0742 36.3830857,76.97848 37.4966048,76.97848 L40.6298429,76.97848 C41.7433619,76.97754 42.6458095,76.07326 42.6458095,74.95842 C42.6458095,73.84358 41.7433619,72.9393 40.6298429,72.9393 L37.4966048,72.9393 C36.3830857,72.9393 35.4806381,73.84358 35.4806381,74.95842" id="Fill-16" fill="#4E83B7" sketch:type="MSShapeGroup"></path>
                <path d="M46.5304619,76.97848 L61.8026524,76.97848 L61.8026524,76.97754 L46.5304619,76.97754 L46.5304619,76.97848 Z" id="Fill-17" fill="#4E83B7" sketch:type="MSShapeGroup"></path>
            </g>
        </g>
    </g>
</svg>