<?xml version="1.0" encoding="utf-8"?>
<!-- Generator: Adobe Illustrator 18.1.0, SVG Export Plug-In . SVG Version: 6.00 Build 0)  -->
<!DOCTYPE svg PUBLIC "-//W3C//DTD SVG 1.1//EN" "http://www.w3.org/Graphics/SVG/1.1/DTD/svg11.dtd">
<svg version="1.1" id="Layer_1" xmlns:sketch="http://www.bohemiancoding.com/sketch/ns"
	 xmlns="http://www.w3.org/2000/svg" xmlns:xlink="http://www.w3.org/1999/xlink" x="0px" y="0px" viewBox="0 2718.6 2267.7 1082.6"
	 enable-background="new 0 2718.6 2267.7 1082.6" xml:space="preserve">
<title>Netflix</title>
<desc>Created with Sketch.</desc>
<rect id="Rectangle-87" y="2718.6" sketch:type="MSShapeGroup" fill="#4690DC" width="2267.7" height="1082.6">
</rect>
<g>
	<path id="Fill-1" fill="#2D5E8F" d="M1507.6,3408c0,0,12.5,1.1,35.3,2.3v-325.9h-35.3V3408z M911.6,3116.3h38.7V3400
		c0,0,8-1.1,35.3-1.1v-282.6h38.7v-33H911.6V3116.3z M586.9,3364.7h-2.3l-43.3-280.3h-57v352.1c0,0,11.4-1.1,35.3-4.6l-2.3-267.8
		h2.3l41,263.2c0,0,13.7-1.1,61.5-6.8v-337.3h-36.5L586.9,3364.7L586.9,3364.7z M1783.4,3084.4h-39.9l-20.5,125.4h-2.3l-20.5-125.4
		h-38.7l30.8,155l-29.6,181.2l37.6,3.4l19.4-149.3h2.3l19.4,153.8l42.2,4.6l-29.6-190.3L1783.4,3084.4z M1361.8,3084.4h-35.3v314.5
		c0,0,23.9,1.1,82,3.4v-31.9c0,0-6.8-1.1-46.7-2.3L1361.8,3084.4L1361.8,3084.4z M740.7,3411.4c0,0,20.5-1.1,82-5.7v-31.9l-45.6,3.4
		v-112.8h45.6v-33h-45.6v-115.1h46.7v-33h-82v328.2H740.7z M1131.6,3396.6h35.3v-132.2h45.6v-33h-45.6v-115.1h46.7v-33h-82
		L1131.6,3396.6L1131.6,3396.6z"/>
</g>
</svg>
