<?xml version="1.0" encoding="UTF-8" standalone="no"?>
<svg width="365px" height="125px" viewBox="0 0 365 125" version="1.1" xmlns="http://www.w3.org/2000/svg" xmlns:xlink="http://www.w3.org/1999/xlink" xmlns:sketch="http://www.bohemiancoding.com/sketch/ns">
    <!-- Generator: Sketch 3.2.2 (9983) - http://www.bohemiancoding.com/sketch -->
    <title>buffer</title>
    <desc>Created with Sketch.</desc>
    <defs></defs>
    <g id="Welcome" stroke="none" stroke-width="1" fill="none" fill-rule="evenodd" sketch:type="MSPage">
        <g id="Desktop-HD---Why-Us" sketch:type="MSArtboardGroup" transform="translate(-1006.000000, -1828.000000)">
            <g id="buffer" sketch:type="MSLayerGroup" transform="translate(1006.000000, 1828.000000)">
                <rect id="Rectangle-84" fill="#FFFFFF" sketch:type="MSShapeGroup" x="0" y="0" width="365" height="125"></rect>
                <g transform="translate(78.108541, 41.286744)" fill="#95A2AA" sketch:type="MSShapeGroup">
                    <path d="M65.7054015,37.3356828 L65.7054015,40.9100276 L58.1381006,40.9100276 L58.1381006,1.008 L65.7083001,1.008 L65.7083001,15.6764276 C65.9883021,15.3607034 66.2042457,15.1032 66.434972,14.8593103 C69.0042659,12.1408966 72.171825,11.0106621 75.8756198,11.3327586 C78.667524,11.5754897 81.1049329,12.6275172 83.1292953,14.5826897 C85.0058306,16.3953517 86.1388823,18.6349655 86.8185973,21.1202069 C87.4351235,23.3734345 87.5701969,25.6741655 87.4339641,27.9989379 C87.2942529,30.3833793 86.7832347,32.6754207 85.709314,34.818869 C83.7965465,38.6356552 80.7498579,40.9375448 76.4950446,41.5258345 C72.2112456,42.1181793 68.669191,40.7142207 65.872939,37.4217103 C65.8419243,37.3849241 65.8077211,37.3507448 65.7746774,37.3154069 C65.7514888,37.322069 65.7285901,37.3290207 65.7054015,37.3356828 L65.7054015,37.3356828 Z M65.7100392,26.5251724 C65.7100392,28.098869 65.7172857,29.6725655 65.7030827,31.2462621 C65.700474,31.5393931 65.7787354,31.767931 65.9729397,31.9764828 C68.1532453,34.3192138 70.8190616,35.3066483 73.9767655,34.6917103 C76.5101172,34.1984276 78.1150563,32.5473931 79.00028,30.1942345 C79.7718798,28.1420276 79.7956481,26.0197241 79.3333259,23.8933655 C78.9634682,22.1910621 78.1570856,20.7201931 76.8063512,19.5974897 C75.0196716,18.1127172 72.9321203,17.7712138 70.7208,18.227131 C68.7938296,18.6245379 67.1465713,19.5679448 65.9184465,21.1468552 C65.795837,21.3044276 65.720764,21.5425241 65.718735,21.7441241 C65.7027928,23.3378069 65.7100392,24.9314897 65.7100392,26.5251724 L65.7100392,26.5251724 Z" id="Fill-1"></path>
                    <path d="M166.101488,28.8881793 C166.209895,29.3548138 166.269026,29.7921931 166.413085,30.1994483 C167.45773,33.1519034 169.483831,35.0094621 172.618637,35.4494483 C176.145039,35.944469 179.32854,35.0476966 182.10972,32.7959172 C182.131749,32.7782483 182.160734,32.769269 182.208851,32.7446483 C183.322482,34.3728 184.434664,35.9986345 185.556991,37.639531 C184.874087,38.2767724 184.136111,38.8056828 183.34654,39.2644966 C181.478411,40.3495448 179.44941,40.9737517 177.334033,41.3433517 C175.547933,41.6556 173.745891,41.7633517 171.943269,41.5785517 C166.717435,41.0426897 162.5461,38.7885931 159.941444,34.0680828 C158.911001,32.2006759 158.375056,30.180331 158.206069,28.056869 C158.006357,25.5478759 158.234185,23.0927586 159.168974,20.738731 C161.217975,15.5782345 165.011915,12.4632828 170.453404,11.5045241 C174.505607,10.7908138 178.340417,11.4990207 181.727108,13.9877379 C184.248576,15.8406621 185.850616,18.344731 186.791782,21.294 C187.408888,23.2274483 187.6686,25.2162207 187.644252,27.2438069 C187.637875,27.7816966 187.643383,28.3201655 187.643383,28.8881793 L166.101488,28.8881793 L166.101488,28.8881793 Z M180.267967,23.7178345 C180.2413,23.4837931 180.228257,23.267131 180.190575,23.0548138 C179.895211,21.393931 179.200423,19.9459448 177.850558,18.884069 C175.743587,17.2260828 173.340381,16.9616276 170.849348,17.6515862 C168.429621,18.3221379 167.003813,20.0696276 166.278881,22.420469 C166.151344,22.8349655 166.080908,23.2668414 165.977719,23.7178345 L180.267967,23.7178345 L180.267967,23.7178345 Z" id="Fill-2"></path>
                    <path d="M110.3321,12.0148966 L117.92317,12.0148966 L117.92317,40.9010483 L110.33181,40.9010483 L110.33181,37.3632 C109.821952,37.8144828 109.372673,38.252731 108.882235,38.639131 C106.985409,40.1325931 104.890612,41.2014207 102.461899,41.5046897 C100.518696,41.7477103 98.5795517,41.7477103 96.6685234,41.2602207 C93.6540089,40.4914759 91.8528365,38.5116828 91.1313821,35.5415586 C90.9186269,34.6647724 90.8136986,33.7404828 90.8102203,32.8376276 C90.7841332,26.0423172 90.7960173,19.2467172 90.7960173,12.4511172 L90.7960173,12.021269 L98.3931736,12.021269 L98.3931736,12.4183862 C98.3931736,18.0211862 98.3833184,23.6239862 98.4041881,29.2267862 C98.4070867,30.0418759 98.4827394,30.8720276 98.6528856,31.668 C99.0227433,33.3949241 100.234926,34.3113931 101.884213,34.6720138 C104.494087,35.2423448 106.856423,34.6943172 108.914699,32.9653655 C109.328035,32.6183586 109.701081,32.2244276 110.097896,31.8577241 C110.280796,31.6888552 110.337318,31.4930483 110.337028,31.2436552 C110.330941,24.9795724 110.3321,18.7152 110.3321,12.4508276 L110.3321,12.0148966" id="Fill-3"></path>
                    <path d="M157.945777,11.9963586 L157.945777,18.638731 L152.082257,18.638731 L152.082257,40.9030759 L144.410317,40.9030759 L144.410317,18.6529241 L139.633181,18.6529241 L139.633181,12.0122897 L144.399882,12.0122897 C144.399882,11.3376828 144.386549,10.6995724 144.402491,10.0620414 C144.450897,8.09933793 144.837567,6.22150345 145.914386,4.54382069 C147.227729,2.4974069 149.09296,1.19482759 151.458774,0.673158621 C154.109807,0.0883448276 156.719681,0.322675862 159.249265,1.30953103 C160.135648,1.65508966 160.900871,2.2065931 161.568992,2.88873103 C161.680297,3.00227586 161.733631,3.08424828 161.631601,3.24211034 C160.717391,4.65417931 159.811008,6.07175172 158.901436,7.48729655 C158.891291,7.50351724 158.871871,7.51394483 158.836508,7.54435862 C158.34491,7.08467586 157.781138,6.73506207 157.121423,6.55837241 C156.294461,6.33707586 155.459672,6.2832 154.626623,6.50478621 C153.226323,6.87728276 152.306606,7.9742069 152.145445,9.5282069 C152.061967,10.3322897 152.07443,11.1462207 152.041966,11.9963586 L157.945777,11.9963586" id="Fill-4"></path>
                    <path d="M142.126243,3.07353103 C141.171163,4.56409655 140.220722,6.04713103 139.293758,7.49337931 C138.805929,7.21444138 138.356071,6.89234483 137.858096,6.68668966 C136.93606,6.3057931 135.9633,6.25162759 134.999235,6.51376552 C133.877488,6.81877241 133.111975,7.53451034 132.739508,8.64504828 C132.374578,9.73212414 132.476608,10.8554069 132.462985,12.0033103 L138.332592,12.0033103 L138.332592,18.6445241 L132.468492,18.6445241 L132.468492,40.9062621 L124.804379,40.9062621 L124.804379,18.6529241 L120.016808,18.6529241 L120.016808,12.0125793 L124.803509,12.0125793 C124.803509,11.8454483 124.804089,11.7090207 124.803509,11.5728828 C124.798002,10.280731 124.791625,8.99234483 125.048438,7.71264828 C125.821198,3.86110345 128.768465,1.05666207 132.670522,0.513848276 C135.005612,0.189144828 137.290556,0.409282759 139.498977,1.24928276 C140.514637,1.63568276 141.387687,2.24975172 142.126243,3.07353103" id="Fill-5"></path>
                    <path d="M20.5210176,0.159310345 C21.0346445,0.124551724 21.512619,0.245627586 21.9763904,0.462289655 C28.0680286,3.30873103 34.1616957,6.15169655 40.2533339,8.99842759 C40.4150742,9.07402759 40.5788435,9.1617931 40.7124676,9.27765517 C40.9846435,9.51314483 40.9800058,9.81844138 40.7040618,10.0524828 C40.5765246,10.1608138 40.4220307,10.2439448 40.2689861,10.3154897 C34.1411159,13.1790207 28.0135354,16.044 21.8804477,18.8971034 C20.9894268,19.3116 20.0592751,19.3069655 19.1682542,18.892469 C13.0447318,16.043131 6.92642678,13.1822069 0.806382629,10.3247586 C0.74290391,10.2952138 0.679715048,10.2642207 0.618555187,10.2297517 C0.388118742,10.1002759 0.157972154,9.96935172 0.162030154,9.65391724 C0.166378012,9.3408 0.393046314,9.19713103 0.629859616,9.08503448 C1.85218727,8.50572414 3.07886279,7.93510345 4.30495859,7.36303448 C9.26325523,5.04955862 14.219233,2.73144828 19.1844862,0.433034483 C19.5911558,0.244758621 20.0604346,0.192041379 20.5007276,0.0761793103 C20.5073943,0.103986207 20.514061,0.131503448 20.5210176,0.159310345" id="Fill-6"></path>
                    <path d="M190.781956,40.9033655 L190.781956,12.0264828 L198.354474,12.0264828 L198.354474,15.9026483 C200.890725,13.1848138 203.796543,11.3495586 207.600628,11.2623724 L207.600628,18.6384414 C206.833956,18.606 206.084095,18.5275034 205.337423,18.5512552 C202.97045,18.6254069 200.884638,19.4520828 199.085204,20.9936276 C199.062306,21.0133241 199.043175,21.0367862 199.020856,21.0567724 C198.561722,21.469531 198.348387,21.9376138 198.351576,22.6009241 C198.381721,28.5649241 198.369257,34.5295034 198.369257,40.4937931 L198.369257,40.9033655 L190.781956,40.9033655" id="Fill-7"></path>
                    <path d="M20.5065247,30.5284966 C20.0299996,30.3940966 19.5250684,30.3211034 19.0815869,30.1154483 C12.9627022,27.2759586 6.85193349,24.4182207 0.739425624,21.5639586 C0.648990189,21.521669 0.559714183,21.4741655 0.476815034,21.4188414 C0.0333335738,21.1216552 0.0223190016,20.7088966 0.488699178,20.4441517 C0.96667364,20.1727448 1.47740196,19.9581103 1.97566643,19.7226207 C2.63712047,19.4100828 3.30031366,19.1004414 3.96350685,18.7913793 C4.92902106,18.3412552 5.90149185,18.3221379 6.86932492,18.7728414 C10.9763111,20.6854345 15.0789494,22.6081655 19.1888341,24.5146759 C20.0708694,24.9239586 20.9885572,24.9248276 21.8703027,24.5155448 C25.9254044,22.6339448 29.9764481,20.7430759 34.0225643,18.8423586 C35.1048909,18.3343034 36.1573623,18.3256138 37.2330222,18.8516276 C38.2324497,19.3402759 39.2495585,19.7930069 40.2547831,20.2694897 C40.5495679,20.4088138 40.8988458,20.5261241 40.8942081,20.9394621 C40.8898602,21.3354207 40.553336,21.4533103 40.2669571,21.587131 C34.2008264,24.4222759 28.1329566,27.2530759 22.0674056,30.0890897 C21.5769672,30.3182069 21.0755144,30.4644828 20.530293,30.4389931 C20.522177,30.4688276 20.5143509,30.4986621 20.5065247,30.5284966" id="Fill-8"></path>
                    <path d="M20.5198582,41.7028138 C20.0053617,41.7364138 19.5291264,41.6078069 19.0659346,41.3911448 C12.9815429,38.5478897 6.89541206,35.7084 0.810730486,32.8651448 C0.648990189,32.7895448 0.485220892,32.702069 0.351017025,32.5867862 C0.0768121483,32.3510069 0.0785512913,32.046869 0.354495311,31.8119586 C0.489568749,31.6969655 0.653338046,31.6094897 0.815078344,31.5333103 C1.88552085,31.0298897 2.9556735,30.526469 4.03191314,30.0357931 C4.9687315,29.6088414 5.91511513,29.6030483 6.85193349,30.0395586 C10.9316731,31.9405655 15.0090938,33.8459172 19.0885435,35.7472138 C20.0450721,36.1929931 21.0094269,36.1958897 21.9656657,35.7501103 C26.0810577,33.8314345 30.1912323,31.9017517 34.3109722,29.9920552 C35.1503985,29.6030483 36.0379411,29.6062345 36.8837443,29.9746759 C38.041144,30.4789655 39.1762246,31.0342345 40.3208706,31.5683586 C40.3933349,31.6022483 40.4646397,31.6399034 40.5333359,31.6810345 C41.0391366,31.9825655 41.0455135,32.4451448 40.5237706,32.7240828 C40.0292743,32.9885379 39.5127488,33.2115724 39.0040495,33.4488 C33.2906749,36.1156552 27.5793294,38.7862759 21.8589983,41.4374897 C21.4529084,41.6257655 20.9807311,41.6721103 20.5392786,41.7844966 C20.5329017,41.757269 20.5265249,41.7300414 20.5198582,41.7028138" id="Fill-9"></path>
                </g>
            </g>
        </g>
    </g>
</svg>