<?xml version="1.0" encoding="UTF-8" standalone="no"?>
<svg width="365px" height="125px" viewBox="0 0 365 125" version="1.1" xmlns="http://www.w3.org/2000/svg" xmlns:xlink="http://www.w3.org/1999/xlink" xmlns:sketch="http://www.bohemiancoding.com/sketch/ns">
    <!-- Generator: Sketch 3.2.2 (9983) - http://www.bohemiancoding.com/sketch -->
    <title>dropbox</title>
    <desc>Created with Sketch.</desc>
    <defs></defs>
    <g id="Welcome" stroke="none" stroke-width="1" fill="none" fill-rule="evenodd" sketch:type="MSPage">
        <g id="Desktop-HD---Why-Us" sketch:type="MSArtboardGroup" transform="translate(-570.000000, -2135.000000)">
            <g id="dropbox" sketch:type="MSLayerGroup" transform="translate(570.000000, 2135.000000)">
                <rect id="Rectangle-84" fill="#FFFFFF" sketch:type="MSShapeGroup" x="0" y="0" width="365" height="125"></rect>
                <g transform="translate(72.820235, 33.314121)" fill="#95A2AA" sketch:type="MSShapeGroup">
                    <path d="M18.5290859,-0.122022727 L0.105572492,11.947947 L12.8442077,22.183553 L31.4200662,10.6745303 L18.5290859,-0.122022727" id="Fill-1"></path>
                    <path d="M0.105572492,32.420053 L18.5290859,44.4900227 L31.4200662,33.6925758 L12.8442077,22.183553 L0.105572492,32.420053" id="Fill-2"></path>
                    <path d="M31.4200662,33.6925758 L44.3119374,44.4900227 L62.7350054,32.420053 L49.9963702,22.183553 L31.4200662,33.6925758" id="Fill-3"></path>
                    <path d="M62.7350054,11.947947 L44.3119374,-0.122022727 L31.4200662,10.6745303 L49.9963702,22.183553 L62.7350054,11.947947" id="Fill-4"></path>
                    <path d="M31.4579298,36.0154773 L18.5290859,46.7807424 L12.9965528,43.1562652 L12.9965528,47.2192197 L31.4579298,58.3286515 L49.9197522,47.2192197 L49.9197522,43.1562652 L44.38811,46.7807424 L31.4579298,36.0154773" id="Fill-5"></path>
                    <path d="M78.5909245,43.8343182 L87.1084418,43.8343182 C89.590509,43.8343182 93.0948921,43.8343182 95.9676221,41.5918712 C99.4724506,38.9113939 101.273419,33.4521061 101.273419,27.3581212 C101.273419,11.3700152 91.1968145,11.3212955 86.2322347,11.3212955 L78.5909245,11.3212955 L78.5909245,43.8343182 L78.5909245,43.8343182 Z M85.6976904,16.9276364 L86.9133332,16.9276364 C89.7856177,16.9276364 93.7287725,17.2691212 93.7287725,27.2611288 C93.7287725,37.8873864 89.7375087,38.2293182 86.9133332,38.2293182 L85.6976904,38.2293182 L85.6976904,16.9276364 L85.6976904,16.9276364 Z" id="Fill-6"></path>
                    <path d="M103.720741,19.8034394 L103.720741,43.8343182 L110.387844,43.8343182 L110.387844,33.4521061 C110.387844,31.5994167 110.387844,26.0426894 115.303424,26.0426894 C115.547533,26.0426894 115.83886,26.0426894 116.421958,26.1401288 L116.421958,19.6081136 C116.082523,19.5106742 115.742642,19.4615076 115.253979,19.4615076 C111.36116,19.4615076 110.192736,23.5566439 109.608746,25.6037652 L109.608746,19.8034394 L103.720741,19.8034394" id="Fill-7"></path>
                    <path d="M127.112843,19.2666288 C119.958859,19.2666288 117.330683,24.2878864 117.330683,31.7947424 C117.330683,39.54475 120.152632,44.3215152 127.06518,44.3215152 C134.073946,44.3215152 136.848231,39.4964773 136.848231,31.7947424 C136.848231,24.2878864 134.2205,19.2666288 127.112843,19.2666288 L127.112843,19.2666288 Z M127.112843,23.9468485 C129.158812,23.9468485 129.936573,25.6037652 129.936573,31.7947424 C129.936573,38.2293182 129.060366,39.6430833 127.112843,39.6430833 C125.117657,39.6430833 124.241895,38.1797045 124.241895,31.7947424 C124.241895,25.8969773 124.923439,23.9468485 127.06518,23.9468485 L127.112843,23.9468485 L127.112843,23.9468485 Z" id="Fill-8"></path>
                    <path d="M138.826045,19.8034394 L138.826045,51.9749773 L145.397375,51.9749773 L145.397375,42.0804091 C146.127474,42.8599242 147.344007,44.1749091 149.972629,44.1749091 C157.613939,44.1749091 158.101711,34.913697 158.101711,31.5019773 C158.101711,27.4564545 157.323058,23.7023561 154.986208,21.3146439 C153.81912,20.1444773 152.017261,19.4615076 150.410955,19.4615076 C147.14979,19.4615076 145.835256,21.8496667 145.007603,23.4100379 L145.007603,19.8034394 L138.826045,19.8034394 L138.826045,19.8034394 Z M145.397375,29.4544091 C145.397375,27.3102955 145.397375,23.8985758 148.414878,23.8985758 C150.994945,23.8985758 151.189162,27.2611288 151.189162,31.5019773 C151.189162,36.5719545 150.946836,39.54475 148.219769,39.54475 C145.397375,39.54475 145.397375,37.4971818 145.397375,34.0367424 L145.397375,29.4544091 L145.397375,29.4544091 Z" id="Fill-9"></path>
                    <path d="M160.086652,11.3212955 L160.086652,43.8343182 L164.029806,43.8343182 C164.564796,42.1282348 164.808905,41.6410379 165.295785,40.7144697 C165.878884,41.9329091 166.9992,44.3215152 170.845246,44.3215152 C172.110779,44.3215152 173.424867,44.0779167 174.73851,43.3958409 C179.119545,41.1051212 179.411763,33.8905833 179.411763,31.6481364 C179.411763,25.8478106 177.56224,19.4615076 171.671117,19.4615076 C168.800169,19.4615076 167.487417,21.0223258 166.657982,22.0458864 L166.657982,11.3212955 L160.086652,11.3212955 L160.086652,11.3212955 Z M166.657982,28.2851364 C166.657982,27.066697 166.657982,25.8478106 167.437972,24.9207955 C167.924407,24.2878864 168.70306,23.8985758 169.579267,23.8985758 C171.477344,23.8985758 172.499215,25.5067727 172.499215,31.8434621 C172.499215,38.0344394 171.57579,39.6904621 169.481267,39.6904621 C166.657982,39.6904621 166.657982,36.5719545 166.657982,33.8409697 L166.657982,28.2851364 L166.657982,28.2851364 Z" id="Fill-10"></path>
                    <path d="M190.87061,19.2666288 C183.714399,19.2666288 181.085777,24.2878864 181.085777,31.7947424 C181.085777,39.54475 183.909953,44.3215152 190.82161,44.3215152 C197.830376,44.3215152 200.604661,39.4964773 200.604661,31.7947424 C200.604661,24.2878864 197.975594,19.2666288 190.87061,19.2666288 L190.87061,19.2666288 Z M190.87061,23.9468485 C192.91346,23.9468485 193.693004,25.6037652 193.693004,31.7947424 C193.693004,38.2293182 192.817242,39.6430833 190.87061,39.6430833 C188.874087,39.6430833 187.996544,38.1797045 187.996544,31.7947424 C187.996544,25.8969773 188.678979,23.9468485 190.82161,23.9468485 L190.87061,23.9468485 L190.87061,23.9468485 Z" id="Fill-11"></path>
                    <path d="M200.345407,19.8034394 L206.528302,31.5511439 L199.421982,43.8343182 L205.212878,43.8343182 L209.253587,36.6211212 L212.757525,43.8343182 L220.0104,43.8343182 L212.854634,30.3805303 L219.035747,19.8034394 L213.245297,19.8034394 L210.178349,25.3597197 L207.598727,19.8034394 L200.345407,19.8034394" id="Fill-12"></path>
                </g>
            </g>
        </g>
    </g>
</svg>