<?xml version="1.0" encoding="UTF-8" standalone="no"?>
<svg width="365px" height="125px" viewBox="0 0 365 125" version="1.1" xmlns="http://www.w3.org/2000/svg" xmlns:xlink="http://www.w3.org/1999/xlink" xmlns:sketch="http://www.bohemiancoding.com/sketch/ns">
    <!-- Generator: Sketch 3.2.2 (9983) - http://www.bohemiancoding.com/sketch -->
    <title>lululemon</title>
    <desc>Created with Sketch.</desc>
    <defs></defs>
    <g id="Welcome" stroke="none" stroke-width="1" fill="none" fill-rule="evenodd" sketch:type="MSPage">
        <g id="Desktop-HD---Why-Us" sketch:type="MSArtboardGroup" transform="translate(-570.000000, -893.000000)">
            <g id="lululemon" sketch:type="MSLayerGroup" transform="translate(570.000000, 893.000000)">
                <rect id="Rectangle-84" fill="#FFFFFF" sketch:type="MSShapeGroup" x="0" y="0" width="365" height="125"></rect>
                <g transform="translate(72.463256, 43.493516)" fill="#95A2AA" sketch:type="MSShapeGroup">
                    <path d="M9.32329412,34.3161765 C7.56752941,33.8344118 6.94047059,32.3646471 6.82652941,30.446 L6.82652941,-0.138411765 C4.67158824,0.554411765 2.51588235,1.24647059 0.360941176,1.93852941 C0.331882353,12.1924706 0.302823529,22.4456471 0.273,32.6995882 C1.222,36.2409412 2.79652941,37.3711765 4.58211765,37.4698235 C7.19817647,37.6143529 8.55094118,36.1751765 9.32329412,34.3161765" id="Fill-1"></path>
                    <path d="M20.4329412,10.309 L14.2770588,10.309 C14.2724706,16.3058235 14.2686471,22.3034118 14.2640588,28.3002353 C14.4934706,33.6103529 17.2724118,36.4688235 23.1254706,36.5468235 C26.6431176,36.5934706 28.9188824,35.5947647 30.7472941,34.1227059 C30.7388824,34.7765294 30.7304706,35.4311176 30.7228235,36.0857059 L36.8825294,36.1101765 L36.8282353,10.3648235 L30.7564706,10.3648235 C30.7534118,16.2882353 30.7495882,22.2108824 30.7472941,28.1342941 C27.9117647,33.0291765 21.0408824,32.0664118 20.5124706,28.1587647 L20.4329412,10.309" id="Fill-2"></path>
                    <path d="M52.7241765,34.3161765 C50.9684118,33.8344118 50.3413529,32.3646471 50.2266471,30.446 L50.2266471,-0.138411765 C48.0717059,0.554411765 45.9167647,1.24647059 43.7610588,1.93852941 C43.732,12.1924706 43.7029412,22.4456471 43.6738824,32.6995882 C44.6221176,36.2409412 46.1974118,37.3711765 47.9822353,37.4698235 C50.5982941,37.6143529 51.9518235,36.1751765 52.7241765,34.3161765" id="Fill-3"></path>
                    <path d="M63.5631176,10.309 L57.408,10.309 C57.4034118,16.3058235 57.3988235,22.3034118 57.395,28.3002353 C57.6244118,33.6103529 60.4033529,36.4688235 66.2564118,36.5468235 C69.7740588,36.5934706 72.0498235,35.5947647 73.8782353,34.1227059 C73.8698235,34.7765294 73.8614118,35.4311176 73.8537647,36.0857059 L80.0134706,36.1101765 L79.9591765,10.3648235 L73.8874118,10.3648235 C73.8843529,16.2882353 73.8812941,22.2108824 73.8782353,28.1342941 C71.0427059,33.0291765 64.1718235,32.0664118 63.6434118,28.1587647 L63.5631176,10.309" id="Fill-4"></path>
                    <path d="M95.9897059,34.3161765 C94.2339412,33.8344118 93.6068824,32.3646471 93.4929412,30.446 L93.4929412,-0.138411765 C91.3372353,0.554411765 89.1822941,1.24647059 87.0273529,1.93852941 C86.9975294,12.1924706 86.9684706,22.4456471 86.9394118,32.6995882 C87.8876471,36.2409412 89.4629412,37.3711765 91.2485294,37.4698235 C93.8638235,37.6143529 95.2173529,36.1751765 95.9897059,34.3161765" id="Fill-5"></path>
                    <path d="M105.710647,20.6279412 C107.137588,13.3058824 116.658176,13.2362941 118.062176,20.6279412 L105.710647,20.6279412 L105.710647,20.6279412 Z M105.570706,25.2597647 L123.816588,25.2597647 C124.073529,24.1371765 124.322059,22.9480588 124.308294,21.6105882 C124.238706,15.2467059 120.233176,9.89758824 111.886412,9.89070588 C102.527176,9.88305882 99.0691765,17.0368824 98.9735882,23.3648235 C98.8481765,31.6595882 103.043353,36.3327059 112.027118,36.5582941 C115.973765,36.6577059 119.237529,35.8738824 121.501059,33.8917647 C120.611706,32.3478235 119.723118,30.8038824 118.833765,29.2599412 C116.939588,30.6165294 114.857294,31.4049412 112.588412,31.3651765 C108.188294,31.2879412 105.850588,29.1658824 105.570706,25.2597647 L105.570706,25.2597647 Z" id="Fill-6"></path>
                    <path d="M128.608235,10.3112941 L128.505,36.0971765 L135.248176,36.0971765 C135.216824,29.9474118 135.185471,23.7968824 135.154118,17.6471176 C136.669,14.1646471 142.600059,14.664 143.490176,17.7404118 L143.490176,36.0971765 L149.765353,36.0971765 C149.734,29.978 149.702647,23.8595882 149.671294,17.7404118 C151.919529,13.6813529 157.82,14.5554118 158.382059,19.2392353 L158.288,36.1912353 L164.657235,36.1912353 L164.657235,16.8036471 C161.995294,8.25347059 153.558294,8.40105882 148.173235,12.6826471 C144.614294,8.96770588 137.589706,8.87441176 134.405471,12.402 C133.968059,11.7152941 133.530647,11.0278235 133.094,10.3411176 L128.608235,10.3112941" id="Fill-7"></path>
                    <path d="M198.359353,10.3112941 L198.255353,36.0971765 L204.998529,36.0971765 C204.967176,29.9474118 204.936588,23.7968824 204.905235,17.6471176 C206.419353,14.1646471 213.765882,14.664 214.656,17.7404118 L214.656,36.0971765 L220.931176,36.0971765 C220.899824,29.978 220.868471,23.9299412 220.837882,17.8107647 C220.556471,11.1853529 211.175824,6.65905882 204.155824,12.402 C203.719176,11.7152941 203.281765,11.0278235 202.844353,10.3411176 L198.359353,10.3112941" id="Fill-8"></path>
                    <path d="M181.493,15.0914706 C189.913176,15.1304706 188.882353,31.3391765 181.427235,31.3437647 C173.971353,31.3483529 173.072824,15.0524706 181.493,15.0914706 L181.493,15.0914706 Z M181.513647,9.80352941 C197.856941,9.66970588 198.601,36.6232941 181.404294,36.6317059 C164.208353,36.6393529 165.170353,9.93735294 181.513647,9.80352941 L181.513647,9.80352941 Z" id="Fill-9"></path>
                </g>
            </g>
        </g>
    </g>
</svg>