<?xml version="1.0" encoding="UTF-8" standalone="no"?>
<svg width="365px" height="125px" viewBox="0 0 365 125" version="1.1" xmlns="http://www.w3.org/2000/svg" xmlns:xlink="http://www.w3.org/1999/xlink" xmlns:sketch="http://www.bohemiancoding.com/sketch/ns">
    <!-- Generator: Sketch 3.2.2 (9983) - http://www.bohemiancoding.com/sketch -->
    <title>mens-wearhouse</title>
    <desc>Created with Sketch.</desc>
    <defs></defs>
    <g id="Welcome" stroke="none" stroke-width="1" fill="none" fill-rule="evenodd" sketch:type="MSPage">
        <g id="Desktop-HD---Why-Us" sketch:type="MSArtboardGroup" transform="translate(-107.000000, -2135.000000)">
            <g id="mens-wearhouse" sketch:type="MSLayerGroup" transform="translate(107.000000, 2135.000000)">
                <rect id="Rectangle-84" fill="#FFFFFF" sketch:type="MSShapeGroup" x="0" y="0" width="365" height="125"></rect>
                <g transform="translate(28.000000, 51.000000)" fill="#95A2AA" sketch:type="MSShapeGroup">
                    <path d="M2.84128498,16.2800868 L1.63479047,16.2800868 L0.633824918,17.2770636 L7.08031974,17.2770636 L7.08031974,16.2800868 L5.39557516,16.2800868 C4.95092116,15.2121087 4.60013857,10.9451268 4.60013857,6.39907037 L4.60013857,4.42385322 L4.63472276,4.47315969 C5.54181692,5.38039872 8.64352557,10.0359155 10.7808291,13.6974139 L11.4557151,14.3877045 L12.0090623,15.0079799 L12.0090623,14.1776589 L12.2215081,14.1776589 L12.3163676,13.9863498 C12.5416589,13.5396332 13.8291793,11.4914425 15.0751986,9.50932244 L16.3459209,7.48282656 C17.1018327,5.97306248 17.6492512,5.08357377 18.4861888,3.81836978 L18.4861888,14.7653921 C18.4861888,15.8353424 18.2579331,16.0513048 17.8172316,16.2800868 L16.6255589,16.2800868 L16.6255589,17.2770636 L23.6886406,17.2770636 L22.6945919,16.2800868 L22.0137772,16.2800868 C21.501931,16.0138319 21.3438318,15.7968834 21.3438318,15.382709 L21.3438318,2.6813626 C21.3438318,2.25042406 21.7963908,1.81159648 21.9307751,1.78497099 L22.6926156,1.78497099 L23.1036735,1.37474116 L22.860596,0.788980311 L18.9278784,0.788980311 L18.8320308,0.978317152 C17.9318535,2.77504489 17.1937279,3.91895497 16.2619307,5.36757904 C15.9151006,5.90304729 15.5435675,6.47993298 15.1236165,7.15148709 C14.9091944,7.50945206 14.7095942,7.84868056 14.5169108,8.18100617 C13.9388606,9.17699684 13.4289907,10.0516936 12.6691264,11.0506427 C11.5347647,9.11782908 10.6098844,7.90488994 9.20675397,6.22846999 C8.27989742,4.60530102 7.50619946,3.47519675 6.68803611,2.27704955 C6.40049319,1.85498617 6.10109283,1.41813086 5.7829182,0.941830365 L5.68015372,0.788980311 L1.46483383,0.788980311 L1.22274443,1.37671342 L1.63479047,1.78497099 L2.2790447,1.78497099 C2.63773226,2.06305947 3.35411926,2.66558453 3.60213737,3.07877274 L3.60213737,5.77879499 C3.60213737,12.9469695 3.15254278,15.6815063 2.84128498,16.2800868" id="Fill-1"></path>
                    <path d="M154.638254,21.8566484 C151.955509,21.8566484 149.668999,21.8951075 147.521814,21.9434278 L155.124409,21.9434278 C154.96631,21.906941 154.818092,21.8566484 154.638254,21.8566484" id="Fill-3"></path>
                    <path d="M108.748974,21.8566484 C105.957535,21.8566484 103.608774,21.8951075 101.415147,21.9434278 L109.24501,21.9434278 C109.038493,21.8842601 108.856679,21.8566484 108.748974,21.8566484" id="Fill-4"></path>
                    <path d="M69.0591581,21.8566484 C68.8793203,21.8566484 68.7320904,21.906941 68.5730031,21.9434278 L71.3081192,21.9434278 C70.5838273,21.9168023 69.8476779,21.8891907 69.0591581,21.8566484" id="Fill-5"></path>
                    <path d="M115.880236,21.8566484 C115.700398,21.8566484 115.55218,21.906941 115.394081,21.9434278 L117.810034,21.9434278 C117.174673,21.9168023 116.536347,21.8891907 115.880236,21.8566484" id="Fill-6"></path>
                    <path d="M31.8514998,16.2800868 L30.5788013,16.2800868 L30.5788013,17.2770636 L36.5035687,17.2770636 C38.6754565,17.2770636 41.6062204,17.5196514 42.2405934,17.5738885 L42.7050098,18.0383555 L43.3364185,17.4082188 L43.3542046,17.2987584 C43.537995,16.1972519 43.7257378,15.4103207 43.9075518,14.6480427 C44.0330431,14.1234218 44.1575462,13.5968287 44.2889662,12.905552 L44.2889662,12.5939352 L43.7000466,12.3513473 L43.3907651,12.6629642 L43.3097392,12.7960917 C43.1496638,13.2733783 43.134842,13.469618 43.134842,13.6402184 C43.134842,13.7082614 43.134842,13.7477065 43.0409706,13.941974 C42.4599561,14.5099845 41.5825055,15.0937731 41.0469445,15.366931 C40.9184889,15.4103207 40.7850927,15.458641 40.6428034,15.5089336 C39.7426261,15.8343563 38.5074761,16.2800868 35.8830294,16.2800868 C35.4205892,16.2800868 35.2980624,15.6923537 35.2980624,15.382709 L35.2980624,9.53101729 L36.8138384,9.53101729 C38.3800086,9.53101729 38.7920546,10.0605688 38.951142,10.4846044 L38.951142,11.8070039 L39.6042893,12.4627799 L40.2584247,11.8070039 L40.2584247,5.94840924 L39.6042893,5.2926332 L38.951142,5.94840924 L38.951142,6.95919186 C38.6606347,7.74119246 37.8484001,8.22439586 36.8138384,8.22439586 L35.2980624,8.25693813 L35.2980624,2.99002109 C35.2980624,2.26422987 35.3514208,2.09362948 35.8830294,2.09362948 L37.7446475,2.09362948 C39.5627882,2.09362948 41.0755999,3.05116112 42.1496864,3.8528843 L42.3710253,4.07377729 C42.4214194,4.50668808 42.6328771,5.36560678 42.6793187,5.55297136 L42.7030336,5.64566752 L43.0804954,6.02138282 L43.6674387,5.77879499 L43.6644743,5.41392712 C43.522185,4.56782811 43.4460998,3.91599658 43.3759433,3.31051314 C43.290965,2.59359708 43.2129035,1.91809845 43.0429469,1.06608267 L43.0212082,0.963525212 L42.6397939,0.578934752 L42.0508744,0.82152258 L42.0508744,0.958594565 C41.9411931,1.01973459 41.7465334,1.09862494 41.4639311,1.09862494 L30.5788013,1.09862494 L30.5788013,2.09362948 L31.8514998,2.09362948 C31.9582168,2.09362948 32.1291615,2.33818957 32.1291615,2.99002109 L32.1291615,15.0740506 C32.1291615,15.8570373 31.8949771,16.2416277 31.8514998,16.2800868" id="Fill-11"></path>
                    <path d="M53.1217708,16.2800868 L51.4893965,16.2800868 L52.4824571,17.2770636 L56.4922481,17.2770636 L57.4862968,16.2800868 L55.6029401,16.2800868 C55.1711316,15.3304442 54.8302302,9.98365068 54.8302302,6.70772887 L54.8302302,4.18323765 C57.0969775,6.64363046 65.10569,15.3274858 66.9564388,17.1764784 L67.1995163,17.4210385 L67.8536517,16.7652624 L67.8536517,10.1167781 C67.8536517,4.15266764 68.3299256,2.53245706 68.605611,2.09362948 L69.5136933,2.09362948 L69.9237631,1.68438579 L69.6806856,1.09862494 L64.9960087,1.09862494 L64.9960087,2.09362948 L66.3428163,2.09362948 C66.5750245,3.14287115 66.8556505,8.23129876 66.8556505,11.6659874 L66.8556505,12.3503612 L56.1849427,1.09862494 L52.0071714,1.09862494 L51.765082,1.68438579 L52.1751518,2.09362948 L52.6267227,2.09362948 C52.8302754,2.09362948 53.0605073,2.09362948 53.8332172,3.10539823 L53.8332172,6.70772887 C53.8332172,13.0110679 53.4043731,15.8452037 53.1217708,16.2800868" id="Fill-12"></path>
                    <path d="M75.2279912,5.63679236 L75.2279912,6.08942574 L75.8149345,6.33201357 C77.0807162,5.06976796 77.7753646,4.37356062 77.7753646,2.6813626 C77.7753646,1.51181315 76.9522606,0.788980311 76.1914082,0.788980311 C75.3771973,0.788980311 74.60844,1.55816123 74.60844,2.37073184 C74.60844,3.15766309 75.0461772,3.9534695 75.8811385,3.9534695 C76.0293565,3.9534695 76.1933845,3.9534695 76.3643292,3.92092723 C76.2338974,4.34200448 75.9503069,4.91494565 75.3287795,5.53620716 L75.2279912,5.63679236" id="Fill-13"></path>
                    <path d="M93.4884487,0.889565508 L92.9845075,1.09862494 L92.9351015,1.09862494 C92.7285844,1.09862494 92.3866949,1.0572075 91.9519221,1.0069149 C91.1722954,0.915204872 90.1051258,0.788980311 88.90456,0.788980311 C86.1101567,0.788980311 83.2900622,2.33128667 83.2900622,5.77879499 C83.2900622,8.5715134 84.5024855,10.1019862 86.9619161,10.451076 L90.6970097,11.3829683 C92.2839304,11.6995158 92.9015054,12.3010547 92.9015054,13.5248413 C92.9015054,15.0957454 91.3165609,16.2800868 89.2158178,16.2800868 C86.1714201,16.2800868 84.9362701,13.9577521 84.597345,13.1481399 L84.597345,11.8346155 L84.1882633,11.4224134 L83.6003319,11.6659874 L83.6003319,17.2770636 L84.3977448,17.2770636 L84.6694778,17.0039058 C85.8483049,17.2987584 87.1071698,17.5857221 89.2158178,17.5857221 C92.0872945,17.5857221 95.1395972,15.6203662 95.1395972,11.9766182 C95.1395972,9.63160249 93.8263857,8.30328621 91.1584617,7.92264027 L87.4372018,6.99370639 C86.3641035,6.72745146 85.2168962,5.94052021 85.2168962,4.53923035 C85.2168962,3.20992795 86.5745731,1.78497099 88.5942904,1.78497099 C90.5122313,1.78497099 92.2760254,3.10342597 93.210787,5.23149318 L93.210787,5.92079762 L93.622833,6.33201357 L94.2097763,6.08942574 L94.2097763,5.77879499 C94.2097763,5.46421972 94.2097763,4.51950777 93.8985185,3.5540871 L93.8985185,1.29979533 L93.4884487,0.889565508" id="Fill-14"></path>
                    <path d="M142.855912,16.2800868 L140.787776,16.2800868 L141.781825,17.2770636 L147.506992,17.2770636 C149.679868,17.2770636 152.61162,17.5196514 153.243029,17.5748747 L153.709422,18.0373693 L154.341818,17.4082188 L154.359605,17.2987584 C154.543395,16.1952797 154.73015,15.4063762 154.911964,14.6450843 C155.036467,14.1194773 155.16097,13.5968287 155.29239,12.905552 L155.29239,12.5939352 L154.70347,12.3513473 L154.394189,12.6629642 L154.311187,12.7970778 C154.136289,13.3207125 154.077002,13.4045335 153.994,13.5199106 C153.923844,13.6145791 153.842818,13.7279839 153.711398,13.9922666 C153.461403,14.490262 152.633359,15.070106 151.692669,15.3866536 C151.0247,15.7189792 149.512876,16.2800868 146.887441,16.2800868 C146.423025,16.2800868 146.300498,15.6923537 146.300498,15.382709 L146.300498,9.53101729 L147.817262,9.53101729 C149.385409,9.53101729 149.797455,10.0605688 149.953577,10.4846044 L149.953577,11.8070039 L150.607713,12.4627799 L151.262836,11.8070039 L151.262836,5.94840924 L150.607713,5.2926332 L149.953577,5.94840924 L149.953577,6.96116412 C149.666035,7.74119246 148.8538,8.22439586 147.817262,8.22439586 L146.300498,8.25693813 L146.300498,2.99002109 C146.300498,2.26422987 146.354844,2.09362948 146.887441,2.09362948 L148.748071,2.09362948 C150.566212,2.09362948 152.078035,3.05116112 153.155086,3.8528843 L153.376425,4.07377729 C153.426819,4.50668808 153.637289,5.36560678 153.684719,5.55297136 L153.707445,5.64566752 L154.085895,6.02138282 L154.672839,5.77879499 L154.668886,5.41392712 C154.526597,4.56782811 154.4515,3.91599658 154.381343,3.31051314 C154.296365,2.59359708 154.217315,1.91809845 154.048347,1.06608267 L154.026608,0.963525212 L153.398164,0.334374665 L152.745016,0.990150705 L152.745016,1.0572075 C152.708456,1.07298557 152.62743,1.09862494 152.469331,1.09862494 L141.581237,1.09862494 L141.581237,2.09362948 L142.54663,2.09362948 C142.835161,2.09362948 143.131597,2.09362948 143.131597,2.99002109 L143.131597,15.0740506 C143.131597,15.8570373 142.899389,16.2416277 142.855912,16.2800868" id="Fill-15"></path>
                    <path d="M171.845376,16.2800868 L170.244622,16.2800868 L171.23867,17.2770636 L176.486576,17.2770636 L177.480624,16.2800868 L176.343298,16.2800868 C176.008325,16.2800868 175.772165,15.9418444 175.314665,15.2397203 L175.088386,14.8975334 C174.605195,14.0948241 174.208959,13.1195421 173.748495,11.9894378 C173.349295,11.0062668 172.894759,9.8939129 172.317697,8.73619701 C171.582536,7.08738868 170.968913,5.57269395 170.374065,4.10829181 C169.974865,3.12314856 169.596415,2.18928403 169.218953,1.30669824 L168.592485,0.64599155 L168.039138,1.19921013 L167.962064,1.31360114 C166.726914,4.39919998 166.107363,5.94840924 164.562932,9.03302195 C163.556037,11.0437398 161.99876,14.6243756 161.764576,15.5266839 C161.617346,15.6943259 161.53632,15.8570373 161.462211,16.0049567 C161.409841,16.1094864 161.367352,16.1952797 161.304112,16.2800868 L160.18556,16.2800868 L160.18556,17.2770636 L165.014502,17.2770636 L166.008551,16.2800868 L164.870237,16.2800868 C164.740793,16.2800868 164.414714,16.1587929 164.159779,16.037499 C164.099503,15.9546641 163.974012,15.7387018 163.974012,15.382709 L163.965119,14.8492131 C164.103456,14.2940222 164.180529,13.8611114 164.252662,13.469618 C164.33764,12.9933176 164.412737,12.5821016 164.558979,12.1294682 L164.773401,11.6995158 L170.239681,11.6995158 L170.454103,12.1304543 C170.761408,12.7418546 170.990652,13.2792951 171.220884,13.8147633 C171.447164,14.3413564 171.672455,14.8689356 171.969879,15.4635717 L171.969879,15.9941093 C171.969879,15.9990399 171.960986,16.1252645 171.845376,16.2800868 L171.845376,16.2800868 Z M169.797991,10.4017695 L169.749573,10.4017695 C168.549008,10.702539 167.655747,10.702539 166.420597,10.702539 C166.094518,10.702539 165.659745,10.6039261 165.353428,10.5210912 C165.706186,9.73415994 166.251629,8.36837075 166.748653,7.12683386 C166.893907,6.68603402 167.115246,6.24424806 167.311881,5.85472695 C167.382038,5.71272432 167.443301,5.58847202 167.495672,5.47901166 L167.690331,5.67327914 C168.135973,6.56967075 168.442291,7.25996132 168.739715,7.92658478 C169.039115,8.60011115 169.348397,9.29336011 169.797991,10.1976408 L169.797991,10.4017695 L169.797991,10.4017695 Z" id="Fill-16"></path>
                    <path d="M195.600769,5.47013649 C195.600769,2.67051517 193.220388,0.788980311 189.676989,0.788980311 C189.227395,0.788980311 188.582152,0.856037109 187.90035,0.929010683 C187.109854,1.01184555 186.292678,1.09862494 185.646448,1.09862494 L181.71373,1.09862494 L182.71272,2.09362948 L183.47456,2.09362948 C183.763091,2.09362948 184.061503,2.09362948 184.061503,2.99002109 L184.061503,15.382709 C184.061503,16.0355267 183.890559,16.2800868 183.783842,16.2800868 L181.717683,16.2800868 L182.711731,17.2770636 L188.266942,17.2770636 L188.679976,16.8658476 L188.436899,16.2800868 L187.228428,16.2850174 C187.138509,16.2406416 186.919146,15.869857 186.919146,15.382709 L186.919146,10.1167781 C186.919146,10.0161929 187.030804,9.88799613 187.136533,9.85052321 L187.707666,10.1345285 C188.434922,10.375144 188.69381,10.794249 189.799516,12.7290349 L190.001093,13.0810831 C190.23923,13.476521 190.494165,13.911404 190.752064,14.3443148 C191.697695,15.9438167 192.289579,16.9319183 192.534632,17.1764784 L192.635421,17.2770636 L196.639283,17.2770636 L197.640248,16.2800868 L196.496993,16.2800868 C195.745034,16.2800868 195.501957,16.0710274 195.229236,15.7998418 C194.341904,14.0248089 193.993097,13.3345183 193.060312,12.3917786 C192.543525,11.3671902 192.032667,10.5565918 191.533667,9.80220287 C193.625517,9.53989246 195.600769,7.96208544 195.600769,5.47013649 L195.600769,5.47013649 Z M190.22836,8.84467124 L187.221511,8.84762963 C187.156295,8.82297639 187.017958,8.65237601 186.919146,8.48177563 L186.915194,2.39538508 C186.939897,2.33128667 187.11183,2.19224242 187.282775,2.09362948 L188.998151,2.08968497 C190.984272,2.42102444 192.122586,3.76709105 192.122586,5.77879499 C192.122586,6.82803665 191.623586,8.25102135 190.22836,8.84467124 L190.22836,8.84467124 Z" id="Fill-17"></path>
                    <path d="M205.800143,16.2800868 L204.525468,16.2800868 L204.525468,17.2770636 L210.79509,17.2770636 L210.79509,16.2800868 L209.557964,16.2869897 C209.476938,16.2416277 209.244729,15.8570373 209.244729,15.0740506 L209.244729,8.91074191 L217.858171,8.91074191 L217.858171,15.0740506 C217.858171,15.4369462 217.799872,16.2800868 217.272216,16.2800868 L215.513363,16.2800868 L216.507411,17.2770636 L222.267163,17.2770636 L222.267163,16.2800868 L221.303746,16.2800868 C221.086359,16.2800868 221.027072,16.129209 221.027072,15.0740506 L221.027072,2.99002109 C221.027072,2.09362948 221.027072,2.09362948 221.303746,2.09362948 L222.267163,2.09362948 L222.267163,1.09862494 L216.341407,1.09862494 L216.09833,1.68438579 L216.509388,2.09362948 L217.272216,2.09362948 C217.560747,2.09362948 217.858171,2.09362948 217.858171,2.99002109 L217.858171,7.9137651 L209.244729,7.9137651 L209.244729,2.99002109 C209.244729,2.09362948 209.543142,2.09362948 209.831673,2.09362948 L210.79509,2.09362948 L210.79509,1.09862494 L204.869334,1.09862494 L204.626257,1.68438579 L205.037315,2.09362948 L205.800143,2.09362948 C205.90686,2.09362948 206.075829,2.33818957 206.075829,2.99002109 L206.075829,15.0740506 C206.075829,15.8570373 205.84362,16.2416277 205.800143,16.2800868" id="Fill-18"></path>
                    <path d="M247.071939,9.18784427 C247.071939,3.38545898 242.538445,0.788980311 238.046451,0.788980311 C233.554458,0.788980311 229.020963,3.38545898 229.020963,9.18784427 C229.020963,14.0534066 232.816332,17.5857221 238.046451,17.5857221 C243.27657,17.5857221 247.071939,14.0534066 247.071939,9.18784427 L247.071939,9.18784427 Z M232.499145,9.18784427 C232.499145,6.42273748 233.221461,1.78497099 238.046451,1.78497099 C242.871441,1.78497099 243.593757,6.42273748 243.593757,9.18784427 C243.593757,12.61563 242.135292,16.2800868 238.046451,16.2800868 C234.67795,16.2800868 232.499145,13.4962435 232.499145,9.18784427 L232.499145,9.18784427 Z" id="Fill-19"></path>
                    <path d="M258.512392,2.09362948 L259.274233,2.09362948 L259.684303,1.68438579 L259.441225,1.09862494 L253.550054,1.09862494 L253.306976,1.68438579 L253.717046,2.09362948 L254.480863,2.09362948 C254.586592,2.09362948 254.756548,2.33818957 254.756548,2.99002109 L254.756548,11.3563428 C254.756548,15.3738339 257.40965,17.5857221 262.231676,17.5857221 C266.368934,17.5857221 268.466713,15.3866536 268.466713,11.045712 L268.466713,10.7360674 C268.466713,4.71377526 268.723624,3.26317893 269.270055,2.09362948 L270.436036,2.09362948 L270.847094,1.68438579 L270.604017,1.09862494 L265.643654,1.09862494 L265.400577,1.68438579 L265.810647,2.09362948 L266.957854,2.09362948 C267.4697,3.47716901 267.4697,4.66348266 267.4697,10.7360674 L267.4697,11.045712 C267.4697,14.5188597 265.810647,16.2800868 262.542934,16.2800868 C259.392807,16.2800868 257.925449,14.7150995 257.925449,11.3563428 L257.925449,2.99002109 C257.925449,2.09362948 258.223861,2.09362948 258.512392,2.09362948" id="Fill-20"></path>
                    <path d="M277.735279,11.1788395 L277.082131,11.8346155 L277.082131,11.9766182 C277.082131,12.2852767 277.148335,12.6481723 277.218492,13.0327627 C277.299518,13.4725764 277.391413,13.9745163 277.391413,14.4537752 L277.391413,17.2770636 L278.389414,17.2770636 L278.389414,17.0433509 L278.477357,17.0611013 C279.794521,17.3313007 281.039552,17.5857221 283.004923,17.5857221 C285.879364,17.5857221 288.932654,15.6203662 288.932654,11.9766182 C288.932654,9.63160249 287.619443,8.30328621 284.944602,7.92264027 L280.943704,7.00060929 C280.225341,6.76393824 279.009953,5.97700699 279.009953,4.53923035 C279.009953,3.20992795 280.36763,1.78497099 282.385371,1.78497099 C284.377421,1.78497099 286.11256,3.17935794 286.729147,5.31334192 L287.040405,5.9336173 L287.412926,6.33201357 L288.001845,6.08942574 L288.001845,5.77879499 C288.001845,5.46421972 288.001845,4.51950777 287.691576,3.55605936 L287.691576,1.29782307 L287.036452,0.64697768 L286.587846,1.09270816 C286.381329,1.08186074 286.090821,1.04833234 285.743991,1.0069149 C284.964364,0.915204872 283.896207,0.788980311 282.695641,0.788980311 C279.901238,0.788980311 277.082131,2.33128667 277.082131,5.77879499 C277.082131,8.5715134 278.293566,10.1019862 280.752997,10.451076 L284.489079,11.3829683 C285.921853,11.6689458 286.383305,12.1896221 286.383305,13.5248413 C286.383305,15.1726635 285.025628,16.2800868 283.004923,16.2800868 C280.03661,16.2800868 278.945726,14.5099845 278.389414,13.1481399 L278.389414,11.8346155 L277.735279,11.1788395" id="Fill-21"></path>
                    <path d="M296.648883,16.2800868 L294.892006,16.2800868 L295.886055,17.2770636 L301.611222,17.2770636 C303.52027,17.2770636 306.681266,17.5216237 307.347259,17.5748747 L307.811675,18.0383555 L308.444072,17.4082188 L308.461858,17.2987584 C308.538931,16.8333054 308.59723,16.4250478 308.650589,16.0513048 C308.8077,14.9517705 308.921334,14.1579364 309.372905,13.0327627 L309.396619,12.5939352 L308.809676,12.3513473 L308.498418,12.6629642 L308.41344,12.7970778 C308.238543,13.3207125 308.179256,13.4045335 308.096253,13.5199106 C308.026097,13.6145791 307.945071,13.7279839 307.813651,13.9922666 C307.563657,14.490262 306.735612,15.0681338 305.798875,15.3866536 C305.126953,15.7189792 303.611177,16.2800868 300.989695,16.2800868 C300.395834,16.2800868 300.09347,15.9773451 300.09347,15.382709 L300.09347,9.53101729 L301.611222,9.53101729 C303.085497,9.53101729 303.801884,9.80910578 304.057807,10.4846044 L304.057807,11.8070039 L304.466889,12.219206 L305.055808,11.9766182 L305.055808,5.77879499 L304.466889,5.53620716 L304.057807,5.94840924 L304.057807,6.95919186 C303.755442,7.77570699 302.889849,8.22439586 301.611222,8.22439586 L300.09347,8.25693813 L300.09347,2.99002109 C300.09347,2.6813626 300.215997,2.09362948 300.680413,2.09362948 L302.851313,2.09362948 C304.304837,2.09362948 306.043928,2.98311819 307.158528,3.78484138 L307.158528,4.06292986 L307.259316,4.16351506 C307.408522,4.3124206 307.649623,5.00073891 307.778079,5.47013649 L307.778079,5.77879499 L308.364034,6.02138282 L308.800783,5.58847202 L308.772128,5.41392712 C308.678256,4.85775014 308.586361,4.38440804 308.501383,3.9534695 C308.301782,2.92789494 308.155541,2.18731178 308.155541,1.13215334 L308.155541,0.990150705 L307.502393,0.334374665 L306.848258,0.990150705 L306.848258,1.0572075 C306.812686,1.07298557 306.73166,1.09862494 306.571584,1.09862494 L295.686455,1.09862494 L295.686455,2.09362948 L296.648883,2.09362948 C296.926545,2.09362948 296.926545,2.09362948 296.926545,2.99002109 L296.926545,15.0740506 C296.926545,16.129209 296.867258,16.2800868 296.648883,16.2800868" id="Fill-22"></path>
                    <path d="M116.189517,2.09362948 L116.892071,1.78497099 L117.121315,1.78497099 L117.363404,1.19921013 L116.953334,0.788980311 L116.811045,0.788980311 C116.162838,0.788980311 115.674707,0.86984292 115.203374,0.947747142 C114.738957,1.02466523 114.30122,1.09862494 113.710324,1.09862494 C113.273575,1.09862494 112.835838,1.02466523 112.371422,0.947747142 C111.8991,0.86984292 111.412945,0.788980311 110.919873,0.788980311 L110.777584,0.788980311 L110.365538,1.19723788 L110.608616,1.78497099 L111.482114,1.78497099 C112.236049,2.05418431 112.489996,2.55908255 112.781492,3.14287115 C113.212312,4.0037621 113.642144,4.92875146 114.10162,5.92079762 C114.649038,7.09922223 115.214243,8.31807815 115.869366,9.62469958 C116.465203,11.1098104 117.060051,12.3838896 117.584743,13.507091 C118.154888,14.7249608 118.645984,15.7781469 118.964158,16.7327202 C119.303083,17.7444889 119.702284,17.8953667 119.911765,17.8953667 L120.124211,17.8953667 L120.52934,17.0867406 C121.151856,15.8412592 121.548092,14.9714931 121.929506,14.132297 C122.309933,13.2970454 122.702216,12.4322099 123.298053,11.236035 L123.555952,10.8514445 L124.463046,13.0179708 C125.030227,14.3265645 125.372116,15.115468 126.099373,17.0541984 L127.136899,18.1320378 L127.351321,17.7060299 C127.404679,17.5985418 127.65665,17.0798377 127.69321,16.7070808 C128.280154,15.4191958 128.731724,14.4882897 129.136854,13.6559965 C129.797906,12.2961241 130.319633,11.2232153 131.070604,9.34069432 C132.28204,6.91974668 134.083382,3.32136057 134.456892,2.57387449 L135.031978,1.99896106 C135.042847,1.9900859 135.269126,1.78497099 135.72465,1.78497099 L136.068515,1.78497099 L136.068515,0.788980311 L135.72465,0.788980311 C135.216756,0.788980311 134.880795,0.871815179 134.556692,0.952677788 C134.257291,1.02860975 133.976665,1.09862494 133.55375,1.09862494 C133.12293,1.09862494 132.763254,1.02663749 132.38184,0.948733271 C131.983627,0.86984292 131.572569,0.788980311 131.074557,0.788980311 L130.932268,0.788980311 L130.520222,1.19723788 L130.762311,1.78497099 L131.074557,1.78497099 C131.309729,1.78497099 131.8611,1.78497099 132.069594,1.99107203 C132.158525,2.08278206 132.281051,2.26422987 132.281051,2.37073184 C132.281051,2.65966775 132.281051,2.90915848 132.006354,3.45744642 L131.974734,3.55803162 C131.659524,5.12301895 131.3621,6.60221302 130.455006,8.41471883 C129.127961,11.0654346 128.438253,12.5998519 128.028183,13.5139939 C128.004468,13.5642865 127.982729,13.6135929 127.962967,13.659941 C126.213007,10.1295978 123.303981,3.97910886 123.030272,2.88253299 C122.864268,2.38650991 122.938377,2.22675695 122.965056,2.18928403 C123.008533,2.13011627 123.137977,2.09362948 123.321767,2.09362948 L123.464057,2.09362948 L123.564845,1.99501655 C123.762469,1.79680454 123.944283,1.78497099 123.944283,1.78497099 L124.252577,1.78497099 L124.495654,1.19921013 L124.084596,0.788980311 L123.942307,0.788980311 C123.2941,0.788980311 122.806957,0.86984292 122.334636,0.947747142 C121.870219,1.02466523 121.432482,1.09862494 120.842574,1.09862494 C120.208201,1.09862494 119.747737,1.01381781 119.301107,0.932955201 C118.895978,0.858009368 118.514564,0.788980311 118.052124,0.788980311 L117.909834,0.788980311 L117.4968,1.19723788 L117.739878,1.78497099 L118.586696,1.78497099 C119.121269,2.0739069 119.646949,2.61134741 119.912754,3.14287115 C120.343574,4.0037621 120.774394,4.92875146 121.232882,5.92276988 C121.760538,7.05484641 122.302028,8.22439586 122.938377,9.49847502 C122.765456,9.85249547 122.347481,10.7400119 122.091558,11.4825673 C121.611332,11.9854933 121.157785,12.7812997 120.824788,13.4212977 C118.722069,9.71049284 116.744841,5.13781089 115.898022,2.88253299 C115.833794,2.6882655 115.7834,2.4229967 115.906915,2.25042406 C115.987941,2.13701918 116.123313,2.09362948 116.189517,2.09362948" id="Fill-23"></path>
                </g>
            </g>
        </g>
    </g>
</svg>