<?xml version="1.0" encoding="UTF-8" standalone="no"?>
<svg width="365px" height="125px" viewBox="0 0 365 125" version="1.1" xmlns="http://www.w3.org/2000/svg" xmlns:xlink="http://www.w3.org/1999/xlink" xmlns:sketch="http://www.bohemiancoding.com/sketch/ns">
    <!-- Generator: Sketch 3.2.2 (9983) - http://www.bohemiancoding.com/sketch -->
    <title>publix</title>
    <desc>Created with Sketch.</desc>
    <defs></defs>
    <g id="Welcome" stroke="none" stroke-width="1" fill="none" fill-rule="evenodd" sketch:type="MSPage">
        <g id="Desktop-HD---Why-Us" sketch:type="MSArtboardGroup" transform="translate(-1006.000000, -1164.000000)">
            <g id="publix" sketch:type="MSLayerGroup" transform="translate(1006.000000, 1164.000000)">
                <rect id="Rectangle-84" fill="#FFFFFF" sketch:type="MSShapeGroup" x="0" y="0" width="365" height="125"></rect>
                <g transform="translate(79.000000, 38.000000)" fill="#95A2AA" sketch:type="MSShapeGroup">
                    <path d="M137.556341,4.52635042 L145.574931,4.52635042 L145.574931,48.9669956 L137.556341,48.9669956 L137.556341,4.52635042 Z" id="Fill-1"></path>
                    <path d="M193.788719,40.0204377 C191.137545,45.1650822 189.040449,49.1011475 188.92729,49.1011475 L180.583769,49.1011475 L189.090159,32.3244827 L179.183416,16.0387654 L187.88339,16.0387654 L192.992558,24.5359952 L197.278085,16.0387654 L205.962701,16.0387654 C205.962701,16.0387654 201.881671,24.2236475 197.69516,32.4279251 L207.709809,49.1011475 L199.359822,49.1011475 L193.788719,40.0204377" id="Fill-2"></path>
                    <path d="M47.2288924,34.7044667 L47.2155557,15.9619917 L54.8162623,15.9619917 C54.9803441,22.0683275 54.721693,28.9961417 54.8118167,34.7727548 C54.8118167,38.7350847 57.9835265,42.1733333 61.9586714,42.1733333 C65.9261376,42.1733333 69.1144172,39.2126978 69.1144172,35.2414783 L69.0925936,15.9619917 L76.8032269,15.9619917 C76.7963565,25.7227546 76.704212,27.6574512 76.8076725,34.9707501 C76.8076725,43.148763 70.0350537,49.7747355 61.8645062,49.7747355 C53.6822386,49.7747355 47.2288924,42.8820755 47.2288924,34.7044667" id="Fill-3"></path>
                    <path d="M107.986857,41.8941195 C113.087134,41.8941195 117.237677,37.7511695 117.237677,32.6396588 C117.237677,27.5301686 113.087134,23.3916633 107.986857,23.3916633 C102.877688,23.3916633 98.731995,27.5301686 98.731995,32.6396588 C98.731995,37.7511695 102.877688,41.8941195 107.986857,41.8941195 M108.043032,15.1231382 C117.710928,15.1231382 125.552503,22.9556696 125.552503,32.6174349 C125.552503,42.2860694 117.710928,50.1117315 108.043032,50.1117315 C98.3852408,50.1117315 90.4511167,41.7442088 90.4511167,32.0828476 L90.4664741,4.50614682 L98.4887013,4.50614682 L98.4349504,18.3880399 C101.225554,16.5014278 104.426766,15.1231382 108.043032,15.1231382" id="Fill-4"></path>
                    <path d="M17.6056566,29.9537923 C22.6970429,29.9537923 26.8209122,25.8371069 26.8209122,20.7498406 C26.8209122,15.6670191 22.6970429,11.5394238 17.6056566,11.5394238 C12.5263945,11.5394238 8.4033335,15.6670191 8.4033335,20.7498406 C8.40373764,25.837511 12.5263945,29.9537923 17.6056566,29.9537923 M17.6246513,3.2312997 C27.2804221,3.2312997 35.1175521,11.0727207 35.1175521,20.7324656 C35.1175521,30.3922104 27.280018,38.2267622 17.6246513,38.2267622 C14.1591299,38.2267622 10.9082083,37.3438649 8.18913801,35.6047391 L8.16933503,49.019929 L0.143066419,49.019929 L0.138620853,20.4023387 C0.13821671,10.7425938 7.95877683,3.2312997 17.6246513,3.2312997" id="Fill-5"></path>
                    <path d="M159.248686,15.964012 L167.28425,15.964012 L167.28425,48.9669956 L159.248686,48.9669956 L159.248686,15.964012 Z" id="Fill-6"></path>
                    <path d="M168.868893,6.4218521 C168.868893,9.51542722 166.360785,12.023098 163.26667,12.023098 C160.172556,12.023098 157.664044,9.51542722 157.664044,6.4218521 C157.664044,3.32787291 160.172556,0.820202161 163.26667,0.820202161 C166.360785,0.820202161 168.868893,3.32787291 168.868893,6.4218521" id="Fill-7"></path>
                </g>
            </g>
        </g>
    </g>
</svg>