<?xml version="1.0" encoding="UTF-8" standalone="no"?>
<svg width="478px" height="317px" viewBox="0 0 478 317" version="1.1" xmlns="http://www.w3.org/2000/svg" xmlns:xlink="http://www.w3.org/1999/xlink" xmlns:sketch="http://www.bohemiancoding.com/sketch/ns">
    <!-- Generator: Sketch 3.2.2 (9983) - http://www.bohemiancoding.com/sketch -->
    <title>unified-graphic</title>
    <desc>Created with Sketch.</desc>
    <defs></defs>
    <g id="Welcome" stroke="none" stroke-width="1" fill="none" fill-rule="evenodd" sketch:type="MSPage">
        <g id="Desktop-HD---Product" sketch:type="MSArtboardGroup" transform="translate(-763.000000, -1687.000000)">
            <g id="unified-graphic" sketch:type="MSLayerGroup" transform="translate(763.000000, 1687.000000)">
                <path d="M2.19859043,36.8381687 L471.506281,36.8381687 L471.506281,311.737737 L2.19859043,311.737737 L2.19859043,36.8381687 Z" id="Fill-1" fill="#FFFFFF" sketch:type="MSShapeGroup"></path>
                <path d="M473.38316,39.8381687 L473.38316,313.162963 L3.47504592,313.162963 L3.47504592,39.8381687 L0.623104634,39.8381687 L0.623104634,316.310151 L476.235102,316.310151 L476.235102,39.8381687 L473.38316,39.8381687" id="Fill-2" fill="#AFBAB9" sketch:type="MSShapeGroup"></path>
                <path d="M477.075218,39.8381687 L2.19937818,39.8381687 L2.19937818,7.30987841 C2.19937818,4.54733747 4.2378253,2.30788586 6.75241129,2.30788586 L472.522185,2.30788586 C475.036771,2.30788586 477.075218,4.54733747 477.075218,7.30987841 L477.075218,39.8381687" id="Fill-3" fill="#DFE0DC" sketch:type="MSShapeGroup"></path>
                <path d="M475.647084,39.8381687 L475.647084,38.2649677 L3.48016108,38.2649677 L3.48016108,7.30987841 C3.48087515,6.35809181 3.82648366,5.51092308 4.39131079,4.88478908 C4.95970827,4.26180149 5.72875861,3.88187345 6.5927799,3.88030025 L471.106331,3.88030025 C471.970352,3.88187345 472.739402,4.26180149 473.307086,4.88478908 C473.872627,5.51092308 474.218235,6.35809181 474.21895,7.30987841 L474.21895,39.8381687 L475.647084,39.8381687 L475.647084,38.2649677 L475.647084,39.8381687 L477.075218,39.8381687 L477.075218,7.30987841 C477.074504,3.67735732 474.403179,0.735471464 471.106331,0.734684864 L6.5927799,0.734684864 C3.29521768,0.735471464 0.624606444,3.67735732 0.623892377,7.30987841 L0.623892377,41.4105831 L477.075218,41.4105831 L477.075218,39.8381687 L475.647084,39.8381687" id="Fill-4" fill="#AFBAB9" sketch:type="MSShapeGroup"></path>
                <path d="M26.9683782,21.0730273 C26.9683782,24.9100645 23.8512795,28.0210695 20.0055187,28.0210695 C16.1605456,28.0210695 13.0434469,24.9100645 13.0434469,21.0730273 C13.0434469,17.2359901 16.1605456,14.1249851 20.0055187,14.1249851 C23.8512795,14.1249851 26.9683782,17.2359901 26.9683782,21.0730273" id="Fill-5" fill="#FFFFFF" sketch:type="MSShapeGroup"></path>
                <path d="M26.9683782,21.0730273 L25.3928924,21.0730273 C25.3921046,22.5612754 24.7926323,23.8953499 23.8150433,24.8730943 C22.8350912,25.8476923 21.4982915,26.4462953 20.0055187,26.4478685 C18.5127459,26.4462953 17.1759462,25.8476923 16.195994,24.8730943 C15.2191928,23.8953499 14.6197205,22.5612754 14.6189327,21.0730273 C14.6197205,19.5839926 15.2191928,18.2507047 16.195994,17.2729603 C17.1759462,16.2975757 18.5127459,15.6989727 20.0055187,15.6981861 C21.4982915,15.6989727 22.8350912,16.2975757 23.8150433,17.2729603 C24.7926323,18.2507047 25.3921046,19.5839926 25.3928924,21.0730273 L28.543864,21.0730273 C28.5422885,16.3660099 24.7209477,12.5525707 20.0055187,12.5517841 C15.2908774,12.5525707 11.4687489,16.3660099 11.4679611,21.0730273 C11.4687489,25.7800447 15.2908774,29.5934839 20.0055187,29.5934839 C24.7209477,29.5934839 28.5422885,25.7800447 28.543864,21.0730273 L26.9683782,21.0730273" id="Fill-6" fill="#AFBAB9" sketch:type="MSShapeGroup"></path>
                <path d="M49.5482407,21.0730273 C49.5482407,24.9100645 46.431142,28.0210695 42.5861689,28.0210695 C38.7411958,28.0210695 35.6240972,24.9100645 35.6240972,21.0730273 C35.6240972,17.2359901 38.7411958,14.1249851 42.5861689,14.1249851 C46.431142,14.1249851 49.5482407,17.2359901 49.5482407,21.0730273" id="Fill-7" fill="#FFFFFF" sketch:type="MSShapeGroup"></path>
                <path d="M49.5482407,21.0730273 L47.9727549,21.0730273 C47.9719671,22.5612754 47.3724948,23.8953499 46.3956936,24.8730943 C45.4157414,25.8476923 44.0789417,26.4462953 42.5861689,26.4478685 C41.0933961,26.4462953 39.7565964,25.8476923 38.7766442,24.8730943 C37.799843,23.8953499 37.2003707,22.5612754 37.199583,21.0730273 C37.2003707,19.5839926 37.799843,18.2507047 38.7766442,17.2729603 C39.7565964,16.2975757 41.0933961,15.6989727 42.5861689,15.6981861 C44.0789417,15.6989727 45.4157414,16.2975757 46.3956936,17.2729603 C47.3724948,18.2507047 47.9719671,19.5839926 47.9727549,21.0730273 L51.1237265,21.0730273 C51.1229387,16.3660099 47.3015979,12.5525707 42.5861689,12.5517841 C37.8707399,12.5525707 34.0493991,16.3660099 34.0486114,21.0730273 C34.0493991,25.7800447 37.8707399,29.5934839 42.5861689,29.5934839 C47.3015979,29.5934839 51.1229387,25.7800447 51.1237265,21.0730273 L49.5482407,21.0730273" id="Fill-8" fill="#AFBAB9" sketch:type="MSShapeGroup"></path>
                <path d="M72.1288909,21.0730273 C72.1288909,24.9100645 69.0117922,28.0210695 65.1668191,28.0210695 C61.321846,28.0210695 58.2047474,24.9100645 58.2047474,21.0730273 C58.2047474,17.2359901 61.321846,14.1249851 65.1668191,14.1249851 C69.0117922,14.1249851 72.1288909,17.2359901 72.1288909,21.0730273" id="Fill-9" fill="#FFFFFF" sketch:type="MSShapeGroup"></path>
                <path d="M72.1288909,21.0730273 L70.5534051,21.0730273 C70.5526173,22.5612754 69.953145,23.8953499 68.9763438,24.8730943 C67.9963916,25.8476923 66.6595919,26.4462953 65.1668191,26.4478685 C63.6740463,26.4462953 62.3372466,25.8476923 61.3572945,24.8730943 C60.3797055,23.8953499 59.7802332,22.5612754 59.7794454,21.0730273 C59.7802332,19.5839926 60.3797055,18.2507047 61.3572945,17.2729603 C62.3372466,16.2975757 63.6740463,15.6989727 65.1668191,15.6981861 C66.6595919,15.6989727 67.9963916,16.2975757 68.9763438,17.2729603 C69.953145,18.2507047 70.5526173,19.5839926 70.5534051,21.0730273 L73.7043767,21.0730273 C73.7035889,16.3660099 69.8814604,12.5525707 65.1668191,12.5517841 C60.4513901,12.5525707 56.6300493,16.3660099 56.6292616,21.0730273 C56.6300493,25.7800447 60.4513901,29.5934839 65.1668191,29.5934839 C69.8814604,29.5934839 73.7035889,25.7800447 73.7043767,21.0730273 L72.1288909,21.0730273" id="Fill-10" fill="#AFBAB9" sketch:type="MSShapeGroup"></path>
                <path d="M148.406036,176.366844 L84.4129537,176.366844 C83.7055605,176.366844 83.1320837,175.793412 83.1320837,175.087045 L83.1320837,168.037531 C83.1320837,167.330377 83.7055605,166.757732 84.4129537,166.757732 L148.406036,166.757732 C149.113429,166.757732 149.687694,167.330377 149.687694,168.037531 L149.687694,175.087045 C149.687694,175.793412 149.113429,176.366844 148.406036,176.366844" id="Fill-11" fill="#AFBCBE" sketch:type="MSShapeGroup"></path>
                <path d="M438.76413,187.346213 L84.4129537,187.346213 C83.7055605,187.346213 83.1320837,186.773568 83.1320837,186.067201 L83.1320837,181.738538 C83.1320837,181.032171 83.7055605,180.458739 84.4129537,180.458739 L438.76413,180.458739 C439.472311,180.458739 440.045788,181.032171 440.045788,181.738538 L440.045788,186.067201 C440.045788,186.773568 439.472311,187.346213 438.76413,187.346213" id="Fill-12" fill="#E2E6E4" sketch:type="MSShapeGroup"></path>
                <path d="M438.76413,198.327156 L84.4129537,198.327156 C83.7055605,198.327156 83.1320837,197.753725 83.1320837,197.047357 L83.1320837,192.718695 C83.1320837,192.012328 83.7055605,191.438896 84.4129537,191.438896 L438.76413,191.438896 C439.472311,191.438896 440.045788,192.012328 440.045788,192.718695 L440.045788,197.047357 C440.045788,197.753725 439.472311,198.327156 438.76413,198.327156" id="Fill-13" fill="#E2E6E4" sketch:type="MSShapeGroup"></path>
                <path d="M174.955335,82.1989653 L110.962253,82.1989653 C110.254859,82.1989653 109.680595,81.6263201 109.680595,80.9191663 L109.680595,73.8696526 C109.680595,73.1632854 110.254859,72.5906402 110.962253,72.5906402 L174.955335,72.5906402 C175.662728,72.5906402 176.236205,73.1632854 176.236205,73.8696526 L176.236205,80.9191663 C176.236205,81.6263201 175.662728,82.1989653 174.955335,82.1989653" id="Fill-14" fill="#AFBCBE" sketch:type="MSShapeGroup"></path>
                <path d="M245.927819,93.1791216 L110.962253,93.1791216 C110.254859,93.1791216 109.680595,92.6064764 109.680595,91.8993226 L109.680595,87.5714467 C109.680595,86.8642928 110.254859,86.2916476 110.962253,86.2916476 L245.927819,86.2916476 C246.635212,86.2916476 247.208689,86.8642928 247.208689,87.5714467 L247.208689,91.8993226 C247.208689,92.6064764 246.635212,93.1791216 245.927819,93.1791216" id="Fill-15" fill="#E2E6E4" sketch:type="MSShapeGroup"></path>
                <path d="M245.927819,104.159278 L110.962253,104.159278 C110.254859,104.159278 109.680595,103.586633 109.680595,102.880266 L109.680595,98.551603 C109.680595,97.8452357 110.254859,97.271804 110.962253,97.271804 L245.927819,97.271804 C246.635212,97.271804 247.208689,97.8452357 247.208689,98.551603 L247.208689,102.880266 C247.208689,103.586633 246.635212,104.159278 245.927819,104.159278" id="Fill-16" fill="#E2E6E4" sketch:type="MSShapeGroup"></path>
                <path d="M373.94629,88.5491911 L437.075218,88.5491911 L437.075218,95.4374516 L373.94629,95.4374516 L373.94629,88.5491911 Z" id="Fill-17" fill="#E2E6E4" sketch:type="MSShapeGroup"></path>
                <path d="M373.94629,77.300804 L437.075218,77.300804 L437.075218,84.1882779 L373.94629,84.1882779 L373.94629,77.300804 Z" id="Fill-18" fill="#E2E6E4" sketch:type="MSShapeGroup"></path>
                <path d="M373.94629,99.530134 L437.075218,99.530134 L437.075218,106.417608 L373.94629,106.417608 L373.94629,99.530134 Z" id="Fill-19" fill="#E2E6E4" sketch:type="MSShapeGroup"></path>
                <path d="M148.406036,248.739596 L84.4129537,248.739596 C83.7055605,248.739596 83.1320837,248.166164 83.1320837,247.459797 L83.1320837,240.411069 C83.1320837,239.703916 83.7055605,239.13127 84.4129537,239.13127 L148.406036,239.13127 C149.113429,239.13127 149.687694,239.703916 149.687694,240.411069 L149.687694,247.459797 C149.687694,248.166164 149.113429,248.739596 148.406036,248.739596" id="Fill-20" fill="#AFBCBE" sketch:type="MSShapeGroup"></path>
                <path d="M438.76413,259.719752 L84.4129537,259.719752 C83.7055605,259.719752 83.1320837,259.147107 83.1320837,258.440739 L83.1320837,254.11129 C83.1320837,253.404923 83.7055605,252.831491 84.4129537,252.831491 L438.76413,252.831491 C439.472311,252.831491 440.045788,253.404923 440.045788,254.11129 L440.045788,258.440739 C440.045788,259.147107 439.472311,259.719752 438.76413,259.719752" id="Fill-21" fill="#E2E6E4" sketch:type="MSShapeGroup"></path>
                <path d="M438.76413,270.700695 L84.4129537,270.700695 C83.7055605,270.700695 83.1320837,270.127263 83.1320837,269.420109 L83.1320837,265.091447 C83.1320837,264.385079 83.7055605,263.812434 84.4129537,263.812434 L438.76413,263.812434 C439.472311,263.812434 440.045788,264.385079 440.045788,265.091447 L440.045788,269.420109 C440.045788,270.127263 439.472311,270.700695 438.76413,270.700695" id="Fill-22" fill="#E2E6E4" sketch:type="MSShapeGroup"></path>
                <path d="M61.2399208,181.449856 C61.2399208,190.203146 54.1329043,197.299856 45.3661136,197.299856 C36.5993229,197.299856 29.4923064,190.203146 29.4923064,181.449856 C29.4923064,172.694993 36.5993229,165.599069 45.3661136,165.599069 C54.1329043,165.599069 61.2399208,172.694993 61.2399208,181.449856" id="Fill-23" fill="#E2E6E4" sketch:type="MSShapeGroup"></path>
                <path d="M49.8822436,181.209943 L39.4619806,171.180787 C39.3729656,171.094261 39.2351106,171.087968 39.1382182,171.163481 C39.0413259,171.238995 39.0318729,171.447444 39.0925291,171.553635 L44.2963587,180.693933 L40.80587,181.533236 C40.7176428,181.554474 40.6302033,181.548968 40.6073587,181.63628 C40.5837265,181.72438 40.6018445,181.781015 40.6672272,181.843156 L51.1733543,191.724432 C51.2355859,191.783427 51.3198744,191.794439 51.3986487,191.775561 L51.4939656,191.723645 C51.5900703,191.646558 51.6255187,191.552166 51.5624993,191.446762 L46.2334185,182.571548 L49.7900777,181.716514 C49.8775172,181.695275 49.9365979,181.582792 49.9602302,181.496266 C49.9838625,181.408953 49.9468386,181.271298 49.8822436,181.209943" id="Fill-24" fill="#AFBCBE" sketch:type="MSShapeGroup"></path>
                <path d="M66.0278221,80.7940968 L64.8462078,80.7940968 C64.8469955,83.644737 63.877284,86.2059082 62.3600912,88.0221687 C60.8358087,89.8407891 58.8136726,90.9026998 56.6056293,90.904273 C54.3975859,90.9026998 52.3746622,89.8407891 50.8503797,88.0221687 C49.3331868,86.2059082 48.3634753,83.644737 48.3650508,80.7940968 C48.3634753,77.9418834 49.3331868,75.3814988 50.8503797,73.5660248 C52.3746622,71.7466179 54.3975859,70.6847072 56.6056293,70.683134 C58.8136726,70.6847072 60.8358087,71.7466179 62.3600912,73.5660248 C63.877284,75.3814988 64.8469955,77.9418834 64.8462078,80.7940968 L67.2094365,80.7940968 C67.207861,77.4101414 66.067997,74.3250943 64.1758386,72.0549653 C62.2891943,69.787196 59.6006278,68.3225459 56.6056293,68.3241191 C53.609843,68.3225459 50.9212765,69.787196 49.03542,72.0549653 C47.1424738,74.3250943 46.0026099,77.4101414 46.0018221,80.7940968 C46.0026099,84.1772655 47.1424738,87.2623127 49.03542,89.5324417 C50.9212765,91.8002109 53.609843,93.2656476 56.6056293,93.2640744 C59.6006278,93.2656476 62.2891943,91.8002109 64.1758386,89.5324417 C66.067997,87.2623127 67.207861,84.1772655 67.2094365,80.7940968 L66.0278221,80.7940968" id="Fill-25" fill="#FFFFFF" sketch:type="MSShapeGroup"></path>
                <path d="M60.5892451,96.5127345 L61.6755426,99.3012333 L71.8082795,102.546747 L71.8563318,102.557759 L71.9737055,102.045682 L71.7586517,102.528655 L71.8563318,102.557759 L71.9737055,102.045682 L71.7586517,102.528655 C71.7562885,102.535734 72.1816697,102.685975 72.6866129,103.762045 C73.1836786,104.835754 73.7043767,106.850238 73.7028012,110.3923 L74.8844155,110.3923 L74.8844155,109.2124 L38.326843,109.2124 L38.326843,110.3923 L39.5084574,110.3923 C39.5053064,106.366479 40.186704,104.319744 40.7341854,103.370318 C41.0083199,102.892851 41.2430673,102.680469 41.3659552,102.588437 L41.4659985,102.523935 L41.250157,102.056695 L41.3730448,102.55304 L41.4659985,102.523935 L41.250157,102.056695 L41.3730448,102.55304 L41.4163707,102.542027 L51.5349283,99.3012333 L52.6818819,96.3593474 L50.4801405,95.5035261 L49.7412377,97.3968734 L40.7294589,100.283697 L41.0902451,101.407749 L40.8082332,100.261672 C40.6727414,100.293923 40.3458281,100.402474 39.9511689,100.698236 C39.3548475,101.141092 38.6356383,101.99062 38.0905202,103.49696 C37.5422511,105.007233 37.1460164,107.18061 37.1452287,110.3923 L37.1452287,111.572201 L76.0660299,111.572201 L76.0660299,110.3923 C76.0628789,106.089596 75.3633632,103.644055 74.527568,102.180191 C74.1092765,101.451012 73.6500224,100.976692 73.2514245,100.684864 C72.8528266,100.393035 72.5219746,100.28763 72.3841196,100.257739 L72.1202257,101.407749 L72.481012,100.283697 L63.4692332,97.3968734 L62.7909865,95.6569132 L60.5892451,96.5135211 L60.5892451,96.5127345" id="Fill-26" fill="#FFFFFF" sketch:type="MSShapeGroup"></path>
                <path d="M46.7249701,76.6156749 C46.7777489,76.6557916 47.5142885,77.2276501 48.7534081,77.8034417 C49.9917399,78.3768734 51.7413169,78.9581712 53.809142,78.9589578 C55.2073857,78.960531 56.7489985,78.6860074 58.3229088,77.9694144 C59.1437369,77.590273 59.6423782,77.4974541 59.7739312,77.5053201 L59.8109552,77.5076799 L59.8645217,77.2276501 L59.6998834,77.4541911 L59.8109552,77.5076799 L59.8645217,77.2276501 L59.6998834,77.4541911 L59.8629462,77.2292233 L59.6313498,77.3881166 L59.6998834,77.4541911 L59.8629462,77.2292233 L59.6313498,77.3881166 L59.6360762,77.3959826 C59.6534066,77.4250868 59.6975202,77.5344243 59.7510867,77.7011836 C59.8408894,77.9473896 59.9314798,78.3351836 60.274148,78.7780397 C60.4458759,78.9943548 60.6979537,79.2098834 61.0012347,79.3467519 C61.3029402,79.4859801 61.63458,79.5449752 61.9575546,79.543402 C62.5467862,79.5386824 63.129716,79.3790025 63.852864,79.0856005 C64.5752242,78.7898387 65.4370149,78.3469826 66.5241001,77.70433 L65.3212167,75.6749007 C64.2979387,76.2782233 63.5196487,76.6723102 62.9572003,76.9019975 C62.3963274,77.1356179 62.051296,77.1891067 61.9575546,77.1843871 L61.931559,77.1828139 L61.9307713,77.1828139 L61.8709028,77.4919479 L62.0560224,77.2433821 L61.9307713,77.1828139 L61.8709028,77.4919479 L62.0560224,77.2433821 L61.882719,77.4762159 L62.1261315,77.312603 L62.0560224,77.2433821 L61.882719,77.4762159 L62.1261315,77.312603 L62.1214051,77.3039504 C62.103287,77.273273 62.0591734,77.1607891 62.0048191,76.9900968 C61.9142287,76.7391712 61.8181241,76.3442978 61.4667907,75.9014417 C61.2911241,75.6851266 61.0351076,75.4727444 60.7318266,75.3382357 C60.4293333,75.2029404 60.0976936,75.144732 59.7739312,75.1455186 C59.0507833,75.1541712 58.3244843,75.3814988 57.3429567,75.821995 C56.0896577,76.3914938 54.9048924,76.5983697 53.809142,76.5999429 C52.1950568,76.6007295 50.7668789,76.1358486 49.7483274,75.6631017 C49.2402332,75.4271216 48.8353333,75.1911414 48.5643498,75.0188759 C48.428858,74.9323499 48.3272392,74.8623424 48.2626442,74.8167196 L48.1933229,74.7655906 L48.180719,74.7561514 L48.0160807,74.9708933 L48.1830822,74.7585112 L48.180719,74.7561514 L48.0160807,74.9708933 L48.1830822,74.7585112 L46.7249701,76.6156749" id="Fill-27" fill="#FFFFFF" sketch:type="MSShapeGroup"></path>
                <path d="M28.9085889,104.287494 L44.0206487,98.6664467 L45.263707,94.442402 C47.1464126,95.5247643 49.2488984,96.1493251 51.4758475,96.1493251 C53.7902362,96.1493251 55.9707085,95.4791414 57.9085561,94.3157593 L59.1673692,98.6664467 L74.279429,104.287494 C74.279429,104.287494 75.1703662,104.492797 76.1164454,105.973965 C81.2801001,100.181439 84.4224066,92.5529876 84.4224066,84.1882779 C84.4224066,66.0838809 69.7246996,51.4082754 51.594009,51.4082754 C33.4633184,51.4082754 18.7656114,66.0838809 18.7656114,84.1882779 C18.7656114,92.5584938 21.9118565,100.190878 27.0810254,105.984191 C28.0231659,104.505382 28.9085889,104.287494 28.9085889,104.287494 L28.9085889,104.287494 Z M51.4758475,61.9841191 C56.7174888,61.9841191 61.2414963,65.6984467 63.3707653,71.0536228 C59.5825097,73.4378089 58.7293842,73.2356526 58.665577,73.215201 C58.582864,73.1341811 58.4702167,72.7668387 58.4024709,72.5473772 C58.1992332,71.8858462 57.890438,70.8860769 56.8561315,70.4392878 C55.8714529,70.009804 54.5724649,70.2418511 52.6487967,71.1841985 C46.6926726,74.0961935 41.495145,70.8373077 40.1197459,69.8343921 C42.4191674,65.1446799 46.6430448,61.9841191 51.4758475,61.9841191 L51.4758475,61.9841191 Z M39.2256577,72.0109156 C41.4037668,73.4614069 47.1172661,76.448129 53.6618341,73.250598 C54.9553079,72.616598 55.56187,72.530072 55.7997683,72.530072 C55.9210807,72.530072 55.9297459,72.5426576 55.9305336,72.5426576 C56.0148221,72.6213176 56.1314081,72.9988859 56.2007294,73.223067 C56.4126323,73.9105558 56.7324559,74.9496551 57.8478999,75.3594739 C58.1228221,75.4609454 58.4229522,75.5120744 58.7561674,75.5120744 C59.9740179,75.5120744 61.6456084,74.8112134 64.1073049,73.3025136 C64.4751809,74.7640174 64.676843,76.3120471 64.676843,77.9159256 C64.676843,84.9355484 60.8917384,90.8971935 55.6595501,93.0155087 C54.3432317,93.5480372 52.9394738,93.8493052 51.4758475,93.8493052 C49.8790927,93.8493052 48.3548102,93.487469 46.9360852,92.8581886 C41.8905919,90.6171638 38.2756398,84.7742953 38.2756398,77.9159256 C38.2756398,75.8290744 38.6190957,73.8397618 39.2256577,72.0109156 L39.2256577,72.0109156 Z" id="Fill-28" fill="#E2E6E4" sketch:type="MSShapeGroup"></path>
                <path d="M51.594009,116.969854 C61.3478416,116.969854 70.1036039,112.717491 76.1164454,105.973965 C75.1703662,104.492797 74.279429,104.287494 74.279429,104.287494 L59.1673692,98.6664467 L57.9085561,94.3157593 C55.9707085,95.4791414 53.7902362,96.1493251 51.4758475,96.1493251 C49.2488984,96.1493251 47.1464126,95.5247643 45.263707,94.442402 L44.0206487,98.6664467 L28.9085889,104.287494 C28.9085889,104.287494 28.0231659,104.505382 27.0810254,105.984191 C33.0930792,112.722211 41.8449028,116.969854 51.594009,116.969854" id="Fill-29" fill="#AFBCBE" sketch:type="MSShapeGroup"></path>
                <path d="M46.9360852,92.8581886 C48.3548102,93.487469 49.8790927,93.8493052 51.4758475,93.8493052 C52.9394738,93.8493052 54.3432317,93.5480372 55.6595501,93.0155087 C60.8917384,90.8971935 64.676843,84.9355484 64.676843,77.9159256 C64.676843,76.3120471 64.4751809,74.7640174 64.1073049,73.3025136 C61.6456084,74.8112134 59.9740179,75.5120744 58.7561674,75.5120744 C58.4229522,75.5120744 58.1228221,75.4609454 57.8478999,75.3594739 C56.7324559,74.9496551 56.4126323,73.9105558 56.2007294,73.223067 C56.1314081,72.9988859 56.0148221,72.6213176 55.9305336,72.5426576 C55.9297459,72.5426576 55.9210807,72.530072 55.7997683,72.530072 C55.56187,72.530072 54.9553079,72.616598 53.6618341,73.250598 C47.1172661,76.448129 41.4037668,73.4614069 39.2256577,72.0109156 C38.6190957,73.8397618 38.2756398,75.8290744 38.2756398,77.9159256 C38.2756398,84.7742953 41.8905919,90.6171638 46.9360852,92.8581886" id="Fill-30" fill="#AFBCBE" sketch:type="MSShapeGroup"></path>
                <path d="M52.6487967,71.1841985 C54.5724649,70.2418511 55.8714529,70.009804 56.8561315,70.4392878 C57.890438,70.8860769 58.1992332,71.8858462 58.4024709,72.5473772 C58.4702167,72.7668387 58.582864,73.1341811 58.665577,73.215201 C58.7293842,73.2356526 59.5825097,73.4378089 63.3707653,71.0536228 C61.2414963,65.6984467 56.7174888,61.9841191 51.4758475,61.9841191 C46.6430448,61.9841191 42.4191674,65.1446799 40.1197459,69.8343921 C41.495145,70.8373077 46.6926726,74.0961935 52.6487967,71.1841985" id="Fill-31" fill="#AFBCBE" sketch:type="MSShapeGroup"></path>
                <path d="M34.313293,258.656268 L40.692435,256.283881 L41.2170717,254.500658 C42.0119043,254.957672 42.8996906,255.221184 43.8394679,255.221184 C44.8170568,255.221184 45.7371405,254.938007 46.5556054,254.447169 L47.0865441,256.283881 L53.4656861,258.656268 C53.4656861,258.656268 53.8422272,258.742794 54.2416129,259.368141 C56.4212975,256.923387 57.7478565,253.703045 57.7478565,250.171995 C57.7478565,242.530171 51.5435934,236.334119 43.8898834,236.334119 C36.2361734,236.334119 30.0319103,242.530171 30.0319103,250.171995 C30.0319103,253.705404 31.3592571,256.92732 33.5413049,259.372861 C33.9391151,258.7483 34.313293,258.656268 34.313293,258.656268 L34.313293,258.656268 Z M43.8394679,240.798864 C46.0522377,240.798864 47.9617265,242.366558 48.8613288,244.627248 C47.2622108,245.634097 46.9014245,245.548357 46.8746413,245.539705 C46.8399806,245.505881 46.7919283,245.350921 46.7635695,245.258102 C46.6777055,244.978859 46.547728,244.556454 46.1105306,244.36767 C45.6953901,244.186752 45.1471211,244.285077 44.3349581,244.68231 C41.8204828,245.911767 39.6266188,244.536002 39.0460523,244.112811 C40.0165516,242.132938 41.7992138,240.798864 43.8394679,240.798864 L43.8394679,240.798864 Z M38.6687235,245.031561 C39.5880194,245.644323 41.9993004,246.904457 44.7627025,245.55465 C45.3086084,245.287206 45.5646248,245.250236 45.6646682,245.250236 L45.7198102,245.255742 C45.7560463,245.288779 45.8048864,245.448459 45.8340329,245.543638 C45.9238356,245.833107 46.0585396,246.27203 46.5296099,246.445082 C46.6454081,246.487558 46.7722347,246.509583 46.9132407,246.509583 C47.426849,246.509583 48.1326667,246.213035 49.1724873,245.576675 C49.3268849,246.19337 49.4127489,246.847035 49.4127489,247.524298 C49.4127489,250.487422 47.8144185,253.003757 45.6055874,253.898122 C45.0502287,254.123089 44.457846,254.249732 43.8394679,254.249732 C43.1659477,254.249732 42.5223617,254.097918 41.9236771,253.832047 C39.7936203,252.885767 38.2669746,250.418988 38.2669746,247.524298 C38.2669746,246.643305 38.4119193,245.803216 38.6687235,245.031561 L38.6687235,245.031561 Z" id="Fill-32" fill="#E2E6E4" sketch:type="MSShapeGroup"></path>
                <path d="M43.8898834,264.010658 C48.0074155,264.010658 51.7035052,262.214849 54.2416129,259.368141 C53.8422272,258.742794 53.4656861,258.656268 53.4656861,258.656268 L47.0865441,256.283881 L46.5556054,254.447169 C45.7371405,254.938007 44.8170568,255.221184 43.8394679,255.221184 C42.8996906,255.221184 42.0119043,254.957672 41.2170717,254.500658 L40.692435,256.283881 L34.313293,258.656268 C34.313293,258.656268 33.9391151,258.7483 33.5413049,259.372861 C36.0794126,262.217208 39.7739268,264.010658 43.8898834,264.010658" id="Fill-33" fill="#AFBCBE" sketch:type="MSShapeGroup"></path>
                <path d="M41.9236771,253.832047 C42.5223617,254.097918 43.1659477,254.249732 43.8394679,254.249732 C44.457846,254.249732 45.0502287,254.123089 45.6055874,253.898122 C47.8144185,253.003757 49.4127489,250.487422 49.4127489,247.524298 C49.4127489,246.847035 49.3268849,246.19337 49.1724873,245.576675 C48.1326667,246.213035 47.426849,246.509583 46.9132407,246.509583 C46.7722347,246.509583 46.6454081,246.487558 46.5296099,246.445082 C46.0585396,246.27203 45.9238356,245.833107 45.8340329,245.543638 C45.8048864,245.448459 45.7560463,245.288779 45.7198102,245.255742 L45.6646682,245.250236 C45.5646248,245.250236 45.3086084,245.287206 44.7627025,245.55465 C41.9993004,246.904457 39.5880194,245.644323 38.6687235,245.031561 C38.4119193,245.803216 38.2669746,246.643305 38.2669746,247.524298 C38.2669746,250.418988 39.7936203,252.885767 41.9236771,253.832047" id="Fill-34" fill="#AFBCBE" sketch:type="MSShapeGroup"></path>
                <path d="M44.3349581,244.68231 C45.1471211,244.285077 45.6953901,244.186752 46.1105306,244.36767 C46.547728,244.556454 46.6777055,244.978859 46.7635695,245.258102 C46.7919283,245.350921 46.8399806,245.505881 46.8746413,245.539705 C46.9014245,245.548357 47.2622108,245.634097 48.8613288,244.627248 C47.9617265,242.366558 46.0522377,240.798864 43.8394679,240.798864 C41.7992138,240.798864 40.0165516,242.132938 39.0460523,244.112811 C39.6266188,244.536002 41.8204828,245.911767 44.3349581,244.68231" id="Fill-35" fill="#AFBCBE" sketch:type="MSShapeGroup"></path>
                <path d="M3.77486398,133.884124 L473.082555,133.884124 L473.082555,138.532933 L3.77486398,138.532933 L3.77486398,133.884124 Z" id="Fill-36" fill="#E5E7E5" sketch:type="MSShapeGroup"></path>
            </g>
        </g>
    </g>
</svg>