<?xml version="1.0" encoding="utf-8"?>
<!-- Generator: Adobe Illustrator 18.1.1, SVG Export Plug-In . SVG Version: 6.00 Build 0)  -->
<svg version="1.0" id="Layer_1" xmlns:sketch="http://www.bohemiancoding.com/sketch/ns"
	 xmlns="http://www.w3.org/2000/svg" xmlns:xlink="http://www.w3.org/1999/xlink" x="0px" y="0px" viewBox="0 138.5 350 55.5"
	 enable-background="new 0 138.5 350 55.5" xml:space="preserve">
<title>Group</title>
<desc>Created with Sketch.</desc>
<path id="Fill-9" fill="#9A1933" d="M9.7,146.3l5.6,2.8l-5.6-9l-5.6,9L9.7,146.3L9.7,146.3z M3.7,150.2h12l-6-2.6L3.7,150.2
	L3.7,150.2z"/>
<path id="Fill-10" fill="#E11931" d="M9.7,146.3v-6.1l-5.6,9L9.7,146.3L9.7,146.3z M3.7,150.2h6v-2.6L3.7,150.2L3.7,150.2z"/>
<path id="Fill-11" fill="#78242F" d="M16.2,148.4c0.2,0,0.4,0.2,0.4,0.4c0,0.2-0.2,0.4-0.4,0.4c-0.2,0-0.4-0.2-0.4-0.4
	C15.8,148.6,15.9,148.4,16.2,148.4L16.2,148.4z M16.2,149.1c0.2,0,0.3-0.2,0.3-0.3c0-0.2-0.2-0.4-0.3-0.4c-0.2,0-0.3,0.2-0.3,0.4
	C15.8,149,16,149.1,16.2,149.1L16.2,149.1z M16.1,149L16.1,149l-0.1-0.5h0.2c0.1,0,0.2,0.1,0.2,0.1c0,0.1-0.1,0.1-0.1,0.1l0.1,0.2
	h-0.1l-0.1-0.2h-0.1L16.1,149L16.1,149z M16.1,148.8L16.1,148.8c0.1,0,0.2,0,0.2-0.1c0-0.1-0.1-0.1-0.1-0.1h-0.1V148.8L16.1,148.8z"
	/>
<path id="Fill-12" fill="#003468" d="M20.4,149.1h2.7c2.8,0,4.4-1.5,4.4-4s-1.7-4-4.4-4h-2.7V149.1L20.4,149.1z M22.1,142.5h1
	c1.8,0,2.7,0.9,2.7,2.6c0,1.7-0.9,2.6-2.7,2.6h-1V142.5L22.1,142.5z"/>
<path id="Fill-13" fill="#003468" d="M33.3,145.7h3.3v-1.4h-3.3v-1.8H37v-1.4h-5.4v8h5.5v-1.4h-3.8L33.3,145.7"/>
<path id="Fill-14" fill="#003468" d="M46.8,147.8h-3.3v-6.6h-1.7v8h5V147.8"/>
<path id="Fill-15" fill="#003468" d="M56.1,141.2h-6.9v1.4h2.6v6.6h1.7v-6.6h2.6L56.1,141.2"/>
<path id="Fill-16" fill="#003468" d="M66,149.1h-1.8l-0.7-2h-3.1l-0.7,2H58l3.2-8l0,0h1.7L66,149.1L66,149.1z M63,145.8l-1.1-2.8
	l-1.1,2.8H63L63,145.8z"/>
<g>
	<path id="Fill-24" fill="#E33546" d="M56.2,189.2c-0.2,0-2.3,0-2.6,0c-0.8,0-0.7-0.7-0.8-1.3v-3.8c0,0,0.6,0,1.2,0
		c0.7,0,1.6-0.1,2.5,0.4c0,0-0.6-1.6-2.5-1.6h-1.2v-0.7v-0.5c0,0,0-1.1-0.2-1.4c0,0,1.6,0,1.7,0c1.5,0,2.6,0,3.8,0.8c0,0-0.2-2-3-2
		h-5.5c0,0,0.9,0.9,0.9,2.6l0,7c0,1.8,0.7,1.8,0.7,1.8H53h0.9h2.7c1.2,0,1.7-0.9,1.7-1.4l0-0.7C58.2,188.4,57.8,189.2,56.2,189.2"/>
	<path id="Fill-25" fill="#E33546" d="M70.6,188.6v-4.9c0-1.9-1.5-2.4-2.6-2.4c-1.5,0-1.9,1.3-2.1,1.7c-0.3-1.2-1.5-1.7-2.4-1.7
		c-1.8,0-2.2,1.8-2.2,1.8s0-1.7-1.4-1.7h-1.4c0,0,0.8,0.3,0.8,1.8v5.4c0,1.8,0.7,1.8,0.7,1.8h2.3c-0.1,0-0.9-0.7-0.9-1.8v-4.8
		c0-0.2,0.4-0.9,1.3-0.9c0.6,0,1.2,0.6,1.2,1.3v4.5c0,1.8,0.7,1.8,0.7,1.8h2.3c0,0-0.9-0.6-0.9-1.8v-4.8c0.1-0.3,0.4-0.9,1.3-0.9
		c0.7,0,1.3,0.6,1.3,1.3c0,0,0,4.1,0,4.5c0,1.8,0.7,1.8,0.7,1.8c1.2,0,2.3,0,2.3,0S70.6,189.8,70.6,188.6"/>
	<path id="Fill-26" fill="#E33546" d="M74.6,188.6c0,1.2,0.9,1.8,0.9,1.8s-1.1,0-2.3,0c0,0-0.7,0-0.7-1.8l0,0v-5.4
		c0-1.4-0.8-1.8-0.8-1.8h1.4c0.5,0,1.5,0,1.5,2V188.6L74.6,188.6"/>
	<path id="Fill-27" fill="#E33546" d="M81.7,182.1c0,0-0.2-0.6-1.2-0.6c-1.4,0-1.8,1.8-1.8,1.8c-0.1-1.4-0.5-1.8-1.5-1.8h-1.4
		c0,0,0.8,0.3,0.8,1.8v5.4c0,1.8,0.7,1.8,0.7,1.8h2.3c-0.1,0-0.9-0.7-0.9-1.8v-4.5c0.1-0.4,0.2-0.7,0.6-0.9c0.8-0.5,1.8-0.4,2.4,0.4
		L81.7,182.1"/>
	<path id="Fill-28" fill="#E33546" d="M92.4,182.4c0.8,0,1.3,0.4,1.3,0.4v-1.3h-1.9v-2.1c0,0-0.5,0.9-1.5,1.8c-0.6,0.6-2,1.3-2,1.3
		l1.4,0v6.3c0,1.8,0.7,1.8,0.7,1.8c1.3,0,2.3,0,2.3,0s-0.9-0.6-0.9-1.8v-6.3C92.4,182.4,92,182.4,92.4,182.4"/>
	<path id="Fill-29" fill="#E33546" d="M99.3,185.2c-1.3,1.4-2.3,1.2-3.1,2.2c0,0,0.1,1.4,1.1,1.9c0.3,0.2,1.8,0.7,2.7-0.9v1.5
		c0,0-0.6,0.7-2.5,0.7c-2.2,0-3.8-1.8-3.8-4.4c0-2.5,1.3-4.7,3.6-4.8C99.7,181.3,101,183.3,99.3,185.2L99.3,185.2z M97.9,184.6
		c0.4-0.7,0.7-2.6-0.6-2.5c-1.5,0.1-1.2,4.3-1.2,4.3C96.6,185.8,97.3,185.7,97.9,184.6L97.9,184.6z"/>
	<path id="Fill-30" fill="#E33546" d="M73.5,180.7c0.6,0,1.1-0.5,1.1-1.1s-0.5-1.1-1.1-1.1c-0.6,0-1.1,0.5-1.1,1.1
		C72.5,180.2,73,180.7,73.5,180.7"/>
	<path id="Fill-31" fill="#E33546" d="M84.1,189.4c-0.5,0-0.9-0.6-0.9-1.1c0-2.3,1.8-2.6,2.2-3.2v3.8
		C85.2,189.1,85,189.4,84.1,189.4L84.1,189.4z M85.4,184.2c-0.5,1-4.7,1.2-4,4.5c0.2,1.3,1.1,1.7,2.2,1.7s1.7-0.6,1.9-1.1
		c0.2,1,0.6,1.1,0.6,1.1c1.2,0,2.3,0,2.3,0s-0.9-0.6-0.9-1.8v-5.1c0-1.2-1.3-2.2-2.7-2.2c-1.3,0-2.2,0.7-2.2,0.7v1.6
		c0,0,0.5-1.3,1.7-1.3c1.2,0,1.3,0.6,1.2,0.9C85.6,183.3,85.7,183.7,85.4,184.2L85.4,184.2z"/>
	<path id="Fill-32" fill="#E33546" d="M104.4,188c0,0.6-0.5,1.5-1.7,1.5c-1.2,0-1.7-1.3-1.7-1.3v1.6c0,0,0.9,0.6,2.2,0.6
		c1.6,0,3.1-1.2,3.1-3c0-0.6-0.2-1.1-0.5-1.6c-0.5-0.7-1.5-1.3-2.2-1.8c-0.4-0.3-0.6-0.8-0.6-0.9c0-0.3,0.1-0.9,1.3-0.9
		c1.1,0,1.6,1.3,1.6,1.3v-1.5c0,0-0.9-0.7-2.2-0.7c-1.4,0-2.6,0.9-2.6,2.2c0,1.1,0.5,1.8,1.3,2.4c0.3,0.2,0.7,0.5,1.2,0.8
		C104.1,187.1,104.4,187.5,104.4,188"/>
</g>
<path id="Fill-37" fill="#1A1918" d="M109.4,140.8c2.3,0,3.9,1.8,3.9,4.5s-1.6,4.5-3.9,4.5c-2.3,0-3.9-1.9-3.9-4.5
	C105.5,142.6,107.1,140.8,109.4,140.8L109.4,140.8z M109.4,149.1c1.7,0,2.6-1.4,2.6-3.9c0-2.5-0.9-3.9-2.6-3.9s-2.6,1.4-2.6,3.8
	C106.8,147.7,107.7,149.1,109.4,149.1L109.4,149.1z"/>
<path id="Fill-38" fill="#1A1918" d="M129.7,145.1c0,2.8-1.5,4.5-4.1,4.5H123c0,0,0.1-2.7,0.1-4.4c0-1.6-0.1-4.4-0.1-4.4h3
	C128.4,140.9,129.7,142.3,129.7,145.1L129.7,145.1z M128.5,145.1c0-2.4-1-3.7-3.1-3.7c-0.9,0-1.2,0-1.2,0s0.1,0.2,0.1,0.6
	c0,0.7,0,2.2,0,3.2c0,1.2,0,2.4,0,3.1c0,0.4-0.1,0.6-0.1,0.6s0.3,0,1.1,0C127.4,149,128.5,147.6,128.5,145.1L128.5,145.1z"/>
<path id="Fill-39" fill="#1A1918" d="M155.2,140.8c2.4,0,3.9,1.8,3.9,4.5s-1.6,4.5-3.9,4.5c-2.3,0-3.9-1.9-3.9-4.5
	C151.3,142.6,152.9,140.8,155.2,140.8L155.2,140.8z M155.2,149.1c1.7,0,2.6-1.4,2.6-3.9c0-2.5-0.9-3.9-2.6-3.9
	c-1.7,0-2.6,1.4-2.6,3.8C152.6,147.7,153.5,149.1,155.2,149.1L155.2,149.1z"/>
<path id="Fill-40" fill="#1A1918" d="M98.1,146.5c0,2.1,0.1,3.1,0.1,3.1h-0.9c0,0,0.1-3.5,0.1-6.8c0-0.6,0-1.8,0-1.8h0.6
	c0,0,2.3,3.4,3.9,5.7c0.2,0.3,0.4,0.7,0.6,1c0,0-0.1-0.6-0.1-1.1V144c0-2.2-0.1-3.1-0.1-3.1h0.9c0,0-0.1,3.2-0.1,6.9
	c0,0.3,0,1.8,0,1.8h-0.6c0,0-2.3-3.4-3.9-5.7c-0.2-0.3-0.4-0.6-0.5-0.9c0,0,0,0.7,0,1.1L98.1,146.5"/>
<path id="Fill-41" fill="#1A1918" d="M133.6,149.1c1,0,1.7-0.9,1.5-1.8c-0.1-0.7-0.6-1.2-1.5-1.7c-1.2-0.7-1.8-1.2-2-2.4
	c-0.2-1.4,1-2.5,2.4-2.5c0.8,0,1.5,0.2,1.8,0.3v0.9c0,0-0.6-0.7-1.7-0.7c-0.8,0-1.5,0.5-1.5,1.3c0,0.7,0.6,1.1,1.6,1.8
	c1.3,0.8,2,1.5,2,2.7c0,1.6-1.2,2.7-2.7,2.7c-0.8,0-1.5-0.2-1.8-0.3v-1C131.7,148.4,132.4,149.2,133.6,149.1"/>
<path id="Fill-42" fill="#1A1918" d="M142.8,140.9v0.8c0,0-0.6-0.2-1.6-0.2h-0.5v0.6v2c0,2.4,0.1,5.5,0.1,5.5h-1.3
	c0,0,0.1-3.1,0.1-5.5c0-0.4,0-2,0-2c0-0.3,0-0.6,0-0.6h-0.6c-1,0-1.6,0.2-1.6,0.2v-0.8H142.8"/>
<path id="Fill-43" fill="#1A1918" d="M168.9,149.6h-1.2c0,0-0.1-3.2-0.2-5.4v-0.9c0,0-0.2,0.4-0.3,0.9l-2.3,5.7c0,0-1.3-3.1-2.3-5.4
	c-0.2-0.3-0.3-0.9-0.5-1.2c0,0.5,0,1,0,1.3c-0.2,2.3-0.2,5-0.2,5H161l0.5-8.7h0.7c0,0,1.5,3.6,2.5,5.8c0.1,0.3,0.3,0.6,0.3,0.9
	c0.1-0.3,0.2-0.6,0.3-0.9c0.9-2.2,2.3-5.8,2.3-5.8h0.7L168.9,149.6"/>
<path id="Fill-44" fill="#1A1918" d="M149.5,142.9c0,1.2-0.7,2-1.9,2.3c0.8,1.5,2.4,4.4,2.4,4.4h-1.3c0,0-0.7-1.5-2.5-4.8h0.1
	c1.3,0,2.1-0.6,2.1-1.7c0-1-0.6-1.7-1.7-1.7c-0.3,0-0.8,0-0.8,0s0.1,0.2,0.1,0.7v4.5c0,2,0.1,2.9,0.1,2.9h-1.2c0,0,0.1-3.4,0.1-5.2
	c0-1.2-0.1-3.5-0.1-3.5h2.5C148.8,140.9,149.5,141.6,149.5,142.9"/>
<path id="Fill-45" fill="#1A1918" d="M120.4,142.9c0,1.2-0.7,2-1.9,2.3c0.8,1.5,2.4,4.4,2.4,4.4h-1.3c0,0-0.7-1.5-2.5-4.8h0.2
	c1.3,0,2-0.6,2-1.7c0-1-0.6-1.7-1.7-1.7c-0.3,0-0.8,0-0.8,0s0.1,0.2,0.1,0.7v4.5c0,2,0.1,2.9,0.1,2.9h-1.2c0,0,0.1-3.4,0.1-5.2
	c0-1.2-0.1-3.5-0.1-3.5h2.5C119.6,140.9,120.4,141.6,120.4,142.9"/>
<g>
	<path id="Fill-46" fill="#6F706F" d="M144.6,183.8h2.5v2.6h-2.5V183.8z"/>
	<path id="Fill-47" fill="#6F706F" d="M151.7,183.8h2.5v2.6h-2.5V183.8z"/>
	<path id="Fill-48" fill="#6F706F" d="M159.1,183.8h2.5v2.6h-2.5V183.8z"/>
	<path id="Fill-49" fill="#6F706F" d="M166.3,183.8h2.5v2.6h-2.5V183.8z"/>
	<path id="Fill-50" fill="#6F706F" d="M181.1,178.8c-0.2,0-0.5,0.1-0.6,0.1c-0.2,0.1-0.3,0.2-0.4,0.4c-0.1,0.1-0.2,0.3-0.2,0.4
		c-0.1,0.2-0.1,0.3-0.1,0.6c0,0.3,0,0.7,0,1.1v6.5c0,0.6,0,1.1,0.1,1.3c0.1,0.3,0.2,0.5,0.3,0.7c0.2,0.3,0.6,0.5,1,0.5v0.2H177v-0.2
		c0.2,0,0.5-0.1,0.6-0.2c0.2-0.1,0.3-0.2,0.4-0.4c0.1-0.2,0.2-0.4,0.3-0.7c0.1-0.3,0.1-0.7,0.1-1.3v-8l-3.3,10.7h-0.1l-3.3-10.6v7.8
		c0,0.6,0,1.1,0.1,1.3c0.1,0.3,0.2,0.5,0.3,0.7c0.1,0.2,0.2,0.3,0.4,0.4c0.2,0.1,0.4,0.1,0.6,0.2v0.2h-3v-0.2c0.2,0,0.5-0.1,0.6-0.2
		c0.2-0.1,0.3-0.2,0.4-0.4c0.1-0.2,0.2-0.4,0.3-0.7s0.1-0.7,0.1-1.3v-6.5c0-0.3,0-0.5,0-0.8c0-0.4-0.1-0.8-0.2-0.9
		c-0.1-0.3-0.2-0.5-0.5-0.6c-0.2-0.1-0.4-0.2-0.7-0.2v-0.2h2.8l2.8,9.5l2.9-9.5h2.7L181.1,178.8L181.1,178.8L181.1,178.8z"/>
	<path id="Stroke-51" fill="none" d="M181.1,178.8c-0.2,0-0.5,0.1-0.6,0.1c-0.2,0.1-0.3,0.2-0.4,0.4c-0.1,0.1-0.2,0.3-0.2,0.4
		c-0.1,0.2-0.1,0.3-0.1,0.6c0,0.3,0,0.7,0,1.1v6.5c0,0.6,0,1.1,0.1,1.3c0.1,0.3,0.2,0.5,0.3,0.7c0.2,0.3,0.6,0.5,1,0.5v0.2H177v-0.2
		c0.2,0,0.5-0.1,0.6-0.2c0.2-0.1,0.3-0.2,0.4-0.4c0.1-0.2,0.2-0.4,0.3-0.7c0.1-0.3,0.1-0.7,0.1-1.3v-8l-3.3,10.7h-0.1l-3.3-10.6v7.8
		c0,0.6,0,1.1,0.1,1.3c0.1,0.3,0.2,0.5,0.3,0.7c0.1,0.2,0.2,0.3,0.4,0.4c0.2,0.1,0.4,0.1,0.6,0.2v0.2h-3v-0.2c0.2,0,0.5-0.1,0.6-0.2
		c0.2-0.1,0.3-0.2,0.4-0.4c0.1-0.2,0.2-0.4,0.3-0.7s0.1-0.7,0.1-1.3v-6.5c0-0.3,0-0.5,0-0.8c0-0.4-0.1-0.8-0.2-0.9
		c-0.1-0.3-0.2-0.5-0.5-0.6c-0.2-0.1-0.4-0.2-0.7-0.2v-0.2h2.8l2.8,9.5l2.9-9.5h2.7L181.1,178.8L181.1,178.8L181.1,178.8z"/>
	<path id="Fill-52" fill="#6F706F" d="M181.6,186.5c0-1,0.3-2,0.9-2.8c0.7-1,1.6-1.5,2.6-1.5s1.8,0.5,2.6,1.5
		c0.6,0.8,0.9,1.8,0.9,2.8c0,1-0.3,1.9-0.8,2.7c-0.7,1-1.6,1.5-2.6,1.5s-1.9-0.5-2.6-1.5c-0.3-0.4-0.5-0.8-0.6-1.3
		C181.7,187.5,181.6,187,181.6,186.5L181.6,186.5z M183,186.4c0,1.1,0.2,2.1,0.6,2.8c0.4,0.9,0.9,1.3,1.6,1.3c0.3,0,0.5-0.1,0.8-0.3
		s0.5-0.5,0.6-0.8c0.2-0.4,0.3-0.8,0.5-1.3s0.2-1.1,0.2-1.6c0-0.5-0.1-1-0.2-1.6c-0.1-0.5-0.3-1-0.5-1.4c-0.4-0.7-0.9-1.1-1.5-1.1
		c-0.6,0-1,0.4-1.4,1.1C183.2,184.3,183,185.3,183,186.4L183,186.4z"/>
	<path id="Stroke-53" fill="none" d="M181.6,186.5c0-1,0.3-2,0.9-2.8c0.7-1,1.6-1.5,2.6-1.5s1.8,0.5,2.6,1.5
		c0.6,0.8,0.9,1.8,0.9,2.8c0,1-0.3,1.9-0.8,2.7c-0.7,1-1.6,1.5-2.6,1.5s-1.9-0.5-2.6-1.5c-0.3-0.4-0.5-0.8-0.6-1.3
		C181.7,187.5,181.6,187,181.6,186.5L181.6,186.5z M183,186.4c0,1.1,0.2,2.1,0.6,2.8c0.4,0.9,0.9,1.3,1.6,1.3c0.3,0,0.5-0.1,0.8-0.3
		s0.5-0.5,0.6-0.8c0.2-0.4,0.3-0.8,0.5-1.3s0.2-1.1,0.2-1.6c0-0.5-0.1-1-0.2-1.6c-0.1-0.5-0.3-1-0.5-1.4c-0.4-0.7-0.9-1.1-1.5-1.1
		c-0.6,0-1,0.4-1.4,1.1C183.2,184.3,183,185.3,183,186.4L183,186.4z"/>
	<path id="Fill-54" fill="#6F706F" d="M191.3,184.1c0.2-0.3,0.4-0.5,0.6-0.7c0.4-0.3,0.8-0.4,1.3-0.4c0.7,0,1.4,0.3,1.9,0.8
		c0.7,0.7,1,1.7,1,2.9s-0.3,2.2-1,3c-0.6,0.6-1.3,0.9-2.2,0.9c-0.5,0-0.9-0.1-1.2-0.2l-0.4-0.2c-0.1-0.1-0.2-0.1-0.3-0.1
		c-0.2,0-0.5,0.2-0.7,0.7h-0.3v-10.2c0-0.6-0.1-1.1-0.3-1.4c-0.2-0.3-0.5-0.4-0.9-0.4v-0.2l2.3-0.4L191.3,184.1L191.3,184.1
		L191.3,184.1z M191.3,186.8c0,0.6,0,1.2,0.1,1.7c0.1,0.5,0.1,0.9,0.2,1.1c0.1,0.3,0.3,0.5,0.5,0.7c0.2,0.2,0.5,0.2,0.8,0.2
		c0.6,0,1.1-0.3,1.5-1c0.4-0.7,0.6-1.5,0.6-2.6c0-0.6-0.1-1.1-0.2-1.6c-0.1-0.5-0.3-0.9-0.6-1.3c-0.2-0.3-0.4-0.5-0.6-0.6
		c-0.2-0.2-0.5-0.2-0.7-0.2c-0.3,0-0.6,0.1-0.8,0.3s-0.4,0.5-0.6,0.8C191.4,184.9,191.3,185.7,191.3,186.8L191.3,186.8z"/>
	<path id="Stroke-55" fill="none" d="M191.3,184.1c0.2-0.3,0.4-0.5,0.6-0.7c0.4-0.3,0.8-0.4,1.3-0.4c0.7,0,1.4,0.3,1.9,0.8
		c0.7,0.7,1,1.7,1,2.9s-0.3,2.2-1,3c-0.6,0.6-1.3,0.9-2.2,0.9c-0.5,0-0.9-0.1-1.2-0.2l-0.4-0.2c-0.1-0.1-0.2-0.1-0.3-0.1
		c-0.2,0-0.5,0.2-0.7,0.7h-0.3v-10.2c0-0.6-0.1-1.1-0.3-1.4c-0.2-0.3-0.5-0.4-0.9-0.4v-0.2l2.3-0.4L191.3,184.1L191.3,184.1
		L191.3,184.1z M191.3,186.8c0,0.6,0,1.2,0.1,1.7c0.1,0.5,0.1,0.9,0.2,1.1c0.1,0.3,0.3,0.5,0.5,0.7c0.2,0.2,0.5,0.2,0.8,0.2
		c0.6,0,1.1-0.3,1.5-1c0.4-0.7,0.6-1.5,0.6-2.6c0-0.6-0.1-1.1-0.2-1.6c-0.1-0.5-0.3-0.9-0.6-1.3c-0.2-0.3-0.4-0.5-0.6-0.6
		c-0.2-0.2-0.5-0.2-0.7-0.2c-0.3,0-0.6,0.1-0.8,0.3s-0.4,0.5-0.6,0.8C191.4,184.9,191.3,185.7,191.3,186.8L191.3,186.8z"/>
	<path id="Fill-56" fill="#6F706F" d="M197.6,183.4l2.1-0.3v5v0.6c0,0.4,0,0.7,0.1,0.9c0,0.2,0.1,0.3,0.2,0.5
		c0.1,0.2,0.4,0.3,0.8,0.4v0.2h-3.3v-0.2c0.3-0.1,0.5-0.1,0.6-0.2c0.1-0.1,0.2-0.2,0.3-0.4c0.1-0.1,0.1-0.3,0.1-0.6
		c0-0.3,0-0.6,0-1.2v-2.2c0-0.6,0-1,0-1.3c0-0.2-0.1-0.4-0.2-0.6c-0.1-0.2-0.2-0.3-0.3-0.3c-0.1-0.1-0.3-0.1-0.5-0.1V183.4
		L197.6,183.4z M199.2,179.9c-0.2,0-0.3-0.1-0.5-0.2c-0.1-0.2-0.2-0.3-0.2-0.6s0.1-0.4,0.2-0.6c0.1-0.2,0.3-0.2,0.5-0.2
		c0.2,0,0.3,0.1,0.5,0.2c0.1,0.2,0.2,0.3,0.2,0.6s-0.1,0.4-0.2,0.6C199.5,179.9,199.3,179.9,199.2,179.9L199.2,179.9z"/>
	<path id="Stroke-57" fill="none" d="M197.6,183.4l2.1-0.3v5v0.6c0,0.4,0,0.7,0.1,0.9c0,0.2,0.1,0.3,0.2,0.5
		c0.1,0.2,0.4,0.3,0.8,0.4v0.2h-3.3v-0.2c0.3-0.1,0.5-0.1,0.6-0.2c0.1-0.1,0.2-0.2,0.3-0.4c0.1-0.1,0.1-0.3,0.1-0.6
		c0-0.3,0-0.6,0-1.2v-2.2c0-0.6,0-1,0-1.3c0-0.2-0.1-0.4-0.2-0.6c-0.1-0.2-0.2-0.3-0.3-0.3c-0.1-0.1-0.3-0.1-0.5-0.1V183.4
		L197.6,183.4z M199.2,179.9c-0.2,0-0.3-0.1-0.5-0.2c-0.1-0.2-0.2-0.3-0.2-0.6s0.1-0.4,0.2-0.6c0.1-0.2,0.3-0.2,0.5-0.2
		c0.2,0,0.3,0.1,0.5,0.2c0.1,0.2,0.2,0.3,0.2,0.6s-0.1,0.4-0.2,0.6C199.5,179.9,199.3,179.9,199.2,179.9L199.2,179.9z"/>
	<path id="Fill-58" fill="#6F706F" d="M201.8,178.6l2.1-0.3v9.7v0.7c0,0.4,0,0.7,0.1,0.9c0,0.2,0.1,0.3,0.2,0.5
		c0.1,0.2,0.4,0.3,0.8,0.4v0.2h-3.3v-0.2c0.3-0.1,0.5-0.1,0.6-0.2c0.1-0.1,0.2-0.2,0.3-0.4c0.1-0.1,0.1-0.3,0.1-0.6
		c0-0.3,0-0.7,0-1.2v-6.8c0-0.6,0-1,0-1.3c0-0.2-0.1-0.4-0.2-0.6c-0.1-0.2-0.2-0.3-0.3-0.3c-0.1-0.1-0.3-0.1-0.5-0.1V178.6
		L201.8,178.6z"/>
	<path id="Stroke-59" fill="none" d="M201.8,178.6l2.1-0.3v9.7v0.7c0,0.4,0,0.7,0.1,0.9c0,0.2,0.1,0.3,0.2,0.5
		c0.1,0.2,0.4,0.3,0.8,0.4v0.2h-3.3v-0.2c0.3-0.1,0.5-0.1,0.6-0.2c0.1-0.1,0.2-0.2,0.3-0.4c0.1-0.1,0.1-0.3,0.1-0.6
		c0-0.3,0-0.7,0-1.2v-6.8c0-0.6,0-1,0-1.3c0-0.2-0.1-0.4-0.2-0.6c-0.1-0.2-0.2-0.3-0.3-0.3c-0.1-0.1-0.3-0.1-0.5-0.1V178.6
		L201.8,178.6z"/>
	<path id="Fill-60" fill="#6F706F" d="M207.2,185.5c0,0.3,0,0.5,0,0.6c0,0.6,0.1,1.1,0.2,1.6c0.1,0.5,0.3,0.9,0.5,1.3
		c0.2,0.3,0.5,0.6,0.8,0.8c0.3,0.2,0.7,0.3,1,0.3c0.3,0,0.5-0.1,0.7-0.2c0.2-0.1,0.4-0.3,0.6-0.5c0.2-0.2,0.3-0.6,0.5-1l0.2,0.1
		c-0.1,0.7-0.4,1.3-0.8,1.7c-0.4,0.4-1,0.6-1.7,0.6c-0.6,0-1.1-0.1-1.6-0.4c-0.4-0.2-0.8-0.6-1.1-1.1c-0.4-0.7-0.6-1.6-0.6-2.6
		c0-1.4,0.4-2.5,1.2-3.3c0.6-0.6,1.2-0.9,2-0.9c0.4,0,0.8,0.1,1.1,0.3c0.3,0.2,0.6,0.4,0.9,0.8c0.4,0.5,0.5,1.2,0.5,1.9L207.2,185.5
		L207.2,185.5L207.2,185.5z M210.4,185.2c0-0.6-0.1-1.1-0.3-1.4c-0.1-0.3-0.3-0.6-0.5-0.7c-0.2-0.2-0.5-0.3-0.7-0.3
		c-0.4,0-0.8,0.2-1.1,0.7c-0.3,0.5-0.5,1-0.6,1.7L210.4,185.2L210.4,185.2z"/>
	<path id="Stroke-61" fill="none" d="M207.2,185.5c0,0.3,0,0.5,0,0.6c0,0.6,0.1,1.1,0.2,1.6c0.1,0.5,0.3,0.9,0.5,1.3
		c0.2,0.3,0.5,0.6,0.8,0.8c0.3,0.2,0.7,0.3,1,0.3c0.3,0,0.5-0.1,0.7-0.2c0.2-0.1,0.4-0.3,0.6-0.5c0.2-0.2,0.3-0.6,0.5-1l0.2,0.1
		c-0.1,0.7-0.4,1.3-0.8,1.7c-0.4,0.4-1,0.6-1.7,0.6c-0.6,0-1.1-0.1-1.6-0.4c-0.4-0.2-0.8-0.6-1.1-1.1c-0.4-0.7-0.6-1.6-0.6-2.6
		c0-1.4,0.4-2.5,1.2-3.3c0.6-0.6,1.2-0.9,2-0.9c0.4,0,0.8,0.1,1.1,0.3c0.3,0.2,0.6,0.4,0.9,0.8c0.4,0.5,0.5,1.2,0.5,1.9L207.2,185.5
		L207.2,185.5L207.2,185.5z M210.4,185.2c0-0.6-0.1-1.1-0.3-1.4c-0.1-0.3-0.3-0.6-0.5-0.7c-0.2-0.2-0.5-0.3-0.7-0.3
		c-0.4,0-0.8,0.2-1.1,0.7c-0.3,0.5-0.5,1-0.6,1.7L210.4,185.2L210.4,185.2z"/>
	<path id="Fill-62" fill="#ED0F84" d="M150.5,189.7h1.9v1h-5.6v-1h1.9v-11.1c0,0-3.1,0-3.1,4.2h-0.6V178h9.3v4.9h-0.6
		c0,0-0.2-4.2-3.1-4.2L150.5,189.7"/>
</g>
<g>
	<path id="Fill-1" fill="#1A1918" d="M266.8,183.1l-0.4,1.1h0.5l0.3-1c0.2,0,0.4,0.1,0.6,0.1c1.3,0,2.2-0.6,2.6-1.3
		c0.5-0.7,0.6-1.6,0.6-2.2c0-1.4-0.7-2.5-1.8-2.9l0.4-1.2h-0.5l-0.3,1.1c-0.2,0-0.4-0.1-0.6-0.1c-2,0-3.2,1.5-3.2,3.4
		C264.9,181.6,265.5,182.6,266.8,183.1L266.8,183.1z M269,177.7c0.7,0.6,0.9,1.5,0.9,2.5c0,1.4-0.5,2.6-1.9,2.6
		c-0.2,0-0.5-0.1-0.6-0.1L269,177.7L269,177.7z M267.9,177.3c0.2,0,0.5,0.1,0.7,0.2l-1.6,5c-0.7-0.6-0.9-1.8-0.9-2.6
		C266,178.5,266.5,177.3,267.9,177.3L267.9,177.3z M290.5,181.7c0-0.2-0.1-0.2-0.1-0.2c-0.2,0-0.2,0.3-0.5,0.6
		c-0.3,0.3-0.7,0.6-1.8,0.6c-0.5,0-0.5-0.2-0.5-0.7c0-0.1,0-0.1,0-0.2v-4.1c0-0.3,0.1-0.4,0.3-0.4c0.1,0,0.3,0,0.3-0.2
		c0-0.1,0-0.1-0.1-0.1c-0.1,0-0.1,0-0.2,0c-0.2,0-0.2,0-0.9,0c-0.3,0-0.8,0-1.1,0c-0.2,0-0.3,0.1-0.3,0.2c0,0.2,0.3,0.2,0.5,0.3
		c0.2,0.1,0.5,0.2,0.5,0.5v4.1c0,0.5-0.2,0.6-0.3,0.7c-0.1,0-0.2,0-0.2,0.1c-0.1,0-0.1,0.1-0.1,0.2c0,0.1,0.1,0.1,0.2,0.1
		c0.5,0,0.8,0,1.1,0c0.4,0,0.9,0,2.2,0C290,183.2,290.5,182.5,290.5,181.7L290.5,181.7z M277.1,179.7c0.6-0.2,0.9-0.7,0.9-1.3
		c0-0.1,0-0.5-0.3-0.9c-0.3-0.4-0.8-0.7-1.8-0.7c-0.7,0-1.4,0-2.2,0c-0.4,0-0.4,0-0.5,0c0,0,0,0,0,0c0,0-0.1,0-0.1,0
		c0,0-0.1,0.1-0.1,0.2c0,0.1,0.1,0.2,0.2,0.2c0.3,0.1,0.7,0,0.7,0.9v3.9c0,0.4-0.2,0.6-0.3,0.6c-0.2,0.1-0.4,0.1-0.4,0.3
		c0,0.1,0,0.1,0.1,0.2s0.1,0,0.2,0c0.2,0,0.4,0,0.6,0c0.4,0,0.8,0,2.1,0c0.7,0,1.2-0.2,1.6-0.5c0.4-0.3,0.6-0.8,0.6-1.4
		C278.4,180.5,278,180,277.1,179.7L277.1,179.7z M275,178.2c0-0.5,0-0.8,0.6-0.8c0.7,0,1.3,0.6,1.3,1.3c0,0.6-0.2,0.9-0.9,0.9h-0.5
		c-0.5-0.1-0.5,0-0.5-0.5V178.2L275,178.2z M276,182.8c-0.8,0-1-0.2-1-1v-1c0-0.5,0-0.6,0.5-0.6c1.5,0,1.7,0.8,1.8,1.3
		C277.2,182.2,276.8,182.8,276,182.8L276,182.8z M297.1,181.7c0-0.2-0.1-0.2-0.1-0.2c-0.2,0-0.2,0.3-0.5,0.6
		c-0.3,0.3-0.7,0.6-1.8,0.6c-0.5,0-0.5-0.2-0.5-0.7c0-0.1,0-0.1,0-0.2v-1.1c0-0.1,0-0.2,0-0.2c0-0.3,0-0.4,0.3-0.4h0.6
		c0.4,0,0.6,0.2,0.6,0.4c0.1,0.2,0.1,0.5,0.3,0.5c0.2,0,0.2-0.2,0.2-0.3c0-0.1,0-0.2,0-0.2l-0.1-1.6c0-0.1,0-0.2-0.1-0.2
		c0,0-0.1-0.1-0.1,0h0c-0.1,0-0.1,0.1-0.2,0.2c-0.1,0.2-0.2,0.6-0.8,0.7h-0.5c-0.2,0-0.2,0-0.3-0.1s0-0.2,0-0.3v-1.2
		c0-0.3,0-0.4,0.1-0.5s0.4-0.1,0.9-0.1c0.8,0,1,0.2,1.1,0.5c0,0.1,0.1,0.2,0.1,0.3c0,0.1,0.1,0.2,0.2,0.2c0.2,0,0.2-0.2,0.2-0.3
		c0-0.1,0-0.1,0-0.2l0-0.9c0-0.1-0.1-0.2-0.2-0.2c-0.7,0-1.3,0-1.9,0c-1.3,0-1.9,0-2.2,0c-0.1,0-0.2,0.1-0.2,0.2
		c0,0.2,0.3,0.2,0.5,0.3c0.2,0.1,0.5,0.2,0.5,0.6v4.1c0,0.5-0.2,0.6-0.3,0.7c-0.1,0-0.2,0-0.2,0.1s-0.1,0.1-0.1,0.2
		c0,0.1,0.1,0.1,0.2,0.1c0.5,0,0.8,0,1.1,0c0.4,0,0.9,0,2.2,0C296.6,183.2,297.1,182.5,297.1,181.7L297.1,181.7z M281.1,182.8
		c-0.1,0.1-0.3,0.1-0.3,0.3c0,0.1,0,0.2,0.1,0.2c0.2,0,0.6,0,0.9,0c0.6,0,0.9,0,1.3,0c0.1,0,0.2,0,0.2,0c0.1,0,0.1-0.1,0.1-0.2
		c0-0.1-0.1-0.2-0.2-0.2c-0.3-0.1-0.8,0-0.8-0.8v-4.2c0-0.4,0.2-0.5,0.3-0.6c0.1,0,0.2,0,0.2-0.1c0.1,0,0.1-0.1,0.1-0.2
		c0-0.1,0-0.1-0.1-0.2c-0.1,0-0.1,0-0.2,0c-0.5,0-0.8,0-1.1,0s-0.6,0-0.9,0c0,0-0.1,0-0.1,0c-0.1,0-0.2,0-0.2,0.2
		c0,0.2,0.3,0.2,0.5,0.3c0.2,0.1,0.5,0.2,0.5,0.6v4.2C281.4,182.6,281.3,182.7,281.1,182.8L281.1,182.8z M261.9,183.2
		c0.2,0,0.5,0,0.7,0c0.2,0,0.2,0,0.3,0c0.1,0,0.1-0.1,0.1-0.2s-0.1-0.2-0.2-0.2c-0.2-0.1-0.6-0.1-0.7-0.9l-0.2-3.9c0,0,0,0,0-0.1
		c0-0.5,0.2-0.6,0.4-0.7c0.2-0.1,0.4-0.1,0.4-0.3c0,0,0-0.1-0.1-0.1c0,0-0.1,0-0.2,0c-0.2,0-0.4,0-0.6,0c-0.1,0-0.3,0-0.5,0
		c-0.2,0-0.2,0.2-0.2,0.2l-2,4.3c0,0,0,0.1-0.1,0.1c0,0,0,0,0,0.1l0,0l0,0c0,0,0,0-0.1-0.1l-1.8-4.2c-0.1-0.2-0.2-0.3-0.3-0.3h0
		c-0.3,0-0.6,0-0.8,0c-0.3,0-0.4,0-0.5,0c-0.1,0-0.1,0.1-0.2,0.2c0,0.2,0.2,0.2,0.5,0.3c0.2,0.1,0.4,0.3,0.4,1c0,0,0,0.1,0,0.1
		l-0.1,3.5c0,0.5-0.2,0.6-0.4,0.7c-0.2,0.1-0.4,0.1-0.4,0.3c0,0.1,0.1,0.2,0.2,0.2s0.4,0,0.8,0c0.4,0,0.6,0,0.9,0
		c0.1,0,0.2,0,0.2-0.1c0,0,0.1-0.1,0.1-0.1c0,0,0,0,0,0c0-0.1-0.1-0.2-0.2-0.2c-0.2-0.1-0.7,0-0.7-1c0,0,0-0.1,0-0.1l0.1-2.5
		c0,0,0-0.1,0-0.1s0,0,0-0.1c0,0,0,0.1,0.1,0.1l1.6,3.8c0,0.1,0.1,0.3,0.2,0.3s0.2-0.2,0.2-0.3l1.6-3.5c0.1-0.2,0.1-0.2,0.2-0.3
		c0,0,0-0.1,0.1-0.1l0,0c0,0,0,0,0,0.1c0,0.1,0,0.2,0,0.3l0.1,2.7c0,0,0,0.1,0,0.1c0,0.4-0.2,0.6-0.3,0.6c-0.1,0.1-0.3,0.1-0.3,0.3
		c0,0.2,0.2,0.2,0.3,0.2c0,0,0.1,0,0.1,0C261.2,183.2,261.4,183.2,261.9,183.2L261.9,183.2z M298.1,189.2c-0.6-0.2-1-0.4-1.3-0.6
		c-0.3-0.2-0.4-0.3-0.4-0.6c0-0.6,0.4-0.9,1-0.9c0.8,0,1.2,0.4,1.4,0.8c0.1,0.2,0.2,0.4,0.3,0.6c0.1,0.2,0.1,0.3,0.2,0.3
		c0.1,0,0.2,0,0.2-0.1c0-0.1,0.1-0.1,0.1-0.2c0,0,0-0.1,0-0.1l-0.1-1.2c0-0.1,0-0.2,0-0.2c0-0.1-0.1-0.1-0.2-0.1
		c-0.2,0-0.4,0.2-0.5,0.2c-0.2,0-0.6-0.3-1.4-0.3c-1.1,0-1.8,0.8-1.8,1.8c0,0.9,0.6,1.3,1.3,1.6c0.7,0.3,1.3,0.5,1.6,0.7
		c0.3,0.2,0.5,0.4,0.5,0.8c0,0.7-0.5,1.1-1.2,1.1c-1,0-1.5-0.8-1.8-1.6c0-0.1-0.1-0.2-0.2-0.2c-0.1,0-0.1,0-0.2,0.1c0,0,0,0.1,0,0.1
		c0,0.1,0,0.2,0,0.2h0h0l0.3,1.2c0,0.2,0.1,0.3,0.3,0.4c0.5,0.1,1,0.3,1.6,0.3c1.2,0,2.1-0.8,2.1-2
		C299.7,190,299.1,189.6,298.1,189.2L298.1,189.2z M293.4,190c-0.3,0-0.6,0-0.9,0c-0.4,0-0.8,0-1.2,0c-0.1,0-0.1,0-0.2,0
		s-0.1,0-0.2,0c-0.1,0-0.1,0.1-0.1,0.2c0,0.1,0.1,0.2,0.2,0.2c0.3,0.1,0.8-0.1,0.8,0.9c0,0.5,0,1.2-1.5,1.2c-0.7,0-1.1-0.4-1.4-0.9
		c-0.3-0.6-0.5-1.2-0.5-1.8c0-2.2,1.1-2.7,1.8-2.7c1.1,0,1.6,0.5,1.9,0.9c0.2,0.2,0.2,0.5,0.3,0.6c0,0.1,0.1,0.2,0.1,0.2
		c0,0.1,0,0.1,0.1,0.1c0.1,0,0.2,0,0.2,0c0,0,0.1-0.1,0.1-0.2v-1.5c0-0.1,0-0.4-0.2-0.4c-0.1,0-0.2,0.1-0.2,0.2
		c0,0.1-0.1,0.1-0.2,0.1c-0.1,0-0.3-0.2-0.7-0.3c-0.4-0.2-0.8-0.3-1.4-0.3c-2.2,0-3,2-3,3.5c0,0.7,0.4,3,2.9,3
		c0.9,0,1.9-0.4,2.7-0.9c0.1-0.1,0.1-0.1,0.1-0.3c0-0.1,0-0.4,0-0.7c0-0.6,0.2-0.7,0.3-0.8c0.1,0,0.1,0,0.2-0.1
		c0.1,0,0.1-0.1,0.1-0.2C293.5,190.1,293.4,190,293.4,190L293.4,190z M285.4,186.7c-0.1,0-0.4,0-0.9,0c-0.6,0-0.8,0-0.9,0
		c-0.1,0-0.2,0.1-0.2,0.2c0,0.2,0.3,0.2,0.6,0.3s0.5,0.2,0.5,0.6v2.9c0,0.1,0,0.2,0,0.2c0,0,0,0,0,0l0,0c0,0-0.1-0.1-0.2-0.2
		l-3.4-3.9c-0.1-0.1-0.1-0.1-0.1-0.2s-0.1-0.1-0.2-0.1c-0.5,0-0.7,0-0.9,0c-0.2,0-0.3,0-0.5,0c-0.1,0-0.2,0.1-0.2,0.2
		c0,0.1,0.1,0.2,0.2,0.2c0.3,0.1,0.8,0.1,0.8,1.3l0,0v3.3c0,0.4-0.2,0.6-0.4,0.7c-0.2,0.1-0.4,0.2-0.4,0.4c0,0.1,0,0.1,0.1,0.1
		s0.1,0,0.1,0s0.1,0,0.1,0c0.2,0,0.5,0,0.7,0c0.3,0,0.6,0,1,0h0c0.1,0,0.3,0,0.3-0.2c0-0.1-0.1-0.2-0.2-0.2c-0.3-0.1-0.9,0-0.9-1.3
		v-3c0,0,0-0.1,0-0.1s0,0,0,0c0,0,0.1,0,0.1,0.1l4.1,4.6c0.1,0.1,0.1,0.2,0.2,0.1l0,0c0.1,0,0.1,0,0.1-0.1c0-0.1,0-0.1,0-0.2v-5
		c0-0.5,0.2-0.6,0.3-0.7c0.2-0.1,0.4-0.1,0.4-0.3c0,0,0-0.1,0-0.1C285.5,186.7,285.5,186.7,285.4,186.7L285.4,186.7z M271.8,192.7
		c-0.2-0.1-0.5-0.1-0.9-0.8l-1.6-2.3c-0.1-0.2-0.2-0.3-0.2-0.3c0,0,0.1-0.2,0.2-0.2l0,0l0,0l1.5-1.4c0.4-0.4,0.7-0.5,0.8-0.6
		c0.1,0,0.2,0,0.2-0.1c0.1,0,0.1-0.1,0.1-0.2c0-0.2-0.2-0.2-0.2-0.2h0c-0.4,0-0.6,0-0.8,0c-0.2,0-0.8,0-0.9,0c-0.1,0-0.1,0-0.2,0
		c-0.1,0-0.1,0.1-0.1,0.2c0,0.2,0.2,0.2,0.3,0.2s0.2,0.1,0.2,0.2c0,0.3-0.8,1.1-1,1.3l-1.1,1.1c-0.1,0.1-0.2,0.2-0.2,0.2l0,0l0,0
		c0,0,0-0.1,0-0.1c0,0,0-0.1,0-0.1v-2c0-0.5,0.2-0.6,0.3-0.6c0.1,0,0.2,0,0.2-0.1c0.1,0,0.1-0.1,0.1-0.2c0-0.1,0-0.1-0.1-0.1
		c0,0-0.1,0-0.1,0c-0.2,0-0.7,0-1.2,0c-0.6,0-0.9,0-1,0c-0.1,0-0.1,0-0.2,0c0,0-0.1,0.1-0.1,0.1c0,0.1,0.1,0.2,0.2,0.2
		c0.3,0.1,0.7,0,0.7,0.8v3.8c0,0.6-0.2,0.8-0.3,0.9c-0.1,0-0.2,0.1-0.2,0.1c-0.1,0-0.1,0.1-0.1,0.2c0,0.1,0.2,0.1,0.3,0.1
		c0.3,0,0.7,0,1.1,0c0.5,0,0.7,0,0.9,0c0.1,0,0.2,0,0.2,0c0.1,0,0.1-0.1,0.1-0.1c0-0.2-0.2-0.2-0.4-0.3c-0.2-0.1-0.4-0.2-0.4-0.6
		v-1.2c0,0,0-0.1,0-0.1c0-0.1,0-0.2,0.1-0.3c0.2-0.2,0.3-0.4,0.4-0.4c0,0,0,0,0.1,0.1c0,0,0.1,0.1,0.1,0.2l1.7,2.4
		c0.2,0.2,0.3,0.3,0.4,0.3c0,0,0,0,0,0c0.2,0,0.4,0,0.6,0c0.2,0,0.4,0,0.6,0c0.1,0,0.1,0,0.1-0.1
		C271.9,192.9,271.9,192.9,271.8,192.7C271.9,192.8,271.9,192.7,271.8,192.7L271.8,192.7z M263.8,192.7c-0.3-0.1-0.8,0-0.8-0.8v-4.2
		c0-0.4,0.2-0.5,0.3-0.6c0.1,0,0.2,0,0.2-0.1c0.1,0,0.1-0.1,0.1-0.2c0-0.1,0-0.1-0.1-0.2c-0.1,0-0.1,0-0.2,0c-0.5,0-0.8,0-1.1,0
		c-0.3,0-0.6,0-0.9,0c0,0-0.1,0-0.1,0c-0.1,0-0.2,0-0.2,0.2c0,0.2,0.3,0.2,0.5,0.3c0.2,0.1,0.5,0.2,0.5,0.6v4.2
		c0,0.4-0.2,0.5-0.3,0.6s-0.3,0.1-0.3,0.3c0,0.1,0,0.2,0.1,0.2c0.2,0,0.6,0,0.9,0c0.6,0,0.9,0,1.3,0c0.1,0,0.2,0,0.2,0
		c0.1,0,0.1-0.1,0.1-0.2C263.9,192.7,263.8,192.7,263.8,192.7L263.8,192.7z M259,186.7c0,0-0.1,0-0.2,0c0,0-0.1,0-0.1,0
		c-0.2,0-0.5,0-0.7,0s-0.5,0-0.7,0c0,0-0.1,0-0.1,0c-0.1,0-0.3,0-0.3,0.2c0,0.2,0.2,0.2,0.5,0.2c0.2,0.1,0.4,0.2,0.4,0.6
		c0,0.1,0,0.4-0.3,1l-1.2,2.7c0,0,0,0.1,0,0.1s0,0,0,0l0,0l0,0c0,0-0.1-0.1-0.1-0.2l-1.1-2.8c-0.2-0.5-0.3-0.9-0.3-1.2
		c0-0.2,0.1-0.2,0.2-0.2c0.1,0,0.3-0.1,0.3-0.2c0-0.1,0-0.1-0.1-0.2c-0.1,0-0.1,0-0.2,0c0,0-0.1,0-0.1,0c-0.2,0-0.4,0-0.9,0
		c-0.3,0-0.6,0-0.9,0c0,0-0.1,0-0.2,0c-0.1,0-0.2,0-0.2,0.2c0,0.1,0.1,0.2,0.2,0.2c0.3,0.1,0.4,0.2,0.6,0.5l2.1,5.1
		c0.2,0.4,0.2,0.5,0.4,0.5l0,0c0.1,0,0.2-0.1,0.2-0.3l0,0l2.3-5.3c0.1-0.2,0.2-0.4,0.4-0.4c0.1-0.1,0.2-0.1,0.2-0.2
		C259,186.8,259,186.8,259,186.7L259,186.7z M276.6,192.7c-0.3-0.1-0.8,0-0.8-0.8v-4.2c0-0.4,0.2-0.5,0.3-0.6c0.1,0,0.2,0,0.2-0.1
		s0.1-0.1,0.1-0.2c0-0.1,0-0.1-0.1-0.2c-0.1,0-0.1,0-0.2,0c-0.5,0-0.8,0-1.1,0c-0.3,0-0.6,0-0.9,0c0,0-0.1,0-0.1,0
		c-0.1,0-0.2,0-0.2,0.2c0,0.2,0.3,0.2,0.5,0.3c0.2,0.1,0.5,0.2,0.5,0.6v4.2c0,0.4-0.2,0.5-0.3,0.6s-0.3,0.1-0.3,0.3
		c0,0.1,0,0.2,0.1,0.2c0.2,0,0.6,0,0.9,0c0.6,0,0.9,0,1.3,0c0.1,0,0.2,0,0.2,0c0.1,0,0.1-0.1,0.1-0.2
		C276.7,192.7,276.7,192.7,276.6,192.7L276.6,192.7z"/>
</g>
<path id="Fill-33" fill="#3A3B38" d="M349.4,148.3c-0.3,0.3-0.6,0.2-0.6,0.1l-1.8-2.4h0.1c3.5-0.8,2.6-5.2-0.2-5.2h-6v8.6h0.9v-2.8
	c0-0.4,0.1-0.6,0.5-0.6h3.5l2.4,3.1c0.5,0.4,1.3,0.6,1.9,0L349.4,148.3L349.4,148.3z M342.1,145c-0.3,0-0.4,0.2-0.4,0.2v-3.5h5.1
	c2.2,0.1,2.2,3.2,0,3.3H342.1L342.1,145z"/>
<path id="Fill-34" fill="#3A3B38" d="M332.1,140.7h-7.6v8.6h7.8v-1h-6.9v-2.4c0-0.4,0.1-0.6,0.5-0.6h4.1v-1h-4.2
	c-0.3,0-0.4,0.2-0.4,0.2v-2.9h6.6L332.1,140.7"/>
<path id="Fill-35" fill="#3A3B38" d="M315.1,144.9c1.6-1.3,0.9-3.9-1.1-4.2h-6.3v8.6h6.3C316,149.1,317,146.4,315.1,144.9
	L315.1,144.9z M308.6,141.7h5.2c1.7,0.2,1.6,2.6,0,2.7h-4.8c-0.3,0-0.4,0.2-0.4,0.2V141.7L308.6,141.7z M313.9,148.3h-5.2v-2.4
	c0-0.4,0.1-0.6,0.5-0.6h4.7C315.6,145.6,315.6,148.2,313.9,148.3L313.9,148.3z"/>
<path id="Fill-36" fill="#3A3B38" d="M295.7,149.5c0.7,0,3.6-0.5,3.6-3.3v-5.4h-0.9v5.2c0,2.5-2.7,2.4-2.7,2.4h-0.9
	c0,0-2.7,0.1-2.7-2.4v-3.7c0-0.8-0.6-1.5-1.5-1.5v1c0.4,0,0.6,0.4,0.6,0.6v3.8c0,2.8,2.9,3.3,3.6,3.3H295.7"/>
<g>
	<path fill="#ED2517" d="M211,139.2c-0.7,0-1.4,0-2.1,0c0,2.9,0,4.8,0,7.7c-0.9-2.8-1.8-4.7-2.8-7.7c-0.8,0-1.3,0-2.1,0
		c0,4.5,0,9.1,0,13.6c0.7-0.1,1.4-0.2,2.1-0.3c0-2.8,0-4.6,0-7.4c1,2.8,1.5,4.5,2.5,7.1c0.7-0.1,1.6-0.2,2.3-0.3
		C211,147.7,211,143.4,211,139.2"/>
	<path fill="#ED2517" d="M219,139.2c-2,0-3.9,0-5.9,0c0,4.2,0,8.4,0,12.6c2-0.2,4-0.3,5.9-0.4c0-0.6,0-1.5,0-2.1
		c-1.3,0.1-2.5,0.2-3.8,0.2c0-1.1,0-2.1,0-3.2c0.9,0,1.9,0,2.9,0c0-0.6,0-1.5,0-2.1c-1,0-2,0-2.9,0c0-1.1,0-1.7,0-2.9
		c0.6,0,1.2,0,1.7,0c0.1,0,0.2,0,0.3,0c0.1,0,0.2,0,0.3,0c0.5,0,1,0,1.5,0C219,140.7,219,139.8,219,139.2"/>
	<path fill="#ED2517" d="M227,139.2c-2.2,0-4.4,0-6.6,0c0,0.6,0,1.5,0,2.1c0.1,0,0.2,0,0.3,0c0.3,0,0.6,0,0.9,0c0.3,0,0.6,0,0.9,0
		c0.1,0,0.1,0,0.2,0c0,3.4,0,6.5,0,9.8c0.7,0,1.4,0,2.1-0.1c0-3.4,0-6.4,0-9.8c0.7,0,1.5,0,2.2,0C227,140.7,227,139.8,227,139.2"/>
	<path fill="#ED2517" d="M234.3,139.2c-2,0-4,0-5.9,0c0,3.9,0,7.9,0,11.8c0.2,0,0.5,0,0.7,0c0.5,0,1,0,1.4,0c0-1.7,0-3.2,0-4.9
		c0.1,0,0.2,0,0.4,0c0.3,0,0.6,0,0.8,0c0.3,0,0.6,0,0.8,0c0.3,0,0.6,0,0.9,0c0-0.6,0-1.5,0-2.1c-0.3,0-0.5,0-0.8,0
		c-0.3,0-0.6,0-0.9,0c-0.3,0-0.6,0-0.9,0c-0.1,0-0.2,0-0.3,0c0-1.1,0-1.7,0-2.8c0.2,0,0.5,0,0.7,0c0.2,0,0.5,0,0.7,0
		c0.2,0,0.5,0,0.7,0c0.6,0,1.1,0,1.7,0C234.3,140.7,234.3,139.8,234.3,139.2"/>
	<path fill="#ED2517" d="M235.7,139.2c0,4,0,8,0,11.9c1.9,0.1,3.9,0.1,5.8,0.3c0-0.6,0-1.5,0-2.1c-1.2-0.1-2.5-0.2-3.7-0.2
		c0-3.4,0-6.5,0-9.9C237.1,139.2,236.4,139.2,235.7,139.2"/>
	<path fill="#ED2517" d="M243.2,139.2c0,4.1,0,8.2,0,12.4c0.7,0.1,1.4,0.1,2.1,0.2c0-4.2,0-8.3,0-12.5
		C244.7,139.2,243.9,139.2,243.2,139.2"/>
	<path fill="#ED2517" d="M247.2,139.2c0.9,2.1,1.6,4.2,2.5,6.4c-0.9,2.1-1.8,4.2-2.7,6.3c0.7,0.1,1.5,0.2,2.3,0.3
		c0.5-1.3,1-2.3,1.6-3.7c0.5,1.4,1,2.5,1.6,4c0.7,0.1,1.7,0.2,2.5,0.3c-0.9-2.4-1.9-4.9-2.8-7.2c0.9-2.1,1.8-4.2,2.8-6.4
		c-0.8,0-1.6,0-2.3,0c-0.6,1.4-1,2.3-1.5,3.6c-0.5-1.4-0.9-2.3-1.4-3.6C248.7,139.2,248,139.2,247.2,139.2"/>
</g>
</svg>
