<?xml version="1.0" encoding="utf-8"?>
<!-- Generator: Adobe Illustrator 18.1.0, SVG Export Plug-In . SVG Version: 6.00 Build 0)  -->
<!DOCTYPE svg PUBLIC "-//W3C//DTD SVG 1.1//EN" "http://www.w3.org/Graphics/SVG/1.1/DTD/svg11.dtd">
<svg version="1.1" id="Layer_1" xmlns:sketch="http://www.bohemiancoding.com/sketch/ns"
	 xmlns="http://www.w3.org/2000/svg" xmlns:xlink="http://www.w3.org/1999/xlink" x="0px" y="0px" viewBox="0 55.2 2290 393.5"
	 enable-background="new 0 55.2 2290 393.5" xml:space="preserve">
<title>Group</title>
<desc>Created with Sketch.</desc>
<path id="Fill-9" fill="#9A1933" d="M63.3,128.6l36.4,18.3L63.3,88.2l-36.4,58.7L63.3,128.6L63.3,128.6z M23.9,154h78.6l-39.4-17.3
	L23.9,154L23.9,154z"/>
<path id="Fill-10" fill="#E11931" d="M63.3,128.6V88.4l-36.4,58.7L63.3,128.6L63.3,128.6z M23.9,154h39.4v-17.3L23.9,154L23.9,154z"
	/>
<path id="Fill-11" fill="#78242F" d="M105.7,141.9c1.4,0,2.6,1.2,2.6,2.6c0,1.4-1.2,2.6-2.6,2.6c-1.4,0-2.6-1.2-2.6-2.6
	C103.3,143.1,104.3,141.9,105.7,141.9L105.7,141.9z M105.7,146.9c1.2,0,2.2-1,2.2-2.2c0-1.2-1-2.4-2.2-2.4s-2.2,1-2.2,2.4
	C103.5,145.9,104.5,146.9,105.7,146.9L105.7,146.9z M105.3,146.1h-0.4v-3h1.2c0.6,0,1,0.4,1,0.8c0,0.6-0.4,0.8-0.8,0.8l0.8,1.4h-0.4
	l-0.8-1.4h-0.6L105.3,146.1L105.3,146.1z M105.3,144.5h0.4c0.4,0,0.8,0,0.8-0.6c0-0.4-0.4-0.6-0.6-0.6h-0.6L105.3,144.5L105.3,144.5
	z"/>
<path id="Fill-12" fill="#003468" d="M133.2,146.9h17.7c18.1,0,28.9-9.9,28.9-26.1S169,94.7,150.9,94.7h-17.7V146.9L133.2,146.9z
	 M144.5,103.7h6.4c11.9,0,17.7,6,17.7,17.1s-5.8,17.1-17.7,17.1h-6.4V103.7L144.5,103.7z"/>
<path id="Fill-13" fill="#003468" d="M217.9,124.2h21.3v-9h-21.3v-11.5H242v-9h-35.2v52.3h36v-9h-24.7v-13.7"/>
<path id="Fill-14" fill="#003468" d="M306.5,137.9H285V94.7h-11.3v52.3h32.8L306.5,137.9"/>
<path id="Fill-15" fill="#003468" d="M366.8,94.7h-45v9h16.9v43.2h11.3v-43.2h16.9V94.7"/>
<path id="Fill-16" fill="#003468" d="M431.8,146.9h-11.7l-4.8-13.1H395l-4.8,13.1h-10.9l20.9-52.5l0,0h11.3L431.8,146.9L431.8,146.9
	z M412.1,125.2l-7-18.5l-7,18.5H412.1L412.1,125.2z"/>
<g>
	<path id="Fill-24" fill="#E33546" d="M367.4,409.1c-1.6,0-14.9,0-16.7,0c-5.2,0-4.8-4.6-5.4-8.4v-25.1c0,0,3.6,0,7.8,0
		c4.6,0,10.5-0.8,16.1,2.6c0,0-4-10.3-16.1-10.3h-7.8v-4.8v-3c0,0,0-7-1.6-9c0,0,10.3,0,11.1,0c9.6,0,16.9-0.2,24.7,5.2
		c0,0-1.4-13.3-19.9-13.3h-36c0,0,6.2,5.6,6,17.1l0.2,45.6c0,11.5,4.4,11.9,4.4,11.9h12.3h5.6h17.5c8,0,10.9-6,10.9-9.2l0.2-4.4
		C380.5,403.7,377.9,409.1,367.4,409.1"/>
	<path id="Fill-25" fill="#E33546" d="M461.9,405.3v-32c0-12.5-9.6-15.7-16.9-15.7c-9.6,0-12.5,8.2-13.7,11.3
		c-2.2-7.8-9.6-11.3-15.7-11.3c-11.5,0-14.5,11.5-14.5,11.5S401,358,391.8,358h-9c0,0,5.2,2.2,5.2,11.9v35.4
		c0,11.7,4.4,11.9,4.4,11.9h14.9c-0.4-0.2-5.8-4.4-5.8-12.1v-31.4c0.2-1.4,2.4-6.2,8.8-6.2c3.6,0,7.6,4,7.6,8.4v29.2
		c0,11.9,4.4,11.9,4.4,11.9h15.1c0,0-5.8-4.2-5.8-12.1v-31.4c0.6-1.8,2.6-6,8.2-6c4.4,0,8.2,4,8.2,8.4c0,0,0,26.7,0,29.2
		c0,11.9,4.4,11.9,4.4,11.9c7.8,0,15.1,0,15.1,0S461.9,413.1,461.9,405.3"/>
	<path id="Fill-26" fill="#E33546" d="M488.3,405.3c0,7.8,5.8,11.9,5.8,11.9s-7.2,0-14.9,0c0,0-4.6,0-4.6-11.9l0,0v-35.6
		c0-9.4-5.2-11.9-5.2-11.9h9c3.2,0,9.9,0,9.9,13.3V405.3L488.3,405.3"/>
	<path id="Fill-27" fill="#E33546" d="M534.3,362.5c0,0-1.4-4.2-7.6-4.2c-9.4,0-11.7,11.7-11.7,11.7c-0.8-9.2-3.2-11.9-9.9-11.9h-9
		c0,0,5.2,2.2,5.2,11.9v35.6c0,11.7,4.4,11.9,4.4,11.9h14.9c-0.4-0.2-5.8-4.4-5.8-12.1v-29.2c0.4-2.6,1.6-4.6,3.6-6
		c5-3.4,11.7-2.6,15.5,2.4v-10.1"/>
	<path id="Fill-28" fill="#E33546" d="M604.3,364.7c5,0,8.8,2.4,8.8,2.4v-8.8h-12.7v-13.5c0,0-3.2,6-10.1,11.9
		c-4.2,3.6-13.3,8.2-13.3,8.2l9.4,0.2v41.2c0,11.5,4.6,11.5,4.6,11.5c8.2,0,14.9,0,14.9,0s-5.8-4-5.8-11.5v-41
		C604.5,364.7,601.7,364.7,604.3,364.7"/>
	<path id="Fill-29" fill="#E33546" d="M649.7,382.6c-8.4,9.2-15.1,7.6-20.3,14.5c0,0,0.8,9,7.4,12.3c2.2,1,11.5,4.6,17.5-6.2v9.6
		c0,0-3.8,4.6-16.1,4.6c-14.7,0-24.7-12.1-24.7-28.5c0-16.1,8.2-31,23.7-31.2C652.5,357.6,660.8,370.5,649.7,382.6L649.7,382.6z
		 M640.5,378.7c2.4-4.8,4.4-16.9-4-16.3c-9.9,0.8-8,28.1-8,28.1C631.8,386.8,636.8,386,640.5,378.7L640.5,378.7z"/>
	<path id="Fill-30" fill="#E33546" d="M481.2,353.2c3.8,0,7-3.2,7-7.2s-3.2-7.2-7-7.2s-7,3.2-7,7.2
		C474.4,350,477.4,353.2,481.2,353.2"/>
	<path id="Fill-31" fill="#E33546" d="M550,410.5c-3.4,0-5.8-3.6-5.8-7.4c0-14.9,11.7-16.9,14.7-20.7v24.9
		C557.4,408.5,556,410.5,550,410.5L550,410.5z M558.8,376.5c-3.4,6.4-30.6,7.6-26.3,29.6c1.6,8.6,7.2,11.3,14.1,11.3
		s10.9-3.6,12.5-7c1,6.6,4.2,7,4.2,7c7.8,0,14.9,0,14.9,0s-5.8-4-5.8-11.9v-33.2c0-8-8.4-14.1-17.5-14.1c-8.6,0-14.1,4.4-14.1,4.4
		v10.3c0,0,3-8.2,10.9-8.2c7.6,0,8.2,4,8,6C559.8,370.3,560.6,373.1,558.8,376.5L558.8,376.5z"/>
	<path id="Fill-32" fill="#E33546" d="M682.9,401.1c0,4.2-3.4,9.6-11.1,9.6c-7.8,0-10.9-8.4-10.9-8.4v10.7c0,0,5.6,4.2,14.3,4.2
		c10.3,0,20.5-8,20.3-19.5c0-4-1.4-7.4-3.4-10.3c-3.4-4.8-9.9-8.2-14.7-11.5c-2.8-1.8-4.2-5-4.2-6c0-2,0.8-6,8.4-6
		c7.4,0,10.7,8.2,10.7,8.2v-9.9c0,0-5.6-4.6-14.3-4.6c-9,0-17.1,6.2-16.9,14.1c0.2,7,3,11.5,8.4,15.7c2.2,1.6,4.8,3.4,7.6,5
		C681.3,395,682.9,398,682.9,401.1"/>
</g>
<path id="Fill-37" fill="#1A1918" d="M716,92.1c15.3,0,25.3,11.9,25.3,29.4c0,17.5-10.5,29.6-25.3,29.6c-15.1,0-25.7-12.7-25.7-29.6
	C690.3,104.1,701,92.1,716,92.1L716,92.1z M716,146.9c11.1,0,17.1-9.2,17.1-25.7c0-16.1-5.8-25.7-17.1-25.7
	c-11.3,0-17.3,9.4-17.3,25.1C698.8,137.7,704.8,146.9,716,146.9L716,146.9z"/>
<path id="Fill-38" fill="#1A1918" d="M848.7,120.2c0,18.3-9.9,29.6-26.9,29.6h-17.3c0,0,0.4-17.9,0.4-28.5c0-10.3-0.4-28.5-0.4-28.5
	h19.7C840.3,92.9,848.7,102.3,848.7,120.2L848.7,120.2z M840.7,120.4c0-15.5-6.8-24.1-20.3-24.1c-5.8,0-8,0.2-8,0.2s0.4,1.2,0.4,3.6
	c-0.2,4.8-0.2,14.1-0.2,21.1c0,7.6,0.2,15.7,0.2,20.5c0,2.6-0.4,4-0.4,4s2.2,0.2,7.2,0.2C833.4,146.1,840.7,137.1,840.7,120.4
	L840.7,120.4z"/>
<path id="Fill-39" fill="#1A1918" d="M1015.2,92.1c15.5,0,25.7,11.9,25.7,29.4c0,17.5-10.5,29.6-25.7,29.6
	c-15.1,0-25.3-12.7-25.3-29.6C989.9,104.1,1000.1,92.1,1015.2,92.1L1015.2,92.1z M1015.2,146.9c11.1,0,17.3-9.2,17.3-25.7
	c0-16.1-6.2-25.7-17.3-25.7s-17.1,9.4-17.1,25.1C998.3,137.7,1004.1,146.9,1015.2,146.9L1015.2,146.9z"/>
<path id="Fill-40" fill="#1A1918" d="M642.1,129.7c0,13.9,0.8,20.1,0.8,20.1h-5.6c0,0,0.8-22.9,0.8-44.8c0-3.8-0.2-12.1-0.2-12.1h4
	c0,0,15.3,22.5,25.3,37.2c1.2,1.8,2.6,4.4,3.6,6.4c0,0-0.4-3.8-0.4-7.4V113c0-14.3-0.8-20.1-0.8-20.1h5.6c0,0-0.8,21.1-0.8,45.2
	c0,2.2,0.2,11.9,0.2,11.9h-4c0,0-15.1-22.1-25.3-37c-1.4-2.2-2.4-3.8-3.4-5.8c0,0,0.2,4.8,0.2,7.4L642.1,129.7"/>
<path id="Fill-41" fill="#1A1918" d="M874.1,146.9c6.4-0.2,11.1-5.8,10.1-12.1c-0.8-4.8-4.2-7.6-10.1-11.3
	c-7.6-4.4-12.1-7.6-12.9-15.5c-1-9.4,6.4-16.1,15.5-16.5c5.2-0.2,9.9,1.2,11.7,1.8v6.2c0,0-4.2-4.4-11.1-4.4c-5,0-10.1,3-10.1,8.6
	c0,4.8,4,7.4,10.5,11.5c8.8,5.4,13.3,9.9,13.3,17.7c0,10.3-7.8,17.5-17.5,17.5c-5,0-9.9-1-11.7-1.8v-6.6
	C861.8,142.3,866.4,147.1,874.1,146.9"/>
<path id="Fill-42" fill="#1A1918" d="M934.6,92.9v5.4c0,0-4-1.2-10.7-1.2h-3.4v3.6v13.1c0,15.9,0.8,36.2,0.8,36.2h-8.6
	c0,0,0.8-20.3,0.8-36.2c0-2.8-0.2-13.1-0.2-13.1c0-2,0.2-3.6,0.2-3.6h-3.6c-6.4,0-10.5,1.2-10.5,1.2v-5.4H934.6"/>
<path id="Fill-43" fill="#1A1918" d="M1104.9,149.8h-8c0,0-0.4-20.7-1.2-35.4v-6.2c0,0-1,2.8-2.2,5.8l-15.1,37.2
	c0,0-8.4-20.1-15.1-35.2c-1-2-2.2-6.2-3.2-8c0.2,3,0,6.4-0.2,8.6c-1,14.9-1.2,32.8-1.2,32.8h-5.2l3.4-56.9h4.6
	c0,0,10.1,23.5,16.5,38.2c0.8,1.8,1.8,3.8,2.2,5.8c0.4-2.2,1.2-4,2-5.8c5.8-14.7,15.1-38.2,15.1-38.2h4.6L1104.9,149.8"/>
<path id="Fill-44" fill="#1A1918" d="M978.4,106.1c0,7.6-4.4,12.9-12.7,14.9c5.2,10.1,15.9,28.7,15.9,28.7H973
	c0,0-4.4-9.6-16.3-31.4h0.8c8.8,0,13.5-3.8,13.5-11.3c0-6.4-4-10.9-11.1-10.9c-2.2,0-5.4,0.2-5.4,0.2s0.4,1.2,0.4,4.8v29.4
	c0,12.9,0.4,18.9,0.4,18.9h-8c0,0,0.4-22.3,0.4-34.2c0-8-0.4-22.9-0.4-22.9h16.1C973.4,92.9,978.4,97.7,978.4,106.1"/>
<path id="Fill-45" fill="#1A1918" d="M788,106.1c0,7.6-4.6,12.9-12.7,14.9c5.2,10.1,15.5,28.7,15.5,28.7h-8.6c0,0-4.4-9.6-16.3-31.4
	h1c8.6,0,13.3-3.8,13.3-11.3c0-6.4-4-10.9-11.1-10.9c-2,0-5.4,0.2-5.4,0.2s0.4,1.2,0.4,4.8v29.4c0,12.9,0.4,18.9,0.4,18.9h-8
	c0,0,0.8-22.3,0.8-34.2c0-8-0.8-22.9-0.8-22.9h16.3C782.6,92.9,788,97.7,788,106.1"/>
<g>
	<path id="Fill-46" fill="#6F706F" d="M946.2,373.7h16.1v16.7h-16.1V373.7z"/>
	<path id="Fill-47" fill="#6F706F" d="M992.5,373.7h16.1v16.7h-16.1V373.7z"/>
	<path id="Fill-48" fill="#6F706F" d="M1040.9,373.7h16.1v16.7h-16.1V373.7z"/>
	<path id="Fill-49" fill="#6F706F" d="M1088.4,373.7h16.1v16.7h-16.1V373.7z"/>
	<path id="Fill-50" fill="#6F706F" d="M1185.1,340.7c-1.6,0.2-3,0.4-3.8,0.8c-1,0.4-1.8,1.2-2.6,2.4c-0.6,0.8-1,1.8-1.4,2.6
		c-0.4,1-0.6,2.2-0.6,3.8c-0.2,2-0.2,4.4-0.2,7.2v42.8c0,4,0.2,7,0.6,8.8c0.4,2,1,3.4,1.8,4.6c1.6,2,3.8,3.2,6.6,3.4v1.2h-27.5v-1.2
		c1.6-0.2,3-0.4,4-1c1-0.6,2-1.4,2.6-2.4c0.8-1.2,1.4-2.8,1.8-4.8c0.4-2,0.4-4.8,0.4-8.8v-52.1l-21.9,70.2h-0.8l-21.7-69.2v50.9
		c0,4,0.2,7,0.4,8.8c0.4,1.8,1,3.4,1.8,4.6c0.8,1.2,1.6,2,2.6,2.4c1,0.6,2.4,0.8,4,1v1.2h-19.7v-1.2c1.6-0.2,3-0.4,4-1
		c1-0.6,1.8-1.4,2.6-2.4c0.8-1.2,1.4-2.8,1.8-4.8c0.4-2,0.4-4.8,0.4-8.8V357c0-1.8,0-3.4-0.2-5c-0.2-2.8-0.4-5-1-6.2
		c-0.8-1.8-1.6-3.2-3-4c-1.2-0.8-2.8-1.4-4.8-1.6v-1.2h18.5l18.5,62.1l19.1-62.1h17.5v1.8H1185.1z"/>
	<path id="Stroke-51" fill="none" stroke="#6F706F" stroke-width="0.966" d="M1185.1,340.7c-1.6,0.2-3,0.4-3.8,0.8
		c-1,0.4-1.8,1.2-2.6,2.4c-0.6,0.8-1,1.8-1.4,2.6c-0.4,1-0.6,2.2-0.6,3.8c-0.2,2-0.2,4.4-0.2,7.2v42.8c0,4,0.2,7,0.6,8.8
		c0.4,2,1,3.4,1.8,4.6c1.6,2,3.8,3.2,6.6,3.4v1.2h-27.5v-1.2c1.6-0.2,3-0.4,4-1c1-0.6,2-1.4,2.6-2.4c0.8-1.2,1.4-2.8,1.8-4.8
		c0.4-2,0.4-4.8,0.4-8.8v-52.1l-21.9,70.2h-0.8l-21.7-69.2v50.9c0,4,0.2,7,0.4,8.8c0.4,1.8,1,3.4,1.8,4.6c0.8,1.2,1.6,2,2.6,2.4
		c1,0.6,2.4,0.8,4,1v1.2h-19.7v-1.2c1.6-0.2,3-0.4,4-1c1-0.6,1.8-1.4,2.6-2.4c0.8-1.2,1.4-2.8,1.8-4.8c0.4-2,0.4-4.8,0.4-8.8V357
		c0-1.8,0-3.4-0.2-5c-0.2-2.8-0.4-5-1-6.2c-0.8-1.8-1.6-3.2-3-4c-1.2-0.8-2.8-1.4-4.8-1.6v-1.2h18.5l18.5,62.1l19.1-62.1h17.5v1.8
		H1185.1z"/>
	<path id="Fill-52" fill="#6F706F" d="M1188.5,391.2c0-6.8,2-12.9,5.8-18.3c4.6-6.4,10.3-9.6,16.9-9.6s12.1,3.2,16.7,9.6
		c3.8,5.4,5.8,11.5,5.8,18.3c0,6.6-1.8,12.7-5.4,17.9c-4.4,6.4-10.3,9.6-17.1,9.6s-12.7-3.2-17.1-9.6c-1.8-2.6-3.2-5.4-4-8.4
		C1189.1,397.6,1188.5,394.4,1188.5,391.2L1188.5,391.2z M1197.3,390.4c0,7.2,1.2,13.5,3.8,18.5c2.8,5.6,6.2,8.4,10.5,8.4
		c1.8,0,3.4-0.6,5-1.8c1.6-1.2,3-3,4.2-5.2c1.2-2.4,2.2-5.2,3-8.8c0.8-3.6,1.2-7,1.2-10.3c0-3.4-0.4-6.8-1.2-10.5
		c-0.8-3.4-2-6.4-3.2-9c-2.6-4.8-5.8-7-9.6-7c-3.6,0-6.8,2.4-9.4,7.4C1198.5,377.1,1197.3,383.4,1197.3,390.4L1197.3,390.4z"/>
	<path id="Stroke-53" fill="none" stroke="#6F706F" stroke-width="1.072" d="M1188.5,391.2c0-6.8,2-12.9,5.8-18.3
		c4.6-6.4,10.3-9.6,16.9-9.6s12.1,3.2,16.7,9.6c3.8,5.4,5.8,11.5,5.8,18.3c0,6.6-1.8,12.7-5.4,17.9c-4.4,6.4-10.3,9.6-17.1,9.6
		s-12.7-3.2-17.1-9.6c-1.8-2.6-3.2-5.4-4-8.4C1189.1,397.6,1188.5,394.4,1188.5,391.2L1188.5,391.2z M1197.3,390.4
		c0,7.2,1.2,13.5,3.8,18.5c2.8,5.6,6.2,8.4,10.5,8.4c1.8,0,3.4-0.6,5-1.8c1.6-1.2,3-3,4.2-5.2c1.2-2.4,2.2-5.2,3-8.8
		c0.8-3.6,1.2-7,1.2-10.3c0-3.4-0.4-6.8-1.2-10.5c-0.8-3.4-2-6.4-3.2-9c-2.6-4.8-5.8-7-9.6-7c-3.6,0-6.8,2.4-9.4,7.4
		C1198.5,377.1,1197.3,383.4,1197.3,390.4L1197.3,390.4z"/>
	<path id="Fill-54" fill="#6F706F" d="M1251.6,375.9c1.4-2,2.6-3.4,3.8-4.4c2.4-1.8,5.4-2.8,8.8-2.8c4.8,0,9,1.8,12.7,5.4
		c4.4,4.4,6.6,10.9,6.6,19.1s-2.2,14.7-6.4,19.5c-3.6,4.2-8.4,6.2-14.3,6.2c-3,0-5.6-0.4-7.8-1.4l-2.6-1.2c-0.8-0.4-1.4-0.6-2-0.6
		c-1.6,0-3,1.6-4.4,4.8h-2v-66.9c0-4.2-0.6-7.2-1.8-9.2c-1.2-1.8-3-2.8-5.8-2.8v-1.4l14.9-2.4v38.2H1251.6z M1251.6,393.2
		c0,4,0.2,7.8,0.6,11.3c0.4,3.4,0.8,5.8,1.4,7.4c0.8,1.8,1.8,3.4,3.2,4.4c1.4,1,3,1.6,5,1.6c3.8,0,7-2.2,9.6-6.6s3.8-10.1,3.8-16.7
		c0-3.6-0.4-7-1.2-10.3s-2-5.8-3.6-8.2c-1.2-1.8-2.6-3.2-4-4.2c-1.4-1-3-1.4-4.4-1.4c-1.8,0-3.6,0.6-5.2,2c-1.6,1.4-2.8,3-3.6,5.2
		C1252.2,381,1251.6,386,1251.6,393.2L1251.6,393.2z"/>
	<path id="Stroke-55" fill="none" stroke="#6F706F" stroke-width="1.019" d="M1251.6,375.9c1.4-2,2.6-3.4,3.8-4.4
		c2.4-1.8,5.4-2.8,8.8-2.8c4.8,0,9,1.8,12.7,5.4c4.4,4.4,6.6,10.9,6.6,19.1s-2.2,14.7-6.4,19.5c-3.6,4.2-8.4,6.2-14.3,6.2
		c-3,0-5.6-0.4-7.8-1.4l-2.6-1.2c-0.8-0.4-1.4-0.6-2-0.6c-1.6,0-3,1.6-4.4,4.8h-2v-66.9c0-4.2-0.6-7.2-1.8-9.2
		c-1.2-1.8-3-2.8-5.8-2.8v-1.4l14.9-2.4v38.2H1251.6z M1251.6,393.2c0,4,0.2,7.8,0.6,11.3c0.4,3.4,0.8,5.8,1.4,7.4
		c0.8,1.8,1.8,3.4,3.2,4.4c1.4,1,3,1.6,5,1.6c3.8,0,7-2.2,9.6-6.6s3.8-10.1,3.8-16.7c0-3.6-0.4-7-1.2-10.3s-2-5.8-3.6-8.2
		c-1.2-1.8-2.6-3.2-4-4.2c-1.4-1-3-1.4-4.4-1.4c-1.8,0-3.6,0.6-5.2,2c-1.6,1.4-2.8,3-3.6,5.2C1252.2,381,1251.6,386,1251.6,393.2
		L1251.6,393.2z"/>
	<path id="Fill-56" fill="#6F706F" d="M1293,370.9l13.9-2v32.8v4.2c0,2.6,0.2,4.4,0.4,5.6c0.2,1.2,0.8,2.2,1.4,3
		c0.8,1,2.6,1.8,5,2.4v1.2h-21.3v-1.2c2-0.4,3.2-0.8,4.2-1.2c0.8-0.6,1.6-1.4,2-2.8c0.4-0.8,0.6-2.2,0.8-4s0.2-4.2,0.2-7.6v-14.1
		c0-3.8,0-6.6-0.2-8.2s-0.6-2.8-1-3.8c-0.6-1-1.2-1.8-2-2.2c-0.8-0.4-1.8-0.8-3.4-0.8V370.9L1293,370.9z M1303.1,348.4
		c-1.2,0-2.2-0.4-3.2-1.4c-0.8-1-1.2-2.2-1.2-3.6c0-1.4,0.4-2.6,1.2-3.6c0.8-1,1.8-1.4,3-1.4c1.2,0,2.2,0.4,3,1.4s1.2,2.2,1.2,3.6
		c0,1.4-0.4,2.6-1.2,3.6C1305.3,348,1304.3,348.4,1303.1,348.4L1303.1,348.4z"/>
	<path id="Stroke-57" fill="none" stroke="#6F706F" stroke-width="1.019" d="M1293,370.9l13.9-2v32.8v4.2c0,2.6,0.2,4.4,0.4,5.6
		c0.2,1.2,0.8,2.2,1.4,3c0.8,1,2.6,1.8,5,2.4v1.2h-21.3v-1.2c2-0.4,3.2-0.8,4.2-1.2c0.8-0.6,1.6-1.4,2-2.8c0.4-0.8,0.6-2.2,0.8-4
		s0.2-4.2,0.2-7.6v-14.1c0-3.8,0-6.6-0.2-8.2s-0.6-2.8-1-3.8c-0.6-1-1.2-1.8-2-2.2c-0.8-0.4-1.8-0.8-3.4-0.8V370.9L1293,370.9z
		 M1303.1,348.4c-1.2,0-2.2-0.4-3.2-1.4c-0.8-1-1.2-2.2-1.2-3.6c0-1.4,0.4-2.6,1.2-3.6c0.8-1,1.8-1.4,3-1.4c1.2,0,2.2,0.4,3,1.4
		s1.2,2.2,1.2,3.6c0,1.4-0.4,2.6-1.2,3.6C1305.3,348,1304.3,348.4,1303.1,348.4L1303.1,348.4z"/>
	<path id="Fill-58" fill="#6F706F" d="M1320.2,339.9l13.9-2v63.7v4.4c0,2.6,0.2,4.4,0.4,5.6c0.2,1.2,0.8,2.2,1.4,3
		c0.8,1,2.6,1.8,5,2.4v1.2h-21.3v-1.2c2-0.4,3.2-0.8,4.2-1.2c0.8-0.6,1.6-1.4,2-2.8c0.4-0.8,0.6-2.2,0.8-4c0.2-1.8,0.2-4.4,0.2-7.6
		v-44.8c0-3.8,0-6.6-0.2-8.2c-0.2-1.6-0.6-2.8-1-3.8c-0.6-1-1.2-1.8-2-2.2c-0.8-0.4-1.8-0.8-3.4-0.8V339.9L1320.2,339.9z"/>
	<path id="Stroke-59" fill="none" stroke="#6F706F" stroke-width="1.019" d="M1320.2,339.9l13.9-2v63.7v4.4c0,2.6,0.2,4.4,0.4,5.6
		c0.2,1.2,0.8,2.2,1.4,3c0.8,1,2.6,1.8,5,2.4v1.2h-21.3v-1.2c2-0.4,3.2-0.8,4.2-1.2c0.8-0.6,1.6-1.4,2-2.8c0.4-0.8,0.6-2.2,0.8-4
		c0.2-1.8,0.2-4.4,0.2-7.6v-44.8c0-3.8,0-6.6-0.2-8.2c-0.2-1.6-0.6-2.8-1-3.8c-0.6-1-1.2-1.8-2-2.2c-0.8-0.4-1.8-0.8-3.4-0.8V339.9
		L1320.2,339.9z"/>
	<path id="Fill-60" fill="#6F706F" d="M1355.5,385c-0.2,2-0.2,3.4-0.2,4.2c0,3.6,0.4,7,1.2,10.3c0.8,3.4,2,6.2,3.4,8.4
		c1.4,2.2,3.2,4,5.4,5.4c2.2,1.2,4.4,2,6.6,2c1.8,0,3.4-0.4,4.8-1.2c1.6-0.8,2.8-1.8,3.8-3c1.2-1.4,2.2-3.8,3-6.8l1,0.4
		c-0.8,4.8-2.6,8.4-5.4,10.9c-2.8,2.4-6.4,3.6-10.9,3.6c-4,0-7.2-0.8-10.3-2.4c-2.8-1.6-5.2-4-7.2-7.2c-2.8-4.6-4-10.3-4-16.9
		c0-9,2.6-16.3,7.8-21.3c3.8-3.8,8-5.6,12.9-5.6c2.6,0,5,0.6,7,1.8c2.2,1.2,4,2.8,5.6,5c2.4,3.4,3.4,7.6,3.4,12.7h-28.1V385z
		 M1376.5,382.6c-0.2-4-0.8-7-1.8-9.2c-0.8-2-2-3.6-3.4-4.6c-1.4-1.2-3-1.8-4.6-1.8c-2.8,0-5.2,1.4-7.2,4.4c-2,3-3.2,6.6-3.6,11.3
		H1376.5L1376.5,382.6z"/>
	<path id="Stroke-61" fill="none" stroke="#6F706F" stroke-width="1.051" d="M1355.5,385c-0.2,2-0.2,3.4-0.2,4.2
		c0,3.6,0.4,7,1.2,10.3c0.8,3.4,2,6.2,3.4,8.4c1.4,2.2,3.2,4,5.4,5.4c2.2,1.2,4.4,2,6.6,2c1.8,0,3.4-0.4,4.8-1.2
		c1.6-0.8,2.8-1.8,3.8-3c1.2-1.4,2.2-3.8,3-6.8l1,0.4c-0.8,4.8-2.6,8.4-5.4,10.9c-2.8,2.4-6.4,3.6-10.9,3.6c-4,0-7.2-0.8-10.3-2.4
		c-2.8-1.6-5.2-4-7.2-7.2c-2.8-4.6-4-10.3-4-16.9c0-9,2.6-16.3,7.8-21.3c3.8-3.8,8-5.6,12.9-5.6c2.6,0,5,0.6,7,1.8
		c2.2,1.2,4,2.8,5.6,5c2.4,3.4,3.4,7.6,3.4,12.7h-28.1V385z M1376.5,382.6c-0.2-4-0.8-7-1.8-9.2c-0.8-2-2-3.6-3.4-4.6
		c-1.4-1.2-3-1.8-4.6-1.8c-2.8,0-5.2,1.4-7.2,4.4c-2,3-3.2,6.6-3.6,11.3H1376.5L1376.5,382.6z"/>
	<path id="Fill-62" fill="#ED0F84" d="M984.4,412.3h12.3v6.4h-36.6v-6.4h12.3v-72.6c0,0-20.3,0-20.3,27.7h-4v-31.8h61.1v31.8h-4.2
		c0,0-1-27.7-20.3-27.7v72.6"/>
</g>
<g>
	<path id="Fill-1" fill="#1A1918" d="M1745.4,369.1l-2.4,7.2h3.4l2-6.4c1,0.2,2.4,0.4,3.8,0.4c8.8,0,14.3-3.6,17.3-8.2
		s4-10.3,4-14.3c0-9-4.8-16.1-11.9-18.7l2.6-7.8h-3.2l-2.2,7c-1.4-0.2-2.6-0.4-4.2-0.4c-13.3,0-20.7,9.9-20.7,22.5
		C1733.5,359,1737.3,366.1,1745.4,369.1L1745.4,369.1z M1760,333.7c4.4,3.8,6,10.1,6,16.3c0,9.4-3,17.1-12.3,17.1
		c-1.6,0-3.2-0.4-4.2-0.8L1760,333.7L1760,333.7z M1752.6,331.1c1.6,0,3.4,0.4,4.6,1l-10.5,32.6c-4.4-4-6-11.7-6-17.3
		C1740.7,338.9,1743.6,331.1,1752.6,331.1L1752.6,331.1z M1900.8,360.2c0-1.2-0.4-1.6-0.8-1.6c-1.4,0.2-1.6,2-3.4,3.8
		c-1.8,1.8-4.8,3.6-11.7,3.6c-3.4,0-3.4-1.4-3.4-4.4c0-0.4,0-0.6,0-1v-26.9c0-2,0.8-2.4,1.8-2.8c0.8-0.2,2.2-0.2,2.2-1.6
		c0-0.4-0.2-0.8-0.4-0.8c-0.4-0.2-0.6-0.2-1.2-0.2c-1,0-1.6,0.2-6.2,0.2c-2,0-5.2-0.2-7.4-0.2c-1.2,0-2,0.4-2,1.2
		c0.2,1.4,1.8,1.4,3.2,1.8c1.6,0.4,3,1.2,3,3.4v27.1c0,3.4-1,4.2-2,4.6c-0.4,0.2-1,0.2-1.4,0.4c-0.4,0.2-0.8,0.6-0.8,1.4
		c0,0.6,0.6,0.8,1.2,0.8c3,0,5.4-0.2,7-0.2c2.8,0,6,0.2,14.5,0.2C1897.5,369.9,1900.8,364.9,1900.8,360.2L1900.8,360.2z
		 M1812.9,346.8c3.6-1.4,5.6-4.6,5.6-8.2c0-0.8,0-3.2-1.8-5.6c-1.8-2.4-5.2-4.6-12.1-4.6c-4.6,0-9.2,0.2-14.1,0.2
		c-2.6,0-2.8-0.2-3.2-0.2c0,0,0,0-0.2,0s-0.4,0-0.6,0.2s-0.4,0.4-0.4,1c0,0.8,0.4,1.2,1,1.4c1.8,0.8,4.6,0.2,4.8,6v25.5
		c0,2.6-1,3.6-2.2,4c-1,0.6-2.4,0.6-2.6,1.8c0,0.4,0.2,0.8,0.6,1s0.8,0.2,1.4,0.2c1.2,0,2.6-0.2,3.8-0.2c2.8,0,5.4,0.2,13.7,0.2
		c4.6,0,8-1.2,10.7-3.4c2.4-2.2,3.8-5.4,3.8-9.2C1821.4,351.8,1819.1,348.6,1812.9,346.8L1812.9,346.8z M1799.2,336.7
		c0-3.4,0-5.2,3.6-5.2c4.8,0,8.6,3.6,8.6,8.6c0,4.2-1.4,6.2-5.6,6.2h-3.2c-3.2-0.4-3.4-0.2-3.4-3L1799.2,336.7L1799.2,336.7z
		 M1805.9,367.1c-5.2,0-6.4-1.4-6.4-6.8v-6.4c0-3,0-4,3-4.2c9.9,0,11.3,5,11.5,8.4C1813.7,363.5,1811.1,366.9,1805.9,367.1
		L1805.9,367.1z M1944.2,360.2c0-1.2-0.4-1.6-0.8-1.6c-1.4,0.2-1.6,2-3.4,3.8c-1.8,1.8-4.8,3.6-11.7,3.6c-3.4,0-3.4-1.4-3.4-4.4
		c0-0.4,0-0.6,0-1v-7.4c0-0.4,0-1,0-1.4c0-2.2,0-2.4,2-2.4h4c2.8,0,3.6,1.4,4.2,2.8s0.4,3,1.8,3.2c1,0,1.2-1.2,1.2-1.8
		c0-0.4,0-1,0-1.2l-0.4-10.3c0-0.6-0.2-1.2-0.4-1.4c-0.2-0.2-0.6-0.4-0.8-0.2h-0.2c-0.6,0-0.8,0.4-1,1c-0.8,1.6-1.6,4.2-5,4.4h-3.4
		c-1.2,0-1.6-0.2-1.8-0.4c-0.2-0.2-0.2-1-0.2-2.2v-8c0-2,0-2.8,0.8-3.2c0.8-0.4,2.4-0.4,5.8-0.4c5.2,0,6.6,1.6,7.2,3.2
		c0.2,0.8,0.4,1.6,0.4,2.2c0.2,0.6,0.4,1.2,1.2,1.2c1,0,1.2-1,1.2-1.8c0-0.4,0-0.8,0-1l-0.2-5.6c0-0.6-0.4-1.4-1.4-1.4
		c-4.8,0-8.6,0.2-12.7,0.2c-8.4,0-12.5-0.2-14.7-0.2c-0.8,0-1.4,0.6-1.4,1.2c0,1.4,1.8,1.4,3.2,2c1.6,0.4,3,1.2,3,3.6v26.9
		c0,3.4-1,4.2-2,4.6c-0.4,0.2-1,0.2-1.4,0.4c-0.4,0.2-0.8,0.6-0.8,1.4c0,0.6,0.6,0.8,1.2,0.8c3,0,5.4-0.2,7-0.2
		c2.8,0,6,0.2,14.5,0.2C1940.8,369.9,1944.2,364.9,1944.2,360.2L1944.2,360.2z M1839.2,366.9c-0.8,0.6-2,0.6-2.2,2
		c0,0.4,0.2,1,0.8,1c1.4,0,3.8-0.2,6.2-0.2c4.2,0,6.2,0.2,8.4,0.2c0.6,0,1.2,0,1.4-0.2c0.4-0.2,0.6-0.6,0.6-1c0-0.6-0.6-1-1.2-1
		c-1.8-0.4-5-0.2-5-5.2v-27.5c0-2.6,1-3.4,1.8-3.8c0.4-0.2,1-0.2,1.4-0.4c0.4-0.2,0.8-0.6,0.8-1.2c0-0.4-0.2-0.8-0.6-1
		s-0.8-0.2-1.6-0.2c-3.2,0-5.2,0.2-7,0.2s-4-0.2-6.2-0.2c-0.2,0-0.4,0-0.6,0c-0.6,0-1.6,0-1.6,1c0.2,1.4,1.8,1.4,3.2,1.8
		c1.6,0.6,3,1.2,3,3.8v27.5C1841.3,365.5,1840.3,366.5,1839.2,366.9L1839.2,366.9z M1713.6,369.5c1.6,0,3.2,0.2,4.8,0.2
		c1,0,1.6,0,2.2-0.2c0.4-0.2,0.8-0.6,0.8-1.2c0-0.6-0.4-1-1-1.2c-1.6-0.6-4.2-0.4-4.4-6l-1-25.5c0-0.2,0-0.2,0-0.4
		c0-3,1.2-3.8,2.4-4.4c1.2-0.4,2.6-0.4,2.8-1.8c0-0.2,0-0.6-0.4-0.8c-0.2-0.2-0.8-0.2-1.4-0.2c-1.6,0-2.6,0.2-3.6,0.2
		c-0.8,0-1.8-0.2-3.2-0.2c-1.2,0-1.4,1-1.6,1.4l-12.9,27.9c0,0-0.2,0.4-0.4,0.6c0,0.2-0.2,0.2-0.2,0.4l0,0l0,0c0,0-0.2-0.2-0.4-0.8
		l-12.1-27.5c-0.6-1.6-1.4-1.8-2-1.8h-0.2c-1.8,0-3.8,0.2-5.2,0.2c-1.8,0-2.6-0.2-3.2-0.2c-0.6,0-0.8,0.6-1,1c0,1.6,1.6,1.4,3,2.2
		c1.4,0.8,2.6,2,2.6,6.4c0,0.2,0,0.4,0,0.8l-0.8,23.1c-0.2,3-1.2,4-2.4,4.6c-1,0.6-2.4,0.8-2.4,2c0,0.4,0.4,1,1.2,1
		c0.8,0,2.8-0.2,5.4-0.2s3.6,0.2,5.6,0.2c0.6,0,1-0.2,1.2-0.4c0.2-0.2,0.4-0.4,0.4-0.6c0-0.2,0-0.2,0-0.2c0-0.8-0.6-1-1-1.2
		c-1.6-0.6-4.6-0.2-4.6-6.8c0-0.2,0-0.4,0-0.8l0.6-16.1c0-0.2,0-0.6,0-0.8c0-0.2,0-0.2,0-0.4c0,0.2,0.2,0.6,0.4,0.8l10.7,24.7
		c0.2,0.6,0.6,1.8,1.6,1.8c1,0,1.4-1,1.6-1.8l10.5-22.7c0.4-1,0.8-1.6,1-2.2c0.2-0.2,0.2-0.4,0.4-0.6l0,0c0,0,0,0.2,0,0.6s0,1,0,1.8
		l0.8,17.5c0,0.2,0,0.4,0,0.6c0,2.8-1,3.6-1.8,4c-0.8,0.4-2,0.6-2.2,1.8c0,1,1,1.2,1.8,1.2c0.2,0,0.6,0,0.8,0
		C1708.8,369.9,1710,369.5,1713.6,369.5L1713.6,369.5z M1950.2,408.7c-4-1.6-6.8-2.8-8.6-3.8s-2.4-2-2.4-4c0-3.6,2.4-5.8,6.4-5.8
		c5,0,7.6,2.6,9.4,5.2c0.8,1.4,1.4,2.6,1.8,3.6s0.6,1.8,1.4,1.8c0.6,0,1-0.2,1.2-0.4c0.2-0.4,0.4-0.8,0.4-1.2c0-0.2,0-0.4,0-0.6
		l-0.6-7.6c0-0.6,0-1.2-0.2-1.6c0-0.4-0.4-0.8-1-0.8c-1,0-2.4,1-3,1c-1.6,0-4.2-2.2-9.2-2.2c-7,0-12.1,5-12.1,11.7
		c0,6.2,3.6,8.6,8.8,10.7c4.8,2,8.2,3.2,10.3,4.6c2,1.2,3,2.6,3,5c0,4.4-3.4,7-8,7c-6.4,0-10.1-5-12.1-10.7
		c-0.2-0.6-0.4-1.4-1.6-1.4c-0.4,0-0.8,0.2-1,0.4c-0.2,0.2-0.2,0.6-0.2,0.8c0,0.6,0.2,1.2,0.2,1.6h0.2h-0.2l1.8,7.8
		c0.2,1.2,0.4,2,2,2.4c3.4,0.8,6.4,2.2,10.3,2.2c7.8,0,13.5-5.2,13.5-12.9C1960.9,414.1,1956.7,411.5,1950.2,408.7L1950.2,408.7z
		 M1919.5,414.5c-2,0-4,0.2-6,0.2c-2.6,0-5-0.2-7.6-0.2c-0.4,0-0.8,0-1.2,0s-0.8,0-1.2,0.2s-0.6,0.6-0.6,1.2c0,0.8,0.6,1,1.2,1
		c2,0.4,5.2-0.4,5.2,6.2c0,3.4,0,7.8-9.9,7.8c-4.4,0-7.4-2.6-9.4-6c-2-3.6-3-8-3-12.1c0-14.5,7.2-17.7,12.1-17.9
		c7.2,0,10.7,3,12.7,6.2c1,1.6,1.6,3,2,4.2c0.2,0.6,0.4,1,0.6,1.4c0.2,0.4,0.2,0.6,0.6,0.6c0.6,0,1,0,1.2-0.2s0.4-0.6,0.4-1v-9.6
		c0-0.8,0-2.4-1-2.4c-0.6,0-1,0.6-1.2,1s-0.6,0.6-1,0.6c-0.6,0-2.2-1-4.4-1.8c-2.4-1-5.4-1.8-9.2-1.8c-14.1,0-19.9,12.9-19.9,22.7
		c0,4.6,2.6,19.5,18.9,19.5c6,0,12.3-2.6,17.5-5.6c0.6-0.4,0.8-0.8,0.6-1.8c0-0.8-0.2-2.4-0.2-4.8c0-3.6,1-4.6,1.8-5
		c0.4-0.2,0.8-0.2,1.4-0.4c0.4-0.2,0.8-0.6,0.8-1.2C1920.3,414.9,1919.9,414.5,1919.5,414.5L1919.5,414.5z M1867.2,392.8
		c-0.6,0-2.4,0.2-5.8,0.2c-3.8,0-5.4-0.2-6.2-0.2c-0.8,0-1.2,0.8-1.2,1.2c0.2,1.4,2,1.4,3.6,2s3.2,1.6,3.2,4v19.1c0,0.8,0,1.2,0,1.6
		c0,0.2,0,0.2,0,0.2l0,0c0,0-0.8-0.6-1.6-1.4l-22.1-25.3c-0.4-0.6-0.6-0.8-0.8-1.2c-0.2-0.4-0.6-0.4-1.6-0.4c-3,0-4.4,0.2-5.8,0.2
		c-1,0-2-0.2-3-0.2c-0.8,0-1.2,0.6-1.2,1.2c0,0.8,0.6,1.2,1.2,1.4c1.8,0.8,5,0.4,5,8.6l0,0v21.9c0,2.8-1.2,3.8-2.6,4.6
		c-1.2,0.8-2.8,1-2.8,2.4c0,0.4,0.2,0.6,0.4,0.8c0.2,0.2,0.6,0.2,0.8,0.2s0.6,0,0.8,0c1.6,0,3-0.2,4.8-0.2c2,0,3.8,0.2,6.4,0.2h0.2
		c0.8,0,2,0,2-1c0-0.8-0.6-1.2-1.2-1.4c-2-0.6-5.6-0.2-5.8-8.4v-19.5c0-0.2,0-0.4,0-0.6c0-0.2,0,0,0.2-0.2c0.2,0,0.4,0.2,0.8,0.6
		l26.5,30c0.4,0.4,0.8,1,1.6,0.8l0,0c0.4,0,0.6-0.2,0.8-0.6s0-0.8,0-1.4v-32.4c0-3,1-4,2.2-4.6c1-0.6,2.4-0.6,2.4-1.8
		c0,0,0-0.4-0.2-0.6C1868,392.8,1867.8,392.8,1867.2,392.8L1867.2,392.8z M1778.3,432.2c-1-0.4-3-0.6-6.2-5.2l-10.5-14.9
		c-0.8-1.2-1.2-1.8-1.2-2.2c0-0.2,0.8-1.2,1.2-1.4l-0.2-0.2l0.2,0.2l9.6-9.4c2.6-2.6,4.4-3.4,5.4-3.6c0.6-0.2,1-0.2,1.2-0.4
		c0.4-0.2,0.6-0.6,0.4-1c0-1.2-1-1.2-1.6-1.2h-0.2c-2.4,0-3.8,0.2-5.2,0.2c-1.6,0-5.4-0.2-6-0.2c-0.4,0-0.8,0-1,0.2
		c-0.4,0.2-0.4,0.6-0.4,1.2c0,1,1,1,1.8,1.2c0.8,0.2,1.4,0.4,1.4,1c0,2.2-5.2,7-6.8,8.6l-7.2,7.4c-0.6,0.6-1,1-1.2,1l0,0l0,0
		c0,0,0-0.4,0-0.6s0-0.4,0-0.4v-13.3c0-3.2,1-3.8,1.8-4c0.4-0.2,1-0.2,1.4-0.4c0.4-0.2,0.8-0.6,0.8-1.2c0-0.4-0.2-0.8-0.6-0.8
		c-0.2-0.2-0.6,0-0.8-0.2c-1.2,0-4.6,0.2-7.6,0.2c-3.8,0-5.6-0.2-6.6-0.2c-0.4,0-0.6,0-1,0.2c-0.2,0.2-0.4,0.6-0.4,0.8
		c0,0.8,0.6,1.2,1,1.4c1.8,0.6,4.6,0.2,4.6,5.2v25.1c0,4.2-1,5.4-2,5.8c-0.6,0.2-1,0.4-1.6,0.6c-0.4,0.2-0.8,0.6-0.8,1.4
		c0.2,0.8,1,0.6,2,0.8c1.8,0,4.6-0.2,7.2-0.2c3.2,0,4.6,0.2,6,0.2c0.6,0,1,0,1.4-0.2c0.4-0.2,0.4-0.4,0.4-0.8c0-1.4-1.6-1.4-2.8-1.8
		c-1.4-0.4-2.4-1.2-2.6-3.8v-7.6c0-0.2,0-0.6,0-0.8c0-0.8,0-1.2,0.6-1.8c1.2-1.4,2.2-2.4,2.4-2.4c0,0,0.2,0,0.4,0.4
		c0.2,0.2,0.4,0.6,0.8,1.2l11.1,15.7c1,1.6,1.8,1.8,2.8,1.8c0,0,0,0,0.2,0c1.6,0,2.6-0.2,3.6-0.2c1.4,0,2.8,0.2,4.2,0.2
		c0.4,0,0.6-0.2,0.8-0.4c0.2-0.2,0.2-0.4,0.2-0.6C1778.9,432.6,1778.7,432.2,1778.3,432.2L1778.3,432.2z M1725.9,431.8
		c-1.8-0.4-5-0.2-5-5.2V399c0-2.6,1-3.4,1.8-3.8c0.4-0.2,1-0.2,1.4-0.4c0.4-0.2,0.8-0.6,0.8-1.2c0-0.4-0.2-0.8-0.6-1
		c-0.4-0.2-0.8-0.2-1.6-0.2c-3.2,0-5.2,0.2-7,0.2c-2,0-4-0.2-6.2-0.2c-0.2,0-0.4,0-0.6,0c-0.6,0-1.6,0-1.6,1
		c0.2,1.4,1.8,1.4,3.2,1.8c1.6,0.6,3,1.2,3,3.8v27.5c0,2.6-1,3.4-1.8,4c-0.8,0.6-2,0.6-2.2,2c0,0.4,0.2,1,0.8,1
		c1.4,0,3.8-0.2,6.2-0.2c4.2,0,6.2,0.2,8.4,0.2c0.6,0,1.2,0,1.4-0.2c0.4-0.2,0.6-0.6,0.6-1C1726.9,432.2,1726.3,432,1725.9,431.8
		L1725.9,431.8z M1694.3,392.8c-0.2-0.2-0.6-0.2-1-0.2c-0.2,0-0.6,0-0.8,0c-1.6,0-3,0.2-4.6,0.2s-3.2-0.2-4.8-0.2
		c-0.2,0-0.4,0-0.6,0c-0.8,0-1.8,0-2,1.2c0.2,1.4,1.6,1.2,3,1.6c1.4,0.4,2.6,1,2.6,3.6c0,0.8-0.2,2.8-1.8,6.6l-7.6,17.5
		c0,0.2-0.2,0.6-0.2,0.8c0,0.2-0.2,0.2-0.2,0.2l0,0l0,0c-0.2-0.2-0.4-0.6-0.4-1l-7.2-18.5c-1.4-3.4-2-6.2-2-7.8c0-1,0.6-1.4,1.4-1.6
		c0.8-0.2,1.8-0.4,1.8-1.4c0-0.4,0-0.8-0.4-1c-0.4-0.2-0.8-0.2-1.4-0.2c-0.2,0-0.4,0-0.6,0c-1,0-2.4,0.2-6,0.2
		c-1.8,0-3.8-0.2-5.6-0.2c-0.2,0-0.8,0-1.2,0c-0.6,0-1.6,0.2-1.6,1.2c0,0.8,0.8,1,1,1c2.2,0.6,2.8,1,3.8,3.2l13.7,33.6
		c1,2.4,1.6,3.2,2.4,3.2l0,0c0.8,0,1.2-0.6,1.6-2l0,0l15.1-34.6c0.8-1.6,1.6-2.4,2.4-2.8s1.4-0.8,1.4-1.6
		C1694.7,393.4,1694.5,393,1694.3,392.8L1694.3,392.8z M1809.7,431.8c-1.8-0.4-5-0.2-5-5.2V399c0-2.6,1-3.4,1.8-3.8
		c0.4-0.2,1-0.2,1.4-0.4c0.4-0.2,0.8-0.6,0.8-1.2c0-0.4-0.2-0.8-0.6-1s-0.8-0.2-1.6-0.2c-3.2,0-5.2,0.2-7,0.2c-2,0-4-0.2-6.2-0.2
		c-0.2,0-0.4,0-0.6,0c-0.6,0-1.6,0-1.6,1c0.2,1.4,1.8,1.4,3.2,1.8c1.6,0.6,3,1.2,3,3.8v27.5c0,2.6-1,3.4-1.8,4c-0.8,0.6-2,0.6-2.2,2
		c0,0.4,0.2,1,0.8,1c1.4,0,3.8-0.2,6.2-0.2c4.2,0,6.2,0.2,8.4,0.2c0.6,0,1.2,0,1.4-0.2c0.4-0.2,0.6-0.6,0.6-1
		C1810.7,432.2,1810.1,432,1809.7,431.8L1809.7,431.8z"/>
</g>
<g>
	<path id="Fill-2" fill="#E70915" d="M1597.2,162.2c0,0,3.4,0.2,9,0.6V75h-9V162.2"/>
	<path id="Fill-3" fill="#E70915" d="M1444.6,83.8h9.9v76.4c0,0,2.2-0.2,9-0.4v-76h10.1V75h-28.9V83.8"/>
	<path id="Fill-4" fill="#E70915" d="M1361.4,150.6h-0.6L1349.7,75H1335v94.7c0,0,3-0.4,9-1.2l-0.6-72h0.6l10.5,71
		c0,0,3.6-0.4,15.9-1.6V75h-9.4L1361.4,150.6"/>
	<path id="Fill-5" fill="#E70915" d="M1667.6,75h-10.3l-5.2,33.8h-0.6l-5.2-33.8h-10.1l7.8,41.8l-7.6,49.1l9.6,1l5-40.4h0.6
		l4.8,41.4l10.7,1.2l-7.6-51.1L1667.6,75"/>
	<path id="Fill-6" fill="#E70915" d="M1559.8,75h-9v84.8c0,0,6.2,0.2,21.1,0.8V152c0,0-1.6-0.2-11.9-0.6V75"/>
	<path id="Fill-7" fill="#E70915" d="M1400.6,163.2c0,0,5.4-0.4,20.9-1.4v-8.6l-11.7,0.8v-30.4h11.7v-8.8h-11.9v-31h11.9V75h-20.9
		V163.2"/>
	<path id="Fill-8" fill="#E70915" d="M1500.9,159.2h9.2v-35.6h11.7v-8.8h-11.9v-31h11.9V75h-20.9V159.2"/>
</g>
<path id="Fill-33" fill="#3A3B38" d="M2285.8,141.5c-1.8,2-3.6,1-4,0.4l-12.1-15.9h0.8c23.1-5.2,17.3-33.8-1.6-34.2h-39.4v56.3h6.2
	v-18.5c0-2.4,0.8-3.6,3.4-3.6h22.9l15.7,20.5c3.2,2.8,8.8,4,12.3,0L2285.8,141.5L2285.8,141.5z M2238.3,120c-2.2,0-2.8,1.2-2.8,1.2
	V98.1h33.2c14.1,0.6,14.5,21.1,0,21.9H2238.3L2238.3,120z"/>
<path id="Fill-34" fill="#3A3B38" d="M2172.8,91.9h-49.7v56.3h51.3v-6.4h-45v-15.9c0-2.4,0.8-3.6,3.4-3.6h26.7V116h-27.3
	c-2.2,0-2.8,1.2-2.8,1.2V98.1h43.4V91.9"/>
<path id="Fill-35" fill="#3A3B38" d="M2061.6,119.2c10.7-8.2,6.2-25.5-7.4-27.3h-41v56.3h41C2067.4,146.3,2073.9,128.8,2061.6,119.2
	L2061.6,119.2z M2019.4,98.1h34.2c11.1,1.4,10.7,16.9,0,17.9h-31.4c-2.2,0-2.8,1.2-2.8,1.2V98.1L2019.4,98.1z M2053.6,141.7h-34.2
	v-15.9c0-2.4,0.8-3.6,3.4-3.6h30.8C2065.2,123.8,2064.8,140.5,2053.6,141.7L2053.6,141.7z"/>
<path id="Fill-36" fill="#3A3B38" d="M1934.7,149.4c4.6,0,23.5-3.2,23.5-21.7V92.1h-6.2v34.2c0,16.5-17.5,15.7-17.5,15.7h-5.6
	c0,0-17.5,0.8-17.5-15.7v-24.5c0-5-3.8-9.6-10.1-9.6v6.4c2.4,0,3.6,2.4,3.6,4.2v24.9c0,18.5,18.9,21.7,23.5,21.7H1934.7"/>
</svg>
