<?xml version="1.0" encoding="utf-8"?>
<!-- Generator: Adobe Illustrator 18.1.0, SVG Export Plug-In . SVG Version: 6.00 Build 0)  -->
<!DOCTYPE svg PUBLIC "-//W3C//DTD SVG 1.1//EN" "http://www.w3.org/Graphics/SVG/1.1/DTD/svg11.dtd">
<svg version="1.1" id="Layer_1" xmlns="http://www.w3.org/2000/svg" xmlns:xlink="http://www.w3.org/1999/xlink" x="0px" y="0px"
	 viewBox="0 -145 780.6 645.7" enable-background="new 0 -145 780.6 645.7" xml:space="preserve">
<text transform="matrix(1 0 0 1 1005.3816 341.3777)"><tspan x="0" y="0" fill="#8D9498" font-family="'BrandonGrotesque-Black'" font-size="40.2342">CRM   SOCIAL   E-COMMERCE   ANALYTICS</tspan><tspan x="0" y="56.3" fill="#8D9498" font-family="'BrandonGrotesque-Black'" font-size="40.2342">MARKETING   AUTOMATION   CRM   SOCIAL   E-COMMERCE   ANALYTICS</tspan><tspan x="0" y="112.6" fill="#8D9498" font-family="'BrandonGrotesque-Black'" font-size="40.2342">MARKETING   AUTOMATION </tspan><tspan x="0" y="168.8" fill="#8D9498" font-family="'BrandonGrotesque-Black'" font-size="40.2342"> </tspan></text>
<text transform="matrix(1 0 0 1 1146.4331 26.9893)"><tspan x="0" y="0" fill="#8D9498" font-family="'BrandonGrotesque-Black'" font-size="40.2342">CRM   SOCIAL   E-COMMERCE   ANALYTICS</tspan><tspan x="0" y="56.3" fill="#8D9498" font-family="'BrandonGrotesque-Black'" font-size="40.2342">MARKETING   AUTOMATION   CRM   SOCIAL   E-COMMERCE   ANALYTICS</tspan><tspan x="0" y="112.6" fill="#8D9498" font-family="'BrandonGrotesque-Black'" font-size="40.2342">MARKETING   AUTOMATION </tspan><tspan x="0" y="168.8" fill="#8D9498" font-family="'BrandonGrotesque-Black'" font-size="40.2342"> </tspan></text>
<g>
	<path fill="none" stroke="#B4BFC2" stroke-width="3" stroke-miterlimit="10" d="M230.2,273.2l-21-12.2c-1.3-0.8-3-0.3-3.8,1
		L106,432.9c-1.1,1.8,0.3,4.1,2.4,4.1h28.1c1,0,1.9-0.5,2.4-1.4L231.2,277C232,275.7,231.5,274,230.2,273.2z"/>
	<path fill="none" stroke="#B4BFC2" stroke-width="3" stroke-miterlimit="10" d="M412.1,261l-21,12.2c-1.3,0.8-1.8,2.4-1,3.8
		l92.3,158.7c0.5,0.8,1.4,1.4,2.4,1.4H513c2.1,0,3.4-2.3,2.4-4.1L415.9,262C415.1,260.7,413.4,260.2,412.1,261z"/>
</g>
<path fill="none" stroke="#B4BFC2" stroke-width="3" stroke-miterlimit="10" d="M321.8,406.8h-22.2c-2.1,0-3.8-1.7-3.8-3.8v-516.6
	c0-2.1,1.7-3.8,3.8-3.8h22.2c2.1,0,3.8,1.7,3.8,3.8V403C325.6,405.1,323.9,406.8,321.8,406.8z"/>
<path fill="#FFFFFF" stroke="#B4BFC2" stroke-width="4" stroke-miterlimit="10" d="M547.9,322.9H73.4c-4.3,0-7.7-3.5-7.7-7.7V-83.4
	c0-4.3,3.5-7.7,7.7-7.7h474.5c4.3,0,7.7,3.5,7.7,7.7v398.6C555.7,319.4,552.2,322.9,547.9,322.9z"/>
<polygon opacity="0.4" fill="#B4BFC2" points="194.6,341.1 161,341.1 164,326.1 199.6,326.1 "/>
<polygon opacity="0.4" fill="#B4BFC2" points="327.1,341.1 293.4,341.1 296.4,326.1 326.7,326.1 "/>
<polygon opacity="0.4" fill="#B4BFC2" points="459.5,341.1 425.3,341.1 420.3,326.1 455.8,326.1 "/>
<g>
	<defs>
		<path id="SVGID_1_" d="M547.9,322.9H73.4c-4.3,0-7.7-3.5-7.7-7.7V-83.4c0-4.3,3.5-7.7,7.7-7.7h474.5c4.3,0,7.7,3.5,7.7,7.7v398.6
			C555.7,319.4,552.2,322.9,547.9,322.9z"/>
	</defs>
	<clipPath id="SVGID_2_">
		<use xlink:href="#SVGID_1_"  overflow="visible"/>
	</clipPath>
</g>
<g>
	<path fill="#8D9498" d="M1409.8-413.4c2.5,0,4.3,0.8,6,2.3c0.2,0.2,0.2,0.5,0,0.7l-2,2c-0.2,0.2-0.4,0.2-0.6,0
		c-0.9-0.8-2.2-1.3-3.4-1.3c-2.8,0-4.9,2.3-4.9,5.1c0,2.8,2.1,5.1,4.9,5.1c1.2,0,2.4-0.4,3.3-1.2c0.2-0.1,0.5-0.1,0.6,0l1.9,2.1
		c0.2,0.2,0.2,0.5,0,0.7c-1.7,1.6-3.8,2.4-6.1,2.4c-5,0-9-4-9-9C1400.8-409.3,1404.8-413.4,1409.8-413.4z"/>
	<path fill="#8D9498" d="M1418.5-412.6c0-0.2,0.2-0.5,0.5-0.5h7.5c3,0,5.4,2.4,5.4,5.4c0,2.3-1.5,4.1-3.7,5l3.4,6.3
		c0.2,0.3,0,0.7-0.4,0.7h-3.3c-0.2,0-0.3-0.1-0.4-0.2l-3.3-6.6h-1.7v6.4c0,0.2-0.2,0.5-0.5,0.5h-3c-0.3,0-0.5-0.2-0.5-0.5V-412.6z
		 M1426.1-405.6c1,0,1.9-0.9,1.9-2s-0.9-1.9-1.9-1.9h-3.7v3.9H1426.1z"/>
	<path fill="#8D9498" d="M1436.5-413c0-0.2,0.2-0.4,0.5-0.4h0.4c0.1,0,0.4,0.1,0.4,0.2l5.8,10.8h0.1l5.8-10.8
		c0.1-0.1,0.3-0.2,0.4-0.2h0.4c0.2,0,0.4,0.2,0.5,0.4l2.8,16.8c0,0.3-0.2,0.5-0.5,0.5h-2.9c-0.2,0-0.4-0.2-0.5-0.4l-1.1-7.7h0
		l-4.2,8.1c-0.1,0.1-0.3,0.3-0.4,0.3h-0.4c-0.2,0-0.4-0.1-0.4-0.3l-4.2-8.1h0l-1.1,7.7c0,0.2-0.2,0.4-0.5,0.4h-3
		c-0.3,0-0.5-0.2-0.5-0.5L1436.5-413z"/>
	<path fill="#8D9498" d="M1385.1-355.7l1.2-2.1c0.2-0.3,0.7-0.3,0.8-0.1c0.1,0,1.9,1.4,3.5,1.4c1,0,1.7-0.6,1.7-1.5
		c0-1-0.9-1.8-2.6-2.5c-2.1-0.9-4.8-2.5-4.8-5.5c0-2.5,1.9-5,5.8-5c2.6,0,4.6,1.3,5.3,1.9c0.3,0.2,0.2,0.6,0.2,0.8l-1.3,1.9
		c-0.2,0.3-0.6,0.5-0.9,0.3c-0.2-0.1-2-1.5-3.6-1.5c-0.9,0-1.6,0.6-1.6,1.3c0,0.9,0.8,1.6,2.7,2.4c1.9,0.8,5,2.3,5,5.7
		c0,2.6-2.2,5.2-5.9,5.2c-3.2,0-5-1.3-5.6-1.9C1385-355.3,1384.9-355.4,1385.1-355.7z"/>
	<path fill="#8D9498" d="M1407.3-371.1c5,0,9,4,9,9c0,5-4,9-9,9c-5,0-9-4-9-9C1398.3-367.1,1402.3-371.1,1407.3-371.1z
		 M1407.3-357.1c2.7,0,5-2.2,5-5c0-2.7-2.2-5-5-5c-2.7,0-5,2.3-5,5C1402.3-359.3,1404.5-357.1,1407.3-357.1z"/>
	<path fill="#8D9498" d="M1426.9-371.1c2.5,0,4.3,0.8,6,2.3c0.2,0.2,0.2,0.5,0,0.7l-2,2c-0.2,0.2-0.4,0.2-0.6,0
		c-0.9-0.8-2.2-1.3-3.4-1.3c-2.8,0-4.9,2.3-4.9,5.1c0,2.8,2.1,5.1,4.9,5.1c1.2,0,2.4-0.4,3.3-1.2c0.2-0.1,0.5-0.1,0.6,0l1.9,2.1
		c0.2,0.2,0.2,0.5,0,0.7c-1.7,1.6-3.8,2.4-6.1,2.4c-5,0-9-4-9-9C1417.9-367.1,1421.9-371.1,1426.9-371.1z"/>
	<path fill="#8D9498" d="M1435.6-370.4c0-0.2,0.2-0.5,0.5-0.5h3c0.2,0,0.5,0.2,0.5,0.5v16.5c0,0.2-0.2,0.5-0.5,0.5h-3
		c-0.2,0-0.5-0.2-0.5-0.5V-370.4z"/>
	<path fill="#8D9498" d="M1441.3-354l7.8-16.8c0.1-0.1,0.2-0.3,0.4-0.3h0.2c0.2,0,0.4,0.1,0.4,0.3l7.8,16.8c0.2,0.3,0,0.6-0.4,0.6
		h-2.8c-0.4,0-0.6-0.1-0.9-0.6l-0.9-2h-6.8l-0.9,2c-0.1,0.3-0.4,0.6-0.9,0.6h-2.8C1441.4-353.3,1441.2-353.7,1441.3-354z
		 M1451.6-359.3l-1.9-4.1h0l-1.9,4.1H1451.6z"/>
	<path fill="#8D9498" d="M1459.9-370.4c0-0.2,0.2-0.5,0.5-0.5h3c0.2,0,0.5,0.2,0.5,0.5v13.3h5.9c0.3,0,0.5,0.2,0.5,0.5v2.7
		c0,0.2-0.2,0.5-0.5,0.5h-9.4c-0.3,0-0.5-0.2-0.5-0.5V-370.4z"/>
	<path fill="#8D9498" d="M1347.2-328.1c0-0.2,0.2-0.5,0.5-0.5h10.3c0.3,0,0.5,0.2,0.5,0.5v2.7c0,0.2-0.2,0.5-0.5,0.5h-6.9v3.1h5.7
		c0.2,0,0.5,0.2,0.5,0.5v2.7c0,0.3-0.2,0.5-0.5,0.5h-5.7v3.4h6.9c0.3,0,0.5,0.2,0.5,0.5v2.7c0,0.2-0.2,0.5-0.5,0.5h-10.3
		c-0.3,0-0.5-0.2-0.5-0.5V-328.1z"/>
	<path fill="#8D9498" d="M1360.7-316v-2.3c0-0.3,0.2-0.5,0.5-0.5h5.7c0.3,0,0.5,0.2,0.5,0.5v2.3c0,0.2-0.2,0.5-0.5,0.5h-5.7
		C1360.9-315.5,1360.7-315.7,1360.7-316z"/>
	<path fill="#8D9498" d="M1378.7-328.8c2.5,0,4.3,0.8,6,2.3c0.2,0.2,0.2,0.5,0,0.7l-2,2c-0.2,0.2-0.4,0.2-0.6,0
		c-0.9-0.8-2.2-1.3-3.4-1.3c-2.8,0-4.9,2.3-4.9,5.1c0,2.8,2.1,5.1,4.9,5.1c1.2,0,2.4-0.4,3.3-1.2c0.2-0.1,0.5-0.1,0.6,0l1.9,2.1
		c0.2,0.2,0.2,0.5,0,0.7c-1.7,1.6-3.8,2.4-6.1,2.4c-5,0-9-4-9-9C1369.7-324.8,1373.7-328.8,1378.7-328.8z"/>
	<path fill="#8D9498" d="M1394.9-328.8c5,0,9,4,9,9c0,5-4,9-9,9c-5,0-9-4-9-9C1385.9-324.8,1389.9-328.8,1394.9-328.8z
		 M1394.9-314.8c2.7,0,5-2.2,5-5c0-2.7-2.2-5-5-5c-2.7,0-5,2.3-5,5C1389.9-317.1,1392.1-314.8,1394.9-314.8z"/>
	<path fill="#8D9498" d="M1408.1-328.4c0-0.2,0.2-0.4,0.5-0.4h0.4c0.1,0,0.4,0.1,0.4,0.2l5.8,10.8h0.1l5.8-10.8
		c0.1-0.1,0.3-0.2,0.4-0.2h0.4c0.2,0,0.4,0.2,0.5,0.4l2.8,16.8c0,0.3-0.2,0.5-0.5,0.5h-2.9c-0.2,0-0.4-0.2-0.5-0.4l-1.1-7.7h0
		l-4.2,8.1c-0.1,0.1-0.3,0.3-0.4,0.3h-0.4c-0.2,0-0.4-0.1-0.4-0.3l-4.2-8.1h0l-1.1,7.7c0,0.2-0.2,0.4-0.5,0.4h-3
		c-0.3,0-0.5-0.2-0.5-0.5L1408.1-328.4z"/>
	<path fill="#8D9498" d="M1429.8-328.4c0-0.2,0.2-0.4,0.5-0.4h0.4c0.1,0,0.4,0.1,0.4,0.2l5.8,10.8h0.1l5.8-10.8
		c0.1-0.1,0.3-0.2,0.4-0.2h0.4c0.2,0,0.4,0.2,0.5,0.4l2.8,16.8c0,0.3-0.2,0.5-0.5,0.5h-2.9c-0.2,0-0.4-0.2-0.5-0.4l-1.1-7.7h0
		l-4.2,8.1c-0.1,0.1-0.3,0.3-0.4,0.3h-0.4c-0.2,0-0.4-0.1-0.4-0.3l-4.2-8.1h0l-1.1,7.7c0,0.2-0.2,0.4-0.5,0.4h-3
		c-0.3,0-0.5-0.2-0.5-0.5L1429.8-328.4z"/>
	<path fill="#8D9498" d="M1449.7-328.1c0-0.2,0.2-0.5,0.5-0.5h10.3c0.3,0,0.5,0.2,0.5,0.5v2.7c0,0.2-0.2,0.5-0.5,0.5h-6.9v3.1h5.7
		c0.2,0,0.5,0.2,0.5,0.5v2.7c0,0.3-0.2,0.5-0.5,0.5h-5.7v3.4h6.9c0.3,0,0.5,0.2,0.5,0.5v2.7c0,0.2-0.2,0.5-0.5,0.5h-10.3
		c-0.3,0-0.5-0.2-0.5-0.5V-328.1z"/>
	<path fill="#8D9498" d="M1464.3-328.1c0-0.2,0.2-0.5,0.5-0.5h7.5c3,0,5.4,2.4,5.4,5.4c0,2.3-1.5,4.1-3.7,5l3.4,6.3
		c0.2,0.3,0,0.7-0.4,0.7h-3.3c-0.2,0-0.3-0.1-0.4-0.2l-3.3-6.6h-1.7v6.4c0,0.2-0.2,0.5-0.5,0.5h-3c-0.3,0-0.5-0.2-0.5-0.5V-328.1z
		 M1471.9-321.1c1,0,1.9-0.9,1.9-2s-0.9-1.9-1.9-1.9h-3.7v3.9H1471.9z"/>
	<path fill="#8D9498" d="M1488.3-328.8c2.5,0,4.3,0.8,6,2.3c0.2,0.2,0.2,0.5,0,0.7l-1.9,2c-0.2,0.2-0.5,0.2-0.6,0
		c-0.9-0.8-2.1-1.3-3.4-1.3c-2.8,0-4.9,2.3-4.9,5.1c0,2.8,2.1,5.1,4.9,5.1c1.2,0,2.5-0.4,3.3-1.2c0.2-0.1,0.5-0.1,0.6,0l2,2.1
		c0.2,0.2,0.1,0.5,0,0.7c-1.7,1.6-3.8,2.4-6.1,2.4c-5,0-9-4-9-9C1479.3-324.8,1483.3-328.8,1488.3-328.8z"/>
	<path fill="#8D9498" d="M1497-328.1c0-0.2,0.2-0.5,0.5-0.5h10.3c0.3,0,0.5,0.2,0.5,0.5v2.7c0,0.2-0.2,0.5-0.5,0.5h-6.9v3.1h5.7
		c0.2,0,0.5,0.2,0.5,0.5v2.7c0,0.3-0.2,0.5-0.5,0.5h-5.7v3.4h6.9c0.3,0,0.5,0.2,0.5,0.5v2.7c0,0.2-0.2,0.5-0.5,0.5h-10.3
		c-0.3,0-0.5-0.2-0.5-0.5V-328.1z"/>
	<path fill="#8D9498" d="M1362.9-269.4l7.8-16.8c0.1-0.1,0.2-0.3,0.4-0.3h0.2c0.2,0,0.3,0.1,0.4,0.3l7.8,16.8c0.1,0.3,0,0.6-0.4,0.6
		h-2.8c-0.5,0-0.7-0.1-0.9-0.6l-0.9-2h-6.8l-0.9,2c-0.1,0.3-0.4,0.6-0.9,0.6h-2.7C1363-268.8,1362.8-269.1,1362.9-269.4z
		 M1373.2-274.8l-1.9-4.1h0l-1.9,4.1H1373.2z"/>
	<path fill="#8D9498" d="M1381.4-286.1c0-0.2,0.2-0.4,0.5-0.4h0.6l10,9.6h0v-8.9c0-0.2,0.2-0.5,0.5-0.5h3c0.2,0,0.5,0.2,0.5,0.5
		v16.8c0,0.2-0.2,0.5-0.5,0.5h-0.4c-0.1,0-0.3-0.1-0.3-0.1l-9.9-9.9h0v9.3c0,0.2-0.2,0.5-0.5,0.5h-3c-0.2,0-0.5-0.2-0.5-0.5
		L1381.4-286.1z"/>
	<path fill="#8D9498" d="M1398.3-269.4l7.8-16.8c0.1-0.1,0.2-0.3,0.4-0.3h0.2c0.2,0,0.4,0.1,0.4,0.3l7.8,16.8c0.2,0.3,0,0.6-0.4,0.6
		h-2.8c-0.4,0-0.6-0.1-0.9-0.6l-0.9-2h-6.8l-0.9,2c-0.1,0.3-0.4,0.6-0.9,0.6h-2.8C1398.4-268.8,1398.2-269.1,1398.3-269.4z
		 M1408.6-274.8l-1.9-4.1h0l-1.9,4.1H1408.6z"/>
	<path fill="#8D9498" d="M1416.9-285.8c0-0.2,0.2-0.5,0.5-0.5h3c0.2,0,0.5,0.2,0.5,0.5v13.3h5.9c0.3,0,0.5,0.2,0.5,0.5v2.7
		c0,0.2-0.2,0.5-0.5,0.5h-9.4c-0.3,0-0.5-0.2-0.5-0.5V-285.8z"/>
	<path fill="#8D9498" d="M1430.8-277.2l-5.5-8.3c-0.2-0.3,0-0.7,0.4-0.7h3.2c0.2,0,0.3,0.1,0.4,0.2l3.5,5.1l3.5-5.1
		c0.1-0.1,0.2-0.2,0.4-0.2h3.2c0.4,0,0.6,0.4,0.4,0.7l-5.6,8.3v8c0,0.2-0.2,0.5-0.5,0.5h-3c-0.3,0-0.5-0.2-0.5-0.5V-277.2z"/>
	<path fill="#8D9498" d="M1445.3-282.6h-3.6c-0.3,0-0.5-0.2-0.5-0.5v-2.7c0-0.2,0.2-0.5,0.5-0.5h11.1c0.3,0,0.5,0.2,0.5,0.5v2.7
		c0,0.2-0.2,0.5-0.5,0.5h-3.6v13.3c0,0.2-0.2,0.5-0.5,0.5h-3c-0.2,0-0.5-0.2-0.5-0.5V-282.6z"/>
	<path fill="#8D9498" d="M1455.3-285.8c0-0.2,0.2-0.5,0.5-0.5h3c0.2,0,0.5,0.2,0.5,0.5v16.5c0,0.2-0.2,0.5-0.5,0.5h-3
		c-0.2,0-0.5-0.2-0.5-0.5V-285.8z"/>
	<path fill="#8D9498" d="M1471-286.5c2.5,0,4.3,0.8,6,2.3c0.2,0.2,0.2,0.5,0,0.7l-1.9,2c-0.2,0.2-0.5,0.2-0.6,0
		c-0.9-0.8-2.1-1.3-3.4-1.3c-2.8,0-4.9,2.3-4.9,5.1c0,2.8,2.1,5.1,4.9,5.1c1.2,0,2.5-0.4,3.3-1.2c0.2-0.1,0.5-0.1,0.6,0l2,2.1
		c0.2,0.2,0.1,0.5,0,0.7c-1.7,1.6-3.8,2.4-6.1,2.4c-5,0-9-4-9-9C1462-282.5,1466-286.5,1471-286.5z"/>
	<path fill="#8D9498" d="M1479-271.2l1.2-2.1c0.2-0.3,0.7-0.3,0.8-0.1c0.1,0,1.9,1.4,3.5,1.4c1,0,1.7-0.6,1.7-1.5
		c0-1-0.9-1.8-2.6-2.5c-2.1-0.9-4.8-2.5-4.8-5.5c0-2.5,1.9-5,5.8-5c2.6,0,4.6,1.3,5.3,1.9c0.3,0.2,0.2,0.6,0.2,0.8l-1.3,1.9
		c-0.2,0.3-0.6,0.5-0.9,0.3c-0.2-0.1-2-1.5-3.6-1.5c-0.9,0-1.6,0.6-1.6,1.3c0,0.9,0.8,1.6,2.7,2.4c1.9,0.8,5,2.3,5,5.7
		c0,2.6-2.2,5.2-5.9,5.2c-3.2,0-5-1.3-5.6-1.9C1478.8-270.7,1478.8-270.8,1479-271.2z"/>
	<path fill="#8D9498" d="M1359.7-243.8c0-0.2,0.2-0.4,0.4-0.4h0.4c0.1,0,0.3,0.1,0.4,0.2l5.8,10.8h0l5.8-10.8
		c0.1-0.1,0.3-0.2,0.4-0.2h0.4c0.2,0,0.4,0.2,0.5,0.4l2.8,16.8c0,0.3-0.2,0.5-0.5,0.5h-2.9c-0.2,0-0.5-0.2-0.5-0.4l-1.1-7.7h0
		l-4.2,8.1c-0.1,0.1-0.3,0.3-0.4,0.3h-0.5c-0.1,0-0.3-0.1-0.4-0.3l-4.2-8.1h-0.1l-1.1,7.7c0,0.2-0.2,0.4-0.5,0.4h-2.9
		c-0.3,0-0.5-0.2-0.5-0.5L1359.7-243.8z"/>
	<path fill="#8D9498" d="M1378.1-227.1l7.8-16.8c0.1-0.1,0.2-0.3,0.4-0.3h0.2c0.2,0,0.3,0.1,0.4,0.3l7.8,16.8c0.1,0.3,0,0.6-0.4,0.6
		h-2.8c-0.5,0-0.7-0.1-0.9-0.6l-0.9-2h-6.8l-0.9,2c-0.1,0.3-0.4,0.6-0.9,0.6h-2.7C1378.1-226.5,1377.9-226.8,1378.1-227.1z
		 M1388.3-232.5l-1.9-4.1h0l-1.9,4.1H1388.3z"/>
	<path fill="#8D9498" d="M1396.6-243.5c0-0.2,0.2-0.5,0.5-0.5h7.5c3,0,5.4,2.4,5.4,5.4c0,2.3-1.5,4.1-3.7,5l3.4,6.3
		c0.2,0.3,0,0.7-0.4,0.7h-3.3c-0.2,0-0.3-0.1-0.4-0.2l-3.3-6.6h-1.7v6.4c0,0.2-0.2,0.5-0.5,0.5h-3c-0.3,0-0.5-0.2-0.5-0.5V-243.5z
		 M1404.3-236.5c1,0,1.9-0.9,1.9-2s-0.9-1.9-1.9-1.9h-3.7v3.9H1404.3z"/>
	<path fill="#8D9498" d="M1413.1-243.4c0-0.3,0.2-0.6,0.6-0.6h2.9c0.3,0,0.6,0.3,0.6,0.6v6.6l5.5-6.9c0.1-0.1,0.3-0.2,0.5-0.2h3.1
		c0.5,0,0.7,0.5,0.5,0.9l-5.8,7.3l6.4,8.3c0.3,0.4,0,0.9-0.5,0.9h-3.4c-0.2,0-0.4-0.1-0.5-0.2l-5.8-7.8v7.4c0,0.3-0.3,0.6-0.6,0.6
		h-2.9c-0.4,0-0.6-0.3-0.6-0.6V-243.4z"/>
	<path fill="#8D9498" d="M1429.4-243.5c0-0.2,0.2-0.5,0.5-0.5h10.3c0.3,0,0.5,0.2,0.5,0.5v2.7c0,0.2-0.2,0.5-0.5,0.5h-6.9v3.1h5.7
		c0.2,0,0.5,0.2,0.5,0.5v2.7c0,0.3-0.2,0.5-0.5,0.5h-5.7v3.4h6.9c0.3,0,0.5,0.2,0.5,0.5v2.7c0,0.2-0.2,0.5-0.5,0.5h-10.3
		c-0.3,0-0.5-0.2-0.5-0.5V-243.5z"/>
	<path fill="#8D9498" d="M1446.3-240.3h-3.6c-0.3,0-0.5-0.2-0.5-0.5v-2.7c0-0.2,0.2-0.5,0.5-0.5h11.1c0.3,0,0.5,0.2,0.5,0.5v2.7
		c0,0.2-0.2,0.5-0.5,0.5h-3.6v13.3c0,0.2-0.2,0.5-0.5,0.5h-3c-0.2,0-0.5-0.2-0.5-0.5V-240.3z"/>
	<path fill="#8D9498" d="M1456.3-243.5c0-0.2,0.2-0.5,0.5-0.5h3c0.2,0,0.5,0.2,0.5,0.5v16.5c0,0.2-0.2,0.5-0.5,0.5h-3
		c-0.2,0-0.5-0.2-0.5-0.5V-243.5z"/>
	<path fill="#8D9498" d="M1464.2-243.8c0-0.2,0.2-0.4,0.5-0.4h0.6l10,9.6h0v-8.9c0-0.2,0.2-0.5,0.5-0.5h3c0.2,0,0.5,0.2,0.5,0.5
		v16.8c0,0.2-0.2,0.4-0.5,0.4h-0.4c-0.1,0-0.3-0.1-0.3-0.1l-9.9-9.9h0v9.3c0,0.2-0.2,0.5-0.5,0.5h-3c-0.2,0-0.5-0.2-0.5-0.5
		L1464.2-243.8z"/>
	<path fill="#8D9498" d="M1491-244.2c2.1,0,4.4,0.9,6.1,2.3c0.2,0.2,0.2,0.5,0,0.7l-2,2.1c-0.2,0.2-0.5,0.2-0.7,0
		c-0.9-0.9-2-1.2-3.3-1.2c-2.7,0-4.9,2.3-4.9,5c0,2.7,2.2,5,4.9,5c0.7,0,1.5-0.1,2.2-0.4v-1.4h-1.6c-0.3,0-0.5-0.2-0.5-0.4v-2.5
		c0-0.3,0.2-0.5,0.5-0.5h5c0.2,0,0.5,0.2,0.5,0.5l0,6.7c0,0.1-0.1,0.3-0.2,0.4c0,0-2.6,1.6-6.2,1.6c-5,0-9-3.9-9-8.9
		C1482-240.2,1486-244.2,1491-244.2z"/>
</g>
<g>
	<rect x="-302.3" y="195.9" fill="#EE4544" width="228.3" height="123.2"/>
	<rect x="-601.6" y="195.9" fill="#4E8DCB" width="228.3" height="123.2"/>
	<g>
		<text transform="matrix(1 0 0 1 -594.6846 214.0296)" fill="#FFFFFF" font-family="'ProximaNova-Semibold'" font-size="13.0384">Primary Color</text>
	</g>
	<text transform="matrix(1 0 0 1 -594.6848 292.6468)"><tspan x="0" y="0" fill="#FFFFFF" font-family="'ProximaNova-Regular'" font-size="15">4690dc</tspan><tspan x="0" y="19" fill="#FFFFFF" font-family="'ProximaNova-Regular'" font-size="15">PMS 279C</tspan></text>
	<rect x="-435" y="257.5" fill="#347BB2" width="61.6" height="61.6"/>
	<rect x="-435" y="195.9" fill="#61A3D9" width="61.6" height="61.6"/>
	<rect x="-135.7" y="257.5" fill="#E21E26" width="61.6" height="61.6"/>
	<rect x="-135.7" y="195.9" fill="#F7B4B7" width="61.6" height="61.6"/>
	<rect x="-302.3" y="503.8" fill="#5BBF9B" width="228.3" height="123.2"/>
	<rect x="-135.7" y="565.4" fill="#30B67D" width="61.6" height="61.6"/>
	<rect x="-135.7" y="503.8" fill="#77C7AC" width="61.6" height="61.6"/>
	<rect x="-601.6" y="353.4" fill="#FBB333" width="228.3" height="123.2"/>
	<rect x="-435" y="415" fill="#F7991C" width="61.6" height="61.6"/>
	<rect x="-435" y="353.4" fill="#FFD695" width="61.6" height="61.6"/>
	<rect x="-601.6" y="506.6" fill="#F4803E" width="228.3" height="123.2"/>
	<rect x="-435" y="568.2" fill="#F05822" width="61.6" height="61.6"/>
	<rect x="-435" y="506.6" fill="#FABA96" width="61.6" height="61.6"/>
	<rect x="-302.3" y="349.6" fill="#FFD42E" width="228.3" height="123.2"/>
	<rect x="-135.7" y="411.2" fill="#FFC609" width="61.6" height="61.6"/>
	<rect x="-135.7" y="349.6" fill="#FDE792" width="61.6" height="61.6"/>
</g>
<g opacity="0.2">
	<defs>
		<path id="SVGID_3_" opacity="0.2" d="M2144.4,875.2h-347.8c-4.3,0-7.7-3.5-7.7-7.7V575.9c0-4.3,3.5-7.7,7.7-7.7h347.8
			c4.3,0,7.7,3.5,7.7,7.7v291.5C2152.1,871.7,2148.7,875.2,2144.4,875.2z"/>
	</defs>
	<clipPath id="SVGID_4_">
		<use xlink:href="#SVGID_3_"  overflow="visible"/>
	</clipPath>
	<g clip-path="url(#SVGID_4_)">
		<rect x="1675.2" y="554.8" fill="none" width="826.5" height="522"/>
		<text transform="matrix(1 0 0 1 1675.2009 582.9739)"><tspan x="0" y="0" fill="#8D9498" font-family="'BrandonGrotesque-Black'" font-size="40.2342">CRM    SOCIAL    E-COMMERCE    ANALYTICS </tspan><tspan x="0" y="56.3" fill="#8D9498" font-family="'BrandonGrotesque-Black'" font-size="40.2342">MARKETING    AUTOMATION    CRM    </tspan><tspan x="0" y="112.6" fill="#8D9498" font-family="'BrandonGrotesque-Black'" font-size="40.2342">SOCIAL   E-COMMERCE    ANALYTICS   MAR</tspan><tspan x="799.4" y="112.6" fill="#8D9498" font-family="'BrandonGrotesque-Black'" font-size="40.2342">-</tspan><tspan x="0" y="168.8" fill="#8D9498" font-family="'BrandonGrotesque-Black'" font-size="40.2342">KETING   AUTOMATION   CRM    SOCIAL   </tspan><tspan x="0" y="225.1" fill="#8D9498" font-family="'BrandonGrotesque-Black'" font-size="40.2342">E-COMMERCE    ANALYTICS   MARKETING   </tspan><tspan x="0" y="281.4" fill="#8D9498" font-family="'BrandonGrotesque-Black'" font-size="40.2342">AUTOMATION  CRM    SOCIAL   E-COM</tspan><tspan x="709.4" y="281.4" fill="#8D9498" font-family="'BrandonGrotesque-Black'" font-size="40.2342">-</tspan><tspan x="0" y="337.7" fill="#8D9498" font-family="'BrandonGrotesque-Black'" font-size="40.2342">MERCE    ANALYTICS   MARKETING   AUTO</tspan><tspan x="777.6" y="337.7" fill="#8D9498" font-family="'BrandonGrotesque-Black'" font-size="40.2342">-</tspan><tspan x="0" y="394" fill="#8D9498" font-family="'BrandonGrotesque-Black'" font-size="40.2342">MATION </tspan><tspan x="0" y="450.2" fill="#8D9498" font-family="'BrandonGrotesque-Black'" font-size="40.2342"> </tspan></text>
	</g>
</g>
<g opacity="0.1">
	<defs>
		<path id="SVGID_5_" opacity="0.1" d="M547.9,322.9H73.4c-4.3,0-7.7-3.5-7.7-7.7V-83.4c0-4.3,3.5-7.7,7.7-7.7h474.5
			c4.3,0,7.7,3.5,7.7,7.7v398.6C555.7,319.4,552.2,322.9,547.9,322.9z"/>
	</defs>
	<clipPath id="SVGID_6_">
		<use xlink:href="#SVGID_5_"  overflow="visible"/>
	</clipPath>
	<g clip-path="url(#SVGID_6_)">
		<path fill="#8D9498" d="M-66.2-109.8c5.4,0,9.4,1.7,13.1,5c0.5,0.4,0.5,1.1,0.1,1.5l-4.2,4.4c-0.4,0.4-1,0.4-1.4,0
			c-2-1.8-4.7-2.8-7.3-2.8c-6.1,0-10.6,5.1-10.6,11.2c0,6,4.6,11,10.7,11c2.6,0,5.3-0.9,7.3-2.6c0.4-0.3,1.1-0.3,1.4,0.1l4.2,4.5
			c0.4,0.4,0.3,1.1-0.1,1.5c-3.7,3.6-8.4,5.3-13.2,5.3c-10.9,0-19.6-8.6-19.6-19.5S-77.1-109.8-66.2-109.8z"/>
		<path fill="#8D9498" d="M-47.7-108.2c0-0.5,0.4-1,1-1h16.2c6.5,0,11.8,5.3,11.8,11.7c0,5-3.3,9-8,10.9l7.4,13.8
			c0.4,0.7,0,1.6-0.9,1.6h-7.2c-0.4,0-0.8-0.3-0.9-0.5l-7.2-14.4h-3.7v13.8c0,0.5-0.5,1-1,1h-6.5c-0.6,0-1-0.5-1-1V-108.2z
			 M-31.2-93c2.2,0,4.1-2.1,4.1-4.3c0-2.3-1.9-4.1-4.1-4.1h-8v8.5H-31.2z"/>
		<path fill="#8D9498" d="M-8.9-108.9c0.1-0.5,0.5-0.9,1-0.9H-7c0.3,0,0.8,0.2,0.9,0.5L6.5-85.8h0.1l12.6-23.4
			c0.2-0.3,0.7-0.5,0.9-0.5H21c0.4,0,0.9,0.4,1,0.9l6.1,36.5c0.1,0.7-0.4,1.2-1,1.2h-6.4c-0.5,0-1-0.4-1-0.9l-2.4-16.8h-0.1L8-71.3
			C7.8-71,7.3-70.7,7-70.7h-1c-0.3,0-0.8-0.3-0.9-0.6L-4-88.9h-0.1l-2.4,16.8c-0.1,0.4-0.5,0.9-1,0.9H-14c-0.7,0-1.1-0.5-1-1.2
			L-8.9-108.9z"/>
		<path fill="#8D9498" d="M80.8-76.4l2.6-4.5c0.4-0.7,1.5-0.6,1.8-0.3c0.2,0.1,4.1,3,7.7,3c2.2,0,3.7-1.4,3.7-3.3
			c0-2.3-1.9-4-5.6-5.5c-4.7-1.8-10.5-5.5-10.5-12c0-5.4,4.2-10.8,12.5-10.8c5.6,0,10,2.9,11.6,4.1c0.7,0.4,0.5,1.4,0.3,1.7
			l-2.8,4.2c-0.4,0.6-1.4,1.1-1.8,0.7c-0.5-0.3-4.5-3.3-7.8-3.3c-2,0-3.4,1.3-3.4,2.8c0,2,1.6,3.5,5.9,5.3c4.2,1.7,11,5,11,12.4
			c0,5.6-4.8,11.2-12.8,11.2c-7.1,0-11-2.9-12.2-4.2C80.6-75.4,80.4-75.7,80.8-76.4z"/>
		<path fill="#8D9498" d="M128.6-109.8c10.9,0,19.5,8.7,19.5,19.6s-8.7,19.5-19.5,19.5c-10.9,0-19.5-8.6-19.5-19.5
			S117.7-109.8,128.6-109.8z M128.6-79.4c6,0,10.9-4.9,10.9-10.8c0-6-4.9-10.9-10.9-10.9c-5.9,0-10.8,4.9-10.8,10.9
			C117.8-84.3,122.7-79.4,128.6-79.4z"/>
		<path fill="#8D9498" d="M171.1-109.8c5.4,0,9.4,1.7,13.1,5c0.5,0.4,0.5,1.1,0.1,1.5l-4.2,4.4c-0.4,0.4-1,0.4-1.4,0
			c-2-1.8-4.7-2.8-7.3-2.8c-6.1,0-10.6,5.1-10.6,11.2c0,6,4.6,11,10.7,11c2.6,0,5.3-0.9,7.3-2.6c0.4-0.3,1.1-0.3,1.4,0.1l4.2,4.5
			c0.4,0.4,0.3,1.1-0.1,1.5c-3.7,3.6-8.4,5.3-13.2,5.3c-10.9,0-19.6-8.6-19.6-19.5S160.2-109.8,171.1-109.8z"/>
		<path fill="#8D9498" d="M189.6-108.2c0-0.5,0.5-1,1-1h6.5c0.5,0,1,0.5,1,1v35.9c0,0.5-0.5,1-1,1h-6.5c-0.5,0-1-0.5-1-1V-108.2z"/>
		<path fill="#8D9498" d="M201.8-72.7l17-36.5c0.2-0.3,0.5-0.6,0.9-0.6h0.5c0.4,0,0.8,0.3,0.9,0.6l17,36.5c0.3,0.7-0.1,1.4-0.9,1.4
			h-6c-1,0-1.4-0.3-1.9-1.4l-2-4.3h-14.8l-2,4.3c-0.3,0.7-0.9,1.3-2,1.3h-6C201.9-71.3,201.5-72,201.8-72.7z M224.1-84.3l-4.1-9
			h-0.1l-4.1,9H224.1z"/>
		<path fill="#8D9498" d="M241.9-108.2c0-0.5,0.4-1,1-1h6.5c0.5,0,1,0.5,1,1v29h12.9c0.6,0,1,0.5,1,1v5.9c0,0.5-0.4,1-1,1h-20.4
			c-0.6,0-1-0.5-1-1V-108.2z"/>
		<path fill="#8D9498" d="M317.6-108.2c0-0.5,0.4-1,1-1h22.5c0.6,0,1,0.5,1,1v5.9c0,0.5-0.4,1-1,1h-15v6.7h12.4c0.5,0,1,0.5,1,1v5.9
			c0,0.6-0.5,1-1,1h-12.4v7.3h15c0.6,0,1,0.5,1,1v5.9c0,0.5-0.4,1-1,1h-22.5c-0.6,0-1-0.5-1-1V-108.2z"/>
		<path fill="#8D9498" d="M346.7-81.9v-4.9c0-0.6,0.4-1,1-1h12.4c0.6,0,1,0.4,1,1v4.9c0,0.5-0.4,1-1,1h-12.4
			C347.1-80.9,346.7-81.4,346.7-81.9z"/>
		<path fill="#8D9498" d="M385.7-109.8c5.4,0,9.4,1.7,13.1,5c0.5,0.4,0.5,1.1,0.1,1.5l-4.2,4.4c-0.4,0.4-1,0.4-1.4,0
			c-2-1.8-4.7-2.8-7.3-2.8c-6.1,0-10.6,5.1-10.6,11.2c0,6,4.6,11,10.7,11c2.6,0,5.3-0.9,7.3-2.6c0.4-0.3,1.1-0.3,1.4,0.1l4.2,4.5
			c0.4,0.4,0.3,1.1-0.1,1.5c-3.7,3.6-8.4,5.3-13.2,5.3c-10.9,0-19.6-8.6-19.6-19.5S374.8-109.8,385.7-109.8z"/>
		<path fill="#8D9498" d="M420.4-109.8c10.9,0,19.5,8.7,19.5,19.6s-8.7,19.5-19.5,19.5c-10.9,0-19.5-8.6-19.5-19.5
			S409.5-109.8,420.4-109.8z M420.4-79.4c6,0,10.9-4.9,10.9-10.8c0-6-4.9-10.9-10.9-10.9c-5.9,0-10.8,4.9-10.8,10.9
			C409.6-84.3,414.4-79.4,420.4-79.4z"/>
		<path fill="#8D9498" d="M448.9-108.9c0.1-0.5,0.5-0.9,1-0.9h0.9c0.3,0,0.8,0.2,0.9,0.5l12.6,23.4h0.1l12.6-23.4
			c0.2-0.3,0.7-0.5,0.9-0.5h0.9c0.4,0,0.9,0.4,1,0.9l6.1,36.5c0.1,0.7-0.4,1.2-1,1.2h-6.4c-0.5,0-1-0.4-1-0.9L475-88.9h-0.1
			l-9.1,17.6c-0.2,0.3-0.7,0.6-0.9,0.6h-1c-0.3,0-0.8-0.3-0.9-0.6l-9.2-17.6h-0.1l-2.4,16.8c-0.1,0.4-0.5,0.9-1,0.9h-6.4
			c-0.7,0-1.1-0.5-1-1.2L448.9-108.9z"/>
		<path fill="#8D9498" d="M495.8-108.9c0.1-0.5,0.5-0.9,1-0.9h0.9c0.3,0,0.8,0.2,0.9,0.5l12.6,23.4h0.1l12.6-23.4
			c0.2-0.3,0.7-0.5,0.9-0.5h0.9c0.4,0,0.9,0.4,1,0.9l6.1,36.5c0.1,0.7-0.4,1.2-1,1.2h-6.4c-0.5,0-1-0.4-1-0.9l-2.4-16.8h-0.1
			l-9.1,17.6c-0.2,0.3-0.7,0.6-0.9,0.6h-1c-0.3,0-0.8-0.3-0.9-0.6l-9.2-17.6h-0.1l-2.4,16.8c-0.1,0.4-0.5,0.9-1,0.9h-6.4
			c-0.7,0-1.1-0.5-1-1.2L495.8-108.9z"/>
		<path fill="#8D9498" d="M538.6-108.2c0-0.5,0.4-1,1-1h22.5c0.6,0,1,0.5,1,1v5.9c0,0.5-0.4,1-1,1h-15v6.7h12.4c0.5,0,1,0.5,1,1v5.9
			c0,0.6-0.5,1-1,1h-12.4v7.3h15c0.6,0,1,0.5,1,1v5.9c0,0.5-0.4,1-1,1h-22.5c-0.6,0-1-0.5-1-1V-108.2z"/>
		<path fill="#8D9498" d="M570-108.2c0-0.5,0.4-1,1-1h16.2c6.5,0,11.8,5.3,11.8,11.7c0,5-3.3,9-8,10.9l7.4,13.8
			c0.4,0.7,0,1.6-0.9,1.6h-7.2c-0.4,0-0.8-0.3-0.9-0.5l-7.2-14.4h-3.7v13.8c0,0.5-0.5,1-1,1h-6.5c-0.6,0-1-0.5-1-1V-108.2z
			 M586.6-93c2.2,0,4.1-2.1,4.1-4.3c0-2.3-1.9-4.1-4.1-4.1h-8v8.5H586.6z"/>
		<path fill="#8D9498" d="M622.1-109.8c5.4,0,9.4,1.7,13.1,5c0.5,0.4,0.5,1.1,0.1,1.5l-4.2,4.4c-0.4,0.4-1,0.4-1.4,0
			c-2-1.8-4.7-2.8-7.3-2.8c-6.1,0-10.6,5.1-10.6,11.2c0,6,4.6,11,10.7,11c2.6,0,5.3-0.9,7.3-2.6c0.4-0.3,1.1-0.3,1.4,0.1l4.2,4.5
			c0.4,0.4,0.3,1.1-0.1,1.5c-3.7,3.6-8.4,5.3-13.2,5.3c-10.9,0-19.6-8.6-19.6-19.5S611.2-109.8,622.1-109.8z"/>
		<path fill="#8D9498" d="M640.6-108.2c0-0.5,0.4-1,1-1h22.5c0.6,0,1,0.5,1,1v5.9c0,0.5-0.4,1-1,1h-15v6.7h12.4c0.5,0,1,0.5,1,1v5.9
			c0,0.6-0.5,1-1,1H649v7.3h15c0.6,0,1,0.5,1,1v5.9c0,0.5-0.4,1-1,1h-22.5c-0.6,0-1-0.5-1-1V-108.2z"/>
		<path fill="#8D9498" d="M715.5-72.7l17-36.5c0.2-0.3,0.5-0.6,0.9-0.6h0.5c0.4,0,0.8,0.3,0.9,0.6l17,36.5c0.3,0.7-0.1,1.4-0.9,1.4
			h-6c-1,0-1.4-0.3-1.9-1.4l-2-4.3h-14.8l-2,4.3c-0.3,0.7-0.9,1.3-2,1.3h-6C715.6-71.3,715.1-72,715.5-72.7z M737.8-84.3l-4.1-9
			h-0.1l-4.1,9H737.8z"/>
		<path fill="#8D9498" d="M755.5-108.8c0-0.5,0.5-1,1-1h1.4L779.5-89h0.1v-19.3c0-0.5,0.4-1,1-1h6.5c0.5,0,1,0.5,1,1v36.5
			c0,0.5-0.5,1-1,1h-0.9c-0.2,0-0.6-0.2-0.7-0.3l-21.4-21.5H764v20.2c0,0.5-0.4,1-1,1h-6.5c-0.5,0-1-0.5-1-1L755.5-108.8z"/>
		<path fill="#8D9498" d="M791.9-72.7l17-36.5c0.2-0.3,0.5-0.6,0.9-0.6h0.5c0.4,0,0.8,0.3,0.9,0.6l17,36.5c0.3,0.7-0.1,1.4-0.9,1.4
			h-6c-1,0-1.4-0.3-1.9-1.4l-2-4.3h-14.8l-2,4.3c-0.3,0.7-0.9,1.3-2,1.3h-6C792-71.3,791.5-72,791.9-72.7z M814.2-84.3l-4.1-9H810
			l-4.1,9H814.2z"/>
		<path fill="#8D9498" d="M831.9-108.2c0-0.5,0.4-1,1-1h6.5c0.5,0,1,0.5,1,1v29h12.9c0.6,0,1,0.5,1,1v5.9c0,0.5-0.4,1-1,1h-20.4
			c-0.6,0-1-0.5-1-1V-108.2z"/>
		<path fill="#8D9498" d="M861.7-89.6l-12-18.1c-0.4-0.7,0-1.6,0.9-1.6h7.1c0.4,0,0.7,0.3,0.9,0.5l7.5,11.1l7.5-11.1
			c0.2-0.2,0.4-0.5,0.9-0.5h7.1c0.9,0,1.3,0.9,0.9,1.6l-12.2,18.1v17.3c0,0.5-0.5,1-1,1h-6.5c-0.6,0-1-0.5-1-1V-89.6z"/>
		<path fill="#8D9498" d="M893-101.3h-7.8c-0.6,0-1-0.5-1-1v-5.9c0-0.5,0.4-1,1-1h24.1c0.6,0,1,0.5,1,1v5.9c0,0.5-0.4,1-1,1h-7.8v29
			c0,0.5-0.5,1-1,1h-6.5c-0.5,0-1-0.5-1-1V-101.3z"/>
		<path fill="#8D9498" d="M914.5-108.2c0-0.5,0.5-1,1-1h6.5c0.5,0,1,0.5,1,1v35.9c0,0.5-0.5,1-1,1h-6.5c-0.5,0-1-0.5-1-1V-108.2z"/>
		<path fill="#8D9498" d="M948.3-109.8c5.4,0,9.4,1.7,13.1,5c0.5,0.4,0.5,1.1,0.1,1.5l-4.2,4.4c-0.4,0.4-1,0.4-1.4,0
			c-2-1.8-4.7-2.8-7.3-2.8c-6.1,0-10.6,5.1-10.6,11.2c0,6,4.6,11,10.7,11c2.6,0,5.3-0.9,7.3-2.6c0.4-0.3,1.1-0.3,1.4,0.1l4.2,4.5
			c0.4,0.4,0.3,1.1-0.1,1.5c-3.7,3.6-8.4,5.3-13.2,5.3c-10.9,0-19.6-8.6-19.6-19.5S937.5-109.8,948.3-109.8z"/>
		<path fill="#8D9498" d="M965.4-76.4l2.6-4.5c0.4-0.7,1.5-0.6,1.8-0.3c0.2,0.1,4.1,3,7.7,3c2.2,0,3.7-1.4,3.7-3.3
			c0-2.3-1.9-4-5.6-5.5c-4.7-1.8-10.5-5.5-10.5-12c0-5.4,4.2-10.8,12.5-10.8c5.6,0,10,2.9,11.6,4.1c0.7,0.4,0.5,1.4,0.3,1.7
			l-2.8,4.2c-0.4,0.6-1.4,1.1-1.8,0.7c-0.5-0.3-4.5-3.3-7.8-3.3c-2,0-3.4,1.3-3.4,2.8c0,2,1.6,3.5,5.9,5.3c4.2,1.7,11,5,11,12.4
			c0,5.6-4.8,11.2-12.8,11.2c-7.1,0-11-2.9-12.2-4.2C965.1-75.4,965-75.7,965.4-76.4z"/>
		<path fill="#8D9498" d="M-79.3-33c0.1-0.5,0.5-0.9,1-0.9h0.9c0.3,0,0.8,0.2,0.9,0.5l12.6,23.4h0.1l12.6-23.4
			c0.2-0.3,0.7-0.5,0.9-0.5h0.9c0.4,0,0.9,0.4,1,0.9l6.1,36.5c0.1,0.7-0.4,1.2-1,1.2h-6.4c-0.5,0-1-0.4-1-0.9L-53.3-13h-0.1
			l-9.1,17.6c-0.2,0.3-0.7,0.6-0.9,0.6h-1c-0.3,0-0.8-0.3-0.9-0.6L-74.5-13h-0.1L-77,3.8c-0.1,0.4-0.5,0.9-1,0.9h-6.4
			c-0.7,0-1.1-0.5-1-1.2L-79.3-33z"/>
		<path fill="#8D9498" d="M-39.7,3.2l17-36.5c0.2-0.3,0.5-0.6,0.9-0.6h0.5c0.4,0,0.8,0.3,0.9,0.6l17,36.5C-3,4-3.4,4.7-4.3,4.7h-6
			c-1,0-1.4-0.3-1.9-1.4l-2-4.3h-14.8l-2,4.3c-0.3,0.7-0.9,1.3-2,1.3h-6C-39.6,4.7-40,4-39.7,3.2z M-17.4-8.4l-4.1-9h-0.1l-4.1,9
			H-17.4z"/>
		<path fill="#8D9498" d="M0.4-32.3c0-0.5,0.4-1,1-1h16.2c6.5,0,11.8,5.3,11.8,11.7c0,5-3.3,9-8,10.9l7.4,13.8
			c0.4,0.7,0,1.6-0.9,1.6h-7.2c-0.4,0-0.8-0.3-0.9-0.5l-7.2-14.4H8.9V3.6c0,0.5-0.5,1-1,1H1.4c-0.6,0-1-0.5-1-1V-32.3z M16.9-17.1
			c2.2,0,4.1-2.1,4.1-4.3s-1.9-4.1-4.1-4.1h-8v8.5H16.9z"/>
		<path fill="#8D9498" d="M35.8-32c0-0.7,0.5-1.3,1.3-1.3h6.3c0.7,0,1.3,0.6,1.3,1.3v14.3l12-15c0.2-0.3,0.7-0.5,1-0.5h6.8
			c1,0,1.6,1.2,1,2L52.9-15.4l13.8,18c0.6,0.8,0,2-1,2h-7.5c-0.4,0-0.9-0.2-1-0.4l-12.5-17V3.4c0,0.7-0.6,1.3-1.3,1.3h-6.3
			c-0.8,0-1.3-0.6-1.3-1.3V-32z"/>
		<path fill="#8D9498" d="M71.1-32.3c0-0.5,0.4-1,1-1h22.5c0.6,0,1,0.5,1,1v5.9c0,0.5-0.4,1-1,1h-15v6.7h12.4c0.5,0,1,0.5,1,1v5.9
			c0,0.6-0.5,1-1,1H79.6v7.3h15c0.6,0,1,0.5,1,1v5.9c0,0.5-0.4,1-1,1H72.1c-0.6,0-1-0.5-1-1V-32.3z"/>
		<path fill="#8D9498" d="M107.5-25.4h-7.8c-0.6,0-1-0.5-1-1v-5.9c0-0.5,0.4-1,1-1h24.1c0.6,0,1,0.5,1,1v5.9c0,0.5-0.4,1-1,1h-7.8
			v29c0,0.5-0.5,1-1,1h-6.5c-0.5,0-1-0.5-1-1V-25.4z"/>
		<path fill="#8D9498" d="M128.9-32.3c0-0.5,0.5-1,1-1h6.5c0.5,0,1,0.5,1,1V3.6c0,0.5-0.5,1-1,1H130c-0.5,0-1-0.5-1-1V-32.3z"/>
		<path fill="#8D9498" d="M145.8-32.9c0-0.5,0.5-1,1-1h1.4L169.8-13h0.1v-19.3c0-0.5,0.4-1,1-1h6.5c0.5,0,1,0.5,1,1V4.2
			c0,0.5-0.5,1-1,1h-0.9c-0.2,0-0.6-0.2-0.7-0.3l-21.4-21.5h-0.1V3.6c0,0.5-0.4,1-1,1h-6.5c-0.5,0-1-0.5-1-1L145.8-32.9z"/>
		<path fill="#8D9498" d="M203.7-33.8c4.6,0,9.6,1.9,13.2,5.1c0.5,0.4,0.5,1,0.1,1.5l-4.3,4.6c-0.4,0.4-1,0.4-1.5,0.1
			c-2.1-1.9-4.4-2.6-7.1-2.6c-5.9,0-10.7,5-10.7,11c0,5.9,4.8,10.8,10.7,10.8c1.6,0,3.2-0.2,4.8-0.9v-3.1h-3.4c-0.6,0-1-0.4-1-1
			v-5.4c0-0.6,0.4-1,1-1h10.9c0.5,0,1,0.5,1,1l0.1,14.6c0,0.3-0.2,0.7-0.4,0.9c0,0-5.6,3.5-13.5,3.5c-10.8,0-19.5-8.6-19.5-19.4
			S192.9-33.8,203.7-33.8z"/>
		<path fill="#8D9498" d="M268.1,3.2l17-36.5c0.2-0.3,0.5-0.6,0.9-0.6h0.5c0.4,0,0.8,0.3,0.9,0.6l17,36.5c0.3,0.7-0.1,1.4-0.9,1.4
			h-6c-1,0-1.4-0.3-1.9-1.4l-2-4.3h-14.8l-2,4.3c-0.3,0.7-0.9,1.3-2,1.3h-6C268.3,4.7,267.8,4,268.1,3.2z M290.4-8.4l-4.1-9h-0.1
			l-4.1,9H290.4z"/>
		<path fill="#8D9498" d="M305.9-32.3c0-0.5,0.5-1,1-1h6.7c0.6,0,1,0.5,1,1v22c0,3.8,2.8,6.8,6.7,6.8c3.9,0,6.8-3,6.8-6.8v-22
			c0-0.5,0.4-1,1-1h6.7c0.5,0,1,0.5,1,1v22.4c0,8.3-6.9,15.1-15.5,15.1c-8.5,0-15.4-6.8-15.4-15.1V-32.3z"/>
		<path fill="#8D9498" d="M349.4-25.4h-7.8c-0.6,0-1-0.5-1-1v-5.9c0-0.5,0.4-1,1-1h24.1c0.6,0,1,0.5,1,1v5.9c0,0.5-0.4,1-1,1H358v29
			c0,0.5-0.5,1-1,1h-6.5c-0.5,0-1-0.5-1-1V-25.4z"/>
		<path fill="#8D9498" d="M387.4-33.9c10.9,0,19.5,8.7,19.5,19.6s-8.7,19.5-19.5,19.5c-10.9,0-19.5-8.6-19.5-19.5
			S376.5-33.9,387.4-33.9z M387.4-3.5c6,0,10.9-4.9,10.9-10.8c0-6-4.9-10.9-10.9-10.9c-5.9,0-10.8,4.9-10.8,10.9
			C376.6-8.4,381.5-3.5,387.4-3.5z"/>
		<path fill="#8D9498" d="M415.9-33c0.1-0.5,0.5-0.9,1-0.9h0.9c0.3,0,0.8,0.2,0.9,0.5l12.6,23.4h0.1L444-33.3
			c0.2-0.3,0.7-0.5,0.9-0.5h0.9c0.4,0,0.9,0.4,1,0.9l6.1,36.5c0.1,0.7-0.4,1.2-1,1.2h-6.4c-0.5,0-1-0.4-1-0.9L442-13h-0.1l-9.1,17.6
			c-0.2,0.3-0.7,0.6-0.9,0.6h-1c-0.3,0-0.8-0.3-0.9-0.6L420.8-13h-0.1l-2.4,16.8c-0.1,0.4-0.5,0.9-1,0.9h-6.4c-0.7,0-1.1-0.5-1-1.2
			L415.9-33z"/>
		<path fill="#8D9498" d="M455.5,3.2l17-36.5c0.2-0.3,0.5-0.6,0.9-0.6h0.5c0.4,0,0.8,0.3,0.9,0.6l17,36.5c0.3,0.7-0.1,1.4-0.9,1.4
			h-6c-1,0-1.4-0.3-1.9-1.4l-2-4.3h-14.8l-2,4.3c-0.3,0.7-0.9,1.3-2,1.3h-6C455.7,4.7,455.2,4,455.5,3.2z M477.9-8.4l-4.1-9h-0.1
			l-4.1,9H477.9z"/>
		<path fill="#8D9498" d="M497.9-25.4h-7.8c-0.6,0-1-0.5-1-1v-5.9c0-0.5,0.4-1,1-1h24.1c0.6,0,1,0.5,1,1v5.9c0,0.5-0.4,1-1,1h-7.8
			v29c0,0.5-0.5,1-1,1h-6.5c-0.5,0-1-0.5-1-1V-25.4z"/>
		<path fill="#8D9498" d="M519.3-32.3c0-0.5,0.5-1,1-1h6.5c0.5,0,1,0.5,1,1V3.6c0,0.5-0.5,1-1,1h-6.5c-0.5,0-1-0.5-1-1V-32.3z"/>
		<path fill="#8D9498" d="M553.1-33.9c10.9,0,19.5,8.7,19.5,19.6S564,5.2,553.1,5.2c-10.9,0-19.5-8.6-19.5-19.5
			S542.2-33.9,553.1-33.9z M553.1-3.5c6,0,10.9-4.9,10.9-10.8c0-6-4.9-10.9-10.9-10.9c-5.9,0-10.8,4.9-10.8,10.9
			C542.3-8.4,547.2-3.5,553.1-3.5z"/>
		<path fill="#8D9498" d="M578.4-32.9c0-0.5,0.5-1,1-1h1.4L602.5-13h0.1v-19.3c0-0.5,0.4-1,1-1h6.5c0.5,0,1,0.5,1,1V4.2
			c0,0.5-0.5,1-1,1h-0.9c-0.2,0-0.6-0.2-0.7-0.3l-21.4-21.5H587V3.6c0,0.5-0.4,1-1,1h-6.5c-0.5,0-1-0.5-1-1L578.4-32.9z"/>
		<path fill="#8D9498" d="M685.2-33.9c5.4,0,9.4,1.7,13.1,5c0.5,0.4,0.5,1.1,0.1,1.5l-4.2,4.4c-0.4,0.4-1,0.4-1.4,0
			c-2-1.8-4.7-2.8-7.3-2.8c-6.1,0-10.6,5.1-10.6,11.2c0,6,4.6,11,10.7,11c2.6,0,5.3-0.9,7.3-2.6c0.4-0.3,1.1-0.3,1.4,0.1l4.2,4.5
			c0.4,0.4,0.3,1.1-0.1,1.5c-3.7,3.6-8.4,5.3-13.2,5.3c-10.9,0-19.6-8.6-19.6-19.5S674.4-33.9,685.2-33.9z"/>
		<path fill="#8D9498" d="M703.7-32.3c0-0.5,0.4-1,1-1H721c6.5,0,11.8,5.3,11.8,11.7c0,5-3.3,9-8,10.9l7.4,13.8
			c0.4,0.7,0,1.6-0.9,1.6h-7.2c-0.4,0-0.8-0.3-0.9-0.5L716-10.2h-3.7V3.6c0,0.5-0.5,1-1,1h-6.5c-0.6,0-1-0.5-1-1V-32.3z M720.3-17.1
			c2.2,0,4.1-2.1,4.1-4.3s-1.9-4.1-4.1-4.1h-8v8.5H720.3z"/>
		<path fill="#8D9498" d="M742.6-33c0.1-0.5,0.5-0.9,1-0.9h0.9c0.3,0,0.8,0.2,0.9,0.5L758-9.9h0.1l12.6-23.4
			c0.2-0.3,0.7-0.5,0.9-0.5h0.9c0.4,0,0.9,0.4,1,0.9l6.1,36.5c0.1,0.7-0.4,1.2-1,1.2h-6.4c-0.5,0-1-0.4-1-0.9L768.6-13h-0.1
			l-9.1,17.6c-0.2,0.3-0.7,0.6-0.9,0.6h-1c-0.3,0-0.8-0.3-0.9-0.6L747.4-13h-0.1l-2.4,16.8c-0.1,0.4-0.5,0.9-1,0.9h-6.4
			c-0.7,0-1.1-0.5-1-1.2L742.6-33z"/>
		<path fill="#8D9498" d="M832.3-0.5l2.6-4.5c0.4-0.7,1.5-0.6,1.8-0.3c0.2,0.1,4.1,3,7.7,3c2.2,0,3.7-1.4,3.7-3.3
			c0-2.3-1.9-4-5.6-5.5c-4.7-1.8-10.5-5.5-10.5-12c0-5.4,4.2-10.8,12.5-10.8c5.6,0,10,2.9,11.6,4.1c0.7,0.4,0.5,1.4,0.3,1.7
			l-2.8,4.2c-0.4,0.6-1.4,1.1-1.8,0.7c-0.5-0.3-4.5-3.3-7.8-3.3c-2,0-3.4,1.3-3.4,2.8c0,2,1.6,3.5,5.9,5.3c4.2,1.7,11,5,11,12.4
			c0,5.6-4.8,11.2-12.8,11.2c-7.1,0-11-2.9-12.2-4.2C832,0.5,831.9,0.3,832.3-0.5z"/>
		<path fill="#8D9498" d="M880.1-33.9c10.9,0,19.5,8.7,19.5,19.6s-8.7,19.5-19.5,19.5c-10.9,0-19.5-8.6-19.5-19.5
			S869.2-33.9,880.1-33.9z M880.1-3.5c6,0,10.9-4.9,10.9-10.8c0-6-4.9-10.9-10.9-10.9c-5.9,0-10.8,4.9-10.8,10.9
			C869.3-8.4,874.1-3.5,880.1-3.5z"/>
		<path fill="#8D9498" d="M922.6-33.9c5.4,0,9.4,1.7,13.1,5c0.5,0.4,0.5,1.1,0.1,1.5l-4.2,4.4c-0.4,0.4-1,0.4-1.4,0
			c-2-1.8-4.7-2.8-7.3-2.8c-6.1,0-10.6,5.1-10.6,11.2c0,6,4.6,11,10.7,11c2.6,0,5.3-0.9,7.3-2.6c0.4-0.3,1.1-0.3,1.4,0.1l4.2,4.5
			c0.4,0.4,0.3,1.1-0.1,1.5c-3.7,3.6-8.4,5.3-13.2,5.3c-10.9,0-19.6-8.6-19.6-19.5S911.7-33.9,922.6-33.9z"/>
		<path fill="#8D9498" d="M941.1-32.3c0-0.5,0.5-1,1-1h6.5c0.5,0,1,0.5,1,1V3.6c0,0.5-0.5,1-1,1h-6.5c-0.5,0-1-0.5-1-1V-32.3z"/>
		<path fill="#8D9498" d="M953.3,3.2l17-36.5c0.2-0.3,0.5-0.6,0.9-0.6h0.5c0.4,0,0.8,0.3,0.9,0.6l17,36.5c0.3,0.7-0.1,1.4-0.9,1.4
			h-6c-1,0-1.4-0.3-1.9-1.4l-2-4.3h-14.8l-2,4.3c-0.3,0.7-0.9,1.3-2,1.3h-6C953.4,4.7,952.9,4,953.3,3.2z M975.6-8.4l-4.1-9h-0.1
			l-4.1,9H975.6z"/>
		<path fill="#8D9498" d="M993.3-32.3c0-0.5,0.4-1,1-1h6.5c0.5,0,1,0.5,1,1v29h12.9c0.6,0,1,0.5,1,1v5.9c0,0.5-0.4,1-1,1h-20.4
			c-0.6,0-1-0.5-1-1V-32.3z"/>
		<path fill="#8D9498" d="M-83.1,43.6c0-0.5,0.4-1,1-1h22.5c0.6,0,1,0.5,1,1v5.9c0,0.5-0.4,1-1,1h-15v6.7h12.4c0.5,0,1,0.5,1,1v5.9
			c0,0.6-0.5,1-1,1h-12.4v7.3h15c0.6,0,1,0.5,1,1v5.9c0,0.5-0.4,1-1,1H-82c-0.6,0-1-0.5-1-1V43.6z"/>
		<path fill="#8D9498" d="M-54,69.9V65c0-0.6,0.4-1,1-1h12.4c0.6,0,1,0.4,1,1v4.9c0,0.5-0.4,1-1,1H-53C-53.5,70.9-54,70.5-54,69.9z"
			/>
		<path fill="#8D9498" d="M-15,42c5.4,0,9.4,1.7,13.1,5c0.5,0.4,0.5,1.1,0.1,1.5L-6,53c-0.4,0.4-1,0.4-1.4,0c-2-1.8-4.7-2.8-7.3-2.8
			c-6.1,0-10.6,5.1-10.6,11.2c0,6,4.6,11,10.7,11c2.6,0,5.3-0.9,7.3-2.6c0.4-0.3,1.1-0.3,1.4,0.1l4.2,4.5c0.4,0.4,0.3,1.1-0.1,1.5
			c-3.7,3.6-8.4,5.3-13.2,5.3c-10.9,0-19.6-8.6-19.6-19.5S-25.8,42-15,42z"/>
		<path fill="#8D9498" d="M19.7,42c10.9,0,19.5,8.7,19.5,19.6s-8.7,19.5-19.5,19.5c-10.9,0-19.5-8.6-19.5-19.5S8.9,42,19.7,42z
			 M19.7,72.4c6,0,10.9-4.9,10.9-10.8c0-6-4.9-10.9-10.9-10.9c-5.9,0-10.8,4.9-10.8,10.9C8.9,67.6,13.8,72.4,19.7,72.4z"/>
		<path fill="#8D9498" d="M48.3,42.9c0.1-0.5,0.5-0.9,1-0.9h0.9c0.3,0,0.8,0.2,0.9,0.5L63.6,66h0.1l12.6-23.4
			c0.2-0.3,0.7-0.5,0.9-0.5h0.9c0.4,0,0.9,0.4,1,0.9l6.1,36.5c0.1,0.7-0.4,1.2-1,1.2h-6.4c-0.5,0-1-0.4-1-0.9l-2.4-16.8h-0.1
			l-9.1,17.6c-0.2,0.3-0.7,0.6-0.9,0.6h-1c-0.3,0-0.8-0.3-0.9-0.6l-9.2-17.6H53l-2.4,16.8c-0.1,0.4-0.5,0.9-1,0.9h-6.4
			c-0.7,0-1.1-0.5-1-1.2L48.3,42.9z"/>
		<path fill="#8D9498" d="M95.1,42.9c0.1-0.5,0.5-0.9,1-0.9H97c0.3,0,0.8,0.2,0.9,0.5L110.5,66h0.1l12.6-23.4
			c0.2-0.3,0.7-0.5,0.9-0.5h0.9c0.4,0,0.9,0.4,1,0.9l6.1,36.5c0.1,0.7-0.4,1.2-1,1.2h-6.4c-0.5,0-1-0.4-1-0.9l-2.4-16.8h-0.1
			l-9.1,17.6c-0.2,0.3-0.7,0.6-0.9,0.6h-1c-0.3,0-0.8-0.3-0.9-0.6L100,62.9h-0.1l-2.4,16.8c-0.1,0.4-0.5,0.9-1,0.9H90
			c-0.7,0-1.1-0.5-1-1.2L95.1,42.9z"/>
		<path fill="#8D9498" d="M138,43.6c0-0.5,0.4-1,1-1h22.5c0.6,0,1,0.5,1,1v5.9c0,0.5-0.4,1-1,1h-15v6.7h12.4c0.5,0,1,0.5,1,1v5.9
			c0,0.6-0.5,1-1,1h-12.4v7.3h15c0.6,0,1,0.5,1,1v5.9c0,0.5-0.4,1-1,1H139c-0.6,0-1-0.5-1-1V43.6z"/>
		<path fill="#8D9498" d="M169.4,43.6c0-0.5,0.4-1,1-1h16.2c6.5,0,11.8,5.3,11.8,11.7c0,5-3.3,9-8,10.9l7.4,13.8
			c0.4,0.7,0,1.6-0.9,1.6h-7.2c-0.4,0-0.8-0.3-0.9-0.5l-7.2-14.4h-3.7v13.8c0,0.5-0.5,1-1,1h-6.5c-0.6,0-1-0.5-1-1V43.6z M186,58.8
			c2.2,0,4.1-2.1,4.1-4.3s-1.9-4.1-4.1-4.1h-8v8.5H186z"/>
		<path fill="#8D9498" d="M221.4,42c5.4,0,9.4,1.7,13.1,5c0.5,0.4,0.5,1.1,0.1,1.5l-4.2,4.4c-0.4,0.4-1,0.4-1.4,0
			c-2-1.8-4.7-2.8-7.3-2.8c-6.1,0-10.6,5.1-10.6,11.2c0,6,4.6,11,10.7,11c2.6,0,5.3-0.9,7.3-2.6c0.4-0.3,1.1-0.3,1.4,0.1l4.2,4.5
			c0.4,0.4,0.3,1.1-0.1,1.5c-3.7,3.6-8.4,5.3-13.2,5.3c-10.9,0-19.6-8.6-19.6-19.5S210.6,42,221.4,42z"/>
		<path fill="#8D9498" d="M239.9,43.6c0-0.5,0.4-1,1-1h22.5c0.6,0,1,0.5,1,1v5.9c0,0.5-0.4,1-1,1h-15v6.7h12.4c0.5,0,1,0.5,1,1v5.9
			c0,0.6-0.5,1-1,1h-12.4v7.3h15c0.6,0,1,0.5,1,1v5.9c0,0.5-0.4,1-1,1H241c-0.6,0-1-0.5-1-1V43.6z"/>
		<path fill="#8D9498" d="M314.8,79.2l17-36.5c0.2-0.3,0.5-0.6,0.9-0.6h0.5c0.4,0,0.8,0.3,0.9,0.6l17,36.5c0.3,0.7-0.1,1.4-0.9,1.4
			h-6c-1,0-1.4-0.3-1.9-1.4l-2-4.3h-14.8l-2,4.3c-0.3,0.7-0.9,1.3-2,1.3h-6C314.9,80.6,314.5,79.9,314.8,79.2z M337.1,67.6l-4.1-9
			H333l-4.1,9H337.1z"/>
		<path fill="#8D9498" d="M354.8,43c0-0.5,0.5-1,1-1h1.4l21.7,20.8h0.1V43.6c0-0.5,0.4-1,1-1h6.5c0.5,0,1,0.5,1,1v36.5
			c0,0.5-0.5,1-1,1h-0.9c-0.2,0-0.6-0.2-0.7-0.3l-21.4-21.5h-0.1v20.2c0,0.5-0.4,1-1,1h-6.5c-0.5,0-1-0.5-1-1L354.8,43z"/>
		<path fill="#8D9498" d="M391.2,79.2l17-36.5c0.2-0.3,0.5-0.6,0.9-0.6h0.5c0.4,0,0.8,0.3,0.9,0.6l17,36.5c0.3,0.7-0.1,1.4-0.9,1.4
			h-6c-1,0-1.4-0.3-1.9-1.4l-2-4.3H402l-2,4.3c-0.3,0.7-0.9,1.3-2,1.3h-6C391.3,80.6,390.9,79.9,391.2,79.2z M413.5,67.6l-4.1-9
			h-0.1l-4.1,9H413.5z"/>
		<path fill="#8D9498" d="M431.3,43.6c0-0.5,0.4-1,1-1h6.5c0.5,0,1,0.5,1,1v29h12.9c0.6,0,1,0.5,1,1v5.9c0,0.5-0.4,1-1,1h-20.4
			c-0.6,0-1-0.5-1-1V43.6z"/>
		<path fill="#8D9498" d="M461.1,62.3l-12-18.1c-0.4-0.7,0-1.6,0.9-1.6h7.1c0.4,0,0.7,0.3,0.9,0.5l7.5,11.1l7.5-11.1
			c0.2-0.2,0.4-0.5,0.9-0.5h7.1c0.9,0,1.3,0.9,0.9,1.6l-12.2,18.1v17.3c0,0.5-0.5,1-1,1h-6.5c-0.6,0-1-0.5-1-1V62.3z"/>
		<path fill="#8D9498" d="M492.4,50.6h-7.8c-0.6,0-1-0.5-1-1v-5.9c0-0.5,0.4-1,1-1h24.1c0.6,0,1,0.5,1,1v5.9c0,0.5-0.4,1-1,1H501v29
			c0,0.5-0.5,1-1,1h-6.5c-0.5,0-1-0.5-1-1V50.6z"/>
		<path fill="#8D9498" d="M513.8,43.6c0-0.5,0.5-1,1-1h6.5c0.5,0,1,0.5,1,1v35.9c0,0.5-0.5,1-1,1h-6.5c-0.5,0-1-0.5-1-1V43.6z"/>
		<path fill="#8D9498" d="M547.7,42c5.4,0,9.4,1.7,13.1,5c0.5,0.4,0.5,1.1,0.1,1.5l-4.2,4.4c-0.4,0.4-1,0.4-1.4,0
			c-2-1.8-4.7-2.8-7.3-2.8c-6.1,0-10.6,5.1-10.6,11.2c0,6,4.6,11,10.7,11c2.6,0,5.3-0.9,7.3-2.6c0.4-0.3,1.1-0.3,1.4,0.1l4.2,4.5
			c0.4,0.4,0.3,1.1-0.1,1.5c-3.7,3.6-8.4,5.3-13.2,5.3c-10.9,0-19.6-8.6-19.6-19.5S536.8,42,547.7,42z"/>
		<path fill="#8D9498" d="M564.8,75.4l2.6-4.5c0.4-0.7,1.5-0.6,1.8-0.3c0.2,0.1,4.1,3,7.7,3c2.2,0,3.7-1.4,3.7-3.3
			c0-2.3-1.9-4-5.6-5.5c-4.7-1.8-10.5-5.5-10.5-12c0-5.4,4.2-10.8,12.5-10.8c5.6,0,10,2.9,11.6,4.1c0.7,0.4,0.5,1.4,0.3,1.7
			l-2.8,4.2c-0.4,0.6-1.4,1.1-1.8,0.7c-0.5-0.3-4.5-3.3-7.8-3.3c-2,0-3.4,1.3-3.4,2.8c0,2,1.6,3.5,5.9,5.3c4.2,1.7,11,5,11,12.4
			c0,5.6-4.8,11.2-12.8,11.2c-7.1,0-11-2.9-12.2-4.2C564.5,76.4,564.4,76.2,564.8,75.4z"/>
		<path fill="#8D9498" d="M636.4,42.9c0.1-0.5,0.5-0.9,1-0.9h0.9c0.3,0,0.8,0.2,0.9,0.5L651.8,66h0.1l12.6-23.4
			c0.2-0.3,0.7-0.5,0.9-0.5h0.9c0.4,0,0.9,0.4,1,0.9l6.1,36.5c0.1,0.7-0.4,1.2-1,1.2H666c-0.5,0-1-0.4-1-0.9l-2.4-16.8h-0.1
			l-9.1,17.6c-0.2,0.3-0.7,0.6-0.9,0.6h-1c-0.3,0-0.8-0.3-0.9-0.6l-9.2-17.6h-0.1l-2.4,16.8c-0.1,0.4-0.5,0.9-1,0.9h-6.4
			c-0.7,0-1.1-0.5-1-1.2L636.4,42.9z"/>
		<path fill="#8D9498" d="M676,79.2l17-36.5c0.2-0.3,0.5-0.6,0.9-0.6h0.5c0.4,0,0.8,0.3,0.9,0.6l17,36.5c0.3,0.7-0.1,1.4-0.9,1.4h-6
			c-1,0-1.4-0.3-1.9-1.4l-2-4.3h-14.8l-2,4.3c-0.3,0.7-0.9,1.3-2,1.3h-6C676.1,80.6,675.7,79.9,676,79.2z M698.3,67.6l-4.1-9h-0.1
			l-4.1,9H698.3z"/>
		<path fill="#8D9498" d="M716.1,43.6c0-0.5,0.4-1,1-1h16.2c6.5,0,11.8,5.3,11.8,11.7c0,5-3.3,9-8,10.9l7.4,13.8
			c0.4,0.7,0,1.6-0.9,1.6h-7.2c-0.4,0-0.8-0.3-0.9-0.5l-7.2-14.4h-3.7v13.8c0,0.5-0.5,1-1,1h-6.5c-0.6,0-1-0.5-1-1V43.6z
			 M732.6,58.8c2.2,0,4.1-2.1,4.1-4.3s-1.9-4.1-4.1-4.1h-8v8.5H732.6z"/>
		<path fill="#8D9498" d="M751.5,43.9c0-0.7,0.5-1.3,1.3-1.3h6.4c0.7,0,1.3,0.6,1.3,1.3v14.3l12-15c0.2-0.3,0.7-0.5,1-0.5h6.8
			c1,0,1.6,1.2,1,2l-12.7,15.9l13.8,18c0.6,0.8,0,2-1,2H774c-0.4,0-0.9-0.2-1-0.4l-12.5-17v16.2c0,0.7-0.6,1.3-1.3,1.3h-6.4
			c-0.8,0-1.3-0.6-1.3-1.3V43.9z"/>
		<path fill="#8D9498" d="M786.8,43.6c0-0.5,0.4-1,1-1h22.5c0.6,0,1,0.5,1,1v5.9c0,0.5-0.4,1-1,1h-15v6.7h12.4c0.5,0,1,0.5,1,1v5.9
			c0,0.6-0.5,1-1,1h-12.4v7.3h15c0.6,0,1,0.5,1,1v5.9c0,0.5-0.4,1-1,1h-22.5c-0.6,0-1-0.5-1-1V43.6z"/>
		<path fill="#8D9498" d="M823.2,50.6h-7.8c-0.6,0-1-0.5-1-1v-5.9c0-0.5,0.4-1,1-1h24.1c0.6,0,1,0.5,1,1v5.9c0,0.5-0.4,1-1,1h-7.8
			v29c0,0.5-0.5,1-1,1h-6.5c-0.5,0-1-0.5-1-1V50.6z"/>
		<path fill="#8D9498" d="M844.7,43.6c0-0.5,0.5-1,1-1h6.5c0.5,0,1,0.5,1,1v35.9c0,0.5-0.5,1-1,1h-6.5c-0.5,0-1-0.5-1-1V43.6z"/>
		<path fill="#8D9498" d="M861.5,43c0-0.5,0.5-1,1-1h1.4l21.7,20.8h0.1V43.6c0-0.5,0.4-1,1-1h6.5c0.5,0,1,0.5,1,1v36.5
			c0,0.5-0.5,1-1,1h-0.9c-0.2,0-0.6-0.2-0.7-0.3l-21.4-21.5h-0.1v20.2c0,0.5-0.4,1-1,1h-6.5c-0.5,0-1-0.5-1-1L861.5,43z"/>
		<path fill="#8D9498" d="M919.5,42.1c4.6,0,9.6,1.9,13.2,5.1c0.5,0.4,0.5,1,0.1,1.5l-4.3,4.6c-0.4,0.4-1,0.4-1.5,0.1
			c-2.1-1.9-4.5-2.6-7.1-2.6c-5.9,0-10.7,5-10.7,11c0,5.9,4.8,10.8,10.7,10.8c1.6,0,3.2-0.2,4.8-0.9v-3.1h-3.4c-0.6,0-1-0.4-1-1
			v-5.4c0-0.6,0.4-1,1-1h10.9c0.5,0,1,0.5,1,1l0.1,14.6c0,0.3-0.2,0.7-0.4,0.9c0,0-5.6,3.5-13.5,3.5c-10.8,0-19.5-8.6-19.5-19.4
			S908.7,42.1,919.5,42.1z"/>
		<path fill="#8D9498" d="M-87.9,155.1l17-36.5c0.2-0.3,0.5-0.6,0.9-0.6h0.5c0.4,0,0.8,0.3,0.9,0.6l17,36.5c0.3,0.7-0.1,1.4-0.9,1.4
			h-6c-1,0-1.4-0.3-1.9-1.4l-2-4.3h-14.8l-2,4.3c-0.3,0.7-0.9,1.3-2,1.3h-6C-87.8,156.5-88.3,155.8-87.9,155.1z M-65.6,143.5l-4.1-9
			h-0.1l-4.1,9H-65.6z"/>
		<path fill="#8D9498" d="M-50.2,119.5c0-0.5,0.5-1,1-1h6.7c0.6,0,1,0.5,1,1v22c0,3.8,2.8,6.8,6.7,6.8c3.9,0,6.8-3,6.8-6.8v-22
			c0-0.5,0.4-1,1-1h6.7c0.5,0,1,0.5,1,1V142c0,8.3-6.9,15.1-15.5,15.1c-8.5,0-15.4-6.8-15.4-15.1V119.5z"/>
		<path fill="#8D9498" d="M-6.6,126.5h-7.8c-0.6,0-1-0.5-1-1v-5.9c0-0.5,0.4-1,1-1H9.7c0.6,0,1,0.5,1,1v5.9c0,0.5-0.4,1-1,1H1.9v29
			c0,0.5-0.5,1-1,1h-6.5c-0.5,0-1-0.5-1-1V126.5z"/>
		<path fill="#8D9498" d="M31.3,118c10.9,0,19.5,8.7,19.5,19.6S42.2,157,31.3,157c-10.9,0-19.5-8.6-19.5-19.5S20.4,118,31.3,118z
			 M31.3,148.4c6,0,10.9-4.9,10.9-10.8c0-6-4.9-10.9-10.9-10.9c-5.9,0-10.8,4.9-10.8,10.9C20.5,143.5,25.4,148.4,31.3,148.4z"/>
		<path fill="#8D9498" d="M59.9,118.8c0.1-0.5,0.5-0.9,1-0.9h0.9c0.3,0,0.8,0.2,0.9,0.5L75.2,142h0.1l12.6-23.4
			c0.2-0.3,0.7-0.5,0.9-0.5h0.9c0.4,0,0.9,0.4,1,0.9l6.1,36.5c0.1,0.7-0.4,1.2-1,1.2h-6.4c-0.5,0-1-0.4-1-0.9l-2.4-16.8h-0.1
			l-9.1,17.6c-0.2,0.3-0.7,0.6-0.9,0.6h-1c-0.3,0-0.8-0.3-0.9-0.6l-9.2-17.6h-0.1l-2.4,16.8c-0.1,0.4-0.5,0.9-1,0.9h-6.4
			c-0.7,0-1.1-0.5-1-1.2L59.9,118.8z"/>
		<path fill="#8D9498" d="M99.5,155.1l17-36.5c0.2-0.3,0.5-0.6,0.9-0.6h0.5c0.4,0,0.8,0.3,0.9,0.6l17,36.5c0.3,0.7-0.1,1.4-0.9,1.4
			h-6c-1,0-1.4-0.3-1.9-1.4l-2-4.3h-14.8l-2,4.3c-0.3,0.7-0.9,1.3-2,1.3h-6C99.6,156.5,99.1,155.8,99.5,155.1z M121.8,143.5l-4.1-9
			h-0.1l-4.1,9H121.8z"/>
		<path fill="#8D9498" d="M141.8,126.5h-7.8c-0.6,0-1-0.5-1-1v-5.9c0-0.5,0.4-1,1-1h24.1c0.6,0,1,0.5,1,1v5.9c0,0.5-0.4,1-1,1h-7.8
			v29c0,0.5-0.5,1-1,1h-6.5c-0.5,0-1-0.5-1-1V126.5z"/>
		<path fill="#8D9498" d="M163.3,119.5c0-0.5,0.5-1,1-1h6.5c0.5,0,1,0.5,1,1v35.9c0,0.5-0.5,1-1,1h-6.5c-0.5,0-1-0.5-1-1V119.5z"/>
		<path fill="#8D9498" d="M197,118c10.9,0,19.5,8.7,19.5,19.6S207.9,157,197,157c-10.9,0-19.5-8.6-19.5-19.5S186.2,118,197,118z
			 M197,148.4c6,0,10.9-4.9,10.9-10.8c0-6-4.9-10.9-10.9-10.9c-5.9,0-10.8,4.9-10.8,10.9C186.2,143.5,191.1,148.4,197,148.4z"/>
		<path fill="#8D9498" d="M222.4,118.9c0-0.5,0.5-1,1-1h1.4l21.7,20.8h0.1v-19.3c0-0.5,0.4-1,1-1h6.5c0.5,0,1,0.5,1,1v36.5
			c0,0.5-0.5,1-1,1h-0.9c-0.2,0-0.6-0.2-0.7-0.3L231,135.2h-0.1v20.2c0,0.5-0.4,1-1,1h-6.5c-0.5,0-1-0.5-1-1L222.4,118.9z"/>
		<path fill="#8D9498" d="M317.2,118c5.4,0,9.4,1.7,13.1,5c0.5,0.4,0.5,1.1,0.1,1.5l-4.2,4.4c-0.4,0.4-1,0.4-1.4,0
			c-2-1.8-4.7-2.8-7.3-2.8c-6.1,0-10.6,5.1-10.6,11.2c0,6,4.6,11,10.7,11c2.6,0,5.3-0.9,7.3-2.6c0.4-0.3,1.1-0.3,1.4,0.1l4.2,4.5
			c0.4,0.4,0.3,1.1-0.1,1.5c-3.7,3.6-8.4,5.3-13.2,5.3c-10.9,0-19.6-8.6-19.6-19.5S306.3,118,317.2,118z"/>
		<path fill="#8D9498" d="M335.7,119.5c0-0.5,0.4-1,1-1h16.2c6.5,0,11.8,5.3,11.8,11.7c0,5-3.3,9-8,10.9l7.4,13.8
			c0.4,0.7,0,1.6-0.9,1.6H356c-0.4,0-0.8-0.3-0.9-0.5l-7.2-14.4h-3.7v13.8c0,0.5-0.5,1-1,1h-6.5c-0.6,0-1-0.5-1-1V119.5z
			 M352.2,134.7c2.2,0,4.1-2.1,4.1-4.3c0-2.3-1.9-4.1-4.1-4.1h-8v8.5H352.2z"/>
		<path fill="#8D9498" d="M374.5,118.8c0.1-0.5,0.5-0.9,1-0.9h0.9c0.3,0,0.8,0.2,0.9,0.5l12.6,23.4h0.1l12.6-23.4
			c0.2-0.3,0.7-0.5,0.9-0.5h0.9c0.4,0,0.9,0.4,1,0.9l6.1,36.5c0.1,0.7-0.4,1.2-1,1.2H404c-0.5,0-1-0.4-1-0.9l-2.4-16.8h-0.1
			l-9.1,17.6c-0.2,0.3-0.7,0.6-0.9,0.6h-1c-0.3,0-0.8-0.3-0.9-0.6l-9.2-17.6h-0.1l-2.4,16.8c-0.1,0.4-0.5,0.9-1,0.9h-6.4
			c-0.7,0-1.1-0.5-1-1.2L374.5,118.8z"/>
		<path fill="#8D9498" d="M464.2,151.3l2.6-4.5c0.4-0.7,1.5-0.6,1.8-0.3c0.2,0.1,4.1,3,7.7,3c2.2,0,3.7-1.4,3.7-3.3
			c0-2.3-1.9-4-5.6-5.5c-4.7-1.8-10.5-5.5-10.5-12c0-5.4,4.2-10.8,12.5-10.8c5.6,0,10,2.9,11.6,4.1c0.7,0.4,0.5,1.4,0.3,1.7
			l-2.8,4.2c-0.4,0.6-1.4,1.1-1.8,0.7c-0.5-0.3-4.5-3.3-7.8-3.3c-2,0-3.4,1.3-3.4,2.8c0,2,1.6,3.5,5.9,5.3c4.2,1.7,11,5,11,12.4
			c0,5.6-4.8,11.2-12.8,11.2c-7.1,0-11-2.9-12.2-4.2C464,152.3,463.8,152.1,464.2,151.3z"/>
		<path fill="#8D9498" d="M512,118c10.9,0,19.5,8.7,19.5,19.6S522.8,157,512,157s-19.5-8.6-19.5-19.5S501.1,118,512,118z M512,148.4
			c6,0,10.9-4.9,10.9-10.8c0-6-4.9-10.9-10.9-10.9c-5.9,0-10.8,4.9-10.8,10.9C501.2,143.5,506.1,148.4,512,148.4z"/>
		<path fill="#8D9498" d="M554.5,118c5.4,0,9.4,1.7,13.1,5c0.5,0.4,0.5,1.1,0.1,1.5l-4.2,4.4c-0.4,0.4-1,0.4-1.4,0
			c-2-1.8-4.7-2.8-7.3-2.8c-6.1,0-10.6,5.1-10.6,11.2c0,6,4.6,11,10.7,11c2.6,0,5.3-0.9,7.3-2.6c0.4-0.3,1.1-0.3,1.4,0.1l4.2,4.5
			c0.4,0.4,0.3,1.1-0.1,1.5c-3.7,3.6-8.4,5.3-13.2,5.3c-10.9,0-19.6-8.6-19.6-19.5S543.6,118,554.5,118z"/>
		<path fill="#8D9498" d="M573,119.5c0-0.5,0.5-1,1-1h6.5c0.5,0,1,0.5,1,1v35.9c0,0.5-0.5,1-1,1H574c-0.5,0-1-0.5-1-1V119.5z"/>
		<path fill="#8D9498" d="M585.2,155.1l17-36.5c0.2-0.3,0.5-0.6,0.9-0.6h0.5c0.4,0,0.8,0.3,0.9,0.6l17,36.5c0.3,0.7-0.1,1.4-0.9,1.4
			h-6c-1,0-1.4-0.3-1.9-1.4l-2-4.3H596l-2,4.3c-0.3,0.7-0.9,1.3-2,1.3h-6C585.3,156.5,584.9,155.8,585.2,155.1z M607.5,143.5l-4.1-9
			h-0.1l-4.1,9H607.5z"/>
		<path fill="#8D9498" d="M625.3,119.5c0-0.5,0.4-1,1-1h6.5c0.5,0,1,0.5,1,1v29h12.9c0.6,0,1,0.5,1,1v5.9c0,0.5-0.4,1-1,1h-20.4
			c-0.6,0-1-0.5-1-1V119.5z"/>
		<path fill="#8D9498" d="M689,119.5c0-0.5,0.4-1,1-1h22.5c0.6,0,1,0.5,1,1v5.9c0,0.5-0.4,1-1,1h-15v6.7h12.4c0.5,0,1,0.5,1,1v5.9
			c0,0.6-0.5,1-1,1h-12.4v7.3h15c0.6,0,1,0.5,1,1v5.9c0,0.5-0.4,1-1,1H690c-0.6,0-1-0.5-1-1V119.5z"/>
		<path fill="#8D9498" d="M718,145.9v-4.9c0-0.6,0.4-1,1-1h12.4c0.6,0,1,0.4,1,1v4.9c0,0.5-0.4,1-1,1h-12.4
			C718.5,146.8,718,146.4,718,145.9z"/>
		<path fill="#8D9498" d="M757.1,118c5.4,0,9.4,1.7,13.1,5c0.5,0.4,0.5,1.1,0.1,1.5l-4.2,4.4c-0.4,0.4-1,0.4-1.4,0
			c-2-1.8-4.7-2.8-7.3-2.8c-6.1,0-10.6,5.1-10.6,11.2c0,6,4.6,11,10.7,11c2.6,0,5.3-0.9,7.3-2.6c0.4-0.3,1.1-0.3,1.4,0.1l4.2,4.5
			c0.4,0.4,0.3,1.1-0.1,1.5c-3.7,3.6-8.4,5.3-13.2,5.3c-10.9,0-19.6-8.6-19.6-19.5S746.2,118,757.1,118z"/>
		<path fill="#8D9498" d="M791.8,118c10.9,0,19.5,8.7,19.5,19.6s-8.7,19.5-19.5,19.5c-10.9,0-19.5-8.6-19.5-19.5
			S780.9,118,791.8,118z M791.8,148.4c6,0,10.9-4.9,10.9-10.8c0-6-4.9-10.9-10.9-10.9c-5.9,0-10.8,4.9-10.8,10.9
			C781,143.5,785.8,148.4,791.8,148.4z"/>
		<path fill="#8D9498" d="M820.3,118.8c0.1-0.5,0.5-0.9,1-0.9h0.9c0.3,0,0.8,0.2,0.9,0.5l12.6,23.4h0.1l12.6-23.4
			c0.2-0.3,0.7-0.5,0.9-0.5h0.9c0.4,0,0.9,0.4,1,0.9l6.1,36.5c0.1,0.7-0.4,1.2-1,1.2h-6.4c-0.5,0-1-0.4-1-0.9l-2.4-16.8h-0.1
			l-9.1,17.6c-0.2,0.3-0.7,0.6-0.9,0.6h-1c-0.3,0-0.8-0.3-0.9-0.6l-9.2-17.6H825l-2.4,16.8c-0.1,0.4-0.5,0.9-1,0.9h-6.4
			c-0.7,0-1.1-0.5-1-1.2L820.3,118.8z"/>
		<path fill="#8D9498" d="M862,145.9v-4.9c0-0.6,0.4-1,1-1h12.4c0.6,0,1,0.4,1,1v4.9c0,0.5-0.4,1-1,1h-12.4
			C862.5,146.8,862,146.4,862,145.9z"/>
		<path fill="#8D9498" d="M-79.3,194.8c0.1-0.5,0.5-0.9,1-0.9h0.9c0.3,0,0.8,0.2,0.9,0.5l12.6,23.4h0.1l12.6-23.4
			c0.2-0.3,0.7-0.5,0.9-0.5h0.9c0.4,0,0.9,0.4,1,0.9l6.1,36.5c0.1,0.7-0.4,1.2-1,1.2h-6.4c-0.5,0-1-0.4-1-0.9l-2.4-16.8h-0.1
			l-9.1,17.6c-0.2,0.3-0.7,0.6-0.9,0.6h-1c-0.3,0-0.8-0.3-0.9-0.6l-9.2-17.6h-0.1l-2.4,16.8c-0.1,0.4-0.5,0.9-1,0.9h-6.4
			c-0.7,0-1.1-0.5-1-1.2L-79.3,194.8z"/>
		<path fill="#8D9498" d="M-36.4,195.5c0-0.5,0.4-1,1-1h22.5c0.6,0,1,0.5,1,1v5.9c0,0.5-0.4,1-1,1h-15v6.7h12.4c0.5,0,1,0.5,1,1v5.9
			c0,0.6-0.5,1-1,1h-12.4v7.3h15c0.6,0,1,0.5,1,1v5.9c0,0.5-0.4,1-1,1h-22.5c-0.6,0-1-0.5-1-1V195.5z"/>
		<path fill="#8D9498" d="M-5,195.5c0-0.5,0.4-1,1-1h16.2c6.5,0,11.8,5.3,11.8,11.7c0,5-3.3,9-8,10.9l7.4,13.8
			c0.4,0.7,0,1.6-0.9,1.6h-7.2c-0.4,0-0.8-0.3-0.9-0.5l-7.2-14.4H3.5v13.8c0,0.5-0.5,1-1,1H-4c-0.6,0-1-0.5-1-1V195.5z M11.5,210.7
			c2.2,0,4.1-2.1,4.1-4.3s-1.9-4.1-4.1-4.1h-8v8.5H11.5z"/>
		<path fill="#8D9498" d="M47,193.9c5.4,0,9.4,1.7,13.1,5c0.5,0.4,0.5,1.1,0.1,1.5l-4.2,4.4c-0.4,0.4-1,0.4-1.4,0
			c-2-1.8-4.7-2.8-7.3-2.8c-6.1,0-10.6,5.1-10.6,11.2c0,6,4.6,11,10.7,11c2.6,0,5.3-0.9,7.3-2.6c0.4-0.3,1.1-0.3,1.4,0.1l4.2,4.5
			c0.4,0.4,0.3,1.1-0.1,1.5c-3.7,3.6-8.4,5.3-13.2,5.3c-10.9,0-19.6-8.6-19.6-19.5C27.4,202.6,36.1,193.9,47,193.9z"/>
		<path fill="#8D9498" d="M65.5,195.5c0-0.5,0.4-1,1-1H89c0.6,0,1,0.5,1,1v5.9c0,0.5-0.4,1-1,1H74v6.7h12.4c0.5,0,1,0.5,1,1v5.9
			c0,0.6-0.5,1-1,1H74v7.3h15c0.6,0,1,0.5,1,1v5.9c0,0.5-0.4,1-1,1H66.5c-0.6,0-1-0.5-1-1V195.5z"/>
		<path fill="#8D9498" d="M140.4,231l17-36.5c0.2-0.3,0.5-0.6,0.9-0.6h0.5c0.4,0,0.8,0.3,0.9,0.6l17,36.5c0.3,0.7-0.1,1.4-0.9,1.4
			h-6c-1,0-1.4-0.3-1.9-1.4l-2-4.3h-14.8l-2,4.3c-0.3,0.7-0.9,1.3-2,1.3h-6C140.5,232.4,140.1,231.7,140.4,231z M162.7,219.4l-4.1-9
			h-0.1l-4.1,9H162.7z"/>
		<path fill="#8D9498" d="M180.4,194.9c0-0.5,0.5-1,1-1h1.4l21.7,20.8h0.1v-19.3c0-0.5,0.4-1,1-1h6.5c0.5,0,1,0.5,1,1V232
			c0,0.5-0.5,1-1,1h-0.9c-0.2,0-0.6-0.2-0.7-0.3L189,211.1H189v20.2c0,0.5-0.4,1-1,1h-6.5c-0.5,0-1-0.5-1-1L180.4,194.9z"/>
		<path fill="#8D9498" d="M216.8,231l17-36.5c0.2-0.3,0.5-0.6,0.9-0.6h0.5c0.4,0,0.8,0.3,0.9,0.6l17,36.5c0.3,0.7-0.1,1.4-0.9,1.4
			h-6c-1,0-1.4-0.3-1.9-1.4l-2-4.3h-14.8l-2,4.3c-0.3,0.7-0.9,1.3-2,1.3h-6C216.9,232.4,216.5,231.7,216.8,231z M239.1,219.4l-4.1-9
			h-0.1l-4.1,9H239.1z"/>
		<path fill="#8D9498" d="M256.9,195.5c0-0.5,0.4-1,1-1h6.5c0.5,0,1,0.5,1,1v29h12.9c0.6,0,1,0.5,1,1v5.9c0,0.5-0.4,1-1,1h-20.4
			c-0.6,0-1-0.5-1-1V195.5z"/>
		<path fill="#8D9498" d="M286.7,214.1l-12-18.1c-0.4-0.7,0-1.6,0.9-1.6h7.1c0.4,0,0.7,0.3,0.9,0.5L291,206l7.5-11.1
			c0.2-0.2,0.4-0.5,0.9-0.5h7.1c0.9,0,1.3,0.9,0.9,1.6l-12.2,18.1v17.3c0,0.5-0.5,1-1,1h-6.5c-0.6,0-1-0.5-1-1V214.1z"/>
		<path fill="#8D9498" d="M318,202.4h-7.8c-0.6,0-1-0.5-1-1v-5.9c0-0.5,0.4-1,1-1h24.1c0.6,0,1,0.5,1,1v5.9c0,0.5-0.4,1-1,1h-7.8v29
			c0,0.5-0.5,1-1,1H319c-0.5,0-1-0.5-1-1V202.4z"/>
		<path fill="#8D9498" d="M339.4,195.5c0-0.5,0.5-1,1-1h6.5c0.5,0,1,0.5,1,1v35.9c0,0.5-0.5,1-1,1h-6.5c-0.5,0-1-0.5-1-1V195.5z"/>
		<path fill="#8D9498" d="M373.3,193.9c5.4,0,9.4,1.7,13.1,5c0.5,0.4,0.5,1.1,0.1,1.5l-4.2,4.4c-0.4,0.4-1,0.4-1.4,0
			c-2-1.8-4.7-2.8-7.3-2.8c-6.1,0-10.6,5.1-10.6,11.2c0,6,4.6,11,10.7,11c2.6,0,5.3-0.9,7.3-2.6c0.4-0.3,1.1-0.3,1.4,0.1l4.2,4.5
			c0.4,0.4,0.3,1.1-0.1,1.5c-3.7,3.6-8.4,5.3-13.2,5.3c-10.9,0-19.6-8.6-19.6-19.5C353.7,202.6,362.4,193.9,373.3,193.9z"/>
		<path fill="#8D9498" d="M390.4,227.3l2.6-4.5c0.4-0.7,1.5-0.6,1.8-0.3c0.2,0.1,4.1,3,7.7,3c2.2,0,3.7-1.4,3.7-3.3
			c0-2.3-1.9-4-5.6-5.5c-4.7-1.8-10.5-5.5-10.5-12c0-5.4,4.2-10.8,12.5-10.8c5.6,0,10,2.9,11.6,4.1c0.7,0.4,0.5,1.4,0.3,1.7
			l-2.8,4.2c-0.4,0.6-1.4,1.1-1.8,0.7c-0.5-0.3-4.5-3.3-7.8-3.3c-2,0-3.4,1.3-3.4,2.8c0,2,1.6,3.5,5.9,5.3c4.2,1.7,11,5,11,12.4
			c0,5.6-4.8,11.2-12.8,11.2c-7.1,0-11-2.9-12.2-4.2C390.1,228.2,389.9,228,390.4,227.3z"/>
		<path fill="#8D9498" d="M462,194.8c0.1-0.5,0.5-0.9,1-0.9h0.9c0.3,0,0.8,0.2,0.9,0.5l12.6,23.4h0.1l12.6-23.4
			c0.2-0.3,0.7-0.5,0.9-0.5h0.9c0.4,0,0.9,0.4,1,0.9l6.1,36.5c0.1,0.7-0.4,1.2-1,1.2h-6.4c-0.5,0-1-0.4-1-0.9l-2.4-16.8h-0.1
			l-9.1,17.6c-0.2,0.3-0.7,0.6-0.9,0.6h-1c-0.3,0-0.8-0.3-0.9-0.6l-9.2-17.6h-0.1l-2.4,16.8c-0.1,0.4-0.5,0.9-1,0.9h-6.4
			c-0.7,0-1.1-0.5-1-1.2L462,194.8z"/>
		<path fill="#8D9498" d="M501.6,231l17-36.5c0.2-0.3,0.5-0.6,0.9-0.6h0.5c0.4,0,0.8,0.3,0.9,0.6l17,36.5c0.3,0.7-0.1,1.4-0.9,1.4
			h-6c-1,0-1.4-0.3-1.9-1.4l-2-4.3h-14.8l-2,4.3c-0.3,0.7-0.9,1.3-2,1.3h-6C501.7,232.4,501.3,231.7,501.6,231z M523.9,219.4l-4.1-9
			h-0.1l-4.1,9H523.9z"/>
		<path fill="#8D9498" d="M541.7,195.5c0-0.5,0.4-1,1-1h16.2c6.5,0,11.8,5.3,11.8,11.7c0,5-3.3,9-8,10.9l7.4,13.8
			c0.4,0.7,0,1.6-0.9,1.6H562c-0.4,0-0.8-0.3-0.9-0.5l-7.2-14.4h-3.7v13.8c0,0.5-0.5,1-1,1h-6.5c-0.6,0-1-0.5-1-1V195.5z
			 M558.2,210.7c2.2,0,4.1-2.1,4.1-4.3s-1.9-4.1-4.1-4.1h-8v8.5H558.2z"/>
		<path fill="#8D9498" d="M577.1,195.7c0-0.7,0.5-1.3,1.3-1.3h6.4c0.7,0,1.3,0.6,1.3,1.3V210l12-15c0.2-0.3,0.7-0.5,1-0.5h6.8
			c1,0,1.6,1.2,1,2l-12.7,15.9l13.8,18c0.6,0.8,0,2-1,2h-7.5c-0.4,0-0.9-0.2-1-0.4l-12.5-17v16.2c0,0.7-0.6,1.3-1.3,1.3h-6.4
			c-0.8,0-1.3-0.6-1.3-1.3V195.7z"/>
		<path fill="#8D9498" d="M612.4,195.5c0-0.5,0.4-1,1-1h22.5c0.6,0,1,0.5,1,1v5.9c0,0.5-0.4,1-1,1h-15v6.7h12.4c0.5,0,1,0.5,1,1v5.9
			c0,0.6-0.5,1-1,1h-12.4v7.3h15c0.6,0,1,0.5,1,1v5.9c0,0.5-0.4,1-1,1h-22.5c-0.6,0-1-0.5-1-1V195.5z"/>
		<path fill="#8D9498" d="M648.8,202.4H641c-0.6,0-1-0.5-1-1v-5.9c0-0.5,0.4-1,1-1h24.1c0.6,0,1,0.5,1,1v5.9c0,0.5-0.4,1-1,1h-7.8
			v29c0,0.5-0.5,1-1,1h-6.5c-0.5,0-1-0.5-1-1V202.4z"/>
		<path fill="#8D9498" d="M670.2,195.5c0-0.5,0.5-1,1-1h6.5c0.5,0,1,0.5,1,1v35.9c0,0.5-0.5,1-1,1h-6.5c-0.5,0-1-0.5-1-1V195.5z"/>
		<path fill="#8D9498" d="M687.1,194.9c0-0.5,0.5-1,1-1h1.4l21.7,20.8h0.1v-19.3c0-0.5,0.4-1,1-1h6.5c0.5,0,1,0.5,1,1V232
			c0,0.5-0.5,1-1,1h-0.9c-0.2,0-0.6-0.2-0.7-0.3l-21.4-21.5h-0.1v20.2c0,0.5-0.4,1-1,1h-6.5c-0.5,0-1-0.5-1-1L687.1,194.9z"/>
		<path fill="#8D9498" d="M745,193.9c4.6,0,9.6,1.9,13.2,5.1c0.5,0.4,0.5,1,0.1,1.5l-4.3,4.6c-0.4,0.4-1,0.4-1.5,0.1
			c-2.1-1.9-4.5-2.6-7.1-2.6c-5.9,0-10.7,5-10.7,11c0,5.9,4.8,10.8,10.7,10.8c1.6,0,3.2-0.2,4.8-0.9v-3.1H747c-0.6,0-1-0.4-1-1v-5.4
			c0-0.6,0.4-1,1-1h10.9c0.5,0,1,0.5,1,1l0.1,14.6c0,0.3-0.2,0.7-0.4,0.9c0,0-5.6,3.5-13.5,3.5c-10.8,0-19.5-8.6-19.5-19.4
			C725.5,202.6,734.2,193.9,745,193.9z"/>
		<path fill="#8D9498" d="M797.4,231l17-36.5c0.2-0.3,0.5-0.6,0.9-0.6h0.5c0.4,0,0.8,0.3,0.9,0.6l17,36.5c0.3,0.7-0.1,1.4-0.9,1.4
			h-6c-1,0-1.4-0.3-1.9-1.4l-2-4.3h-14.8l-2,4.3c-0.3,0.7-0.9,1.3-2,1.3h-6C797.6,232.4,797.1,231.7,797.4,231z M819.8,219.4l-4.1-9
			h-0.1l-4.1,9H819.8z"/>
		<path fill="#8D9498" d="M835.2,195.5c0-0.5,0.5-1,1-1h6.7c0.6,0,1,0.5,1,1v22c0,3.8,2.8,6.8,6.7,6.8c3.9,0,6.8-3,6.8-6.8v-22
			c0-0.5,0.4-1,1-1h6.7c0.5,0,1,0.5,1,1v22.4c0,8.3-6.9,15.1-15.5,15.1c-8.5,0-15.4-6.8-15.4-15.1V195.5z"/>
		<path fill="#8D9498" d="M878.8,202.4H871c-0.6,0-1-0.5-1-1v-5.9c0-0.5,0.4-1,1-1h24.1c0.6,0,1,0.5,1,1v5.9c0,0.5-0.4,1-1,1h-7.8
			v29c0,0.5-0.5,1-1,1h-6.5c-0.5,0-1-0.5-1-1V202.4z"/>
		<path fill="#8D9498" d="M916.7,193.9c10.9,0,19.5,8.7,19.5,19.6c0,10.9-8.7,19.5-19.5,19.5c-10.9,0-19.5-8.6-19.5-19.5
			C897.2,202.6,905.8,193.9,916.7,193.9z M916.7,224.3c6,0,10.9-4.9,10.9-10.8c0-6-4.9-10.9-10.9-10.9c-5.9,0-10.8,4.9-10.8,10.9
			C905.9,219.4,910.8,224.3,916.7,224.3z"/>
		<path fill="#8D9498" d="M941.2,221.8v-4.9c0-0.6,0.4-1,1-1h12.4c0.6,0,1,0.4,1,1v4.9c0,0.5-0.4,1-1,1h-12.4
			C941.7,222.8,941.2,222.3,941.2,221.8z"/>
		<path fill="#8D9498" d="M-79.3,270.7c0.1-0.5,0.5-0.9,1-0.9h0.9c0.3,0,0.8,0.2,0.9,0.5l12.6,23.4h0.1l12.6-23.4
			c0.2-0.3,0.7-0.5,0.9-0.5h0.9c0.4,0,0.9,0.4,1,0.9l6.1,36.5c0.1,0.7-0.4,1.2-1,1.2h-6.4c-0.5,0-1-0.4-1-0.9l-2.4-16.8h-0.1
			l-9.1,17.6c-0.2,0.3-0.7,0.6-0.9,0.6h-1c-0.3,0-0.8-0.3-0.9-0.6l-9.2-17.6h-0.1l-2.4,16.8c-0.1,0.4-0.5,0.9-1,0.9h-6.4
			c-0.7,0-1.1-0.5-1-1.2L-79.3,270.7z"/>
		<path fill="#8D9498" d="M-39.7,306.9l17-36.5c0.2-0.3,0.5-0.6,0.9-0.6h0.5c0.4,0,0.8,0.3,0.9,0.6l17,36.5c0.3,0.7-0.1,1.4-0.9,1.4
			h-6c-1,0-1.4-0.3-1.9-1.4l-2-4.3h-14.8l-2,4.3c-0.3,0.7-0.9,1.3-2,1.3h-6C-39.6,308.3-40,307.6-39.7,306.9z M-17.4,295.3l-4.1-9
			h-0.1l-4.1,9H-17.4z"/>
		<path fill="#8D9498" d="M2.7,278.3h-7.8c-0.6,0-1-0.5-1-1v-5.9c0-0.5,0.4-1,1-1H19c0.6,0,1,0.5,1,1v5.9c0,0.5-0.4,1-1,1h-7.8v29
			c0,0.5-0.5,1-1,1H3.7c-0.5,0-1-0.5-1-1V278.3z"/>
		<path fill="#8D9498" d="M24.1,271.4c0-0.5,0.5-1,1-1h6.5c0.5,0,1,0.5,1,1v35.9c0,0.5-0.5,1-1,1h-6.5c-0.5,0-1-0.5-1-1V271.4z"/>
		<path fill="#8D9498" d="M57.9,269.8c10.9,0,19.5,8.7,19.5,19.6s-8.7,19.5-19.5,19.5c-10.9,0-19.5-8.6-19.5-19.5
			S47,269.8,57.9,269.8z M57.9,300.2c6,0,10.9-4.9,10.9-10.8c0-6-4.9-10.9-10.9-10.9c-5.9,0-10.8,4.9-10.8,10.9
			C47.1,295.3,51.9,300.2,57.9,300.2z"/>
		<path fill="#8D9498" d="M83.2,270.8c0-0.5,0.5-1,1-1h1.4l21.7,20.8h0.1v-19.3c0-0.5,0.4-1,1-1h6.5c0.5,0,1,0.5,1,1v36.5
			c0,0.5-0.5,1-1,1H114c-0.2,0-0.6-0.2-0.7-0.3l-21.4-21.5h-0.1v20.2c0,0.5-0.4,1-1,1h-6.5c-0.5,0-1-0.5-1-1L83.2,270.8z"/>
		<path fill="#8D9498" d="M166,269.8c5.4,0,9.4,1.7,13.1,5c0.5,0.4,0.5,1.1,0.1,1.5l-4.2,4.4c-0.4,0.4-1,0.4-1.4,0
			c-2-1.8-4.7-2.8-7.3-2.8c-6.1,0-10.6,5.1-10.6,11.2c0,6,4.6,11,10.7,11c2.6,0,5.3-0.9,7.3-2.6c0.4-0.3,1.1-0.3,1.4,0.1l4.2,4.5
			c0.4,0.4,0.3,1.1-0.1,1.5c-3.7,3.6-8.4,5.3-13.2,5.3c-10.9,0-19.6-8.6-19.6-19.5S155.2,269.8,166,269.8z"/>
		<path fill="#8D9498" d="M184.5,271.4c0-0.5,0.4-1,1-1h16.2c6.5,0,11.8,5.3,11.8,11.7c0,5-3.3,9-8,10.9l7.4,13.8
			c0.4,0.7,0,1.6-0.9,1.6h-7.2c-0.4,0-0.8-0.3-0.9-0.5l-7.2-14.4H193v13.8c0,0.5-0.5,1-1,1h-6.5c-0.6,0-1-0.5-1-1V271.4z
			 M201.1,286.6c2.2,0,4.1-2.1,4.1-4.3s-1.9-4.1-4.1-4.1h-8v8.5H201.1z"/>
		<path fill="#8D9498" d="M223.4,270.7c0.1-0.5,0.5-0.9,1-0.9h0.9c0.3,0,0.8,0.2,0.9,0.5l12.6,23.4h0.1l12.6-23.4
			c0.2-0.3,0.7-0.5,0.9-0.5h0.9c0.4,0,0.9,0.4,1,0.9l6.1,36.5c0.1,0.7-0.4,1.2-1,1.2h-6.4c-0.5,0-1-0.4-1-0.9l-2.4-16.8h-0.1
			l-9.1,17.6c-0.2,0.3-0.7,0.6-0.9,0.6h-1c-0.3,0-0.8-0.3-0.9-0.6l-9.2-17.6h-0.1l-2.4,16.8c-0.1,0.4-0.5,0.9-1,0.9h-6.4
			c-0.7,0-1.1-0.5-1-1.2L223.4,270.7z"/>
		<path fill="#8D9498" d="M313.1,303.2l2.6-4.5c0.4-0.7,1.5-0.6,1.8-0.3c0.2,0.1,4.1,3,7.7,3c2.2,0,3.7-1.4,3.7-3.3
			c0-2.3-1.9-4-5.6-5.5c-4.7-1.8-10.5-5.5-10.5-12c0-5.4,4.2-10.8,12.5-10.8c5.6,0,10,2.9,11.6,4.1c0.7,0.4,0.5,1.4,0.3,1.7
			l-2.8,4.2c-0.4,0.6-1.4,1.1-1.8,0.7c-0.5-0.3-4.4-3.3-7.8-3.3c-2,0-3.4,1.3-3.4,2.8c0,2,1.6,3.5,5.9,5.3c4.2,1.7,11,5,11,12.4
			c0,5.6-4.8,11.2-12.8,11.2c-7.1,0-11-2.9-12.2-4.2C312.8,304.2,312.6,303.9,313.1,303.2z"/>
		<path fill="#8D9498" d="M360.8,269.8c10.9,0,19.5,8.7,19.5,19.6s-8.7,19.5-19.5,19.5c-10.9,0-19.5-8.6-19.5-19.5
			S350,269.8,360.8,269.8z M360.8,300.2c6,0,10.9-4.9,10.9-10.8c0-6-4.9-10.9-10.9-10.9c-5.9,0-10.8,4.9-10.8,10.9
			C350,295.3,354.9,300.2,360.8,300.2z"/>
		<path fill="#8D9498" d="M403.3,269.8c5.4,0,9.4,1.7,13.1,5c0.5,0.4,0.5,1.1,0.1,1.5l-4.2,4.4c-0.4,0.4-1,0.4-1.4,0
			c-2-1.8-4.7-2.8-7.3-2.8c-6.1,0-10.6,5.1-10.6,11.2c0,6,4.6,11,10.7,11c2.6,0,5.3-0.9,7.3-2.6c0.4-0.3,1.1-0.3,1.4,0.1l4.2,4.5
			c0.4,0.4,0.3,1.1-0.1,1.5c-3.7,3.6-8.4,5.3-13.2,5.3c-10.9,0-19.6-8.6-19.6-19.5S392.5,269.8,403.3,269.8z"/>
		<path fill="#8D9498" d="M421.8,271.4c0-0.5,0.5-1,1-1h6.5c0.5,0,1,0.5,1,1v35.9c0,0.5-0.5,1-1,1h-6.5c-0.5,0-1-0.5-1-1V271.4z"/>
		<path fill="#8D9498" d="M434,306.9l17-36.5c0.2-0.3,0.5-0.6,0.9-0.6h0.5c0.4,0,0.8,0.3,0.9,0.6l17,36.5c0.3,0.7-0.1,1.4-0.9,1.4
			h-6c-1,0-1.4-0.3-1.9-1.4l-2-4.3h-14.8l-2,4.3c-0.3,0.7-0.9,1.3-2,1.3h-6C434.2,308.3,433.7,307.6,434,306.9z M456.4,295.3l-4.1-9
			h-0.1l-4.1,9H456.4z"/>
		<path fill="#8D9498" d="M474.1,271.4c0-0.5,0.4-1,1-1h6.5c0.5,0,1,0.5,1,1v29h12.9c0.6,0,1,0.5,1,1v5.9c0,0.5-0.4,1-1,1h-20.4
			c-0.6,0-1-0.5-1-1V271.4z"/>
		<path fill="#8D9498" d="M537.8,271.4c0-0.5,0.4-1,1-1h22.5c0.6,0,1,0.5,1,1v5.9c0,0.5-0.4,1-1,1h-15v6.7h12.4c0.5,0,1,0.5,1,1v5.9
			c0,0.6-0.5,1-1,1h-12.4v7.3h15c0.6,0,1,0.5,1,1v5.9c0,0.5-0.4,1-1,1h-22.5c-0.6,0-1-0.5-1-1V271.4z"/>
		<path fill="#8D9498" d="M566.9,297.7v-4.9c0-0.6,0.4-1,1-1h12.4c0.6,0,1,0.4,1,1v4.9c0,0.5-0.4,1-1,1h-12.4
			C567.3,298.7,566.9,298.2,566.9,297.7z"/>
		<path fill="#8D9498" d="M605.9,269.8c5.4,0,9.4,1.7,13.1,5c0.5,0.4,0.5,1.1,0.1,1.5l-4.2,4.4c-0.4,0.4-1,0.4-1.4,0
			c-2-1.8-4.7-2.8-7.3-2.8c-6.1,0-10.6,5.1-10.6,11.2c0,6,4.6,11,10.7,11c2.6,0,5.3-0.9,7.3-2.6c0.4-0.3,1.1-0.3,1.4,0.1l4.2,4.5
			c0.4,0.4,0.3,1.1-0.1,1.5c-3.7,3.6-8.4,5.3-13.2,5.3c-10.9,0-19.6-8.6-19.6-19.5S595,269.8,605.9,269.8z"/>
		<path fill="#8D9498" d="M640.6,269.8c10.9,0,19.5,8.7,19.5,19.6s-8.7,19.5-19.5,19.5c-10.9,0-19.5-8.6-19.5-19.5
			S629.7,269.8,640.6,269.8z M640.6,300.2c6,0,10.9-4.9,10.9-10.8c0-6-4.9-10.9-10.9-10.9c-5.9,0-10.8,4.9-10.8,10.9
			C629.8,295.3,634.7,300.2,640.6,300.2z"/>
		<path fill="#8D9498" d="M669.2,270.7c0.1-0.5,0.5-0.9,1-0.9h0.9c0.3,0,0.8,0.2,0.9,0.5l12.6,23.4h0.1l12.6-23.4
			c0.2-0.3,0.7-0.5,0.9-0.5h0.9c0.4,0,0.9,0.4,1,0.9l6.1,36.5c0.1,0.7-0.4,1.2-1,1.2h-6.4c-0.5,0-1-0.4-1-0.9l-2.4-16.8h-0.1
			l-9.1,17.6c-0.2,0.3-0.7,0.6-0.9,0.6h-1c-0.3,0-0.8-0.3-0.9-0.6l-9.2-17.6h-0.1l-2.4,16.8c-0.1,0.4-0.5,0.9-1,0.9h-6.4
			c-0.7,0-1.1-0.5-1-1.2L669.2,270.7z"/>
		<path fill="#8D9498" d="M716,270.7c0.1-0.5,0.5-0.9,1-0.9h0.9c0.3,0,0.8,0.2,0.9,0.5l12.6,23.4h0.1l12.6-23.4
			c0.2-0.3,0.7-0.5,0.9-0.5h0.9c0.4,0,0.9,0.4,1,0.9l6.1,36.5c0.1,0.7-0.4,1.2-1,1.2h-6.4c-0.5,0-1-0.4-1-0.9l-2.4-16.8h-0.1
			l-9.1,17.6c-0.2,0.3-0.7,0.6-0.9,0.6h-1c-0.3,0-0.8-0.3-0.9-0.6l-9.2-17.6h-0.1l-2.4,16.8c-0.1,0.4-0.5,0.9-1,0.9h-6.4
			c-0.7,0-1.1-0.5-1-1.2L716,270.7z"/>
		<path fill="#8D9498" d="M758.9,271.4c0-0.5,0.4-1,1-1h22.5c0.6,0,1,0.5,1,1v5.9c0,0.5-0.4,1-1,1h-15v6.7h12.4c0.5,0,1,0.5,1,1v5.9
			c0,0.6-0.5,1-1,1h-12.4v7.3h15c0.6,0,1,0.5,1,1v5.9c0,0.5-0.4,1-1,1h-22.5c-0.6,0-1-0.5-1-1V271.4z"/>
		<path fill="#8D9498" d="M790.3,271.4c0-0.5,0.4-1,1-1h16.2c6.5,0,11.8,5.3,11.8,11.7c0,5-3.3,9-8,10.9l7.4,13.8
			c0.4,0.7,0,1.6-0.9,1.6h-7.2c-0.4,0-0.8-0.3-0.9-0.5l-7.2-14.4h-3.7v13.8c0,0.5-0.5,1-1,1h-6.5c-0.6,0-1-0.5-1-1V271.4z
			 M806.8,286.6c2.2,0,4.1-2.1,4.1-4.3s-1.9-4.1-4.1-4.1h-8v8.5H806.8z"/>
		<path fill="#8D9498" d="M842.3,269.8c5.4,0,9.4,1.7,13.1,5c0.5,0.4,0.5,1.1,0.1,1.5l-4.2,4.4c-0.4,0.4-1,0.4-1.4,0
			c-2-1.8-4.7-2.8-7.3-2.8c-6.1,0-10.6,5.1-10.6,11.2c0,6,4.6,11,10.7,11c2.6,0,5.3-0.9,7.3-2.6c0.4-0.3,1.1-0.3,1.4,0.1l4.2,4.5
			c0.4,0.4,0.3,1.1-0.1,1.5c-3.7,3.6-8.4,5.3-13.2,5.3c-10.9,0-19.6-8.6-19.6-19.5S831.4,269.8,842.3,269.8z"/>
		<path fill="#8D9498" d="M860.8,271.4c0-0.5,0.4-1,1-1h22.5c0.6,0,1,0.5,1,1v5.9c0,0.5-0.4,1-1,1h-15v6.7h12.4c0.5,0,1,0.5,1,1v5.9
			c0,0.6-0.5,1-1,1h-12.4v7.3h15c0.6,0,1,0.5,1,1v5.9c0,0.5-0.4,1-1,1h-22.5c-0.6,0-1-0.5-1-1V271.4z"/>
		<path fill="#8D9498" d="M-87.9,382.9l17-36.5c0.2-0.3,0.5-0.6,0.9-0.6h0.5c0.4,0,0.8,0.3,0.9,0.6l17,36.5c0.3,0.7-0.1,1.4-0.9,1.4
			h-6c-1,0-1.4-0.3-1.9-1.4l-2-4.3h-14.8l-2,4.3c-0.3,0.7-0.9,1.3-2,1.3h-6C-87.8,384.3-88.3,383.6-87.9,382.9z M-65.6,371.2l-4.1-9
			h-0.1l-4.1,9H-65.6z"/>
		<path fill="#8D9498" d="M-47.9,346.7c0-0.5,0.5-1,1-1h1.4l21.7,20.8h0.1v-19.3c0-0.5,0.4-1,1-1h6.5c0.5,0,1,0.5,1,1v36.5
			c0,0.5-0.5,1-1,1h-0.9c-0.2,0-0.6-0.2-0.7-0.3L-39.3,363h-0.1v20.2c0,0.5-0.4,1-1,1h-6.5c-0.5,0-1-0.5-1-1L-47.9,346.7z"/>
		<path fill="#8D9498" d="M-11.5,382.9l17-36.5c0.2-0.3,0.5-0.6,0.9-0.6h0.5c0.4,0,0.8,0.3,0.9,0.6l17,36.5c0.3,0.7-0.1,1.4-0.9,1.4
			h-6c-1,0-1.4-0.3-1.9-1.4l-2-4.3H-0.7l-2,4.3c-0.3,0.7-0.9,1.3-2,1.3h-6C-11.4,384.3-11.9,383.6-11.5,382.9z M10.8,371.2l-4.1-9
			H6.6l-4.1,9H10.8z"/>
		<path fill="#8D9498" d="M28.5,347.3c0-0.5,0.4-1,1-1H36c0.5,0,1,0.5,1,1v29H50c0.6,0,1,0.5,1,1v5.9c0,0.5-0.4,1-1,1H29.6
			c-0.6,0-1-0.5-1-1V347.3z"/>
		<path fill="#8D9498" d="M58.3,366l-12-18.1c-0.4-0.7,0-1.6,0.9-1.6h7.1c0.4,0,0.7,0.3,0.9,0.5l7.5,11.1l7.5-11.1
			c0.2-0.2,0.4-0.5,0.9-0.5h7.1c0.9,0,1.3,0.9,0.9,1.6l-12.2,18.1v17.3c0,0.5-0.5,1-1,1h-6.5c-0.6,0-1-0.5-1-1V366z"/>
		<path fill="#8D9498" d="M89.6,354.2h-7.8c-0.6,0-1-0.5-1-1v-5.9c0-0.5,0.4-1,1-1H106c0.6,0,1,0.5,1,1v5.9c0,0.5-0.4,1-1,1h-7.8v29
			c0,0.5-0.5,1-1,1h-6.5c-0.5,0-1-0.5-1-1V354.2z"/>
		<path fill="#8D9498" d="M111.1,347.3c0-0.5,0.5-1,1-1h6.5c0.5,0,1,0.5,1,1v35.9c0,0.5-0.5,1-1,1h-6.5c-0.5,0-1-0.5-1-1V347.3z"/>
		<path fill="#8D9498" d="M144.9,345.7c5.4,0,9.4,1.7,13.1,5c0.5,0.4,0.5,1.1,0.1,1.5l-4.2,4.4c-0.4,0.4-1,0.4-1.4,0
			c-2-1.8-4.7-2.8-7.3-2.8c-6.1,0-10.6,5.1-10.6,11.2c0,6,4.6,11,10.7,11c2.6,0,5.3-0.9,7.3-2.6c0.4-0.3,1.1-0.3,1.4,0.1l4.2,4.5
			c0.4,0.4,0.3,1.1-0.1,1.5c-3.7,3.6-8.4,5.3-13.2,5.3c-10.9,0-19.6-8.6-19.6-19.5S134.1,345.7,144.9,345.7z"/>
		<path fill="#8D9498" d="M162,379.1l2.6-4.5c0.4-0.7,1.5-0.6,1.8-0.3c0.2,0.1,4.1,3,7.7,3c2.2,0,3.7-1.4,3.7-3.3
			c0-2.3-1.9-4-5.6-5.5c-4.7-1.8-10.5-5.5-10.5-12c0-5.4,4.2-10.8,12.5-10.8c5.6,0,10,2.9,11.6,4.1c0.7,0.4,0.5,1.4,0.3,1.7
			l-2.8,4.2c-0.4,0.6-1.4,1.1-1.8,0.7c-0.5-0.3-4.5-3.3-7.8-3.3c-2,0-3.4,1.3-3.4,2.8c0,2,1.6,3.5,5.9,5.3c4.2,1.7,11,5,11,12.4
			c0,5.6-4.8,11.2-12.8,11.2c-7.1,0-11-2.9-12.2-4.2C161.8,380.1,161.6,379.9,162,379.1z"/>
		<path fill="#8D9498" d="M233.7,346.6c0.1-0.5,0.5-0.9,1-0.9h0.9c0.3,0,0.8,0.2,0.9,0.5l12.6,23.4h0.1l12.6-23.4
			c0.2-0.3,0.7-0.5,0.9-0.5h0.9c0.4,0,0.9,0.4,1,0.9l6.1,36.5c0.1,0.7-0.4,1.2-1,1.2h-6.4c-0.5,0-1-0.4-1-0.9l-2.4-16.8h-0.1
			l-9.1,17.6c-0.2,0.3-0.7,0.6-0.9,0.6h-1c-0.3,0-0.8-0.3-0.9-0.6l-9.2-17.6h-0.1l-2.4,16.8c-0.1,0.4-0.5,0.9-1,0.9h-6.4
			c-0.7,0-1.1-0.5-1-1.2L233.7,346.6z"/>
		<path fill="#8D9498" d="M273.3,382.9l17-36.5c0.2-0.3,0.5-0.6,0.9-0.6h0.5c0.4,0,0.8,0.3,0.9,0.6l17,36.5c0.3,0.7-0.1,1.4-0.9,1.4
			h-6c-1,0-1.4-0.3-1.9-1.4l-2-4.3h-14.8l-2,4.3c-0.3,0.7-0.9,1.3-2,1.3h-6C273.4,384.3,272.9,383.6,273.3,382.9z M295.6,371.2
			l-4.1-9h-0.1l-4.1,9H295.6z"/>
		<path fill="#8D9498" d="M313.3,347.3c0-0.5,0.4-1,1-1h16.2c6.5,0,11.8,5.3,11.8,11.7c0,5-3.3,9-8,10.9l7.4,13.8
			c0.4,0.7,0,1.6-0.9,1.6h-7.2c-0.4,0-0.8-0.3-0.9-0.5l-7.2-14.4h-3.7v13.8c0,0.5-0.5,1-1,1h-6.5c-0.6,0-1-0.5-1-1V347.3z
			 M329.9,362.5c2.2,0,4.1-2.1,4.1-4.3c0-2.3-1.9-4.1-4.1-4.1h-8v8.5H329.9z"/>
		<path fill="#8D9498" d="M348.8,347.6c0-0.7,0.5-1.3,1.3-1.3h6.4c0.7,0,1.3,0.6,1.3,1.3v14.3l12-15c0.2-0.3,0.7-0.5,1-0.5h6.8
			c1,0,1.6,1.2,1,2l-12.7,15.9l13.8,18c0.6,0.8,0,2-1,2h-7.5c-0.4,0-0.9-0.2-1-0.4l-12.5-17V383c0,0.7-0.6,1.3-1.3,1.3h-6.4
			c-0.8,0-1.3-0.6-1.3-1.3V347.6z"/>
		<path fill="#8D9498" d="M384.1,347.3c0-0.5,0.4-1,1-1h22.5c0.6,0,1,0.5,1,1v5.9c0,0.5-0.4,1-1,1h-15v6.7h12.4c0.5,0,1,0.5,1,1v5.9
			c0,0.6-0.5,1-1,1h-12.4v7.3h15c0.6,0,1,0.5,1,1v5.9c0,0.5-0.4,1-1,1h-22.5c-0.6,0-1-0.5-1-1V347.3z"/>
		<path fill="#8D9498" d="M420.5,354.2h-7.8c-0.6,0-1-0.5-1-1v-5.9c0-0.5,0.4-1,1-1h24.1c0.6,0,1,0.5,1,1v5.9c0,0.5-0.4,1-1,1h-7.8
			v29c0,0.5-0.5,1-1,1h-6.5c-0.5,0-1-0.5-1-1V354.2z"/>
		<path fill="#8D9498" d="M441.9,347.3c0-0.5,0.5-1,1-1h6.5c0.5,0,1,0.5,1,1v35.9c0,0.5-0.5,1-1,1H443c-0.5,0-1-0.5-1-1V347.3z"/>
		<path fill="#8D9498" d="M458.7,346.7c0-0.5,0.5-1,1-1h1.4l21.7,20.8h0.1v-19.3c0-0.5,0.4-1,1-1h6.5c0.5,0,1,0.5,1,1v36.5
			c0,0.5-0.5,1-1,1h-0.9c-0.2,0-0.6-0.2-0.7-0.3L467.4,363h-0.1v20.2c0,0.5-0.4,1-1,1h-6.5c-0.5,0-1-0.5-1-1L458.7,346.7z"/>
		<path fill="#8D9498" d="M516.7,345.8c4.6,0,9.6,1.9,13.2,5.1c0.5,0.4,0.5,1,0.1,1.5l-4.3,4.6c-0.4,0.4-1,0.4-1.5,0.1
			c-2.1-1.9-4.5-2.6-7.1-2.6c-5.9,0-10.7,5-10.7,11c0,5.9,4.8,10.8,10.7,10.8c1.6,0,3.2-0.2,4.8-0.9v-3.1h-3.4c-0.6,0-1-0.4-1-1
			v-5.4c0-0.6,0.4-1,1-1h10.9c0.5,0,1,0.5,1,1l0.1,14.6c0,0.3-0.2,0.7-0.4,0.9c0,0-5.6,3.5-13.5,3.5c-10.8,0-19.5-8.6-19.5-19.4
			S505.9,345.8,516.7,345.8z"/>
		<path fill="#8D9498" d="M569.1,382.9l17-36.5c0.2-0.3,0.5-0.6,0.9-0.6h0.5c0.4,0,0.8,0.3,0.9,0.6l17,36.5c0.3,0.7-0.1,1.4-0.9,1.4
			h-6c-1,0-1.4-0.3-1.9-1.4l-2-4.3h-14.8l-2,4.3c-0.3,0.7-0.9,1.3-2,1.3h-6C569.2,384.3,568.8,383.6,569.1,382.9z M591.4,371.2
			l-4.1-9h-0.1l-4.1,9H591.4z"/>
		<path fill="#8D9498" d="M606.9,347.3c0-0.5,0.5-1,1-1h6.7c0.6,0,1,0.5,1,1v22c0,3.8,2.8,6.8,6.7,6.8c3.9,0,6.8-3,6.8-6.8v-22
			c0-0.5,0.4-1,1-1h6.7c0.5,0,1,0.5,1,1v22.4c0,8.3-6.9,15.1-15.5,15.1c-8.5,0-15.4-6.8-15.4-15.1V347.3z"/>
		<path fill="#8D9498" d="M650.4,354.2h-7.8c-0.6,0-1-0.5-1-1v-5.9c0-0.5,0.4-1,1-1h24.1c0.6,0,1,0.5,1,1v5.9c0,0.5-0.4,1-1,1H659
			v29c0,0.5-0.5,1-1,1h-6.5c-0.5,0-1-0.5-1-1V354.2z"/>
		<path fill="#8D9498" d="M688.4,345.7c10.9,0,19.5,8.7,19.5,19.6s-8.7,19.5-19.5,19.5c-10.9,0-19.5-8.6-19.5-19.5
			S677.5,345.7,688.4,345.7z M688.4,376.1c6,0,10.9-4.9,10.9-10.8c0-6-4.9-10.9-10.9-10.9c-5.9,0-10.8,4.9-10.8,10.9
			C677.6,371.2,682.4,376.1,688.4,376.1z"/>
		<path fill="#8D9498" d="M716.9,346.6c0.1-0.5,0.5-0.9,1-0.9h0.9c0.3,0,0.8,0.2,0.9,0.5l12.6,23.4h0.1l12.6-23.4
			c0.2-0.3,0.7-0.5,0.9-0.5h0.9c0.4,0,0.9,0.4,1,0.9l6.1,36.5c0.1,0.7-0.4,1.2-1,1.2h-6.4c-0.5,0-1-0.4-1-0.9l-2.4-16.8h-0.1
			l-9.1,17.6c-0.2,0.3-0.7,0.6-0.9,0.6h-1c-0.3,0-0.8-0.3-0.9-0.6l-9.2-17.6h-0.1l-2.4,16.8c-0.1,0.4-0.5,0.9-1,0.9h-6.4
			c-0.7,0-1.1-0.5-1-1.2L716.9,346.6z"/>
		<path fill="#8D9498" d="M756.5,382.9l17-36.5c0.2-0.3,0.5-0.6,0.9-0.6h0.5c0.4,0,0.8,0.3,0.9,0.6l17,36.5c0.3,0.7-0.1,1.4-0.9,1.4
			h-6c-1,0-1.4-0.3-1.9-1.4l-2-4.3h-14.8l-2,4.3c-0.3,0.7-0.9,1.3-2,1.3h-6C756.6,384.3,756.2,383.6,756.5,382.9z M778.8,371.2
			l-4.1-9h-0.1l-4.1,9H778.8z"/>
		<path fill="#8D9498" d="M798.9,354.2h-7.8c-0.6,0-1-0.5-1-1v-5.9c0-0.5,0.4-1,1-1h24.1c0.6,0,1,0.5,1,1v5.9c0,0.5-0.4,1-1,1h-7.8
			v29c0,0.5-0.5,1-1,1h-6.5c-0.5,0-1-0.5-1-1V354.2z"/>
		<path fill="#8D9498" d="M820.3,347.3c0-0.5,0.5-1,1-1h6.5c0.5,0,1,0.5,1,1v35.9c0,0.5-0.5,1-1,1h-6.5c-0.5,0-1-0.5-1-1V347.3z"/>
		<path fill="#8D9498" d="M854.1,345.7c10.9,0,19.5,8.7,19.5,19.6s-8.7,19.5-19.5,19.5c-10.9,0-19.5-8.6-19.5-19.5
			S843.2,345.7,854.1,345.7z M854.1,376.1c6,0,10.9-4.9,10.9-10.8c0-6-4.9-10.9-10.9-10.9c-5.9,0-10.8,4.9-10.8,10.9
			C843.3,371.2,848.2,376.1,854.1,376.1z"/>
		<path fill="#8D9498" d="M879.4,346.7c0-0.5,0.5-1,1-1h1.4l21.7,20.8h0.1v-19.3c0-0.5,0.4-1,1-1h6.5c0.5,0,1,0.5,1,1v36.5
			c0,0.5-0.5,1-1,1h-0.9c-0.2,0-0.6-0.2-0.7-0.3L888,363H888v20.2c0,0.5-0.4,1-1,1h-6.5c-0.5,0-1-0.5-1-1L879.4,346.7z"/>
	</g>
</g>
<path fill="#FFFFFF" stroke="#B4BFC2" stroke-width="4" stroke-miterlimit="10" d="M580,322.9H41.3c-4.4,0-7.9-3.6-7.9-7.9V300
	c0-4.4,3.6-7.9,7.9-7.9H580c4.4,0,7.9,3.6,7.9,7.9V315C587.9,319.3,584.4,322.9,580,322.9z"/>
<g>
	<g>
		<g>
			<g>
				<path fill="#4E8DCB" d="M309.1,74.5L331.8,53l-0.5-1.3c-7.9-20.4-3-43.5,12.4-58.9c10.3-10.3,24.5-16.1,39-16.1
					c0.6,0,1.2,0,1.8,0c1.4,0,2.7,1,3.1,2.4c0.4,1.4,0,2.9-1.2,3.8c-1.9,1.5-3.8,3.1-5.5,4.9c-17,17-20.6,41.1-8,53.8
					c5,5,11.8,7.6,19.7,7.6c11.6,0,24.3-5.8,34.1-15.5c1.7-1.7,3.4-3.6,4.9-5.5c0.7-0.8,1.6-1.3,2.7-1.3c0.4,0,0.7,0.1,1.1,0.2
					c1.4,0.4,2.3,1.7,2.4,3.2c0.5,15.2-5.4,30.1-16.1,40.8c-10.4,10.4-24.2,16.1-39,16.1c-6.9,0-13.6-1.2-19.9-3.7l-1.3-0.5
					l-6.5,6.9c-0.3-0.2-0.6-0.3-0.9-0.5c-2.1-1.1-4.6-1.6-7-1.6c-4.2,0-8.1,1.6-11.1,4.6l-4.7,4.7L309.1,74.5z"/>
				<path fill="#4E8DCB" d="M382.8-21.3c0.6,0,1.2,0,1.7,0c0.6,0,1.1,0.4,1.3,1c0.2,0.6,0,1.2-0.5,1.6c-2,1.6-3.9,3.2-5.7,5
					c-8.4,8.4-14,18.9-15.6,29.3c-1.7,10.9,1,20.6,7.7,27.3c5.3,5.3,12.6,8.2,21.1,8.2c12.3,0,25.2-5.9,35.5-16.1
					c1.8-1.8,3.5-3.7,5-5.7c0.3-0.4,0.7-0.6,1.1-0.6c0.1,0,0.3,0,0.4,0.1c0.6,0.2,1,0.7,1,1.3c0.5,14.7-5.2,29-15.5,39.4
					c-10,10-23.4,15.5-37.6,15.5c-6.6,0-13.1-1.2-19.2-3.6l-2.5-1l-1.8,1.9l-4.6,4.9c-2.3-1.1-4.9-1.6-7.4-1.6
					c-4.7,0-9.1,1.8-12.5,5.2l-3.3,3.3l-5.4-5.4l-14-14l20.3-19.2l1.9-1.8l-1-2.5c-7.6-19.7-2.9-41.9,12-56.8
					C355.1-15.6,368.8-21.3,382.8-21.3L382.8-21.3 M382.8-25.3c-15.1,0-29.8,6-40.5,16.7C325.9,7.9,321.6,32,329.5,52.5l-23.3,22
					l17,17l8.3,8.3l6.1-6.1c2.6-2.6,6-4,9.6-4c2.1,0,4.2,0.5,6.1,1.4c0.7,0.4,1.4,0.8,2.1,1.3l6.8-7.2c6.6,2.6,13.6,3.8,20.7,3.8
					c14.6,0,29.3-5.6,40.4-16.7c11.1-11.1,17.2-26.6,16.7-42.3c-0.1-2.3-1.6-4.3-3.8-5c-0.6-0.2-1.1-0.3-1.7-0.3
					c-1.6,0-3.2,0.8-4.3,2.1c-1.5,1.9-3,3.7-4.7,5.3c-9.8,9.8-21.9,14.9-32.6,14.9c-7.1,0-13.6-2.3-18.3-7
					c-11.8-11.8-8.3-34.7,8-50.9c1.6-1.6,3.4-3.2,5.3-4.7c1.8-1.4,2.5-3.8,1.8-6c-0.7-2.2-2.7-3.7-5-3.8
					C384-25.3,383.4-25.3,382.8-25.3L382.8-25.3z"/>
			</g>
			<g>
				<path fill="#4E8DCB" d="M310.4,74.5l22.5-21.3l-0.7-1.9c-7.7-20-2.9-42.8,12.2-57.9c10.1-10.1,24.1-15.9,38.4-15.9
					c0.6,0,1.2,0,1.7,0c1,0,1.9,0.7,2.3,1.7c0.3,1,0,2.1-0.8,2.7c-2,1.5-3.9,3.2-5.6,4.9c-17.4,17.4-21,42.1-8,55.1
					c5.1,5.1,12.2,7.9,20.4,7.9c11.8,0,24.8-5.9,34.7-15.8c1.7-1.8,3.4-3.6,4.9-5.6c0.5-0.6,1.2-1,2-1c0.3,0,0.5,0,0.8,0.1
					c1,0.3,1.7,1.2,1.7,2.3c0.5,14.9-5.3,29.6-15.8,40.1C410.9,80.4,397.3,86,382.8,86c-6.7,0-13.3-1.2-19.6-3.6l-1.9-0.7l-6.5,6.9
					c-0.1,0-0.2-0.1-0.3-0.1c-2.3-1.1-4.8-1.7-7.4-1.7c-4.4,0-8.6,1.7-11.7,4.9l-4,4L310.4,74.5z"/>
				<path fill="#4E8DCB" d="M382.8-20.4c0.6,0,1.1,0,1.7,0c0.2,0,0.4,0.1,0.4,0.3c0.1,0.2,0,0.4-0.2,0.5c-2,1.6-4,3.3-5.8,5.1
					c-18.2,18.2-21.7,44.2-8,57.9c5.5,5.5,13.1,8.4,21.8,8.4c12.4,0,25.9-6.1,36.2-16.4c1.8-1.8,3.5-3.8,5.1-5.8
					c0.1-0.1,0.2-0.2,0.4-0.2c0,0,0.1,0,0.1,0c0.2,0.1,0.3,0.2,0.3,0.4c0.5,14.4-5.1,28.5-15.3,38.6c-9.8,9.8-22.9,15.2-36.9,15.2
					c-6.5,0-12.8-1.2-18.9-3.5l-0.6-0.2l-2.5-1l-1.8,1.9l-4.6,4.8c-2.3-1-4.7-1.5-7.2-1.5c-5,0-9.6,1.9-13.1,5.4l-2.6,2.6
					l-18.1-18.1l20-18.9l1.9-1.8l-1-2.5l-0.2-0.6c-7.4-19.3-2.8-41.2,11.7-55.8C355.6-14.8,369-20.4,382.8-20.4 M382.8-24.4
					c-14.8,0-29.4,6-39.8,16.4c-15.7,15.7-20.7,39.3-12.7,60l0.2,0.6l-23,21.8l23.8,23.8l5.5-5.4c2.8-2.8,6.4-4.3,10.3-4.3
					c2.3,0,4.5,0.5,6.5,1.5c0.5,0.3,1,0.5,1.5,0.9l6.7-7l0.6,0.2c6.5,2.5,13.3,3.8,20.3,3.8c15,0,29.1-5.8,39.7-16.4
					c10.9-10.9,16.9-26.1,16.4-41.6c-0.1-1.9-1.3-3.5-3.1-4.1c-0.4-0.1-0.9-0.2-1.4-0.2c-1.4,0-2.7,0.6-3.5,1.7
					c-1.5,1.9-3.1,3.7-4.8,5.4c-9.5,9.5-22,15.2-33.3,15.2c0,0,0,0,0,0c-7.6,0-14.2-2.5-19-7.3c-12.2-12.2-8.7-35.7,8-52.3
					c1.7-1.7,3.5-3.3,5.4-4.8c1.5-1.2,2.1-3.1,1.5-4.9c-0.6-1.8-2.2-3-4.1-3.1C384-24.3,383.4-24.4,382.8-24.4L382.8-24.4z"/>
			</g>
		</g>
		<g>
			<g>
				<polygon fill="#4E8DCB" points="201.5,10.8 187.3,-12 192.3,-17 215.1,-2.8 324.3,106.4 310.7,120 				"/>
				<path fill="#4E8DCB" d="M192.5-14.5l21.3,13.3l107.6,107.6l-5.4,5.4l-5.4,5.4L203.1,9.6l-13.3-21.3l1.4-1.4L192.5-14.5
					 M192.2-19.1c-0.4,0-0.8,0.2-1.1,0.5l-2.7,2.7l-2.7,2.7c-0.5,0.5-0.6,1.3-0.2,1.9l14.4,23.2c0.1,0.1,0.1,0.2,0.2,0.3
					l109.5,109.5c0.3,0.3,0.7,0.5,1.1,0.5c0.4,0,0.8-0.2,1.1-0.5l7.1-7.1l7.1-7.1c0.3-0.3,0.5-0.7,0.5-1.1c0-0.4-0.2-0.8-0.5-1.1
					L216.5-4.2c-0.1-0.1-0.2-0.2-0.3-0.2L193-18.9C192.8-19.1,192.5-19.1,192.2-19.1L192.2-19.1z"/>
			</g>
		</g>
		<g>
			<g>
				<path fill="#4E8DCB" d="M203.6,237.9c-7.2,0-13.9-2.8-19-7.9c-10.5-10.5-10.5-27.5,0-38c0.7-0.7,1.5-1.4,2.4-2.1l0.1-0.1
					l90.9-86l23.2,23.2l-4.7,4.7c-4.8,4.8-5.9,12-2.9,18.1c0.5,1,1.1,2,1.9,2.9l-70.7,74.8l-0.1,0.1c-0.7,0.9-1.4,1.7-2.1,2.4
					C217.5,235.1,210.7,237.9,203.6,237.9z"/>
				<path fill="#4E8DCB" d="M277.9,106.7l15,15l5.4,5.4l-3.3,3.3c-5.4,5.4-6.7,13.6-3.3,20.4c0.3,0.6,0.7,1.2,1.1,1.8l-69.5,73.5
					l-0.1,0.1l-0.1,0.2c-0.7,0.8-1.3,1.6-1.9,2.2c-4.7,4.7-10.9,7.3-17.6,7.3s-12.9-2.6-17.6-7.3c-9.7-9.7-9.7-25.4,0-35.1
					c0.6-0.6,1.4-1.3,2.2-2l0.1-0.1l0.1-0.1L277.9,106.7 M278,101.1l-92.2,87.2c-0.9,0.7-1.8,1.5-2.6,2.3
					c-11.3,11.3-11.3,29.5,0,40.8c5.6,5.6,13,8.4,20.4,8.4c7.4,0,14.8-2.8,20.4-8.4c0.8-0.8,1.6-1.7,2.3-2.6l71.9-76.1
					c-1.1-1.1-2.1-2.3-2.8-3.8c-2.6-5.3-1.6-11.6,2.5-15.7l6.1-6.1l-8.3-8.3L278,101.1L278,101.1z"/>
			</g>
		</g>
		<g>
			<g>
				<path fill="#4E8DCB" d="M412.5,240.9c-3.4,0-6.6-1.3-9.1-3.8l-67.3-68.4l-1.4,1.4c-0.4,0.4-1,0.7-1.6,0.7c-0.4,0-0.7-0.1-1-0.2
					c-0.9-0.5-1.4-1.4-1.3-2.4c0.9-6.4-1.2-12.7-5.7-17.3c-3.8-3.8-8.9-5.9-14.3-5.9c-1,0-2,0.1-3,0.2c-0.1,0-0.2,0-0.3,0
					c-0.1,0-0.3,0-0.5-0.1c-0.1,0-0.2,0-0.2-0.1c-0.1,0-0.1-0.1-0.2-0.1c-0.2-0.1-0.4-0.2-0.6-0.4c0,0-0.1-0.1-0.2-0.2l-0.1-0.1
					c-0.1-0.1-0.2-0.3-0.3-0.4c-0.4-0.9-0.3-2,0.5-2.7l6.1-6.1l33.6-33.6c0.4-0.4,1-0.7,1.6-0.7c0.1,0,0.2,0,0.4,0
					c0.3,0.1,0.5,0.1,0.7,0.2c0.9,0.4,1.4,1.4,1.3,2.4c-0.9,6.4,1.2,12.7,5.7,17.3c3.8,3.8,8.9,5.9,14.3,5.9c1,0,2-0.1,3-0.2
					c0.1,0,0.2,0,0.3,0c0.9,0,1.7,0.5,2.1,1.3c0.5,0.9,0.3,2-0.4,2.7l-1.4,1.4l1.4,1.4l66.4,66.4c2.4,2.4,3.8,5.6,3.8,9.1
					c0,3.4-1.3,6.6-3.8,9.1l-19.2,19.2C419.2,239.6,416,240.9,412.5,240.9L412.5,240.9z"/>
				<path fill="#4E8DCB" d="M347.1,102.9L347.1,102.9l0.1,0c0,0,0.1,0,0.1,0c0.1,0.1,0.2,0.2,0.2,0.3c-1,7.1,1.3,14,6.3,19
					c4.2,4.2,9.8,6.5,15.7,6.5c1.1,0,2.2-0.1,3.2-0.2l0.1,0c0.1,0,0.2,0,0.3,0.2c0.1,0.1,0,0.3-0.1,0.4l-2.9,2.8l2.8,2.8l66.4,66.4
					c2,2,3.2,4.8,3.2,7.7c0,2.9-1.1,5.6-3.2,7.7l-9.3,9.3l-9.9,9.9c-2,2-4.8,3.2-7.7,3.2c-2.9,0-5.6-1.1-7.6-3.1l-65.9-67l-2.8-2.9
					l-2.9,2.9c-0.1,0.1-0.2,0.1-0.2,0.1c-0.1,0-0.1,0-0.1,0c-0.1-0.1-0.2-0.2-0.2-0.3c1-7.1-1.3-14-6.3-19
					c-4.2-4.2-9.8-6.5-15.7-6.5c-1.1,0-2.2,0.1-3.2,0.2c0,0,0,0,0,0c0,0,0,0-0.1,0c0,0-0.1,0-0.1-0.1c0,0,0,0-0.1,0l0-0.1l-0.1-0.1
					c0-0.1,0-0.2,0.1-0.3l6.1-6.1l13.7-13.7l13.7-13.7l6.1-6.1C347,102.9,347.1,102.9,347.1,102.9 M347.2,98.9
					c-1.1,0-2.2,0.4-3.1,1.3l-6.1,6.1L324.3,120l-13.7,13.7l-6.1,6.1c-1.3,1.3-1.6,3.3-0.8,5c0.1,0.3,0.3,0.5,0.5,0.8
					c0.1,0.1,0.2,0.3,0.4,0.4l0,0c0.3,0.3,0.7,0.5,1.1,0.7c0.2,0.1,0.3,0.1,0.5,0.2c0.1,0,0.3,0.1,0.4,0.1c0.3,0.1,0.7,0.1,1,0.1
					c0.2,0,0.4,0,0.6,0c0.9-0.1,1.8-0.2,2.7-0.2c4.8,0,9.4,1.9,12.9,5.3c4.1,4.1,6,9.8,5.2,15.6c-0.3,1.8,0.7,3.7,2.3,4.5
					c0.6,0.3,1.3,0.5,1.9,0.5c1.1,0,2.2-0.4,3.1-1.3l65.9,67c2.9,2.9,6.7,4.3,10.5,4.3c0,0,0,0,0,0c3.8,0,7.6-1.4,10.5-4.3l9.9-9.9
					l9.3-9.3c5.8-5.8,5.8-15.2,0-21l-66.4-66.4l0,0c1.3-1.3,1.6-3.3,0.8-5c-0.7-1.5-2.2-2.4-3.9-2.4c-0.2,0-0.4,0-0.6,0
					c-0.9,0.1-1.8,0.2-2.7,0.2c-4.8,0-9.4-1.9-12.9-5.4c-4.1-4.1-6-9.8-5.2-15.6c0.3-1.8-0.7-3.7-2.3-4.5c-0.4-0.2-0.7-0.3-1.1-0.4
					C347.7,98.9,347.5,98.9,347.2,98.9L347.2,98.9z"/>
			</g>
		</g>
		<g>
			<g>
				<path fill="#FFFFFF" d="M203.6,199.6c-3,0-5.9,1.2-8.1,3.3c-2.2,2.2-3.3,5-3.3,8.1s1.2,5.9,3.3,8.1c2.2,2.2,5,3.3,8.1,3.3
					c3,0,5.9-1.2,8.1-3.3c2.2-2.2,3.3-5,3.3-8.1c0-3-1.2-5.9-3.3-8.1C209.5,200.8,206.6,199.6,203.6,199.6z"/>
			</g>
		</g>
		<g>
			<g>
				<g>
					
						<rect x="330.2" y="197" transform="matrix(0.7073 0.7069 -0.7069 0.7073 250.3204 -208.7441)" fill="#FFFFFF" width="94.2" height="1.9"/>
				</g>
			</g>
			<g>
				<g>
					
						<rect x="338.1" y="189.2" transform="matrix(0.7068 0.7074 -0.7074 0.7068 247.4661 -216.731)" fill="#FFFFFF" width="94.2" height="1.9"/>
				</g>
			</g>
			<g>
				<g>
					
						<rect x="346.4" y="181.3" transform="matrix(0.707 0.7072 -0.7072 0.707 244.1255 -224.7841)" fill="#FFFFFF" width="94" height="1.9"/>
				</g>
			</g>
			<g>
				<g>
					
						<rect x="354.4" y="173.5" transform="matrix(0.7067 0.7076 -0.7076 0.7067 241.1622 -232.8049)" fill="#FFFFFF" width="94" height="1.9"/>
				</g>
			</g>
		</g>
	</g>
</g>
</svg>
