<?xml version="1.0" encoding="utf-8"?>
<!-- Generator: Adobe Illustrator 18.1.0, SVG Export Plug-In . SVG Version: 6.00 Build 0)  -->
<!DOCTYPE svg PUBLIC "-//W3C//DTD SVG 1.1//EN" "http://www.w3.org/Graphics/SVG/1.1/DTD/svg11.dtd">
<svg version="1.1" id="Layer_1" xmlns="http://www.w3.org/2000/svg" xmlns:xlink="http://www.w3.org/1999/xlink" x="0px" y="0px"
	 viewBox="0 -145 780.6 645.7" enable-background="new 0 -145 780.6 645.7" xml:space="preserve">
<g>
	<path fill="#E0E1E1" stroke="#B4BFC2" stroke-width="2" stroke-miterlimit="10" d="M236.6,264.2L217.3,253
		c-1.2-0.7-2.8-0.3-3.5,0.9l-91.6,157.3c-1,1.7,0.2,3.8,2.2,3.8h25.9c0.9,0,1.7-0.5,2.2-1.3l85-146.1
		C238.2,266.5,237.8,264.9,236.6,264.2z"/>
	<path fill="#E0E1E1" stroke="#B4BFC2" stroke-width="2" stroke-miterlimit="10" d="M404.1,253l-19.4,11.3c-1.2,0.7-1.6,2.3-0.9,3.5
		l85,146.1c0.5,0.8,1.3,1.3,2.2,1.3h25.9c2,0,3.2-2.1,2.2-3.8l-91.6-157.3C406.8,252.7,405.3,252.3,404.1,253z"/>
</g>
<path fill="#E0E1E1" stroke="#B4BFC2" stroke-width="2" stroke-miterlimit="10" d="M320.6,387.2h-19.9c-2.1,0-3.8-1.7-3.8-3.8v-475
	c0-2.1,1.7-3.8,3.8-3.8h19.9c2.1,0,3.8,1.7,3.8,3.8v475C324.4,385.5,322.7,387.2,320.6,387.2z"/>
<path fill="#FFFFFF" stroke="#B4BFC2" stroke-width="3" stroke-miterlimit="10" d="M528.5,310H92.8c-4.3,0-7.7-3.5-7.7-7.7V-63.5
	c0-4.3,3.5-7.7,7.7-7.7h435.7c4.3,0,7.7,3.5,7.7,7.7v365.8C536.2,306.5,532.8,310,528.5,310z"/>
<polygon opacity="0.4" fill="#B4BFC2" points="206.5,321.2 174.9,321.2 181.2,310 212.9,310 "/>
<rect x="296.9" y="310" opacity="0.4" fill="#B4BFC2" width="27.4" height="9.4"/>
<polygon opacity="0.4" fill="#B4BFC2" points="446.6,321.2 414.9,321.2 408.4,310 440,310 "/>
<g>
	<defs>
		<path id="SVGID_1_" d="M528.5,310H92.8c-4.3,0-7.7-3.5-7.7-7.7V-63.5c0-4.3,3.5-7.7,7.7-7.7h435.7c4.3,0,7.7,3.5,7.7,7.7v365.8
			C536.2,306.5,532.8,310,528.5,310z"/>
	</defs>
	<clipPath id="SVGID_2_">
		<use xlink:href="#SVGID_1_"  overflow="visible"/>
	</clipPath>
</g>
<g opacity="0.1">
	<defs>
		<path id="SVGID_3_" opacity="0.1" d="M528.1,310H92.4c-4.3,0-7.7-3.5-7.7-7.7V-63.5c0-4.3,3.5-7.7,7.7-7.7h435.7
			c4.3,0,7.7,3.5,7.7,7.7v365.8C535.8,306.5,532.4,310,528.1,310z"/>
	</defs>
	<clipPath id="SVGID_4_">
		<use xlink:href="#SVGID_3_"  overflow="visible"/>
	</clipPath>
	<use xlink:href="#SVGID_3_"  overflow="visible" fill="none" stroke="#B4BFC2" stroke-width="3" stroke-miterlimit="10"/>
</g>
<path fill="#FFFFFF" stroke="#B4BFC2" stroke-width="3" stroke-miterlimit="10" d="M558,310H63.3c-4.4,0-7.9-3.6-7.9-7.9v-12.5
	c0-4.4,3.6-7.9,7.9-7.9H558c4.4,0,7.9,3.6,7.9,7.9V302C565.9,306.4,562.4,310,558,310z"/>
<g>
	<g>
		<g>
			<g>
				<path fill="#4690DC" d="M366,13.9L366,13.9c0.4,0,0.9,0,1.3,0c0.1,0,0.1,0.1,0.2,0.1c0,0.1,0,0.1-0.1,0.2
					c-1.6,1.2-3.1,2.5-4.5,3.9c-14,14-16.8,34.1-6.1,44.8c4.3,4.3,10.1,6.5,16.9,6.5c9.7,0,19.9-4.6,27.9-12.7
					c1.4-1.4,2.7-2.9,3.9-4.5c0-0.1,0.1-0.1,0.1-0.1c0,0,0,0,0,0c0.1,0,0.1,0.1,0.1,0.2c0.4,11-3.9,21.8-11.7,29.5
					c-7.5,7.5-17.5,11.7-28.2,11.7c-5,0-9.8-0.9-14.4-2.7l-2.5-1l-1.8,1.9l-3.1,3.3c-1.7-0.7-3.6-1.1-5.5-1.1
					c-3.9,0-7.5,1.5-10.2,4.2l-1.9,1.9l-3.5-3.5L313,86.6l14.9-14.1l1.9-1.8l-1-2.5c-5.7-14.7-2.2-31.5,9-42.6
					C345.2,18.1,355.5,13.9,366,13.9 M366,9.9c-11.6,0-22.9,4.6-31.1,12.8c-12.7,12.7-15.9,31.2-9.9,46.9l-17.9,16.9l13,13l6.3,6.3
					l4.7-4.7c2-2,4.6-3.1,7.4-3.1c1.6,0,3.2,0.4,4.7,1.1c0.6,0.3,1.1,0.6,1.6,1l5.2-5.5c5.1,2,10.5,2.9,15.9,2.9
					c11.2,0,22.5-4.3,31-12.8c8.6-8.5,13.2-20.4,12.8-32.5c-0.1-1.8-1.2-3.3-2.9-3.8c-0.4-0.1-0.9-0.2-1.3-0.2
					c-1.3,0-2.5,0.6-3.3,1.6c-1.1,1.4-2.3,2.8-3.6,4.1c-7.5,7.5-16.8,11.5-25.1,11.5c-5.5,0-10.4-1.7-14-5.4
					c-9.1-9.1-6.4-26.6,6.1-39.1c1.3-1.3,2.6-2.5,4.1-3.6c1.4-1.1,2-2.9,1.4-4.6c-0.5-1.7-2.1-2.8-3.8-2.9
					C367,9.9,366.5,9.9,366,9.9L366,9.9z"/>
			</g>
		</g>
		<g>
			<g>
				<path fill="#F15C2B" d="M220.1,19.4l15.7,9.7l81.9,81.9l-3.5,3.5l-3.5,3.5l-81.9-81.9l-9.7-15.7l0.5-0.5L220.1,19.4 M219.7,14.6
					c-0.3,0-0.6,0.1-0.8,0.3l-2.1,2.1l-2.1,2.1c-0.4,0.4-0.5,1-0.2,1.5l11.1,17.8c0,0.1,0.1,0.1,0.2,0.2l84.1,84.1
					c0.2,0.2,0.5,0.3,0.8,0.3c0.3,0,0.6-0.1,0.8-0.3l5.5-5.5l5.5-5.5c0.2-0.2,0.3-0.5,0.3-0.8c0-0.3-0.1-0.6-0.3-0.8l-84.1-84.1
					c-0.1-0.1-0.1-0.1-0.2-0.2l-17.8-11.1C220.1,14.7,219.9,14.6,219.7,14.6L219.7,14.6z"/>
			</g>
		</g>
		<g>
			<g>
				<path fill="#4690DC" d="M285.5,112.5l10.9,10.9l3.5,3.5l-1.9,1.9c-4.4,4.4-5.5,11.1-2.7,16.7c0.1,0.3,0.3,0.6,0.5,0.9
					l-52.8,55.9l-0.1,0.1l-0.1,0.1c-0.5,0.6-1,1.2-1.4,1.6c-3.4,3.4-8,5.3-12.8,5.3c-4.8,0-9.4-1.9-12.8-5.3
					c-7.1-7.1-7.1-18.6,0-25.7c0.5-0.5,1-0.9,1.6-1.4l0.1-0.1l0.1-0.1L285.5,112.5 M285.6,107l-70.8,67c-0.7,0.5-1.4,1.1-2,1.8
					c-8.6,8.6-8.6,22.7,0,31.3c4.3,4.3,10,6.5,15.7,6.5s11.3-2.2,15.7-6.5c0.6-0.6,1.2-1.3,1.7-2l55.2-58.4
					c-0.9-0.8-1.6-1.8-2.2-2.9c-2-4-1.2-8.9,2-12.1l4.7-4.7l-6.3-6.3L285.6,107L285.6,107z"/>
			</g>
		</g>
		<g>
			<g>
				<path fill="#F15C2B" d="M337.9,110.4c-0.2,5,1.7,9.9,5.3,13.5c3.4,3.4,7.9,5.3,12.7,5.3c0.2,0,0.5,0,0.7,0l-1.5,1.5l2.8,2.8
					l51,51c1.4,1.4,2.2,3.3,2.2,5.2c0,2-0.8,3.8-2.2,5.2l-7.2,7.2l-7.6,7.6c-1.4,1.4-3.2,2.2-5.2,2.2c-2,0-3.8-0.8-5.2-2.1
					l-50.6-51.4l-2.8-2.9l-1.5,1.5c0.2-5-1.7-9.9-5.3-13.5c-3.4-3.4-7.9-5.3-12.7-5.3c-0.2,0-0.5,0-0.7,0l3.4-3.4l10.5-10.5
					l10.5-10.5L337.9,110.4 M338.7,105.2c-0.9,0-1.7,0.3-2.3,1l-4.7,4.7l-10.5,10.5L310.6,132l-4.7,4.7c-1,1-1.3,2.6-0.6,3.8
					c0.1,0.2,0.3,0.4,0.4,0.6c0.1,0.1,0.2,0.2,0.3,0.3l0,0c0.2,0.2,0.5,0.4,0.8,0.6c0.1,0.1,0.2,0.1,0.4,0.2c0.1,0,0.2,0.1,0.3,0.1
					c0.2,0.1,0.5,0.1,0.8,0.1c0.2,0,0.3,0,0.5,0c0.7-0.1,1.4-0.1,2.1-0.1c3.7,0,7.2,1.4,9.9,4.1c3.2,3.2,4.6,7.5,4,12
					c-0.2,1.4,0.5,2.8,1.8,3.4c0.5,0.2,1,0.4,1.5,0.4c0.9,0,1.7-0.3,2.4-1l50.6,51.4c2.2,2.2,5.1,3.3,8,3.3c0,0,0,0,0,0
					c2.9,0,5.8-1.1,8-3.3l7.6-7.6l7.2-7.2c4.4-4.4,4.4-11.7,0-16.1l-51-51l0,0c1-1,1.3-2.6,0.6-3.8c-0.6-1.1-1.7-1.8-3-1.8
					c-0.2,0-0.3,0-0.5,0c-0.7,0.1-1.4,0.1-2.1,0.1c-3.7,0-7.2-1.4-9.9-4.1c-3.2-3.2-4.6-7.5-4-12c0.2-1.4-0.5-2.8-1.8-3.4
					c-0.3-0.1-0.6-0.2-0.9-0.3C339.1,105.2,338.9,105.2,338.7,105.2L338.7,105.2z"/>
			</g>
		</g>
		<g>
			<g>
				<path fill="#4690DC" d="M228.4,186.6c1.3,0,2.5,0.5,3.4,1.4c0.9,0.9,1.4,2.1,1.4,3.4c0,1.3-0.5,2.5-1.4,3.4
					c-0.9,0.9-2.1,1.4-3.4,1.4c-1.3,0-2.5-0.5-3.4-1.4c-0.9-0.9-1.4-2.1-1.4-3.4c0-1.3,0.5-2.5,1.4-3.4
					C226,187.1,227.2,186.6,228.4,186.6 M228.4,182.6c-2.3,0-4.5,0.9-6.2,2.6c-1.7,1.7-2.6,3.9-2.6,6.2s0.9,4.5,2.6,6.2
					c1.7,1.7,3.9,2.6,6.2,2.6c2.3,0,4.5-0.9,6.2-2.6c1.7-1.7,2.6-3.9,2.6-6.2c0-2.3-0.9-4.5-2.6-6.2
					C233,183.5,230.8,182.6,228.4,182.6L228.4,182.6z"/>
			</g>
		</g>
		<g>
			<g>
				<g>
					<polygon fill="#F15C2B" points="336.7,155.2 335.7,156.2 386.8,207.4 387.9,206.3 336.7,155.2 					"/>
				</g>
			</g>
			<g>
				<g>
					<polygon fill="#F15C2B" points="342.8,149.2 341.8,150.2 392.9,201.4 394,200.4 342.8,149.2 					"/>
				</g>
			</g>
			<g>
				<g>
					<polygon fill="#F15C2B" points="349.2,143.2 348.1,144.2 399.2,195.3 400.2,194.2 349.2,143.2 					"/>
				</g>
			</g>
			<g>
				<g>
					<polygon fill="#F15C2B" points="355.3,137.2 354.3,138.2 405.3,189.3 406.3,188.3 355.3,137.2 					"/>
				</g>
			</g>
		</g>
	</g>
</g>
</svg>
