<?xml version="1.0" encoding="utf-8"?>
<!-- Generator: Adobe Illustrator 18.1.0, SVG Export Plug-In . SVG Version: 6.00 Build 0)  -->
<!DOCTYPE svg PUBLIC "-//W3C//DTD SVG 1.1//EN" "http://www.w3.org/Graphics/SVG/1.1/DTD/svg11.dtd">
<svg version="1.1" id="Layer_1" xmlns="http://www.w3.org/2000/svg" xmlns:xlink="http://www.w3.org/1999/xlink" x="0px" y="0px"
	 viewBox="0 0 865.5 825.2" enable-background="new 0 0 865.5 825.2" xml:space="preserve">
<g>
	<g>
		<path fill="#FFFFFF" d="M717.9,516.3H86.4c-5.2,0-9.4-4.2-9.4-9.4V111.3c0-5.2,4.2-9.4,9.4-9.4h631.5c5.2,0,9.4,4.2,9.4,9.4v395.7
			C727.2,512.1,723,516.3,717.9,516.3z"/>
		<path fill="#B5C0C3" d="M717.9,518.3H86.4c-6.3,0-11.4-5.1-11.4-11.4V111.3c0-6.3,5.1-11.4,11.4-11.4h631.5
			c6.3,0,11.4,5.1,11.4,11.4v395.7C729.2,513.2,724.1,518.3,717.9,518.3z M86.4,103.9c-4.1,0-7.4,3.3-7.4,7.4v395.7
			c0,4.1,3.3,7.4,7.4,7.4h631.5c4.1,0,7.4-3.3,7.4-7.4V111.3c0-4.1-3.3-7.4-7.4-7.4H86.4z"/>
	</g>
	<g>
		<path fill="#FFFFFF" d="M508,589.7H297.3c-2.4,0-4.3-1.9-4.3-4.3v-10.7c0-2.4,1.9-4.3,4.3-4.3H508c2.4,0,4.3,1.9,4.3,4.3v10.7
			C512.3,587.8,510.4,589.7,508,589.7z"/>
		<path fill="#B5C0C3" d="M508,591.7H297.3c-3.5,0-6.3-2.8-6.3-6.3v-10.7c0-3.5,2.8-6.3,6.3-6.3H508c3.5,0,6.3,2.8,6.3,6.3v10.7
			C514.3,588.9,511.5,591.7,508,591.7z M297.3,572.4c-1.3,0-2.3,1-2.3,2.3v10.7c0,1.3,1,2.3,2.3,2.3H508c1.3,0,2.3-1,2.3-2.3v-10.7
			c0-1.3-1-2.3-2.3-2.3H297.3z"/>
	</g>
	<g>
		<path fill="#FFFFFF" d="M481.7,529.7c0-4.6,0.4-9.1,1.1-13.4h-6.3H328.8h-6.3c0.7,4.4,1.1,8.8,1.1,13.4c0,15-3.9,29-10.5,40.7
			h15.7h147.6h15.7C485.5,558.8,481.7,544.8,481.7,529.7z"/>
		<path fill="#B5C0C3" d="M495.6,572.4H309.7l1.7-3c6.7-11.8,10.2-25.5,10.2-39.7c0-4.3-0.4-8.7-1-13.1l-0.4-2.3h164.8l-0.4,2.3
			c-0.7,4.4-1,8.8-1,13.1c0,14.2,3.5,27.9,10.2,39.7L495.6,572.4z M316.5,568.4h172.3c-6-11.7-9.1-25-9.1-38.7
			c0-3.8,0.3-7.6,0.8-11.4H324.9c0.5,3.8,0.8,7.7,0.8,11.4C325.6,543.4,322.5,556.7,316.5,568.4z"/>
	</g>
	<g>
		<rect x="97.3" y="122" fill="#FFFFFF" width="609.7" height="354"/>
		<path fill="#B5C0C3" d="M709,478H95.3V120H709V478z M99.3,474H705V124H99.3V474z"/>
	</g>
	<g opacity="0.4">
		<path fill="#B5C0C3" d="M481.8,518.2H331.9h-6.3h-2.1l0,0.3c0.7,4.6,1.1,9.2,1.1,13.8c0,1.7-0.1,3.3-0.1,5h2h2h152.2
			c-0.1-1.7-0.1-3.3-0.1-5c0-4.6,0.4-9.2,1.1-13.8L481.8,518.2z"/>
	</g>
	<g>
		<path fill="#F8B5B8" d="M100.2,234.2c-0.6,0-1.1,0-1.7,0l0.2-6c3.7,0.1,7.4-0.2,11.1-1.1l1.4,5.8
			C107.6,233.8,103.9,234.2,100.2,234.2z M86,232.1c-3.9-1.2-7.8-2.9-11.6-5l3-5.2c3.4,1.9,6.9,3.4,10.4,4.5L86,232.1z M123.1,228.5
			l-2.7-5.3c2.6-1.3,5.1-2.9,7.6-4.7c0.7-0.5,1.4-1,2.1-1.5l3.5,4.9c-0.7,0.5-1.4,1-2.1,1.5C128.8,225.3,126,227,123.1,228.5z
			 M64.1,219.9c-3.1-2.6-6.1-5.5-8.9-8.7l4.5-4c2.6,3,5.4,5.7,8.3,8.1L64.1,219.9z M143.4,215.1l-3.3-5c3.5-2.3,6.9-4.4,10.3-6.4
			l3,5.2C150.2,210.8,146.8,212.9,143.4,215.1z M163.9,203.2l-2.7-5.3c3.7-1.9,7.5-3.6,11.1-5.2l2.3,5.5
			C171.1,199.7,167.5,201.4,163.9,203.2z M47.7,201.4c-2.3-3.4-4.4-7-6.2-10.7l5.4-2.7c1.7,3.5,3.7,6.8,5.8,10L47.7,201.4z
			 M239.5,198.7c0,0-2.9-3.1-9-5.6l2.3-5.5c7.5,3.1,11,7,11.2,7.1L239.5,198.7l2.2-2L239.5,198.7z M185.5,194.1l-1.8-5.7
			c4.1-1.3,8.1-2.3,11.9-3.1l1.2,5.9C193.2,191.9,189.4,192.9,185.5,194.1z M219.6,190.2c-3.6-0.5-7.4-0.7-11.4-0.5l-0.3-6
			c4.4-0.2,8.6,0,12.5,0.5L219.6,190.2z M36.7,179.2c-1.4-4.1-2.4-8.2-3-12.1l5.9-0.9c0.5,3.6,1.5,7.4,2.7,11.2L36.7,179.2z
			 M39.2,154.9l-6-0.5c0.4-4.7,1.5-8.9,3.3-12.6l5.4,2.6C40.5,147.4,39.6,150.9,39.2,154.9z M48.6,136.5l-3.5-4.9
			c3.4-2.4,7.5-4.1,12.2-5l1.1,5.9C54.7,133.2,51.4,134.5,48.6,136.5z M98.4,134.8c-1.5,0-3.2,0-4.8-0.1l0.3-6
			c4.2,0.2,8.1,0.1,11.5-0.2l0.6,6C103.6,134.7,101.1,134.8,98.4,134.8z M81.4,133.5c-1.7-0.2-3.4-0.5-5.2-0.8
			c-2.2-0.4-4.4-0.6-6.5-0.8l0.4-6c2.3,0.2,4.6,0.4,7,0.8c1.7,0.3,3.4,0.5,5,0.8L81.4,133.5z M118.4,131.4l-2.3-5.5
			c3.4-1.5,6.1-3.5,8.3-6.2l4.7,3.7C126.2,127,122.8,129.6,118.4,131.4z M134.9,111.9l-5.7-1.8c1-3,1.7-6.1,2.5-9.4l0.5-2l5.8,1.4
			l-0.5,2C136.7,105.3,135.9,108.7,134.9,111.9z M239.1,98.2c0,0-0.7-1.3-2.1-3.4l4.9-3.4c3,4.3,3.3,5.2,2.5,6.8l-5.4-2.7l2.7,1.3
			L239.1,98.2z M141.2,89l-5.6-2.2c1.7-4.4,3.9-8,6.6-11.1l4.5,4C144.5,82.2,142.7,85.2,141.2,89z M229.6,86
			c-2.7-2.7-5.7-5.2-8.8-7.4l3.4-4.9c3.4,2.4,6.6,5.1,9.6,8.1L229.6,86z M155.3,73.1l-2.7-5.3c3.4-1.7,7.4-3.1,11.8-4.1l0.2,0
			l1.2,5.9l-0.1,0C161.8,70.4,158.3,71.6,155.3,73.1z M210.9,72.9c-3.5-1.6-7.1-2.8-10.8-3.7l1.4-5.8c4.1,1,8.1,2.4,11.8,4.1
			L210.9,72.9z M177.3,67.6l-0.5-6c4.2-0.4,8.4-0.4,12.4-0.2l-0.4,6C185.1,67.2,181.2,67.3,177.3,67.6z"/>
	</g>
	<g>
		<path fill="#F8B5B8" d="M683.4,556.5c-3.5,0-7.4-0.5-11.4-1.4l1.4-5.8c4,0.9,7.8,1.4,11.1,1.3l0.2,6
			C684.2,556.5,683.8,556.5,683.4,556.5z M697.5,553.2l-2.9-5.3c3-1.6,5.4-4.1,7-7.2l5.3,2.8C704.7,547.7,701.5,551,697.5,553.2z
			 M660.1,551.2c-3.6-1.4-7.3-3.2-11.1-5.2l2.8-5.3c3.6,1.9,7.2,3.6,10.6,5L660.1,551.2z M638.5,540.4c-3.4-1.6-7-3.3-10.8-4.8
			l2.3-5.5c3.9,1.6,7.6,3.3,11.1,5L638.5,540.4z M616.6,531.3c-3.6-1.3-7.4-2.6-11.3-3.8l1.8-5.7c3.9,1.3,7.8,2.6,11.5,3.9
			L616.6,531.3z M710.5,530.9l-6-0.5c0.1-1.2,0.2-2.5,0.2-3.8c0-2.4-0.2-4.9-0.6-7.5l5.9-0.9c0.4,2.9,0.6,5.7,0.6,8.4
			C710.7,528.1,710.6,529.5,710.5,530.9z M593.9,524.1c-6.9-1.9-11.4-2.9-11.5-2.9l1.3-5.9c0.2,0,4.7,1,11.8,3L593.9,524.1z
			 M701.5,507.9c-1.1-3.5-2.5-7.2-4.1-10.9l5.5-2.4c1.7,3.9,3.2,7.8,4.4,11.5L701.5,507.9z M692.1,486.5c-1.9-3.3-4-6.7-6.2-10
			l5-3.4c2.3,3.4,4.5,6.9,6.5,10.4L692.1,486.5z M678.9,467.1c-2.4-3-5-6-7.7-8.9l4.4-4.1c2.8,3,5.5,6.1,8,9.2L678.9,467.1z
			 M662.9,449.8c-2.8-2.7-5.8-5.3-8.8-7.9l3.8-4.6c3.1,2.6,6.2,5.3,9.1,8.1L662.9,449.8z M644.8,434.6c-3.1-2.3-6.4-4.6-9.7-6.7
			l3.3-5c3.4,2.2,6.8,4.6,10,6.9L644.8,434.6z M625,421.7c-3.4-1.9-6.9-3.8-10.4-5.6l2.7-5.4c3.6,1.8,7.2,3.8,10.7,5.8L625,421.7z
			 M603.9,411c-3.6-1.6-7.3-3.1-11-4.5l2.1-5.6c3.8,1.4,7.6,3,11.2,4.6L603.9,411z M581.7,402.7c-3.7-1.2-7.5-2.3-11.4-3.3l1.6-5.8
			c3.9,1.1,7.8,2.2,11.6,3.4L581.7,402.7z"/>
	</g>
	<g>
		<path fill="#F8B5B8" d="M566,192l-2.9-5.3c0.1-0.1,3-1.6,7.8-4.1l2.7,5.3C568.9,190.4,566,192,566,192z M584.4,182.6l-2.6-5.4
			c3.7-1.8,7.3-3.5,10.9-5.2l2.5,5.4C591.6,179.2,588,180.9,584.4,182.6z M679.4,178.5c-2.9,0-5.8-0.4-8.6-1.3l1.8-5.7
			c3.5,1.1,7.1,1.3,10.5,0.7l1,5.9C682.5,178.4,680.9,178.5,679.4,178.5z M606.1,172.6l-2.4-5.5c3.8-1.6,7.5-3.2,11.1-4.7l2.3,5.6
			C613.5,169.4,609.8,171,606.1,172.6z M696.2,171.5l-4.8-3.7c1-1.2,1.4-2.6,1.4-4.1c0-0.7-0.1-1.5-0.4-2.3
			c-0.2-0.6-0.4-1.2-0.7-1.7l5.4-2.6c0.4,0.8,0.7,1.7,1,2.6c0.4,1.4,0.6,2.7,0.6,4C698.9,166.5,697.9,169.2,696.2,171.5z
			 M659.3,170.8c-3.2-2.8-5.8-6.3-7.9-10.3l5.3-2.8c1.8,3.4,4,6.3,6.6,8.6L659.3,170.8z M628.2,163.7l-2.1-5.6c4-1.5,7.8-2.8,11.5-4
			l1.9,5.7C635.9,160.9,632.1,162.2,628.2,163.7z M650.8,156.4l-1.5-5.8c4.2-1.1,8.3-2,12-2.7l1.1,5.9
			C658.8,154.4,654.9,155.3,650.8,156.4z M684.6,153.8c-2.9-0.9-6.6-1.4-10.8-1.2l-0.2-6c5-0.1,9.3,0.4,12.9,1.5L684.6,153.8z
			 M647.1,148.4c-0.8-3.8-1.3-8-1.4-12.5l6-0.1c0.1,4,0.5,7.9,1.2,11.3L647.1,148.4z M645.2,124.1c-0.3-4.1-0.8-8-1.4-11.6l5.9-1
			c0.7,3.8,1.2,7.9,1.5,12.2L645.2,124.1z M641.1,101.3c-1.3-3.9-2.8-7.4-4.6-10.3l5.1-3.1c2,3.3,3.7,7.2,5.1,11.5L641.1,101.3z
			 M556.8,100.7L553,96c0.2-0.1,3.9-3.2,10-7.2l3.3,5C560.6,97.7,556.9,100.6,556.8,100.7z M576.4,87.7l-2.9-5.3
			c3.7-2.1,7.5-3.9,11-5.4l2.4,5.5C583.5,84,580,85.8,576.4,87.7z M629.5,82.7c-2.8-2.3-6-3.9-9.5-4.9l1.6-5.8
			c4.3,1.2,8.2,3.2,11.7,6L629.5,82.7z M597.9,78.7l-1.6-5.8c4.3-1.2,8.5-1.9,12.4-2.1l0.3,6C605.6,77,601.8,77.6,597.9,78.7z"/>
	</g>
	<g>
		<circle fill="#4F8FCC" cx="315" cy="216.9" r="62.1"/>
	</g>
	<g>
		<g>
			<path fill="#FFFFFF" d="M329.1,193.3c1.9,0,3.7,0.4,5.2,1.1c1.6,0.7,3,1.7,4.2,2.9c1.4-0.2,2.8-0.6,4.3-1.2
				c1.4-0.6,2.7-1.2,4-1.8c-1.1,3-3,5.3-5.7,7.1c1.4-0.1,2.6-0.4,3.8-0.7c1.2-0.4,2.4-0.8,3.5-1.3c-1.7,2.5-3.8,4.7-6.4,6.7v1.5
				c0,4.3-0.8,8.6-2.4,13c-1.6,4.4-4,8.3-7.1,11.9c-3.1,3.5-6.9,6.4-11.4,8.6c-4.5,2.2-9.7,3.3-15.7,3.3c-3.6,0-7.1-0.5-10.4-1.6
				c-3.3-1-6.4-2.5-9.4-4.3c0.5,0.1,1,0.1,1.5,0.1c0.5,0,1,0,1.6,0c6.1,0,11.4-1.8,15.9-5.5c-2.9-0.1-5.4-0.9-7.5-2.6
				c-2.2-1.7-3.7-3.8-4.4-6.4c0.9,0.2,1.6,0.3,2.4,0.3c0.6,0,1.2,0,1.8-0.1c0.5-0.1,1.1-0.2,1.7-0.3c-3-0.6-5.5-2.1-7.4-4.4
				c-2-2.3-2.9-5-2.9-8.2v-0.1c0.9,0.4,1.8,0.8,2.7,1.1c1,0.3,2,0.4,3.3,0.4c-1.9-1.1-3.3-2.6-4.3-4.5c-1-1.9-1.5-3.9-1.5-6.2
				c0-2.3,0.6-4.5,1.7-6.5c3.2,4,7.1,7.2,11.7,9.6c4.6,2.4,9.5,3.7,14.9,3.9c-0.2-0.9-0.3-1.8-0.3-2.8c0-1.8,0.3-3.5,1-5.1
				c0.7-1.6,1.6-3,2.8-4.2c1.2-1.2,2.5-2.1,4.1-2.8C325.6,193.7,327.3,193.3,329.1,193.3 M329.1,189.3c-2.3,0-4.5,0.5-6.6,1.4
				c-2,0.9-3.8,2.1-5.3,3.6c-1.5,1.5-2.8,3.4-3.6,5.4c-0.7,1.6-1.1,3.2-1.2,4.9c-3.1-0.5-6-1.5-8.8-3c-4-2.1-7.5-5-10.4-8.5
				c-0.8-0.9-1.9-1.5-3.1-1.5c-0.1,0-0.2,0-0.3,0c-1.3,0.1-2.5,0.9-3.2,2.1c-1.5,2.7-2.2,5.5-2.2,8.5c0,2.2,0.4,4.3,1.1,6.2
				c-0.8,0.8-1.3,1.8-1.3,3v0.1c0,4.1,1.3,7.7,3.9,10.8c0.3,0.3,0.6,0.6,0.8,0.9c-0.2,0.7-0.2,1.5,0,2.2c1,3.4,3,6.2,5.8,8.4
				c0.1,0,0.1,0.1,0.2,0.1c-1.9,0.5-3.9,0.8-6.1,0.8h-1.6c-0.3,0-0.6,0-0.9-0.1c-0.2,0-0.4,0-0.6,0c-1.7,0-3.2,1-3.7,2.6
				c-0.7,1.8,0,3.8,1.6,4.8c3.2,2,6.7,3.6,10.3,4.8c3.7,1.1,7.6,1.7,11.6,1.7c6.5,0,12.4-1.3,17.4-3.7c5-2.4,9.2-5.6,12.7-9.6
				c3.4-3.9,6-8.3,7.8-13.1c1.7-4.7,2.6-9.4,2.6-14c2.2-1.9,4.1-4.1,5.7-6.4c1-1.5,0.9-3.4-0.2-4.8c-0.3-0.4-0.7-0.7-1.1-0.9
				c0,0,0-0.1,0-0.1c0.6-1.6,0.2-3.3-1.1-4.4c-0.7-0.7-1.7-1-2.7-1c-0.6,0-1.3,0.2-1.9,0.5c-1.1,0.6-2.3,1.1-3.6,1.6
				c-0.6,0.2-1.1,0.4-1.7,0.6c-1.1-0.9-2.3-1.6-3.6-2.2C333.9,189.8,331.6,189.3,329.1,189.3L329.1,189.3z"/>
		</g>
	</g>
	<g>
		<g>
			<circle fill="#4F8FCC" cx="315" cy="381.1" r="62.1"/>
		</g>
		<g>
			<g>
				<g>
					<path fill="#FFFFFF" d="M333.7,346.4v13.1H323c-0.6,0-1.2,0.4-1.8,1.2c-0.6,0.8-0.9,1.8-0.9,2.9v6.8h13.3v13.3h-13.3v32.3
						h-13.3v-32.3h-10.7v-13.3h10.7v-6.6c0-2.4,0.4-4.7,1.2-6.8c0.8-2.1,2-4,3.4-5.5c1.4-1.6,3.1-2.8,5.1-3.7c1.9-0.9,4-1.4,6.2-1.4
						H333.7 M333.7,342.4H323c-2.8,0-5.4,0.6-7.9,1.7c-2.4,1.1-4.5,2.7-6.3,4.6c-1.8,1.9-3.2,4.2-4.2,6.8c-1,2.6-1.5,5.4-1.5,8.3
						v2.6h-6.7c-2.2,0-4,1.8-4,4v13.3c0,2.2,1.8,4,4,4h6.7v28.3c0,2.2,1.8,4,4,4h13.3c2.2,0,4-1.8,4-4v-28.3h9.3c2.2,0,4-1.8,4-4
						v-13.3c0-2.2-1.8-4-4-4h-9.3v-2.8c0,0,0-0.1,0-0.1h9.3c2.2,0,4-1.8,4-4v-13.1C337.7,344.2,335.9,342.4,333.7,342.4L333.7,342.4
						z"/>
				</g>
			</g>
		</g>
	</g>
	<g>
		<g>
			<circle fill="#4F8FCC" cx="489.3" cy="216.9" r="62.1"/>
		</g>
		<g>
			<g>
				<g>
					<path fill="#FFFFFF" d="M456.3,240.5V229c-6.1-5.2-9.4-12-9.4-19.4c0-15.1,14.3-27.3,31.8-27.3c17.5,0,31.8,12.2,31.8,27.3
						s-14.3,27.3-31.8,27.3c-4.8,0-9.6-0.9-13.9-2.7L456.3,240.5z M478.7,185.5c-15.8,0-28.6,10.8-28.6,24.1
						c0,6.6,3.1,12.8,8.8,17.4l0.6,0.5v6.6l4.9-3.6l0.9,0.4c4.1,1.9,8.8,2.8,13.5,2.8c15.8,0,28.6-10.8,28.6-24.1
						S494.5,185.5,478.7,185.5z"/>
				</g>
			</g>
			<g>
				<g>
					<g>
						<path fill="#FFFFFF" d="M464.7,216.3c-3.2,0-5.8-2.6-5.8-5.8s2.6-5.8,5.8-5.8c3.2,0,5.8,2.6,5.8,5.8S467.9,216.3,464.7,216.3z
							 M464.7,207.9c-1.4,0-2.6,1.1-2.6,2.6s1.1,2.6,2.6,2.6s2.6-1.1,2.6-2.6S466.2,207.9,464.7,207.9z"/>
					</g>
				</g>
				<g>
					<g>
						<path fill="#FFFFFF" d="M478.7,216.3c-3.2,0-5.8-2.6-5.8-5.8s2.6-5.8,5.8-5.8c3.2,0,5.8,2.6,5.8,5.8S481.9,216.3,478.7,216.3z
							 M478.7,207.9c-1.4,0-2.6,1.1-2.6,2.6s1.1,2.6,2.6,2.6s2.6-1.1,2.6-2.6S480.1,207.9,478.7,207.9z"/>
					</g>
				</g>
				<g>
					<g>
						<path fill="#FFFFFF" d="M492.6,216.3c-3.2,0-5.8-2.6-5.8-5.8s2.6-5.8,5.8-5.8c3.2,0,5.8,2.6,5.8,5.8S495.8,216.3,492.6,216.3z
							 M492.6,207.9c-1.4,0-2.6,1.1-2.6,2.6s1.1,2.6,2.6,2.6s2.6-1.1,2.6-2.6S494,207.9,492.6,207.9z"/>
					</g>
				</g>
			</g>
			<g>
				<g>
					<path fill="#FFFFFF" d="M511.6,205.5c0.3,1.2,0.5,2.4,0.6,3.7c9.2,2.1,15.9,9.1,15.9,17.4c0,4.9-2.3,9.6-6.6,13l-0.6,0.5v4.4
						l-3.2-2.4l-0.9,0.4c-3.1,1.4-6.6,2.1-10.2,2.1c-6.9,0-13.1-2.7-17-7c-1.3,0.3-2.5,0.6-3.9,0.8c4.5,5.8,12.2,9.7,20.9,9.7
						c3.7,0,7.3-0.7,10.6-2l7.1,5.3v-9.6c4.6-4,7.3-9.5,7.3-15.2C531.6,216.2,523,207.5,511.6,205.5z"/>
				</g>
			</g>
		</g>
	</g>
	<g>
		<g>
			<circle fill="#4F8FCC" cx="489.3" cy="381.1" r="62.1"/>
		</g>
		<g>
			<g>
				<g>
					<path fill="#FFFFFF" d="M489.3,386.4c-9.1,0-16.5-8.7-16.5-19.4c0-10.7,7.4-19.4,16.5-19.4s16.5,8.7,16.5,19.4
						C505.8,377.7,498.4,386.4,489.3,386.4z M489.3,351.6c-6.9,0-12.5,6.9-12.5,15.4s5.6,15.4,12.5,15.4s12.5-6.9,12.5-15.4
						S496.2,351.6,489.3,351.6z"/>
				</g>
				<g>
					<path fill="#FFFFFF" d="M517.5,414.7h-56.4c-1.1,0-2-0.9-2-2c0-13.3,4.5-15.5,5.7-15.8l13.8-4.4l1.1-2.8l3.7,1.5l-1.5,3.7
						c-0.2,0.6-0.7,1-1.3,1.2l-14.7,4.7c-0.2,0.1-2.5,1.7-2.9,10h52.3c-0.3-8.3-2.6-9.8-2.8-10l-14.7-4.7c-0.6-0.2-1-0.6-1.3-1.2
						l-1.4-3.5l3.7-1.5l1,2.6l13.8,4.4c1.2,0.3,5.7,2.5,5.7,15.8C519.5,413.8,518.6,414.7,517.5,414.7z"/>
				</g>
			</g>
			<g>
				<path fill="#FFFFFF" d="M497.5,365.2c-0.5,0-0.9-0.1-1.3-0.2c-1.5-0.6-2-2-2.2-2.7c0-0.1,0-0.1-0.1-0.2
					c-0.3,0.1-0.9,0.2-1.9,0.7c-9.6,4.4-17.7-1.8-18.1-2.1l2.5-3.2c0.3,0.2,6.6,5,14,1.6c2.4-1.1,4-1.3,5.3-0.8
					c1.4,0.6,1.8,1.9,2.1,2.7c0,0,0,0.1,0.1,0.2c0.5-0.1,1.9-0.5,4.8-2.3l2,3.4C501.3,364.4,499.1,365.2,497.5,365.2z"/>
			</g>
		</g>
	</g>
	<g>
		<path fill="#F8B5B8" d="M193.6,559.6l-0.1-6c3.8-0.1,7.7-0.5,11.5-1.1l1.1,5.9C202,559.2,197.8,559.6,193.6,559.6z M181.2,558.9
			c-4-0.5-8.1-1.4-12.1-2.5l1.6-5.8c3.8,1,7.6,1.8,11.3,2.3L181.2,558.9z M218.1,555.3l-1.9-5.7c3.6-1.2,7.2-2.8,10.6-4.5l2.7,5.3
			C225.8,552.4,221.9,554,218.1,555.3z M157.4,552.5c-1.8-0.7-3.7-1.6-5.5-2.4c-2-0.9-3.9-2-5.7-3.4l3.5-4.9c1.6,1.1,3.2,2,4.8,2.8
			c1.7,0.8,3.5,1.6,5.2,2.3L157.4,552.5z M240.1,544.1l-3.4-4.9c3.1-2.2,6.2-4.6,9.2-7.2l4,4.5C246.7,539.2,243.5,541.7,240.1,544.1
			z M136.9,537.9c-2.5-3.2-4.8-6.7-6.8-10.7l5.4-2.7c1.8,3.5,3.8,6.8,6.1,9.6L136.9,537.9z M258.6,527.7l-4.5-4c4.7-5.2,7.2-9,7.2-9
			l5,3.2C266.3,518.1,263.6,522.2,258.6,527.7z M125.5,515.6c-1.2-3.9-2.1-8-2.7-12.2l5.9-0.8c0.5,3.8,1.4,7.6,2.5,11.3L125.5,515.6
			z M128.1,491.1l-6-0.1c0.1-4.3,0.5-8.4,1.3-12.4l5.9,1.1C128.6,483.4,128.2,487.2,128.1,491.1z M132.5,468.8l-5.5-2.3
			c1.7-4,3.9-7.8,6.4-11l4.8,3.7C135.9,462,134.1,465.3,132.5,468.8z M146.1,451.4l-3.5-4.9c3.4-2.4,7.3-4.4,11.4-5.8l1.9,5.7
			C152.4,447.7,149.1,449.3,146.1,451.4z M167.4,442.9l-1.8-5.7c4-1.3,7.8-2.5,11.4-3.7l1.9,5.7
			C175.2,440.4,171.4,441.6,167.4,442.9z M190.2,435.3l-1.9-5.7c3.9-1.3,7.7-2.7,11.3-4l2,5.6C198,432.7,194.1,434,190.2,435.3z
			 M212.9,427.1l-2.2-5.6c4-1.5,7.7-3,11-4.4l2.3,5.5C220.7,424.1,216.9,425.6,212.9,427.1z M235.2,417.6l-2.7-5.4
			c5.6-2.8,7.3-4.2,7.3-4.2l3.9,4.5C243.4,412.9,241.4,414.5,235.2,417.6z"/>
	</g>
</g>
</svg>
