<?xml version="1.0" encoding="utf-8"?>
<!-- Generator: Adobe Illustrator 18.1.1, SVG Export Plug-In . SVG Version: 6.00 Build 0)  -->
<svg version="1.0" id="Layer_1" xmlns:sketch="http://www.bohemiancoding.com/sketch/ns"
	 xmlns="http://www.w3.org/2000/svg" xmlns:xlink="http://www.w3.org/1999/xlink" x="0px" y="0px" viewBox="0 114.9 350 55"
	 enable-background="new 0 114.9 350 55" xml:space="preserve">
<title>emirates</title>
<desc>Created with Sketch.</desc>
<rect id="Rectangle-84" y="50.1" sketch:type="MSShapeGroup" fill="none" width="350" height="119.9">
</rect>
<g>
	<g>
		<path fill="#8B2332" d="M82,146.9l20.6,9.9L82,125l-20.6,31.7L82,146.9z M59.7,160.6h44.5L82,151.2L59.7,160.6z"/>
		<path fill="#D13239" d="M82,146.9v-21.8l-20.6,31.7L82,146.9z M59.7,160.6H82v-9.4L59.7,160.6z"/>
		<path fill="#8B2332" d="M106,154.1c0.8,0,1.4,0.7,1.4,1.4c0,0.8-0.7,1.4-1.4,1.4c-0.8,0-1.4-0.7-1.4-1.4
			C104.5,154.7,105.2,154.1,106,154.1z M106,156.8c0.7,0,1.2-0.6,1.2-1.2c0-0.7-0.6-1.2-1.2-1.2c-0.7,0-1.2,0.6-1.2,1.2
			C104.7,156.3,105.3,156.8,106,156.8z M105.7,156.4h-0.2v-1.7h0.7c0.4,0,0.6,0.2,0.6,0.5s-0.2,0.5-0.4,0.5l0.5,0.8h-0.3l-0.5-0.8
			h-0.3L105.7,156.4L105.7,156.4z M105.7,155.4h0.3c0.2,0,0.5,0,0.5-0.3c0-0.2-0.2-0.3-0.4-0.3h-0.4L105.7,155.4L105.7,155.4z"/>
	</g>
	<g>
		<path fill="#003A70" d="M121.5,156.8h10c10.3,0,16.4-5.3,16.4-14.2c0-8.8-6.1-14.1-16.4-14.1h-10V156.8z M127.8,133.5h3.6
			c6.7,0,10,3.3,10,9.2c0,5.9-3.4,9.2-10,9.2h-3.6V133.5z"/>
		<polygon fill="#003A70" points="169.3,144.6 181.4,144.6 181.4,139.6 169.3,139.6 169.3,133.5 183,133.5 183,128.5 163.1,128.5 
			163.1,156.8 183.4,156.8 183.4,151.9 169.3,151.9 		"/>
		<polygon fill="#003A70" points="219.4,151.9 207.2,151.9 207.2,128.5 200.9,128.5 200.9,156.8 219.4,156.8 		"/>
		<polygon fill="#003A70" points="253.5,128.5 228.1,128.5 228.1,133.5 237.6,133.5 237.6,156.8 244,156.8 244,133.5 253.5,133.5 		
			"/>
		<path fill="#003A70" d="M290.3,156.8h-6.6l-2.8-7.1h-11.5l-2.8,7.1h-6.1l11.8-28.4l0,0h6.4L290.3,156.8z M279,145l-3.9-10.1
			l-3.9,10.1H279z"/>
	</g>
</g>
</svg>
