<?xml version="1.0" encoding="utf-8"?>
<!-- Generator: Adobe Illustrator 18.1.1, SVG Export Plug-In . SVG Version: 6.00 Build 0)  -->
<svg version="1.0" id="Layer_1" xmlns:sketch="http://www.bohemiancoding.com/sketch/ns"
	 xmlns="http://www.w3.org/2000/svg" xmlns:xlink="http://www.w3.org/1999/xlink" x="0px" y="0px" viewBox="0 114.9 350 55"
	 enable-background="new 0 114.9 350 55" xml:space="preserve">
<title>emirates</title>
<desc>Created with Sketch.</desc>
<rect id="Rectangle-84" y="50.1" sketch:type="MSShapeGroup" fill="none" width="350" height="119.9">
</rect>
<path id="Fill-8" fill="#E03A3E" d="M127,150.4c-0.6,0-5,0-5.7,0c-1.8,0-1.6-1.4-1.8-2.8v-8.2c0,0,1.2,0,2.7,0
	c1.5,0,3.5-0.2,5.4,0.9c0,0-1.3-3.3-5.5-3.3h-2.6v-1.6v-1c0,0,0-2.3-0.6-3c0,0,3.5,0,3.7,0c3.3,0,5.8-0.1,8.3,1.7
	c0,0-0.5-4.3-6.7-4.3h-12.2c0,0,2.1,1.8,2,5.5l0.1,14.8c0,3.7,1.4,3.8,1.4,3.8h4.1h1.9h5.9c2.7,0,3.6-1.9,3.6-3v-1.4
	C131.4,148.6,130.5,150.4,127,150.4"/>
<path id="Fill-9" fill="#E03A3E" d="M159,149.1v-10.4c0-4-3.3-5.1-5.8-5.1c-3.3,0-4.2,2.7-4.6,3.6c-0.8-2.5-3.3-3.6-5.3-3.6
	c-3.9,0-4.9,3.7-4.9,3.7s-0.1-3.5-3.3-3.5h-3.1c0,0,1.8,0.8,1.8,3.8v11.5c0,3.8,1.5,3.8,1.5,3.8h5.1c-0.1-0.1-1.9-1.4-1.9-3.9V139
	c0.1-0.5,0.9-2,3-2c1.2,0,2.6,1.2,2.6,2.8v9.5c0,3.8,1.5,3.8,1.5,3.8h5.1c0,0-1.9-1.3-1.9-3.9V139c0.2-0.6,0.9-1.9,2.8-1.9
	c1.5,0,2.8,1.2,2.8,2.8c0,0,0,8.6,0,9.4c0,3.8,1.5,3.8,1.5,3.8c2.7,0,5.1,0,5.1,0S159,151.6,159,149.1"/>
<path id="Fill-10" fill="#E03A3E" d="M167.8,149.1c0,2.6,1.9,3.8,1.9,3.8s-2.4,0-5.1,0c0,0-1.5,0-1.5-3.8l0,0v-11.5
	c0-3.1-1.7-3.8-1.7-3.8h3.1c1.1,0,3.4,0,3.4,4.3L167.8,149.1L167.8,149.1"/>
<path id="Fill-11" fill="#E03A3E" d="M183.4,135.2c0,0-0.5-1.3-2.6-1.3c-3.2,0-3.9,3.7-3.9,3.7c-0.3-3-1.1-3.8-3.3-3.8h-3.1
	c0,0,1.8,0.8,1.8,3.8v11.5c0,3.8,1.5,3.8,1.5,3.8h5.1c-0.1-0.1-1.9-1.4-1.9-3.9v-9.4c0.1-0.9,0.6-1.5,1.2-1.9
	c1.6-1.1,3.9-0.9,5.3,0.8v-3.3"/>
<path id="Fill-12" fill="#E03A3E" d="M207,136c1.7,0,3,0.8,3,0.8v-2.9h-4.2v-4.4c0,0-1.2,1.9-3.5,3.8c-1.4,1.2-4.5,2.7-4.5,2.7
	l3.3,0.1v13.3c0,3.7,1.5,3.7,1.5,3.7c2.8,0,5.1,0,5.1,0s-1.9-1.3-1.9-3.7v-13.3C207.1,136,206.3,136,207,136"/>
<path id="Fill-13" fill="#E03A3E" d="M222.5,141.7c-2.9,3-5.1,2.5-6.9,4.7c0,0,0.3,3,2.6,4c0.8,0.4,3.9,1.4,5.9-2v3.1
	c0,0-1.3,1.5-5.5,1.5c-5,0-8.3-3.9-8.3-9.2c0-5.2,2.8-10.1,8.1-10.1C223.4,133.7,226.2,137.8,222.5,141.7L222.5,141.7z M219.4,140.5
	c0.9-1.5,1.5-5.5-1.3-5.3c-3.4,0.3-2.7,9.1-2.7,9.1C216.4,143.2,218.1,142.9,219.4,140.5L219.4,140.5z"/>
<path id="Fill-14" fill="#E03A3E" d="M165.5,132.2c1.3,0,2.4-1.1,2.4-2.3c0-1.2-1.1-2.3-2.4-2.3s-2.4,1.1-2.4,2.3
	C163.1,131.2,164.2,132.2,165.5,132.2"/>
<path id="Fill-15" fill="#E03A3E" d="M188.7,150.8c-1.2,0-2-1.2-2-2.4c0-4.8,3.9-5.5,5-6.7v8.1C191.2,150.2,190.7,150.8,188.7,150.8
	L188.7,150.8z M191.7,139.8c-1.2,2.1-10.4,2.5-8.9,9.6c0.6,2.8,2.4,3.6,4.8,3.6c2.3,0,3.6-1.2,4.2-2.3c0.4,2.1,1.4,2.3,1.4,2.3
	c2.7,0,5.1,0,5.1,0s-2-1.3-2-3.8v-10.7c0-2.6-2.9-4.6-5.9-4.6c-2.9,0-4.8,1.4-4.8,1.4v3.4c0,0,1.1-2.7,3.6-2.7s2.8,1.2,2.8,1.9
	C192.1,137.8,192.4,138.7,191.7,139.8L191.7,139.8z"/>
<path id="Fill-16" fill="#E03A3E" d="M233.7,147.8c0,1.3-1.2,3.2-3.7,3.2c-2.7,0-3.7-2.7-3.7-2.7v3.5c0,0,1.9,1.3,4.8,1.3
	c3.5,0,7-2.6,6.9-6.3c0-1.2-0.5-2.4-1.2-3.4c-1.2-1.5-3.3-2.7-5-3.6c-1-0.6-1.4-1.6-1.4-2c0-0.7,0.3-1.9,2.9-1.9
	c2.5,0,3.5,2.7,3.5,2.7v-3.2c0,0-1.9-1.5-4.9-1.5c-3.1,0-5.8,2-5.8,4.6c0,2.3,1,3.7,2.9,5.1c0.8,0.6,1.6,1.1,2.6,1.6
	C233.1,145.9,233.7,146.8,233.7,147.8"/>
</svg>
