<?xml version="1.0" encoding="utf-8"?>
<!-- Generator: Adobe Illustrator 18.1.1, SVG Export Plug-In . SVG Version: 6.00 Build 0)  -->
<svg version="1.0" id="Layer_1" xmlns="http://www.w3.org/2000/svg" xmlns:xlink="http://www.w3.org/1999/xlink" x="0px" y="0px"
	 viewBox="0 0 800 600" enable-background="new 0 0 800 600" xml:space="preserve">
<path fill="#F04924" d="M593.5,312.9c-5.1-2.1-10.4-3.5-15.6-4.2l-33.7-9l33.6-9.1c5.2-0.7,10.5-2.1,15.6-4.2
	c31.5-13.1,46.5-49.3,33.3-80.9c-13.1-31.5-49.3-46.5-80.9-33.3c-5.1,2.1-9.8,4.9-14,8.1l-30.1,17.5l17.4-30.2
	c3.2-4.2,5.9-8.9,8.1-14c13-31.6-2-67.7-33.6-80.8c-31.6-13-67.7,2-80.8,33.6c-2.1,5.1-3.5,10.4-4.2,15.6l-9,33.7l-9.1-33.6
	c-0.7-5.2-2.1-10.5-4.2-15.6c-13.1-31.5-49.3-46.5-80.9-33.3c-31.5,13.1-46.5,49.3-33.3,80.9c2.1,5.1,4.9,9.8,8.1,14l17.5,30.1
	l-30.2-17.4c-4.2-3.2-8.9-5.9-14-8.1c-31.6-13-67.7,2-80.8,33.6s2,67.7,33.6,80.8c5.1,2.1,10.4,3.5,15.6,4.2l33.7,9l-33.6,9.1
	c-5.2,0.7-10.5,2.1-15.6,4.2c-31.5,13.1-46.5,49.3-33.3,80.9c13.1,31.5,49.3,46.5,80.9,33.3c5.1-2.1,9.8-4.9,14-8.1l30.1-17.5
	l-17.4,30.2c-3.2,4.2-5.9,8.9-8.1,14c-13,31.6,2,67.7,33.6,80.8c31.6,13,67.7-2,80.8-33.6c2.1-5.1,3.5-10.4,4.2-15.6l9-33.7
	l9.1,33.6c0.7,5.2,2.1,10.5,4.2,15.6c13.1,31.5,49.3,46.5,80.9,33.3c31.5-13.1,46.5-49.3,33.3-80.9c-2.1-5.1-4.9-9.8-8.1-14
	l-17.5-30.1l30.2,17.4c4.2,3.2,8.9,5.9,14,8.1c31.6,13,67.7-2,80.8-33.6C640.1,362.1,625.1,325.9,593.5,312.9z M429.1,370
	c-38.7,16.1-83.1-2.2-99.1-40.9s2.2-83.1,40.9-99.1s83.1,2.2,99.1,40.9S467.8,353.9,429.1,370z"/>
</svg>
