<?xml version="1.0" encoding="utf-8"?>
<!-- Generator: Adobe Illustrator 17.1.0, SVG Export Plug-In . SVG Version: 6.00 Build 0)  -->
<!DOCTYPE svg PUBLIC "-//W3C//DTD SVG 1.1//EN" "http://www.w3.org/Graphics/SVG/1.1/DTD/svg11.dtd">
<svg version="1.1" id="Layer_1" xmlns="http://www.w3.org/2000/svg" xmlns:xlink="http://www.w3.org/1999/xlink" x="0px" y="0px"
	 viewBox="7.5 7.5 40 40" enable-background="new 7.5 7.5 40 40" xml:space="preserve">
<g>
	<path fill="#5190CA" d="M29.884,19.267v5.848h5.849v4.769h-5.849v5.849h-4.769v-5.849h-5.848v-4.769h5.848v-5.848L29.884,19.267
		 M29.884,17.492h-4.769c-0.98,0-1.775,0.795-1.775,1.775v4.073h-4.073c-0.98,0-1.775,0.795-1.775,1.775v4.769
		c0,0.98,0.795,1.775,1.775,1.775h4.073v4.074c0,0.98,0.795,1.775,1.775,1.775h4.77c0.98,0,1.775-0.795,1.775-1.775v-4.074h4.074
		c0.98,0,1.775-0.795,1.775-1.775v-4.769c0-0.98-0.795-1.775-1.775-1.775h-4.074v-4.073C31.659,18.287,30.865,17.492,29.884,17.492
		L29.884,17.492z"/>
</g>
<circle fill="none" stroke="#5190CA" stroke-width="2" stroke-miterlimit="10" cx="27.5" cy="27.5" r="17.164"/>
</svg>
