<?xml version="1.0" encoding="utf-8"?>
<!-- Generator: Adobe Illustrator 17.0.0, SVG Export Plug-In . SVG Version: 6.00 Build 0)  -->
<!DOCTYPE svg PUBLIC "-//W3C//DTD SVG 1.1//EN" "http://www.w3.org/Graphics/SVG/1.1/DTD/svg11.dtd">
<svg version="1.1" id="Layer_1" xmlns="http://www.w3.org/2000/svg" xmlns:xlink="http://www.w3.org/1999/xlink" x="0px" y="0px"
	 width="69.25px" height="40px" viewBox="0 0 69.25 40" enable-background="new 0 0 69.25 40" xml:space="preserve">
<g>
	<g>
		<path fill="#4E8DCB" d="M33.837,38.909c-10.209,0-18.515-8.306-18.515-18.514c0-10.209,8.306-18.515,18.515-18.515
			c0.829,0,1.5,0.671,1.5,1.5v15.515h15.514c0.828,0,1.5,0.671,1.5,1.5C52.352,30.604,44.046,38.909,33.837,38.909z M32.337,4.953
			c-7.854,0.757-14.015,7.394-14.015,15.443c0,8.555,6.96,15.514,15.515,15.514c8.048,0,14.685-6.16,15.442-14.014H33.837
			c-0.829,0-1.5-0.672-1.5-1.5V4.953z"/>
	</g>
	<g>
		<path fill="#4E8DCB" d="M51.599,16.325H39.364c-0.828,0-1.5-0.671-1.5-1.5V2.591c0-0.829,0.672-1.5,1.5-1.5
			c7.573,0,13.734,6.161,13.734,13.734C53.099,15.654,52.427,16.325,51.599,16.325z M40.864,13.325h9.13
			c-0.663-4.721-4.409-8.467-9.13-9.13V13.325z"/>
	</g>
</g>
</svg>
