<?xml version="1.0" encoding="UTF-8" standalone="no"?>
<svg width="108px" height="80px" viewBox="0 0 108 80" version="1.1" xmlns="http://www.w3.org/2000/svg" xmlns:xlink="http://www.w3.org/1999/xlink" xmlns:sketch="http://www.bohemiancoding.com/sketch/ns">
    <!-- Generator: Sketch 3.1.1 (8761) - http://www.bohemiancoding.com/sketch -->
    <title>Imported Layers</title>
    <desc>Created with Sketch.</desc>
    <defs></defs>
    <g id="Home---detail-pages" stroke="none" stroke-width="1" fill="none" fill-rule="evenodd" sketch:type="MSPage">
        <g id="Homepage-3" sketch:type="MSArtboardGroup" transform="translate(-667.011818, -2687.000000)" fill="#FFFFFF">
            <g id="Imported-Layers" sketch:type="MSLayerGroup" transform="translate(667.000000, 2688.000000)">
                <path d="M40.3304516,38.5054604 C40.3304516,41.2548168 39.8663226,42.6287129 37.8967742,42.6287129 C35.8416774,42.6287129 35.3380645,41.3799653 35.3380645,38.8840347 L35.3380645,16.9200792 L19.5282581,16.9200792 L19.5282581,42.712797 C19.5282581,47.1993713 20.5954839,50.8943812 23.0941935,53.7970446 C25.5925161,56.7004901 28.68,58.1510396 32.5381935,58.1510396 C35.1487742,58.1510396 37.767871,57.3391386 40.488,55.7114257 C38.9887742,61.4608267 35.6206452,64.3353317 30.5674839,64.3353317 C28.9869677,64.3353317 27.4323871,63.8851881 24.9371613,62.9884208 C24.9371613,62.9884208 22.6141935,62.2273614 19.4434839,60.4060594 L19.4434839,73.8039901 C19.4434839,73.8039901 22.56,75.7551337 24.9371613,76.660505 C27.8492903,77.7817574 30.7393548,78.3441436 33.6270968,78.3441436 C40.2065806,78.3441436 45.7424516,75.791505 50.3783226,70.6870099 C54.2651613,66.3963713 56.139871,60.7584307 56.139871,53.7763168 L56.139871,16.9200792 L40.3304516,16.9200792 L40.3304516,38.5054604" id="Fill-1" sketch:type="MSShapeGroup"></path>
                <path d="M19.4372903,54.2002574 C16.9381935,51.2983762 15.8701935,47.6033663 15.8701935,43.1156188 L15.8701935,17.3232921 L15.8713548,17.3252475 L15.8713548,-0.00821287129 L0.0623225806,-0.00821287129 L0.0623225806,17.3232921 L0.0611612903,17.3232921 L0.0611612903,43.1156188 C0.0611612903,47.6033663 1.1283871,51.2983762 3.62825806,54.2002574 C6.12580645,57.1033119 9.21367742,58.5542525 13.0722581,58.5542525 C13.9660645,58.5542525 14.8916129,58.4404455 15.828,58.2327772 L15.8713548,58.3086485 L15.8713548,58.2233911 C17.6547097,57.8233069 19.4818065,57.0645941 21.2423226,55.9726733 L21.2411613,55.9484257 C20.6098065,55.4380545 20.0059355,54.8619802 19.4372903,54.2002574" id="Fill-2" sketch:type="MSShapeGroup"></path>
                <path d="M82.5743226,-0.111460396 L82.5944516,-0.106767327 C96.3236129,0.940178218 100.025032,10.2797772 101.014839,16.5841337 L107.13871,16.5841337 L107.13871,33.3978366 L100.721032,33.3978366 C100.721032,36.3403911 101.22271,38.9387871 102.264774,40.1996584 C103.305677,41.4640495 104.705806,41.997495 107.972129,41.997495 L107.972129,58.5307871 C107.318323,58.5589455 106.58129,58.5718515 106.192258,58.5718515 C102.666194,58.5718515 99.3541935,57.7458713 96.2299355,56.0911733 C93.1076129,54.435302 90.588,52.1924059 88.7012903,49.3605297 C86.3136774,45.7425644 85.0904516,40.9466386 85.0904516,34.9723614 L85.0904516,18.7030545 L85.0517419,18.4441535 C84.6665806,16.9380693 83.2196129,16.4464703 82.0091613,16.3072426 C81.8864516,16.2931634 81.768,16.2837772 81.6526452,16.2767376 C81.6185806,16.274 81.5852903,16.2720446 81.5516129,16.2704802 C81.4428387,16.2646139 81.336,16.260703 81.236129,16.2591386 L81.2245161,16.2591386 C79.3203871,16.2888614 77.8138065,16.9435446 76.7690323,18.2298366 C75.699871,19.5493713 75.108,21.4269901 75.108,23.8677772 L75.108,25.8318267 L82.0184516,25.8318267 L82.0184516,41.3830941 L75.108,41.3830941 L75.108,47.4520149 C75.108,47.4520149 75.612,58.1960149 59.7108387,58.1960149 L59.6713548,21.6565594 C59.6059355,18.1938564 59.7212903,1.98243069 77.2842581,-0.0183811881 C77.2842581,-0.0183811881 79.8433548,-0.316391089 82.5743226,-0.111460396" id="Fill-3" sketch:type="MSShapeGroup"></path>
            </g>
        </g>
    </g>
</svg>