<?xml version="1.0" encoding="utf-8"?>
<!-- Generator: Adobe Illustrator 18.1.1, SVG Export Plug-In . SVG Version: 6.00 Build 0)  -->
<svg version="1.0" id="Layer_1" xmlns:sketch="http://www.bohemiancoding.com/sketch/ns"
	 xmlns="http://www.w3.org/2000/svg" xmlns:xlink="http://www.w3.org/1999/xlink" x="0px" y="0px" viewBox="-117 95 115 32"
	 enable-background="new -117 95 115 32" xml:space="preserve">
<title>Netflix</title>
<desc>Created with Sketch.</desc>
<g id="Welcome" sketch:type="MSPage">
	<g id="Netflix" transform="translate(-48.000000, -32.000000)" sketch:type="MSLayerGroup">
		<rect id="Rectangle-87" x="-117" y="95" sketch:type="MSShapeGroup" fill="#EDEFF0" fill-opacity="0" width="199" height="95">
		</rect>
		<g>
			<path fill="#ED2517" d="M-52.7,127.6c-1.6,0-3.2,0-4.8,0c0,6.5,0,10.8,0,17.3c-2.1-6.4-4.1-10.6-6.2-17.3c-1.8,0-2.9,0-4.6,0
				c0,10.2,0,20.5,0,30.7c1.6-0.2,3.2-0.4,4.8-0.6c0-6.4,0-10.4,0-16.8c2.2,6.3,3.5,10,5.6,16c1.7-0.2,3.5-0.4,5.2-0.6
				C-52.7,146.8-52.7,137.2-52.7,127.6"/>
			<path fill="#ED2517" d="M-34.7,127.6c-4.5,0-8.9,0-13.3,0c0,9.4,0,18.9-0.1,28.3c4.5-0.4,8.9-0.7,13.4-1c0-1.4,0-3.4,0-4.7
				c-2.9,0.2-5.7,0.4-8.6,0.6c0-2.5,0-4.6,0-7.2c2.1,0,4.4,0,6.5,0c0-1.4,0-3.4,0-4.8c-2.1,0-4.4,0-6.5,0.1c0-2.5,0-3.9,0-6.5
				c1.3,0,2.6,0,3.9,0c0.2,0,0.5,0,0.7,0c0.2,0,0.5,0,0.7,0c1.1,0,2.2,0,3.3,0C-34.7,131-34.7,129-34.7,127.6"/>
			<path fill="#ED2517" d="M-16.7,127.6c-4.9,0-10,0-14.9,0c0,1.4,0,3.3,0,4.7c0.2,0,0.4,0,0.6,0c0.6,0,1.3,0,1.9,0
				c0.6,0,1.3,0,1.9,0c0.2,0,0.3,0,0.5,0c0,7.6,0,14.6,0,22.2c1.6-0.1,3.3-0.1,4.8-0.1c0-7.6,0-14.5,0-22c1.7,0,3.4,0,5,0
				C-16.7,131-16.7,129-16.7,127.6"/>
			<path fill="#ED2517" d="M-0.2,127.6c-4.5,0-8.9,0-13.4,0c0,8.9,0,17.8,0,26.7c0.5,0,1,0,1.6,0c1.1,0,2.2,0,3.2,0
				c0-3.8,0-7.2,0-11c0.3,0,0.5,0,0.8,0c0.6,0,1.3,0,1.9,0c0.6,0,1.3,0,1.9,0c0.7,0,1.3,0,1.9,0c0-1.4,0-3.4,0-4.7
				c-0.6,0-1.2,0-1.8,0c-0.7,0-1.3,0-2,0c-0.7,0-1.3,0-2,0c-0.2,0-0.5,0-0.7,0c0-2.4,0-3.8,0-6.2c0.5,0,1,0,1.6,0c0.5,0,1.1,0,1.6,0
				c0.5,0,1.1,0,1.6,0c1.3,0,2.6,0,3.9,0C-0.2,131-0.2,129-0.2,127.6"/>
			<path fill="#ED2517" d="M2.9,127.6c0,9,0,17.9,0,26.9c4.3,0.2,8.8,0.3,13.1,0.6c0-1.4,0-3.4,0-4.7c-2.7-0.2-5.5-0.4-8.2-0.5
				c0-7.7,0-14.7,0-22.3C6.2,127.6,4.5,127.6,2.9,127.6"/>
			<path fill="#ED2517" d="M19.9,127.6c0,9.3,0,18.6,0.1,27.8c1.6,0.1,3.2,0.3,4.8,0.4c0-9.4,0-18.8,0-28.2
				C23.1,127.6,21.5,127.6,19.9,127.6"/>
			<path fill="#ED2517" d="M28.8,127.6c1.9,4.7,3.7,9.4,5.6,14.4c-2,4.8-4.1,9.5-6.1,14.1c1.7,0.2,3.4,0.4,5.1,0.6
				c1.2-3,2.3-5.2,3.5-8.3c1.2,3.2,2.3,5.7,3.5,9.1c1.7,0.2,3.9,0.5,5.5,0.8c-2-5.4-4.3-11.1-6.3-16.2c2-4.8,4.1-9.4,6.2-14.5
				c-1.7,0-3.5,0-5.3,0c-1.3,3.1-2.2,5.1-3.5,8.1c-1.2-3.1-1.9-5.1-3.1-8.1C32.4,127.6,30.6,127.6,28.8,127.6"/>
		</g>
	</g>
</g>
</svg>
