<?xml version="1.0" encoding="utf-8"?>
<!-- Generator: Adobe Illustrator 18.1.0, SVG Export Plug-In . SVG Version: 6.00 Build 0)  -->
<!DOCTYPE svg PUBLIC "-//W3C//DTD SVG 1.1//EN" "http://www.w3.org/Graphics/SVG/1.1/DTD/svg11.dtd">
<svg version="1.1" id="Layer_1" xmlns="http://www.w3.org/2000/svg" xmlns:xlink="http://www.w3.org/1999/xlink" x="0px" y="0px"
	 viewBox="0 0 759.3 584.7" enable-background="new 0 0 759.3 584.7" xml:space="preserve">
<g>
	<path fill="#FFFFFF" stroke="#B5C0C3" stroke-width="4" stroke-miterlimit="10" d="M473.6,211.2v282.2c0,2.9-2.3,5.2-5.2,5.2H42.7
		c-2.9,0-5.2-2.3-5.2-5.2V211.2"/>
	<path fill="#E0E2E2" stroke="#B5C0C3" stroke-width="4" stroke-miterlimit="10" d="M473.6,211.2H37.5v-41.3c0-3.5,2.8-6.4,6.4-6.4
		h423.4c3.5,0,6.4,2.8,6.4,6.4V211.2z"/>
	<g>
		<ellipse fill="#FFFFFF" stroke="#B5C0C3" stroke-width="4" stroke-miterlimit="10" cx="60.1" cy="187.4" rx="8.8" ry="8.8"/>
		<ellipse fill="#FFFFFF" stroke="#B5C0C3" stroke-width="4" stroke-miterlimit="10" cx="88.7" cy="187.4" rx="8.8" ry="8.8"/>
		<ellipse fill="#FFFFFF" stroke="#B5C0C3" stroke-width="4" stroke-miterlimit="10" cx="117.4" cy="187.4" rx="8.8" ry="8.8"/>
	</g>
</g>
<rect x="65.1" y="248.3" fill="#E0E2E2" width="329" height="18.8"/>
<rect x="65.1" y="288.6" fill="#E0E2E2" width="329" height="18.8"/>
<rect x="65.1" y="328.9" fill="#E0E2E2" width="329" height="18.8"/>
<g>
	<path fill="#FFFFFF" d="M471.5,549.6H314.7c-24,0-43.5-19.5-43.5-43.5V75.5c0-24,19.5-43.5,43.5-43.5h156.8
		c24,0,43.5,19.5,43.5,43.5v430.5C515,530.1,495.5,549.6,471.5,549.6z"/>
	<path fill="#B5C0C3" d="M477.5,551.3H308.7c-21.6,0-39.2-17.6-39.2-39.2V69.5c0-21.6,17.6-39.2,39.2-39.2h168.9
		c21.6,0,39.2,17.6,39.2,39.2v442.6C516.7,533.7,499.1,551.3,477.5,551.3z M308.7,33.7c-19.7,0-35.8,16.1-35.8,35.8v442.6
		c0,19.7,16.1,35.8,35.8,35.8h168.9c19.7,0,35.8-16.1,35.8-35.8V69.5c0-19.7-16.1-35.8-35.8-35.8H308.7z"/>
</g>
<g>
	<circle fill="#E0E2E2" cx="393.1" cy="512.4" r="21.5"/>
	<path fill="#B5C0C3" d="M393.1,535.7c-12.8,0-23.2-10.4-23.2-23.2c0-12.8,10.4-23.2,23.2-23.2s23.2,10.4,23.2,23.2
		C416.3,525.3,405.9,535.7,393.1,535.7z M393.1,492.6c-10.9,0-19.8,8.9-19.8,19.8c0,10.9,8.9,19.8,19.8,19.8s19.8-8.9,19.8-19.8
		C412.9,501.5,404,492.6,393.1,492.6z"/>
</g>
<g>
	<rect x="285.2" y="103.7" fill="#FFFFFF" width="214.5" height="371.5"/>
	<path fill="#B5C0C3" d="M501.5,477h-218V102h218V477z M286.9,473.5H498V105.5H286.9V473.5z"/>
</g>
<g>
	<path fill="#E0E2E2" d="M408.4,82.2h-30.6c-2,0-3.6-1.6-3.6-3.6V78c0-2,1.6-3.6,3.6-3.6h30.6c2,0,3.6,1.6,3.6,3.6v0.6
		C412,80.6,410.4,82.2,408.4,82.2z"/>
	<path fill="#B5C0C3" d="M408.3,83.9h-30.5c-3,0-5.4-2.4-5.4-5.4V78c0-3,2.4-5.4,5.4-5.4h30.5c3,0,5.4,2.4,5.4,5.4v0.5
		C413.7,81.5,411.3,83.9,408.3,83.9z M377.8,76.1c-1.1,0-1.9,0.9-1.9,1.9v0.5c0,1.1,0.9,1.9,1.9,1.9h30.5c1.1,0,1.9-0.9,1.9-1.9V78
		c0-1.1-0.9-1.9-1.9-1.9H377.8z"/>
</g>
<g>
	<path fill="#F15C2B" d="M366.7,301.6l21.2-36.6c2.2-3.2,7-3.2,9.2,0l21.2,36.6c2.5,3.7-0.1,8.7-4.6,8.7h-42.3
		C366.8,310.3,364.2,305.3,366.7,301.6z"/>
</g>
<g>
	<path fill="#FFFFFF" d="M392.5,296.1c1.7,0,3.1,1.4,3.1,3.1c0,1.6-1.4,3-3.1,3c-1.6,0-3-1.4-3-3
		C389.4,297.5,390.8,296.1,392.5,296.1z M391.2,292.6l-1.6-9v-3.7c0-0.3,0.3-0.6,0.6-0.6h4.5c0.3,0,0.6,0.3,0.6,0.6v3.6l-1.6,9.1
		c0,0.3-0.3,0.5-0.6,0.5h-1.4C391.5,293.1,391.2,292.9,391.2,292.6z"/>
</g>
<polygon opacity="0.4" fill="#B5C0C3" points="271.1,498.6 233.4,498.6 259.7,163.6 271.1,163.6 "/>
<g>
	<g>
		<path fill="#62A5DA" d="M714.7,252.5H447.3c-18.2,0-33-14.8-33-33v-95.8c0-18.2,14.8-33,33-33h267.4c18.2,0,33,14.8,33,33v95.8
			C747.6,237.7,732.9,252.5,714.7,252.5z"/>
	</g>
	<g>
		<path fill="#FFFFFF" d="M433.3,122.9c-0.1-0.4,0.1-0.7,0.5-0.7h1.9c0.2,0,0.5,0.2,0.5,0.4l3.5,13.3h0.1l4.7-13.7
			c0.1-0.2,0.3-0.3,0.5-0.3h0.5c0.2,0,0.4,0.1,0.5,0.3l4.8,13.7h0.1l3.5-13.3c0.1-0.2,0.3-0.4,0.5-0.4h1.9c0.4,0,0.6,0.3,0.5,0.7
			l-5.5,19.5c-0.1,0.2-0.3,0.4-0.5,0.4H451c-0.2,0-0.4-0.1-0.5-0.3l-5.1-14.4h-0.1l-5,14.4c-0.1,0.2-0.3,0.3-0.5,0.3h-0.5
			c-0.2,0-0.5-0.2-0.5-0.4L433.3,122.9z"/>
		<path fill="#FFFFFF" d="M464.9,130.6c3,0,5.3,2.3,5.3,5.4c0,0.2,0,0.6-0.1,0.8c0,0.3-0.3,0.5-0.5,0.5h-7.9
			c0.1,1.6,1.5,3.1,3.3,3.1c1,0,2-0.5,2.6-0.8c0.3-0.2,0.6-0.3,0.8,0l0.8,1.1c0.2,0.2,0.3,0.5-0.1,0.8c-0.8,0.7-2.4,1.5-4.3,1.5
			c-3.5,0-5.8-2.8-5.8-6.1C459.1,133.5,461.4,130.6,464.9,130.6z M467.6,135.5c-0.1-1.4-1.2-2.6-2.7-2.6c-1.6,0-2.8,1.1-3,2.6H467.6
			z"/>
		<path fill="#FFFFFF" d="M474,122.8c0-0.3,0.3-0.6,0.6-0.6h1.7c0.3,0,0.6,0.3,0.6,0.6V142c0,0.3-0.3,0.6-0.6,0.6h-1.7
			c-0.3,0-0.6-0.3-0.6-0.6V122.8z"/>
		<path fill="#FFFFFF" d="M486.6,130.6c1.8,0,3.1,0.7,4.2,2.1c0.2,0.3,0.1,0.6-0.1,0.8l-1,0.9c-0.3,0.3-0.6,0.1-0.8-0.1
			c-0.5-0.6-1.4-1.1-2.3-1.1c-1.9,0-3.4,1.6-3.4,3.6c0,2,1.5,3.6,3.3,3.6c1.5,0,2.1-0.8,2.7-1.3c0.3-0.3,0.5-0.3,0.8-0.1l0.8,0.6
			c0.3,0.2,0.4,0.5,0.2,0.8c-0.9,1.5-2.5,2.4-4.5,2.4c-3.3,0-6.1-2.6-6.1-6.1C480.5,133.3,483.4,130.6,486.6,130.6z"/>
		<path fill="#FFFFFF" d="M499.6,130.6c3.3,0,5.9,2.8,5.9,6.1c0,3.3-2.6,6.1-5.9,6.1c-3.3,0-5.9-2.8-5.9-6.1
			C493.7,133.4,496.4,130.6,499.6,130.6z M499.6,140.3c1.8,0,3.3-1.6,3.3-3.6c0-1.9-1.5-3.5-3.3-3.5c-1.8,0-3.3,1.6-3.3,3.5
			C496.3,138.7,497.8,140.3,499.6,140.3z"/>
		<path fill="#FFFFFF" d="M509.3,131.5c0-0.3,0.3-0.6,0.6-0.6h0.8c0.3,0,0.4,0.1,0.5,0.3l0.3,1c0.3-0.3,1.6-1.6,3.8-1.6
			c1.7,0,2.9,0.7,3.7,1.9c0.3-0.3,2-1.9,4.2-1.9c3.5,0,4.8,2.5,4.8,5.5v5.8c0,0.3-0.2,0.6-0.6,0.6h-1.6c-0.3,0-0.6-0.3-0.6-0.6v-6
			c0-1.8-0.8-2.9-2.4-2.9c-1.8,0-2.8,1.2-3,1.4c0.1,0.3,0.1,0.8,0.1,1.4v6c0,0.3-0.3,0.6-0.6,0.6h-1.5c-0.3,0-0.6-0.3-0.6-0.6v-6
			c0-1.9-0.8-2.9-2.5-2.9c-1.7,0-2.7,1.4-2.9,1.7v7.1c0,0.3-0.3,0.6-0.6,0.6h-1.6c-0.3,0-0.6-0.3-0.6-0.6V131.5z"/>
		<path fill="#FFFFFF" d="M537.5,130.6c3,0,5.3,2.3,5.3,5.4c0,0.2,0,0.6-0.1,0.8c0,0.3-0.3,0.5-0.5,0.5h-7.9
			c0.1,1.6,1.5,3.1,3.3,3.1c1,0,2-0.5,2.6-0.8c0.3-0.2,0.6-0.3,0.8,0l0.8,1.1c0.2,0.2,0.3,0.5-0.1,0.8c-0.8,0.7-2.4,1.5-4.3,1.5
			c-3.5,0-5.8-2.8-5.8-6.1C531.7,133.5,534.1,130.6,537.5,130.6z M540.2,135.5c-0.1-1.4-1.2-2.6-2.7-2.6c-1.6,0-2.8,1.1-3,2.6H540.2
			z"/>
		<path fill="#FFFFFF" d="M555.1,133.3h-1.2c-0.3,0-0.6-0.3-0.6-0.6v-1.3c0-0.3,0.2-0.6,0.6-0.6h1.2v-3.2c0-0.3,0.3-0.6,0.6-0.6
			l1.7,0c0.3,0,0.5,0.3,0.5,0.6v3.3h3c0.3,0,0.6,0.2,0.6,0.6v1.3c0,0.3-0.2,0.6-0.6,0.6h-3v5.8c0,1,0.4,1.2,0.9,1.2
			c0.6,0,1.4-0.3,1.8-0.5c0.4-0.2,0.6,0,0.7,0.3l0.5,1.3c0.1,0.3,0,0.6-0.3,0.7c-0.3,0.2-2,0.9-3.4,0.9c-2.3,0-3-1.4-3-3.5V133.3z"
			/>
		<path fill="#FFFFFF" d="M569.9,130.6c3.3,0,5.9,2.8,5.9,6.1c0,3.3-2.6,6.1-5.9,6.1s-5.9-2.8-5.9-6.1
			C564,133.4,566.6,130.6,569.9,130.6z M569.9,140.3c1.8,0,3.3-1.6,3.3-3.6c0-1.9-1.5-3.5-3.3-3.5s-3.3,1.6-3.3,3.5
			C566.6,138.7,568,140.3,569.9,140.3z"/>
		<path fill="#FFFFFF" d="M588.1,133.3h-1.2c-0.3,0-0.6-0.3-0.6-0.6v-1.3c0-0.3,0.2-0.6,0.6-0.6h1.2v-3.2c0-0.3,0.3-0.6,0.6-0.6
			l1.7,0c0.3,0,0.5,0.3,0.5,0.6v3.3h3c0.3,0,0.6,0.2,0.6,0.6v1.3c0,0.3-0.2,0.6-0.6,0.6h-3v5.8c0,1,0.4,1.2,0.9,1.2
			c0.6,0,1.4-0.3,1.8-0.5c0.4-0.2,0.6,0,0.7,0.3l0.5,1.3c0.1,0.3,0,0.6-0.3,0.7c-0.3,0.2-2,0.9-3.4,0.9c-2.3,0-3-1.4-3-3.5V133.3z"
			/>
		<path fill="#FFFFFF" d="M598,122.8c0-0.3,0.3-0.6,0.6-0.6h1.7c0.3,0,0.6,0.3,0.6,0.6v9.1c0.3-0.2,1.6-1.2,3.5-1.2
			c3.3,0,4.9,2.4,4.9,5.5v5.8c0,0.3-0.3,0.6-0.6,0.6H607c-0.3,0-0.6-0.3-0.6-0.6v-5.9c0-1.9-1-2.9-2.5-2.9c-1.8,0-3,1.3-3.1,1.8v7
			c0,0.3-0.2,0.6-0.6,0.6h-1.7c-0.3,0-0.6-0.3-0.6-0.6V122.8z"/>
		<path fill="#FFFFFF" d="M618.6,130.6c3,0,5.3,2.3,5.3,5.4c0,0.2,0,0.6-0.1,0.8c0,0.3-0.3,0.5-0.5,0.5h-7.9
			c0.1,1.6,1.5,3.1,3.3,3.1c1,0,2-0.5,2.6-0.8c0.3-0.2,0.6-0.3,0.8,0l0.8,1.1c0.2,0.2,0.3,0.5-0.1,0.8c-0.8,0.7-2.4,1.5-4.3,1.5
			c-3.5,0-5.8-2.8-5.8-6.1C612.8,133.5,615.1,130.6,618.6,130.6z M621.3,135.5c-0.1-1.4-1.2-2.6-2.7-2.6c-1.6,0-2.8,1.1-3,2.6H621.3
			z"/>
		<path fill="#FFFFFF" d="M639.3,135.2c1.2,0,2.3,0.3,2.3,0.3c0-1.8-0.3-2.6-1.8-2.6c-1.3,0-2.6,0.3-3.3,0.5
			c-0.3,0.1-0.6-0.1-0.6-0.5l-0.2-1.1c-0.1-0.4,0.1-0.6,0.4-0.7c0.2-0.1,1.9-0.7,4-0.7c3.7,0,4.1,2.3,4.1,5.2v6.2
			c0,0.3-0.3,0.6-0.6,0.6h-0.8c-0.3,0-0.4-0.1-0.5-0.4l-0.3-0.8c-0.6,0.6-1.8,1.5-3.6,1.5c-2.2,0-3.7-1.5-3.7-3.9
			C634.6,136.8,636.3,135.2,639.3,135.2z M638.9,140.8c1.2,0,2.3-0.9,2.6-1.5v-1.9c-0.2-0.1-1-0.5-2-0.5c-1.4,0-2.4,0.7-2.4,1.9
			C637.2,140,637.9,140.8,638.9,140.8z"/>
		<path fill="#FFFFFF" d="M648.2,124.5c0-1,0.7-1.7,1.7-1.7c1,0,1.7,0.8,1.7,1.7c0,0.9-0.8,1.7-1.7,1.7
			C648.9,126.2,648.2,125.4,648.2,124.5z M648.5,131.5c0-0.3,0.3-0.6,0.6-0.6h1.7c0.3,0,0.6,0.3,0.6,0.6V142c0,0.3-0.3,0.6-0.6,0.6
			h-1.7c-0.3,0-0.6-0.3-0.6-0.6V131.5z"/>
		<path fill="#FFFFFF" d="M655.8,131.5c0-0.3,0.3-0.6,0.6-0.6h0.8c0.2,0,0.4,0.2,0.5,0.4l0.3,1c0.2-0.3,1.3-1.7,3.4-1.7
			c1.1,0,2.4,0.3,2.1,1.1l-0.7,1.4c-0.1,0.3-0.4,0.4-0.7,0.3c-0.2-0.1-0.6-0.2-1-0.2c-1.7,0-2.5,1.2-2.6,1.4v7.4
			c0,0.5-0.3,0.6-0.8,0.6h-1.4c-0.3,0-0.6-0.3-0.6-0.6V131.5z"/>
		<path fill="#FFFFFF" d="M669.3,150.7c0,0.3-0.2,0.6-0.6,0.6H667c-0.3,0-0.6-0.3-0.6-0.6v-19.2c0-0.3,0.3-0.6,0.6-0.6h0.9
			c0.2,0,0.4,0.1,0.5,0.4l0.3,0.8c0.2-0.2,1.4-1.4,3.5-1.4c3.2,0,5.5,2.8,5.5,6.1c0,3.4-2.5,6.1-5.7,6.1c-1.5,0-2.6-0.7-2.8-0.8
			V150.7z M671.8,140.3c1.9,0,3.3-1.6,3.3-3.6c0-1.9-1.2-3.6-3.2-3.6c-1.7,0-2.6,1.3-2.7,1.7v4.6
			C669.2,139.5,670.2,140.3,671.8,140.3z"/>
		<path fill="#FFFFFF" d="M686.7,130.6c3.3,0,5.9,2.8,5.9,6.1c0,3.3-2.6,6.1-5.9,6.1s-5.9-2.8-5.9-6.1
			C680.8,133.4,683.4,130.6,686.7,130.6z M686.7,140.3c1.8,0,3.3-1.6,3.3-3.6c0-1.9-1.5-3.5-3.3-3.5c-1.8,0-3.3,1.6-3.3,3.5
			C683.4,138.7,684.9,140.3,686.7,140.3z"/>
		<path fill="#FFFFFF" d="M696.3,131.5c0-0.3,0.3-0.6,0.6-0.6h0.8c0.2,0,0.4,0.2,0.5,0.4l0.3,1c0.2-0.3,1.3-1.7,3.4-1.7
			c1.1,0,2.4,0.3,2.1,1.1l-0.7,1.4c-0.1,0.3-0.4,0.4-0.7,0.3c-0.2-0.1-0.6-0.2-1-0.2c-1.7,0-2.5,1.2-2.6,1.4v7.4
			c0,0.5-0.3,0.6-0.8,0.6h-1.4c-0.3,0-0.6-0.3-0.6-0.6V131.5z"/>
		<path fill="#FFFFFF" d="M708.3,133.3h-1.2c-0.3,0-0.6-0.3-0.6-0.6v-1.3c0-0.3,0.2-0.6,0.6-0.6h1.2v-3.2c0-0.3,0.3-0.6,0.6-0.6
			l1.7,0c0.3,0,0.5,0.3,0.5,0.6v3.3h3c0.3,0,0.6,0.2,0.6,0.6v1.3c0,0.3-0.2,0.6-0.6,0.6h-3v5.8c0,1,0.4,1.2,0.9,1.2
			c0.6,0,1.4-0.3,1.8-0.5c0.4-0.2,0.6,0,0.7,0.3l0.5,1.3c0.1,0.3,0,0.6-0.3,0.7c-0.3,0.2-2,0.9-3.4,0.9c-2.3,0-3-1.4-3-3.5V133.3z"
			/>
		<path fill="#FFFFFF" d="M720.5,138.8c1.1,0,2,0.9,2,2c0,1.1-0.9,2-2,2c-1.1,0-2-0.9-2-2C718.5,139.7,719.5,138.8,720.5,138.8z
			 M719.7,134.2l-0.8-8.1v-3.3c0-0.3,0.3-0.6,0.6-0.6h2.3c0.3,0,0.6,0.3,0.6,0.6v3.3l-0.8,8.2c0,0.2-0.3,0.5-0.6,0.5h-0.6
			C720,134.7,719.7,134.4,719.7,134.2z"/>
		<path fill="#FFFFFF" d="M439.1,167.6l-6.8-9.7c-0.2-0.4,0-0.8,0.5-0.8h2.1c0.2,0,0.4,0.1,0.5,0.3l5.3,7.4l5.3-7.4
			c0.1-0.1,0.3-0.3,0.5-0.3h2.2c0.5,0,0.7,0.5,0.5,0.8l-6.9,9.7v9.3c0,0.3-0.3,0.6-0.6,0.6h-1.9c-0.3,0-0.6-0.3-0.6-0.6V167.6z"/>
		<path fill="#FFFFFF" d="M454.5,165.5c3.3,0,5.9,2.8,5.9,6.1c0,3.3-2.6,6.1-5.9,6.1s-5.9-2.8-5.9-6.1
			C448.6,168.3,451.2,165.5,454.5,165.5z M454.5,175.2c1.8,0,3.3-1.6,3.3-3.6c0-1.9-1.5-3.5-3.3-3.5s-3.3,1.6-3.3,3.5
			C451.2,173.6,452.7,175.2,454.5,175.2z"/>
		<path fill="#FFFFFF" d="M464,166.3c0-0.3,0.3-0.6,0.6-0.6h1.7c0.3,0,0.6,0.3,0.6,0.6v6c0,1.9,0.9,2.9,2.4,2.9
			c1.7,0,2.8-1.4,2.9-1.9v-6.9c0-0.5,0.2-0.6,0.6-0.6h1.5c0.3,0,0.6,0.3,0.6,0.6v10.5c0,0.3-0.3,0.6-0.6,0.6h-0.8
			c-0.3,0-0.4-0.2-0.5-0.5l-0.3-0.8c-0.3,0.2-1.5,1.6-3.8,1.6c-3.5,0-4.7-2.5-4.7-5.5V166.3z"/>
		<path fill="#FFFFFF" d="M479.2,166.3c0-0.3,0.3-0.6,0.6-0.6h0.8c0.2,0,0.4,0.2,0.5,0.4l0.3,1c0.2-0.3,1.3-1.7,3.4-1.7
			c1.1,0,2.4,0.3,2.1,1.1l-0.7,1.4c-0.1,0.3-0.4,0.4-0.7,0.3c-0.2-0.1-0.6-0.2-1-0.2c-1.7,0-2.5,1.2-2.6,1.4v7.4
			c0,0.5-0.3,0.6-0.8,0.6h-1.4c-0.3,0-0.6-0.3-0.6-0.6V166.3z"/>
		<path fill="#FFFFFF" d="M498.6,168.2h-1.4c-0.3,0-0.6-0.3-0.6-0.6v-1.3c0-0.3,0.2-0.6,0.6-0.6h1.4v-3.6c0-3.6,2.4-5.4,5.2-5.4
			c2.5,0,4,1.6,4,1.6l0.3-0.8c0.1-0.3,0.3-0.5,0.6-0.5h0.7c0.3,0,0.6,0.3,0.6,0.6v19.2c0,0.3-0.3,0.6-0.6,0.6h-1.7
			c-0.3,0-0.6-0.3-0.6-0.6v-15.8c-0.1-0.1-1.2-1.6-3.1-1.6c-1.3,0-2.6,0.8-2.6,2.8v3.6h2.9c0.3,0,0.6,0.2,0.6,0.6v1.3
			c0,0.3-0.2,0.6-0.6,0.6h-2.9v8.7c0,0.3-0.3,0.6-0.6,0.6h-1.7c-0.3,0-0.5-0.3-0.5-0.6V168.2z"/>
		<path fill="#FFFFFF" d="M514.3,159.4c0-1,0.7-1.7,1.7-1.7c1,0,1.7,0.8,1.7,1.7c0,0.9-0.8,1.7-1.7,1.7
			C515,161.1,514.3,160.3,514.3,159.4z M514.6,166.3c0-0.3,0.3-0.6,0.6-0.6h1.7c0.3,0,0.6,0.3,0.6,0.6v10.5c0,0.3-0.3,0.6-0.6,0.6
			h-1.7c-0.3,0-0.6-0.3-0.6-0.6V166.3z"/>
		<path fill="#FFFFFF" d="M522.9,173.4c0,0-0.9-1.1-0.9-2.8c0-2.7,2-5.1,5-5.1h5.1c0.3,0,0.6,0.2,0.6,0.6v0.7c0,0.2-0.1,0.5-0.3,0.5
			l-1.6,0.4c0,0,1.2,0.9,1.2,3.1c0,2.5-1.9,4.7-4.9,4.7c-1.5,0-2.3-0.5-2.5-0.5c-0.2,0-1.2,0.5-1.2,1.4c0,0.7,0.5,1.2,1.4,1.2h3.9
			c2.5,0,4.6,1.4,4.6,3.9c0,2.6-2.3,4.8-6.2,4.8c-4.1,0-5.8-2.1-5.8-4c0-1.7,1.4-2.6,1.7-2.7v-0.1c-0.6-0.2-2.1-1-2.1-2.9
			C520.8,174.5,522.9,173.4,522.9,173.4z M527,184c1.8,0,3.3-0.9,3.3-2.3c0-0.5-0.3-1.7-2.2-1.7c-0.8,0-1.7,0-2.6,0.1
			c-0.2,0.1-1.6,0.5-1.6,1.8C524,183.2,525.2,184,527,184z M529.5,170.6c0-1.6-1-2.7-2.4-2.7c-1.5,0-2.6,1.1-2.6,2.7
			c0,1.6,1.1,2.7,2.6,2.7C528.5,173.3,529.5,172.2,529.5,170.6z"/>
		<path fill="#FFFFFF" d="M535.9,157.6c0-0.3,0.3-0.6,0.6-0.6h1.7c0.3,0,0.6,0.3,0.6,0.6v9.1c0.3-0.2,1.6-1.2,3.5-1.2
			c3.3,0,4.9,2.4,4.9,5.5v5.8c0,0.3-0.3,0.6-0.6,0.6h-1.6c-0.3,0-0.6-0.3-0.6-0.6V171c0-1.9-1-2.9-2.5-2.9c-1.8,0-3,1.3-3.1,1.8v7
			c0,0.3-0.2,0.6-0.6,0.6h-1.7c-0.3,0-0.6-0.3-0.6-0.6V157.6z"/>
		<path fill="#FFFFFF" d="M551.9,168.2h-1.2c-0.3,0-0.6-0.3-0.6-0.6v-1.3c0-0.3,0.2-0.6,0.6-0.6h1.2v-3.2c0-0.3,0.3-0.6,0.6-0.6
			l1.7,0c0.3,0,0.5,0.3,0.5,0.6v3.3h3c0.3,0,0.6,0.2,0.6,0.6v1.3c0,0.3-0.2,0.6-0.6,0.6h-3v5.8c0,1,0.4,1.2,0.9,1.2
			c0.6,0,1.4-0.3,1.8-0.5c0.4-0.2,0.6,0,0.7,0.3l0.5,1.3c0.1,0.3,0,0.6-0.3,0.7c-0.3,0.2-2,0.9-3.4,0.9c-2.3,0-3-1.4-3-3.5V168.2z"
			/>
		<path fill="#FFFFFF" d="M569.6,159.4c0-1,0.7-1.7,1.7-1.7c1,0,1.7,0.8,1.7,1.7c0,0.9-0.8,1.7-1.7,1.7
			C570.3,161.1,569.6,160.3,569.6,159.4z M569.9,166.3c0-0.3,0.3-0.6,0.6-0.6h1.7c0.3,0,0.6,0.3,0.6,0.6v10.5c0,0.3-0.3,0.6-0.6,0.6
			h-1.7c-0.3,0-0.6-0.3-0.6-0.6V166.3z"/>
		<path fill="#FFFFFF" d="M576.5,175.9l0.6-1.1c0.1-0.2,0.4-0.3,0.7-0.1c0,0,1.3,0.8,2.7,0.8c0.9,0,1.4-0.3,1.4-1
			c0-0.8-0.6-1.2-2.2-1.9c-1.8-0.8-3.3-1.9-3.3-3.8c0-1.5,1.2-3.2,4-3.2c1.6,0,2.8,0.5,3.4,0.9c0.3,0.2,0.4,0.6,0.2,0.8l-0.5,1
			c-0.1,0.3-0.5,0.3-0.8,0.2c0,0-1.3-0.6-2.4-0.6c-1,0-1.3,0.4-1.3,0.9c0,0.8,0.7,1.1,1.9,1.6c2.1,0.9,3.9,1.8,3.9,4
			c0,1.8-1.7,3.4-4.3,3.4c-1.9,0-3.2-0.7-3.8-1.2C576.5,176.4,576.4,176.1,576.5,175.9z"/>
		<path fill="#FFFFFF" d="M596.3,157.6c0-0.3,0.3-0.6,0.6-0.6h1.7c0.3,0,0.6,0.3,0.6,0.6v8.5c0.3-0.1,1.3-0.6,2.8-0.6
			c3.2,0,5.7,2.7,5.7,6.1c0,3.3-2.4,6.1-5.4,6.1c-2.3,0-3.7-1.6-3.7-1.6l-0.2,0.8c-0.1,0.3-0.3,0.5-0.5,0.5h-0.9
			c-0.3,0-0.6-0.3-0.6-0.6V157.6z M601.9,175.2c1.9,0,3.1-1.7,3.1-3.6c0-2-1.4-3.6-3.3-3.6c-1.5,0-2.5,0.7-2.5,0.7v4.8
			C599.2,173.8,600.1,175.2,601.9,175.2z"/>
		<path fill="#FFFFFF" d="M616.5,165.5c3.3,0,5.9,2.8,5.9,6.1c0,3.3-2.6,6.1-5.9,6.1s-5.9-2.8-5.9-6.1
			C610.7,168.3,613.3,165.5,616.5,165.5z M616.5,175.2c1.8,0,3.3-1.6,3.3-3.6c0-1.9-1.5-3.5-3.3-3.5c-1.8,0-3.3,1.6-3.3,3.5
			C613.3,173.6,614.7,175.2,616.5,175.2z"/>
		<path fill="#FFFFFF" d="M630,170.1c1.2,0,2.3,0.3,2.3,0.3c0-1.8-0.3-2.6-1.8-2.6c-1.3,0-2.6,0.3-3.3,0.5c-0.3,0.1-0.6-0.1-0.6-0.5
			l-0.2-1.1c-0.1-0.4,0.1-0.6,0.4-0.7c0.2-0.1,1.9-0.7,4-0.7c3.7,0,4.1,2.3,4.1,5.2v6.2c0,0.3-0.3,0.6-0.6,0.6h-0.8
			c-0.3,0-0.4-0.1-0.5-0.4l-0.3-0.8c-0.6,0.6-1.8,1.5-3.6,1.5c-2.2,0-3.7-1.5-3.7-3.9C625.3,171.7,627,170.1,630,170.1z
			 M629.6,175.6c1.2,0,2.3-0.9,2.6-1.5v-1.9c-0.2-0.1-1-0.5-2-0.5c-1.4,0-2.4,0.7-2.4,1.9C627.8,174.8,628.5,175.6,629.6,175.6z"/>
		<path fill="#FFFFFF" d="M639.2,166.3c0-0.3,0.3-0.6,0.6-0.6h0.8c0.2,0,0.4,0.2,0.5,0.4l0.3,1c0.2-0.3,1.3-1.7,3.4-1.7
			c1.1,0,2.4,0.3,2.1,1.1l-0.7,1.4c-0.1,0.3-0.4,0.4-0.7,0.3c-0.2-0.1-0.6-0.2-1-0.2c-1.7,0-2.5,1.2-2.6,1.4v7.4
			c0,0.5-0.3,0.6-0.8,0.6h-1.4c-0.3,0-0.6-0.3-0.6-0.6V166.3z"/>
		<path fill="#FFFFFF" d="M654.5,165.5c1.5,0,2.5,0.6,2.8,0.6v-8.5c0-0.3,0.3-0.6,0.6-0.6h1.7c0.3,0,0.6,0.3,0.6,0.6v19.2
			c0,0.3-0.3,0.6-0.6,0.6h-0.9c-0.3,0-0.4-0.2-0.5-0.5l-0.2-0.8c0,0-1.4,1.6-3.7,1.6c-3.1,0-5.4-2.8-5.4-6.1
			C648.7,168.2,651.2,165.5,654.5,165.5z M654.5,175.2c1.8,0,2.6-1.4,2.8-1.7v-4.7c0,0-1-0.7-2.5-0.7c-1.9,0-3.3,1.6-3.3,3.6
			C651.5,173.6,652.7,175.2,654.5,175.2z"/>
		<path fill="#FFFFFF" d="M664.3,159.4c0-1,0.7-1.7,1.7-1.7c1,0,1.7,0.8,1.7,1.7c0,0.9-0.8,1.7-1.7,1.7
			C665,161.1,664.3,160.3,664.3,159.4z M664.6,166.3c0-0.3,0.3-0.6,0.6-0.6h1.7c0.3,0,0.6,0.3,0.6,0.6v10.5c0,0.3-0.3,0.6-0.6,0.6
			h-1.7c-0.3,0-0.6-0.3-0.6-0.6V166.3z"/>
		<path fill="#FFFFFF" d="M671.9,166.3c0-0.3,0.3-0.6,0.6-0.6h0.8c0.2,0,0.4,0.1,0.5,0.3l0.3,1c0.2-0.2,1.7-1.6,4.1-1.6
			c3.5,0,4.9,2.5,4.9,5.5v5.8c0,0.3-0.3,0.6-0.6,0.6h-1.7c-0.3,0-0.6-0.3-0.6-0.6v-6c0-1.9-0.9-2.9-2.4-2.9c-1.8,0-3.1,1.3-3.2,1.7
			v7.1c0,0.4-0.2,0.6-0.7,0.6h-1.5c-0.3,0-0.6-0.3-0.6-0.6V166.3z"/>
		<path fill="#FFFFFF" d="M688.3,173.4c0,0-0.9-1.1-0.9-2.8c0-2.7,2-5.1,5-5.1h5.1c0.3,0,0.6,0.2,0.6,0.6v0.7c0,0.2-0.1,0.5-0.3,0.5
			l-1.6,0.4c0,0,1.2,0.9,1.2,3.1c0,2.5-1.9,4.7-4.9,4.7c-1.5,0-2.3-0.5-2.5-0.5c-0.2,0-1.2,0.5-1.2,1.4c0,0.7,0.5,1.2,1.4,1.2h3.9
			c2.5,0,4.6,1.4,4.6,3.9c0,2.6-2.3,4.8-6.2,4.8c-4.1,0-5.8-2.1-5.8-4c0-1.7,1.4-2.6,1.7-2.7v-0.1c-0.6-0.2-2.1-1-2.1-2.9
			C686.3,174.5,688.3,173.4,688.3,173.4z M692.4,184c1.8,0,3.3-0.9,3.3-2.3c0-0.5-0.3-1.7-2.2-1.7c-0.8,0-1.7,0-2.6,0.1
			c-0.2,0.1-1.6,0.5-1.6,1.8C689.4,183.2,690.7,184,692.4,184z M694.9,170.6c0-1.6-1-2.7-2.4-2.7c-1.5,0-2.6,1.1-2.6,2.7
			c0,1.6,1.1,2.7,2.6,2.7C694,173.3,694.9,172.2,694.9,170.6z"/>
		<path fill="#FFFFFF" d="M713.3,170.1c1.2,0,2.3,0.3,2.3,0.3c0-1.8-0.3-2.6-1.8-2.6c-1.3,0-2.6,0.3-3.3,0.5
			c-0.3,0.1-0.6-0.1-0.6-0.5l-0.2-1.1c-0.1-0.4,0.1-0.6,0.4-0.7c0.2-0.1,1.9-0.7,4-0.7c3.7,0,4.1,2.3,4.1,5.2v6.2
			c0,0.3-0.3,0.6-0.6,0.6h-0.8c-0.3,0-0.4-0.1-0.5-0.4l-0.3-0.8c-0.6,0.6-1.8,1.5-3.6,1.5c-2.2,0-3.7-1.5-3.7-3.9
			C708.7,171.7,710.4,170.1,713.3,170.1z M713,175.6c1.2,0,2.3-0.9,2.6-1.5v-1.9c-0.2-0.1-1-0.5-2-0.5c-1.4,0-2.4,0.7-2.4,1.9
			C711.2,174.8,711.9,175.6,713,175.6z"/>
		<path fill="#FFFFFF" d="M723.1,168.2h-1.2c-0.3,0-0.6-0.3-0.6-0.6v-1.3c0-0.3,0.2-0.6,0.6-0.6h1.2v-3.2c0-0.3,0.3-0.6,0.6-0.6
			l1.7,0c0.3,0,0.5,0.3,0.5,0.6v3.3h3c0.3,0,0.6,0.2,0.6,0.6v1.3c0,0.3-0.2,0.6-0.6,0.6h-3v5.8c0,1,0.4,1.2,0.9,1.2
			c0.6,0,1.4-0.3,1.8-0.5c0.4-0.2,0.6,0,0.7,0.3l0.5,1.3c0.1,0.3,0,0.6-0.3,0.7c-0.3,0.2-2,0.9-3.4,0.9c-2.3,0-3-1.4-3-3.5V168.2z"
			/>
		<path fill="#FFFFFF" d="M435.1,208.3c0,0-0.9-1.1-0.9-2.8c0-2.7,2-5.1,5-5.1h5.1c0.3,0,0.6,0.2,0.6,0.6v0.7c0,0.2-0.1,0.5-0.3,0.5
			l-1.6,0.4c0,0,1.2,0.9,1.2,3.1c0,2.5-1.9,4.7-4.9,4.7c-1.5,0-2.3-0.5-2.5-0.5c-0.2,0-1.2,0.5-1.2,1.4c0,0.7,0.5,1.2,1.4,1.2h3.9
			c2.5,0,4.6,1.4,4.6,3.9c0,2.6-2.3,4.8-6.2,4.8c-4.1,0-5.8-2.1-5.8-4c0-1.7,1.4-2.6,1.7-2.7v-0.1c-0.6-0.2-2.1-1-2.1-2.9
			C433,209.3,435.1,208.3,435.1,208.3z M439.2,218.9c1.8,0,3.3-0.9,3.3-2.3c0-0.5-0.3-1.7-2.2-1.7c-0.8,0-1.7,0-2.6,0.1
			c-0.2,0.1-1.6,0.5-1.6,1.8C436.2,218,437.4,218.9,439.2,218.9z M441.7,205.5c0-1.6-1-2.7-2.4-2.7c-1.5,0-2.6,1.1-2.6,2.7
			c0,1.6,1.1,2.7,2.6,2.7C440.7,208.2,441.7,207.1,441.7,205.5z"/>
		<path fill="#FFFFFF" d="M451.8,204.9c1.2,0,2.3,0.3,2.3,0.3c0-1.8-0.3-2.6-1.8-2.6c-1.3,0-2.6,0.3-3.3,0.5
			c-0.3,0.1-0.6-0.1-0.6-0.5l-0.2-1.1c-0.1-0.4,0.1-0.6,0.4-0.7c0.2-0.1,1.9-0.7,4-0.7c3.7,0,4.1,2.3,4.1,5.2v6.2
			c0,0.3-0.3,0.6-0.6,0.6h-0.8c-0.3,0-0.4-0.1-0.5-0.4l-0.3-0.8c-0.6,0.6-1.8,1.5-3.6,1.5c-2.2,0-3.7-1.5-3.7-3.9
			C447.2,206.6,448.9,204.9,451.8,204.9z M451.5,210.5c1.2,0,2.3-0.9,2.6-1.5v-1.9c-0.2-0.1-1-0.5-2-0.5c-1.4,0-2.4,0.7-2.4,1.9
			C449.7,209.7,450.4,210.5,451.5,210.5z"/>
		<path fill="#FFFFFF" d="M461.6,203.1h-1.2c-0.3,0-0.6-0.3-0.6-0.6v-1.3c0-0.3,0.2-0.6,0.6-0.6h1.2v-3.2c0-0.3,0.3-0.6,0.6-0.6
			l1.7,0c0.3,0,0.5,0.3,0.5,0.6v3.3h3c0.3,0,0.6,0.2,0.6,0.6v1.3c0,0.3-0.2,0.6-0.6,0.6h-3v5.8c0,1,0.4,1.2,0.9,1.2
			c0.6,0,1.4-0.3,1.8-0.5c0.4-0.2,0.6,0,0.7,0.3l0.5,1.3c0.1,0.3,0,0.6-0.3,0.7c-0.3,0.2-2,0.9-3.4,0.9c-2.3,0-3-1.4-3-3.5V203.1z"
			/>
		<path fill="#FFFFFF" d="M476.3,200.4c3,0,5.3,2.3,5.3,5.4c0,0.2,0,0.6-0.1,0.8c0,0.3-0.3,0.5-0.5,0.5h-7.9
			c0.1,1.6,1.5,3.1,3.3,3.1c1,0,2-0.5,2.6-0.8c0.3-0.2,0.6-0.3,0.8,0l0.8,1.1c0.2,0.2,0.3,0.5-0.1,0.8c-0.8,0.7-2.4,1.5-4.3,1.5
			c-3.5,0-5.8-2.8-5.8-6.1C470.5,203.2,472.8,200.4,476.3,200.4z M479,205.2c-0.1-1.4-1.2-2.6-2.7-2.6c-1.6,0-2.8,1.1-3,2.6H479z"/>
		<path fill="#FFFFFF" d="M492.3,211c2.1-2.4,5.2-6.1,7.3-8.7c1.5-1.6,2.2-3.1,2.2-4.2c0-1.5-1-3.2-3.6-3.2c-1.6,0-2.9,1.1-3.7,1.9
			c-0.2,0.2-0.6,0.2-0.8,0l-1-1c-0.2-0.2-0.2-0.5,0-0.8c0,0,2.2-2.8,5.6-2.8c4.2,0,6.4,2.6,6.4,5.7c0,2.2-1.2,3.8-2.8,5.7
			c-1.5,1.9-3.6,4.2-5.3,6.2h7.4c0.3,0,0.6,0.3,0.6,0.6v1.4c0,0.3-0.3,0.6-0.6,0.6h-11.2c-0.3,0-0.6-0.3-0.6-0.6V211z"/>
		<path fill="#FFFFFF" d="M509.1,211.4l7.8-16.3h-8.6c-0.3,0-0.6-0.3-0.6-0.6v-1.5c0-0.3,0.3-0.6,0.6-0.6h11.9
			c0.3,0,0.6,0.3,0.6,0.6v0.2l-8.5,18.2c-0.3,0.6-0.4,0.8-1.1,0.8h-1.3c-0.4,0-0.7-0.3-0.7-0.6V211.4z"/>
		<path fill="#FFFFFF" d="M535.3,204.9c1.2,0,2.3,0.3,2.3,0.3c0-1.8-0.3-2.6-1.8-2.6c-1.3,0-2.6,0.3-3.3,0.5
			c-0.3,0.1-0.6-0.1-0.6-0.5l-0.2-1.1c-0.1-0.4,0.1-0.6,0.4-0.7c0.2-0.1,1.9-0.7,4-0.7c3.7,0,4.1,2.3,4.1,5.2v6.2
			c0,0.3-0.3,0.6-0.6,0.6h-0.8c-0.3,0-0.4-0.1-0.5-0.4l-0.3-0.8c-0.6,0.6-1.8,1.5-3.6,1.5c-2.2,0-3.7-1.5-3.7-3.9
			C530.7,206.6,532.4,204.9,535.3,204.9z M535,210.5c1.2,0,2.3-0.9,2.6-1.5v-1.9c-0.2-0.1-1-0.5-2-0.5c-1.4,0-2.4,0.7-2.4,1.9
			C533.2,209.7,533.9,210.5,535,210.5z"/>
		<path fill="#FFFFFF" d="M545.1,203.1h-1.2c-0.3,0-0.6-0.3-0.6-0.6v-1.3c0-0.3,0.2-0.6,0.6-0.6h1.2v-3.2c0-0.3,0.3-0.6,0.6-0.6
			l1.7,0c0.3,0,0.5,0.3,0.5,0.6v3.3h3c0.3,0,0.6,0.2,0.6,0.6v1.3c0,0.3-0.2,0.6-0.6,0.6h-3v5.8c0,1,0.4,1.2,0.9,1.2
			c0.6,0,1.4-0.3,1.8-0.5c0.4-0.2,0.6,0,0.7,0.3l0.5,1.3c0.1,0.3,0,0.6-0.3,0.7c-0.3,0.2-2,0.9-3.4,0.9c-2.3,0-3-1.4-3-3.5V203.1z"
			/>
		<path fill="#FFFFFF" d="M565.5,197l-2.3,1.1c-0.3,0.1-0.6,0.1-0.6-0.2l-0.3-1c-0.1-0.2,0-0.5,0.1-0.6l4.1-3.7h1.4
			c0.3,0,0.5,0.3,0.5,0.6v18.6c0,0.3-0.2,0.6-0.5,0.6H566c-0.3,0-0.6-0.3-0.6-0.6V197z"/>
		<path fill="#FFFFFF" d="M572.5,211c2.1-2.4,5.2-6.1,7.3-8.7c1.5-1.6,2.2-3.1,2.2-4.2c0-1.5-1-3.2-3.6-3.2c-1.6,0-2.9,1.1-3.7,1.9
			c-0.2,0.2-0.6,0.2-0.8,0l-1-1c-0.2-0.2-0.2-0.5,0-0.8c0,0,2.2-2.8,5.6-2.8c4.2,0,6.4,2.6,6.4,5.7c0,2.2-1.2,3.8-2.8,5.7
			c-1.5,1.9-3.6,4.2-5.3,6.2h7.4c0.3,0,0.6,0.3,0.6,0.6v1.4c0,0.3-0.3,0.6-0.6,0.6h-11.2c-0.3,0-0.6-0.3-0.6-0.6V211z"/>
		<path fill="#FFFFFF" d="M588.7,202.3c0-1,0.8-1.9,1.9-1.9c1,0,1.9,0.8,1.9,1.9c0,1-0.8,1.9-1.9,1.9
			C589.6,204.1,588.7,203.3,588.7,202.3z M590.6,208.8c1,0,1.9,0.8,1.9,1.9c0,1-0.8,1.9-1.9,1.9c-1,0-1.9-0.8-1.9-1.9
			C588.7,209.7,589.6,208.8,590.6,208.8z"/>
		<path fill="#FFFFFF" d="M596.2,209.3l1.1-1c0.3-0.2,0.6-0.2,0.8,0.1c0.2,0.2,1.8,1.8,4,1.8c1.9,0,3.6-1.2,3.6-3.1
			c0-1.7-1.5-3.4-4.6-3.4h-1.6c-0.3,0-0.6-0.2-0.6-0.6v-1.2c0-0.4,0.2-0.6,0.6-0.6h1.6c2.7,0,4.1-1.4,4.1-3.1c0-1.9-1.6-3.2-3.3-3.2
			c-1.7,0-2.8,1-3.4,1.6c-0.2,0.2-0.5,0.3-0.8,0.1l-1.1-1c-0.2-0.2-0.2-0.6,0-0.8c0,0,2.2-2.6,5.4-2.6c3.4,0,6.1,2.1,6.1,5.3
			c0,2.2-1.7,3.9-3,4.6v0.1c1.4,0.6,3.5,2.3,3.5,4.8c0,3.2-2.6,5.5-6.6,5.5c-3.6,0-5.3-1.8-6-2.6C596,209.8,596,209.5,596.2,209.3z"
			/>
		<path fill="#FFFFFF" d="M612.9,202.4c0-6.4,2.6-10.2,7.2-10.2c4.6,0,7.2,3.8,7.2,10.2c0,6.4-2.6,10.2-7.2,10.2
			C615.5,212.6,612.9,208.8,612.9,202.4z M624.4,202.4c0-4.8-1.5-7.5-4.2-7.5c-2.7,0-4.3,2.7-4.3,7.5c0,4.8,1.5,7.5,4.3,7.5
			C622.8,209.9,624.4,207.2,624.4,202.4z"/>
		<path fill="#FFFFFF" d="M633.1,208.5c1.1,0,2,0.9,2,2c0,1.1-0.9,2-2,2c-1.1,0-2-0.9-2-2C631.1,209.4,632,208.5,633.1,208.5z"/>
	</g>
	<path fill="#62A5DA" d="M431.8,224.9c0,0-2.6,22.8-14,38.2c-0.4,0.6,0.1,1.3,0.8,1.2c7.9-1.4,38.6-8.5,58-37.4L431.8,224.9z"/>
</g>
</svg>
