<?xml version="1.0" encoding="UTF-8" standalone="no"?>
<svg width="447px" height="413px" viewBox="0 0 447 413" version="1.1" xmlns="http://www.w3.org/2000/svg" xmlns:xlink="http://www.w3.org/1999/xlink" xmlns:sketch="http://www.bohemiancoding.com/sketch/ns">
    <!-- Generator: Sketch 3.2.2 (9983) - http://www.bohemiancoding.com/sketch -->
    <title>proactive-graphic</title>
    <desc>Created with Sketch.</desc>
    <defs></defs>
    <g id="Welcome" stroke="none" stroke-width="1" fill="none" fill-rule="evenodd" sketch:type="MSPage">
        <g id="Desktop-HD---Product" sketch:type="MSArtboardGroup" transform="translate(-138.000000, -2100.000000)">
            <g id="proactive-graphic" sketch:type="MSLayerGroup" transform="translate(138.000000, 2100.000000)">
                <path d="M154.704266,411.412671 L29.1952479,411.412671 C13.7968023,411.412671 1.31410315,398.931747 1.31410315,383.536132 L1.31410315,54.6075643 C1.31410315,39.2119488 13.7968023,26.7310248 29.1952479,26.7310248 L154.704266,26.7310248 C170.102072,26.7310248 182.584771,39.2119488 182.584771,54.6075643 L182.584771,383.536132 C182.584771,398.931747 170.102072,411.412671 154.704266,411.412671" id="Fill-1" fill="#FFFFFF" sketch:type="MSShapeGroup"></path>
                <path d="M154.704266,412.693291 L29.1952479,412.693291 C13.1154155,412.693291 0.0339412607,399.613678 0.0339412607,383.535491 L0.0339412607,54.6075643 C0.0339412607,38.5306589 13.1154155,25.4504047 29.1952479,25.4504047 L154.704266,25.4504047 C170.784099,25.4504047 183.865573,38.5306589 183.865573,54.6075643 L183.865573,383.535491 C183.865573,399.613678 170.784099,412.693291 154.704266,412.693291 L154.704266,412.693291 Z M29.1952479,28.011645 C14.5281404,28.011645 2.59554585,39.9425426 2.59554585,54.6075643 L2.59554585,383.535491 C2.59554585,398.201153 14.5281404,410.132691 29.1952479,410.132691 L154.704266,410.132691 C169.371374,410.132691 181.303968,398.201153 181.303968,383.535491 L181.303968,54.6075643 C181.303968,39.9425426 169.371374,28.011645 154.704266,28.011645 L29.1952479,28.011645 L29.1952479,28.011645 Z" id="Fill-2" fill="#AFBAB9" sketch:type="MSShapeGroup"></path>
                <path d="M107.944096,383.789695 C107.944096,392.622132 100.78313,399.782079 91.949437,399.782079 C83.116384,399.782079 75.9554183,392.622132 75.9554183,383.789695 C75.9554183,374.957257 83.116384,367.79795 91.949437,367.79795 C100.78313,367.79795 107.944096,374.957257 107.944096,383.789695" id="Fill-3" fill="#DFE0DC" sketch:type="MSShapeGroup"></path>
                <path d="M91.949437,401.062699 C82.4241103,401.062699 74.674616,393.314307 74.674616,383.789695 C74.674616,374.265722 82.4241103,366.51669 91.949437,366.51669 C101.474764,366.51669 109.224898,374.265722 109.224898,383.789695 C109.224898,393.314307 101.474764,401.062699 91.949437,401.062699 L91.949437,401.062699 Z M91.949437,369.07793 C83.8361948,369.07793 77.2355802,375.677606 77.2355802,383.789695 C77.2355802,391.901783 83.8361948,398.502099 91.949437,398.502099 C100.062679,398.502099 106.663294,391.901783 106.663294,383.789695 C106.663294,375.677606 100.062679,369.07793 91.949437,369.07793 L91.949437,369.07793 Z" id="Fill-4" fill="#AFBAB9" sketch:type="MSShapeGroup"></path>
                <path d="M11.7808195,80.0387597 L171.240705,80.0387597 L171.240705,356.167358 L11.7808195,356.167358 L11.7808195,80.0387597 Z" id="Fill-5" fill="#FFFFFF" sketch:type="MSShapeGroup"></path>
                <path d="M10.4993768,78.7581395 L172.520867,78.7581395 L172.520867,357.447338 L10.4993768,357.447338 L10.4993768,78.7581395 Z M13.0616218,354.886098 L169.959903,354.886098 L169.959903,81.3193798 L13.0616218,81.3193798 L13.0616218,354.886098 Z" id="Fill-6" fill="#AFBAB9" sketch:type="MSShapeGroup"></path>
                <path d="M103.300547,64.0463752 L80.5983266,64.0463752 C79.1049112,64.0463752 77.8939126,62.8355488 77.8939126,61.3417054 L77.8939126,60.9357488 C77.8939126,59.4419054 79.1049112,58.2310791 80.5983266,58.2310791 L103.300547,58.2310791 C104.794603,58.2310791 106.004961,59.4419054 106.004961,60.9357488 L106.004961,61.3417054 C106.004961,62.8355488 104.794603,64.0463752 103.300547,64.0463752" id="Fill-7" fill="#DFE0DC" sketch:type="MSShapeGroup"></path>
                <path d="M103.300547,65.326355 L80.5983266,65.326355 C78.4011103,65.326355 76.6131103,63.5392496 76.6131103,61.3423457 L76.6131103,60.9351085 C76.6131103,58.7375643 78.4011103,56.9504589 80.5983266,56.9504589 L103.300547,56.9504589 C105.497764,56.9504589 107.285764,58.7375643 107.285764,60.9351085 L107.285764,61.3423457 C107.285764,63.5392496 105.497764,65.326355 103.300547,65.326355 L103.300547,65.326355 Z M80.5983266,59.5110589 C79.8131948,59.5110589 79.1747149,60.1494481 79.1747149,60.9351085 L79.1747149,61.3423457 C79.1747149,62.1267256 79.8131948,62.765755 80.5983266,62.765755 L103.300547,62.765755 C104.085679,62.765755 104.724159,62.1267256 104.724159,61.3423457 L104.724159,60.9351085 C104.724159,60.1494481 104.085679,59.5110589 103.300547,59.5110589 L80.5983266,59.5110589 L80.5983266,59.5110589 Z" id="Fill-8" fill="#AFBAB9" sketch:type="MSShapeGroup"></path>
                <path d="M64.008735,232.019558 L86.6161762,192.951679 C88.978616,189.524099 94.0429083,189.524099 96.4053481,192.951679 L119.012789,232.019558 C121.730011,235.961947 118.906483,241.334149 114.118203,241.334149 L68.9033209,241.334149 C64.1144011,241.334149 61.2915129,235.961947 64.008735,232.019558" id="Fill-9" fill="#DE4243" sketch:type="MSShapeGroup"></path>
                <path d="M91.4761805,226.154318 C93.2712249,226.154318 94.789616,227.673133 94.789616,229.467282 C94.789616,231.226854 93.2712249,232.711093 91.4761805,232.711093 C89.7163582,232.711093 88.2319083,231.226854 88.2319083,229.467282 C88.2319083,227.673133 89.7163582,226.154318 91.4761805,226.154318 L91.4761805,226.154318 Z M90.1300573,222.427713 L88.4393983,212.799371 L88.4393983,208.865305 C88.4393983,208.520178 88.7499928,208.209628 89.0951691,208.209628 L93.9269957,208.209628 C94.2721719,208.209628 94.5827665,208.520178 94.5827665,208.865305 L94.5827665,212.730217 L92.8921074,222.427713 C92.8568854,222.703047 92.5469312,222.97902 92.2356963,222.97902 L90.7864685,222.97902 C90.4752335,222.97902 90.1652794,222.703047 90.1300573,222.427713 L90.1300573,222.427713 Z" id="Fill-10" fill="#FFFFFF" sketch:type="MSShapeGroup"></path>
                <path d="M367.559519,158.809065 L199.353034,158.809065 C155.567527,158.809065 120.072013,123.318598 120.072013,79.5399581 C120.072013,35.7606775 155.567527,0.270210853 199.353034,0.270210853 L367.559519,0.270210853 C411.345666,0.270210853 446.84054,35.7606775 446.84054,79.5399581 C446.84054,123.318598 411.345666,158.809065 367.559519,158.809065" id="Fill-11" fill="#4690DC" sketch:type="MSShapeGroup"></path>
                <path d="M158.584457,37.1815256 C158.482633,36.8229519 158.686921,36.5668279 159.046186,36.5668279 L160.761181,36.5668279 C160.966109,36.5668279 161.171678,36.746755 161.22291,36.9254016 L164.321811,48.6795736 L164.424275,48.6795736 L168.59841,36.5930806 C168.650282,36.4387659 168.829595,36.3113442 169.033883,36.3113442 L169.494971,36.3113442 C169.6999,36.3113442 169.879852,36.4387659 169.930444,36.5930806 L174.156451,48.6795736 L174.258915,48.6795736 L177.306585,36.9254016 C177.357817,36.746755 177.562745,36.5668279 177.767673,36.5668279 L179.483948,36.5668279 C179.842573,36.5668279 180.046861,36.8229519 179.944397,37.1815256 L175.104245,54.3898589 C175.053013,54.5953984 174.848085,54.7490729 174.643156,54.7490729 L174.233299,54.7490729 C174.053987,54.7490729 173.849699,54.6210109 173.798467,54.4673364 L169.290683,41.7405333 L169.161963,41.7405333 L164.731668,54.4673364 C164.679795,54.6210109 164.475507,54.7490729 164.296195,54.7490729 L163.886338,54.7490729 C163.68141,54.7490729 163.476481,54.5953984 163.425249,54.3898589 L158.584457,37.1815256" id="Fill-12" fill="#FFFFFF" sketch:type="MSShapeGroup"></path>
                <path d="M186.518115,43.9931442 C189.181543,43.9931442 191.230186,45.9909116 191.230186,48.7307984 C191.230186,48.9100853 191.20457,49.2424062 191.178954,49.4223333 C191.153338,49.6784574 190.94905,49.8577442 190.717865,49.8577442 L183.752222,49.8577442 C183.82907,51.240814 185.033024,52.5982713 186.697427,52.5982713 C187.619605,52.5982713 188.464294,52.1878326 188.976615,51.8548713 C189.284007,51.6755845 189.46396,51.5737752 189.668248,51.8292589 L190.385497,52.8025302 C190.564809,53.0067891 190.641017,53.2116884 190.334265,53.4684527 C189.5914,54.1087628 188.260006,54.7490729 186.543731,54.7490729 C183.44483,54.7490729 181.395546,52.3158946 181.395546,49.3717488 C181.395546,46.4775473 183.44483,43.9931442 186.518115,43.9931442 L186.518115,43.9931442 Z M188.849175,48.2441628 C188.772327,47.0154078 187.747685,45.9646589 186.492499,45.9646589 C185.109872,45.9646589 184.033358,46.9641829 183.880302,48.2441628 L188.849175,48.2441628 L188.849175,48.2441628 Z" id="Fill-13" fill="#FFFFFF" sketch:type="MSShapeGroup"></path>
                <path d="M194.497513,37.0534636 C194.497513,36.7979798 194.728057,36.5668279 194.984218,36.5668279 L196.443692,36.5668279 C196.699852,36.5668279 196.930397,36.7979798 196.930397,37.0534636 L196.930397,54.0063132 C196.930397,54.2624372 196.699852,54.4923085 196.443692,54.4923085 L194.984218,54.4923085 C194.728057,54.4923085 194.497513,54.2624372 194.497513,54.0063132 L194.497513,37.0534636" id="Fill-14" fill="#FFFFFF" sketch:type="MSShapeGroup"></path>
                <path d="M205.611675,43.9931442 C207.174254,43.9931442 208.377567,44.6334543 209.325361,45.8116248 C209.504673,46.0421364 209.452801,46.3494853 209.222897,46.5287721 L208.377567,47.2965039 C208.070175,47.5782403 207.890862,47.3733411 207.686574,47.1940543 C207.225486,46.6824465 206.48262,46.2214233 205.63665,46.2214233 C203.972888,46.2214233 202.66647,47.6294651 202.66647,49.3717488 C202.66647,51.137724 203.947272,52.5470465 205.611675,52.5470465 C206.917453,52.5470465 207.45539,51.8804837 207.993327,51.368876 C208.224511,51.137724 208.454415,51.137724 208.68496,51.3176512 L209.376593,51.8804837 C209.632754,52.0853829 209.735218,52.341507 209.555265,52.5982713 C208.736192,53.9038636 207.352926,54.7490729 205.586059,54.7490729 C202.717702,54.7490729 200.232946,52.4689287 200.232946,49.3967209 C200.232946,46.3750977 202.768934,43.9931442 205.611675,43.9931442" id="Fill-15" fill="#FFFFFF" sketch:type="MSShapeGroup"></path>
                <path d="M217.103033,43.9931442 C219.97139,43.9931442 222.276193,46.4512946 222.276193,49.3448558 C222.276193,52.2902822 219.97139,54.7490729 217.103033,54.7490729 C214.234036,54.7490729 211.929232,52.2902822 211.929232,49.3448558 C211.929232,46.4512946 214.234036,43.9931442 217.103033,43.9931442 L217.103033,43.9931442 Z M217.103033,52.5470465 C218.716203,52.5470465 219.997006,51.1121116 219.997006,49.3448558 C219.997006,47.6294651 218.716203,46.2214233 217.103033,46.2214233 C215.489222,46.2214233 214.20842,47.6294651 214.20842,49.3448558 C214.20842,51.1121116 215.489222,52.5470465 217.103033,52.5470465 L217.103033,52.5470465 Z" id="Fill-16" fill="#FFFFFF" sketch:type="MSShapeGroup"></path>
                <path d="M225.604999,44.7359039 C225.604999,44.4804202 225.835543,44.2492682 226.091703,44.2492682 L226.808953,44.2492682 C227.038857,44.2492682 227.167577,44.3779705 227.244426,44.5566171 L227.525562,45.4267984 C227.756746,45.1969271 228.934444,43.9931442 230.906239,43.9931442 C232.39261,43.9931442 233.467844,44.5822295 234.210709,45.6316977 C234.492486,45.3506016 235.977576,43.9931442 237.924395,43.9931442 C241.048913,43.9931442 242.150403,46.1951705 242.150403,48.8588605 L242.150403,54.0063132 C242.150403,54.2624372 241.945474,54.4923085 241.663698,54.4923085 L240.229199,54.4923085 C239.948063,54.4923085 239.742494,54.2624372 239.742494,54.0063132 L239.742494,48.7564109 C239.742494,47.1428295 238.999629,46.2214233 237.617003,46.2214233 C236.054424,46.2214233 235.157862,47.3221163 234.979191,47.4757907 C235.030423,47.7069426 235.056039,48.1935783 235.056039,48.705186 L235.056039,54.0063132 C235.056039,54.2624372 234.825494,54.4923085 234.569334,54.4923085 L233.211683,54.4923085 C232.930547,54.4923085 232.724979,54.2624372 232.724979,54.0063132 L232.724979,48.7564109 C232.724979,47.1178574 231.982113,46.2214233 230.548255,46.2214233 C229.011292,46.2214233 228.140347,47.4245659 228.012907,47.7581674 L228.012907,54.0063132 C228.012907,54.2624372 227.782362,54.4923085 227.525562,54.4923085 L226.091703,54.4923085 C225.835543,54.4923085 225.604999,54.2624372 225.604999,54.0063132 L225.604999,44.7359039" id="Fill-17" fill="#FFFFFF" sketch:type="MSShapeGroup"></path>
                <path d="M250.539658,43.9931442 C253.203086,43.9931442 255.251729,45.9909116 255.251729,48.7307984 C255.251729,48.9100853 255.226113,49.2424062 255.200497,49.4223333 C255.174881,49.6784574 254.970593,49.8577442 254.739408,49.8577442 L247.773125,49.8577442 C247.849973,51.240814 249.053927,52.5982713 250.71897,52.5982713 C251.640507,52.5982713 252.485837,52.1878326 252.998158,51.8548713 C253.30555,51.6755845 253.484862,51.5737752 253.689791,51.8292589 L254.40704,52.8025302 C254.586352,53.0067891 254.66256,53.2116884 254.355808,53.4684527 C253.612302,54.1087628 252.280908,54.7490729 250.565274,54.7490729 C247.466372,54.7490729 245.417089,52.3158946 245.417089,49.3717488 C245.417089,46.4775473 247.466372,43.9931442 250.539658,43.9931442 L250.539658,43.9931442 Z M252.870077,48.2441628 C252.793229,47.0154078 251.769228,45.9646589 250.514042,45.9646589 C249.130775,45.9646589 248.054901,46.9641829 247.901205,48.2441628 L252.870077,48.2441628 L252.870077,48.2441628 Z" id="Fill-18" fill="#FFFFFF" sketch:type="MSShapeGroup"></path>
                <path d="M266.062981,46.3750977 L264.987107,46.3750977 C264.705331,46.3750977 264.500403,46.1452264 264.500403,45.888462 L264.500403,44.7359039 C264.500403,44.4541674 264.705331,44.2492682 264.987107,44.2492682 L266.062981,44.2492682 L266.062981,41.4069318 C266.062981,41.1508078 266.292885,40.9202961 266.549686,40.9202961 L268.00916,40.8946837 C268.265321,40.8946837 268.470249,41.1251953 268.470249,41.3813194 L268.470249,44.2492682 L271.083086,44.2492682 C271.364222,44.2492682 271.569791,44.4541674 271.569791,44.7359039 L271.569791,45.888462 C271.569791,46.1452264 271.364222,46.3750977 271.083086,46.3750977 L268.470249,46.3750977 L268.470249,51.4450729 C268.470249,52.3158946 268.803258,52.4689287 269.289963,52.4689287 C269.8279,52.4689287 270.545149,52.1628605 270.851901,52.0085457 C271.18491,51.8548713 271.338606,52.0085457 271.44107,52.2390574 L271.902159,53.3660031 C272.030239,53.6470992 271.927775,53.8526388 271.671615,53.9807008 C271.415454,54.1337349 269.904748,54.7490729 268.675178,54.7490729 C266.65215,54.7490729 266.062981,53.5196775 266.062981,51.7011969 L266.062981,46.3750977" id="Fill-19" fill="#FFFFFF" sketch:type="MSShapeGroup"></path>
                <path d="M279.057361,43.9931442 C281.925718,43.9931442 284.230521,46.4512946 284.230521,49.3448558 C284.230521,52.2902822 281.925718,54.7490729 279.057361,54.7490729 C276.188364,54.7490729 273.88356,52.2902822 273.88356,49.3448558 C273.88356,46.4512946 276.188364,43.9931442 279.057361,43.9931442 L279.057361,43.9931442 Z M279.057361,52.5470465 C280.670532,52.5470465 281.951334,51.1121116 281.951334,49.3448558 C281.951334,47.6294651 280.670532,46.2214233 279.057361,46.2214233 C277.44355,46.2214233 276.162748,47.6294651 276.162748,49.3448558 C276.162748,51.1121116 277.44355,52.5470465 279.057361,52.5470465 L279.057361,52.5470465 Z" id="Fill-20" fill="#FFFFFF" sketch:type="MSShapeGroup"></path>
                <path d="M295.144878,46.3750977 L294.069004,46.3750977 C293.787228,46.3750977 293.582299,46.1452264 293.582299,45.888462 L293.582299,44.7359039 C293.582299,44.4541674 293.787228,44.2492682 294.069004,44.2492682 L295.144878,44.2492682 L295.144878,41.4069318 C295.144878,41.1508078 295.374782,40.9202961 295.631583,40.9202961 L297.091057,40.8946837 C297.347218,40.8946837 297.552146,41.1251953 297.552146,41.3813194 L297.552146,44.2492682 L300.164983,44.2492682 C300.446119,44.2492682 300.651688,44.4541674 300.651688,44.7359039 L300.651688,45.888462 C300.651688,46.1452264 300.446119,46.3750977 300.164983,46.3750977 L297.552146,46.3750977 L297.552146,51.4450729 C297.552146,52.3158946 297.885155,52.4689287 298.37186,52.4689287 C298.909797,52.4689287 299.627046,52.1628605 299.933798,52.0085457 C300.266807,51.8548713 300.420503,52.0085457 300.522967,52.2390574 L300.984056,53.3660031 C301.112136,53.6470992 301.009672,53.8526388 300.753511,53.9807008 C300.497351,54.1337349 298.986645,54.7490729 297.757074,54.7490729 C295.734047,54.7490729 295.144878,53.5196775 295.144878,51.7011969 L295.144878,46.3750977" id="Fill-21" fill="#FFFFFF" sketch:type="MSShapeGroup"></path>
                <path d="M303.87995,37.0534636 C303.87995,36.7979798 304.110494,36.5668279 304.366014,36.5668279 L305.851745,36.5668279 C306.107905,36.5668279 306.33845,36.7979798 306.33845,37.0534636 L306.33845,45.0944775 C306.59461,44.915831 307.772948,43.9931442 309.411735,43.9931442 C312.306348,43.9931442 313.688974,46.0671085 313.688974,48.8588605 L313.688974,54.0063132 C313.688974,54.2624372 313.45843,54.4923085 313.202269,54.4923085 L311.768411,54.4923085 C311.486635,54.4923085 311.281066,54.2624372 311.281066,54.0063132 L311.281066,48.8069953 C311.281066,47.1428295 310.436377,46.2214233 309.104342,46.2214233 C307.541764,46.2214233 306.46653,47.3989535 306.33845,47.8343643 L306.33845,54.0063132 C306.33845,54.2874093 306.159138,54.4923085 305.826129,54.4923085 L304.366014,54.4923085 C304.110494,54.4923085 303.87995,54.2624372 303.87995,54.0063132 L303.87995,37.0534636" id="Fill-22" fill="#FFFFFF" sketch:type="MSShapeGroup"></path>
                <path d="M322.04813,43.9931442 C324.711559,43.9931442 326.760202,45.9909116 326.760202,48.7307984 C326.760202,48.9100853 326.734586,49.2424062 326.70897,49.4223333 C326.683354,49.6784574 326.479066,49.8577442 326.247881,49.8577442 L319.281597,49.8577442 C319.359086,51.240814 320.5624,52.5982713 322.227443,52.5982713 C323.14898,52.5982713 323.994309,52.1878326 324.50663,51.8548713 C324.814023,51.6755845 324.993335,51.5737752 325.198264,51.8292589 L325.915513,52.8025302 C326.094825,53.0067891 326.171033,53.2116884 325.864281,53.4684527 C325.120775,54.1087628 323.790021,54.7490729 322.073746,54.7490729 C318.974845,54.7490729 316.925562,52.3158946 316.925562,49.3717488 C316.925562,46.4775473 318.974845,43.9931442 322.04813,43.9931442 L322.04813,43.9931442 Z M324.37855,48.2441628 C324.301702,47.0154078 323.277701,45.9646589 322.022514,45.9646589 C320.639248,45.9646589 319.563374,46.9641829 319.410318,48.2441628 L324.37855,48.2441628 L324.37855,48.2441628 Z" id="Fill-23" fill="#FFFFFF" sketch:type="MSShapeGroup"></path>
                <path d="M340.260499,48.0136512 C341.336372,48.0136512 342.283526,48.321 342.283526,48.321 C342.309142,46.7074186 342.00239,46.0671085 340.695971,46.0671085 C339.517633,46.0671085 338.364911,46.3750977 337.826974,46.5287721 C337.520222,46.604969 337.34091,46.4007101 337.263421,46.1183333 L337.059133,45.1713147 C336.982285,44.8377132 337.160957,44.6590667 337.392142,44.5822295 C337.571454,44.5053922 339.030928,43.9931442 340.926516,43.9931442 C344.204729,43.9931442 344.512122,45.9909116 344.512122,48.5515116 L344.512122,54.0063132 C344.512122,54.2624372 344.281577,54.4923085 344.025417,54.4923085 L343.308168,54.4923085 C343.078264,54.4923085 342.975799,54.3898589 342.872695,54.1337349 L342.616534,53.4428403 C342.053622,53.9807008 341.054596,54.7490729 339.466401,54.7490729 C337.545838,54.7490729 336.162572,53.4428403 336.162572,51.3176512 C336.162572,49.4479457 337.648302,48.0136512 340.260499,48.0136512 L340.260499,48.0136512 Z M339.953106,52.9305922 C340.977748,52.9305922 341.951158,52.1628605 342.25791,51.6499721 L342.25791,50.0107783 C342.104213,49.908969 341.387605,49.6016202 340.465427,49.6016202 C339.236497,49.6016202 338.390527,50.2419302 338.390527,51.2913984 C338.390527,52.213445 339.005312,52.9305922 339.953106,52.9305922 L339.953106,52.9305922 Z" id="Fill-24" fill="#FFFFFF" sketch:type="MSShapeGroup"></path>
                <path d="M348.120142,38.5902078 C348.120142,37.7443581 348.760543,37.079076 349.580256,37.079076 C350.424946,37.079076 351.090963,37.7443581 351.090963,38.5902078 C351.090963,39.4091643 350.424946,40.0757271 349.580256,40.0757271 C348.760543,40.0757271 348.120142,39.4091643 348.120142,38.5902078 L348.120142,38.5902078 Z M348.401918,44.7359039 C348.401918,44.4804202 348.632463,44.2492682 348.888623,44.2492682 L350.348097,44.2492682 C350.604898,44.2492682 350.835443,44.4804202 350.835443,44.7359039 L350.835443,54.0063132 C350.835443,54.2624372 350.604898,54.4923085 350.348097,54.4923085 L348.888623,54.4923085 C348.632463,54.4923085 348.401918,54.2624372 348.401918,54.0063132 L348.401918,44.7359039 L348.401918,44.7359039 Z" id="Fill-25" fill="#FFFFFF" sketch:type="MSShapeGroup"></path>
                <path d="M354.803368,44.7359039 C354.803368,44.4804202 355.033913,44.2492682 355.290073,44.2492682 L356.032938,44.2492682 C356.21161,44.2492682 356.417179,44.4023023 356.468411,44.6078419 L356.749547,45.4780233 C356.92886,45.2225395 357.876653,43.9931442 359.746625,43.9931442 C360.719394,43.9931442 361.897732,44.2492682 361.615956,44.9401628 L361.001811,46.1951705 C360.873731,46.4775473 360.61693,46.5287721 360.387026,46.4263225 C360.23333,46.3494853 359.849089,46.2463953 359.51608,46.2463953 C358.03035,46.2463953 357.3131,47.3221163 357.211277,47.5014031 L357.211277,54.0063132 C357.211277,54.4410837 356.92886,54.4923085 356.519643,54.4923085 L355.290073,54.4923085 C355.033913,54.4923085 354.803368,54.2624372 354.803368,54.0063132 L354.803368,44.7359039" id="Fill-26" fill="#FFFFFF" sketch:type="MSShapeGroup"></path>
                <path d="M366.703943,61.6887535 C366.703943,61.9698496 366.525271,62.1753891 366.166006,62.1753891 L364.732148,62.1753891 C364.476628,62.1753891 364.245443,61.9448775 364.245443,61.6887535 L364.245443,44.7359039 C364.245443,44.4804202 364.476628,44.2492682 364.732148,44.2492682 L365.500629,44.2492682 C365.705557,44.2492682 365.833638,44.3517178 365.936102,44.5822295 L366.191622,45.2481519 C366.371574,45.0688651 367.421192,43.9931442 369.316779,43.9931442 C372.134544,43.9931442 374.208804,46.4512946 374.208804,49.3967209 C374.208804,52.3927318 372.005824,54.7490729 369.214315,54.7490729 C367.882281,54.7490729 366.883255,54.1599876 366.703943,54.057538 L366.703943,61.6887535 L366.703943,61.6887535 Z M368.906923,52.5470465 C370.596941,52.5470465 371.826511,51.137724 371.826511,49.3967209 C371.826511,47.6806899 370.751278,46.2214233 369.009387,46.2214233 C367.523656,46.2214233 366.755175,47.3989535 366.653351,47.7069426 L366.653351,51.8036465 C366.653351,51.8036465 367.549913,52.5470465 368.906923,52.5470465 L368.906923,52.5470465 Z" id="Fill-27" fill="#FFFFFF" sketch:type="MSShapeGroup"></path>
                <path d="M382.067807,43.9931442 C384.936804,43.9931442 387.240967,46.4512946 387.240967,49.3448558 C387.240967,52.2902822 384.936804,54.7490729 382.067807,54.7490729 C379.19945,54.7490729 376.894006,52.2902822 376.894006,49.3448558 C376.894006,46.4512946 379.19945,43.9931442 382.067807,43.9931442 L382.067807,43.9931442 Z M382.067807,52.5470465 C383.681617,52.5470465 384.96242,51.1121116 384.96242,49.3448558 C384.96242,47.6294651 383.681617,46.2214233 382.067807,46.2214233 C380.454636,46.2214233 379.173834,47.6294651 379.173834,49.3448558 C379.173834,51.1121116 380.454636,52.5470465 382.067807,52.5470465 L382.067807,52.5470465 Z" id="Fill-28" fill="#FFFFFF" sketch:type="MSShapeGroup"></path>
                <path d="M390.571053,44.7359039 C390.571053,44.4804202 390.801597,44.2492682 391.057117,44.2492682 L391.800623,44.2492682 C391.979295,44.2492682 392.184223,44.4023023 392.235456,44.6078419 L392.517232,45.4780233 C392.696544,45.2225395 393.644338,43.9931442 395.513669,43.9931442 C396.487079,43.9931442 397.665417,44.2492682 397.383,44.9401628 L396.769496,46.1951705 C396.640775,46.4775473 396.384615,46.5287721 396.154711,46.4263225 C396.000374,46.3494853 395.616774,46.2463953 395.283125,46.2463953 C393.798034,46.2463953 393.080785,47.3221163 392.978321,47.5014031 L392.978321,54.0063132 C392.978321,54.4410837 392.696544,54.4923085 392.286688,54.4923085 L391.057117,54.4923085 C390.801597,54.4923085 390.571053,54.2624372 390.571053,54.0063132 L390.571053,44.7359039" id="Fill-29" fill="#FFFFFF" sketch:type="MSShapeGroup"></path>
                <path d="M401.147918,46.3750977 L400.072685,46.3750977 C399.790268,46.3750977 399.58598,46.1452264 399.58598,45.888462 L399.58598,44.7359039 C399.58598,44.4541674 399.790268,44.2492682 400.072685,44.2492682 L401.147918,44.2492682 L401.147918,41.4069318 C401.147918,41.1508078 401.378463,40.9202961 401.634623,40.9202961 L403.094097,40.8946837 C403.350898,40.8946837 403.555186,41.1251953 403.555186,41.3813194 L403.555186,44.2492682 L406.168023,44.2492682 C406.449799,44.2492682 406.654728,44.4541674 406.654728,44.7359039 L406.654728,45.888462 C406.654728,46.1452264 406.449799,46.3750977 406.168023,46.3750977 L403.555186,46.3750977 L403.555186,51.4450729 C403.555186,52.3158946 403.888835,52.4689287 404.3749,52.4689287 C404.912837,52.4689287 405.630086,52.1628605 405.937479,52.0085457 C406.269847,51.8548713 406.424183,52.0085457 406.526648,52.2390574 L406.987736,53.3660031 C407.115817,53.6470992 407.013352,53.8526388 406.756552,53.9807008 C406.501032,54.1337349 404.989685,54.7490729 403.760115,54.7490729 C401.737087,54.7490729 401.147918,53.5196775 401.147918,51.7011969 L401.147918,46.3750977" id="Fill-30" fill="#FFFFFF" sketch:type="MSShapeGroup"></path>
                <path d="M411.903456,51.1889488 C412.902481,51.1889488 413.696579,51.9829333 413.696579,52.9818171 C413.696579,53.9544481 412.902481,54.7490729 411.903456,54.7490729 C410.956302,54.7490729 410.136589,53.9544481 410.136589,52.9818171 C410.136589,51.9829333 410.956302,51.1889488 411.903456,51.1889488 L411.903456,51.1889488 Z M411.161231,47.1178574 L410.418365,39.9732775 L410.418365,37.0534636 C410.418365,36.7979798 410.648269,36.5668279 410.90507,36.5668279 L412.953713,36.5668279 C413.209874,36.5668279 413.440418,36.7979798 413.440418,37.0534636 L413.440418,39.9220527 L412.698193,47.1178574 C412.671937,47.3221163 412.441393,47.5276558 412.211489,47.5276558 L411.647936,47.5276558 C411.416751,47.5276558 411.186206,47.3221163 411.161231,47.1178574 L411.161231,47.1178574 Z" id="Fill-31" fill="#FFFFFF" sketch:type="MSShapeGroup"></path>
                <path d="M163.732642,76.5977333 L157.739128,68.043831 C157.534199,67.7115101 157.739128,67.3017116 158.148984,67.3017116 L160.044572,67.3017116 C160.24886,67.3017116 160.37758,67.4297736 160.454428,67.5328636 L165.090292,74.0621054 L169.725516,67.5328636 C169.802364,67.4297736 169.956701,67.3017116 170.135372,67.3017116 L172.056576,67.3017116 C172.466433,67.3017116 172.671361,67.7115101 172.466433,68.043831 L166.39607,76.5721209 L166.39607,84.7411969 C166.39607,84.9973209 166.166166,85.2271922 165.909365,85.2271922 L164.219347,85.2271922 C163.93757,85.2271922 163.732642,84.9973209 163.732642,84.7411969 L163.732642,76.5977333" id="Fill-32" fill="#FFFFFF" sketch:type="MSShapeGroup"></path>
                <path d="M177.319393,74.7280279 C180.187749,74.7280279 182.492553,77.1861783 182.492553,80.0797395 C182.492553,83.0251659 180.187749,85.4839566 177.319393,85.4839566 C174.450395,85.4839566 172.145592,83.0251659 172.145592,80.0797395 C172.145592,77.1861783 174.450395,74.7280279 177.319393,74.7280279 L177.319393,74.7280279 Z M177.319393,83.2819302 C178.932563,83.2819302 180.213365,81.8469953 180.213365,80.0797395 C180.213365,78.3643488 178.932563,76.956307 177.319393,76.956307 C175.705582,76.956307 174.424779,78.3643488 174.424779,80.0797395 C174.424779,81.8469953 175.705582,83.2819302 177.319393,83.2819302 L177.319393,83.2819302 Z" id="Fill-33" fill="#FFFFFF" sketch:type="MSShapeGroup"></path>
                <path d="M185.663179,75.4707876 C185.663179,75.2153039 185.893723,74.9841519 186.149884,74.9841519 L187.609999,74.9841519 C187.865519,74.9841519 188.096703,75.2153039 188.096703,75.4707876 L188.096703,80.7200496 C188.096703,82.3848558 188.89016,83.2819302 190.196579,83.2819302 C191.707285,83.2819302 192.655079,82.0525349 192.731927,81.5908713 L192.731927,75.4707876 C192.731927,75.0609891 192.936855,74.9841519 193.29548,74.9841519 L194.627514,74.9841519 C194.883034,74.9841519 195.114219,75.2153039 195.114219,75.4707876 L195.114219,84.7411969 C195.114219,84.9973209 194.883034,85.2271922 194.627514,85.2271922 L193.910265,85.2271922 C193.654745,85.2271922 193.526024,85.0485457 193.449176,84.8180341 L193.193016,84.0746341 C192.962471,84.2795333 191.887238,85.4839566 189.812979,85.4839566 C186.739053,85.4839566 185.663179,83.306262 185.663179,80.6438527 L185.663179,75.4707876" id="Fill-34" fill="#FFFFFF" sketch:type="MSShapeGroup"></path>
                <path d="M199.109042,75.4707876 C199.109042,75.2153039 199.339586,74.9841519 199.595746,74.9841519 L200.338612,74.9841519 C200.517284,74.9841519 200.722852,75.137186 200.774085,75.3427256 L201.055221,76.212907 C201.234533,75.9574233 202.182327,74.7280279 204.052298,74.7280279 C205.025067,74.7280279 206.203405,74.9841519 205.921629,75.6750465 L205.307484,76.9300543 C205.179404,77.212431 204.922603,77.2636558 204.692699,77.1612062 C204.539003,77.084369 204.154762,76.9812791 203.821113,76.9812791 C202.336023,76.9812791 201.618774,78.057 201.51695,78.2362868 L201.51695,84.7411969 C201.51695,85.1759674 201.234533,85.2271922 200.825317,85.2271922 L199.595746,85.2271922 C199.339586,85.2271922 199.109042,84.9973209 199.109042,84.7411969 L199.109042,75.4707876" id="Fill-35" fill="#FFFFFF" sketch:type="MSShapeGroup"></path>
                <path d="M216.21992,77.084369 L214.965374,77.084369 C214.682957,77.084369 214.478669,76.8532171 214.478669,76.5977333 L214.478669,75.4707876 C214.478669,75.1890512 214.682957,74.9841519 214.965374,74.9841519 L216.21992,74.9841519 L216.21992,71.8088543 C216.21992,68.659169 218.346052,67.0462279 220.804552,67.0462279 C222.981275,67.0462279 224.313309,68.4286574 224.313309,68.4286574 L224.543854,67.7371225 C224.646318,67.5059705 224.774398,67.3017116 225.107407,67.3017116 L225.722192,67.3017116 C225.978352,67.3017116 226.208256,67.5328636 226.208256,67.7883473 L226.208256,84.7411969 C226.208256,84.9973209 225.978352,85.2271922 225.722192,85.2271922 L224.262077,85.2271922 C224.005917,85.2271922 223.776013,84.9973209 223.776013,84.7411969 L223.776013,70.8106109 C223.699165,70.7081612 222.674523,69.3763163 221.00948,69.3763163 C219.883014,69.3763163 218.67906,70.0422388 218.67906,71.8088543 L218.67906,74.9841519 L221.240024,74.9841519 C221.521801,74.9841519 221.726089,75.1890512 221.726089,75.4707876 L221.726089,76.5977333 C221.726089,76.8532171 221.521801,77.084369 221.240024,77.084369 L218.67906,77.084369 L218.67906,84.7411969 C218.67906,84.9973209 218.447875,85.2271922 218.192355,85.2271922 L216.681009,85.2271922 C216.424848,85.2271922 216.21992,84.9973209 216.21992,84.7411969 L216.21992,77.084369" id="Fill-36" fill="#FFFFFF" sketch:type="MSShapeGroup"></path>
                <path d="M230.057067,69.3250915 C230.057067,68.4792419 230.697468,67.8139597 231.517182,67.8139597 C232.362511,67.8139597 233.028529,68.4792419 233.028529,69.3250915 C233.028529,70.1440481 232.362511,70.8106109 231.517182,70.8106109 C230.697468,70.8106109 230.057067,70.1440481 230.057067,69.3250915 L230.057067,69.3250915 Z M230.339484,75.4707876 C230.339484,75.2153039 230.570029,74.9841519 230.825549,74.9841519 L232.285663,74.9841519 C232.541824,74.9841519 232.773009,75.2153039 232.773009,75.4707876 L232.773009,84.7411969 C232.773009,84.9973209 232.541824,85.2271922 232.285663,85.2271922 L230.825549,85.2271922 C230.570029,85.2271922 230.339484,84.9973209 230.339484,84.7411969 L230.339484,75.4707876 L230.339484,75.4707876 Z" id="Fill-37" fill="#FFFFFF" sketch:type="MSShapeGroup"></path>
                <path d="M237.617003,81.6933209 C237.617003,81.6933209 236.822905,80.745662 236.822905,79.2095581 C236.822905,76.828245 238.616029,74.7280279 241.228225,74.7280279 L245.710393,74.7280279 C245.991529,74.7280279 246.196457,74.9329271 246.196457,75.2153039 L246.196457,75.8549736 C246.196457,76.0342605 246.093993,76.2647721 245.914681,76.2903845 L244.506438,76.6745705 C244.506438,76.6745705 245.607288,77.4935271 245.607288,79.4144574 C245.607288,81.5908713 243.917269,83.5886388 241.253841,83.5886388 C239.947423,83.5886388 239.230814,83.1788403 239.025245,83.1788403 C238.845933,83.1788403 237.974987,83.6142512 237.974987,84.4332078 C237.974987,85.022293 238.436076,85.4839566 239.204557,85.4839566 L242.687699,85.4839566 C244.915655,85.4839566 246.708778,86.6870992 246.708778,88.914738 C246.708778,91.1686295 244.660135,93.1663969 241.253841,93.1663969 C237.641979,93.1663969 236.182504,91.3223039 236.182504,89.6574977 C236.182504,88.1213938 237.437691,87.4042465 237.693211,87.2512124 L237.693211,87.1730946 C237.155274,87.0194202 235.798264,86.3285256 235.798264,84.6124946 C235.798264,82.6409798 237.617003,81.6933209 237.617003,81.6933209 L237.617003,81.6933209 Z M241.228225,91.0661798 C242.790163,91.0661798 244.147814,90.2721953 244.147814,89.0434403 C244.147814,88.6336419 243.891653,87.5835333 242.22661,87.5835333 C241.483745,87.5835333 240.715904,87.5835333 239.973039,87.6347581 C239.819342,87.6859829 238.564156,88.0957814 238.564156,89.2483395 C238.564156,90.2978078 239.665646,91.0661798 241.228225,91.0661798 L241.228225,91.0661798 Z M243.430564,79.2607829 C243.430564,77.8777132 242.559619,76.9044419 241.279457,76.9044419 C239.973039,76.9044419 239.025245,77.8777132 239.025245,79.2607829 C239.025245,80.6438527 239.973039,81.617124 241.279457,81.617124 C242.559619,81.617124 243.430564,80.6438527 243.430564,79.2607829 L243.430564,79.2607829 Z" id="Fill-38" fill="#FFFFFF" sketch:type="MSShapeGroup"></path>
                <path d="M249.112844,67.7883473 C249.112844,67.5328636 249.343388,67.3017116 249.599549,67.3017116 L251.084639,67.3017116 C251.34144,67.3017116 251.571344,67.5328636 251.571344,67.7883473 L251.571344,75.8293612 C251.827504,75.6507147 253.005842,74.7280279 254.645269,74.7280279 C257.539242,74.7280279 258.921868,76.8019922 258.921868,79.5937442 L258.921868,84.7411969 C258.921868,84.9973209 258.691324,85.2271922 258.435804,85.2271922 L257.001946,85.2271922 C256.719529,85.2271922 256.5146,84.9973209 256.5146,84.7411969 L256.5146,79.5418791 C256.5146,77.8777132 255.669271,76.956307 254.337236,76.956307 C252.775298,76.956307 251.699424,78.1338372 251.571344,78.5692481 L251.571344,84.7411969 C251.571344,85.022293 251.392672,85.2271922 251.059023,85.2271922 L249.599549,85.2271922 C249.343388,85.2271922 249.112844,84.9973209 249.112844,84.7411969 L249.112844,67.7883473" id="Fill-39" fill="#FFFFFF" sketch:type="MSShapeGroup"></path>
                <path d="M263.2196,77.1099814 L262.143726,77.1099814 C261.861309,77.1099814 261.657021,76.8801101 261.657021,76.6233457 L261.657021,75.4707876 C261.657021,75.1890512 261.861309,74.9841519 262.143726,74.9841519 L263.2196,74.9841519 L263.2196,72.1418155 C263.2196,71.8856915 263.449504,71.6551798 263.705665,71.6551798 L265.165139,71.6295674 C265.42194,71.6295674 265.626228,71.8600791 265.626228,72.1162031 L265.626228,74.9841519 L268.239064,74.9841519 C268.520841,74.9841519 268.725769,75.1890512 268.725769,75.4707876 L268.725769,76.6233457 C268.725769,76.8801101 268.520841,77.1099814 268.239064,77.1099814 L265.626228,77.1099814 L265.626228,82.1799566 C265.626228,83.0507783 265.959877,83.2038124 266.446582,83.2038124 C266.983878,83.2038124 267.701128,82.8977442 268.00852,82.7440698 C268.341529,82.589755 268.495225,82.7440698 268.597689,82.9739411 L269.058778,84.1008868 C269.186858,84.3819829 269.084394,84.5875225 268.827593,84.7155845 C268.572073,84.8686186 267.060726,85.4839566 265.831797,85.4839566 C263.808129,85.4839566 263.2196,84.2545612 263.2196,82.4360806 L263.2196,77.1099814" id="Fill-40" fill="#FFFFFF" sketch:type="MSShapeGroup"></path>
                <path d="M278.819132,69.3250915 C278.819132,68.4792419 279.459533,67.8139597 280.279246,67.8139597 C281.123936,67.8139597 281.790593,68.4792419 281.790593,69.3250915 C281.790593,70.1440481 281.123936,70.8106109 280.279246,70.8106109 C279.459533,70.8106109 278.819132,70.1440481 278.819132,69.3250915 L278.819132,69.3250915 Z M279.100908,75.4707876 C279.100908,75.2153039 279.332093,74.9841519 279.587613,74.9841519 L281.047087,74.9841519 C281.303888,74.9841519 281.534433,75.2153039 281.534433,75.4707876 L281.534433,84.7411969 C281.534433,84.9973209 281.303888,85.2271922 281.047087,85.2271922 L279.587613,85.2271922 C279.332093,85.2271922 279.100908,84.9973209 279.100908,84.7411969 L279.100908,75.4707876 L279.100908,75.4707876 Z" id="Fill-41" fill="#FFFFFF" sketch:type="MSShapeGroup"></path>
                <path d="M284.913189,83.8959876 L285.451126,82.8977442 C285.55359,82.6922047 285.835367,82.6153674 286.091527,82.7684016 C286.091527,82.7684016 287.218633,83.4356047 288.473819,83.4356047 C289.24166,83.4356047 289.728365,83.1276155 289.728365,82.5641426 C289.728365,81.8726078 289.164812,81.5402868 287.75657,80.8999767 C286.168375,80.2084419 284.836341,79.2351705 284.836341,77.5447519 C284.836341,76.2647721 285.886599,74.7280279 288.345739,74.7280279 C289.779597,74.7280279 290.855471,75.1890512 291.367792,75.5220124 C291.598337,75.6750465 291.726417,76.0086481 291.572721,76.2647721 L291.111632,77.1355938 C290.983552,77.3661054 290.650543,77.4423023 290.445615,77.3398527 C290.445615,77.3398527 289.318509,76.8019922 288.345739,76.8019922 C287.474794,76.8019922 287.193017,77.1861783 287.193017,77.5710047 C287.193017,78.2362868 287.833418,78.5180233 288.831804,78.9534341 C290.701775,79.773031 292.238738,80.5663752 292.238738,82.4873054 C292.238738,84.0746341 290.726751,85.4839566 288.448203,85.4839566 C286.731928,85.4839566 285.604822,84.8686186 285.067526,84.4332078 C284.913189,84.3307581 284.810725,84.1008868 284.913189,83.8959876" id="Fill-42" fill="#FFFFFF" sketch:type="MSShapeGroup"></path>
                <path d="M302.383332,67.7883473 C302.383332,67.5328636 302.613877,67.3017116 302.869397,67.3017116 L304.355128,67.3017116 C304.611288,67.3017116 304.841832,67.5328636 304.841832,67.7883473 L304.841832,75.2915008 C305.072377,75.2153039 305.993914,74.7280279 307.300332,74.7280279 C310.143713,74.7280279 312.346053,77.1099814 312.346053,80.1066326 C312.346053,83.0507783 310.271794,85.4839566 307.556493,85.4839566 C305.533466,85.4839566 304.303895,84.049662 304.303895,84.049662 L304.098967,84.7924217 C304.022119,85.0485457 303.868423,85.2271922 303.638519,85.2271922 L302.869397,85.2271922 C302.613877,85.2271922 302.383332,84.9973209 302.383332,84.7411969 L302.383332,67.7883473 L302.383332,67.7883473 Z M307.2491,83.2819302 C308.888527,83.2819302 309.964401,81.8213829 309.964401,80.1066326 C309.964401,78.3643488 308.760447,76.956307 307.044172,76.956307 C305.712778,76.956307 304.816216,77.5447519 304.816216,77.5447519 L304.816216,81.7445457 C304.944297,82.0262822 305.687162,83.2819302 307.2491,83.2819302 L307.2491,83.2819302 Z" id="Fill-43" fill="#FFFFFF" sketch:type="MSShapeGroup"></path>
                <path d="M320.205696,74.7280279 C323.074053,74.7280279 325.378857,77.1861783 325.378857,80.0797395 C325.378857,83.0251659 323.074053,85.4839566 320.205696,85.4839566 C317.336699,85.4839566 315.031895,83.0251659 315.031895,80.0797395 C315.031895,77.1861783 317.336699,74.7280279 320.205696,74.7280279 L320.205696,74.7280279 Z M320.205696,83.2819302 C321.818867,83.2819302 323.099669,81.8469953 323.099669,80.0797395 C323.099669,78.3643488 321.818867,76.956307 320.205696,76.956307 C318.591885,76.956307 317.311083,78.3643488 317.311083,80.0797395 C317.311083,81.8469953 318.591885,83.2819302 320.205696,83.2819302 L320.205696,83.2819302 Z" id="Fill-44" fill="#FFFFFF" sketch:type="MSShapeGroup"></path>
                <path d="M332.037748,78.7485349 C333.113622,78.7485349 334.061415,79.0558837 334.061415,79.0558837 C334.087032,77.4423023 333.779639,76.8019922 332.473221,76.8019922 C331.294883,76.8019922 330.14216,77.1099814 329.604223,77.2636558 C329.297471,77.3398527 329.118159,77.1355938 329.041311,76.8532171 L328.836383,75.9061984 C328.759534,75.5725969 328.938847,75.3939504 329.169391,75.3171132 C329.348703,75.240276 330.808178,74.7280279 332.703765,74.7280279 C335.982619,74.7280279 336.289371,76.7257953 336.289371,79.2863953 L336.289371,84.7411969 C336.289371,84.9973209 336.058827,85.2271922 335.802666,85.2271922 L335.085417,85.2271922 C334.855513,85.2271922 334.753049,85.1247426 334.649944,84.8686186 L334.393784,84.177724 C333.830871,84.7155845 332.831845,85.4839566 331.24365,85.4839566 C329.323087,85.4839566 327.939821,84.177724 327.939821,82.0525349 C327.939821,80.1828295 329.425552,78.7485349 332.037748,78.7485349 L332.037748,78.7485349 Z M331.730355,83.665476 C332.754997,83.665476 333.728407,82.8977442 334.035159,82.3848558 L334.035159,80.745662 C333.881463,80.6438527 333.164854,80.3365039 332.242676,80.3365039 C331.013746,80.3365039 330.167777,80.976814 330.167777,82.0262822 C330.167777,82.9483287 330.782562,83.665476 331.730355,83.665476 L331.730355,83.665476 Z" id="Fill-45" fill="#FFFFFF" sketch:type="MSShapeGroup"></path>
                <path d="M340.212468,75.4707876 C340.212468,75.2153039 340.443013,74.9841519 340.699173,74.9841519 L341.442039,74.9841519 C341.620711,74.9841519 341.825639,75.137186 341.877511,75.3427256 L342.158648,76.212907 C342.33796,75.9574233 343.285754,74.7280279 345.155725,74.7280279 C346.128494,74.7280279 347.306832,74.9841519 347.025056,75.6750465 L346.410911,76.9300543 C346.282831,77.212431 346.02603,77.2636558 345.796126,77.1612062 C345.641789,77.084369 345.258189,76.9812791 344.92454,76.9812791 C343.43945,76.9812791 342.722201,78.057 342.620377,78.2362868 L342.620377,84.7411969 C342.620377,85.1759674 342.33796,85.2271922 341.928744,85.2271922 L340.699173,85.2271922 C340.443013,85.2271922 340.212468,84.9973209 340.212468,84.7411969 L340.212468,75.4707876" id="Fill-46" fill="#FFFFFF" sketch:type="MSShapeGroup"></path>
                <path d="M353.647444,74.7280279 C354.953862,74.7280279 355.8754,75.2153039 356.105944,75.2915008 L356.105944,67.7883473 C356.105944,67.5328636 356.336489,67.3017116 356.592649,67.3017116 L358.077739,67.3017116 C358.3339,67.3017116 358.564444,67.5328636 358.564444,67.7883473 L358.564444,84.7411969 C358.564444,84.9973209 358.3339,85.2271922 358.077739,85.2271922 L357.309258,85.2271922 C357.079354,85.2271922 356.925658,85.0485457 356.848809,84.7924217 L356.643881,84.049662 C356.643881,84.049662 355.414311,85.4839566 353.391284,85.4839566 C350.676623,85.4839566 348.601723,83.0507783 348.601723,80.1066326 C348.601723,77.1099814 350.804063,74.7280279 353.647444,74.7280279 L353.647444,74.7280279 Z M353.698036,83.2819302 C355.260615,83.2819302 356.00348,82.0262822 356.13156,81.7445457 L356.13156,77.5710047 C356.13156,77.5710047 355.234999,76.956307 353.903605,76.956307 C352.18733,76.956307 350.983375,78.3643488 350.983375,80.1066326 C350.983375,81.8213829 352.059249,83.2819302 353.698036,83.2819302 L353.698036,83.2819302 Z" id="Fill-47" fill="#FFFFFF" sketch:type="MSShapeGroup"></path>
                <path d="M362.29286,69.3250915 C362.29286,68.4792419 362.93262,67.8139597 363.752974,67.8139597 C364.597663,67.8139597 365.263681,68.4792419 365.263681,69.3250915 C365.263681,70.1440481 364.597663,70.8106109 363.752974,70.8106109 C362.93262,70.8106109 362.29286,70.1440481 362.29286,69.3250915 L362.29286,69.3250915 Z M362.574636,75.4707876 C362.574636,75.2153039 362.805181,74.9841519 363.061341,74.9841519 L364.520815,74.9841519 C364.776976,74.9841519 365.00816,75.2153039 365.00816,75.4707876 L365.00816,84.7411969 C365.00816,84.9973209 364.776976,85.2271922 364.520815,85.2271922 L363.061341,85.2271922 C362.805181,85.2271922 362.574636,84.9973209 362.574636,84.7411969 L362.574636,75.4707876 L362.574636,75.4707876 Z" id="Fill-48" fill="#FFFFFF" sketch:type="MSShapeGroup"></path>
                <path d="M368.976086,75.4707876 C368.976086,75.2153039 369.20663,74.9841519 369.462791,74.9841519 L370.205656,74.9841519 C370.409944,74.9841519 370.564281,75.1128543 370.615513,75.2915008 L370.922265,76.1616822 C371.101577,75.9574233 372.459228,74.7280279 374.508511,74.7280279 C377.633029,74.7280279 378.78511,76.9300543 378.78511,79.5937442 L378.78511,84.7411969 C378.78511,84.9973209 378.554566,85.2271922 378.299046,85.2271922 L376.838931,85.2271922 C376.557155,85.2271922 376.352226,84.9973209 376.352226,84.7411969 L376.352226,79.4912946 C376.352226,77.8527411 375.558129,76.956307 374.226095,76.956307 C372.612924,76.956307 371.511434,78.1338372 371.383994,78.4930512 L371.383994,84.7411969 C371.383994,85.0735178 371.229658,85.2271922 370.794825,85.2271922 L369.462791,85.2271922 C369.20663,85.2271922 368.976086,84.9973209 368.976086,84.7411969 L368.976086,75.4707876" id="Fill-49" fill="#FFFFFF" sketch:type="MSShapeGroup"></path>
                <path d="M383.515754,81.6933209 C383.515754,81.6933209 382.722297,80.745662 382.722297,79.2095581 C382.722297,76.828245 384.51542,74.7280279 387.127616,74.7280279 L391.609784,74.7280279 C391.89092,74.7280279 392.095848,74.9329271 392.095848,75.2153039 L392.095848,75.8549736 C392.095848,76.0342605 391.993384,76.2647721 391.814072,76.2903845 L390.40583,76.6745705 C390.40583,76.6745705 391.507319,77.4935271 391.507319,79.4144574 C391.507319,81.5908713 389.81666,83.5886388 387.153232,83.5886388 C385.846814,83.5886388 385.130205,83.1788403 384.924636,83.1788403 C384.745324,83.1788403 383.875019,83.6142512 383.875019,84.4332078 C383.875019,85.022293 384.335467,85.4839566 385.104589,85.4839566 L388.58709,85.4839566 C390.815686,85.4839566 392.608169,86.6870992 392.608169,88.914738 C392.608169,91.1686295 390.559526,93.1663969 387.153232,93.1663969 C383.54137,93.1663969 382.081895,91.3223039 382.081895,89.6574977 C382.081895,88.1213938 383.337082,87.4042465 383.592602,87.2512124 L383.592602,87.1730946 C383.054665,87.0194202 381.697655,86.3285256 381.697655,84.6124946 C381.697655,82.6409798 383.515754,81.6933209 383.515754,81.6933209 L383.515754,81.6933209 Z M387.127616,91.0661798 C388.689554,91.0661798 390.047205,90.2721953 390.047205,89.0434403 C390.047205,88.6336419 389.791044,87.5835333 388.126001,87.5835333 C387.383136,87.5835333 386.615295,87.5835333 385.87243,87.6347581 C385.718734,87.6859829 384.464188,88.0957814 384.464188,89.2483395 C384.464188,90.2978078 385.565037,91.0661798 387.127616,91.0661798 L387.127616,91.0661798 Z M389.329956,79.2607829 C389.329956,77.8777132 388.45901,76.9044419 387.178848,76.9044419 C385.87243,76.9044419 384.924636,77.8777132 384.924636,79.2607829 C384.924636,80.6438527 385.87243,81.617124 387.178848,81.617124 C388.45901,81.617124 389.329956,80.6438527 389.329956,79.2607829 L389.329956,79.2607829 Z" id="Fill-50" fill="#FFFFFF" sketch:type="MSShapeGroup"></path>
                <path d="M405.544272,78.7485349 C406.620146,78.7485349 407.56794,79.0558837 407.56794,79.0558837 C407.593556,77.4423023 407.286163,76.8019922 405.979745,76.8019922 C404.801407,76.8019922 403.649325,77.1099814 403.111388,77.2636558 C402.803996,77.3398527 402.624683,77.1355938 402.547835,76.8532171 L402.343547,75.9061984 C402.266699,75.5725969 402.445371,75.3939504 402.675915,75.3171132 C402.855228,75.240276 404.315342,74.7280279 406.21093,74.7280279 C409.489143,74.7280279 409.795895,76.7257953 409.795895,79.2863953 L409.795895,84.7411969 C409.795895,84.9973209 409.565351,85.2271922 409.309831,85.2271922 L408.591941,85.2271922 C408.362037,85.2271922 408.259573,85.1247426 408.157109,84.8686186 L407.900948,84.177724 C407.337395,84.7155845 406.33837,85.4839566 404.750175,85.4839566 C402.829612,85.4839566 401.446345,84.177724 401.446345,82.0525349 C401.446345,80.1828295 402.932076,78.7485349 405.544272,78.7485349 L405.544272,78.7485349 Z M405.23688,83.665476 C406.261521,83.665476 407.234931,82.8977442 407.542324,82.3848558 L407.542324,80.745662 C407.388628,80.6438527 406.671378,80.3365039 405.749201,80.3365039 C404.520271,80.3365039 403.674941,80.976814 403.674941,82.0262822 C403.674941,82.9483287 404.289726,83.665476 405.23688,83.665476 L405.23688,83.665476 Z" id="Fill-51" fill="#FFFFFF" sketch:type="MSShapeGroup"></path>
                <path d="M414.155106,77.1099814 L413.079232,77.1099814 C412.797456,77.1099814 412.593168,76.8801101 412.593168,76.6233457 L412.593168,75.4707876 C412.593168,75.1890512 412.797456,74.9841519 413.079232,74.9841519 L414.155106,74.9841519 L414.155106,72.1418155 C414.155106,71.8856915 414.38501,71.6551798 414.641811,71.6551798 L416.101285,71.6295674 C416.357446,71.6295674 416.562374,71.8600791 416.562374,72.1162031 L416.562374,74.9841519 L419.175211,74.9841519 C419.456347,74.9841519 419.661275,75.1890512 419.661275,75.4707876 L419.661275,76.6233457 C419.661275,76.8801101 419.456347,77.1099814 419.175211,77.1099814 L416.562374,77.1099814 L416.562374,82.1799566 C416.562374,83.0507783 416.895383,83.2038124 417.382087,83.2038124 C417.920024,83.2038124 418.637274,82.8977442 418.944026,82.7440698 C419.277034,82.589755 419.430731,82.7440698 419.533195,82.9739411 L419.994284,84.1008868 C420.122364,84.3819829 420.0199,84.5875225 419.763739,84.7155845 C419.507579,84.8686186 417.996872,85.4839566 416.767302,85.4839566 C414.744275,85.4839566 414.155106,84.2545612 414.155106,82.4360806 L414.155106,77.1099814" id="Fill-52" fill="#FFFFFF" sketch:type="MSShapeGroup"></path>
                <path d="M160.198268,112.428205 C160.198268,112.428205 159.40417,111.481186 159.40417,109.944442 C159.40417,107.563129 161.197294,105.462912 163.80949,105.462912 L168.291658,105.462912 C168.573434,105.462912 168.778362,105.667811 168.778362,105.950188 L168.778362,106.589857 C168.778362,106.769144 168.675898,106.999656 168.495946,107.025268 L167.087703,107.409454 C167.087703,107.409454 168.189193,108.228411 168.189193,110.149341 C168.189193,112.325755 166.498534,114.323522 163.835106,114.323522 C162.528688,114.323522 161.812079,113.913724 161.60715,113.913724 C161.427198,113.913724 160.556893,114.349135 160.556893,115.168091 C160.556893,115.757177 161.017981,116.21884 161.786463,116.21884 L165.268964,116.21884 C167.49756,116.21884 169.290683,117.421983 169.290683,119.649622 C169.290683,121.903513 167.2414,123.901281 163.835106,123.901281 C160.223244,123.901281 158.763769,122.057188 158.763769,120.392381 C158.763769,118.856278 160.018956,118.13913 160.274476,117.986096 L160.274476,117.907978 C159.737179,117.754304 158.379529,117.063409 158.379529,115.347378 C158.379529,113.375864 160.198268,112.428205 160.198268,112.428205 L160.198268,112.428205 Z M163.80949,121.801704 C165.371428,121.801704 166.729719,121.007079 166.729719,119.778324 C166.729719,119.368526 166.472918,118.318417 164.808516,118.318417 C164.06501,118.318417 163.297169,118.318417 162.554304,118.369642 C162.400607,118.420867 161.146062,118.830665 161.146062,119.983223 C161.146062,121.032691 162.247552,121.801704 163.80949,121.801704 L163.80949,121.801704 Z M166.01183,109.995667 C166.01183,108.612597 165.140884,107.639326 163.860722,107.639326 C162.554304,107.639326 161.60715,108.612597 161.60715,109.995667 C161.60715,111.378736 162.554304,112.352008 163.860722,112.352008 C165.140884,112.352008 166.01183,111.378736 166.01183,109.995667 L166.01183,109.995667 Z" id="Fill-53" fill="#FFFFFF" sketch:type="MSShapeGroup"></path>
                <path d="M174.972963,109.483419 C176.048196,109.483419 176.99599,109.790767 176.99599,109.790767 C177.021606,108.177186 176.714213,107.536876 175.407795,107.536876 C174.229457,107.536876 173.077375,107.844865 172.539438,107.99854 C172.232046,108.074736 172.052734,107.870478 171.975885,107.588101 L171.771597,106.641082 C171.694109,106.307481 171.873421,106.128834 172.103966,106.051997 C172.283278,105.97516 173.743393,105.462912 175.63898,105.462912 C178.917193,105.462912 179.223946,107.460679 179.223946,110.021279 L179.223946,115.476081 C179.223946,115.732205 178.993401,115.962076 178.737241,115.962076 L178.019991,115.962076 C177.790087,115.962076 177.687623,115.859626 177.585159,115.603502 L177.328999,114.912608 C176.765446,115.450468 175.76642,116.21884 174.178225,116.21884 C172.257662,116.21884 170.874395,114.912608 170.874395,112.787419 C170.874395,110.917713 172.360766,109.483419 174.972963,109.483419 L174.972963,109.483419 Z M174.66493,114.40036 C175.689572,114.40036 176.662981,113.632628 176.970374,113.11974 L176.970374,111.481186 C176.816037,111.378736 176.099428,111.071388 175.177251,111.071388 C173.948321,111.071388 173.102991,111.711698 173.102991,112.761166 C173.102991,113.683212 173.717777,114.40036 174.66493,114.40036 L174.66493,114.40036 Z" id="Fill-54" fill="#FFFFFF" sketch:type="MSShapeGroup"></path>
                <path d="M183.583156,107.844865 L182.507282,107.844865 C182.225506,107.844865 182.020577,107.614994 182.020577,107.358229 L182.020577,106.205671 C182.020577,105.923935 182.225506,105.719036 182.507282,105.719036 L183.583156,105.719036 L183.583156,102.876699 C183.583156,102.621216 183.81306,102.390064 184.069861,102.390064 L185.529335,102.364451 C185.785496,102.364451 185.990424,102.594963 185.990424,102.851087 L185.990424,105.719036 L188.603261,105.719036 C188.884397,105.719036 189.089966,105.923935 189.089966,106.205671 L189.089966,107.358229 C189.089966,107.614994 188.884397,107.844865 188.603261,107.844865 L185.990424,107.844865 L185.990424,112.91484 C185.990424,113.785662 186.323433,113.938696 186.810138,113.938696 C187.348074,113.938696 188.065324,113.632628 188.372076,113.478953 C188.705085,113.325279 188.858781,113.478953 188.961245,113.708825 L189.422334,114.835771 C189.550414,115.116867 189.44795,115.322406 189.191789,115.450468 C188.935629,115.603502 187.424923,116.21884 186.195352,116.21884 C184.172325,116.21884 183.583156,114.989445 183.583156,113.170964 L183.583156,107.844865" id="Fill-55" fill="#FFFFFF" sketch:type="MSShapeGroup"></path>
                <path d="M196.564087,105.462912 C199.228156,105.462912 201.276799,107.460679 201.276799,110.200566 C201.276799,110.379853 201.251183,110.712174 201.225567,110.892101 C201.199951,111.148225 200.995023,111.327512 200.764479,111.327512 L193.798195,111.327512 C193.875043,112.710581 195.078997,114.068039 196.74404,114.068039 C197.665577,114.068039 198.510907,113.6576 199.022587,113.325279 C199.33062,113.145352 199.509933,113.043543 199.714221,113.299026 L200.43211,114.272298 C200.611423,114.476557 200.68763,114.681456 200.380238,114.93822 C199.637372,115.57853 198.305979,116.21884 196.589703,116.21884 C193.491443,116.21884 191.441519,113.785662 191.441519,110.841516 C191.441519,107.947315 193.491443,105.462912 196.564087,105.462912 L196.564087,105.462912 Z M198.895148,109.71393 C198.818299,108.485175 197.793658,107.434426 196.538471,107.434426 C195.155845,107.434426 194.079971,108.43395 193.926275,109.71393 L198.895148,109.71393 L198.895148,109.71393 Z" id="Fill-56" fill="#FFFFFF" sketch:type="MSShapeGroup"></path>
                <path d="M210.679169,114.809518 C212.574116,112.658716 215.238185,109.406581 217.133132,107.15333 C218.413934,105.719036 219.079951,104.438416 219.079951,103.41456 C219.079951,102.108327 218.18339,100.622808 215.929818,100.622808 C214.520936,100.622808 213.368213,101.596719 212.677221,102.338839 C212.471652,102.543738 212.190516,102.543738 211.985587,102.338839 L211.114642,101.468017 C210.960946,101.314343 210.909713,101.007634 211.089026,100.802735 C211.089026,100.802735 213.009589,98.2927194 216.057258,98.2927194 C219.720352,98.2927194 221.666532,100.622808 221.666532,103.31211 C221.666532,105.283625 220.590658,106.641082 219.208032,108.305888 C217.850381,109.944442 216.057258,112.044019 214.545911,113.76005 L221.077362,113.76005 C221.333523,113.76005 221.564067,113.989921 221.564067,114.246685 L221.564067,115.476081 C221.564067,115.732205 221.333523,115.962076 221.077362,115.962076 L211.165234,115.962076 C210.884097,115.962076 210.679169,115.732205 210.679169,115.476081 L210.679169,114.809518" id="Fill-57" fill="#FFFFFF" sketch:type="MSShapeGroup"></path>
                <path d="M225.477559,115.194344 L232.39261,100.802735 L224.811542,100.802735 C224.555381,100.802735 224.324837,100.571583 224.324837,100.316099 L224.324837,99.0354791 C224.324837,98.779355 224.555381,98.5488434 224.811542,98.5488434 L235.286583,98.5488434 C235.542744,98.5488434 235.773288,98.779355 235.773288,99.0354791 L235.773288,99.2141256 L228.243451,115.270541 C228.012907,115.783429 227.884827,115.962076 227.244426,115.962076 L226.066728,115.962076 C225.733079,115.962076 225.477559,115.732205 225.477559,115.476081 L225.477559,115.194344" id="Fill-58" fill="#FFFFFF" sketch:type="MSShapeGroup"></path>
                <path d="M248.608208,109.483419 C249.684082,109.483419 250.631235,109.790767 250.631235,109.790767 C250.656851,108.177186 250.350099,107.536876 249.043681,107.536876 C247.865342,107.536876 246.71262,107.844865 246.174683,107.99854 C245.867931,108.074736 245.688619,107.870478 245.61113,107.588101 L245.406842,106.641082 C245.329994,106.307481 245.508666,106.128834 245.739211,106.051997 C245.919163,105.97516 247.378638,105.462912 249.274225,105.462912 C252.552438,105.462912 252.859831,107.460679 252.859831,110.021279 L252.859831,115.476081 C252.859831,115.732205 252.628646,115.962076 252.373126,115.962076 L251.655877,115.962076 C251.425973,115.962076 251.322868,115.859626 251.220404,115.603502 L250.964244,114.912608 C250.401331,115.450468 249.401665,116.21884 247.81411,116.21884 C245.893547,116.21884 244.510281,114.912608 244.510281,112.787419 C244.510281,110.917713 245.996011,109.483419 248.608208,109.483419 L248.608208,109.483419 Z M248.300815,114.40036 C249.325457,114.40036 250.298867,113.632628 250.605619,113.11974 L250.605619,111.481186 C250.451923,111.378736 249.735314,111.071388 248.812496,111.071388 C247.583566,111.071388 246.738236,111.711698 246.738236,112.761166 C246.738236,113.683212 247.353021,114.40036 248.300815,114.40036 L248.300815,114.40036 Z" id="Fill-59" fill="#FFFFFF" sketch:type="MSShapeGroup"></path>
                <path d="M257.217761,107.844865 L256.142527,107.844865 C255.86011,107.844865 255.655822,107.614994 255.655822,107.358229 L255.655822,106.205671 C255.655822,105.923935 255.86011,105.719036 256.142527,105.719036 L257.217761,105.719036 L257.217761,102.876699 C257.217761,102.621216 257.448305,102.390064 257.704466,102.390064 L259.16394,102.364451 C259.420741,102.364451 259.625029,102.594963 259.625029,102.851087 L259.625029,105.719036 L262.237865,105.719036 C262.519642,105.719036 262.72457,105.923935 262.72457,106.205671 L262.72457,107.358229 C262.72457,107.614994 262.519642,107.844865 262.237865,107.844865 L259.625029,107.844865 L259.625029,112.91484 C259.625029,113.785662 259.958678,113.938696 260.444742,113.938696 C260.982679,113.938696 261.699928,113.632628 262.007321,113.478953 C262.339689,113.325279 262.494026,113.478953 262.59649,113.708825 L263.056938,114.835771 C263.185659,115.116867 263.082554,115.322406 262.826394,115.450468 C262.570874,115.603502 261.059527,116.21884 259.829957,116.21884 C257.80693,116.21884 257.217761,114.989445 257.217761,113.170964 L257.217761,107.844865" id="Fill-60" fill="#FFFFFF" sketch:type="MSShapeGroup"></path>
                <path d="M275.173968,102.466901 L273.125325,103.440172 C272.894781,103.542622 272.63862,103.491397 272.561772,103.260245 L272.25502,102.364451 C272.178172,102.159552 272.229404,101.954012 272.331228,101.852843 L275.968706,98.5488434 L277.223252,98.5488434 C277.479413,98.5488434 277.684341,98.779355 277.684341,99.0354791 L277.684341,115.476081 C277.684341,115.732205 277.479413,115.962076 277.223252,115.962076 L275.660673,115.962076 C275.379537,115.962076 275.173968,115.732205 275.173968,115.476081 L275.173968,102.466901" id="Fill-61" fill="#FFFFFF" sketch:type="MSShapeGroup"></path>
                <path d="M281.383938,114.809518 C283.279526,112.658716 285.942954,109.406581 287.838542,107.15333 C289.118703,105.719036 289.784721,104.438416 289.784721,103.41456 C289.784721,102.108327 288.888159,100.622808 286.634587,100.622808 C285.225705,100.622808 284.072983,101.596719 283.38199,102.338839 C283.176421,102.543738 282.895285,102.543738 282.690357,102.338839 L281.819411,101.468017 C281.665715,101.314343 281.614483,101.007634 281.793795,100.802735 C281.793795,100.802735 283.714358,98.2927194 286.762027,98.2927194 C290.425122,98.2927194 292.371301,100.622808 292.371301,103.31211 C292.371301,105.283625 291.295427,106.641082 289.912801,108.305888 C288.55515,109.944442 286.762027,112.044019 285.251321,113.76005 L291.782132,113.76005 C292.038292,113.76005 292.268837,113.989921 292.268837,114.246685 L292.268837,115.476081 C292.268837,115.732205 292.038292,115.962076 291.782132,115.962076 L281.870003,115.962076 C281.588867,115.962076 281.383938,115.732205 281.383938,115.476081 L281.383938,114.809518" id="Fill-62" fill="#FFFFFF" sketch:type="MSShapeGroup"></path>
                <path d="M295.687938,107.127718 C295.687938,106.205671 296.430804,105.462912 297.352341,105.462912 C298.275159,105.462912 298.991768,106.205671 298.991768,107.127718 C298.991768,108.023512 298.275159,108.766271 297.352341,108.766271 C296.430804,108.766271 295.687938,108.023512 295.687938,107.127718 L295.687938,107.127718 Z M297.352341,112.91484 C298.275159,112.91484 298.991768,113.6576 298.991768,114.579006 C298.991768,115.476081 298.275159,116.21884 297.352341,116.21884 C296.430804,116.21884 295.687938,115.476081 295.687938,114.579006 C295.687938,113.6576 296.430804,112.91484 297.352341,112.91484 L297.352341,112.91484 Z" id="Fill-63" fill="#FFFFFF" sketch:type="MSShapeGroup"></path>
                <path d="M302.263577,113.325279 L303.262603,112.403233 C303.518764,112.197693 303.749308,112.223946 303.954236,112.454457 C304.107933,112.658716 305.541791,114.041146 307.437378,114.041146 C309.101781,114.041146 310.638744,112.992318 310.638744,111.276287 C310.638744,109.739543 309.332325,108.279636 306.592049,108.279636 L305.158191,108.279636 C304.875774,108.279636 304.671486,108.100989 304.671486,107.742416 L304.671486,106.641082 C304.671486,106.256896 304.824542,106.103222 305.183807,106.103222 L306.617665,106.103222 C309.025573,106.103222 310.228887,104.874467 310.228887,103.363335 C310.228887,101.647304 308.820004,100.571583 307.309298,100.571583 C305.772976,100.571583 304.850158,101.443045 304.337837,102.005878 C304.18414,102.210777 303.903004,102.262002 303.671819,102.057102 L302.724666,101.211893 C302.520378,101.032606 302.545354,100.725257 302.724666,100.545971 C302.724666,100.545971 304.671486,98.2927194 307.462354,98.2927194 C310.433815,98.2927194 312.816107,100.1112 312.816107,102.979149 C312.816107,104.950664 311.329736,106.461795 310.177655,106.999656 L310.177655,107.077133 C311.381609,107.588101 313.276556,109.125485 313.276556,111.327512 C313.276556,114.118623 311.022984,116.21884 307.48797,116.21884 C304.312221,116.21884 302.801514,114.605259 302.237961,113.938696 C302.084265,113.76005 302.084265,113.478953 302.263577,113.325279" id="Fill-64" fill="#FFFFFF" sketch:type="MSShapeGroup"></path>
                <path d="M317.013297,107.25578 C317.013297,101.647304 319.3181,98.2927194 323.364155,98.2927194 C327.385874,98.2927194 329.690678,101.647304 329.690678,107.25578 C329.690678,112.863616 327.385874,116.21884 323.364155,116.21884 C319.3181,116.21884 317.013297,112.863616 317.013297,107.25578 L317.013297,107.25578 Z M327.103457,107.25578 C327.103457,103.055986 325.746447,100.64842 323.364155,100.64842 C320.957527,100.64842 319.599877,103.055986 319.599877,107.25578 C319.599877,111.506158 320.957527,113.888112 323.364155,113.888112 C325.746447,113.888112 327.103457,111.506158 327.103457,107.25578 L327.103457,107.25578 Z" id="Fill-65" fill="#FFFFFF" sketch:type="MSShapeGroup"></path>
                <path d="M334.839503,112.658716 C335.838529,112.658716 336.631986,113.452701 336.631986,114.451584 C336.631986,115.424216 335.838529,116.21884 334.839503,116.21884 C333.866093,116.21884 333.071996,115.424216 333.071996,114.451584 C333.071996,113.452701 333.866093,112.658716 334.839503,112.658716" id="Fill-66" fill="#FFFFFF" sketch:type="MSShapeGroup"></path>
                <path d="M171.816426,135.198912 C171.666572,142.677733 168.944867,179.42769 130.933857,207.175527 C129.861185,207.958626 130.776318,209.626634 132.005888,209.124631 C146.47255,203.220332 177.907281,186.126614 204.099047,142.359499 C204.492254,141.701901 204.122102,140.847087 203.373473,140.685088 L173.174076,134.131515 C172.486285,133.982322 171.830514,134.495211 171.816426,135.198912" id="Fill-67" fill="#4690DC" sketch:type="MSShapeGroup"></path>
            </g>
        </g>
    </g>
</svg>