<?xml version="1.0" encoding="utf-8"?>
<!-- Generator: Adobe Illustrator 18.1.0, SVG Export Plug-In . SVG Version: 6.00 Build 0)  -->
<!DOCTYPE svg PUBLIC "-//W3C//DTD SVG 1.1//EN" "http://www.w3.org/Graphics/SVG/1.1/DTD/svg11.dtd">
<svg version="1.1" id="Layer_1" xmlns="http://www.w3.org/2000/svg" xmlns:xlink="http://www.w3.org/1999/xlink" x="0px" y="0px"
	 viewBox="0 0 759.3 584.7" enable-background="new 0 0 759.3 584.7" xml:space="preserve">
<g>
	<path fill="#FFFFFF" stroke="#B5C0C3" stroke-width="3" stroke-miterlimit="10" d="M509.6,219.4v291.7c0,2.9-2.4,5.3-5.3,5.3H64.1
		c-2.9,0-5.3-2.4-5.3-5.3V219.4"/>
	<path fill="#E0E2E2" stroke="#B5C0C3" stroke-width="3" stroke-miterlimit="10" d="M509.6,219.4H58.8v-42.9c0-3.5,2.8-6.4,6.4-6.4
		h438.1c3.5,0,6.4,2.8,6.4,6.4V219.4z"/>
	<g>
		<ellipse fill="#FFFFFF" stroke="#B5C0C3" stroke-width="2" stroke-miterlimit="10" cx="82.2" cy="194.8" rx="9.1" ry="9.1"/>
		<ellipse fill="#FFFFFF" stroke="#B5C0C3" stroke-width="2" stroke-miterlimit="10" cx="111.8" cy="194.8" rx="9.1" ry="9.1"/>
		<ellipse fill="#FFFFFF" stroke="#B5C0C3" stroke-width="2" stroke-miterlimit="10" cx="141.4" cy="194.8" rx="9.1" ry="9.1"/>
	</g>
</g>
<rect x="87.4" y="257.8" fill="#E0E2E2" width="340.1" height="19.5"/>
<rect x="87.4" y="299.5" fill="#E0E2E2" width="340.1" height="19.5"/>
<rect x="87.4" y="341.1" fill="#E0E2E2" width="340.1" height="19.5"/>
<g>
	<path fill="#FFFFFF" d="M446.4,307.2c1.7,0,3.2,1.5,3.2,3.2c0,1.7-1.5,3.1-3.2,3.1c-1.7,0-3.1-1.4-3.1-3.1
		C443.3,308.7,444.7,307.2,446.4,307.2z M445.1,303.6l-1.6-9.3v-3.8c0-0.3,0.3-0.6,0.6-0.6h4.7c0.3,0,0.6,0.3,0.6,0.6v3.7l-1.6,9.4
		c0,0.3-0.3,0.5-0.6,0.5h-1.4C445.4,304.1,445.1,303.9,445.1,303.6z"/>
</g>
<polygon opacity="0.4" fill="#B5C0C3" points="321,516.5 281.9,516.5 309.1,170.3 321,170.3 "/>
<path fill="#FFFFFF" stroke="#B5C0C3" stroke-width="3" stroke-miterlimit="10" d="M536.9,569.2H357.1c-19.9,0-36.1-16.2-36.1-36.1
	V69.4c0-19.9,16.2-36.1,36.1-36.1h179.9c19.9,0,36.1,16.2,36.1,36.1v463.8C573,553.1,556.8,569.2,536.9,569.2z"/>
<rect x="334.3" y="107.5" fill="#FFFFFF" stroke="#B5C0C3" stroke-width="3" stroke-miterlimit="10" width="225.3" height="387.6"/>
<g>
	<g>
		<path fill="#62A5DA" d="M723.8,271.9H488.7c-16,0-29-13-29-29v-84.3c0-16,13-29,29-29h235.2c16,0,29,13,29,29v84.3
			C752.8,258.9,739.8,271.9,723.8,271.9z"/>
	</g>
	<path fill="#62A5DA" d="M475.1,247.7c0,0-2.3,20.1-12.3,33.6c-0.4,0.5,0.1,1.2,0.7,1.1c7-1.2,34-7.5,51-32.9L475.1,247.7z"/>
	<g>
		<path fill="#FFFFFF" d="M478.5,153.1c-0.1-0.3,0.1-0.6,0.4-0.6h2.1c0.2,0,0.4,0.2,0.4,0.3l2.4,9.3h0.1l3.7-9.6
			c0-0.1,0.2-0.3,0.4-0.3h0.4c0.2,0,0.4,0.1,0.4,0.3l3.7,9.6h0.1l2.4-9.3c0-0.2,0.2-0.3,0.4-0.3h2.1c0.3,0,0.5,0.2,0.4,0.6
			l-4.4,15.7c0,0.2-0.2,0.3-0.4,0.3h-0.4c-0.2,0-0.4-0.1-0.4-0.3l-4.2-10.6h-0.1l-4.1,10.6c-0.1,0.1-0.2,0.3-0.4,0.3h-0.4
			c-0.2,0-0.4-0.1-0.4-0.3L478.5,153.1z"/>
		<path fill="#FFFFFF" d="M504.1,159.3c2.4,0,4.4,1.8,4.4,4.3c0,0.2,0,0.5,0,0.6c0,0.2-0.2,0.4-0.4,0.4h-6c0.1,1,0.9,2,2.2,2
			c0.7,0,1.4-0.3,1.8-0.6c0.2-0.1,0.4-0.2,0.6,0l1,1.1c0.2,0.2,0.2,0.4,0,0.6c-0.8,0.7-2,1.3-3.5,1.3c-2.8,0-4.8-2.2-4.8-4.9
			C499.4,161.5,501.3,159.3,504.1,159.3z M505.8,163c-0.1-0.9-0.8-1.6-1.7-1.6c-0.9,0-1.7,0.7-1.8,1.6H505.8z"/>
		<path fill="#FFFFFF" d="M511.3,152.9c0-0.2,0.2-0.4,0.4-0.4h2c0.2,0,0.4,0.2,0.4,0.4v15.5c0,0.2-0.2,0.4-0.4,0.4h-2
			c-0.2,0-0.4-0.2-0.4-0.4V152.9z"/>
		<path fill="#FFFFFF" d="M522,159.3c1.4,0,2.6,0.6,3.5,1.7c0.2,0.2,0.1,0.5-0.1,0.7l-1.1,1c-0.2,0.2-0.4,0.1-0.6-0.1
			c-0.4-0.4-1-0.7-1.6-0.7c-1.3,0-2.3,1.1-2.3,2.4c0,1.3,1,2.4,2.3,2.4c1,0,1.4-0.5,1.9-0.9c0.2-0.2,0.4-0.2,0.6-0.1l1,0.9
			c0.2,0.2,0.3,0.4,0.2,0.7c-0.8,1.2-2,2-3.7,2c-2.6,0-5-2.1-5-4.9C517,161.4,519.4,159.3,522,159.3z"/>
		<path fill="#FFFFFF" d="M532.4,159.3c2.6,0,4.8,2.2,4.8,4.9c0,2.7-2.1,4.9-4.8,4.9c-2.6,0-4.8-2.2-4.8-4.9
			C527.6,161.5,529.8,159.3,532.4,159.3z M532.4,166.6c1.2,0,2.2-1.1,2.2-2.4c0-1.3-1-2.4-2.2-2.4c-1.3,0-2.2,1.1-2.2,2.4
			C530.2,165.5,531.2,166.6,532.4,166.6z"/>
		<path fill="#FFFFFF" d="M540.1,159.9c0-0.3,0.2-0.4,0.4-0.4h0.9c0.2,0,0.4,0.1,0.4,0.3l0.3,0.9c0.4-0.4,1.5-1.4,3.1-1.4
			c1.3,0,2.3,0.5,3,1.4c0.4-0.4,1.6-1.4,3.3-1.4c3,0,4.1,2.2,4.1,4.7v4.5c0,0.2-0.2,0.4-0.4,0.4h-1.9c-0.3,0-0.4-0.2-0.4-0.4v-4.6
			c0-1.2-0.6-2-1.8-2c-1.4,0-2,1-2,1s0,0.5,0,0.9v4.7c0,0.2-0.2,0.4-0.4,0.4H547c-0.3,0-0.4-0.2-0.4-0.4v-4.6c0-1.2-0.5-2-1.7-2
			c-1.2,0-1.7,0.8-2,1.5v5.1c0,0.2-0.2,0.4-0.4,0.4h-1.9c-0.2,0-0.4-0.2-0.4-0.4V159.9z"/>
		<path fill="#FFFFFF" d="M563.2,159.3c2.4,0,4.4,1.8,4.4,4.3c0,0.2,0,0.5,0,0.6c0,0.2-0.2,0.4-0.4,0.4h-6c0.1,1,0.9,2,2.2,2
			c0.7,0,1.4-0.3,1.8-0.6c0.2-0.1,0.4-0.2,0.6,0l1,1.1c0.2,0.2,0.2,0.4,0,0.6c-0.8,0.7-2,1.3-3.5,1.3c-2.8,0-4.8-2.2-4.8-4.9
			C558.4,161.5,560.4,159.3,563.2,159.3z M564.8,163c-0.1-0.9-0.8-1.6-1.7-1.6c-0.9,0-1.7,0.7-1.8,1.6H564.8z"/>
		<path fill="#FFFFFF" d="M577,162h-0.8c-0.2,0-0.4-0.2-0.4-0.4v-1.6c0-0.3,0.2-0.4,0.4-0.4h0.8v-2.6c0-0.2,0.2-0.4,0.4-0.4l1.9,0
			c0.2,0,0.4,0.2,0.4,0.4v2.6h2.1c0.3,0,0.4,0.2,0.4,0.4v1.6c0,0.2-0.2,0.4-0.4,0.4h-2.1v3.7c0,0.7,0.4,0.7,0.7,0.7
			c0.4,0,0.9-0.2,1.1-0.3c0.3-0.1,0.4,0,0.5,0.3l0.5,1.5c0.1,0.2,0,0.5-0.3,0.6c-0.1,0.1-1.6,0.6-2.8,0.6c-1.8,0-2.6-1.1-2.6-3V162z
			"/>
		<path fill="#FFFFFF" d="M589.3,159.3c2.6,0,4.8,2.2,4.8,4.9c0,2.7-2.1,4.9-4.8,4.9c-2.6,0-4.8-2.2-4.8-4.9
			C584.5,161.5,586.6,159.3,589.3,159.3z M589.3,166.6c1.2,0,2.2-1.1,2.2-2.4c0-1.3-1-2.4-2.2-2.4c-1.3,0-2.2,1.1-2.2,2.4
			C587,165.5,588,166.6,589.3,166.6z"/>
		<path fill="#FFFFFF" d="M603.6,162h-0.8c-0.2,0-0.4-0.2-0.4-0.4v-1.6c0-0.3,0.2-0.4,0.4-0.4h0.8v-2.6c0-0.2,0.2-0.4,0.4-0.4l1.9,0
			c0.2,0,0.4,0.2,0.4,0.4v2.6h2.1c0.3,0,0.4,0.2,0.4,0.4v1.6c0,0.2-0.2,0.4-0.4,0.4h-2.1v3.7c0,0.7,0.4,0.7,0.7,0.7
			c0.4,0,0.9-0.2,1.1-0.3c0.3-0.1,0.4,0,0.5,0.3l0.5,1.5c0.1,0.2,0,0.5-0.3,0.6c-0.1,0.1-1.6,0.6-2.8,0.6c-1.8,0-2.6-1.1-2.6-3V162z
			"/>
		<path fill="#FFFFFF" d="M612,152.9c0-0.2,0.2-0.4,0.4-0.4h2c0.2,0,0.4,0.2,0.4,0.4v7.1c0.5-0.4,1.4-0.8,2.5-0.8
			c3,0,4.2,2.3,4.2,4.7v4.5c0,0.2-0.2,0.4-0.4,0.4h-1.9c-0.3,0-0.4-0.2-0.4-0.4v-4.5c0-1.3-0.7-2.1-1.8-2.1c-1.1,0-1.8,0.7-2,1.7v5
			c0,0.3-0.1,0.4-0.5,0.4h-1.9c-0.2,0-0.4-0.2-0.4-0.4V152.9z"/>
		<path fill="#FFFFFF" d="M629,159.3c2.4,0,4.4,1.8,4.4,4.3c0,0.2,0,0.5,0,0.6c0,0.2-0.2,0.4-0.4,0.4h-6c0.1,1,0.9,2,2.2,2
			c0.7,0,1.4-0.3,1.8-0.6c0.2-0.1,0.4-0.2,0.6,0l1,1.1c0.2,0.2,0.2,0.4,0,0.6c-0.8,0.7-2,1.3-3.5,1.3c-2.8,0-4.8-2.2-4.8-4.9
			C624.2,161.5,626.2,159.3,629,159.3z M630.6,163c-0.1-0.9-0.8-1.6-1.7-1.6c-0.9,0-1.7,0.7-1.8,1.6H630.6z"/>
		<path fill="#FFFFFF" d="M645.4,162.9c0.9,0,1.7,0.3,1.7,0.3c0-1.2-0.4-1.6-1.2-1.6c-0.9,0-2.1,0.2-2.6,0.4
			c-0.3,0.1-0.5-0.1-0.5-0.4l-0.2-1.2c-0.1-0.4,0.1-0.5,0.3-0.6c0.2-0.1,1.7-0.4,3.2-0.4c2.9,0,3.6,1.5,3.6,4.1v5.1
			c0,0.2-0.2,0.4-0.4,0.4h-0.8c-0.2,0-0.3-0.1-0.4-0.3l-0.3-0.6c-0.5,0.5-1.4,1.2-2.9,1.2c-1.9,0-3.2-1.2-3.2-3.2
			C641.7,164.2,643,162.9,645.4,162.9z M645.5,167.1c0.7,0,1.5-0.6,1.6-0.9v-1.3c0,0-0.6-0.3-1.3-0.3c-0.9,0-1.5,0.5-1.5,1.3
			C644.2,166.6,644.7,167.1,645.5,167.1z"/>
		<path fill="#FFFFFF" d="M652.8,154.6c0-0.9,0.7-1.6,1.6-1.6c0.9,0,1.6,0.7,1.6,1.6c0,0.9-0.7,1.6-1.6,1.6
			C653.5,156.2,652.8,155.5,652.8,154.6z M653,159.9c0-0.3,0.2-0.4,0.4-0.4h1.9c0.2,0,0.4,0.2,0.4,0.4v8.5c0,0.2-0.2,0.4-0.4,0.4
			h-1.9c-0.2,0-0.4-0.2-0.4-0.4V159.9z"/>
		<path fill="#FFFFFF" d="M659.4,159.9c0-0.3,0.2-0.4,0.4-0.4h0.9c0.2,0,0.4,0.1,0.4,0.3l0.3,0.9c0.3-0.5,1.2-1.4,2.6-1.4
			c1.1,0,2.1,0.4,1.8,0.9l-0.9,1.5c-0.1,0.2-0.4,0.3-0.5,0.2c-0.1,0-0.4-0.1-0.7-0.1c-0.9,0-1.5,0.6-1.7,1v5.7
			c0,0.3-0.2,0.4-0.5,0.4h-1.8c-0.2,0-0.4-0.2-0.4-0.4V159.9z"/>
		<path fill="#FFFFFF" d="M671,175.4c0,0.3-0.1,0.4-0.6,0.4h-1.9c-0.2,0-0.4-0.2-0.4-0.4v-15.5c0-0.3,0.2-0.4,0.4-0.4h0.9
			c0.2,0,0.3,0.1,0.4,0.3l0.3,0.8c0.4-0.5,1.5-1.3,3-1.3c2.6,0,4.5,2.2,4.5,4.9c0,2.8-2.1,4.9-4.6,4.9c-0.9,0-1.8-0.3-2.1-0.5V175.4
			z M672.7,166.6c1.3,0,2.3-1.1,2.3-2.4c0-1.3-0.9-2.4-2.2-2.4c-1.2,0-1.8,0.9-1.9,1.4v2.8C670.9,166,671.6,166.6,672.7,166.6z"/>
		<path fill="#FFFFFF" d="M684.8,159.3c2.6,0,4.8,2.2,4.8,4.9c0,2.7-2.1,4.9-4.8,4.9c-2.6,0-4.8-2.2-4.8-4.9
			C680,161.5,682.2,159.3,684.8,159.3z M684.8,166.6c1.2,0,2.2-1.1,2.2-2.4c0-1.3-1-2.4-2.2-2.4c-1.3,0-2.2,1.1-2.2,2.4
			C682.6,165.5,683.5,166.6,684.8,166.6z"/>
		<path fill="#FFFFFF" d="M692.4,159.9c0-0.3,0.2-0.4,0.4-0.4h0.9c0.2,0,0.4,0.1,0.4,0.3l0.3,0.9c0.3-0.5,1.2-1.4,2.6-1.4
			c1.1,0,2.1,0.4,1.8,0.9l-0.9,1.5c-0.1,0.2-0.4,0.3-0.5,0.2c-0.1,0-0.4-0.1-0.7-0.1c-0.9,0-1.5,0.6-1.7,1v5.7
			c0,0.3-0.2,0.4-0.5,0.4h-1.8c-0.2,0-0.4-0.2-0.4-0.4V159.9z"/>
		<path fill="#FFFFFF" d="M702.1,162h-0.8c-0.2,0-0.4-0.2-0.4-0.4v-1.6c0-0.3,0.2-0.4,0.4-0.4h0.8v-2.6c0-0.2,0.2-0.4,0.4-0.4l1.9,0
			c0.2,0,0.4,0.2,0.4,0.4v2.6h2.1c0.3,0,0.4,0.2,0.4,0.4v1.6c0,0.2-0.2,0.4-0.4,0.4h-2.1v3.7c0,0.7,0.4,0.7,0.7,0.7
			c0.4,0,0.9-0.2,1.1-0.3c0.3-0.1,0.4,0,0.5,0.3l0.5,1.5c0.1,0.2,0,0.5-0.3,0.6c-0.1,0.1-1.6,0.6-2.8,0.6c-1.8,0-2.6-1.1-2.6-3V162z
			"/>
		<path fill="#FFFFFF" d="M712.4,165.2c1.1,0,1.9,0.9,1.9,1.9s-0.9,1.9-1.9,1.9c-1,0-1.9-0.9-1.9-1.9S711.3,165.2,712.4,165.2z
			 M711.6,162.1l-0.9-6.5v-2.7c0-0.2,0.2-0.4,0.4-0.4h2.6c0.2,0,0.4,0.2,0.4,0.4v2.6l-0.9,6.6c0,0.2-0.2,0.4-0.4,0.4H712
			C711.8,162.5,711.6,162.3,711.6,162.1z"/>
		<path fill="#FFFFFF" d="M483.1,199.7l-5.3-7.8c-0.2-0.3,0-0.7,0.4-0.7h2.4c0.2,0,0.3,0.1,0.4,0.2l3.7,5.4l3.7-5.4
			c0.1-0.1,0.2-0.2,0.4-0.2h2.4c0.4,0,0.6,0.4,0.4,0.7l-5.4,7.8v7.5c0,0.2-0.2,0.4-0.4,0.4h-2.1c-0.3,0-0.4-0.2-0.4-0.4V199.7z"/>
		<path fill="#FFFFFF" d="M495.9,198c2.6,0,4.8,2.2,4.8,4.9c0,2.7-2.1,4.9-4.8,4.9c-2.6,0-4.8-2.2-4.8-4.9
			C491.1,200.3,493.3,198,495.9,198z M495.9,205.3c1.2,0,2.2-1.1,2.2-2.4c0-1.3-1-2.4-2.2-2.4c-1.3,0-2.2,1.1-2.2,2.4
			C493.7,204.3,494.7,205.3,495.9,205.3z"/>
		<path fill="#FFFFFF" d="M503.4,198.7c0-0.3,0.2-0.4,0.4-0.4h1.9c0.2,0,0.4,0.2,0.4,0.4v4.6c0,1.2,0.6,2,1.7,2c1,0,1.7-0.9,1.9-1.8
			v-4.9c0-0.4,0.1-0.4,0.5-0.4h1.8c0.2,0,0.4,0.2,0.4,0.4v8.5c0,0.2-0.2,0.4-0.4,0.4h-0.9c-0.2,0-0.4-0.2-0.4-0.4l-0.3-0.8
			c-0.4,0.4-1.3,1.4-3.1,1.4c-2.9,0-3.9-2.2-3.9-4.6V198.7z"/>
		<path fill="#FFFFFF" d="M516,198.7c0-0.3,0.2-0.4,0.4-0.4h0.9c0.2,0,0.4,0.1,0.4,0.3l0.3,0.9c0.3-0.5,1.2-1.4,2.6-1.4
			c1.1,0,2.1,0.4,1.8,0.9l-0.9,1.5c-0.1,0.2-0.4,0.3-0.5,0.2c-0.1,0-0.4-0.1-0.7-0.1c-0.9,0-1.5,0.6-1.7,1v5.7
			c0,0.3-0.2,0.4-0.5,0.4h-1.8c-0.2,0-0.4-0.2-0.4-0.4V198.7z"/>
		<path fill="#FFFFFF" d="M531.6,200.7h-0.8c-0.3,0-0.4-0.2-0.4-0.4v-1.5c0-0.3,0.2-0.5,0.4-0.5h0.8v-2.5c0-3,2.1-4.7,4.6-4.7
			c2,0,3.3,1.3,3.3,1.3l0.3-0.7c0.1-0.3,0.3-0.4,0.6-0.4h0.7c0.2,0,0.4,0.2,0.4,0.4v15.5c0,0.2-0.2,0.4-0.4,0.4h-2
			c-0.2,0-0.4-0.2-0.4-0.4v-12.3c-0.1-0.2-1-1.1-2.2-1.1c-1,0-2,0.6-2,2.1v2.5h2c0.2,0,0.4,0.2,0.4,0.4v1.5c0,0.2-0.2,0.4-0.4,0.4
			h-2v6.5c0,0.2-0.2,0.4-0.4,0.4h-2c-0.2,0-0.4-0.2-0.4-0.4V200.7z"/>
		<path fill="#FFFFFF" d="M545,193.3c0-0.9,0.7-1.6,1.6-1.6c0.9,0,1.6,0.7,1.6,1.6c0,0.9-0.7,1.6-1.6,1.6
			C545.7,195,545,194.2,545,193.3z M545.2,198.7c0-0.3,0.2-0.4,0.4-0.4h1.9c0.2,0,0.4,0.2,0.4,0.4v8.5c0,0.2-0.2,0.4-0.4,0.4h-1.9
			c-0.2,0-0.4-0.2-0.4-0.4V198.7z"/>
		<path fill="#FFFFFF" d="M552.3,204.3c0,0-0.7-0.8-0.7-2.2c0-2.2,1.8-4.1,4.1-4.1h4.3c0.3,0,0.4,0.2,0.4,0.4v0.8
			c0,0.2-0.1,0.4-0.3,0.4l-1.3,0.4c0,0,0.9,0.7,0.9,2.4c0,1.8-1.5,3.7-4,3.7c-0.9,0-1.5-0.2-1.9-0.2c-0.3,0-0.9,0.3-0.9,0.9
			c0,0.5,0.4,0.8,0.9,0.8h3c2.1,0,3.9,1.2,3.9,3.3c0,2.1-1.7,4-5.1,4c-3.5,0-4.8-1.7-4.8-3.2c0-1.4,1.2-2.1,1.4-2.2v-0.1
			c-0.4-0.1-1.8-0.7-1.8-2.5C550.6,205.1,552.3,204.3,552.3,204.3z M555.7,212.5c1.3,0,2.2-0.6,2.2-1.5c0-0.4-0.3-1.1-1.7-1.1
			c-0.5,0-1,0-1.5,0.1c-0.3,0.1-1,0.4-1,1.1C553.6,212,554.4,212.5,555.7,212.5z M555.8,203.9c1,0,1.6-0.7,1.6-1.7
			c0-1-0.7-1.7-1.6-1.7c-0.9,0-1.6,0.7-1.6,1.7C554.1,203.2,554.8,203.9,555.8,203.9z"/>
		<path fill="#FFFFFF" d="M563,191.7c0-0.2,0.2-0.4,0.4-0.4h2c0.2,0,0.4,0.2,0.4,0.4v7.1c0.5-0.4,1.4-0.8,2.5-0.8
			c3,0,4.2,2.3,4.2,4.6v4.5c0,0.2-0.2,0.4-0.4,0.4h-1.9c-0.3,0-0.4-0.2-0.4-0.4v-4.5c0-1.3-0.7-2.1-1.8-2.1c-1.1,0-1.8,0.7-2,1.7v5
			c0,0.3-0.1,0.4-0.5,0.4h-1.9c-0.2,0-0.4-0.2-0.4-0.4V191.7z"/>
		<path fill="#FFFFFF" d="M576.2,200.7h-0.8c-0.2,0-0.4-0.2-0.4-0.4v-1.6c0-0.3,0.2-0.4,0.4-0.4h0.8v-2.6c0-0.2,0.2-0.4,0.4-0.4
			l1.9,0c0.2,0,0.4,0.2,0.4,0.4v2.6h2.1c0.3,0,0.4,0.2,0.4,0.4v1.6c0,0.2-0.2,0.4-0.4,0.4H579v3.7c0,0.7,0.4,0.7,0.7,0.7
			c0.4,0,0.9-0.2,1.1-0.3c0.3-0.1,0.4,0,0.5,0.3l0.5,1.5c0.1,0.2,0,0.5-0.3,0.6c-0.1,0.1-1.6,0.6-2.8,0.6c-1.8,0-2.6-1.1-2.6-3
			V200.7z"/>
		<path fill="#FFFFFF" d="M590.6,193.3c0-0.9,0.7-1.6,1.6-1.6c0.9,0,1.6,0.7,1.6,1.6c0,0.9-0.7,1.6-1.6,1.6
			C591.3,195,590.6,194.2,590.6,193.3z M590.8,198.7c0-0.3,0.2-0.4,0.4-0.4h1.9c0.2,0,0.4,0.2,0.4,0.4v8.5c0,0.2-0.2,0.4-0.4,0.4
			h-1.9c-0.2,0-0.4-0.2-0.4-0.4V198.7z"/>
		<path fill="#FFFFFF" d="M596.7,206.5l0.6-1.3c0.1-0.2,0.3-0.3,0.5-0.2c0,0,1.1,0.6,2.1,0.6c0.5,0,0.8-0.2,0.8-0.6
			c0-0.4-0.3-0.7-1.6-1.2c-1.8-0.7-2.6-1.7-2.6-3.1s1.1-2.8,3.4-2.8c1.4,0,2.4,0.4,2.9,0.7c0.2,0.1,0.3,0.4,0.2,0.6l-0.6,1.2
			c-0.1,0.2-0.4,0.2-0.6,0.2c0,0-1.1-0.5-1.9-0.5c-0.6,0-0.8,0.2-0.8,0.5c0,0.4,0.4,0.6,1.3,0.9c1.8,0.7,3.2,1.5,3.2,3.3
			c0,1.5-1.4,2.9-3.7,2.9c-1.5,0-2.6-0.5-3.1-0.9C596.7,206.9,596.6,206.7,596.7,206.5z"/>
		<path fill="#FFFFFF" d="M612.7,191.7c0-0.2,0.2-0.4,0.4-0.4h2c0.2,0,0.4,0.2,0.4,0.4v6.8c0.4-0.2,1.1-0.4,2.1-0.4
			c2.8,0,4.6,2.2,4.6,4.9c0,2.7-1.9,4.9-4.5,4.9c-2,0-3.1-1.4-3.1-1.4l-0.2,0.7c-0.1,0.3-0.2,0.4-0.4,0.4h-0.9
			c-0.2,0-0.4-0.2-0.4-0.4V191.7z M617.5,205.3c1.2,0,2.1-1.1,2.1-2.4s-1-2.4-2.3-2.4c-1.2,0-1.8,0.5-1.8,0.5v2.7
			C615.7,204.4,616.2,205.3,617.5,205.3z"/>
		<path fill="#FFFFFF" d="M629.4,198c2.6,0,4.8,2.2,4.8,4.9c0,2.7-2.1,4.9-4.8,4.9c-2.6,0-4.8-2.2-4.8-4.9
			C624.6,200.3,626.7,198,629.4,198z M629.4,205.3c1.2,0,2.2-1.1,2.2-2.4c0-1.3-1-2.4-2.2-2.4c-1.3,0-2.2,1.1-2.2,2.4
			C627.1,204.3,628.1,205.3,629.4,205.3z"/>
		<path fill="#FFFFFF" d="M640.1,201.7c0.9,0,1.7,0.3,1.7,0.3c0-1.2-0.4-1.6-1.2-1.6s-2.1,0.2-2.6,0.4c-0.3,0.1-0.5-0.1-0.5-0.4
			l-0.2-1.2c-0.1-0.4,0.1-0.5,0.3-0.6c0.2-0.1,1.7-0.4,3.2-0.4c2.9,0,3.6,1.5,3.6,4.1v5.1c0,0.2-0.2,0.4-0.4,0.4H643
			c-0.2,0-0.3-0.1-0.4-0.3l-0.3-0.6c-0.5,0.5-1.4,1.2-2.9,1.2c-1.9,0-3.2-1.2-3.2-3.2C636.4,203,637.7,201.7,640.1,201.7z
			 M640.1,205.9c0.7,0,1.5-0.6,1.6-0.9v-1.3c0,0-0.6-0.3-1.3-0.3c-0.9,0-1.5,0.5-1.5,1.3C638.9,205.4,639.4,205.9,640.1,205.9z"/>
		<path fill="#FFFFFF" d="M647.7,198.7c0-0.3,0.2-0.4,0.4-0.4h0.9c0.2,0,0.4,0.1,0.4,0.3l0.3,0.9c0.3-0.5,1.2-1.4,2.6-1.4
			c1.1,0,2.1,0.4,1.8,0.9l-0.9,1.5c-0.1,0.2-0.4,0.3-0.5,0.2c-0.1,0-0.4-0.1-0.7-0.1c-0.9,0-1.5,0.6-1.7,1v5.7
			c0,0.3-0.2,0.4-0.5,0.4h-1.8c-0.2,0-0.4-0.2-0.4-0.4V198.7z"/>
		<path fill="#FFFFFF" d="M660.2,198c0.9,0,1.7,0.3,2.1,0.4v-6.8c0-0.2,0.2-0.4,0.4-0.4h2c0.2,0,0.4,0.2,0.4,0.4v15.5
			c0,0.2-0.2,0.4-0.4,0.4h-0.9c-0.2,0-0.4-0.2-0.4-0.4l-0.2-0.7c0,0-1.1,1.4-3.1,1.4c-2.5,0-4.5-2.2-4.5-4.9
			C655.6,200.2,657.4,198,660.2,198z M660.4,205.3c1.2,0,1.8-1,2-1.5v-2.7c0,0-0.7-0.5-1.8-0.5c-1.3,0-2.3,1.1-2.3,2.4
			S659.2,205.3,660.4,205.3z"/>
		<path fill="#FFFFFF" d="M668.5,193.3c0-0.9,0.7-1.6,1.6-1.6c0.9,0,1.6,0.7,1.6,1.6c0,0.9-0.7,1.6-1.6,1.6
			C669.2,195,668.5,194.2,668.5,193.3z M668.7,198.7c0-0.3,0.2-0.4,0.4-0.4h1.9c0.2,0,0.4,0.2,0.4,0.4v8.5c0,0.2-0.2,0.4-0.4,0.4
			h-1.9c-0.2,0-0.4-0.2-0.4-0.4V198.7z"/>
		<path fill="#FFFFFF" d="M675,198.7c0-0.3,0.2-0.4,0.4-0.4h0.9c0.2,0,0.3,0.1,0.4,0.3l0.3,0.9c0.4-0.4,1.5-1.4,3.3-1.4
			c3,0,4.2,2.2,4.2,4.6v4.5c0,0.2-0.2,0.4-0.4,0.4h-1.9c-0.3,0-0.4-0.2-0.4-0.4v-4.6c0-1.2-0.6-2-1.8-2c-1.2,0-2,0.8-2.2,1.5v5.1
			c0,0.3-0.1,0.4-0.6,0.4h-1.7c-0.2,0-0.4-0.2-0.4-0.4V198.7z"/>
		<path fill="#FFFFFF" d="M688.7,204.3c0,0-0.7-0.8-0.7-2.2c0-2.2,1.8-4.1,4.1-4.1h4.3c0.3,0,0.4,0.2,0.4,0.4v0.8
			c0,0.2-0.1,0.4-0.3,0.4l-1.3,0.4c0,0,0.9,0.7,0.9,2.4c0,1.8-1.5,3.7-4,3.7c-0.9,0-1.5-0.2-1.9-0.2c-0.3,0-0.9,0.3-0.9,0.9
			c0,0.5,0.4,0.8,0.9,0.8h3c2.1,0,3.9,1.2,3.9,3.3c0,2.1-1.7,4-5.1,4c-3.5,0-4.8-1.7-4.8-3.2c0-1.4,1.2-2.1,1.4-2.2v-0.1
			c-0.4-0.1-1.8-0.7-1.8-2.5C687,205.1,688.7,204.3,688.7,204.3z M692,212.5c1.3,0,2.2-0.6,2.2-1.5c0-0.4-0.3-1.1-1.7-1.1
			c-0.5,0-1,0-1.5,0.1c-0.3,0.1-1,0.4-1,1.1C690,212,690.8,212.5,692,212.5z M692.1,203.9c1,0,1.6-0.7,1.6-1.7c0-1-0.7-1.7-1.6-1.7
			c-0.9,0-1.6,0.7-1.6,1.7C690.5,203.2,691.2,203.9,692.1,203.9z"/>
		<path fill="#FFFFFF" d="M708.8,201.7c0.9,0,1.7,0.3,1.7,0.3c0-1.2-0.4-1.6-1.2-1.6s-2.1,0.2-2.6,0.4c-0.3,0.1-0.5-0.1-0.5-0.4
			l-0.2-1.2c-0.1-0.4,0.1-0.5,0.3-0.6c0.2-0.1,1.7-0.4,3.2-0.4c2.9,0,3.6,1.5,3.6,4.1v5.1c0,0.2-0.2,0.4-0.4,0.4h-0.8
			c-0.2,0-0.3-0.1-0.4-0.3l-0.3-0.6c-0.5,0.5-1.4,1.2-2.9,1.2c-1.9,0-3.2-1.2-3.2-3.2C705.1,203,706.4,201.7,708.8,201.7z
			 M708.9,205.9c0.7,0,1.5-0.6,1.6-0.9v-1.3c0,0-0.6-0.3-1.3-0.3c-0.9,0-1.5,0.5-1.5,1.3C707.6,205.4,708.1,205.9,708.9,205.9z"/>
		<path fill="#FFFFFF" d="M716.8,200.7H716c-0.2,0-0.4-0.2-0.4-0.4v-1.6c0-0.3,0.2-0.4,0.4-0.4h0.8v-2.6c0-0.2,0.2-0.4,0.4-0.4
			l1.9,0c0.2,0,0.4,0.2,0.4,0.4v2.6h2.1c0.3,0,0.4,0.2,0.4,0.4v1.6c0,0.2-0.2,0.4-0.4,0.4h-2.1v3.7c0,0.7,0.4,0.7,0.7,0.7
			c0.4,0,0.9-0.2,1.1-0.3c0.3-0.1,0.4,0,0.5,0.3l0.5,1.5c0.1,0.2,0,0.5-0.3,0.6c-0.1,0.1-1.6,0.6-2.8,0.6c-1.8,0-2.6-1.1-2.6-3
			V200.7z"/>
		<path fill="#FFFFFF" d="M487.1,229.8c2.1,0,4.1,0.8,5.7,2.2c0.2,0.2,0.2,0.5,0,0.7l-1.4,1.5c-0.2,0.2-0.4,0.2-0.6,0
			c-1-0.9-2.2-1.4-3.5-1.4c-2.9,0-5.2,2.5-5.2,5.4c0,2.9,2.3,5.4,5.3,5.4c1.3,0,2.3-0.4,2.8-0.6v-2h-1.9c-0.3,0-0.4-0.2-0.4-0.4
			v-1.8c0-0.3,0.2-0.4,0.4-0.4h4.5c0.2,0,0.4,0.2,0.4,0.4v6c0,0.2-0.1,0.3-0.2,0.4c0,0-2.4,1.5-5.8,1.5c-4.6,0-8.4-3.7-8.4-8.4
			S482.5,229.8,487.1,229.8z"/>
		<path fill="#FFFFFF" d="M500,240.5c0.9,0,1.7,0.3,1.7,0.3c0-1.2-0.4-1.6-1.2-1.6s-2.1,0.2-2.6,0.4c-0.3,0.1-0.5-0.1-0.5-0.4
			l-0.2-1.2c-0.1-0.4,0.1-0.5,0.3-0.6c0.2-0.1,1.7-0.4,3.2-0.4c2.9,0,3.6,1.5,3.6,4.1v5.1c0,0.2-0.2,0.4-0.4,0.4h-0.8
			c-0.2,0-0.3-0.1-0.4-0.3l-0.3-0.6c-0.5,0.5-1.4,1.2-2.9,1.2c-1.9,0-3.2-1.2-3.2-3.2C496.3,241.8,497.6,240.5,500,240.5z
			 M500,244.6c0.7,0,1.5-0.6,1.6-0.9v-1.3c0,0-0.6-0.3-1.3-0.3c-0.9,0-1.5,0.5-1.5,1.3C498.8,244.1,499.3,244.6,500,244.6z"/>
		<path fill="#FFFFFF" d="M508,239.5h-0.8c-0.2,0-0.4-0.2-0.4-0.4v-1.6c0-0.3,0.2-0.4,0.4-0.4h0.8v-2.6c0-0.2,0.2-0.4,0.4-0.4l1.9,0
			c0.2,0,0.4,0.2,0.4,0.4v2.6h2.1c0.3,0,0.4,0.2,0.4,0.4v1.6c0,0.2-0.2,0.4-0.4,0.4h-2.1v3.7c0,0.7,0.4,0.7,0.7,0.7
			c0.4,0,0.9-0.2,1.1-0.3c0.3-0.1,0.4,0,0.5,0.3l0.5,1.5c0.1,0.2,0,0.5-0.3,0.6c-0.1,0.1-1.6,0.6-2.8,0.6c-1.8,0-2.6-1.1-2.6-3
			V239.5z"/>
		<path fill="#FFFFFF" d="M520.2,236.8c2.4,0,4.4,1.8,4.4,4.3c0,0.2,0,0.5,0,0.6c0,0.2-0.2,0.4-0.4,0.4h-6c0.1,1,0.9,2,2.2,2
			c0.7,0,1.4-0.3,1.8-0.6c0.2-0.1,0.4-0.2,0.6,0l1,1.1c0.2,0.2,0.2,0.4,0,0.6c-0.8,0.7-2,1.3-3.5,1.3c-2.8,0-4.8-2.2-4.8-4.9
			C515.5,239.1,517.5,236.8,520.2,236.8z M521.9,240.6c-0.1-0.9-0.8-1.6-1.7-1.6c-0.9,0-1.7,0.7-1.8,1.6H521.9z"/>
		<path fill="#FFFFFF" d="M532.9,245.4c1.5-1.9,4.5-5.7,6.1-7.8c0.7-0.9,1.2-1.8,1.2-2.6c0-1.1-0.8-2.1-2.5-2.1
			c-1.1,0-2.1,0.8-2.6,1.4c-0.2,0.2-0.4,0.2-0.6,0l-1.1-1.1c-0.1-0.1-0.2-0.4,0-0.6c0,0,1.8-2.3,4.6-2.3c3.3,0,5.2,2.1,5.2,4.7
			c0,1.5-0.7,2.5-1.6,3.8c-1,1.4-2.8,3.6-4,5.2h5c0.2,0,0.4,0.2,0.4,0.4v1.6c0,0.2-0.2,0.4-0.4,0.4h-9.2c-0.3,0-0.4-0.2-0.4-0.4
			V245.4z"/>
		<path fill="#FFFFFF" d="M546.2,245.7l6.1-12.7h-6.2c-0.2,0-0.4-0.2-0.4-0.4V231c0-0.2,0.2-0.4,0.4-0.4h9.7c0.2,0,0.4,0.2,0.4,0.4
			v0.2l-7,14.7c-0.2,0.4-0.4,0.6-0.8,0.6h-1.7c-0.3,0-0.6-0.1-0.6-0.4V245.7z"/>
		<path fill="#FFFFFF" d="M567.8,240.5c0.9,0,1.7,0.3,1.7,0.3c0-1.2-0.4-1.6-1.2-1.6c-0.9,0-2.1,0.2-2.6,0.4
			c-0.3,0.1-0.5-0.1-0.5-0.4l-0.2-1.2c-0.1-0.4,0.1-0.5,0.3-0.6c0.2-0.1,1.7-0.4,3.2-0.4c2.9,0,3.6,1.5,3.6,4.1v5.1
			c0,0.2-0.2,0.4-0.4,0.4h-0.8c-0.2,0-0.3-0.1-0.4-0.3l-0.3-0.6c-0.5,0.5-1.4,1.2-2.9,1.2c-1.9,0-3.2-1.2-3.2-3.2
			C564,241.8,565.4,240.5,567.8,240.5z M567.8,244.6c0.7,0,1.5-0.6,1.6-0.9v-1.3c0,0-0.6-0.3-1.3-0.3c-0.9,0-1.5,0.5-1.5,1.3
			C566.6,244.1,567.1,244.6,567.8,244.6z"/>
		<path fill="#FFFFFF" d="M575.8,239.5H575c-0.2,0-0.4-0.2-0.4-0.4v-1.6c0-0.3,0.2-0.4,0.4-0.4h0.8v-2.6c0-0.2,0.2-0.4,0.4-0.4
			l1.9,0c0.2,0,0.4,0.2,0.4,0.4v2.6h2.1c0.3,0,0.4,0.2,0.4,0.4v1.6c0,0.2-0.2,0.4-0.4,0.4h-2.1v3.7c0,0.7,0.4,0.7,0.7,0.7
			c0.4,0,0.9-0.2,1.1-0.3c0.3-0.1,0.4,0,0.5,0.3l0.5,1.5c0.1,0.2,0,0.5-0.3,0.6c-0.1,0.1-1.6,0.6-2.8,0.6c-1.8,0-2.6-1.1-2.6-3
			V239.5z"/>
		<path fill="#FFFFFF" d="M592.2,234.8l-2.1,0.4c-0.2,0-0.4-0.1-0.5-0.3l-0.1-1.1c0-0.2,0-0.3,0.1-0.4l3.4-2.8h1.6
			c0.2,0,0.4,0.2,0.4,0.4v15c0,0.2-0.2,0.4-0.4,0.4h-2c-0.3,0-0.4-0.2-0.4-0.4V234.8z"/>
		<path fill="#FFFFFF" d="M598.5,245.4c1.5-1.9,4.5-5.7,6.1-7.8c0.7-0.9,1.2-1.8,1.2-2.6c0-1.1-0.8-2.1-2.5-2.1
			c-1.1,0-2.1,0.8-2.6,1.4c-0.2,0.2-0.4,0.2-0.6,0l-1.1-1.1c-0.1-0.1-0.2-0.4,0-0.6c0,0,1.8-2.3,4.6-2.3c3.3,0,5.2,2.1,5.2,4.7
			c0,1.5-0.7,2.5-1.6,3.8c-1,1.4-2.8,3.6-4,5.2h5c0.2,0,0.4,0.2,0.4,0.4v1.6c0,0.2-0.2,0.4-0.4,0.4h-9.2c-0.3,0-0.4-0.2-0.4-0.4
			V245.4z"/>
		<path fill="#FFFFFF" d="M611.9,238.5c0-0.9,0.7-1.7,1.7-1.7c0.9,0,1.7,0.7,1.7,1.7c0,0.9-0.7,1.7-1.7,1.7
			C612.6,240.2,611.9,239.4,611.9,238.5z M613.5,243.3c0.9,0,1.7,0.7,1.7,1.7s-0.7,1.7-1.7,1.7c-0.9,0-1.7-0.7-1.7-1.7
			S612.6,243.3,613.5,243.3z"/>
		<path fill="#FFFFFF" d="M618.2,244l1.2-1.1c0.2-0.2,0.4-0.2,0.6,0c0.1,0.1,1.4,1.3,2.9,1.3c1.3,0,2.5-0.9,2.5-2.2
			c0-1.2-1.1-2.3-3.2-2.3h-1.3c-0.3,0-0.4-0.2-0.4-0.5v-1.5c0-0.3,0.2-0.5,0.4-0.5h1.3c1.9,0,2.9-1,2.9-2.1c0-1.3-1.1-2.1-2.3-2.1
			c-1.2,0-2,0.7-2.4,1.1c-0.2,0.2-0.4,0.2-0.6,0l-1.1-1.1c-0.2-0.2-0.2-0.4,0-0.6c0,0,1.8-2.1,4.4-2.1c2.7,0,5,1.7,5,4.3
			c0,1.8-1.4,3.2-2.4,3.6v0.1c1.1,0.5,2.8,1.7,2.8,3.8c0,2.6-2.1,4.6-5.4,4.6c-2.9,0-4.3-1.5-4.9-2.1
			C618,244.4,618.1,244.1,618.2,244z"/>
		<path fill="#FFFFFF" d="M631.7,238.5c0-5.1,2.1-8.2,5.9-8.2c3.7,0,5.9,3.1,5.9,8.2c0,5.1-2.1,8.2-5.9,8.2
			C633.8,246.6,631.7,243.6,631.7,238.5z M640.4,238.5c0-3.5-1-5.4-2.8-5.4c-1.8,0-2.8,2-2.8,5.4c0,3.5,1,5.4,2.8,5.4
			C639.3,243.9,640.4,241.9,640.4,238.5z"/>
		<path fill="#FFFFFF" d="M648.3,242.8c1.1,0,1.9,0.9,1.9,1.9s-0.9,1.9-1.9,1.9s-1.9-0.9-1.9-1.9S647.2,242.8,648.3,242.8z"/>
	</g>
</g>
<g>
	<g>
		<path fill="#F15C2B" d="M420.4,316.9l21.9-37.8c2.3-3.3,7.2-3.3,9.5,0l21.9,37.8c2.6,3.8-0.1,9-4.7,9h-43.8
			C420.5,325.9,417.8,320.7,420.4,316.9z"/>
	</g>
	<g>
		<path fill="#FFFFFF" d="M447,311.2c1.7,0,3.2,1.5,3.2,3.2c0,1.7-1.5,3.1-3.2,3.1c-1.7,0-3.1-1.4-3.1-3.1
			C443.8,312.7,445.3,311.2,447,311.2z M445.7,307.6l-1.6-9.3v-3.8c0-0.3,0.3-0.6,0.6-0.6h4.7c0.3,0,0.6,0.3,0.6,0.6v3.7l-1.6,9.4
			c0,0.3-0.3,0.5-0.6,0.5h-1.4C446,308.2,445.7,307.9,445.7,307.6z"/>
	</g>
</g>
<path fill="#FFFFFF" stroke="#B5C0C3" stroke-width="3" stroke-miterlimit="10" d="M461.9,86.1h-29.8c-2.1,0-3.8-1.7-3.8-3.8v-0.9
	c0-2.1,1.7-3.8,3.8-3.8h29.8c2.1,0,3.8,1.7,3.8,3.8v0.9C465.7,84.4,464,86.1,461.9,86.1z"/>
<circle fill="#E0E2E2" stroke="#B5C0C3" stroke-width="3" stroke-miterlimit="10" cx="447" cy="531.2" r="22.7"/>
</svg>
