<?xml version="1.0" encoding="utf-8"?>
<!-- Generator: Adobe Illustrator 18.1.1, SVG Export Plug-In . SVG Version: 6.00 Build 0)  -->
<svg version="1.0" id="Layer_1" xmlns="http://www.w3.org/2000/svg" xmlns:xlink="http://www.w3.org/1999/xlink" x="0px" y="0px"
	 viewBox="0 0 800 600" enable-background="new 0 0 800 600" xml:space="preserve">
<g>
	<g>
		<g>
			<line fill="none" stroke="#B5C0C3" stroke-width="5.1" stroke-miterlimit="10" x1="280.1" y1="238" x2="283.5" y2="240.6"/>
			
				<line fill="none" stroke="#B5C0C3" stroke-width="5.1" stroke-miterlimit="10" stroke-dasharray="8.6077,6.8861" x1="288.9" y1="244.9" x2="346.9" y2="290.9"/>
			<line fill="none" stroke="#B5C0C3" stroke-width="5.1" stroke-miterlimit="10" x1="349.6" y1="293" x2="352.9" y2="295.7"/>
		</g>
	</g>
	<g>
		<g>
			<path fill="#FFFFFF" stroke="#B5C0C3" stroke-width="3.464" stroke-miterlimit="10" d="M583,217.3v289.9c0,2.4-2,4.4-4.4,4.4
				H159.3c-2.4,0-4.4-2-4.4-4.4V217.3"/>
			<path fill="#E0E2E2" stroke="#B5C0C3" stroke-width="3.464" stroke-miterlimit="10" d="M583,217.3H154.8v-35.8
				c0-2.6,2.1-4.8,4.8-4.8h418.6c2.6,0,4.8,2.1,4.8,4.8L583,217.3L583,217.3z"/>
			<g>
				
					<ellipse fill="#FFFFFF" stroke="#B4BFC2" stroke-width="2.6961" stroke-miterlimit="10" cx="174.1" cy="197" rx="7.5" ry="7.5"/>
				
					<ellipse fill="#FFFFFF" stroke="#B4BFC2" stroke-width="2.6961" stroke-miterlimit="10" cx="198.5" cy="197" rx="7.5" ry="7.5"/>
				
					<ellipse fill="#FFFFFF" stroke="#B4BFC2" stroke-width="2.6961" stroke-miterlimit="10" cx="222.8" cy="197" rx="7.5" ry="7.5"/>
			</g>
			<g>
				<path fill="#B7B7B7" d="M289.9,407h-69.4c-0.7,0-1.2-0.5-1.2-1.2v-8c0-0.7,0.5-1.2,1.2-1.2h69.4c0.7,0,1.2,0.5,1.2,1.2v8
					C291.1,406.5,290.5,407,289.9,407z"/>
				<path fill="#E0E1E1" d="M559.2,418.9H220.4c-0.7,0-1.2-0.5-1.2-1.2v-5c0-0.7,0.5-1.2,1.2-1.2h338.8c0.7,0,1.2,0.5,1.2,1.2v5
					C560.4,418.4,559.9,418.9,559.2,418.9z"/>
				<path fill="#E0E1E1" d="M559.2,430.8H220.4c-0.7,0-1.2-0.5-1.2-1.2v-5c0-0.7,0.5-1.2,1.2-1.2h338.8c0.7,0,1.2,0.5,1.2,1.2v5
					C560.4,430.3,559.9,430.8,559.2,430.8z"/>
				<g>
					<path fill="#E0E1E1" d="M178,424l8-2.9l0.7-2.3c1,0.6,2.1,0.9,3.3,0.9s2.3-0.4,3.4-1l0.7,2.3l8,2.9c0,0,0.5,0.1,1,0.9
						c2.7-3.1,4.4-7.1,4.4-11.5c0-9.6-7.7-17.3-17.3-17.3s-17.3,7.7-17.3,17.3c0,4.4,1.7,8.4,4.4,11.5C177.5,424.1,178,424,178,424z
						 M189.9,401.7c2.8,0,5.1,2,6.2,4.8c-2,1.3-2.5,1.1-2.5,1.1c-0.1-0.1-0.1-0.2-0.2-0.4c-0.1-0.4-0.3-0.9-0.8-1.1
						c-0.5-0.2-1.2-0.1-2.2,0.4c-3.2,1.5-5.9-0.2-6.6-0.7C185.1,403.3,187.3,401.7,189.9,401.7z M183.4,407c1.1,0.8,4.1,2.3,7.6,0.7
						c0.7-0.3,1-0.4,1.1-0.4c0.1,0,0.1,0,0.1,0c0.1,0.1,0.1,0.2,0.2,0.4c0.1,0.4,0.3,0.9,0.9,1.1c0.2,0.1,0.3,0.1,0.5,0.1
						c0.7,0,1.5-0.4,2.8-1.1c0.2,0.8,0.3,1.6,0.3,2.4c0,3.7-2,6.8-4.7,8c-0.7,0.3-1.4,0.5-2.2,0.5c-0.8,0-1.7-0.2-2.4-0.5
						c-2.6-1.2-4.6-4.3-4.6-7.9C183,409,183.1,407.9,183.4,407z"/>
					<g>
						<path fill="#B7B7B7" d="M189.9,430.7c5.1,0,9.8-2.3,12.9-5.8c-0.5-0.8-1-0.9-1-0.9l-8-2.9l-0.7-2.3c-1.1,0.6-2.2,1-3.4,1
							s-2.3-0.3-3.3-0.9l-0.7,2.3l-8,2.9c0,0-0.5,0.2-1,0.9C180.2,428.5,184.8,430.7,189.9,430.7z"/>
						<path fill="#B7B7B7" d="M187.5,417.9c0.8,0.3,1.6,0.5,2.4,0.5c0.8,0,1.5-0.2,2.2-0.5c2.8-1.1,4.7-4.3,4.7-8
							c0-0.8-0.1-1.7-0.3-2.4c-1.3,0.8-2.2,1.1-2.8,1.1c-0.2,0-0.3,0-0.5-0.1c-0.6-0.2-0.8-0.8-0.9-1.1c0-0.2-0.1-0.3-0.2-0.4
							c0,0,0,0-0.1,0c-0.2,0-0.5,0.1-1.1,0.4c-3.5,1.7-6.5,0.1-7.6-0.7c-0.3,1-0.5,2-0.5,3.1C183,413.7,184.8,416.8,187.5,417.9z"/>
						<path fill="#B7B7B7" d="M190.5,406.5c1-0.5,1.7-0.6,2.2-0.4c0.5,0.2,0.7,0.8,0.8,1.1c0,0.2,0.1,0.3,0.2,0.4
							c0,0,0.5,0.2,2.5-1.1c-1.1-2.9-3.5-4.8-6.2-4.8c-2.6,0-4.7,1.7-6,4.1C184.6,406.4,187.4,408.1,190.5,406.5z"/>
					</g>
				</g>
			</g>
			<g>
				<g>
					<g>
						<g>
							<path fill="#82C1EA" d="M183.7,287l16.3-6.1l1.4-4.6c2,1.2,4.3,1.9,6.7,1.9c2.5,0,4.9-0.8,6.9-2l1.4,4.7l16.3,6.1
								c0,0,1,0.2,2,1.8c5.6-6.2,9-14.5,9-23.6c0-19.6-15.9-35.4-35.4-35.4s-35.4,15.9-35.4,35.4c0,9,3.4,17.3,9,23.6
								C182.7,287.2,183.7,287,183.7,287z M208.1,241.3c5.6,0,10.5,4,12.9,9.8c-4.1,2.6-5,2.3-5.1,2.3c-0.1-0.1-0.2-0.5-0.3-0.8
								c-0.2-0.8-0.5-1.8-1.7-2.3c-1.1-0.5-2.5-0.2-4.5,0.8c-6.5,3.2-12-0.4-13.5-1.4C198.3,244.7,202.8,241.3,208.1,241.3z
								 M194.8,252.1c2.3,1.6,8.5,4.8,15.6,1.4c1.4-0.7,2-0.8,2.3-0.8c0.2,0,0.2,0,0.2,0c0.1,0.1,0.2,0.5,0.3,0.8
								c0.2,0.8,0.6,1.9,1.8,2.3c0.3,0.1,0.6,0.2,1,0.2c1.3,0,3.1-0.8,5.8-2.4c0.4,1.6,0.6,3.2,0.6,5c0,7.6-4.1,14.1-9.7,16.3
								c-1.4,0.6-2.9,0.9-4.5,0.9c-1.7,0-3.4-0.4-4.9-1.1c-5.4-2.4-9.3-8.7-9.3-16.2C193.8,256.2,194.2,254.1,194.8,252.1z"/>
						</g>
					</g>
					<g>
						<path fill="#63A3D8" d="M208.2,300.7c10.5,0,20-4.6,26.5-11.9c-1.1-1.6-2-1.8-2-1.8l-16.3-6.1l-1.4-4.7c-2.1,1.3-4.4,2-6.9,2
							c-2.4,0-4.7-0.7-6.7-1.9l-1.4,4.6l-16.3,6.1c0,0-1,0.2-2,1.8C188.2,296.1,197.6,300.7,208.2,300.7z"/>
					</g>
					<g>
						<path fill="#63A3D8" d="M203.1,274.7c1.5,0.7,3.2,1.1,4.9,1.1c1.6,0,3.1-0.3,4.5-0.9c5.6-2.3,9.7-8.7,9.7-16.3
							c0-1.7-0.2-3.4-0.6-5c-2.6,1.7-4.4,2.4-5.8,2.4c-0.4,0-0.7-0.1-1-0.2c-1.2-0.5-1.6-1.6-1.8-2.3c-0.1-0.2-0.2-0.7-0.3-0.8
							c0,0,0,0-0.2,0c-0.2,0-0.9,0.1-2.3,0.8c-7.1,3.5-13.2,0.2-15.6-1.4c-0.7,2-1.1,4.1-1.1,6.4
							C193.8,265.9,197.7,272.2,203.1,274.7z"/>
					</g>
					<g>
						<path fill="#63A3D8" d="M209.3,251.2c2.1-1.1,3.5-1.3,4.5-0.8c1.1,0.5,1.4,1.6,1.7,2.3c0.1,0.2,0.2,0.6,0.3,0.8
							c0.1,0,1,0.2,5.1-2.3c-2.3-5.8-7.2-9.8-12.9-9.8c-5.2,0-9.8,3.4-12.3,8.5C197.2,250.8,202.9,254.4,209.3,251.2z"/>
					</g>
				</g>
			</g>
			<g>
				<g>
					<path fill="#B7B7B7" d="M289.9,463.9h-69.4c-0.7,0-1.2-0.5-1.2-1.2v-8c0-0.7,0.5-1.2,1.2-1.2h69.4c0.7,0,1.2,0.5,1.2,1.2v8
						C291.1,463.4,290.5,463.9,289.9,463.9z"/>
					<path fill="#E0E1E1" d="M559.2,475.8H220.4c-0.7,0-1.2-0.5-1.2-1.2v-5c0-0.7,0.5-1.2,1.2-1.2h338.8c0.7,0,1.2,0.5,1.2,1.2v5
						C560.4,475.2,559.9,475.8,559.2,475.8z"/>
					<path fill="#E0E1E1" d="M559.2,487.7H220.4c-0.7,0-1.2-0.5-1.2-1.2v-5c0-0.7,0.5-1.2,1.2-1.2h338.8c0.7,0,1.2,0.5,1.2,1.2v5
						C560.4,487.1,559.9,487.7,559.2,487.7z"/>
				</g>
				<g>
					<g>
						<g>
							<g>
								<path fill="#B7B7B7" d="M177.9,481.4l8-2.9l0.7-2.3c1,0.6,2.1,0.9,3.3,0.9s2.3-0.4,3.4-1l0.7,2.3l8,2.9c0,0,0.5,0.1,1,0.9
									c2.7-3.1,4.4-7.1,4.4-11.5c0-9.6-7.7-17.3-17.3-17.3s-17.3,7.7-17.3,17.3c0,4.4,1.7,8.4,4.4,11.5
									C177.5,481.5,177.9,481.4,177.9,481.4z M189.8,459.1c2.8,0,5.1,2,6.2,4.8c-2,1.3-2.5,1.1-2.5,1.1c-0.1-0.1-0.1-0.2-0.2-0.4
									c-0.1-0.4-0.3-0.9-0.8-1.1c-0.5-0.2-1.2-0.1-2.2,0.4c-3.2,1.5-5.9-0.2-6.6-0.7C185.1,460.8,187.2,459.1,189.8,459.1z
									 M183.3,464.4c1.1,0.8,4.1,2.3,7.6,0.7c0.7-0.3,1-0.4,1.1-0.4c0.1,0,0.1,0,0.1,0c0.1,0.1,0.1,0.2,0.2,0.4
									c0.1,0.4,0.3,0.9,0.9,1.1c0.2,0.1,0.3,0.1,0.5,0.1c0.7,0,1.5-0.4,2.8-1.2c0.2,0.8,0.3,1.6,0.3,2.4c0,3.7-2,6.8-4.7,8
									c-0.7,0.3-1.4,0.5-2.2,0.5c-0.8,0-1.7-0.2-2.4-0.5c-2.6-1.2-4.6-4.3-4.6-7.9C182.9,466.4,183,465.3,183.3,464.4z"/>
							</g>
						</g>
						<g>
							<path fill="#E0E1E1" d="M189.9,488.1c5.1,0,9.8-2.3,12.9-5.8c-0.5-0.8-1-0.9-1-0.9l-8-2.9l-0.7-2.3c-1.1,0.6-2.2,1-3.4,1
								s-2.3-0.3-3.3-0.9l-0.7,2.3l-8,2.9c0,0-0.5,0.2-1,0.9C180.1,485.9,184.8,488.1,189.9,488.1z"/>
						</g>
						<g>
							<path fill="#E0E1E1" d="M187.4,475.3c0.8,0.3,1.6,0.5,2.4,0.5c0.8,0,1.5-0.2,2.2-0.5c2.8-1.1,4.7-4.3,4.7-8
								c0-0.8-0.1-1.7-0.3-2.4c-1.3,0.8-2.2,1.2-2.8,1.2c-0.2,0-0.3,0-0.5-0.1c-0.6-0.2-0.8-0.8-0.9-1.1c0-0.2-0.1-0.3-0.2-0.4
								c0,0,0,0-0.1,0c-0.2,0-0.5,0.1-1.1,0.4c-3.5,1.7-6.5,0.1-7.6-0.7c-0.3,1-0.5,2-0.5,3.1C182.9,471.1,184.8,474.2,187.4,475.3z
								"/>
						</g>
						<g>
							<path fill="#E0E1E1" d="M190.4,463.9c1-0.5,1.7-0.6,2.2-0.4c0.5,0.2,0.7,0.8,0.8,1.1c0,0.2,0.1,0.3,0.2,0.4
								c0,0,0.5,0.2,2.5-1.1c-1.1-2.9-3.5-4.8-6.2-4.8c-2.6,0-4.7,1.7-6,4.1C184.5,463.8,187.3,465.5,190.4,463.9z"/>
						</g>
					</g>
				</g>
			</g>
			<g>
				<g>
					<path fill="#C94241" d="M204.4,345.3l-7,3.3l-5.3,15c-0.1,0.3-0.4,0.5-0.6,0.7l-2.6,1.3c-0.2,0.1-0.4,0-0.4-0.3l1.4-13
						l-1.7,0.8c-3.1,1.5-10.1,3.3-11.4,2.3c-2.6-2.1-5.7-5.9-5.7-5.9s0.6-0.3,1.5-0.7l6.7,2.1l21.1-10.1c1.9-0.9,5.8-0.6,6.5,0.8
						C207.4,342.5,206.3,344.3,204.4,345.3z M179,342.9l5.7,3.7l5.6-2.7l-7.8-2.8c-0.3-0.1-0.7-0.1-0.9,0l-2.6,1.3
						C178.8,342.6,178.8,342.8,179,342.9z"/>
				</g>
				<g>
					<path fill="#B6D6E8" d="M408.1,382.9H222.5c-2.1,0-3.9-1.7-3.9-3.9v-47.4c0-2.1,1.7-3.9,3.9-3.9h185.6c2.1,0,3.9,1.7,3.9,3.9
						V379C412,381.2,410.3,382.9,408.1,382.9z"/>
					<g>
						<path fill="#383838" d="M234.6,349.6l0.6-0.9c0.1-0.2,0.4-0.2,0.5-0.1c0.1,0,1.3,0.9,2.3,0.9c0.8,0,1.4-0.5,1.4-1.2
							c0-0.8-0.7-1.3-1.9-1.8c-1.4-0.6-2.9-1.5-2.9-3.3c0-1.4,1-2.9,3.4-2.9c1.6,0,2.8,0.8,3.1,1c0.2,0.1,0.2,0.4,0.1,0.5l-0.6,0.9
							c-0.1,0.2-0.4,0.3-0.5,0.2c-0.1-0.1-1.3-0.8-2.1-0.8c-0.9,0-1.3,0.6-1.3,1.1c0,0.7,0.6,1.2,1.8,1.7c1.5,0.6,3.2,1.5,3.2,3.5
							c0,1.6-1.4,3-3.5,3c-1.9,0-3.1-0.9-3.4-1.2C234.6,349.9,234.5,349.8,234.6,349.6z"/>
						<path fill="#383838" d="M243.6,340.7c0-0.2,0.1-0.3,0.3-0.3h6.2c0.2,0,0.3,0.1,0.3,0.3v1.3c0,0.2-0.1,0.3-0.3,0.3h-4.5v2.9
							h3.8c0.2,0,0.3,0.1,0.3,0.3v1.3c0,0.2-0.1,0.3-0.3,0.3h-3.8v3.9c0,0.2-0.1,0.3-0.3,0.3h-1.4c-0.2,0-0.3-0.1-0.3-0.3V340.7z"/>
						<path fill="#383838" d="M256.9,340.2c3.1,0,5.5,2.5,5.5,5.5c0,3.1-2.4,5.5-5.5,5.5c-3.1,0-5.5-2.4-5.5-5.5
							C251.4,342.7,253.9,340.2,256.9,340.2z M256.9,349.2c1.9,0,3.5-1.6,3.5-3.5s-1.6-3.5-3.5-3.5c-1.9,0-3.5,1.6-3.5,3.5
							S255,349.2,256.9,349.2z"/>
					</g>
					<g>
						<path fill="#383838" d="M365.2,340.7c0-0.2,0.1-0.3,0.3-0.3h1.4c0.2,0,0.3,0.1,0.3,0.3v8.6h3.9c0.2,0,0.3,0.1,0.3,0.3v1.3
							c0,0.2-0.1,0.3-0.3,0.3h-5.6c-0.2,0-0.3-0.1-0.3-0.3V340.7z"/>
						<path fill="#383838" d="M372,350.7l4.8-10.3c0-0.1,0.1-0.2,0.3-0.2h0.2c0.2,0,0.2,0.1,0.3,0.2l4.7,10.3c0.1,0.2,0,0.4-0.3,0.4
							h-1.3c-0.2,0-0.3-0.1-0.4-0.3l-0.8-1.7h-4.6l-0.8,1.7c-0.1,0.2-0.2,0.3-0.4,0.3h-1.3C372,351.1,371.9,350.9,372,350.7z
							 M378.6,347.4l-1.5-3.4h0l-1.5,3.4H378.6z"/>
						<path fill="#383838" d="M385.8,345.6l-3.1-4.8c-0.1-0.2,0-0.4,0.3-0.4h1.8c0.1,0,0.2,0.1,0.2,0.1l2,3.2h0l2-3.2
							c0-0.1,0.1-0.1,0.2-0.1h1.8c0.3,0,0.4,0.2,0.3,0.4l-3.1,4.8l3.2,5.1c0.1,0.2,0,0.4-0.3,0.4h-1.7c-0.1,0-0.2-0.1-0.3-0.1
							l-2.2-3.5h0l-2.2,3.5c0,0.1-0.1,0.1-0.3,0.1h-1.7c-0.3,0-0.4-0.2-0.3-0.4L385.8,345.6z"/>
					</g>
					<g>
						
							<line fill="none" stroke="#79AEB9" stroke-width="2.2873" stroke-miterlimit="10" x1="233.9" y1="368.4" x2="402.1" y2="368.4"/>
						<polygon fill="#79AEB9" points="288,362.1 299.5,368.4 288,374.6 						"/>
						<polygon fill="#79AEB9" points="333.5,362.1 345,368.4 333.5,374.6 						"/>
						<circle fill="#B6D6E7" stroke="#79AEB9" stroke-width="2.1396" stroke-miterlimit="10" cx="234.4" cy="368.1" r="5.1"/>
						<circle fill="#B6D6E7" stroke="#79AEB9" stroke-width="2.1396" stroke-miterlimit="10" cx="397" cy="368.1" r="5.1"/>
					</g>
				</g>
			</g>
			<rect x="156.6" y="311.9" fill="#E0E1E1" width="424.7" height="2.7"/>
			<g>
				<path fill="#E0E1E1" d="M559.6,264h-53.3c-0.5,0-0.8-0.4-0.8-0.8v-4.3c0-0.5,0.4-0.8,0.8-0.8h53.3c0.5,0,0.8,0.4,0.8,0.8v4.3
					C560.4,263.6,560.1,264,559.6,264z"/>
				<path fill="#E0E1E1" d="M559.6,254.2h-53.3c-0.5,0-0.8-0.4-0.8-0.8v-4.3c0-0.5,0.4-0.8,0.8-0.8h53.3c0.5,0,0.8,0.4,0.8,0.8v4.3
					C560.4,253.8,560.1,254.2,559.6,254.2z"/>
				<path fill="#E0E1E1" d="M559.6,273.6h-53.3c-0.5,0-0.8-0.4-0.8-0.8v-4.3c0-0.5,0.4-0.8,0.8-0.8h53.3c0.5,0,0.8,0.4,0.8,0.8v4.3
					C560.4,273.3,560.1,273.6,559.6,273.6z"/>
			</g>
			<g>
				<path opacity="0.5" fill="#82C1EA" d="M355.8,269.8H271c-0.5,0-1.1-0.5-1.1-1.1v-10.5c0-0.5,0.5-1.1,1.1-1.1h84.8
					c0.5,0,1.1,0.5,1.1,1.1v10.5C356.9,269.3,356.4,269.8,355.8,269.8z"/>
				<path fill="#E0E1E1" d="M448.5,284.2H271c-0.5,0-1.1-0.5-1.1-1.1v-6.9c0-0.5,0.5-1.1,1.1-1.1h177.5c0.5,0,1.1,0.5,1.1,1.1v6.9
					C449.5,283.7,449.1,284.2,448.5,284.2z"/>
				<path fill="#E0E1E1" d="M448.3,298.5H271.2c-0.7,0-1.3-0.5-1.3-1.3v-6.5c0-0.7,0.5-1.3,1.3-1.3h177c0.7,0,1.3,0.5,1.3,1.3v6.5
					C449.5,298,449,298.5,448.3,298.5z"/>
			</g>
			<g>
				<polygon fill="#63A3D8" points="277.8,237.8 279.8,241.9 284.3,242.5 281,245.7 281.8,250.3 277.8,248.1 273.7,250.3 
					274.5,245.7 271.2,242.5 275.7,241.9 				"/>
				<g>
					<path fill="#82C1EA" d="M288.5,240.7c-0.1-0.2,0-0.3,0.2-0.3h1.2c0.1,0,0.2,0.1,0.2,0.1l2.3,5.3h0.1l2.3-5.3
						c0-0.1,0.1-0.1,0.2-0.1h1.2c0.2,0,0.3,0.2,0.2,0.3l-3.8,8.2c0,0.1-0.1,0.1-0.2,0.1h-0.1c-0.1,0-0.2-0.1-0.2-0.1L288.5,240.7z"
						/>
					<path fill="#82C1EA" d="M297.7,240.6c0-0.1,0.1-0.2,0.2-0.2h1.1c0.1,0,0.2,0.1,0.2,0.2v8.1c0,0.1-0.1,0.2-0.2,0.2h-1.1
						c-0.1,0-0.2-0.1-0.2-0.2V240.6z"/>
					<path fill="#82C1EA" d="M301.5,240.6c0-0.1,0.1-0.2,0.2-0.2h2.9c1.5,0,2.7,1.2,2.7,2.7c0,1.5-1.2,2.8-2.7,2.8h-1.5v2.9
						c0,0.1-0.1,0.2-0.2,0.2h-1.1c-0.1,0-0.2-0.1-0.2-0.2V240.6z M304.6,244.3c0.7,0,1.3-0.6,1.3-1.3c0-0.7-0.6-1.2-1.3-1.2h-1.4
						v2.5H304.6z"/>
				</g>
			</g>
		</g>
	</g>
	<g>
		<g>
			<path fill="#FFFFFF" d="M606.5,555.3H439.9c-20.4,0-37-16.6-37-37V81.7c0-20.4,16.6-37,37-37h166.6c20.4,0,37,16.6,37,37v436.6
				C643.5,538.8,626.9,555.3,606.5,555.3z"/>
			<path fill="#B5C0C3" d="M606.5,557H439.9c-21.3,0-38.7-17.4-38.7-38.7V81.7c0-21.3,17.4-38.7,38.7-38.7h166.6
				c21.3,0,38.7,17.4,38.7,38.7v436.6C645.2,539.7,627.8,557,606.5,557z M439.9,46.4c-19.5,0-35.3,15.8-35.3,35.3v436.6
				c0,19.5,15.8,35.3,35.3,35.3h166.6c19.5,0,35.3-15.8,35.3-35.3V81.7c0-19.5-15.8-35.3-35.3-35.3H439.9z"/>
		</g>
		<g>
			<circle fill="#E0E2E2" cx="523.2" cy="518.7" r="21.2"/>
			<path fill="#B5C0C3" d="M523.2,541.6c-12.6,0-22.9-10.3-22.9-22.9c0-12.6,10.3-22.9,22.9-22.9c12.6,0,22.9,10.3,22.9,22.9
				C546.1,531.3,535.8,541.6,523.2,541.6z M523.2,499.1c-10.8,0-19.5,8.8-19.5,19.5s8.8,19.5,19.5,19.5c10.8,0,19.5-8.8,19.5-19.5
				S534,499.1,523.2,499.1z"/>
		</g>
		<g>
			<rect x="416.8" y="115.4" fill="#FFFFFF" width="211.6" height="366.6"/>
			<path fill="#B5C0C3" d="M630.1,483.7H415.1v-370h215.1V483.7z M418.5,480.3h208.2V117.1H418.5V480.3z"/>
		</g>
		<g>
			<path fill="#E0E2E2" d="M538.3,94.2h-30.1c-2,0-3.6-1.6-3.6-3.6v-0.5c0-2,1.6-3.6,3.6-3.6h30.1c2,0,3.6,1.6,3.6,3.6v0.5
				C541.8,92.6,540.2,94.2,538.3,94.2z"/>
			<path fill="#B5C0C3" d="M538.3,95.9h-30.1c-2.9,0-5.3-2.4-5.3-5.3v-0.5c0-2.9,2.4-5.3,5.3-5.3h30.1c2.9,0,5.3,2.4,5.3,5.3v0.5
				C543.5,93.5,541.2,95.9,538.3,95.9z M508.1,88.2c-1,0-1.9,0.8-1.9,1.9v0.5c0,1,0.8,1.9,1.9,1.9h30.1c1,0,1.9-0.8,1.9-1.9v-0.5
				c0-1-0.8-1.9-1.9-1.9H508.1z"/>
		</g>
		<rect x="418.3" y="116.7" fill="#82C1EA" width="208.4" height="84.7"/>
		<g>
			<path fill="#B6D6E8" d="M615.8,270.8H430.2c-2.1,0-3.9-1.7-3.9-3.9v-47.4c0-2.1,1.7-3.9,3.9-3.9h185.6c2.1,0,3.9,1.7,3.9,3.9
				v47.4C619.7,269.1,617.9,270.8,615.8,270.8z"/>
			<g>
				<path fill="#383838" d="M442.3,237.5l0.6-0.9c0.1-0.2,0.4-0.2,0.5-0.1c0.1,0,1.3,0.9,2.3,0.9c0.8,0,1.4-0.5,1.4-1.2
					c0-0.8-0.7-1.3-1.9-1.8c-1.4-0.6-2.9-1.5-2.9-3.3c0-1.4,1-2.9,3.4-2.9c1.6,0,2.8,0.8,3.1,1c0.2,0.1,0.2,0.4,0.1,0.5l-0.6,0.9
					c-0.1,0.2-0.4,0.3-0.5,0.2c-0.1-0.1-1.3-0.8-2.1-0.8c-0.9,0-1.3,0.6-1.3,1.1c0,0.7,0.6,1.2,1.8,1.7c1.5,0.6,3.2,1.5,3.2,3.5
					c0,1.6-1.4,3-3.5,3c-1.9,0-3.1-0.9-3.4-1.2C442.2,237.8,442.2,237.7,442.3,237.5z"/>
				<path fill="#383838" d="M451.2,228.6c0-0.2,0.1-0.3,0.3-0.3h6.2c0.2,0,0.3,0.1,0.3,0.3v1.3c0,0.2-0.1,0.3-0.3,0.3h-4.5v2.9h3.8
					c0.2,0,0.3,0.1,0.3,0.3v1.3c0,0.2-0.1,0.3-0.3,0.3h-3.8v3.9c0,0.2-0.1,0.3-0.3,0.3h-1.4c-0.2,0-0.3-0.1-0.3-0.3V228.6z"/>
				<path fill="#383838" d="M464.6,228.1c3.1,0,5.5,2.5,5.5,5.5c0,3.1-2.4,5.5-5.5,5.5c-3.1,0-5.5-2.4-5.5-5.5
					C459.1,230.6,461.5,228.1,464.6,228.1z M464.6,237.1c1.9,0,3.5-1.6,3.5-3.5s-1.6-3.5-3.5-3.5c-1.9,0-3.5,1.6-3.5,3.5
					S462.6,237.1,464.6,237.1z"/>
			</g>
			<g>
				<path fill="#383838" d="M572.8,228.6c0-0.2,0.1-0.3,0.3-0.3h1.4c0.2,0,0.3,0.1,0.3,0.3v8.6h3.9c0.2,0,0.3,0.1,0.3,0.3v1.3
					c0,0.2-0.1,0.3-0.3,0.3h-5.6c-0.2,0-0.3-0.1-0.3-0.3V228.6z"/>
				<path fill="#383838" d="M579.7,238.6l4.8-10.3c0-0.1,0.1-0.2,0.3-0.2h0.2c0.2,0,0.2,0.1,0.3,0.2l4.7,10.3c0.1,0.2,0,0.4-0.3,0.4
					h-1.3c-0.2,0-0.3-0.1-0.4-0.3L587,237h-4.6l-0.8,1.7c-0.1,0.2-0.2,0.3-0.4,0.3h-1.3C579.7,239,579.6,238.8,579.7,238.6z
					 M586.3,235.3l-1.5-3.4h0l-1.5,3.4H586.3z"/>
				<path fill="#383838" d="M593.4,233.5l-3.1-4.8c-0.1-0.2,0-0.4,0.3-0.4h1.8c0.1,0,0.2,0.1,0.2,0.1l2,3.2h0l2-3.2
					c0-0.1,0.1-0.1,0.2-0.1h1.8c0.3,0,0.4,0.2,0.3,0.4l-3.1,4.8l3.2,5.1c0.1,0.2,0,0.4-0.3,0.4h-1.7c-0.1,0-0.2-0.1-0.3-0.1
					l-2.2-3.5h0l-2.2,3.5c0,0.1-0.1,0.1-0.3,0.1h-1.7c-0.3,0-0.4-0.2-0.3-0.4L593.4,233.5z"/>
			</g>
			<g>
				
					<line fill="none" stroke="#79AEB9" stroke-width="2.2873" stroke-miterlimit="10" x1="441.5" y1="256.3" x2="609.8" y2="256.3"/>
				<polygon fill="#79AEB9" points="495.7,250 507.2,256.3 495.7,262.5 				"/>
				<polygon fill="#79AEB9" points="541.1,250 552.6,256.3 541.1,262.5 				"/>
				<circle fill="#B6D6E7" stroke="#79AEB9" stroke-width="2.1396" stroke-miterlimit="10" cx="442.1" cy="256" r="5.1"/>
				<circle fill="#B6D6E7" stroke="#79AEB9" stroke-width="2.1396" stroke-miterlimit="10" cx="604.7" cy="256" r="5.1"/>
			</g>
		</g>
		<g>
			<path fill="#E0E1E1" d="M615.8,338.6H430.2c-2.1,0-3.9-1.7-3.9-3.9v-47.4c0-2.1,1.7-3.9,3.9-3.9h185.6c2.1,0,3.9,1.7,3.9,3.9
				v47.4C619.7,336.9,617.9,338.6,615.8,338.6z"/>
			<g>
				<path fill="#383838" d="M447.7,295.9c3.1,0,5.5,2.5,5.5,5.5c0,3.1-2.4,5.5-5.5,5.5s-5.5-2.4-5.5-5.5
					C442.2,298.4,444.6,295.9,447.7,295.9z M447.7,305c1.9,0,3.5-1.6,3.5-3.5c0-1.9-1.6-3.5-3.5-3.5s-3.5,1.6-3.5,3.5
					C444.1,303.4,445.7,305,447.7,305z"/>
				<path fill="#383838" d="M455.2,296.4c0-0.2,0.1-0.3,0.3-0.3h4.4c1.8,0,3.3,1.5,3.3,3.3c0,1.4-0.9,2.6-2.3,3.1l2.1,3.9
					c0.1,0.2,0,0.4-0.3,0.4h-1.6c-0.1,0-0.2-0.1-0.2-0.1l-2-4.1h-1.7v3.9c0,0.2-0.1,0.3-0.3,0.3h-1.4c-0.2,0-0.3-0.1-0.3-0.3V296.4z
					 M459.7,301c0.8,0,1.5-0.7,1.5-1.6c0-0.8-0.7-1.5-1.5-1.5h-2.5v3H459.7z"/>
				<path fill="#383838" d="M465.4,296.4c0-0.2,0.1-0.3,0.3-0.3h3.6c3,0,5.4,2.4,5.4,5.3c0,3-2.4,5.4-5.4,5.4h-3.6
					c-0.2,0-0.3-0.1-0.3-0.3V296.4z M469.1,304.9c2,0,3.4-1.5,3.4-3.5c0-2-1.5-3.5-3.4-3.5h-1.7v7H469.1z"/>
			</g>
			<g>
				<path fill="#383838" d="M572.2,305.3l0.6-0.9c0.1-0.2,0.4-0.2,0.5-0.1c0.1,0,1.3,0.9,2.3,0.9c0.8,0,1.4-0.5,1.4-1.2
					c0-0.8-0.7-1.3-1.9-1.8c-1.4-0.6-2.9-1.5-2.9-3.3c0-1.4,1-2.9,3.4-2.9c1.6,0,2.8,0.8,3.1,1c0.2,0.1,0.2,0.4,0.1,0.5l-0.6,0.9
					c-0.1,0.2-0.4,0.3-0.5,0.2c-0.1-0.1-1.3-0.8-2.1-0.8c-0.9,0-1.3,0.6-1.3,1.1c0,0.7,0.6,1.2,1.8,1.7c1.5,0.6,3.2,1.5,3.2,3.5
					c0,1.6-1.4,3-3.5,3c-1.9,0-3.1-0.9-3.4-1.2C572.1,305.6,572.1,305.6,572.2,305.3z"/>
				<path fill="#383838" d="M581.1,296.4c0-0.2,0.1-0.3,0.3-0.3h6.2c0.2,0,0.3,0.1,0.3,0.3v1.3c0,0.2-0.1,0.3-0.3,0.3h-4.5v2.9h3.8
					c0.2,0,0.3,0.1,0.3,0.3v1.3c0,0.2-0.1,0.3-0.3,0.3h-3.8v3.9c0,0.2-0.1,0.3-0.3,0.3h-1.4c-0.2,0-0.3-0.1-0.3-0.3V296.4z"/>
				<path fill="#383838" d="M594.5,295.9c3.1,0,5.5,2.5,5.5,5.5c0,3.1-2.4,5.5-5.5,5.5s-5.5-2.4-5.5-5.5
					C589,298.4,591.4,295.9,594.5,295.9z M594.5,305c1.9,0,3.5-1.6,3.5-3.5c0-1.9-1.6-3.5-3.5-3.5s-3.5,1.6-3.5,3.5
					C591,303.4,592.6,305,594.5,305z"/>
			</g>
			<g>
				
					<line fill="none" stroke="#B4BFC2" stroke-width="2.2873" stroke-miterlimit="10" x1="441.5" y1="324.1" x2="609.8" y2="324.1"/>
				<polygon fill="#B5C0C3" points="495.7,317.9 507.2,324.1 495.7,330.3 				"/>
				<polygon fill="#B5C0C3" points="541.1,317.9 552.6,324.1 541.1,330.3 				"/>
				<circle fill="#E0E1E1" stroke="#B4BFC2" stroke-width="2.1396" stroke-miterlimit="10" cx="442.1" cy="323.8" r="5.1"/>
				<circle fill="#E0E1E1" stroke="#B4BFC2" stroke-width="2.1396" stroke-miterlimit="10" cx="604.7" cy="323.8" r="5.1"/>
			</g>
		</g>
		<g>
			<path fill="#E0E1E1" d="M615.8,406.5H430.2c-2.1,0-3.9-1.7-3.9-3.9v-47.4c0-2.1,1.7-3.9,3.9-3.9h185.6c2.1,0,3.9,1.7,3.9,3.9
				v47.4C619.7,404.7,617.9,406.5,615.8,406.5z"/>
			<g>
				<path fill="#383838" d="M442.3,373.1l0.6-0.9c0.1-0.2,0.4-0.2,0.5-0.1c0.1,0,1.3,0.9,2.3,0.9c0.8,0,1.4-0.5,1.4-1.2
					c0-0.8-0.7-1.3-1.9-1.8c-1.4-0.6-2.9-1.5-2.9-3.3c0-1.4,1-2.9,3.4-2.9c1.6,0,2.8,0.8,3.1,1c0.2,0.1,0.2,0.4,0.1,0.5l-0.6,0.9
					c-0.1,0.2-0.4,0.3-0.5,0.2c-0.1-0.1-1.3-0.8-2.1-0.8c-0.9,0-1.3,0.6-1.3,1.1c0,0.7,0.6,1.2,1.8,1.7c1.5,0.6,3.2,1.5,3.2,3.5
					c0,1.6-1.4,3-3.5,3c-1.9,0-3.1-0.9-3.4-1.2C442.2,373.5,442.2,373.4,442.3,373.1z"/>
				<path fill="#383838" d="M451.2,364.2c0-0.2,0.1-0.3,0.3-0.3h6.2c0.2,0,0.3,0.1,0.3,0.3v1.3c0,0.2-0.1,0.3-0.3,0.3h-4.5v2.9h3.8
					c0.2,0,0.3,0.1,0.3,0.3v1.3c0,0.2-0.1,0.3-0.3,0.3h-3.8v3.9c0,0.2-0.1,0.3-0.3,0.3h-1.4c-0.2,0-0.3-0.1-0.3-0.3V364.2z"/>
				<path fill="#383838" d="M464.6,363.8c3.1,0,5.5,2.5,5.5,5.5c0,3.1-2.4,5.5-5.5,5.5c-3.1,0-5.5-2.4-5.5-5.5
					C459.1,366.2,461.5,363.8,464.6,363.8z M464.6,372.8c1.9,0,3.5-1.6,3.5-3.5c0-1.9-1.6-3.5-3.5-3.5c-1.9,0-3.5,1.6-3.5,3.5
					C461.1,371.2,462.6,372.8,464.6,372.8z"/>
			</g>
			<g>
				<path fill="#383838" d="M572.8,364.2c0-0.2,0.1-0.3,0.3-0.3h3.5c1.8,0,3.2,1.2,3.2,2.8c0,1.2-1,2.1-1.7,2.4c0.8,0.3,2,1.1,2,2.5
					c0,1.7-1.5,3-3.3,3h-3.7c-0.2,0-0.3-0.1-0.3-0.3V364.2z M576.4,368.4c0.8,0,1.3-0.6,1.3-1.4c0-0.8-0.5-1.3-1.3-1.3h-1.6v2.7
					H576.4z M576.7,372.8c0.8,0,1.4-0.6,1.4-1.4c0-0.8-0.8-1.3-1.6-1.3h-1.7v2.7H576.7z"/>
				<path fill="#383838" d="M587,363.8c3.1,0,5.5,2.5,5.5,5.5c0,3.1-2.4,5.5-5.5,5.5s-5.5-2.4-5.5-5.5
					C581.5,366.2,583.9,363.8,587,363.8z M587,372.8c1.9,0,3.5-1.6,3.5-3.5c0-1.9-1.6-3.5-3.5-3.5s-3.5,1.6-3.5,3.5
					C583.5,371.2,585.1,372.8,587,372.8z"/>
				<path fill="#383838" d="M593.9,373.1l0.6-0.9c0.1-0.2,0.4-0.2,0.5-0.1c0.1,0,1.3,0.9,2.3,0.9c0.8,0,1.4-0.5,1.4-1.2
					c0-0.8-0.7-1.3-1.9-1.8c-1.4-0.6-2.9-1.5-2.9-3.3c0-1.4,1-2.9,3.4-2.9c1.6,0,2.8,0.8,3.1,1c0.2,0.1,0.2,0.4,0.1,0.5l-0.6,0.9
					c-0.1,0.2-0.4,0.3-0.5,0.2c-0.1-0.1-1.3-0.8-2.1-0.8c-0.9,0-1.3,0.6-1.3,1.1c0,0.7,0.6,1.2,1.8,1.7c1.5,0.6,3.2,1.5,3.2,3.5
					c0,1.6-1.4,3-3.5,3c-1.9,0-3.1-0.9-3.4-1.2C593.8,373.5,593.7,373.4,593.9,373.1z"/>
			</g>
			<g>
				
					<line fill="none" stroke="#B4BFC2" stroke-width="2.2873" stroke-miterlimit="10" x1="441.5" y1="391.9" x2="609.8" y2="391.9"/>
				<polygon fill="#B5C0C3" points="495.7,385.7 507.2,391.9 495.7,398.1 				"/>
				<polygon fill="#B5C0C3" points="541.1,385.7 552.6,391.9 541.1,398.1 				"/>
				<circle fill="#E0E1E1" stroke="#B4BFC2" stroke-width="2.1396" stroke-miterlimit="10" cx="442.1" cy="391.7" r="5.1"/>
				<circle fill="#E0E1E1" stroke="#B4BFC2" stroke-width="2.1396" stroke-miterlimit="10" cx="604.7" cy="391.7" r="5.1"/>
			</g>
		</g>
		<g>
			<defs>
				<rect id="SVGID_1_" x="418.3" y="116.7" width="208.4" height="84.7"/>
			</defs>
			<clipPath id="SVGID_2_">
				<use xlink:href="#SVGID_1_"  overflow="visible"/>
			</clipPath>
			<g opacity="0.6" clip-path="url(#SVGID_2_)">
				<defs>
					<rect id="SVGID_3_" x="380.5" y="169" opacity="0.6" width="85.8" height="32.4"/>
				</defs>
				<clipPath id="SVGID_4_">
					<use xlink:href="#SVGID_3_"  overflow="visible"/>
				</clipPath>
				<path clip-path="url(#SVGID_4_)" fill="#FFFFFF" d="M451.9,188.9c-1.9,0-3.8,0.5-5.4,1.3c-1.6-10.6-10.7-18.7-21.7-18.7
					c-8.4,0-15.7,4.8-19.4,11.7c-2-1-4.2-1.6-6.6-1.6c-8,0-14.5,6.5-14.5,14.5c0,8,6.5,14.5,14.5,14.5c3.4,0,6.6-1.2,9.1-3.2
					c4,4.9,10.1,8,16.9,8c7.1,0,13.4-3.4,17.4-8.6c2.1,3.2,5.6,5.3,9.7,5.3c6.4,0,11.6-5.2,11.6-11.6
					C463.4,194.1,458.3,188.9,451.9,188.9z"/>
			</g>
			<g opacity="0.6" clip-path="url(#SVGID_2_)">
				<defs>
					<rect id="SVGID_5_" x="502.8" y="146.6" opacity="0.6" width="145.1" height="54.9"/>
				</defs>
				<clipPath id="SVGID_6_">
					<use xlink:href="#SVGID_5_"  overflow="visible"/>
				</clipPath>
				<path clip-path="url(#SVGID_6_)" fill="#FFFFFF" d="M527.3,180.3c3.3,0,6.4,0.8,9.1,2.3c2.6-17.9,18-31.6,36.6-31.6
					c14.2,0,26.6,8,32.8,19.8c3.3-1.7,7.1-2.7,11.2-2.7c13.5,0,24.5,11,24.5,24.5c0,13.5-11,24.5-24.5,24.5c-5.8,0-11.2-2-15.4-5.4
					c-6.8,8.2-17.1,13.5-28.6,13.5c-12,0-22.6-5.7-29.4-14.5c-3.5,5.3-9.5,8.9-16.4,8.9c-10.8,0-19.6-8.8-19.6-19.6
					C507.7,189,516.5,180.3,527.3,180.3z"/>
			</g>
		</g>
		<g>
			<path fill="#C94241" d="M551.1,147.2l-13,6.2l-9.8,27.9c-0.2,0.5-0.7,1-1.1,1.2l-4.9,2.3c-0.4,0.2-0.8,0-0.7-0.5l2.5-24.3
				l-3.3,1.6c-5.8,2.8-18.9,6.2-21.2,4.3c-4.8-3.9-10.6-10.9-10.6-10.9s1.1-0.5,2.8-1.4l12.4,4l39.4-18.9c3.5-1.7,10.8-1.1,12.1,1.5
				C556.7,142.1,554.7,145.5,551.1,147.2z M503.7,142.9l10.7,6.9l10.5-5l-14.6-5.1c-0.5-0.2-1.2-0.1-1.7,0.1l-4.9,2.3
				C503.3,142.2,503.3,142.6,503.7,142.9z"/>
		</g>
	</g>
	<polygon opacity="0.4" fill="#B5C0C3" points="401.1,509.3 363.8,509.3 389.7,178.9 401.1,178.9 	"/>
</g>
</svg>
