<?xml version="1.0" encoding="utf-8"?>
<!-- Generator: Adobe Illustrator 18.1.0, SVG Export Plug-In . SVG Version: 6.00 Build 0)  -->
<!DOCTYPE svg PUBLIC "-//W3C//DTD SVG 1.1//EN" "http://www.w3.org/Graphics/SVG/1.1/DTD/svg11.dtd">
<svg version="1.1" id="Layer_1" xmlns="http://www.w3.org/2000/svg" xmlns:xlink="http://www.w3.org/1999/xlink" x="0px" y="0px"
	 viewBox="0 0 599.8 430.5" enable-background="new 0 0 599.8 430.5" xml:space="preserve">
<g>
	
		<line fill="none" stroke="#E0E2E2" stroke-width="0" stroke-linecap="round" stroke-linejoin="round" x1="129.9" y1="335.1" x2="129.9" y2="335.1"/>
	
		<line fill="none" stroke="#E0E2E2" stroke-width="0" stroke-linecap="round" stroke-linejoin="round" x1="54.5" y1="335.1" x2="54.5" y2="335.1"/>
	<polygon fill="#B5C0C3" points="54.5,335.1 54.5,336.4 117.6,336.4 117.6,333.9 54.5,333.9 	"/>
	
		<line fill="none" stroke="#E0E2E2" stroke-width="0" stroke-linecap="round" stroke-linejoin="round" x1="536.6" y1="335.1" x2="536.6" y2="335.1"/>
	<polygon fill="#B5C0C3" points="473.5,333.9 473.5,336.4 536.6,336.4 536.6,335.1 536.6,333.9 	"/>
	
		<line fill="none" stroke="#E0E2E2" stroke-width="0" stroke-linecap="round" stroke-linejoin="round" x1="574.7" y1="335.1" x2="574.7" y2="335.1"/>
	<polygon fill="#B5C0C3" points="574.7,333.9 548.6,333.9 548.6,336.4 574.7,336.4 574.7,335.1 	"/>
	<rect x="14.9" y="333.9" fill="#B5C0C3" width="26.1" height="2.5"/>
	<path fill="#FFFFFF" d="M189.5,364c11.2-0.4,17-6.5,23.1-13c6.4-6.8,13-13.8,26.1-13.8c13.1,0,19.7,7,26.1,13.8
		c6.1,6.5,11.8,12.5,23.1,13v-63.5h-98.3V364z M270.8,320.4c1,0,1.7,0.8,1.7,1.7c0,1-0.8,1.7-1.7,1.7s-1.7-0.8-1.7-1.7
		C269.1,321.2,269.9,320.4,270.8,320.4z M237.4,307.9c1,0,1.8,0.8,1.8,1.8c0,1-0.8,1.8-1.8,1.8c-1,0-1.8-0.8-1.8-1.8
		C235.6,308.7,236.4,307.9,237.4,307.9z M203.5,328.4c1.3,0,2.4,1.1,2.4,2.4s-1.1,2.4-2.4,2.4s-2.4-1.1-2.4-2.4
		S202.2,328.4,203.5,328.4z"/>
	<rect x="220.3" y="56.3" fill="#FFFFFF" width="36.7" height="45.4"/>
	<path fill="#FFFFFF" d="M220.3,104.2c-0.3,14.2-5.6,30.9-12,50.1h19.3c3-2.6,6.8-4.2,11.1-4.2c4.2,0,8.1,1.6,11.1,4.2H269
		c-6.3-19.2-11.7-35.8-12-50.1H220.3z M227,115.7c-1.5,0-2.8-1.3-2.8-2.8c0-1.5,1.3-2.8,2.8-2.8c1.5,0,2.8,1.3,2.8,2.8
		C229.8,114.5,228.6,115.7,227,115.7z M246.6,140.8c-1.1,0-1.9-0.9-1.9-1.9s0.9-1.9,1.9-1.9c1.1,0,1.9,0.9,1.9,1.9
		S247.7,140.8,246.6,140.8z"/>
	<path fill="#FFFFFF" d="M238.6,186.1c-5.6,0-10.5-2.8-13.6-7.1h-24.6c-5.9,19.7-10.9,40.8-10.9,62.7v8.1h98.3v-8.1
		c0-21.8-5-43-10.9-62.7h-24.6C249.1,183.3,244.2,186.1,238.6,186.1z M210.4,233.4c-1.5,0-2.8-1.3-2.8-2.8c0-1.5,1.3-2.8,2.8-2.8
		c1.5,0,2.8,1.3,2.8,2.8C213.2,232.1,211.9,233.4,210.4,233.4z M230.7,207.2c-1.5,0-2.8-1.3-2.8-2.8c0-1.5,1.3-2.8,2.8-2.8
		c1.5,0,2.8,1.3,2.8,2.8C233.5,206,232.3,207.2,230.7,207.2z M248.1,237.7c-1.5,0-2.8-1.3-2.8-2.8c0-1.5,1.3-2.8,2.8-2.8
		c1.5,0,2.8,1.3,2.8,2.8C250.9,236.5,249.6,237.7,248.1,237.7z M269.7,214.7c1.5,0,2.8,1.3,2.8,2.8c0,1.5-1.3,2.8-2.8,2.8
		c-1.5,0-2.8-1.3-2.8-2.8C266.9,216,268.2,214.7,269.7,214.7z"/>
	<path fill="#B5C0C3" d="M198.4,176.8l3.9-12.4C201,168.5,199.7,172.6,198.4,176.8z"/>
	<path fill="#B5C0C3" d="M208.3,154.2c6.3-19.2,11.7-35.8,12-50.1H257c0.3,14.2,5.6,30.9,12,50.1h2.5l7.2,22
		c-2.2-7.1-4.4-13.9-6.6-20.6c-6.8-20.4-12.6-38-12.6-52.7V56.3h2.1c1.4,0,2.5-1.1,2.5-2.5v-4.1c0-1.4-1.1-2.5-2.5-2.5h-4.2v-2.5
		h2.4c1.6,0,2.9-1.3,2.9-2.9V24.1c0-1.6-1.3-2.9-2.9-2.9h-41.2c-1.6,0-2.9,1.3-2.9,2.9v17.8c0,1.6,1.3,2.9,2.9,2.9h2.4v2.5h-5.2
		c-1.4,0-2.5,1.1-2.5,2.5v4.1c0,1.4,1.1,2.5,2.5,2.5h2.1v46.6c0,14.3-5.6,31.5-12.1,51.3H208.3z M215.7,49.8l45.8,0l0,4.1l-45.8,0
		L215.7,49.8z M218.1,41.9V24.1c0-0.3,0.2-0.5,0.5-0.5h41.2c0.3,0,0.5,0.2,0.5,0.5v17.8c0,0.3-0.2,0.5-0.5,0.5h-2.4H221h-2.4
		C218.3,42.4,218.1,42.2,218.1,41.9z M254.9,44.8v2.5h-31.4v-2.5H254.9z M257,56.3v45.4h-36.7V56.3H257z"/>
	<path fill="#62A5DA" d="M187.1,249.8v50.7h2.3h98.3h2.4v-50.7h-2.4h-98.3H187.1z M276.6,267.4c2,0,3.6,1,4.2,1.5
		c0.2,0.1,0.2,0.5,0.1,0.6l-1,1.5c-0.1,0.2-0.5,0.4-0.7,0.3c-0.2-0.1-1.6-1.2-2.8-1.2c-0.7,0-1.2,0.5-1.2,1c0,0.7,0.6,1.3,2.1,1.9
		c1.5,0.6,4,1.8,4,4.5c0,2-1.7,4.1-4.6,4.1c-2.6,0-4-1.1-4.4-1.5c-0.2-0.2-0.3-0.3-0.1-0.5l0.9-1.6c0.2-0.3,0.5-0.2,0.7-0.1
		c0.1,0,1.5,1.1,2.8,1.1c0.8,0,1.4-0.5,1.4-1.2c0-0.8-0.7-1.5-2-2c-1.7-0.7-3.8-2-3.8-4.3C272.1,269.4,273.6,267.4,276.6,267.4z
		 M265.8,267.4c2,0,3.6,1,4.2,1.5c0.2,0.1,0.2,0.5,0.1,0.6l-1,1.5c-0.1,0.2-0.5,0.4-0.7,0.3c-0.2-0.1-1.6-1.2-2.8-1.2
		c-0.7,0-1.2,0.5-1.2,1c0,0.7,0.6,1.3,2.1,1.9c1.5,0.6,4,1.8,4,4.5c0,2-1.7,4.1-4.6,4.1c-2.6,0-4-1.1-4.4-1.5
		c-0.2-0.2-0.3-0.3-0.1-0.5l0.9-1.6c0.2-0.3,0.5-0.2,0.7-0.1c0.1,0,1.5,1.1,2.8,1.1c0.8,0,1.4-0.5,1.4-1.2c0-0.8-0.7-1.5-2-2
		c-1.7-0.7-3.8-2-3.8-4.3C261.3,269.4,262.8,267.4,265.8,267.4z M250.7,268c0-0.2,0.2-0.4,0.4-0.4h8.1c0.2,0,0.4,0.2,0.4,0.4v2.1
		c0,0.2-0.2,0.4-0.4,0.4h-5.4v2.4h4.5c0.2,0,0.4,0.2,0.4,0.4v2.1c0,0.2-0.2,0.4-0.4,0.4h-4.5v2.6h5.4c0.2,0,0.4,0.2,0.4,0.4v2.1
		c0,0.2-0.2,0.4-0.4,0.4h-8.1c-0.2,0-0.4-0.2-0.4-0.4V268z M243.6,267.4c2,0,3.4,0.6,4.7,1.8c0.2,0.2,0.2,0.4,0,0.5l-1.5,1.6
		c-0.1,0.1-0.4,0.1-0.5,0c-0.7-0.6-1.7-1-2.6-1c-2.2,0-3.8,1.8-3.8,4c0,2.2,1.6,4,3.9,4c0.9,0,1.9-0.3,2.6-0.9
		c0.1-0.1,0.4-0.1,0.5,0l1.5,1.6c0.1,0.1,0.1,0.4,0,0.5c-1.3,1.3-3,1.9-4.8,1.9c-3.9,0-7.1-3.1-7.1-7S239.6,267.4,243.6,267.4z
		 M230.4,267.4c2,0,3.4,0.6,4.7,1.8c0.2,0.2,0.2,0.4,0,0.5l-1.5,1.6c-0.1,0.1-0.4,0.1-0.5,0c-0.7-0.6-1.7-1-2.6-1
		c-2.2,0-3.8,1.8-3.8,4c0,2.2,1.6,4,3.9,4c0.9,0,1.9-0.3,2.6-0.9c0.1-0.1,0.4-0.1,0.5,0l1.5,1.6c0.1,0.1,0.1,0.4,0,0.5
		c-1.3,1.3-3,1.9-4.8,1.9c-3.9,0-7.1-3.1-7.1-7S226.5,267.4,230.4,267.4z M210,268c0-0.2,0.2-0.4,0.4-0.4h2.4c0.2,0,0.4,0.2,0.4,0.4
		v7.9c0,1.4,1,2.5,2.4,2.5c1.4,0,2.5-1.1,2.5-2.5V268c0-0.2,0.2-0.4,0.4-0.4h2.4c0.2,0,0.4,0.2,0.4,0.4v8.1c0,3-2.5,5.5-5.6,5.5
		c-3.1,0-5.6-2.5-5.6-5.5V268z M203.1,267.4c2,0,3.6,1,4.2,1.5c0.2,0.1,0.2,0.5,0.1,0.6l-1,1.5c-0.1,0.2-0.5,0.4-0.7,0.3
		c-0.2-0.1-1.6-1.2-2.8-1.2c-0.7,0-1.2,0.5-1.2,1c0,0.7,0.6,1.3,2.1,1.9c1.5,0.6,4,1.8,4,4.5c0,2-1.7,4.1-4.6,4.1
		c-2.6,0-4-1.1-4.4-1.5c-0.2-0.2-0.3-0.3-0.1-0.5l0.9-1.6c0.2-0.3,0.5-0.2,0.7-0.1c0.1,0,1.5,1.1,2.8,1.1c0.8,0,1.4-0.5,1.4-1.2
		c0-0.8-0.7-1.5-2-2c-1.7-0.7-3.8-2-3.8-4.3C198.5,269.4,200.1,267.4,203.1,267.4z"/>
	<path fill="#FFFFFF" d="M202.4,275.6c1.3,0.5,2,1.2,2,2c0,0.7-0.6,1.2-1.4,1.2c-1.3,0-2.7-1-2.8-1.1c-0.1-0.1-0.5-0.1-0.7,0.1
		l-0.9,1.6c-0.2,0.3-0.1,0.4,0.1,0.5c0.5,0.5,1.9,1.5,4.4,1.5c2.9,0,4.6-2,4.6-4.1c0-2.7-2.4-3.9-4-4.5c-1.6-0.6-2.1-1.2-2.1-1.9
		c0-0.5,0.5-1,1.2-1c1.2,0,2.6,1.1,2.8,1.2c0.2,0.1,0.5,0,0.7-0.3l1-1.5c0.1-0.1,0.1-0.5-0.1-0.6c-0.6-0.4-2.2-1.5-4.2-1.5
		c-3,0-4.5,2-4.5,3.9C198.5,273.6,200.7,275,202.4,275.6z"/>
	<path fill="#FFFFFF" d="M215.6,281.5c3.1,0,5.6-2.5,5.6-5.5V268c0-0.2-0.2-0.4-0.4-0.4h-2.4c-0.2,0-0.4,0.2-0.4,0.4v7.9
		c0,1.4-1,2.5-2.5,2.5c-1.4,0-2.4-1.1-2.4-2.5V268c0-0.2-0.2-0.4-0.4-0.4h-2.4c-0.2,0-0.4,0.2-0.4,0.4v8.1
		C210,279,212.5,281.5,215.6,281.5z"/>
	<path fill="#FFFFFF" d="M230.4,281.5c1.7,0,3.4-0.6,4.8-1.9c0.1-0.1,0.2-0.4,0-0.5l-1.5-1.6c-0.1-0.1-0.4-0.1-0.5,0
		c-0.7,0.6-1.7,0.9-2.6,0.9c-2.2,0-3.9-1.8-3.9-4c0-2.2,1.6-4,3.8-4c1,0,1.9,0.4,2.6,1c0.1,0.1,0.4,0.1,0.5,0l1.5-1.6
		c0.2-0.2,0.2-0.4,0-0.5c-1.3-1.2-2.8-1.8-4.7-1.8c-3.9,0-7.1,3.2-7.1,7.1S226.5,281.5,230.4,281.5z"/>
	<path fill="#FFFFFF" d="M243.6,281.5c1.7,0,3.4-0.6,4.8-1.9c0.1-0.1,0.2-0.4,0-0.5l-1.5-1.6c-0.1-0.1-0.4-0.1-0.5,0
		c-0.7,0.6-1.7,0.9-2.6,0.9c-2.2,0-3.9-1.8-3.9-4c0-2.2,1.6-4,3.8-4c1,0,1.9,0.4,2.6,1c0.1,0.1,0.4,0.1,0.5,0l1.5-1.6
		c0.2-0.2,0.2-0.4,0-0.5c-1.3-1.2-2.8-1.8-4.7-1.8c-3.9,0-7.1,3.2-7.1,7.1S239.6,281.5,243.6,281.5z"/>
	<path fill="#FFFFFF" d="M251.1,281.3h8.1c0.2,0,0.4-0.2,0.4-0.4v-2.1c0-0.2-0.2-0.4-0.4-0.4h-5.4v-2.6h4.5c0.2,0,0.4-0.2,0.4-0.4
		v-2.1c0-0.2-0.2-0.4-0.4-0.4h-4.5v-2.4h5.4c0.2,0,0.4-0.2,0.4-0.4V268c0-0.2-0.2-0.4-0.4-0.4h-8.1c-0.2,0-0.4,0.2-0.4,0.4v13
		C250.7,281.1,250.9,281.3,251.1,281.3z"/>
	<path fill="#FFFFFF" d="M265.1,275.6c1.3,0.5,2,1.2,2,2c0,0.7-0.6,1.2-1.4,1.2c-1.3,0-2.7-1-2.8-1.1c-0.1-0.1-0.5-0.1-0.7,0.1
		l-0.9,1.6c-0.2,0.3-0.1,0.4,0.1,0.5c0.5,0.5,1.9,1.5,4.4,1.5c2.9,0,4.6-2,4.6-4.1c0-2.7-2.4-3.9-4-4.5c-1.6-0.6-2.1-1.2-2.1-1.9
		c0-0.5,0.5-1,1.2-1c1.2,0,2.6,1.1,2.8,1.2c0.2,0.1,0.5,0,0.7-0.3l1-1.5c0.1-0.1,0.1-0.5-0.1-0.6c-0.6-0.4-2.2-1.5-4.2-1.5
		c-3,0-4.5,2-4.5,3.9C261.3,273.6,263.4,275,265.1,275.6z"/>
	<path fill="#FFFFFF" d="M275.9,275.6c1.3,0.5,2,1.2,2,2c0,0.7-0.6,1.2-1.4,1.2c-1.3,0-2.7-1-2.8-1.1c-0.1-0.1-0.5-0.1-0.7,0.1
		l-0.9,1.6c-0.2,0.3-0.1,0.4,0.1,0.5c0.5,0.5,1.9,1.5,4.4,1.5c2.9,0,4.6-2,4.6-4.1c0-2.7-2.4-3.9-4-4.5c-1.6-0.6-2.1-1.2-2.1-1.9
		c0-0.5,0.5-1,1.2-1c1.2,0,2.6,1.1,2.8,1.2c0.2,0.1,0.5,0,0.7-0.3l1-1.5c0.1-0.1,0.1-0.5-0.1-0.6c-0.6-0.4-2.2-1.5-4.2-1.5
		c-3,0-4.5,2-4.5,3.9C272.1,273.6,274.2,275,275.9,275.6z"/>
	<path fill="#E0E2E2" d="M257.3,42.4h2.4c0.3,0,0.5-0.2,0.5-0.5V24.1c0-0.3-0.2-0.5-0.5-0.5h-41.2c-0.3,0-0.5,0.2-0.5,0.5v17.8
		c0,0.3,0.2,0.5,0.5,0.5h2.4H257.3z"/>
	<rect x="223.4" y="44.8" fill="#E0E2E2" width="31.4" height="2.5"/>
	<circle fill="#FFFFFF" cx="248.1" cy="234.9" r="1.6"/>
	<path fill="#B5C0C3" d="M248.1,232.1c-1.5,0-2.8,1.3-2.8,2.8c0,1.5,1.3,2.8,2.8,2.8c1.5,0,2.8-1.3,2.8-2.8
		C250.9,233.4,249.6,232.1,248.1,232.1z M248.1,236.5c-0.9,0-1.6-0.7-1.6-1.6s0.7-1.6,1.6-1.6c0.9,0,1.6,0.7,1.6,1.6
		S248.9,236.5,248.1,236.5z"/>
	<circle fill="#FFFFFF" cx="210.4" cy="230.6" r="1.6"/>
	<path fill="#B5C0C3" d="M210.4,227.8c-1.5,0-2.8,1.3-2.8,2.8c0,1.5,1.3,2.8,2.8,2.8c1.5,0,2.8-1.3,2.8-2.8
		C213.2,229,211.9,227.8,210.4,227.8z M208.8,230.6c0-0.9,0.7-1.6,1.6-1.6c0.9,0,1.6,0.7,1.6,1.6c0,0.9-0.7,1.6-1.6,1.6
		C209.5,232.1,208.8,231.4,208.8,230.6z"/>
	<circle fill="#FFFFFF" cx="230.7" cy="204.4" r="1.6"/>
	<path fill="#B5C0C3" d="M230.7,201.6c-1.5,0-2.8,1.3-2.8,2.8c0,1.5,1.3,2.8,2.8,2.8c1.5,0,2.8-1.3,2.8-2.8
		C233.5,202.9,232.3,201.6,230.7,201.6z M230.7,206c-0.9,0-1.6-0.7-1.6-1.6s0.7-1.6,1.6-1.6s1.6,0.7,1.6,1.6S231.6,206,230.7,206z"
		/>
	<circle fill="#FFFFFF" cx="269.7" cy="217.5" r="1.6"/>
	<path fill="#B5C0C3" d="M269.7,220.3c1.5,0,2.8-1.3,2.8-2.8c0-1.5-1.3-2.8-2.8-2.8c-1.5,0-2.8,1.3-2.8,2.8
		C266.9,219,268.2,220.3,269.7,220.3z M269.7,215.9c0.9,0,1.6,0.7,1.6,1.6s-0.7,1.6-1.6,1.6c-0.9,0-1.6-0.7-1.6-1.6
		S268.8,215.9,269.7,215.9z"/>
	<circle fill="#FFFFFF" cx="270.8" cy="322.2" r="0.5"/>
	<path fill="#B5C0C3" d="M270.8,323.9c1,0,1.7-0.8,1.7-1.7c0-1-0.8-1.7-1.7-1.7s-1.7,0.8-1.7,1.7
		C269.1,323.1,269.9,323.9,270.8,323.9z M270.8,321.6c0.3,0,0.5,0.2,0.5,0.5s-0.2,0.5-0.5,0.5s-0.5-0.2-0.5-0.5
		S270.6,321.6,270.8,321.6z"/>
	<circle fill="#FFFFFF" cx="237.4" cy="309.7" r="0.6"/>
	<path fill="#B5C0C3" d="M237.4,311.5c1,0,1.8-0.8,1.8-1.8c0-1-0.8-1.8-1.8-1.8c-1,0-1.8,0.8-1.8,1.8
		C235.6,310.7,236.4,311.5,237.4,311.5z M237.4,309.1c0.3,0,0.6,0.3,0.6,0.6c0,0.3-0.3,0.6-0.6,0.6s-0.6-0.3-0.6-0.6
		C236.8,309.3,237.1,309.1,237.4,309.1z"/>
	<circle fill="#FFFFFF" cx="203.5" cy="330.8" r="1.2"/>
	<path fill="#B5C0C3" d="M203.5,333.2c1.3,0,2.4-1.1,2.4-2.4s-1.1-2.4-2.4-2.4s-2.4,1.1-2.4,2.4S202.2,333.2,203.5,333.2z
		 M203.5,329.6c0.6,0,1.2,0.5,1.2,1.2c0,0.6-0.5,1.2-1.2,1.2s-1.2-0.5-1.2-1.2C202.3,330.1,202.8,329.6,203.5,329.6z"/>
	<circle fill="#FFFFFF" cx="246.6" cy="138.9" r="0.7"/>
	<path fill="#B5C0C3" d="M246.6,136.9c-1.1,0-1.9,0.9-1.9,1.9s0.9,1.9,1.9,1.9c1.1,0,1.9-0.9,1.9-1.9S247.7,136.9,246.6,136.9z
		 M246.6,139.6c-0.4,0-0.7-0.3-0.7-0.7c0-0.4,0.3-0.7,0.7-0.7c0.4,0,0.7,0.3,0.7,0.7C247.3,139.2,247,139.6,246.6,139.6z"/>
	<circle fill="#FFFFFF" cx="227" cy="113" r="1.6"/>
	<path fill="#B5C0C3" d="M227,110.2c-1.5,0-2.8,1.3-2.8,2.8c0,1.5,1.3,2.8,2.8,2.8c1.5,0,2.8-1.3,2.8-2.8
		C229.8,111.4,228.6,110.2,227,110.2z M227,114.5c-0.9,0-1.6-0.7-1.6-1.6c0-0.9,0.7-1.6,1.6-1.6c0.9,0,1.6,0.7,1.6,1.6
		C228.6,113.8,227.9,114.5,227,114.5z"/>
	<polygon fill="#FFFFFF" points="261.5,53.9 261.5,49.8 215.7,49.8 215.7,53.9 	"/>
	<path fill="#62A5DA" d="M200.4,179H225c3.1,4.3,8.1,7.1,13.6,7.1c5.6,0,10.5-2.8,13.6-7.1h24.6h2.6h0.1l-0.9-2.8l-7.2-22H269h-19.3
		c-3-2.6-6.8-4.2-11.1-4.2c-4.2,0-8.1,1.6-11.1,4.2h-19.3h-2.6h-0.1l-3.2,10.2l-3.9,12.4l-0.7,2.2h0H200.4z M232.4,163.1
		c0.4,0,0.7,0.1,1,0.3c1.1,0.7,2.3,1.1,3.6,1.3v-4c0-1,0.8-1.7,1.7-1.7c1,0,1.7,0.8,1.7,1.7v4c1.2-0.2,2.5-0.6,3.6-1.3
		c0.3-0.2,0.6-0.3,1-0.3c1,0,1.7,0.8,1.7,1.7c0,0.6-0.3,1.1-0.7,1.4c-0.1,0-0.1,0.1-0.2,0.1c-0.8,0.5-1.6,0.8-2.4,1.1
		c-1.5-0.5-3.1-0.8-4.7-0.8c-1.6,0-3.2,0.3-4.7,0.8c-0.8-0.3-1.6-0.7-2.4-1.1c-0.1,0-0.1-0.1-0.2-0.1c-0.4-0.3-0.7-0.8-0.7-1.4
		C230.6,163.8,231.4,163.1,232.4,163.1z M231.3,169.9c0.1,0,0.1-0.1,0.2-0.1c2.2-1.3,4.6-2,7.1-2c2.4,0,4.9,0.7,7.1,2
		c0.1,0,0.1,0.1,0.2,0.1c0.4,0.3,0.7,0.8,0.7,1.4c0,1-0.8,1.7-1.7,1.7c-0.4,0-0.7-0.1-1-0.3c-1.1-0.7-2.3-1.1-3.6-1.3v4
		c0,1-0.8,1.7-1.7,1.7c-1,0-1.7-0.8-1.7-1.7v-4c-1.2,0.2-2.5,0.6-3.6,1.3c-0.3,0.2-0.6,0.3-1,0.3c-1,0-1.7-0.8-1.7-1.7
		C230.6,170.8,230.9,170.3,231.3,169.9z"/>
	<path fill="#FFFFFF" d="M232.4,173c0.4,0,0.7-0.1,1-0.3c1.1-0.7,2.3-1.1,3.6-1.3v4c0,1,0.8,1.7,1.7,1.7c0.9,0,1.7-0.8,1.7-1.7v-4
		c1.2,0.2,2.5,0.6,3.6,1.3c0.3,0.2,0.6,0.3,1,0.3c1,0,1.7-0.8,1.7-1.7c0-0.6-0.3-1.1-0.7-1.4c-0.1,0-0.1-0.1-0.2-0.1
		c-2.2-1.3-4.6-2-7.1-2c-2.5,0-4.9,0.7-7.1,2c-0.1,0-0.1,0.1-0.2,0.1c-0.4,0.3-0.7,0.8-0.7,1.4C230.6,172.3,231.4,173,232.4,173z"/>
	<path fill="#FFFFFF" d="M231.3,166.2c0.1,0,0.1,0.1,0.2,0.1c0.8,0.5,1.6,0.8,2.4,1.1c1.5-0.5,3.1-0.8,4.7-0.8
		c1.6,0,3.2,0.3,4.7,0.8c0.8-0.3,1.6-0.7,2.4-1.1c0.1,0,0.1-0.1,0.2-0.1c0.4-0.3,0.7-0.8,0.7-1.4c0-1-0.8-1.7-1.7-1.7
		c-0.4,0-0.7,0.1-1,0.3c-1.1,0.7-2.3,1.1-3.6,1.3v-4c0-1-0.8-1.7-1.7-1.7c-0.9,0-1.7,0.8-1.7,1.7v4c-1.2-0.2-2.5-0.6-3.6-1.3
		c-0.3-0.2-0.6-0.3-1-0.3c-1,0-1.7,0.8-1.7,1.7C230.6,165.3,230.9,165.8,231.3,166.2z"/>
	<path fill="#FFFFFF" d="M380.6,299.1c0-1.5,1-2.8,2.4-3.2c15.3-4.6,26.8-31.6,26.8-62.8c0-4.6-0.2-9.2-0.7-13.7
		c0-0.4-0.4-0.8-0.9-0.8h-59.6c-0.5,0-0.8,0.3-0.9,0.8c-0.5,4.5-0.7,9.1-0.7,13.7c0,31.2,11.5,58.1,26.8,62.8
		c1.4,0.4,2.4,1.7,2.4,3.2v66.8c0,1.8-1.5,3.3-3.3,3.3h-27.1c-0.5,0-0.9,0.4-0.9,0.9c0,0.5,0.4,0.9,0.9,0.9H411
		c0.5,0,0.9-0.4,0.9-0.9c0-0.5-0.4-0.9-0.9-0.9H384c-1.8,0-3.3-1.5-3.3-3.3V299.1z"/>
	<path fill="#B5C0C3" d="M383.1,299.1c0-0.4,0.3-0.7,0.7-0.8c16.5-5,28.5-32.4,28.5-65.1c0-4.7-0.3-9.4-0.8-13.9
		c-0.2-1.7-1.6-3-3.3-3h-59.6c-1.7,0-3.1,1.3-3.3,3c-0.5,4.6-0.8,9.3-0.8,13.9c0,32.7,12,60.1,28.5,65.1c0.4,0.1,0.7,0.5,0.7,0.8
		v34.8h-83.5v-92.2c0-21.9-4.9-43-10.8-62.7h-2.6c5.9,19.7,10.9,40.8,10.9,62.7v8.1h2.4v50.7h-2.4V364c-11.2-0.4-17-6.5-23.1-13
		c-6.4-6.8-13-13.8-26.1-13.8c-13.1,0-19.7,7-26.1,13.8c-6.1,6.4-11.8,12.5-23.1,13v-63.5h-2.3v-50.7h2.3v-8.1
		c0-21.8,5-43,10.9-62.7h-2.6c-5.9,19.7-10.8,40.8-10.8,62.7v92.2h-57.1v1.2v1.2H187v30.4c0,4.4,3.5,7.9,7.9,7.9h0h87.4h0
		c2.7,0,5.1-1.4,6.5-3.5c0.1-0.1,0.1-0.2,0.1-0.2c0.1-0.1,0.2-0.2,0.2-0.4c0.1-0.2,0.2-0.3,0.3-0.5c0,0,0-0.1,0.1-0.1
		c0.4-1,0.7-2.1,0.7-3.2v-30.4h83.5v29.5c0,0.5-0.4,0.9-0.9,0.9h-27.1c-1.8,0-3.3,1.5-3.3,3.3c0,1.8,1.5,3.3,3.3,3.3H411
		c1.8,0,3.3-1.5,3.3-3.3c0-1.8-1.5-3.3-3.3-3.3H384c-0.5,0-0.9-0.4-0.9-0.9v-29.5h78.3v-2.5h-78.3V299.1z M384,369.2H411
		c0.5,0,0.9,0.4,0.9,0.9c0,0.5-0.4,0.9-0.9,0.9h-65.3c-0.5,0-0.9-0.4-0.9-0.9c0-0.5,0.4-0.9,0.9-0.9h27.1c1.8,0,3.3-1.5,3.3-3.3
		v-66.8c0-1.5-1-2.8-2.4-3.2c-15.3-4.6-26.8-31.6-26.8-62.8c0-4.6,0.2-9.2,0.7-13.7c0-0.4,0.4-0.8,0.9-0.8h59.6
		c0.5,0,0.8,0.3,0.9,0.8c0.5,4.5,0.7,9.1,0.7,13.7c0,31.2-11.5,58.1-26.8,62.8c-1.4,0.4-2.4,1.7-2.4,3.2v66.8
		C380.6,367.7,382.1,369.2,384,369.2z M189.5,366.7v-0.3c12.3-0.4,18.7-7.2,24.9-13.7c6.3-6.7,12.2-13,24.3-13
		c12.1,0,18,6.3,24.3,13c6.2,6.6,12.5,13.3,24.9,13.7l0,0.5c-0.1,2.9-2.5,5.3-5.4,5.3h0h-87.4C191.9,372.2,189.5,369.7,189.5,366.7z
		"/>
	<path opacity="0.2" fill="#E0E2E2" d="M282.4,372.2c2.9,0,5.3-2.3,5.4-5.3l0-0.5c-12.3-0.4-18.7-7.2-24.9-13.7
		c-6.3-6.7-12.2-13-24.3-13c-12.1,0-18,6.3-24.3,13c-6.2,6.6-12.5,13.3-24.9,13.7v0.3c0,3,2.4,5.4,5.4,5.4H282.4L282.4,372.2z"/>
</g>
</svg>
