<?xml version="1.0" encoding="utf-8"?>
<!-- Generator: Adobe Illustrator 18.1.1, SVG Export Plug-In . SVG Version: 6.00 Build 0)  -->
<svg version="1.1" id="Layer_1" xmlns="http://www.w3.org/2000/svg" xmlns:xlink="http://www.w3.org/1999/xlink" x="0px" y="0px"
	 viewBox="0 0 800 600" enable-background="new 0 0 800 600" xml:space="preserve">
<circle fill="#F04924" cx="400" cy="299.4" r="97.8"/>
<g>
	<path fill="#F04924" d="M400,156c-13.8,0-25-11.2-25-25V39.6c0-13.8,11.2-25,25-25c13.8,0,25,11.2,25,25V131
		C425,144.8,413.8,156,400,156z"/>
</g>
<g>
	<path fill="#F04924" d="M519.1,205.3c-6.4,0-12.8-2.4-17.7-7.3c-9.8-9.8-9.8-25.6,0-35.4L566,98.1c9.8-9.8,25.6-9.8,35.4,0
		c9.8,9.8,9.8,25.6,0,35.4L536.8,198C531.9,202.9,525.5,205.3,519.1,205.3z"/>
</g>
<g>
	<path fill="#F04924" d="M659.8,324.4h-91.3c-13.8,0-25-11.2-25-25c0-13.8,11.2-25,25-25h91.3c13.8,0,25,11.2,25,25
		C684.8,313.3,673.6,324.4,659.8,324.4z"/>
</g>
<g>
	<path fill="#F04924" d="M583.7,508.2c-6.4,0-12.8-2.4-17.7-7.3l-64.6-64.6c-9.8-9.8-9.8-25.6,0-35.4c9.8-9.8,25.6-9.8,35.4,0
		l64.6,64.6c9.8,9.8,9.8,25.6,0,35.4C596.5,505.7,590.1,508.2,583.7,508.2z"/>
</g>
<g>
	<path fill="#F04924" d="M400,584.3c-13.8,0-25-11.2-25-25v-91.3c0-13.8,11.2-25,25-25c13.8,0,25,11.2,25,25v91.3
		C425,573.1,413.8,584.3,400,584.3z"/>
</g>
<g>
	<path fill="#F04924" d="M216.3,508.2c-6.4,0-12.8-2.4-17.7-7.3c-9.8-9.8-9.8-25.6,0-35.4l64.6-64.6c9.8-9.8,25.6-9.8,35.4,0
		c9.8,9.8,9.8,25.6,0,35.4L234,500.8C229.1,505.7,222.7,508.2,216.3,508.2z"/>
</g>
<g>
	<path fill="#F04924" d="M231.5,324.4h-91.3c-13.8,0-25-11.2-25-25c0-13.8,11.2-25,25-25h91.3c13.8,0,25,11.2,25,25
		C256.5,313.3,245.3,324.4,231.5,324.4z"/>
</g>
<g>
	<path fill="#F04924" d="M280.9,205.3c-6.4,0-12.8-2.4-17.7-7.3l-64.6-64.6c-9.8-9.8-9.8-25.6,0-35.4c9.8-9.8,25.6-9.8,35.4,0
		l64.6,64.6c9.8,9.8,9.8,25.6,0,35.4C293.7,202.9,287.3,205.3,280.9,205.3z"/>
</g>
</svg>
