<?xml version="1.0" encoding="UTF-8" standalone="no"?>
<svg width="121px" height="18px" viewBox="0 0 121 18" version="1.1" xmlns="http://www.w3.org/2000/svg" xmlns:xlink="http://www.w3.org/1999/xlink" xmlns:sketch="http://www.bohemiancoding.com/sketch/ns">
    <!-- Generator: Sketch 3.2.2 (9983) - http://www.bohemiancoding.com/sketch -->
    <title>Uber</title>
    <desc>Created with Sketch.</desc>
    <defs></defs>
    <g id="Welcome" stroke="none" stroke-width="1" fill="none" fill-rule="evenodd" sketch:type="MSPage">
        <g id="Uber" sketch:type="MSLayerGroup" transform="translate(-39.000000, -38.921490)">
            <rect id="Rectangle-83" opacity="0" fill="#EDEFF0" sketch:type="MSShapeGroup" x="0" y="0" width="199" height="95"></rect>
            <g id="uber" transform="translate(39.000000, 39.000000)" fill="#71777A" sketch:type="MSShapeGroup">
                <path d="M118.932735,14.9075113 C118.397779,15.496765 117.828482,15.2267926 117.676402,15.0449518 L113.985673,10.3962957 L114.221152,10.3962957 C121.288415,8.87731074 119.502031,0.470461055 113.71184,0.32610394 L101.619022,0.32610394 L101.619022,16.8522047 L103.542991,16.8522047 L103.542991,11.4373626 C103.542991,10.749714 103.798093,10.3962957 104.563622,10.3962957 L111.5709,10.3962957 L116.400223,16.4396602 C117.367113,17.2696578 119.094626,17.6181675 120.189068,16.4396602 L118.932735,14.9075113 L118.932735,14.9075113 Z M104.406636,8.58926587 C103.71291,8.58926587 103.542991,8.94268421 103.542991,8.94268421 L103.542991,2.15968473 L113.71184,2.15968473 C118.00353,2.33036973 118.134426,8.36726381 113.71184,8.58926587 L104.406636,8.58926587 L104.406636,8.58926587 Z" id="Fill-14"></path>
                <path d="M84.2977276,0.32610394 L69.0638547,0.32610394 L69.0638547,16.8522047 L84.8081547,16.8522047 L84.8081547,14.9615058 L70.9878235,14.9615058 L70.9878235,10.2720191 C70.9878235,9.58459367 71.2429256,9.23095221 72.0086777,9.23095221 L80.2145341,9.23095221 L80.2145341,7.42392241 L71.8514688,7.42392241 C71.1579659,7.42392241 70.9878235,7.77734076 70.9878235,7.77734076 L70.9878235,2.15968473 L84.2977276,2.15968473 L84.2977276,0.32610394" id="Fill-15"></path>
                <path d="M50.1840742,8.36659446 C53.4821154,5.93104226 52.0685736,0.863148108 47.9068872,0.32610394 L35.3034195,0.32610394 L35.3034195,16.8522047 L47.9068872,16.8522047 C51.9764782,16.3267626 53.9624386,11.1571268 50.1840742,8.36659446 L50.1840742,8.36659446 Z M37.2273884,2.15968473 L47.7104319,2.15968473 C51.0869659,2.5525949 50.9692265,7.10954965 47.7104319,7.42392241 L38.0910336,7.42392241 C37.3975307,7.42392241 37.2273884,7.77734076 37.2273884,7.77734076 L37.2273884,2.15968473 L37.2273884,2.15968473 Z M47.7104319,14.9615058 L37.2273884,14.9615058 L37.2273884,10.2720191 C37.2273884,9.58459367 37.4824904,9.23095221 38.2482425,9.23095221 L47.7104319,9.23095221 C51.3043825,9.6861122 51.187535,14.5962622 47.7104319,14.9615058 L47.7104319,14.9615058 Z" id="Fill-16"></path>
                <path d="M11.2355237,17.1924591 C12.6490655,17.1924591 18.4599955,16.262951 18.4599955,10.8019235 L18.4599955,0.32610394 L16.5228702,0.32610394 L16.5228702,10.3831317 C16.5228702,15.227462 11.1309408,14.9925191 11.1309408,14.9925191 L9.42951726,14.9925191 C9.42951726,14.9925191 4.0373649,15.227462 4.0373649,10.3831317 L4.0373649,3.15456631 C4.0373649,1.66235551 2.85952491,0.32610394 0.97502553,0.32610394 L0.97502553,2.2123405 C1.73386489,2.2123405 2.10046257,2.91940031 2.10046257,3.46893907 L2.10046257,10.8019235 C2.10046257,16.262951 7.91139257,17.1924591 9.32471136,17.1924591 L11.2355237,17.1924591" id="Fill-17"></path>
            </g>
        </g>
    </g>
</svg>