<?xml version="1.0" encoding="utf-8"?>
<!-- Generator: Adobe Illustrator 18.1.0, SVG Export Plug-In . SVG Version: 6.00 Build 0)  -->
<!DOCTYPE svg PUBLIC "-//W3C//DTD SVG 1.1//EN" "http://www.w3.org/Graphics/SVG/1.1/DTD/svg11.dtd">
<svg version="1.1" id="Layer_1" xmlns="http://www.w3.org/2000/svg" xmlns:xlink="http://www.w3.org/1999/xlink" x="0px" y="0px"
	 viewBox="0 0 721.1 542.9" enable-background="new 0 0 721.1 542.9" xml:space="preserve">
<g>
	<path opacity="0.2" fill="#B4BFC2" d="M651.4,496.3H18.5c-4.3,0-7.8-3.5-7.8-7.8V120.4c0-4.3,3.5-7.8,7.8-7.8h632.9
		c4.3,0,7.8,3.5,7.8,7.8v368.1C659.1,492.8,655.7,496.3,651.4,496.3z"/>
	<g>
		<path fill="#FFFFFF" stroke="#B4BFC2" stroke-width="2" stroke-miterlimit="10" d="M646,127.2v349.3c0,3.5-2.9,6.4-6.4,6.4H11.5
			c-3.5,0-6.4-2.9-6.4-6.4V127.2"/>
		<path fill="#E0E1E1" stroke="#B4BFC2" stroke-width="2" stroke-miterlimit="10" d="M646,127.2H5.1V84.1c0-3.5,2.8-6.4,6.4-6.4
			h628.2c3.5,0,6.4,2.8,6.4,6.4V127.2z"/>
		<g>
			<ellipse fill="#FFFFFF" stroke="#B4BFC2" stroke-width="2" stroke-miterlimit="10" cx="33.1" cy="102.5" rx="10.9" ry="10.9"/>
			<ellipse fill="#FFFFFF" stroke="#B4BFC2" stroke-width="2" stroke-miterlimit="10" cx="68.5" cy="102.5" rx="10.9" ry="10.9"/>
			<ellipse fill="#FFFFFF" stroke="#B4BFC2" stroke-width="2" stroke-miterlimit="10" cx="104" cy="102.5" rx="10.9" ry="10.9"/>
		</g>
		<g>
			<path fill="#B4C1C8" d="M277.3,187.3H175.1c-0.6,0-1.2-0.5-1.2-1.2v-12.8c0-0.6,0.5-1.2,1.2-1.2h102.2c0.6,0,1.2,0.5,1.2,1.2
				v12.8C278.4,186.7,277.9,187.3,277.3,187.3z"/>
			<path fill="#E0E1E1" d="M388.7,204.5H175.1c-0.6,0-1.2-0.5-1.2-1.2v-8.5c0-0.6,0.5-1.2,1.2-1.2h213.7c0.6,0,1.2,0.5,1.2,1.2v8.5
				C389.9,204,389.4,204.5,388.7,204.5z"/>
			<path fill="#E0E1E1" d="M388.5,221.8H175.3c-0.8,0-1.4-0.6-1.4-1.4v-8c0-0.8,0.6-1.4,1.4-1.4h213.2c0.8,0,1.4,0.6,1.4,1.4v8
				C389.9,221.2,389.3,221.8,388.5,221.8z"/>
		</g>
		<g>
			<path fill="#E0E1E1" d="M612.1,207.3h-96.9c-0.6,0-1.1-0.5-1.1-1.1v-8.6c0-0.6,0.5-1.1,1.1-1.1h96.9c0.6,0,1.1,0.5,1.1,1.1v8.6
				C613.2,206.8,612.7,207.3,612.1,207.3z"/>
			<path fill="#E0E1E1" d="M612.1,189.6h-96.9c-0.6,0-1.1-0.5-1.1-1.1v-8.6c0-0.6,0.5-1.1,1.1-1.1h96.9c0.6,0,1.1,0.5,1.1,1.1v8.6
				C613.2,189.1,612.7,189.6,612.1,189.6z"/>
			<path fill="#E0E1E1" d="M612.1,224.5h-96.8c-0.6,0-1.1-0.5-1.1-1.1v-8.5c0-0.6,0.5-1.1,1.1-1.1h96.8c0.6,0,1.1,0.5,1.1,1.1v8.5
				C613.2,224,612.7,224.5,612.1,224.5z"/>
		</g>
		<g>
			<g>
				<path fill="#B4C1C8" d="M201.5,320.4H100.3c-0.9,0-1.6-0.7-1.6-1.6V307c0-0.9,0.7-1.6,1.6-1.6h101.3c0.9,0,1.6,0.7,1.6,1.6v11.9
					C203.2,319.7,202.4,320.4,201.5,320.4z"/>
				<path fill="#E0E1E1" d="M611.6,337.7H100.3c-0.9,0-1.6-0.7-1.6-1.6v-7.6c0-0.9,0.7-1.6,1.6-1.6h511.3c0.9,0,1.6,0.7,1.6,1.6v7.6
					C613.2,337,612.5,337.7,611.6,337.7z"/>
				<path fill="#E0E1E1" d="M611.6,355H100.3c-0.9,0-1.6-0.7-1.6-1.6v-7.6c0-0.9,0.7-1.6,1.6-1.6h511.3c0.9,0,1.6,0.7,1.6,1.6v7.6
					C613.2,354.2,612.5,355,611.6,355z"/>
			</g>
		</g>
		<g>
			<g>
				<g>
					<g>
						<path fill="#61A3D9" d="M47.1,228.6l23.7-8.8l2-6.6c3,1.7,6.3,2.7,9.8,2.7c3.6,0,7.1-1.1,10.1-2.9l2,6.8l23.7,8.8
							c0,0,1.4,0.3,2.9,2.7c8.1-9.1,13-21.1,13-34.3c0-28.5-23.1-51.6-51.6-51.6c-28.5,0-51.6,23.1-51.6,51.6
							c0,13.2,4.9,25.2,13.1,34.3C45.7,228.9,47.1,228.6,47.1,228.6z M82.5,162.1c8.2,0,15.3,5.8,18.7,14.3
							c-5.9,3.8-7.3,3.4-7.4,3.4c-0.1-0.1-0.3-0.7-0.4-1.1c-0.3-1-0.8-2.6-2.4-3.3c-1.5-0.7-3.6-0.3-6.6,1.2
							c-9.4,4.6-17.5-0.5-19.7-2.1C68.3,167,74.9,162.1,82.5,162.1z M63.3,177.8c3.4,2.3,12.4,7,22.7,1.9c2-1,3-1.1,3.4-1.1
							c0.2,0,0.2,0,0.2,0c0.1,0.1,0.3,0.7,0.4,1.1c0.3,1.1,0.8,2.7,2.6,3.4c0.4,0.2,0.9,0.2,1.4,0.2c1.9,0,4.5-1.1,8.4-3.5
							c0.6,2.3,0.9,4.7,0.9,7.3c0,11-5.9,20.4-14.2,23.7c-2.1,0.8-4.3,1.3-6.6,1.3c-2.5,0-4.9-0.6-7.1-1.6
							c-7.9-3.5-13.6-12.7-13.6-23.5C61.8,183.8,62.3,180.7,63.3,177.8z"/>
					</g>
				</g>
				<g>
					<path fill="#80C1EA" d="M82.7,248.5c15.3,0,29.1-6.7,38.5-17.3c-1.5-2.3-2.9-2.7-2.9-2.7l-23.7-8.8l-2-6.8
						c-3,1.8-6.5,2.9-10.1,2.9c-3.5,0-6.8-1-9.8-2.7l-2,6.6l-23.7,8.8c0,0-1.4,0.3-2.9,2.7C53.6,241.9,67.4,248.5,82.7,248.5z"/>
				</g>
				<g>
					<path fill="#80C1EA" d="M75.4,210.6c2.2,1,4.6,1.6,7.1,1.6c2.3,0,4.5-0.5,6.6-1.3c8.2-3.3,14.2-12.7,14.2-23.7
						c0-2.5-0.3-5-0.9-7.3c-3.9,2.4-6.5,3.5-8.4,3.5c-0.5,0-1-0.1-1.4-0.2c-1.8-0.6-2.3-2.3-2.6-3.4c-0.1-0.4-0.3-0.9-0.4-1.1
						c0,0,0,0-0.2,0c-0.4,0-1.3,0.1-3.4,1.1c-10.3,5-19.3,0.3-22.7-1.9c-1,2.9-1.5,6-1.5,9.3C61.8,197.9,67.4,207.1,75.4,210.6z"/>
				</g>
				<g>
					<path fill="#80C1EA" d="M84.3,176.5c3-1.5,5.1-1.8,6.6-1.2c1.6,0.7,2.1,2.3,2.4,3.3c0.1,0.3,0.3,0.9,0.4,1.1
						c0.1,0,1.4,0.3,7.4-3.4c-3.3-8.4-10.4-14.3-18.7-14.3c-7.6,0-14.2,5-17.8,12.3C66.8,176,75,181.1,84.3,176.5z"/>
				</g>
			</g>
		</g>
		<g>
			<g>
				<path fill="#B4C1C8" d="M201.5,408.9H100.3c-0.9,0-1.6-0.7-1.6-1.6v-11.9c0-0.9,0.7-1.6,1.6-1.6h101.3c0.9,0,1.6,0.7,1.6,1.6
					v11.9C203.2,408.2,202.4,408.9,201.5,408.9z"/>
				<path fill="#E0E1E1" d="M611.6,426.2H100.3c-0.9,0-1.6-0.7-1.6-1.6V417c0-0.9,0.7-1.6,1.6-1.6h511.3c0.9,0,1.6,0.7,1.6,1.6v7.6
					C613.2,425.5,612.5,426.2,611.6,426.2z"/>
				<path fill="#E0E1E1" d="M611.6,443.5H100.3c-0.9,0-1.6-0.7-1.6-1.6v-7.6c0-0.9,0.7-1.6,1.6-1.6h511.3c0.9,0,1.6,0.7,1.6,1.6v7.6
					C613.2,442.7,612.5,443.5,611.6,443.5z"/>
			</g>
			<g>
				<g>
					<g>
						<g>
							<path fill="#61A3D9" d="M38.7,434.4l11.6-4.3l1-3.2c1.4,0.8,3.1,1.3,4.8,1.3c1.8,0,3.4-0.5,4.9-1.4l1,3.3l11.6,4.3
								c0,0,0.7,0.2,1.4,1.3c4-4.4,6.4-10.3,6.4-16.7c0-13.9-11.3-25.2-25.2-25.2c-13.9,0-25.2,11.3-25.2,25.2
								c0,6.4,2.4,12.3,6.4,16.7C38,434.5,38.7,434.4,38.7,434.4z M56,401.9c4,0,7.5,2.9,9.1,7c-2.9,1.8-3.6,1.7-3.6,1.7
								c-0.1-0.1-0.1-0.3-0.2-0.5c-0.2-0.5-0.4-1.3-1.2-1.6c-0.8-0.3-1.7-0.2-3.2,0.6c-4.6,2.2-8.5-0.3-9.6-1
								C49,404.3,52.3,401.9,56,401.9z M46.6,409.6c1.7,1.1,6,3.4,11.1,1c1-0.5,1.5-0.6,1.6-0.6c0.1,0,0.1,0,0.1,0
								c0.1,0.1,0.2,0.4,0.2,0.5c0.2,0.5,0.4,1.3,1.3,1.6c0.2,0.1,0.4,0.1,0.7,0.1c0.9,0,2.2-0.5,4.1-1.7c0.3,1.1,0.4,2.3,0.4,3.5
								c0,5.4-2.9,10-6.9,11.6c-1,0.4-2.1,0.6-3.2,0.6c-1.2,0-2.4-0.3-3.5-0.8c-3.9-1.7-6.6-6.2-6.6-11.5
								C45.9,412.5,46.1,411,46.6,409.6z"/>
						</g>
					</g>
					<g>
						<path fill="#80C1EA" d="M56.1,444.1c7.5,0,14.2-3.3,18.8-8.4c-0.7-1.1-1.4-1.3-1.4-1.3l-11.6-4.3l-1-3.3
							c-1.5,0.9-3.2,1.4-4.9,1.4c-1.7,0-3.3-0.5-4.8-1.3l-1,3.2l-11.6,4.3c0,0-0.7,0.2-1.4,1.3C41.9,440.8,48.6,444.1,56.1,444.1z"
							/>
					</g>
					<g>
						<path fill="#80C1EA" d="M52.5,425.6c1.1,0.5,2.3,0.8,3.5,0.8c1.1,0,2.2-0.2,3.2-0.6c4-1.6,6.9-6.2,6.9-11.6
							c0-1.2-0.2-2.4-0.4-3.5c-1.9,1.2-3.2,1.7-4.1,1.7c-0.3,0-0.5,0-0.7-0.1c-0.9-0.3-1.1-1.1-1.3-1.6c-0.1-0.2-0.1-0.5-0.2-0.5
							c0,0,0,0-0.1,0c-0.2,0-0.6,0.1-1.6,0.6c-5,2.5-9.4,0.2-11.1-1c-0.5,1.4-0.7,2.9-0.7,4.5C45.9,419.4,48.6,423.9,52.5,425.6z"/>
					</g>
					<g>
						<path fill="#80C1EA" d="M56.9,409c1.5-0.7,2.5-0.9,3.2-0.6c0.8,0.3,1,1.1,1.2,1.6c0.1,0.2,0.1,0.5,0.2,0.5
							c0,0,0.7,0.2,3.6-1.7c-1.6-4.1-5.1-7-9.1-7c-3.7,0-6.9,2.4-8.7,6C48.3,408.7,52.3,411.2,56.9,409z"/>
					</g>
				</g>
			</g>
			<g>
				<g>
					<path fill="#B4BFC2" d="M38.7,346.1l11.6-4.3l1-3.2c1.4,0.8,3.1,1.3,4.8,1.3c1.8,0,3.4-0.5,4.9-1.4l1,3.3l11.6,4.3
						c0,0,0.7,0.2,1.4,1.3c4-4.4,6.4-10.3,6.4-16.7c0-13.9-11.3-25.2-25.2-25.2c-13.9,0-25.2,11.3-25.2,25.2
						c0,6.4,2.4,12.3,6.4,16.7C38,346.3,38.7,346.1,38.7,346.1z M56,313.7c4,0,7.5,2.9,9.1,7c-2.9,1.8-3.6,1.7-3.6,1.7
						c-0.1-0.1-0.1-0.3-0.2-0.5c-0.2-0.5-0.4-1.3-1.2-1.6c-0.8-0.3-1.7-0.2-3.2,0.6c-4.6,2.2-8.5-0.3-9.6-1
						C49,316.1,52.3,313.7,56,313.7z M46.6,321.4c1.7,1.1,6,3.4,11.1,1c1-0.5,1.5-0.6,1.6-0.6c0.1,0,0.1,0,0.1,0
						c0.1,0.1,0.2,0.4,0.2,0.5c0.2,0.5,0.4,1.3,1.3,1.6c0.2,0.1,0.4,0.1,0.7,0.1c0.9,0,2.2-0.5,4.1-1.7c0.3,1.1,0.4,2.3,0.4,3.5
						c0,5.4-2.9,10-6.9,11.6c-1,0.4-2.1,0.6-3.2,0.6c-1.2,0-2.4-0.3-3.5-0.8c-3.9-1.7-6.6-6.2-6.6-11.5
						C45.9,324.3,46.1,322.8,46.6,321.4z"/>
					<path fill="#E0E1E1" d="M56.1,355.9c7.5,0,14.2-3.3,18.8-8.4c-0.7-1.1-1.4-1.3-1.4-1.3l-11.6-4.3l-1-3.3
						c-1.5,0.9-3.2,1.4-4.9,1.4c-1.7,0-3.3-0.5-4.8-1.3l-1,3.2l-11.6,4.3c0,0-0.7,0.2-1.4,1.3C41.9,352.6,48.6,355.9,56.1,355.9z"/>
					<path fill="#E0E1E1" d="M52.5,337.4c1.1,0.5,2.3,0.8,3.5,0.8c1.1,0,2.2-0.2,3.2-0.6c4-1.6,6.9-6.2,6.9-11.6
						c0-1.2-0.2-2.4-0.4-3.5c-1.9,1.2-3.2,1.7-4.1,1.7c-0.3,0-0.5,0-0.7-0.1c-0.9-0.3-1.1-1.1-1.3-1.6c-0.1-0.2-0.1-0.5-0.2-0.5
						c0,0,0,0-0.1,0c-0.2,0-0.6,0.1-1.6,0.6c-5,2.5-9.4,0.2-11.1-1c-0.5,1.4-0.7,2.9-0.7,4.5C45.9,331.1,48.6,335.6,52.5,337.4z"/>
					<path fill="#E0E1E1" d="M56.9,320.7c1.5-0.7,2.5-0.9,3.2-0.6c0.8,0.3,1,1.1,1.2,1.6c0.1,0.2,0.1,0.5,0.2,0.5
						c0,0,0.7,0.2,3.6-1.7c-1.6-4.1-5.1-7-9.1-7c-3.7,0-6.9,2.4-8.7,6C48.3,320.5,52.3,323,56.9,320.7z"/>
				</g>
			</g>
		</g>
		<rect x="6.9" y="264.8" fill="#E0E1E1" width="637.3" height="4"/>
	</g>
</g>
</svg>
