<?xml version="1.0" encoding="UTF-8" standalone="no"?>
<svg width="523px" height="317px" viewBox="0 0 523 317" version="1.1" xmlns="http://www.w3.org/2000/svg" xmlns:xlink="http://www.w3.org/1999/xlink" xmlns:sketch="http://www.bohemiancoding.com/sketch/ns">
    <!-- Generator: Sketch 3.2.2 (9983) - http://www.bohemiancoding.com/sketch -->
    <title>unified-graphic</title>
    <desc>Created with Sketch.</desc>
    <defs></defs>
    <g id="Welcome" stroke="none" stroke-width="1" fill="none" fill-rule="evenodd" sketch:type="MSPage">
        <g id="Desktop-HD---Product" sketch:type="MSArtboardGroup" transform="translate(-767.000000, -1648.000000)">
            <g id="unified-graphic" sketch:type="MSLayerGroup" transform="translate(767.000000, 1648.000000)">
                <path d="M521.00189,46.6685175 L521.00189,310.780265 C521.00189,313.446958 518.838255,315.609649 516.170399,315.609649 L6.24470346,315.609649 C3.5761516,315.609649 1.41251729,313.446958 1.41251729,310.780265 L1.41251729,46.6685175" id="Fill-1" fill="#FFFFFF" sketch:type="MSShapeGroup"></path>
                <path d="M516.170399,317 L6.24470346,317 C2.81321144,317 0.0222553191,314.209566 0.0222553191,310.77957 L0.0222553191,46.6685175 L2.80417021,46.6685175 L2.80417021,310.77957 C2.80417021,312.676009 4.3474375,314.219298 6.24470346,314.219298 L516.170399,314.219298 C518.066969,314.219298 519.610932,312.676009 519.610932,310.77957 L519.610932,46.6685175 L522.392847,46.6685175 L522.392847,310.77957 C522.392847,314.209566 519.601195,317 516.170399,317" id="Fill-2" fill="#AFBAB9" sketch:type="MSShapeGroup"></path>
                <path d="M521.00189,46.6685175 L1.41251729,46.6685175 L1.41251729,6.46026535 C1.41251729,4.01880921 3.39254521,2.03964474 5.83506649,2.03964474 L516.57934,2.03964474 C519.021862,2.03964474 521.00189,4.01880921 521.00189,6.46026535 L521.00189,46.6685175" id="Fill-3" fill="#DFE0DC" sketch:type="MSShapeGroup"></path>
                <path d="M522.392847,48.0595636 L0.0222553191,48.0595636 L0.0222553191,6.46026535 C0.0222553191,3.25620175 2.62960505,0.64929386 5.83506649,0.64929386 L516.57934,0.64929386 C519.784802,0.64929386 522.392847,3.25620175 522.392847,6.46026535 L522.392847,48.0595636 L522.392847,48.0595636 Z M2.80417021,45.2788618 L519.610932,45.2788618 L519.610932,6.46026535 C519.610932,4.7890636 518.251271,3.43069079 516.57934,3.43069079 L5.83506649,3.43069079 C4.16383112,3.43069079 2.80417021,4.7890636 2.80417021,6.46026535 L2.80417021,45.2788618 L2.80417021,45.2788618 Z" id="Fill-4" fill="#AFBAB9" sketch:type="MSShapeGroup"></path>
                <path d="M30.8368311,24.3540811 C30.8368311,28.9172127 27.1341024,32.6162412 22.5661981,32.6162412 C17.9982939,32.6162412 14.2955652,28.9172127 14.2955652,24.3540811 C14.2955652,19.7916447 17.9982939,16.0919211 22.5661981,16.0919211 C27.1341024,16.0919211 30.8368311,19.7916447 30.8368311,24.3540811" id="Fill-5" fill="#FFFFFF" sketch:type="MSShapeGroup"></path>
                <path d="M22.5661981,34.0065921 C17.2388311,34.0065921 12.9046077,29.6763443 12.9046077,24.3540811 C12.9046077,19.031818 17.2388311,14.7015702 22.5661981,14.7015702 C27.8935652,14.7015702 32.2277886,19.031818 32.2277886,24.3540811 C32.2277886,29.6763443 27.8935652,34.0065921 22.5661981,34.0065921 L22.5661981,34.0065921 Z M22.5661981,17.4822719 C18.7723617,17.4822719 15.6865226,20.565375 15.6865226,24.3540811 C15.6865226,28.1427873 18.7723617,31.2258904 22.5661981,31.2258904 C26.3593391,31.2258904 29.4458737,28.1427873 29.4458737,24.3540811 C29.4458737,20.565375 26.3593391,17.4822719 22.5661981,17.4822719 L22.5661981,17.4822719 Z" id="Fill-6" fill="#AFBAB9" sketch:type="MSShapeGroup"></path>
                <path d="M57.6614455,24.3540811 C57.6614455,28.9172127 53.9580213,32.6162412 49.3908125,32.6162412 C44.8229082,32.6162412 41.119484,28.9172127 41.119484,24.3540811 C41.119484,19.7916447 44.8229082,16.0919211 49.3908125,16.0919211 C53.9580213,16.0919211 57.6614455,19.7916447 57.6614455,24.3540811" id="Fill-7" fill="#FFFFFF" sketch:type="MSShapeGroup"></path>
                <path d="M49.3908125,34.0065921 C44.06275,34.0065921 39.7285266,29.6763443 39.7285266,24.3540811 C39.7285266,19.031818 44.06275,14.7015702 49.3908125,14.7015702 C54.7181795,14.7015702 59.0524029,19.031818 59.0524029,24.3540811 C59.0524029,29.6763443 54.7181795,34.0065921 49.3908125,34.0065921 L49.3908125,34.0065921 Z M49.3908125,17.4822719 C45.5969761,17.4822719 42.5104415,20.565375 42.5104415,24.3540811 C42.5104415,28.1427873 45.5969761,31.2258904 49.3908125,31.2258904 C53.1839535,31.2258904 56.270488,28.1427873 56.270488,24.3540811 C56.270488,20.565375 53.1839535,17.4822719 49.3908125,17.4822719 L49.3908125,17.4822719 Z" id="Fill-8" fill="#AFBAB9" sketch:type="MSShapeGroup"></path>
                <path d="M84.4860598,24.3540811 C84.4860598,28.9172127 80.7826356,32.6162412 76.2147314,32.6162412 C71.6468271,32.6162412 67.9440984,28.9172127 67.9440984,24.3540811 C67.9440984,19.7916447 71.6468271,16.0919211 76.2147314,16.0919211 C80.7826356,16.0919211 84.4860598,19.7916447 84.4860598,24.3540811" id="Fill-9" fill="#FFFFFF" sketch:type="MSShapeGroup"></path>
                <path d="M76.2147314,34.0065921 C70.8873644,34.0065921 66.553141,29.6763443 66.553141,24.3540811 C66.553141,19.031818 70.8873644,14.7015702 76.2147314,14.7015702 C81.5427939,14.7015702 85.8770173,19.031818 85.8770173,24.3540811 C85.8770173,29.6763443 81.5427939,34.0065921 76.2147314,34.0065921 L76.2147314,34.0065921 Z M76.2147314,17.4822719 C72.4215904,17.4822719 69.3350559,20.565375 69.3350559,24.3540811 C69.3350559,28.1427873 72.4215904,31.2258904 76.2147314,31.2258904 C80.0085678,31.2258904 83.0951024,28.1427873 83.0951024,24.3540811 C83.0951024,20.565375 80.0085678,17.4822719 76.2147314,17.4822719 L76.2147314,17.4822719 Z" id="Fill-10" fill="#AFBAB9" sketch:type="MSShapeGroup"></path>
                <path d="M207.356286,97.0430154 L129.89943,97.0430154 C129.455019,97.0430154 129.095456,96.6829145 129.095456,96.2386974 L129.095456,86.4200395 C129.095456,85.9758224 129.455019,85.6164167 129.89943,85.6164167 L207.356286,85.6164167 C207.800001,85.6164167 208.160259,85.9758224 208.160259,86.4200395 L208.160259,96.2386974 C208.160259,96.6829145 207.800001,97.0430154 207.356286,97.0430154" id="Fill-11" fill="#AFBCBE" sketch:type="MSShapeGroup"></path>
                <path d="M291.669867,110.0998 L129.896648,110.0998 C129.454323,110.0998 129.095456,109.74109 129.095456,109.298263 L129.095456,102.710086 C129.095456,102.267954 129.454323,101.909243 129.896648,101.909243 L291.669867,101.909243 C292.112887,101.909243 292.471754,102.267954 292.471754,102.710086 L292.471754,109.298263 C292.471754,109.74109 292.112887,110.0998 291.669867,110.0998" id="Fill-12" fill="#DFE0DC" sketch:type="MSShapeGroup"></path>
                <path d="M291.498084,123.156586 L130.069126,123.156586 C129.531521,123.156586 129.095456,122.721406 129.095456,122.184035 L129.095456,115.939274 C129.095456,115.402599 129.531521,114.966724 130.069126,114.966724 L291.498084,114.966724 C292.035689,114.966724 292.471754,115.402599 292.471754,115.939274 L292.471754,122.184035 C292.471754,122.721406 292.035689,123.156586 291.498084,123.156586" id="Fill-13" fill="#DFE0DC" sketch:type="MSShapeGroup"></path>
                <path d="M495.384626,107.182844 L421.946941,107.182844 C421.517136,107.182844 421.168701,106.835257 421.168701,106.405638 L421.168701,99.7701886 C421.168701,99.3405702 421.517136,98.9922873 421.946941,98.9922873 L495.384626,98.9922873 C495.814432,98.9922873 496.162867,99.3405702 496.162867,99.7701886 L496.162867,106.405638 C496.162867,106.835257 495.814432,107.182844 495.384626,107.182844" id="Fill-14" fill="#DFE0DC" sketch:type="MSShapeGroup"></path>
                <path d="M495.381149,93.8069737 L421.950419,93.8069737 C421.519222,93.8069737 421.168701,93.4573004 421.168701,93.0255965 L421.168701,86.3977939 C421.168701,85.9660899 421.519222,85.6164167 421.950419,85.6164167 L495.381149,85.6164167 C495.812346,85.6164167 496.162867,85.9660899 496.162867,86.3977939 L496.162867,93.0255965 C496.162867,93.4573004 495.812346,93.8069737 495.381149,93.8069737" id="Fill-15" fill="#DFE0DC" sketch:type="MSShapeGroup"></path>
                <path d="M495.365153,120.240325 L421.966415,120.240325 C421.526177,120.240325 421.168701,119.883004 421.168701,119.442958 L421.168701,112.847134 C421.168701,112.407088 421.526177,112.049768 421.966415,112.049768 L495.365153,112.049768 C495.805391,112.049768 496.162867,112.407088 496.162867,112.847134 L496.162867,119.442958 C496.162867,119.883004 495.805391,120.240325 495.365153,120.240325" id="Fill-16" fill="#DFE0DC" sketch:type="MSShapeGroup"></path>
                <path d="M150.101,192.754075 L73.2985891,192.754075 C72.6740492,192.754075 72.1677407,192.247292 72.1677407,191.623024 L72.1677407,182.458526 C72.1677407,181.834259 72.6740492,181.328171 73.2985891,181.328171 L150.101,181.328171 C150.72554,181.328171 151.232544,181.834259 151.232544,182.458526 L151.232544,191.623024 C151.232544,192.247292 150.72554,192.754075 150.101,192.754075" id="Fill-17" fill="#AFBCBE" sketch:type="MSShapeGroup"></path>
                <path d="M495.031323,205.81086 L73.2985891,205.81086 C72.6740492,205.81086 72.1677407,205.304772 72.1677407,204.679809 L72.1677407,198.751353 C72.1677407,198.127086 72.6740492,197.620303 73.2985891,197.620303 L495.031323,197.620303 C495.655863,197.620303 496.162867,198.127086 496.162867,198.751353 L496.162867,204.679809 C496.162867,205.304772 495.655863,205.81086 495.031323,205.81086" id="Fill-18" fill="#DFE0DC" sketch:type="MSShapeGroup"></path>
                <path d="M495.031323,218.86834 L73.2985891,218.86834 C72.6740492,218.86834 72.1677407,218.362252 72.1677407,217.737289 L72.1677407,211.808833 C72.1677407,211.184566 72.6740492,210.677783 73.2985891,210.677783 L495.031323,210.677783 C495.655863,210.677783 496.162867,211.184566 496.162867,211.808833 L496.162867,217.737289 C496.162867,218.362252 495.655863,218.86834 495.031323,218.86834" id="Fill-19" fill="#DFE0DC" sketch:type="MSShapeGroup"></path>
                <path d="M58.8075944,200.176463 C58.8075944,210.586715 50.3644827,219.02545 39.9503843,219.02545 C29.5355904,219.02545 21.0931742,210.586715 21.0931742,200.176463 C21.0931742,189.766906 29.5355904,181.328171 39.9503843,181.328171 C50.3644827,181.328171 58.8075944,189.766906 58.8075944,200.176463" id="Fill-20" fill="#DE4243" sketch:type="MSShapeGroup"></path>
                <path d="M45.3146117,199.891441 L32.9357859,187.965011 C32.8307686,187.863515 32.6659402,187.855173 32.5518816,187.945546 C32.4364322,188.035224 32.4253045,188.282706 32.4976343,188.409923 L38.6790492,199.277601 L34.5326051,200.276568 C34.4275878,200.301594 34.3239614,200.295338 34.2968378,200.398919 C34.2683231,200.503195 34.289883,200.570627 34.3684721,200.645011 L46.8481423,212.394866 C46.9225585,212.465079 47.0227074,212.478982 47.1159016,212.456042 C47.1576303,212.446309 47.1951862,212.421978 47.2299601,212.394171 C47.3440186,212.302408 47.3857473,212.190485 47.3106356,212.065353 L40.9803883,201.5112 L45.2054215,200.494158 C45.3097434,200.469132 45.3792912,200.335658 45.4071104,200.232077 C45.435625,200.129191 45.3918098,199.965129 45.3146117,199.891441" id="Fill-21" fill="#F0AFAF" sketch:type="MSShapeGroup"></path>
                <path d="M66.044746,109.8405 C59.2972114,109.8405 53.8084934,103.349647 53.8084934,95.3718136 C53.8084934,87.3939803 59.2972114,80.902432 66.044746,80.902432 C72.7915851,80.902432 78.2809987,87.3939803 78.2809987,95.3718136 C78.2809987,103.349647 72.7915851,109.8405 66.044746,109.8405 L66.044746,109.8405 Z M66.044746,82.9879583 C60.4482287,82.9879583 55.8949295,88.5438004 55.8949295,95.3718136 C55.8949295,102.200522 60.4482287,107.754974 66.044746,107.754974 C71.6412633,107.754974 76.1945625,102.200522 76.1945625,95.3718136 C76.1945625,88.5438004 71.6412633,82.9879583 66.044746,82.9879583 L66.044746,82.9879583 Z" id="Fill-22" fill="#FFFFFF" sketch:type="MSShapeGroup"></path>
                <path d="M88.8022008,131.612004 L43.2872912,131.612004 L43.2872912,130.569241 C43.2872912,120.595559 46.5476955,119.097456 47.3196769,118.884037 L58.1635811,115.407465 L59.1031729,112.994511 L61.0477314,113.750862 L59.7478816,117.089094 L47.853109,120.902827 C47.6882806,120.9932 45.5712434,122.220184 45.386246,129.526478 L86.703246,129.526478 C86.5105984,121.843399 84.2057819,120.893094 84.1814402,120.883362 L72.3416104,117.089094 L71.1126995,113.933693 L73.057258,113.177342 L73.9252154,115.407465 L84.7635559,118.881257 C85.5577926,119.093285 88.8022008,120.575399 88.8022008,130.569241 L88.8022008,131.612004" id="Fill-23" fill="#FFFFFF" sketch:type="MSShapeGroup"></path>
                <path d="M72.3902939,93.5233421 C72.0801104,93.5233421 71.8040053,93.475375 71.5529375,93.3815263 C70.6008271,93.0249013 70.3191582,92.1719211 70.1320745,91.6074386 C70.0778271,91.442682 69.9867194,91.1666974 69.9255173,91.1034364 C69.9282992,91.1006557 69.8990891,91.0964846 69.8232819,91.0964846 C69.6215931,91.0964846 69.0867699,91.161136 67.9364481,91.6852982 C60.8043138,94.9352434 54.782859,90.317193 54.5297048,90.1197632 L55.8149495,88.4763684 C56.0291569,88.6418202 61.1138019,92.5035197 67.0712726,89.7874693 C68.7772819,89.009568 69.9206489,88.8302127 70.7802606,89.2049123 C71.6628231,89.5907346 71.9340598,90.4110417 72.1134934,90.9532785 C72.1705226,91.1249868 72.2560665,91.3849825 72.3151822,91.4489386 C72.3617793,91.4565855 73.1233285,91.6401118 76.5812487,89.5935154 L77.6446356,91.3884583 C75.1673404,92.8538882 73.5461795,93.5233421 72.3902939,93.5233421" id="Fill-24" fill="#FFFFFF" sketch:type="MSShapeGroup"></path>
                <path d="M33.1423431,123.309524 L51.0947354,116.624717 L52.5705412,111.601379 C54.8078963,112.889539 57.3053604,113.631987 59.9509614,113.631987 C62.7001888,113.631987 65.2908471,112.834621 67.5928816,111.451221 L69.0881609,116.624717 L87.0405532,123.309524 C87.0405532,123.310219 88.0990718,123.552836 89.2222699,125.313715 C95.3570878,118.427307 99.0897221,109.355268 99.0897221,99.4086974 C99.0897221,77.879114 81.6297287,60.4274298 60.0914481,60.4274298 C38.5531676,60.4274298 21.0931742,77.879114 21.0931742,99.4086974 C21.0931742,109.361524 24.8299814,118.437735 30.9710585,125.326228 C32.0900838,123.568825 33.1423431,123.309524 33.1423431,123.309524 L33.1423431,123.309524 Z M59.9509614,73.0038487 C66.1775824,73.0038487 71.5515465,77.4209934 74.0816981,83.7888004 C69.5812553,86.6244211 68.5679428,86.3838904 68.4914402,86.3595592 C68.3940731,86.2629298 68.2598457,85.8270548 68.1791702,85.5649737 C67.9378391,84.7787303 67.5713218,83.5892851 66.3424109,83.0581711 C65.1726157,82.5479123 63.6300439,82.8238969 61.3440053,83.9438246 C54.2689003,87.4071886 48.0944402,83.5315855 46.4600652,82.3400548 C49.1926011,76.7626623 54.2090891,73.0038487 59.9509614,73.0038487 L59.9509614,73.0038487 Z M45.3987646,84.928193 C47.9859455,86.6522281 54.7724269,90.2031842 62.547879,86.4012697 C64.084887,85.6476996 64.8047074,85.5448136 65.0877673,85.5448136 C65.2310359,85.5448136 65.2414681,85.5594123 65.242859,85.5594123 C65.3437035,85.653261 65.4814082,86.1023443 65.5641702,86.3685965 C65.8159335,87.1861228 66.1956649,88.4214496 67.5205519,88.9094627 C67.8467314,89.0297281 68.203512,89.0909035 68.5999348,89.0909035 C70.0465306,89.0909035 72.0321223,88.256693 74.9566104,86.4631404 C75.3926755,88.2010789 75.6326157,90.0412083 75.6326157,91.9494649 C75.6326157,100.296436 71.1363457,107.386531 64.9208524,109.905151 C63.3567207,110.537761 61.6896582,110.896471 59.9509614,110.896471 C58.054391,110.896471 56.2426689,110.466158 54.5582194,109.718149 C48.5645838,107.052151 44.2693072,100.105263 44.2693072,91.9494649 C44.2693072,89.4676886 44.6775532,87.1013114 45.3987646,84.928193 L45.3987646,84.928193 Z" id="Fill-25" fill="#609BC7" sketch:type="MSShapeGroup"></path>
                <path d="M60.0914481,138.389965 C71.6781237,138.389965 82.0797035,133.333954 89.2222699,125.313715 C88.0990718,123.552836 87.0405532,123.309524 87.0405532,123.309524 L69.0881609,116.624717 L67.5928816,111.451221 C65.2908471,112.834621 62.7001888,113.631987 59.9509614,113.631987 C57.3053604,113.631987 54.8078963,112.889539 52.5705412,111.601379 L51.0947354,116.624717 L33.1423431,123.309524 C33.1423431,123.310219 32.0900838,123.568825 30.9710585,125.326228 C38.113625,133.33882 48.5103364,138.389965 60.0914481,138.389965" id="Fill-26" fill="#7EBBDB" sketch:type="MSShapeGroup"></path>
                <path d="M54.5582194,109.718149 C56.2426689,110.466158 58.054391,110.896471 59.9509614,110.896471 C61.6896582,110.896471 63.3567207,110.537761 64.9208524,109.905151 C71.1363457,107.386531 75.6326157,100.296436 75.6326157,91.9494649 C75.6326157,90.0412083 75.3926755,88.2010789 74.9566104,86.4631404 C72.0321223,88.256693 70.0465306,89.0909035 68.5999348,89.0909035 C68.203512,89.0909035 67.8467314,89.0297281 67.5205519,88.9094627 C66.1956649,88.4214496 65.8159335,87.1861228 65.5641702,86.3685965 C65.4814082,86.1023443 65.3437035,85.653261 65.242859,85.5594123 C65.2414681,85.5594123 65.2310359,85.5448136 65.0877673,85.5448136 C64.8047074,85.5448136 64.084887,85.6476996 62.547879,86.4012697 C54.7724269,90.2031842 47.9859455,86.6522281 45.3987646,84.928193 C44.6775532,87.1013114 44.2693072,89.4676886 44.2693072,91.9494649 C44.2693072,100.105263 48.5645838,107.052151 54.5582194,109.718149" id="Fill-27" fill="#7EBBDB" sketch:type="MSShapeGroup"></path>
                <path d="M61.3440053,83.9438246 C63.6300439,82.8238969 65.1726157,82.5479123 66.3424109,83.0581711 C67.5713218,83.5892851 67.9378391,84.7787303 68.1791702,85.5649737 C68.2598457,85.8270548 68.3940731,86.2629298 68.4914402,86.3595592 C68.5679428,86.3838904 69.5812553,86.6244211 74.0816981,83.7888004 C71.5515465,77.4209934 66.1775824,73.0038487 59.9509614,73.0038487 C54.2090891,73.0038487 49.1926011,76.7626623 46.4600652,82.3400548 C48.0944402,83.5315855 54.2689003,87.4071886 61.3440053,83.9438246" id="Fill-28" fill="#7EBBDB" sketch:type="MSShapeGroup"></path>
                <path d="M150.101,259.649417 L73.2985891,259.649417 C72.6740492,259.649417 72.1677407,259.142634 72.1677407,258.518366 L72.1677407,249.353868 C72.1677407,248.729601 72.6740492,248.222818 73.2985891,248.222818 L150.101,248.222818 C150.72554,248.222818 151.232544,248.729601 151.232544,249.353868 L151.232544,258.518366 C151.232544,259.142634 150.72554,259.649417 150.101,259.649417" id="Fill-29" fill="#AFBCBE" sketch:type="MSShapeGroup"></path>
                <path d="M495.031323,272.706897 L73.2985891,272.706897 C72.6740492,272.706897 72.1677407,272.200114 72.1677407,271.575846 L72.1677407,265.646695 C72.1677407,265.021732 72.6740492,264.515645 73.2985891,264.515645 L495.031323,264.515645 C495.655863,264.515645 496.162867,265.021732 496.162867,265.646695 L496.162867,271.575846 C496.162867,272.200114 495.655863,272.706897 495.031323,272.706897" id="Fill-30" fill="#DFE0DC" sketch:type="MSShapeGroup"></path>
                <path d="M495.031323,285.763682 L73.2985891,285.763682 C72.6740492,285.763682 72.1677407,285.257594 72.1677407,284.632632 L72.1677407,278.704175 C72.1677407,278.079213 72.6740492,277.573125 73.2985891,277.573125 L495.031323,277.573125 C495.655863,277.573125 496.162867,278.079213 496.162867,278.704175 L496.162867,284.632632 C496.162867,285.257594 495.655863,285.763682 495.031323,285.763682" id="Fill-31" fill="#DFE0DC" sketch:type="MSShapeGroup"></path>
                <path d="M26.8030545,278.900215 L35.5612181,275.638452 L36.2810386,273.187958 C37.3729402,273.816397 38.5907234,274.178583 39.8815319,274.178583 C41.2231104,274.178583 42.4867952,273.789285 43.6099934,273.114965 L44.3395505,275.638452 L53.0970186,278.900215 C53.0970186,278.900215 53.6137593,279.018395 54.1617965,279.877632 C57.1544415,276.517849 58.9752048,272.092362 58.9752048,267.240037 C58.9752048,256.737327 50.4576769,248.222818 39.9503843,248.222818 C29.4430918,248.222818 20.9248684,256.737327 20.9248684,267.240037 C20.9248684,272.095838 22.7477181,276.52341 25.7438404,279.883888 C26.2897912,279.026737 26.8030545,278.900215 26.8030545,278.900215 L26.8030545,278.900215 Z M39.8815319,254.358436 C42.919383,254.358436 45.5413378,256.51348 46.7758125,259.620219 C44.5794907,261.003618 44.0857008,260.886134 44.0481449,260.874316 C44.0008524,260.827044 43.9347819,260.61432 43.8958351,260.487103 C43.7782992,260.102671 43.5995612,259.522895 42.999363,259.262899 C42.4290705,259.014721 41.6765625,259.14889 40.5610146,259.695298 C37.1093537,261.38527 34.0979309,259.494393 33.3002168,258.912531 C34.6334495,256.192309 37.0808391,254.358436 39.8815319,254.358436 L39.8815319,254.358436 Z M32.7827806,260.175664 C34.044379,261.016827 37.3555532,262.749204 41.1486941,260.894476 C41.8984202,260.526728 42.249637,260.476675 42.3873418,260.476675 C42.4575851,260.476675 42.4631489,260.483627 42.4631489,260.483627 C42.5125279,260.529509 42.5799894,260.748489 42.6203271,260.878487 C42.7427314,261.277518 42.9284242,261.880235 43.5745239,262.117985 C43.7337886,262.176379 43.9076582,262.206967 44.1010013,262.206967 C44.8069122,262.206967 45.7757141,261.799594 47.202141,260.925064 C47.4149574,261.772482 47.5317979,262.670649 47.5317979,263.600794 C47.5317979,267.673132 45.338258,271.131629 42.3059707,272.3607 C41.5430306,272.669357 40.730016,272.843846 39.8815319,272.843846 C38.9565452,272.843846 38.0725918,272.634599 37.2512314,272.269632 C34.3267434,270.968958 32.231266,267.579283 32.231266,263.600794 C32.231266,262.390493 32.4301729,261.236502 32.7827806,260.175664 L32.7827806,260.175664 Z" id="Fill-32" fill="#609BC7" sketch:type="MSShapeGroup"></path>
                <path d="M39.9503843,286.257257 C45.6032354,286.257257 50.6774481,283.790079 54.1617965,279.877632 C53.6137593,279.018395 53.0970186,278.900215 53.0970186,278.900215 L44.3395505,275.638452 L43.6099934,273.114965 C42.4867952,273.789285 41.2231104,274.178583 39.8815319,274.178583 C38.5907234,274.178583 37.3729402,273.816397 36.2810386,273.187958 L35.5612181,275.638452 L26.8030545,278.900215 C26.8030545,278.900215 26.2897912,279.026737 25.7438404,279.883888 C29.2281888,283.79286 34.3003152,286.257257 39.9503843,286.257257" id="Fill-33" fill="#7EBBDB" sketch:type="MSShapeGroup"></path>
                <path d="M37.2512314,272.269632 C38.0725918,272.634599 38.9565452,272.843846 39.8815319,272.843846 C40.730016,272.843846 41.5430306,272.669357 42.3059707,272.3607 C45.338258,271.131629 47.5317979,267.673132 47.5317979,263.600794 C47.5317979,262.670649 47.4149574,261.772482 47.202141,260.925064 C45.7757141,261.799594 44.8069122,262.206967 44.1010013,262.206967 C43.9076582,262.206967 43.7337886,262.176379 43.5745239,262.117985 C42.9284242,261.880235 42.7427314,261.277518 42.6203271,260.878487 C42.5799894,260.748489 42.5125279,260.529509 42.4631489,260.483627 C42.4631489,260.483627 42.4575851,260.476675 42.3873418,260.476675 C42.249637,260.476675 41.8984202,260.526728 41.1486941,260.894476 C37.3555532,262.749204 34.044379,261.016827 32.7827806,260.175664 C32.4301729,261.236502 32.231266,262.390493 32.231266,263.600794 C32.231266,267.579283 34.3267434,270.968958 37.2512314,272.269632" id="Fill-34" fill="#7EBBDB" sketch:type="MSShapeGroup"></path>
                <path d="M40.5610146,259.695298 C41.6765625,259.14889 42.4290705,259.014721 42.999363,259.262899 C43.5995612,259.522895 43.7782992,260.102671 43.8958351,260.487103 C43.9347819,260.61432 44.0008524,260.827044 44.0481449,260.874316 C44.0857008,260.886134 44.5794907,261.003618 46.7758125,259.620219 C45.5413378,256.51348 42.919383,254.358436 39.8815319,254.358436 C37.0808391,254.358436 34.6334495,256.192309 33.3002168,258.912531 C34.0979309,259.494393 37.1093537,261.38527 40.5610146,259.695298" id="Fill-35" fill="#7EBBDB" sketch:type="MSShapeGroup"></path>
                <path d="M2.78330585,150.693875 L519.617887,150.693875 L519.617887,153.68452 L2.78330585,153.68452 L2.78330585,150.693875 Z" id="Fill-36" fill="#DFE0DC" sketch:type="MSShapeGroup"></path>
            </g>
        </g>
    </g>
</svg>