<?xml version="1.0" encoding="utf-8"?>
<!-- Generator: Adobe Illustrator 18.1.0, SVG Export Plug-In . SVG Version: 6.00 Build 0)  -->
<!DOCTYPE svg PUBLIC "-//W3C//DTD SVG 1.1//EN" "http://www.w3.org/Graphics/SVG/1.1/DTD/svg11.dtd">
<svg version="1.1" id="Layer_1" xmlns="http://www.w3.org/2000/svg" xmlns:xlink="http://www.w3.org/1999/xlink" x="0px" y="0px"
	 viewBox="0 0 661 500.7" enable-background="new 0 0 661 500.7" xml:space="preserve">
<path opacity="0.2" fill="#B5C0C3" d="M577.1,460.6H41.6c-5.1,0-9.2-4.1-9.2-9.2V84.4c0-5.1,4.1-9.2,9.2-9.2h535.4
	c5.1,0,9.2,4.1,9.2,9.2v367.1C586.2,456.5,582.1,460.6,577.1,460.6z"/>
<g>
	<path fill="#FFFFFF" stroke="#B5C0C3" stroke-width="3" stroke-miterlimit="10" d="M562.8,107.7v325.2c0,3.3-2.7,5.9-5.9,5.9H14.4
		c-3.3,0-5.9-2.7-5.9-5.9V107.7"/>
	<path fill="#E0E2E2" stroke="#B5C0C3" stroke-width="3" stroke-miterlimit="10" d="M562.8,107.7H8.4V59.5c0-3.7,3-6.8,6.8-6.8
		h540.9c3.7,0,6.8,3,6.8,6.8v48.2H562.8z"/>
	<g>
		<ellipse fill="#FFFFFF" stroke="#B5C0C3" stroke-width="3" stroke-miterlimit="10" cx="34.5" cy="80.2" rx="10.2" ry="10.2"/>
		<ellipse fill="#FFFFFF" stroke="#B5C0C3" stroke-width="3" stroke-miterlimit="10" cx="67.5" cy="80.2" rx="10.2" ry="10.2"/>
		<ellipse fill="#FFFFFF" stroke="#B5C0C3" stroke-width="3" stroke-miterlimit="10" cx="100.5" cy="80.2" rx="10.2" ry="10.2"/>
	</g>
	<g>
		<path fill="#B5C2C9" d="M261.8,163.6h-94.9c-0.6,0-1.3-0.5-1.3-1.3v-11.6c0-0.6,0.5-1.3,1.3-1.3h94.9c0.6,0,1.3,0.5,1.3,1.3v11.6
			C263,163,262.4,163.6,261.8,163.6z"/>
		<path fill="#E0E2E2" d="M365.5,179.7H166.9c-0.6,0-1.3-0.5-1.3-1.3v-7.6c0-0.6,0.5-1.3,1.3-1.3h198.7c0.6,0,1.3,0.5,1.3,1.3v7.6
			C366.8,179.1,366.3,179.7,365.5,179.7z"/>
		<path fill="#E0E2E2" d="M365.3,195.7H167.2c-0.8,0-1.5-0.6-1.5-1.5v-7.1c0-0.8,0.6-1.5,1.5-1.5h198.1c0.8,0,1.5,0.6,1.5,1.5v7.1
			C366.8,195.1,366.1,195.7,365.3,195.7z"/>
	</g>
	<g>
		<path fill="#E0E2E2" d="M531.1,182.2h-89.9c-0.6,0-1.2-0.5-1.2-1.2v-7.8c0-0.6,0.5-1.2,1.2-1.2h89.9c0.6,0,1.2,0.5,1.2,1.2v7.8
			C532.2,181.7,531.7,182.2,531.1,182.2z"/>
		<path fill="#E0E2E2" d="M531.1,165.8h-89.9c-0.6,0-1.2-0.5-1.2-1.2v-7.8c0-0.6,0.5-1.2,1.2-1.2h89.9c0.6,0,1.2,0.5,1.2,1.2v7.8
			C532.2,165.2,531.7,165.8,531.1,165.8z"/>
		<path fill="#E0E2E2" d="M531.1,198.3h-89.9c-0.6,0-1.2-0.5-1.2-1.2v-7.6c0-0.6,0.5-1.2,1.2-1.2h89.9c0.6,0,1.2,0.5,1.2,1.2v7.6
			C532.2,197.7,531.7,198.3,531.1,198.3z"/>
	</g>
	<g>
		<g>
			<path fill="#B5C2C9" d="M191.2,287.6H97.3c-1,0-1.7-0.7-1.7-1.7v-10.6c0-1,0.7-1.7,1.7-1.7h93.9c1,0,1.7,0.7,1.7,1.7v10.6
				C192.9,286.8,192.1,287.6,191.2,287.6z"/>
			<path fill="#E0E2E2" d="M530.5,303.7H97.3c-1,0-1.7-0.7-1.7-1.7v-6.6c0-1,0.7-1.7,1.7-1.7h433.2c1,0,1.7,0.7,1.7,1.7v6.6
				C532.2,303,531.5,303.7,530.5,303.7z"/>
			<path fill="#E0E2E2" d="M530.5,319.7H97.3c-1,0-1.7-0.7-1.7-1.7v-6.6c0-1,0.7-1.7,1.7-1.7h433.2c1,0,1.7,0.7,1.7,1.7v6.6
				C532.2,319,531.5,319.7,530.5,319.7z"/>
		</g>
		<g>
			<circle fill="#FDE792" cx="55.9" cy="296.7" r="23.3"/>
			<path fill="#FFC609" d="M62.5,296.4l-15.3-14.7c-0.1-0.1-0.3-0.1-0.4,0c-0.1,0.1-0.1,0.4-0.1,0.5l7.6,13.4l-5.1,1.3
				c-0.1,0-0.2,0-0.3,0.1c0,0.1,0,0.2,0.1,0.3l15.4,14.4c0.1,0.1,0.2,0.1,0.3,0.1c0,0,0.1,0,0.1-0.1c0.1-0.1,0.2-0.2,0.1-0.4
				l-7.8-13l5.2-1.3c0.1,0,0.2-0.2,0.2-0.3S62.6,296.5,62.5,296.4z"/>
		</g>
	</g>
	<g>
		<g>
			<g>
				<g>
					<path fill="#62A5DA" d="M47.5,202.1l22.1-8.3l1.8-6.2c2.8,1.6,5.8,2.5,9.1,2.5c3.4,0,6.6-1,9.4-2.7l1.8,6.4l22.1,8.3
						c0,0,1.3,0.3,2.7,2.4c7.5-8.5,12.1-19.6,12.1-31.9c0-26.5-21.4-48-48-48s-48,21.4-48,48c0,12.2,4.6,23.5,12.2,32
						C46.2,202.4,47.5,202.1,47.5,202.1z M80.5,140.1c7.6,0,14.2,5.4,17.4,13.3c-5.5,3.5-6.8,3.2-6.9,3.2c-0.1-0.1-0.3-0.6-0.4-1
						c-0.3-1-0.7-2.4-2.2-3.1c-1.5-0.6-3.3-0.3-6.2,1.1c-8.7,4.2-16.4-0.5-18.4-2C67.3,144.7,73.4,140.1,80.5,140.1z M62.6,154.8
						c3.2,2.1,11.6,6.5,21.1,1.8c1.9-1,2.8-1.1,3.1-1.1c0.2,0,0.2,0,0.2,0c0.1,0.1,0.3,0.6,0.4,1c0.3,1,0.7,2.5,2.4,3.1
						c0.4,0.1,0.8,0.2,1.4,0.2c1.8,0,4.2-1.1,7.9-3.2c0.5,2.1,0.8,4.5,0.8,6.8c0,10.3-5.5,19-13.2,22.1c-1.9,0.7-3.9,1.2-6.2,1.2
						c-2.3,0-4.6-0.5-6.7-1.5c-7.3-3.3-12.6-11.9-12.6-21.9C61.2,160.4,61.7,157.5,62.6,154.8z"/>
				</g>
			</g>
			<g>
				<path fill="#7FC2EB" d="M80.8,220.7c14.2,0,27.1-6.3,35.9-16.1c-1.4-2.1-2.7-2.4-2.7-2.4l-22.1-8.3l-1.8-6.4
					c-2.9,1.7-6.1,2.7-9.4,2.7c-3.3,0-6.4-1-9.1-2.5l-1.8,6.2L47.6,202c0,0-1.3,0.3-2.7,2.4C53.7,214.4,66.4,220.7,80.8,220.7z"/>
			</g>
			<g>
				<path fill="#7FC2EB" d="M73.9,185.3c2.1,1,4.4,1.5,6.7,1.5c2.1,0,4.1-0.4,6.2-1.2c7.6-3.1,13.2-11.8,13.2-22.1
					c0-2.3-0.3-4.6-0.8-6.8c-3.6,2.2-6.1,3.2-7.9,3.2c-0.5,0-1-0.1-1.4-0.2c-1.6-0.6-2.1-2.1-2.4-3.1c-0.1-0.3-0.3-0.8-0.4-1
					c0,0,0,0-0.2,0c-0.3,0-1.3,0.1-3.1,1.1c-9.6,4.7-17.9,0.3-21.1-1.8c-0.8,2.7-1.4,5.6-1.4,8.6C61.2,173.5,66.5,182,73.9,185.3z"
					/>
			</g>
			<g>
				<path fill="#7FC2EB" d="M82.2,153.6c2.8-1.4,4.7-1.7,6.2-1.1c1.5,0.6,1.9,2.1,2.2,3.1c0.1,0.3,0.2,0.8,0.4,1
					c0.1,0,1.4,0.3,6.9-3.2c-3.1-7.9-9.8-13.3-17.4-13.3c-7.1,0-13.3,4.7-16.6,11.5C65.9,153.1,73.5,157.8,82.2,153.6z"/>
			</g>
		</g>
	</g>
	<g>
		<g>
			<path fill="#B5C2C9" d="M191.2,370H97.3c-1,0-1.7-0.7-1.7-1.7v-10.6c0-1,0.7-1.7,1.7-1.7h93.9c1,0,1.7,0.7,1.7,1.7v10.6
				C192.9,369.2,192.1,370,191.2,370z"/>
			<path fill="#E0E2E2" d="M530.5,386.1H97.3c-1,0-1.7-0.7-1.7-1.7v-6.6c0-1,0.7-1.7,1.7-1.7h433.2c1,0,1.7,0.7,1.7,1.7v6.6
				C532.2,385.2,531.5,386.1,530.5,386.1z"/>
			<path fill="#E0E2E2" d="M530.5,402.1H97.3c-1,0-1.7-0.7-1.7-1.7v-6.6c0-1,0.7-1.7,1.7-1.7h433.2c1,0,1.7,0.7,1.7,1.7v6.6
				C532.2,401.4,531.5,402.1,530.5,402.1z"/>
		</g>
		<g>
			<g>
				<g>
					<g>
						<path fill="#62A5DA" d="M39.8,393.7l10.8-4l0.8-3c1.4,0.7,2.9,1.2,4.5,1.2c1.7,0,3.2-0.5,4.6-1.3l0.8,3.1l10.8,4
							c0,0,0.6,0.1,1.3,1.2c3.7-4.1,5.9-9.6,5.9-15.6c0-13-10.5-23.5-23.5-23.5s-23.5,10.5-23.5,23.5c0,5.9,2.2,11.5,5.9,15.6
							C39.1,393.8,39.8,393.7,39.8,393.7z M55.8,363.5c3.7,0,7,2.7,8.5,6.5c-2.7,1.7-3.3,1.6-3.4,1.6c-0.1-0.1-0.1-0.3-0.2-0.4
							c-0.1-0.4-0.3-1.2-1.1-1.5c-0.7-0.3-1.6-0.1-3,0.5c-4.2,2.1-8-0.2-8.9-1C49.3,365.7,52.4,363.5,55.8,363.5z M47.1,370.6
							c1.6,1.1,5.6,3.2,10.3,0.8c1-0.4,1.4-0.5,1.5-0.5c0.1,0,0.1,0,0.1,0c0.1,0.1,0.1,0.3,0.2,0.5c0.1,0.5,0.4,1.3,1.2,1.5
							c0.2,0.1,0.4,0.1,0.6,0.1c0.8,0,2-0.5,3.8-1.6c0.2,1.1,0.4,2.1,0.4,3.3c0,5-2.7,9.2-6.5,10.8c-1,0.4-1.9,0.6-3,0.6
							c-1.2,0-2.2-0.2-3.3-0.7c-3.6-1.6-6.2-5.7-6.2-10.7C46.5,373.4,46.7,372,47.1,370.6z"/>
					</g>
				</g>
				<g>
					<path fill="#7FC2EB" d="M55.9,402.8c7,0,13.2-3.1,17.5-7.9c-0.6-1.1-1.3-1.2-1.3-1.2l-10.8-4l-0.8-3.1c-1.4,0.8-3,1.3-4.6,1.3
						s-3.1-0.4-4.5-1.2l-0.8,3l-10.8,4c0,0-0.6,0.1-1.3,1.2C42.7,399.7,49,402.8,55.9,402.8z"/>
				</g>
				<g>
					<path fill="#7FC2EB" d="M52.6,385.6c1.1,0.4,2.1,0.7,3.3,0.7c1.1,0,2-0.2,3-0.6c3.7-1.5,6.5-5.7,6.5-10.8
						c0-1.2-0.1-2.2-0.4-3.3c-1.8,1.1-3,1.6-3.8,1.6c-0.2,0-0.4,0-0.6-0.1c-0.7-0.3-1.1-1.1-1.2-1.5c0-0.2-0.1-0.4-0.2-0.5
						c0,0,0,0-0.1,0c-0.2,0-0.6,0.1-1.5,0.5c-4.7,2.3-8.7,0.1-10.3-0.8c-0.4,1.3-0.6,2.8-0.6,4.2C46.5,379.7,49,384,52.6,385.6z"/>
				</g>
				<g>
					<path fill="#7FC2EB" d="M56.7,370.1c1.4-0.6,2.3-0.8,3-0.5c0.7,0.3,1,1.1,1.1,1.5c0,0.1,0.1,0.4,0.2,0.4c0,0,0.6,0.1,3.4-1.6
						c-1.5-3.8-4.8-6.5-8.5-6.5c-3.4,0-6.5,2.2-8.1,5.6C48.7,369.8,52.4,372.1,56.7,370.1z"/>
				</g>
			</g>
		</g>
	</g>
	<rect x="10.1" y="235.8" fill="#E0E2E2" width="551" height="3.7"/>
</g>
</svg>
