<?xml version="1.0" encoding="utf-8"?>
<!-- Generator: Adobe Illustrator 18.1.1, SVG Export Plug-In . SVG Version: 6.00 Build 0)  -->
<svg version="1.0" id="Layer_1" xmlns="http://www.w3.org/2000/svg" xmlns:xlink="http://www.w3.org/1999/xlink" x="0px" y="0px"
	 viewBox="0 0 350 220" enable-background="new 0 0 350 220" xml:space="preserve">
<g>
	<g>
		<path fill="#FFFFFF" d="M107.7,92.7V98h0.3c9.6-5.8,19.5-6.3,25.5-6.3c16,0,21.5,4.6,23.5,6.3c3.7-2.1,11.7-6.3,25.3-6.3
			c27.2,0,27.2,10.7,27.2,15.1v25.3h-21.9v-22.6c0-4.7,0-9.9-11.7-9.9c-5.8,0-11.7,1.8-13.8,4.3c-1.9,2.2-2.7,4.2-2.7,9.1v19h-21.9
			v-21.7c0-6.7,0.2-10.7-11.4-10.7c-5.8,0-11.7,1.5-13.9,3.8c-1.8,1.8-2.9,3.6-2.9,9.4v19.2H87.3V92.7H107.7z"/>
		<path fill="#FFFFFF" d="M262.5,101.4h-15.9v15.8c0,5.6,0,7.4,6.5,7.4c3.1,0,5.8-0.4,8.7-0.9l0.7-0.1l2,8
			c-7.7,1.4-16.1,1.6-18.5,1.6c-7.2,0-16.4-1.1-19.9-4c-2.9-2.4-3.3-4.8-3.3-10.8v-17.1h-10.8v-8.3h10.8v-7.8l23.6-6.1v13.9h15.9
			V101.4z"/>
		<path fill="#FFFFFF" d="M76.6,154.5c-8.7-13.2-14.5-28.8-14.5-44.6c0-18.6,7.3-33.7,14.7-44.4h8.8c-6.5,14.5-11,26.8-11,44.8
			c0,20.6,7.3,36.4,10.6,43.6c0.1,0.1,0.3,0.5,0.3,0.6H76.6z"/>
		<path fill="#FFFFFF" d="M273.7,65.8c8.7,13.2,14.5,28.8,14.5,44.6c0,18.6-7.3,33.7-14.7,44.4h-8.8c6.5-14.5,11-26.8,11-44.8
			c0-20.6-7.3-36.4-10.6-43.6c-0.1-0.1-0.3-0.5-0.3-0.6H273.7z"/>
	</g>
	<g>
		<path fill="#FFFFFF" d="M89.7,142.4h2.6v1.2h0.1c0.9-0.7,2.6-1.3,5.1-1.3c2.4,0,4.1,0.5,4.8,1.5c0.6-0.4,2.1-1.5,5.2-1.5
			c5.2,0,5.2,2.2,5.2,2.8v5.7h-2.9v-5.2c0-0.8,0-2-3-2c-1.2,0-2.7,0.3-3.4,0.9c-0.5,0.5-0.8,1-0.8,1.6v4.8h-2.9v-5.4
			c0-0.8-0.2-1.9-3-1.9c-1.5,0-3,0.4-3.5,1c-0.6,0.7-0.7,1.3-0.7,2v4.3h-2.9V142.4z"/>
		<path fill="#FFFFFF" d="M117.5,145.8c0.2-1.1,1.6-2.4,4.8-2.4c2.1,0,3.7,0.6,4.3,1.3c0.3,0.4,0.4,0.8,0.5,1.1H117.5 M126.9,148
			c-0.4,0.5-1.2,1.7-4.5,1.7c-2.5,0-4.9-0.8-5.1-2.8H130c0.3-4.5-6.2-4.7-7.7-4.7c-5.1,0-7.9,1.9-7.9,4.4c0,2.6,2.8,4.3,8.1,4.3
			c4.2,0,6.5-1.1,7.4-2.7L126.9,148z"/>
		<path fill="#FFFFFF" d="M133.7,146.6c0-0.6,0.2-3.2,4.5-3.2c3.5,0,4.6,1.7,4.6,3.3c0,2.8-3.6,3.1-4.5,3.1
			C136.7,149.7,133.7,149.2,133.7,146.6 M142.8,150.7h2.7v-11.5h-2.9v4.1h-0.1c-0.9-0.7-2.5-1.1-4.6-1.1c-4.2,0-7.1,1.6-7.1,4.3
			c0,2.7,3.3,4.3,7.3,4.3c0.6,0,3.1,0,4.7-1.3h0.1V150.7z"/>
		<path fill="#FFFFFF" d="M148.3,142.4h2.9v8.3h-2.9V142.4 M148.3,139.2h2.9v1.6h-2.9V139.2z"/>
		<path fill="#FFFFFF" d="M164.7,147.1c0,0.7-0.1,1.3-1.3,2c-1.3,0.7-3.3,0.8-4.1,0.8c-2.6,0-3.4-0.7-3.4-1.3c0-1.1,2.3-1.3,4-1.4
			c1.5-0.1,3.6-0.3,4.7-0.5V147.1 M156.2,145c0.4-0.7,0.8-1.6,4.4-1.6c4.2,0,4.2,1.2,4.1,2.1c-1.6,0.3-4.7,0.4-5.1,0.5
			c-1.9,0.1-6.6,0.4-6.6,2.6c0,1.4,2.1,2.4,5.8,2.4c1.8,0,3.8-0.2,6.2-1.2c0.1,0.2,0.1,0.6,0.6,1h3c-0.9-0.8-0.9-1.3-0.9-3.5v-1.9
			c0-1.4,0-3.1-6.5-3.1c-6.5,0-7.3,1.8-7.6,2.6L156.2,145z"/>
		<path fill="#FFFFFF" d="M178.3,144.2h-3v3.4c0,1.2,0,1.6,1.2,1.6c0.6,0,1.1-0.1,1.7-0.2l0.1,0l0.4,1.7c-1.5,0.3-3.1,0.3-3.5,0.3
			c-1.4,0-3.1-0.2-3.8-0.9c-0.6-0.5-0.6-1-0.6-2.3v-3.6h-2.1v-1.7h2.1v-1.6l4.5-1.3v2.9h3V144.2z"/>
		<path fill="#FFFFFF" d="M182.7,145.8c0-1.1,1.2-1.9,3.4-1.9c0.7,0,3.2,0.1,3.3,1.9H182.7 M189.1,148.1c-0.2,0.4-0.8,1.1-2.8,1.1
			c-2.5,0-3.6-1-3.7-2h11.2c0.1-2.5-1.7-5-8-5c-5.3,0-7.8,2.2-7.8,4.4c0,0.7,0.3,1.5,1,2.3c1.8,1.9,5.7,2,7.2,2c5.6,0,7-1.9,7.4-2.5
			L189.1,148.1z"/>
		<path fill="#FFFFFF" d="M199.1,142.4v1.1h0.1c2-1.2,4-1.3,5.2-1.3c3.3,0,4.4,1,4.8,1.3c0.8-0.4,2.4-1.3,5.1-1.3
			c5.5,0,5.5,2.3,5.5,3.2v5.3h-4.5V146c0-1,0-2.1-2.4-2.1c-1.2,0-2.4,0.4-2.8,0.9c-0.4,0.5-0.6,0.9-0.6,1.9v4h-4.5v-4.5
			c0-1.4,0-2.3-2.3-2.3c-1.2,0-2.4,0.3-2.8,0.8c-0.4,0.4-0.6,0.8-0.6,2v4H195v-8.3H199.1z"/>
		<path fill="#FFFFFF" d="M226.4,146.8c0-1.2,0.4-1.8,1.5-2.3c0.8-0.4,1.8-0.5,2.4-0.5c1.5,0,3.6,0.5,3.6,2.6c0,0.9-0.4,2.7-3.7,2.7
			C228.1,149.2,226.4,148.4,226.4,146.8 M222,142.4v11.4h4.5v-4.1c0.6,0.4,2.2,1.2,4.9,1.2c3.8,0,7.1-1.3,7.1-4.3
			c0-3-3.4-4.4-7.1-4.4c-1,0-3.5,0.2-5.2,1.4h-0.1v-1.2H222z"/>
		<rect x="239.9" y="139.2" fill="#FFFFFF" width="4.5" height="11.5"/>
		<path fill="#FFFFFF" d="M250.3,145.8c0-1.1,1.2-1.9,3.4-1.9c0.7,0,3.2,0.1,3.3,1.9H250.3 M256.7,148.1c-0.2,0.4-0.8,1.1-2.8,1.1
			c-2.5,0-3.6-1-3.7-2h11.2c0.1-2.5-1.7-5-8-5c-5.3,0-7.8,2.2-7.8,4.4c0,0.7,0.3,1.5,1,2.3c1.8,1.9,5.7,2,7.2,2c5.6,0,7-1.9,7.4-2.5
			L256.7,148.1z"/>
		<g>
			<polygon fill="#FFFFFF" points="227.9,152.4 227.4,152.4 227.4,152.1 228.8,152.1 228.8,152.4 228.2,152.4 228.2,153.8 
				227.9,153.8 			"/>
			<polygon fill="#FFFFFF" points="229,152.1 229.5,152.1 229.8,153.2 229.8,153.2 230.1,152.1 230.7,152.1 230.7,153.8 
				230.3,153.8 230.3,152.5 230.3,152.5 230,153.8 229.7,153.8 229.3,152.5 229.3,152.5 229.3,153.8 229,153.8 			"/>
		</g>
	</g>
</g>
</svg>
