<?xml version="1.0" encoding="utf-8"?>
<!-- Generator: Adobe Illustrator 18.1.1, SVG Export Plug-In . SVG Version: 6.00 Build 0)  -->
<svg version="1.1" id="Layer_1" xmlns="http://www.w3.org/2000/svg" xmlns:xlink="http://www.w3.org/1999/xlink" x="0px" y="0px"
	 viewBox="0 0 350 220" enable-background="new 0 0 350 220" xml:space="preserve">
<g transform="translate(62.000000, 44.000000)" sketch:type="MSShapeGroup">
	<path id="Fill-1" fill="#FFFFFF" d="M15.3,70.5l21.5,10.3l-21.5-33l-21.5,33L15.3,70.5L15.3,70.5z M-7.9,84.8h46.4L15.3,75
		L-7.9,84.8L-7.9,84.8z"/>
	<path id="Fill-2" fill="#FFFFFF" d="M15.3,70.5V47.8l-21.5,33L15.3,70.5L15.3,70.5z M-7.9,84.8h23.2l0-9.8L-7.9,84.8L-7.9,84.8z"/>
	<path id="Fill-3" fill="#FFFFFF" d="M40.4,78c0.8,0,1.5,0.7,1.5,1.5c0,0.8-0.7,1.5-1.5,1.5c-0.8,0-1.5-0.7-1.5-1.5
		C38.9,78.7,39.6,78,40.4,78L40.4,78z M40.4,80.8c0.7,0,1.3-0.6,1.3-1.3c0-0.7-0.6-1.3-1.3-1.3c-0.7,0-1.3,0.6-1.3,1.3
		C39.1,80.2,39.7,80.8,40.4,80.8L40.4,80.8z M40.1,80.4h-0.2v-1.8h0.7c0.4,0,0.6,0.2,0.6,0.5c0,0.3-0.2,0.5-0.4,0.5l0.5,0.8h-0.3
		l-0.5-0.8h-0.3V80.4L40.1,80.4z M40.1,79.4h0.3c0.2,0,0.5,0,0.5-0.3c0-0.2-0.2-0.3-0.4-0.3h-0.4V79.4L40.1,79.4z"/>
	<path id="Fill-4" fill="#FFFFFF" d="M56.7,80.8h10.4c10.7,0,17.1-5.5,17.1-14.7c0-9.2-6.4-14.7-17.1-14.7H56.7V80.8L56.7,80.8z
		 M63.3,56.5h3.8c7,0,10.4,3.4,10.4,9.6c0,6.2-3.5,9.6-10.4,9.6h-3.8V56.5L63.3,56.5z"/>
	<path id="Fill-5" fill="#FFFFFF" d="M106.6,68.1h12.5V63h-12.5v-6.5h14.2v-5.1H100v29.5h21.3v-5.1h-14.6V68.1"/>
	<path id="Fill-6" fill="#FFFFFF" d="M158.9,75.7h-12.7V51.4h-6.6v29.5h19.3V75.7"/>
	<path id="Fill-7" fill="#FFFFFF" d="M194.5,51.4H168v5.1h9.9v24.3h6.6V56.5h9.9V51.4"/>
	<path id="Fill-8" fill="#FFFFFF" d="M232.9,80.8H226l-2.9-7.4h-12l-2.9,7.4h-6.5l12.4-29.6v0h6.7L232.9,80.8L232.9,80.8z
		 M221.2,68.5l-4.1-10.5l-4.1,10.5H221.2L221.2,68.5z"/>
</g>
</svg>
