<?xml version="1.0" encoding="utf-8"?>
<!-- Generator: Adobe Illustrator 18.1.0, SVG Export Plug-In . SVG Version: 6.00 Build 0)  -->
<!DOCTYPE svg PUBLIC "-//W3C//DTD SVG 1.1//EN" "http://www.w3.org/Graphics/SVG/1.1/DTD/svg11.dtd">
<svg version="1.1" id="Layer_1" xmlns="http://www.w3.org/2000/svg" xmlns:xlink="http://www.w3.org/1999/xlink" x="0px" y="0px"
	 viewBox="0 0 113.6 80.6" enable-background="new 0 0 113.6 80.6" xml:space="preserve">
<path fill="#FFFFFF" d="M40.5,37l-0.6,1.8h0.9l0.6-1.6c0.3,0.1,0.7,0.1,1,0.1c2.3,0,3.7-0.9,4.6-2.1c0.8-1.2,1-2.6,1-3.6
	c0-2.3-1.3-4.1-3.2-4.7l0.7-2h-0.9L44,26.7c-0.3-0.1-0.7-0.1-1.1-0.1c-3.5,0-5.5,2.5-5.5,5.7C37.4,34.5,38.4,36.3,40.5,37z
	 M44.4,28.1c1.2,1,1.6,2.6,1.6,4.1c0,2.4-0.8,4.3-3.3,4.3c-0.4,0-0.8-0.1-1.1-0.2L44.4,28.1z M42.4,27.4c0.4,0,0.9,0.1,1.2,0.3
	l-2.8,8.2c-1.1-1-1.6-3-1.6-4.4C39.3,29.4,40,27.5,42.4,27.4z M81.6,34.8c0-0.3-0.1-0.4-0.2-0.4c-0.4,0-0.4,0.5-0.9,1
	c-0.5,0.5-1.3,0.9-3.1,0.9c-0.9,0-0.9-0.3-0.9-1.1c0-0.1,0-0.2,0-0.3v-6.8c0-0.5,0.2-0.6,0.5-0.7c0.2-0.1,0.6-0.1,0.6-0.4
	c0-0.1,0-0.2-0.1-0.2c-0.1,0-0.2,0-0.3,0c-0.2,0-0.4,0.1-1.6,0.1c-0.5,0-1.4-0.1-2-0.1c-0.3,0-0.5,0.1-0.5,0.3
	c0,0.3,0.5,0.3,0.9,0.5c0.4,0.1,0.8,0.3,0.8,0.9v6.9c0,0.9-0.3,1.1-0.5,1.2c-0.1,0.1-0.3,0.1-0.4,0.1c-0.1,0.1-0.2,0.2-0.2,0.4
	c0,0.1,0.1,0.2,0.3,0.2c0.8,0,1.4-0.1,1.9-0.1c0.7,0,1.6,0.1,3.8,0.1C80.7,37.2,81.6,36,81.6,34.8z M58.4,31.4
	c1-0.4,1.5-1.2,1.5-2.1c0-0.2,0-0.8-0.5-1.4c-0.5-0.6-1.4-1.1-3.2-1.1c-1.2,0-2.5,0.1-3.7,0.1c-0.7,0-0.7-0.1-0.9-0.1c0,0,0,0,0,0
	c0,0-0.1,0-0.2,0c-0.1,0-0.1,0.1-0.1,0.2c0,0.2,0.1,0.3,0.3,0.4c0.5,0.2,1.2,0.1,1.3,1.5v6.4c0,0.7-0.3,0.9-0.6,1
	c-0.3,0.1-0.6,0.1-0.7,0.5c0,0.1,0.1,0.2,0.2,0.3c0.1,0,0.2,0,0.4,0c0.3,0,0.7-0.1,1-0.1c0.7,0,1.5,0.1,3.6,0.1
	c1.2,0,2.1-0.3,2.8-0.9c0.6-0.6,1-1.4,1-2.4C60.6,32.7,60,31.9,58.4,31.4z M54.8,28.9c0-0.8,0-1.3,1-1.3c1.3,0,2.3,0.9,2.3,2.2
	c0,1.1-0.4,1.6-1.5,1.6h-0.9c-0.8-0.1-0.9-0.1-0.9-0.8V28.9z M56.5,36.5c-1.4,0-1.7-0.4-1.7-1.7v-1.6c0-0.8,0-1,0.8-1.1
	c2.6,0,3,1.3,3,2.1C58.6,35.6,57.9,36.5,56.5,36.5z M93,34.8c0-0.3-0.1-0.4-0.2-0.4c-0.4,0-0.4,0.5-0.9,1c-0.5,0.5-1.3,0.9-3.1,0.9
	c-0.9,0-0.9-0.3-0.9-1.1c0-0.1,0-0.2,0-0.3v-1.9c0-0.1,0-0.2,0-0.3c0-0.6,0-0.6,0.5-0.6h1.1c0.7,0,1,0.4,1.1,0.7
	c0.2,0.4,0.1,0.8,0.5,0.8c0.3,0,0.3-0.3,0.3-0.5c0-0.1,0-0.2,0-0.3l-0.1-2.6c0-0.2,0-0.3-0.1-0.4c-0.1-0.1-0.1-0.1-0.2-0.1
	c0,0,0,0,0,0c-0.1,0-0.2,0.1-0.3,0.2c-0.2,0.4-0.4,1.1-1.3,1.1h-0.9c-0.3,0-0.4,0-0.5-0.1c-0.1-0.1-0.1-0.2-0.1-0.6v-2
	c0-0.5,0-0.7,0.2-0.8c0.2-0.1,0.7-0.1,1.5-0.1c1.4,0,1.8,0.4,1.9,0.8c0.1,0.2,0.1,0.4,0.1,0.6c0,0.2,0.1,0.3,0.3,0.3
	c0.3,0,0.3-0.3,0.3-0.5c0-0.1,0-0.2,0-0.3l-0.1-1.4c0-0.2-0.1-0.3-0.4-0.3c-1.3,0-2.3,0.1-3.3,0.1c-2.2,0-3.3-0.1-3.9-0.1
	c-0.2,0-0.4,0.1-0.4,0.3c0,0.4,0.5,0.4,0.9,0.5c0.4,0.1,0.8,0.3,0.8,0.9v6.8c0,0.9-0.3,1.1-0.5,1.2c-0.1,0.1-0.3,0.1-0.4,0.1
	c-0.1,0.1-0.2,0.2-0.2,0.4c0,0.1,0.1,0.2,0.3,0.2c0.8,0,1.4-0.1,1.9-0.1c0.7,0,1.6,0.1,3.8,0.1C92.1,37.2,93,36,93,34.8z M65.3,36.5
	c-0.2,0.1-0.5,0.2-0.6,0.5c0,0.1,0,0.2,0.2,0.2c0.4,0,1-0.1,1.6-0.1c1.1,0,1.7,0.1,2.2,0.1c0.2,0,0.3,0,0.4-0.1
	c0.1,0,0.1-0.1,0.1-0.2c0-0.2-0.2-0.2-0.3-0.3c-0.5-0.1-1.3,0-1.3-1.3v-6.9c0-0.7,0.2-0.8,0.5-0.9c0.1,0,0.3-0.1,0.4-0.1
	c0.1,0,0.2-0.1,0.2-0.3c0-0.1,0-0.2-0.1-0.2c-0.1,0-0.2,0-0.4,0c-0.8,0-1.4,0.1-1.9,0.1c-0.5,0-1.1-0.1-1.6-0.1c0,0-0.1,0-0.1,0
	c-0.2,0-0.4,0-0.4,0.3c0,0.3,0.5,0.3,0.9,0.5c0.4,0.1,0.8,0.3,0.8,1v7C65.8,36.1,65.6,36.4,65.3,36.5z M32.1,37.2
	c0.4,0,0.8,0.1,1.3,0.1c0.3,0,0.4,0,0.6,0c0.1,0,0.2-0.1,0.2-0.3c0-0.2-0.1-0.3-0.3-0.3c-0.4-0.2-1.1-0.1-1.2-1.5l-0.2-6.4
	c0,0,0-0.1,0-0.1c0-0.8,0.3-1,0.6-1.1c0.3-0.1,0.7-0.1,0.7-0.4c0-0.1,0-0.2-0.1-0.2c-0.1,0-0.2-0.1-0.4-0.1c-0.4,0-0.7,0.1-0.9,0.1
	c-0.2,0-0.5-0.1-0.8-0.1c-0.3,0-0.4,0.2-0.4,0.3l-3.4,7c0,0,0,0.1-0.1,0.2c0,0,0,0.1-0.1,0.1c0,0,0,0,0,0l0,0c0,0-0.1-0.1-0.1-0.2
	l-3.2-7c-0.2-0.4-0.4-0.5-0.5-0.5h0c-0.5,0-1,0.1-1.4,0.1c-0.5,0-0.7-0.1-0.9-0.1c-0.2,0-0.2,0.2-0.2,0.3c0,0.4,0.4,0.4,0.8,0.6
	c0.3,0.2,0.7,0.5,0.7,1.6c0,0.1,0,0.1,0,0.2l-0.2,5.9c0,0.7-0.3,1-0.6,1.2c-0.3,0.2-0.6,0.2-0.6,0.5c0,0.1,0.1,0.3,0.3,0.3
	c0.2,0,0.7-0.1,1.4-0.1c0.7,0,1,0.1,1.5,0.1c0.2,0,0.3,0,0.3-0.1C25,37.1,25,37,25,37c0,0,0,0,0-0.1c0-0.2-0.1-0.3-0.3-0.3
	c-0.4-0.1-1.2-0.1-1.2-1.7c0-0.1,0-0.1,0-0.2l0.1-4.1c0-0.1,0-0.1,0-0.2c0,0,0-0.1,0-0.1c0,0,0.1,0.1,0.1,0.2l2.8,6.3
	c0.1,0.1,0.1,0.4,0.4,0.4c0.3,0,0.4-0.3,0.4-0.4l2.8-5.7c0.1-0.2,0.2-0.4,0.3-0.6c0-0.1,0.1-0.1,0.1-0.1c0,0,0,0,0,0
	c0,0,0,0.1,0,0.1c0,0.1,0,0.3,0,0.4l0.2,4.4c0,0.1,0,0.1,0,0.2c0,0.7-0.2,0.9-0.5,1c-0.2,0.1-0.6,0.1-0.6,0.4c0,0.3,0.3,0.3,0.5,0.3
	c0.1,0,0.2,0,0.2,0C30.9,37.2,31.2,37.2,32.1,37.2z M94.6,47.1c-1.1-0.4-1.8-0.7-2.3-1c-0.5-0.3-0.7-0.5-0.7-1
	c0-0.9,0.7-1.5,1.7-1.5c1.3,0,2,0.7,2.5,1.3c0.2,0.3,0.4,0.7,0.5,0.9c0.1,0.2,0.2,0.4,0.4,0.5c0.2,0,0.3,0,0.3-0.1
	c0.1-0.1,0.1-0.2,0.1-0.3c0,0,0-0.1,0-0.2l-0.2-2c0-0.2,0-0.3,0-0.4c0-0.1-0.1-0.2-0.3-0.2c-0.2,0-0.6,0.2-0.8,0.2
	c-0.4,0-1.1-0.6-2.4-0.6c-1.9,0-3.2,1.3-3.2,3c0,1.6,1,2.2,2.3,2.7c1.3,0.5,2.1,0.8,2.7,1.1c0.6,0.3,0.8,0.6,0.8,1.2
	c0,1.1-0.9,1.8-2.1,1.8c-1.7,0-2.7-1.3-3.2-2.7c0-0.2-0.1-0.4-0.4-0.4c-0.1,0-0.2,0-0.3,0.1c-0.1,0.1-0.1,0.1-0.1,0.2
	c0,0.1,0.1,0.3,0.1,0.4l0.1,0l-0.1,0l0.5,2c0.1,0.3,0.1,0.5,0.5,0.6c0.9,0.2,1.7,0.5,2.7,0.5c2.1,0,3.6-1.3,3.6-3.3
	C97.4,48.4,96.3,47.7,94.6,47.1z M86.5,48.5c-0.5,0-1,0.1-1.6,0.1c-0.7,0-1.4-0.1-2-0.1c-0.1,0-0.2,0-0.3,0c-0.1,0-0.2,0-0.3,0.1
	c-0.1,0.1-0.2,0.2-0.2,0.3c0,0.2,0.2,0.3,0.3,0.3c0.5,0.1,1.4-0.1,1.4,1.6c0,0.8,0,2-2.6,2c-1.2,0-2-0.6-2.5-1.5
	c-0.5-0.9-0.8-2-0.8-3c0-3.7,1.9-4.5,3.2-4.5c1.9,0,2.8,0.8,3.3,1.6c0.3,0.4,0.4,0.8,0.5,1.1c0.1,0.1,0.1,0.3,0.1,0.4
	c0,0.1,0.1,0.2,0.2,0.2c0.1,0,0.2,0,0.3-0.1c0.1-0.1,0.1-0.2,0.1-0.3V44c0-0.2,0-0.6-0.3-0.6c-0.2,0-0.2,0.1-0.3,0.2
	c-0.1,0.1-0.1,0.2-0.3,0.2c-0.2,0-0.6-0.2-1.2-0.5c-0.6-0.2-1.4-0.5-2.4-0.5c-3.7,0-5.2,3.3-5.2,5.7c0,1.2,0.7,4.9,5,4.9
	c1.6,0,3.2-0.7,4.6-1.4c0.2-0.1,0.2-0.2,0.2-0.4c0-0.2,0-0.6,0-1.2c0-0.9,0.2-1.2,0.5-1.3c0.1-0.1,0.2-0.1,0.3-0.1
	c0.1,0,0.2-0.2,0.2-0.3C86.7,48.6,86.6,48.5,86.5,48.5z M72.7,43c-0.1,0-0.6,0.1-1.6,0.1c-1,0-1.4-0.1-1.7-0.1
	c-0.2,0-0.3,0.2-0.3,0.3c0,0.3,0.5,0.3,0.9,0.5c0.4,0.2,0.8,0.4,0.8,1l0,4.8c0,0.2,0,0.3,0,0.4c0,0,0,0.1,0,0.1l0,0
	c0,0-0.2-0.2-0.4-0.4l-5.9-6.4c-0.1-0.1-0.1-0.2-0.2-0.3C64.4,43,64.3,43,64,43c-0.8,0-1.2,0.1-1.5,0.1c-0.3,0-0.5-0.1-0.8-0.1
	c-0.2,0-0.3,0.2-0.3,0.3c0,0.2,0.1,0.3,0.3,0.4c0.5,0.2,1.3,0.1,1.3,2.2h0v5.5c0,0.7-0.3,1-0.7,1.2c-0.3,0.2-0.7,0.3-0.7,0.6
	c0,0.1,0,0.2,0.1,0.2c0.1,0,0.1,0,0.2,0c0.1,0,0.2,0,0.2,0c0.4,0,0.8-0.1,1.3-0.1c0.5,0,1,0.1,1.7,0.1h0.1c0.2,0,0.5,0,0.5-0.3
	c0-0.2-0.2-0.3-0.3-0.3c-0.5-0.2-1.5-0.1-1.5-2.1l0-4.9c0-0.1,0-0.1,0-0.1c0,0,0,0,0,0c0,0,0.1,0.1,0.2,0.2l7,7.6
	c0.1,0.1,0.2,0.2,0.4,0.2c0,0,0,0,0,0c0.1,0,0.2-0.1,0.2-0.1c0-0.1,0-0.2,0-0.4v-8.2c0-0.7,0.3-1,0.6-1.2c0.3-0.2,0.6-0.2,0.7-0.5
	c0,0,0-0.1-0.1-0.2C72.9,43.1,72.8,43,72.7,43z M49.2,53c-0.3-0.1-0.8-0.2-1.6-1.3l-2.8-3.7c-0.2-0.3-0.3-0.5-0.3-0.6
	c0-0.1,0.2-0.3,0.3-0.4l0-0.1l0,0l2.6-2.4c0.7-0.6,1.2-0.8,1.4-0.9c0.1,0,0.2-0.1,0.3-0.1c0.1,0,0.1-0.1,0.1-0.2
	c0-0.3-0.3-0.3-0.4-0.3h0c-0.6,0-1,0.1-1.4,0.1C47,43.1,46,43,45.9,43c-0.1,0-0.2,0-0.3,0c-0.1,0.1-0.1,0.2-0.1,0.3
	c0,0.2,0.3,0.3,0.5,0.3c0.2,0.1,0.4,0.1,0.4,0.3c0,0.6-1.4,1.8-1.8,2.2L42.6,48c-0.2,0.2-0.3,0.2-0.3,0.2c0,0,0,0,0,0l0,0
	c0,0,0-0.1,0-0.2c0,0,0-0.1,0-0.1v-3.3c0-0.8,0.2-0.9,0.5-1c0.1,0,0.3,0,0.4-0.1c0.1,0,0.2-0.1,0.2-0.3c0-0.1-0.1-0.2-0.1-0.2
	c-0.1,0-0.2,0-0.2,0c-0.3,0-1.2,0.1-2,0.1c-1,0-1.5-0.1-1.7-0.1c-0.1,0-0.2,0-0.2,0.1c-0.1,0-0.1,0.1-0.1,0.2c0,0.2,0.1,0.3,0.3,0.3
	c0.5,0.2,1.2,0,1.2,1.3v6.3c0,1.1-0.3,1.4-0.5,1.5c-0.1,0.1-0.3,0.1-0.4,0.1c-0.1,0-0.2,0.2-0.2,0.4c0,0.2,0.3,0.2,0.5,0.2
	c0.5,0,1.2-0.1,1.9-0.1c0.8,0,1.2,0.1,1.6,0.1c0.2,0,0.3,0,0.4,0c0.1,0,0.1-0.1,0.1-0.2c0-0.3-0.4-0.3-0.8-0.5
	c-0.3-0.1-0.7-0.3-0.7-0.9v-1.9c0-0.1,0-0.1,0-0.2c0-0.2,0-0.3,0.2-0.5c0.3-0.4,0.6-0.6,0.6-0.6c0,0,0,0,0.1,0.1
	c0.1,0.1,0.1,0.2,0.2,0.3l2.9,4c0.3,0.4,0.5,0.5,0.7,0.5c0,0,0,0,0,0c0.4,0,0.7-0.1,1-0.1c0.4,0,0.8,0.1,1.1,0.1
	c0.1,0,0.2,0,0.2-0.1c0-0.1,0-0.1,0-0.2C49.4,53.1,49.3,53,49.2,53z M35.4,52.9c-0.5-0.1-1.3,0-1.3-1.3v-6.9c0-0.7,0.2-0.8,0.5-0.9
	c0.1,0,0.3-0.1,0.4-0.1c0.1,0,0.2-0.1,0.2-0.3c0-0.1,0-0.2-0.1-0.2c-0.1,0-0.2,0-0.4,0c-0.8,0-1.4,0.1-1.9,0.1
	c-0.5,0-1.1-0.1-1.6-0.1c0,0-0.1,0-0.1,0c-0.2,0-0.4,0-0.4,0.3c0,0.3,0.5,0.3,0.9,0.5c0.4,0.1,0.8,0.3,0.8,1v7c0,0.7-0.2,0.9-0.5,1
	c-0.2,0.1-0.5,0.2-0.6,0.5c0,0.1,0,0.2,0.2,0.2c0.4,0,1-0.1,1.6-0.1c1.1,0,1.7,0.1,2.2,0.1c0.2,0,0.3,0,0.4-0.1
	c0.1,0,0.2-0.1,0.1-0.2C35.7,53,35.5,52.9,35.4,52.9z M27,43.1c-0.1,0-0.2,0-0.2,0c-0.1,0-0.1,0-0.2,0c-0.4,0-0.8,0.1-1.2,0.1
	c-0.4,0-0.8-0.1-1.3-0.1c0,0-0.1,0-0.2,0c-0.2,0-0.5,0-0.5,0.3c0,0.3,0.4,0.3,0.8,0.4c0.4,0.1,0.7,0.3,0.7,0.9c0,0.2,0,0.7-0.5,1.7
	l-2,4.4c0,0.1,0,0.1-0.1,0.2c0,0,0,0.1,0,0.1c0,0,0,0,0,0c0,0,0,0,0,0c0,0-0.1-0.2-0.1-0.3l-1.9-4.7c-0.4-0.9-0.5-1.6-0.5-2
	c0-0.3,0.2-0.3,0.4-0.4c0.2-0.1,0.5-0.1,0.5-0.4c0-0.1,0-0.2-0.1-0.3c-0.1,0-0.2,0-0.4,0c0,0-0.1,0-0.1,0c-0.2,0-0.7,0.1-1.6,0.1
	c-0.5,0-1-0.1-1.5-0.1c-0.1,0-0.2,0-0.3,0c-0.2,0-0.4,0.1-0.4,0.3c0,0.2,0.2,0.2,0.3,0.3c0.6,0.2,0.8,0.3,1,0.8l3.6,8.5
	c0.3,0.6,0.4,0.8,0.6,0.8h0c0.2,0,0.3-0.1,0.5-0.5h0l4-8.7c0.2-0.4,0.4-0.6,0.6-0.7c0.2-0.1,0.4-0.2,0.4-0.4
	C27.1,43.2,27.1,43.1,27,43.1z M57.5,52.9c-0.5-0.1-1.3,0-1.3-1.3v-6.9c0-0.7,0.2-0.8,0.5-0.9c0.1,0,0.3-0.1,0.4-0.1
	c0.1,0,0.2-0.1,0.2-0.3c0-0.1,0-0.2-0.1-0.2c-0.1,0-0.2,0-0.4,0c-0.8,0-1.4,0.1-1.9,0.1c-0.5,0-1.1-0.1-1.6-0.1c0,0-0.1,0-0.1,0
	c-0.2,0-0.4,0-0.4,0.3c0,0.3,0.5,0.3,0.9,0.5c0.4,0.1,0.8,0.3,0.8,1v7c0,0.7-0.2,0.9-0.5,1c-0.2,0.1-0.5,0.2-0.6,0.5
	c0,0.1,0,0.2,0.2,0.2c0.4,0,1-0.1,1.6-0.1c1.1,0,1.7,0.1,2.2,0.1c0.2,0,0.3,0,0.4-0.1c0.1,0,0.1-0.1,0.1-0.2
	C57.8,53,57.6,52.9,57.5,52.9z"/>
</svg>
