<?xml version="1.0" encoding="utf-8"?>
<!-- Generator: Adobe Illustrator 18.1.1, SVG Export Plug-In . SVG Version: 6.00 Build 0)  -->
<svg version="1.0" id="Layer_1" xmlns="http://www.w3.org/2000/svg" xmlns:xlink="http://www.w3.org/1999/xlink" x="0px" y="0px"
	 viewBox="0 0 350 220" enable-background="new 0 0 350 220" xml:space="preserve">
<g id="Welcome">
	<g id="Desktop-HD---Why-Us" transform="translate(-1006.000000, -1828.000000)">
		<g id="buffer" transform="translate(1006.000000, 1828.000000)">
			<g transform="translate(78.108541, 41.286744)">
				<path id="Fill-1" fill="#FFFFFF" d="M53.8,87.3v4.1h-8.5V46.2h8.5v16.6c0.3-0.3,0.6-0.7,0.9-0.9c2.9-3.1,6.5-4.3,10.7-4
					c3.2,0.3,5.9,1.4,8.2,3.7c2.1,2,3.4,4.6,4.2,7.4c0.7,2.6,0.9,5.1,0.7,7.8c-0.1,2.7-0.7,5.3-2,7.8c-2.2,4.3-5.6,6.9-10.4,7.6
					c-4.9,0.7-8.9-0.9-12-4.7c-0.1-0.1-0.1-0.1-0.1-0.1C53.8,87.3,53.8,87.3,53.8,87.3L53.8,87.3z M53.8,75.1c0,1.8,0,3.5,0,5.3
					c0,0.3,0.1,0.6,0.3,0.9c2.5,2.6,5.5,3.7,9.1,3.1c2.9-0.5,4.7-2.4,5.7-5.1c0.9-2.3,0.9-4.7,0.4-7.2c-0.4-1.9-1.3-3.6-2.9-4.9
					c-2-1.7-4.4-2-6.9-1.6c-2.2,0.5-4.1,1.5-5.5,3.3c-0.1,0.2-0.2,0.5-0.2,0.7C53.8,71.5,53.8,73.3,53.8,75.1L53.8,75.1z"/>
				<path id="Fill-2" fill="#FFFFFF" d="M167.4,77.7c0.1,0.5,0.2,1.1,0.3,1.5c1.2,3.3,3.5,5.5,7,5.9c4,0.6,7.6-0.5,10.8-3
					c0,0,0.1,0,0.1-0.1c1.2,1.8,2.5,3.7,3.8,5.5c-0.8,0.7-1.6,1.3-2.5,1.8c-2.1,1.2-4.4,1.9-6.8,2.4c-2,0.3-4.1,0.5-6.1,0.3
					c-5.9-0.6-10.6-3.2-13.6-8.5c-1.2-2.1-1.8-4.4-2-6.8c-0.2-2.8,0-5.6,1.1-8.3c2.3-5.8,6.6-9.4,12.7-10.4c4.6-0.8,8.9,0,12.7,2.8
					c2.8,2.1,4.7,4.9,5.7,8.3c0.7,2.2,1,4.5,1,6.8c0,0.6,0,1.2,0,1.8L167.4,77.7L167.4,77.7z M183.4,71.9c0-0.3-0.1-0.5-0.1-0.7
					c-0.3-1.9-1.1-3.5-2.6-4.7c-2.4-1.9-5.1-2.2-7.9-1.4c-2.8,0.8-4.3,2.8-5.2,5.4c-0.1,0.5-0.2,1-0.3,1.4H183.4L183.4,71.9z"/>
				<path id="Fill-3" fill="#FFFFFF" d="M104.3,58.7h8.6v32.7h-8.6v-4c-0.6,0.5-1.1,1-1.6,1.4c-2.2,1.7-4.5,2.9-7.3,3.2
					c-2.2,0.3-4.4,0.3-6.6-0.3c-3.4-0.9-5.5-3.1-6.2-6.5c-0.3-1-0.3-2-0.4-3.1c0-7.7,0-15.4,0-23.1v-0.5h8.6v0.5c0,6.4,0,12.7,0,19
					c0,0.9,0.1,1.8,0.3,2.8c0.4,2,1.8,3,3.7,3.4c3,0.7,5.6,0,7.9-1.9c0.5-0.4,0.9-0.9,1.3-1.2c0.2-0.2,0.3-0.4,0.3-0.7
					c0-7.1,0-14.2,0-21.3L104.3,58.7"/>
				<path id="Fill-4" fill="#FFFFFF" d="M158.1,58.6v7.6h-6.6v25.2h-8.7V66.2h-5.4v-7.5h5.4c0-0.8,0-1.5,0-2.2
					c0.1-2.2,0.5-4.3,1.7-6.2c1.5-2.3,3.6-3.8,6.3-4.4c3-0.7,6-0.4,8.8,0.7c1,0.4,1.8,1,2.6,1.8c0.1,0.1,0.2,0.2,0.1,0.4
					c-1.1,1.6-2,3.2-3.1,4.8c0,0-0.1,0-0.1,0.1c-0.5-0.5-1.2-0.9-2-1.1c-0.9-0.3-1.9-0.3-2.8-0.1c-1.6,0.4-2.6,1.6-2.8,3.4
					c-0.1,0.9-0.1,1.8-0.1,2.8L158.1,58.6"/>
				<path id="Fill-5" fill="#FFFFFF" d="M140.3,48.6c-1.1,1.7-2.2,3.3-3.2,5c-0.5-0.3-1.1-0.7-1.6-0.9c-1.1-0.5-2.2-0.5-3.2-0.2
					c-1.2,0.3-2.2,1.2-2.6,2.4c-0.4,1.2-0.3,2.5-0.3,3.8h6.6v7.5h-6.6v25.2h-8.7V66.2h-5.4v-7.5h5.4c0-0.2,0-0.3,0-0.5
					c0-1.4,0-2.9,0.3-4.4c0.9-4.3,4.2-7.6,8.6-8.1c2.6-0.4,5.3-0.1,7.8,0.9C138.4,46.9,139.4,47.6,140.3,48.6"/>
				<path id="Fill-6" fill="#FFFFFF" d="M2.7,45.2c0.6-0.1,1.1,0.1,1.6,0.3c6.9,3.2,13.8,6.4,20.7,9.7c0.2,0.1,0.4,0.2,0.5,0.3
					c0.3,0.3,0.3,0.6,0,0.9c-0.1,0.1-0.3,0.2-0.5,0.3c-7,3.2-13.9,6.5-20.8,9.7c-1,0.5-2,0.5-3.1,0c-7-3.2-13.9-6.4-20.8-9.7
					c-0.1-0.1-0.1-0.1-0.2-0.1c-0.3-0.1-0.5-0.3-0.5-0.7c0-0.3,0.3-0.5,0.5-0.7c1.4-0.7,2.8-1.3,4.1-2c5.6-2.6,11.2-5.3,16.8-7.8
					c0.5-0.2,1-0.3,1.5-0.4C2.6,45.2,2.6,45.2,2.7,45.2"/>
				<path id="Fill-7" fill="#FFFFFF" d="M195.3,91.3V58.6h8.5V63c2.9-3.1,6.2-5.1,10.4-5.3v8.4c-0.9-0.1-1.7-0.1-2.6-0.1
					c-2.7,0.1-5.1,1.1-7.1,2.8l-0.1,0.1c-0.5,0.5-0.8,1-0.8,1.8c0.1,6.8,0,13.5,0,20.2v0.5L195.3,91.3"/>
				<path id="Fill-8" fill="#FFFFFF" d="M2.6,79.6c-0.5-0.1-1.1-0.3-1.6-0.5c-6.9-3.2-13.9-6.4-20.8-9.7c-0.1-0.1-0.2-0.1-0.3-0.2
					c-0.5-0.3-0.5-0.8,0-1.1c0.5-0.3,1.1-0.5,1.7-0.8c0.7-0.3,1.5-0.7,2.2-1.1c1.1-0.5,2.2-0.5,3.3,0c4.7,2.2,9.3,4.3,13.9,6.5
					c1,0.5,2,0.5,3,0c4.6-2.1,9.2-4.3,13.7-6.4c1.2-0.6,2.4-0.6,3.6,0c1.1,0.5,2.3,1.1,3.4,1.6c0.3,0.1,0.7,0.3,0.7,0.8
					c0,0.5-0.4,0.6-0.7,0.7c-6.9,3.2-13.7,6.4-20.6,9.6c-0.5,0.3-1.1,0.4-1.7,0.4C2.7,79.6,2.6,79.6,2.6,79.6"/>
				<path id="Fill-9" fill="#FFFFFF" d="M2.7,92.3c-0.6,0.1-1.1-0.1-1.6-0.3c-6.9-3.2-13.8-6.4-20.7-9.7c-0.2-0.1-0.4-0.2-0.5-0.3
					c-0.3-0.3-0.3-0.6,0-0.9c0.1-0.1,0.3-0.2,0.5-0.3c1.2-0.6,2.4-1.1,3.6-1.7c1.1-0.5,2.1-0.5,3.2,0c4.6,2.2,9.3,4.3,13.9,6.4
					c1.1,0.5,2.2,0.5,3.3,0c4.7-2.2,9.3-4.3,14-6.5c0.9-0.5,2-0.5,2.9,0c1.3,0.6,2.6,1.2,3.9,1.8c0.1,0.1,0.1,0.1,0.3,0.1
					c0.6,0.3,0.6,0.9,0,1.2c-0.6,0.3-1.1,0.5-1.7,0.8c-6.4,3-12.9,6-19.4,9.1C3.8,92.1,3.3,92.2,2.7,92.3
					C2.7,92.3,2.7,92.3,2.7,92.3"/>
			</g>
		</g>
	</g>
</g>
</svg>
