<?xml version="1.0" encoding="utf-8"?>
<!-- Generator: Adobe Illustrator 18.1.1, SVG Export Plug-In . SVG Version: 6.00 Build 0)  -->
<svg version="1.1" id="Layer_1" xmlns:sketch="http://www.bohemiancoding.com/sketch/ns"
	 xmlns="http://www.w3.org/2000/svg" xmlns:xlink="http://www.w3.org/1999/xlink" x="0px" y="0px" viewBox="-217 238 365 125"
	 enable-background="new -217 238 365 125" xml:space="preserve">
<title>lyft</title>
<desc>Created with Sketch.</desc>
<g id="Welcome" sketch:type="MSPage">
	<g id="Desktop-HD---Why-Us" transform="translate(-570.000000, -1164.000000)" sketch:type="MSArtboardGroup">
		<g id="lyft" transform="translate(570.000000, 1164.000000)" sketch:type="MSLayerGroup">
			<rect id="Rectangle-84" x="-217" y="238" sketch:type="MSShapeGroup" fill="#FFFFFF" width="365" height="125">
			</rect>
			<g transform="translate(128.000000, 30.000000)" sketch:type="MSShapeGroup">
				<path id="Fill-1" fill="#FFFFFF" d="M-176.5,276.7c0,2.8-0.5,4.1-2.5,4.1c-2.1,0-2.6-1.3-2.6-3.7v-22h-15.9v25.8
					c0,4.5,1.1,8.2,3.6,11.1c2.5,2.9,5.6,4.4,9.5,4.4c2.6,0,5.3-0.8,8-2.4c-1.5,5.8-4.9,8.6-10,8.6c-1.6,0-3.2-0.5-5.7-1.3
					c0,0-2.3-0.8-5.5-2.6V312c0,0,3.1,2,5.5,2.9c2.9,1.1,5.8,1.7,8.8,1.7c6.6,0,12.2-2.6,16.9-7.7c3.9-4.3,5.8-9.9,5.8-16.9v-36.9
					h-15.9V276.7"/>
				<path id="Fill-2" fill="#FFFFFF" d="M-197.5,292.4c-2.5-2.9-3.6-6.6-3.6-11.1v-25.8l0,0v-17.3H-217v17.3h0v25.8
					c0,4.5,1.1,8.2,3.6,11.1c2.5,2.9,5.6,4.4,9.5,4.4c0.9,0,1.8-0.1,2.8-0.3l0,0.1v-0.1c1.8-0.4,3.6-1.2,5.4-2.3l0,0
					C-196.3,293.6-196.9,293.1-197.5,292.4"/>
				<path id="Fill-3" fill="#FFFFFF" d="M-133.9,238L-133.9,238c13.9,1.1,17.6,10.4,18.6,16.7h6.2v16.8h-6.5c0,2.9,0.5,5.5,1.6,6.8
					c1,1.3,2.5,1.8,5.8,1.8v16.5c-0.7,0-1.4,0-1.8,0c-3.6,0-6.9-0.8-10-2.5c-3.1-1.7-5.7-3.9-7.6-6.7c-2.4-3.6-3.6-8.4-3.6-14.4
					v-16.3l0-0.3c-0.4-1.5-1.8-2-3.1-2.1c-0.1,0-0.2,0-0.4,0c0,0-0.1,0-0.1,0c-0.1,0-0.2,0-0.3,0c0,0,0,0,0,0c-1.9,0-3.4,0.7-4.5,2
					c-1.1,1.3-1.7,3.2-1.7,5.6v2h7v15.6h-7v6.1c0,0,0.5,10.8-15.5,10.8l0-36.6c-0.1-3.5,0.1-19.7,17.7-21.7
					C-139.2,238.1-136.6,237.8-133.9,238"/>
			</g>
		</g>
	</g>
</g>
</svg>
