<?xml version="1.0" encoding="utf-8"?>
<!-- Generator: Adobe Illustrator 18.1.1, SVG Export Plug-In . SVG Version: 6.00 Build 0)  -->
<svg version="1.0" id="Layer_1" xmlns="http://www.w3.org/2000/svg" xmlns:xlink="http://www.w3.org/1999/xlink" x="0px" y="0px"
	 viewBox="0 0 350 220" enable-background="new 0 0 350 220" xml:space="preserve">
<path fill="#FFFFFF" d="M137.7,105.3l-1.4,4.1h2l1.2-3.7c0.7,0.1,1.5,0.2,2.3,0.2c5.3,0,8.4-2,10.3-4.7
	c1.8-2.6,2.3-5.8,2.3-8.1c0-5.2-2.8-9.2-7.1-10.6l1.5-4.5h-2l-1.4,4.1c-0.8-0.1-1.6-0.2-2.5-0.2c-7.9,0.1-12.3,5.6-12.3,12.8
	C130.6,99.5,133,103.6,137.7,105.3L137.7,105.3z M146.4,85.1c2.7,2.2,3.6,5.8,3.6,9.3c0,5.4-1.8,9.7-7.3,9.8c-0.9,0-1.9-0.2-2.6-0.5
	L146.4,85.1L146.4,85.1z M142,83.6c0.9,0,2,0.2,2.8,0.6l-6.2,18.6c-2.6-2.3-3.6-6.7-3.6-9.9C135,88.1,136.6,83.7,142,83.6L142,83.6z
	 M230,100.3c0-0.6-0.3-0.9-0.5-0.9c-0.8,0.1-0.9,1.2-2,2.2c-1,1-2.9,2.1-6.9,2.1c-2.1,0-2-0.8-2.1-2.5c0-0.2,0-0.4,0-0.6V85.2
	c0-1.2,0.5-1.4,1.1-1.6c0.5-0.2,1.3-0.2,1.3-0.9c0-0.2-0.1-0.4-0.3-0.5c-0.2-0.1-0.4-0.1-0.7-0.1c-0.6,0-0.9,0.1-3.7,0.1
	c-1.2,0-3.1-0.1-4.5-0.1c-0.7,0-1.2,0.3-1.2,0.7c0.1,0.8,1.1,0.8,2,1.1c0.9,0.3,1.7,0.7,1.7,2v15.5c0,2-0.6,2.4-1.1,2.7
	c-0.3,0.1-0.6,0.2-0.9,0.3c-0.3,0.1-0.5,0.4-0.5,0.8c0,0.3,0.3,0.5,0.8,0.5c1.8,0,3.2-0.1,4.2-0.1c1.6,0,3.6,0.1,8.6,0.1
	C228,105.7,230,102.9,230,100.3L230,100.3z M177.8,92.6c2.1-0.8,3.3-2.6,3.3-4.6c0-0.4,0-1.9-1-3.2c-1-1.4-3.1-2.6-7.2-2.6
	c-2.8,0-5.5,0.1-8.3,0.1c-1.5,0-1.7-0.1-2-0.1c0,0,0,0-0.1,0c-0.1,0-0.3,0-0.4,0.1c-0.1,0.1-0.3,0.3-0.2,0.6c0,0.5,0.3,0.7,0.6,0.9
	c1.1,0.4,2.8,0.2,2.8,3.5v14.5c0,1.5-0.6,2-1.3,2.3c-0.6,0.3-1.4,0.3-1.5,1c0,0.3,0.1,0.5,0.4,0.6c0.2,0.1,0.5,0.1,0.9,0.1
	c0.7,0,1.6-0.1,2.3-0.1c1.6,0,3.3,0.1,8.2,0.1c2.7,0,4.8-0.7,6.3-2c1.5-1.3,2.2-3.1,2.2-5.3C182.8,95.5,181.5,93.6,177.8,92.6
	L177.8,92.6z M169.7,86.8c0-1.9,0-2.9,2.1-3c2.8,0,5.2,2,5.2,5c0,2.4-0.9,3.5-3.3,3.5h-2c-1.9-0.2-2-0.1-2.1-1.7V86.8L169.7,86.8z
	 M173.6,104.1c-3.1,0-3.8-0.8-3.9-3.9v-3.7c0-1.7,0-2.3,1.8-2.4c5.9,0,6.7,2.9,6.8,4.8C178.3,102,176.7,104.1,173.6,104.1
	L173.6,104.1z M255.7,100.3c0-0.7-0.3-0.9-0.5-0.9c-0.8,0.1-0.9,1.2-2,2.2c-1,1-2.9,2.1-6.9,2.1c-2.1,0-2-0.8-2.1-2.5
	c0-0.2,0-0.4,0-0.6v-4.2c0-0.3,0-0.5,0-0.8c0.1-1.3,0-1.3,1.2-1.4h2.4c1.6,0,2.2,0.8,2.5,1.6c0.3,0.8,0.3,1.8,1,1.8
	c0.6,0,0.8-0.6,0.8-1.1c0-0.3,0-0.5,0-0.7l-0.2-5.8c0-0.4-0.1-0.6-0.2-0.8c-0.1-0.2-0.3-0.2-0.4-0.2c0,0-0.1,0-0.1,0
	c-0.3,0-0.4,0.3-0.6,0.6c-0.5,0.9-1,2.5-3,2.5h-2.1c-0.7,0-1-0.1-1.1-0.2c-0.1-0.2-0.2-0.5-0.1-1.3v-4.6c0-1.1,0-1.6,0.5-1.9
	c0.5-0.3,1.5-0.3,3.5-0.3c3.1,0,4,0.9,4.3,1.8c0.2,0.5,0.2,0.9,0.3,1.3c0.1,0.4,0.3,0.7,0.7,0.7c0.6,0,0.7-0.6,0.7-1.1
	c0-0.2,0-0.5,0-0.6l-0.1-3.2c0-0.4-0.3-0.8-0.8-0.8c-2.9,0-5.1,0.1-7.5,0.1c-5,0-7.4-0.1-8.7-0.1c-0.5,0-0.9,0.3-0.9,0.7
	c0.1,0.9,1.1,0.9,2,1.1c0.9,0.3,1.7,0.7,1.7,2.1v15.4c0,2-0.6,2.4-1.1,2.7c-0.3,0.1-0.6,0.2-0.9,0.3c-0.3,0.1-0.5,0.4-0.5,0.8
	c0,0.3,0.3,0.5,0.8,0.5c1.8,0,3.2-0.1,4.2-0.1c1.6,0,3.6,0.1,8.6,0.1C253.8,105.7,255.7,102.9,255.7,100.3L255.7,100.3z M193.5,104
	c-0.5,0.3-1.2,0.4-1.3,1.1c0,0.2,0.1,0.5,0.5,0.5c0.9,0,2.3-0.1,3.7-0.1c2.5,0,3.8,0.1,5,0.1c0.4,0,0.7,0,0.9-0.1
	c0.2-0.1,0.3-0.3,0.3-0.5c0-0.4-0.4-0.5-0.7-0.6c-1.1-0.2-2.9-0.1-3-3V85.8c0-1.5,0.6-1.9,1.1-2.1c0.3-0.1,0.6-0.2,0.8-0.3
	c0.3-0.1,0.5-0.3,0.5-0.7c0-0.2-0.1-0.4-0.3-0.5c-0.2-0.1-0.5-0.1-1-0.1c-1.9,0-3.1,0.1-4.2,0.1c-1.1,0-2.4-0.1-3.7-0.1
	c-0.1,0-0.2,0-0.3,0c-0.3,0-0.9,0-0.9,0.6c0.1,0.8,1.1,0.8,2,1.1c0.9,0.3,1.7,0.7,1.7,2.2v15.8C194.6,103.2,194,103.7,193.5,104
	L193.5,104z M118.9,105.6c0.9,0,1.9,0.1,2.8,0.1c0.6,0,1,0,1.3-0.1c0.3-0.1,0.5-0.3,0.5-0.6c0-0.4-0.3-0.6-0.6-0.7
	c-0.9-0.3-2.5-0.2-2.6-3.4l-0.6-14.5c0-0.1,0-0.1,0-0.2c0-1.7,0.7-2.2,1.4-2.5c0.7-0.3,1.6-0.2,1.6-1c0-0.1,0-0.3-0.2-0.4
	c-0.2-0.1-0.4-0.1-0.9-0.1c-0.9,0-1.6,0.1-2.1,0.1c-0.5,0-1.1-0.1-1.9-0.1c-0.7,0-0.9,0.6-1,0.7l-7.6,15.9c0,0-0.1,0.2-0.2,0.4
	c0,0.1-0.1,0.1-0.1,0.2c0,0,0,0-0.1,0l0,0c0,0-0.2-0.1-0.3-0.4l-7.2-15.8c-0.4-0.9-0.9-1.1-1.2-1h-0.1c-1.1,0-2.3,0.1-3,0.1
	c-1,0-1.5-0.1-2-0.1c-0.4,0-0.5,0.3-0.5,0.6c0,0.9,1,0.8,1.7,1.3c0.8,0.4,1.6,1.2,1.6,3.6c0,0.1,0,0.3,0,0.4l-0.5,13.2
	c-0.1,1.7-0.7,2.3-1.4,2.6c-0.6,0.4-1.4,0.4-1.4,1.2c0,0.3,0.2,0.6,0.8,0.6c0.5,0,1.6-0.1,3.2-0.1c1.5,0,2.2,0.1,3.4,0.1
	c0.4,0,0.6-0.1,0.8-0.2c0.2-0.1,0.2-0.3,0.2-0.4c0-0.1,0-0.1,0-0.1c0-0.4-0.3-0.6-0.6-0.7c-1-0.3-2.7-0.2-2.8-3.9c0-0.1,0-0.3,0-0.4
	l0.3-9.2c0-0.1,0-0.3,0-0.5c0-0.1,0-0.1,0-0.2c0.1,0.1,0.2,0.3,0.2,0.5l6.3,14.1c0.2,0.3,0.3,1,1,1c0.7,0,0.8-0.6,1-1l6.2-13
	c0.2-0.5,0.5-1,0.6-1.3c0.1-0.1,0.2-0.3,0.2-0.3c0,0,0,0,0,0c0,0.1,0,0.2,0.1,0.3c0,0.2,0,0.6,0.1,1l0.5,9.9c0,0.1,0,0.3,0,0.4
	c0,1.6-0.5,2-1.1,2.3c-0.5,0.3-1.2,0.3-1.3,1c0,0.6,0.6,0.7,1.1,0.7c0.2,0,0.4,0,0.5,0C116,105.7,116.7,105.6,118.9,105.6
	L118.9,105.6z M259.4,127.9c-2.4-1-4-1.6-5.1-2.2c-1.1-0.6-1.5-1.2-1.5-2.2c0-2.1,1.5-3.3,3.8-3.3c3,0,4.6,1.5,5.6,3
	c0.5,0.7,0.8,1.5,1.1,2.1c0.3,0.6,0.4,1,0.8,1c0.3,0,0.6-0.1,0.8-0.3c0.2-0.2,0.2-0.4,0.2-0.7c0-0.1,0-0.2,0-0.3l-0.4-4.4
	c0-0.4,0-0.7-0.1-0.9c0-0.3-0.3-0.5-0.6-0.5c-0.5,0-1.4,0.5-1.8,0.5c-0.9,0-2.5-1.3-5.4-1.3c-4.2,0-7.1,2.8-7.1,6.7
	c0,3.5,2.2,4.9,5.2,6.1c2.9,1.2,4.8,1.9,6.1,2.6c1.2,0.7,1.7,1.5,1.7,2.8c0,2.5-2,4-4.7,4c-3.8,0-6-2.9-7.1-6
	c-0.1-0.4-0.3-0.8-0.9-0.8c-0.3,0-0.5,0.1-0.6,0.2c-0.1,0.1-0.2,0.3-0.2,0.5c0,0.3,0.1,0.7,0.2,0.9l0.2,0l-0.2,0l1.1,4.5
	c0.1,0.7,0.2,1.2,1.1,1.4c2,0.4,3.9,1.2,6,1.2c4.7,0,8-3,8-7.4C265.6,130.9,263.1,129.4,259.4,127.9L259.4,127.9z M241,131.1
	c-1.2,0-2.3,0.1-3.5,0.1c-1.5,0-3-0.1-4.6-0.1c-0.2,0-0.4,0-0.7,0c-0.2,0-0.5,0-0.7,0.2c-0.2,0.1-0.3,0.4-0.3,0.7
	c0,0.4,0.4,0.6,0.7,0.6c1.1,0.2,3.1-0.2,3.2,3.5c0,1.9,0,4.5-5.8,4.5c-2.6,0-4.4-1.5-5.7-3.5c-1.2-2-1.8-4.6-1.8-6.8
	c0-8.3,4.2-10.1,7.2-10.2c4.3,0,6.3,1.8,7.5,3.5c0.6,0.9,0.9,1.8,1.1,2.4c0.1,0.3,0.2,0.6,0.3,0.8c0.1,0.2,0.2,0.4,0.4,0.4
	c0.3,0,0.6,0,0.7-0.2c0.2-0.1,0.2-0.3,0.2-0.6v-5.5c0-0.5,0.1-1.3-0.6-1.4c-0.4,0-0.5,0.3-0.7,0.5c-0.2,0.2-0.3,0.4-0.6,0.4
	c-0.4,0-1.3-0.5-2.7-1.1c-1.4-0.5-3.2-1.1-5.5-1.1c-8.4,0-11.8,7.4-11.8,12.9c0,2.6,1.5,11.1,11.2,11.1c3.6,0,7.3-1.5,10.4-3.2
	c0.4-0.2,0.4-0.5,0.4-1c0-0.5-0.1-1.4-0.1-2.7c0-2.1,0.5-2.6,1-2.8c0.3-0.1,0.5-0.2,0.8-0.3c0.2-0.1,0.5-0.3,0.4-0.7
	C241.5,131.3,241.3,131.1,241,131.1L241,131.1z M210,118.8c-0.3,0-1.4,0.1-3.5,0.1c-2.3,0-3.2-0.1-3.7-0.1c-0.5,0-0.7,0.5-0.7,0.7
	c0.1,0.8,1.1,0.8,2.1,1.2c1,0.4,1.9,0.9,1.9,2.3l0,10.9c0,0.4,0,0.7-0.1,0.9c0,0.1,0,0.1-0.1,0.2l0,0c0,0-0.5-0.3-0.9-0.8
	l-13.2-14.5c-0.3-0.3-0.3-0.5-0.4-0.7c-0.2-0.2-0.4-0.3-0.9-0.2c-1.7,0-2.6,0.1-3.4,0.1c-0.6,0-1.2-0.1-1.8-0.1
	c-0.5,0-0.7,0.4-0.7,0.7c0,0.5,0.3,0.7,0.7,0.8c1.1,0.4,3,0.2,3,4.9h0v12.5c0,1.6-0.7,2.2-1.5,2.7c-0.7,0.4-1.6,0.6-1.7,1.4
	c0,0.2,0.1,0.4,0.2,0.5c0.1,0.1,0.3,0.1,0.5,0.1c0.2,0,0.4,0,0.5,0c0.9,0,1.8-0.1,2.8-0.1c1.1,0,2.2,0.1,3.9,0.1h0.2
	c0.4,0,1.2,0,1.2-0.6c0-0.5-0.4-0.7-0.8-0.8c-1.2-0.4-3.4-0.2-3.4-4.8l0-11.2c0-0.1,0-0.3,0-0.3c0-0.1,0-0.1,0.1-0.1
	c0.1,0,0.3,0.1,0.5,0.4l15.7,17.1c0.2,0.3,0.5,0.5,1,0.5c0,0,0,0,0,0c0.2,0,0.4-0.1,0.5-0.3c0.1-0.2,0.1-0.4,0.1-0.8V123
	c0-1.7,0.7-2.3,1.3-2.6c0.6-0.4,1.4-0.3,1.5-1c0-0.1,0-0.2-0.1-0.3C210.5,118.8,210.3,118.8,210,118.8L210,118.8z M157.3,141.2
	c-0.6-0.3-1.8-0.4-3.7-2.9l-6.3-8.4c-0.5-0.7-0.8-1.1-0.8-1.3c0-0.2,0.5-0.7,0.7-0.8l-0.1-0.1l0.1,0.1l5.8-5.4
	c1.6-1.4,2.6-1.9,3.2-2.1c0.3-0.1,0.5-0.2,0.7-0.2c0.2-0.1,0.3-0.3,0.3-0.5c0-0.7-0.6-0.7-0.9-0.7h-0.1c-1.4,0-2.3,0.1-3.1,0.1
	c-1,0-3.2-0.1-3.6-0.1c-0.2,0-0.4,0-0.6,0.1c-0.2,0.1-0.3,0.3-0.3,0.7c0,0.6,0.6,0.6,1.1,0.7c0.5,0.1,0.9,0.3,0.9,0.6
	c0,1.3-3.1,4-4,4.9l-4.3,4.2c-0.4,0.4-0.6,0.5-0.7,0.5c0,0,0,0,0,0l0,0c0-0.1,0-0.2,0-0.3c0-0.1,0-0.2,0-0.3v-7.5
	c0-1.8,0.5-2.1,1.1-2.3c0.3-0.1,0.6-0.1,0.8-0.2c0.3-0.1,0.5-0.3,0.5-0.7c0-0.3-0.2-0.4-0.3-0.5c-0.2-0.1-0.4-0.1-0.5-0.1
	c-0.7,0-2.7,0.1-4.5,0.1c-2.2,0-3.3-0.1-3.9-0.1c-0.2,0-0.4,0-0.6,0.1c-0.2,0.1-0.2,0.3-0.2,0.5c0,0.4,0.3,0.7,0.6,0.8
	c1,0.4,2.8,0.1,2.8,3v14.3c0,2.5-0.6,3.1-1.2,3.3c-0.3,0.1-0.6,0.2-0.9,0.3c-0.3,0.1-0.5,0.4-0.5,0.8c0.1,0.5,0.6,0.4,1.2,0.4
	c1,0,2.7-0.1,4.3-0.1c1.9,0,2.7,0.1,3.6,0.1c0.4,0,0.6,0,0.8-0.1c0.2-0.1,0.3-0.3,0.3-0.4c-0.1-0.8-1-0.8-1.7-1
	c-0.8-0.3-1.5-0.7-1.5-2.1v-4.3c0-0.2,0-0.3,0-0.4c0-0.5,0-0.7,0.4-1.1c0.7-0.8,1.3-1.4,1.4-1.3c0,0,0.1,0,0.2,0.2
	c0.1,0.2,0.3,0.4,0.5,0.7l6.5,9c0.6,0.9,1.1,1,1.6,1c0,0,0.1,0,0.1,0c0.9,0,1.6-0.1,2.2-0.1c0.9,0,1.7,0.1,2.5,0.1
	c0.2,0,0.4-0.1,0.5-0.2c0.1-0.1,0.1-0.3,0.1-0.4C157.7,141.5,157.5,141.3,157.3,141.2L157.3,141.2z M126.1,141.1
	c-1.1-0.2-2.9-0.1-3-3v-15.7c0-1.5,0.6-1.9,1.1-2.1c0.3-0.1,0.6-0.2,0.8-0.3c0.3-0.1,0.5-0.3,0.5-0.7c0-0.2-0.1-0.4-0.3-0.5
	c-0.2-0.1-0.5-0.1-1-0.1c-1.9,0-3.1,0.1-4.2,0.1c-1.1,0-2.4-0.1-3.7-0.1c-0.1,0-0.2,0-0.3,0c-0.3,0-0.9,0-1,0.6
	c0.1,0.8,1.1,0.8,2,1.1c0.9,0.3,1.7,0.7,1.7,2.2v15.8c0,1.5-0.5,2-1.1,2.3c-0.5,0.3-1.2,0.4-1.3,1.1c0,0.2,0.1,0.5,0.5,0.5
	c0.9,0,2.3-0.1,3.7-0.1c2.5,0,3.8,0.1,5,0.1c0.4,0,0.7,0,0.9-0.1c0.2-0.1,0.3-0.3,0.3-0.5C126.8,141.3,126.4,141.1,126.1,141.1
	L126.1,141.1z M107.3,118.8c-0.2-0.1-0.3-0.1-0.6-0.1c-0.1,0-0.3,0-0.5,0c-0.9,0-1.8,0.1-2.7,0.1c-0.9,0-1.9-0.1-2.8-0.1
	c-0.1,0-0.2,0-0.4,0c-0.4,0-1.1,0-1.1,0.7c0.1,0.8,1,0.7,1.8,0.9c0.8,0.2,1.5,0.6,1.5,2.1c0,0.5-0.1,1.6-1,3.8l-4.5,10
	c-0.1,0.1-0.1,0.3-0.2,0.4c0,0.1-0.1,0.1-0.1,0.1c0,0,0,0,0,0c0,0,0,0,0,0c-0.1-0.1-0.2-0.4-0.3-0.6l-4.3-10.6
	c-0.8-2-1.2-3.5-1.2-4.5c0-0.6,0.4-0.8,0.9-0.9c0.5-0.2,1.1-0.2,1.1-0.8c0-0.2,0-0.5-0.2-0.6c-0.2-0.1-0.4-0.1-0.8-0.1
	c-0.1,0-0.2,0-0.3,0c-0.5,0-1.5,0.1-3.6,0.1c-1.1,0-2.2-0.1-3.3-0.1c-0.2,0-0.5,0-0.7,0c-0.4,0-0.9,0.1-0.9,0.7
	c0.1,0.4,0.5,0.5,0.6,0.6c1.3,0.3,1.7,0.6,2.3,1.9L94,141c0.6,1.4,0.9,1.8,1.4,1.8h0c0.5,0,0.7-0.3,1-1.1h0l8.9-19.7
	c0.4-0.9,1-1.4,1.4-1.6c0.4-0.3,0.8-0.4,0.8-0.9C107.6,119.1,107.5,118.9,107.3,118.8L107.3,118.8z M175.8,141.1c-1.1-0.2-3-0.1-3-3
	v-15.7c0-1.5,0.6-1.9,1.1-2.1c0.3-0.1,0.6-0.2,0.8-0.3c0.3-0.1,0.5-0.3,0.5-0.7c0-0.2-0.1-0.4-0.3-0.5c-0.2-0.1-0.5-0.1-1-0.1
	c-1.9,0-3.1,0.1-4.2,0.1c-1.1,0-2.4-0.1-3.7-0.1c-0.1,0-0.2,0-0.3,0c-0.3,0-0.9,0-1,0.6c0.1,0.8,1.1,0.8,2,1.1
	c0.9,0.3,1.7,0.7,1.7,2.2v15.8c0,1.5-0.5,2-1.1,2.3c-0.5,0.3-1.2,0.4-1.3,1.1c0,0.2,0.1,0.5,0.5,0.5c0.9,0,2.3-0.1,3.7-0.1
	c2.5,0,3.8,0.1,5,0.1c0.4,0,0.7,0,0.9-0.1c0.2-0.1,0.3-0.3,0.3-0.5C176.5,141.3,176.2,141.1,175.8,141.1L175.8,141.1z"/>
</svg>