<?xml version="1.0" encoding="utf-8"?>
<!-- Generator: Adobe Illustrator 18.1.1, SVG Export Plug-In . SVG Version: 6.00 Build 0)  -->
<svg version="1.0" id="Layer_1" xmlns:sketch="http://www.bohemiancoding.com/sketch/ns"
	 xmlns="http://www.w3.org/2000/svg" xmlns:xlink="http://www.w3.org/1999/xlink" x="0px" y="0px" viewBox="0 138.5 260.3 93.8"
	 enable-background="new 0 138.5 260.3 93.8" xml:space="preserve">
<title>Group</title>
<desc>Created with Sketch.</desc>
<path id="Fill-9" fill="#9A1933" d="M9.7,146.3l5.6,2.8l-5.6-9l-5.6,9L9.7,146.3L9.7,146.3z M3.7,150.2h12l-6-2.6L3.7,150.2
	L3.7,150.2z"/>
<path id="Fill-10" fill="#E11931" d="M9.7,146.3v-6.1l-5.6,9L9.7,146.3L9.7,146.3z M3.7,150.2h6v-2.6L3.7,150.2L3.7,150.2z"/>
<path id="Fill-11" fill="#78242F" d="M16.2,148.4c0.2,0,0.4,0.2,0.4,0.4c0,0.2-0.2,0.4-0.4,0.4c-0.2,0-0.4-0.2-0.4-0.4
	C15.8,148.6,15.9,148.4,16.2,148.4L16.2,148.4z M16.2,149.1c0.2,0,0.3-0.2,0.3-0.3c0-0.2-0.2-0.4-0.3-0.4c-0.2,0-0.3,0.2-0.3,0.4
	C15.8,149,16,149.1,16.2,149.1L16.2,149.1z M16.1,149L16.1,149l-0.1-0.5h0.2c0.1,0,0.2,0.1,0.2,0.1c0,0.1-0.1,0.1-0.1,0.1l0.1,0.2
	h-0.1l-0.1-0.2h-0.1L16.1,149L16.1,149z M16.1,148.8L16.1,148.8c0.1,0,0.2,0,0.2-0.1c0-0.1-0.1-0.1-0.1-0.1h-0.1V148.8L16.1,148.8z"
	/>
<path id="Fill-12" fill="#003468" d="M20.4,149.1h2.7c2.8,0,4.4-1.5,4.4-4s-1.7-4-4.4-4h-2.7V149.1L20.4,149.1z M22.1,142.5h1
	c1.8,0,2.7,0.9,2.7,2.6c0,1.7-0.9,2.6-2.7,2.6h-1V142.5L22.1,142.5z"/>
<path id="Fill-13" fill="#003468" d="M33.3,145.7h3.3v-1.4h-3.3v-1.8H37v-1.4h-5.4v8h5.5v-1.4h-3.8L33.3,145.7"/>
<path id="Fill-14" fill="#003468" d="M46.8,147.8h-3.3v-6.6h-1.7v8h5V147.8"/>
<path id="Fill-15" fill="#003468" d="M56.1,141.2h-6.9v1.4h2.6v6.6h1.7v-6.6h2.6L56.1,141.2"/>
<path id="Fill-16" fill="#003468" d="M66,149.1h-1.8l-0.7-2h-3.1l-0.7,2H58l3.2-8l0,0h1.7L66,149.1L66,149.1z M63,145.8l-1.1-2.8
	l-1.1,2.8H63L63,145.8z"/>
<g>
	<path id="Fill-24" fill="#E33546" d="M10.5,189.2c-0.2,0-2.3,0-2.6,0c-0.8,0-0.7-0.7-0.8-1.3v-3.8c0,0,0.6,0,1.2,0
		c0.7,0,1.6-0.1,2.5,0.4c0,0-0.6-1.6-2.5-1.6H7.1v-0.7v-0.5c0,0,0-1.1-0.2-1.4c0,0,1.6,0,1.7,0c1.5,0,2.6,0,3.8,0.8c0,0-0.2-2-3-2
		H3.8c0,0,0.9,0.9,0.9,2.6l0,7c0,1.8,0.7,1.8,0.7,1.8h1.9h0.9h2.7c1.2,0,1.7-0.9,1.7-1.4l0-0.7C12.5,188.4,12.1,189.2,10.5,189.2"/>
	<path id="Fill-25" fill="#E33546" d="M24.9,188.6v-4.9c0-1.9-1.5-2.4-2.6-2.4c-1.5,0-1.9,1.3-2.1,1.7c-0.3-1.2-1.5-1.7-2.4-1.7
		c-1.8,0-2.2,1.8-2.2,1.8s0-1.7-1.4-1.7h-1.4c0,0,0.8,0.3,0.8,1.8v5.4c0,1.8,0.7,1.8,0.7,1.8h2.3c-0.1,0-0.9-0.7-0.9-1.8v-4.8
		c0-0.2,0.4-0.9,1.3-0.9c0.6,0,1.2,0.6,1.2,1.3v4.5c0,1.8,0.7,1.8,0.7,1.8h2.3c0,0-0.9-0.6-0.9-1.8v-4.8c0.1-0.3,0.4-0.9,1.3-0.9
		c0.7,0,1.3,0.6,1.3,1.3c0,0,0,4.1,0,4.5c0,1.8,0.7,1.8,0.7,1.8c1.2,0,2.3,0,2.3,0S24.9,189.8,24.9,188.6"/>
	<path id="Fill-26" fill="#E33546" d="M28.9,188.6c0,1.2,0.9,1.8,0.9,1.8s-1.1,0-2.3,0c0,0-0.7,0-0.7-1.8l0,0v-5.4
		c0-1.4-0.8-1.8-0.8-1.8h1.4c0.5,0,1.5,0,1.5,2L28.9,188.6L28.9,188.6"/>
	<path id="Fill-27" fill="#E33546" d="M36,182.1c0,0-0.2-0.6-1.2-0.6c-1.4,0-1.8,1.8-1.8,1.8c-0.1-1.4-0.5-1.8-1.5-1.8h-1.4
		c0,0,0.8,0.3,0.8,1.8v5.4c0,1.8,0.7,1.8,0.7,1.8h2.3c-0.1,0-0.9-0.7-0.9-1.8v-4.5c0.1-0.4,0.2-0.7,0.6-0.9c0.8-0.5,1.8-0.4,2.4,0.4
		L36,182.1"/>
	<path id="Fill-28" fill="#E33546" d="M46.7,182.4c0.8,0,1.3,0.4,1.3,0.4v-1.3h-1.9v-2.1c0,0-0.5,0.9-1.5,1.8c-0.6,0.6-2,1.3-2,1.3
		l1.4,0v6.3c0,1.8,0.7,1.8,0.7,1.8c1.3,0,2.3,0,2.3,0s-0.9-0.6-0.9-1.8v-6.3C46.7,182.4,46.3,182.4,46.7,182.4"/>
	<path id="Fill-29" fill="#E33546" d="M53.6,185.2c-1.3,1.4-2.3,1.2-3.1,2.2c0,0,0.1,1.4,1.1,1.9c0.3,0.2,1.8,0.7,2.7-0.9v1.5
		c0,0-0.6,0.7-2.5,0.7c-2.2,0-3.8-1.8-3.8-4.4c0-2.5,1.3-4.7,3.6-4.8C54,181.3,55.3,183.3,53.6,185.2L53.6,185.2z M52.2,184.6
		c0.4-0.7,0.7-2.6-0.6-2.5c-1.5,0.1-1.2,4.3-1.2,4.3C50.9,185.8,51.6,185.7,52.2,184.6L52.2,184.6z"/>
	<path id="Fill-30" fill="#E33546" d="M27.9,180.7c0.6,0,1.1-0.5,1.1-1.1s-0.5-1.1-1.1-1.1c-0.6,0-1.1,0.5-1.1,1.1
		C26.8,180.2,27.3,180.7,27.9,180.7"/>
	<path id="Fill-31" fill="#E33546" d="M38.4,189.4c-0.5,0-0.9-0.6-0.9-1.1c0-2.3,1.8-2.6,2.2-3.2v3.8
		C39.5,189.1,39.3,189.4,38.4,189.4L38.4,189.4z M39.7,184.2c-0.5,1-4.7,1.2-4,4.5c0.2,1.3,1.1,1.7,2.2,1.7c1.1,0,1.7-0.6,1.9-1.1
		c0.2,1,0.6,1.1,0.6,1.1c1.2,0,2.3,0,2.3,0s-0.9-0.6-0.9-1.8v-5.1c0-1.2-1.3-2.2-2.7-2.2c-1.3,0-2.2,0.7-2.2,0.7v1.6
		c0,0,0.5-1.3,1.7-1.3c1.2,0,1.3,0.6,1.2,0.9C39.9,183.3,40,183.7,39.7,184.2L39.7,184.2z"/>
	<path id="Fill-32" fill="#E33546" d="M58.7,188c0,0.6-0.5,1.5-1.7,1.5c-1.2,0-1.7-1.3-1.7-1.3v1.6c0,0,0.9,0.6,2.2,0.6
		c1.6,0,3.1-1.2,3.1-3c0-0.6-0.2-1.1-0.5-1.6c-0.5-0.7-1.5-1.3-2.2-1.8c-0.4-0.3-0.6-0.8-0.6-0.9c0-0.3,0.1-0.9,1.3-0.9
		c1.1,0,1.6,1.3,1.6,1.3v-1.5c0,0-0.9-0.7-2.2-0.7c-1.4,0-2.6,0.9-2.6,2.2c0,1.1,0.5,1.8,1.3,2.4c0.3,0.2,0.7,0.5,1.2,0.8
		C58.4,187.1,58.7,187.5,58.7,188"/>
</g>
<path id="Fill-37" fill="#1A1918" d="M109.4,140.8c2.3,0,3.9,1.8,3.9,4.5s-1.6,4.5-3.9,4.5c-2.3,0-3.9-1.9-3.9-4.5
	C105.5,142.6,107.1,140.8,109.4,140.8L109.4,140.8z M109.4,149.1c1.7,0,2.6-1.4,2.6-3.9c0-2.5-0.9-3.9-2.6-3.9s-2.6,1.4-2.6,3.8
	C106.8,147.7,107.7,149.1,109.4,149.1L109.4,149.1z"/>
<path id="Fill-38" fill="#1A1918" d="M129.7,145.1c0,2.8-1.5,4.5-4.1,4.5H123c0,0,0.1-2.7,0.1-4.4c0-1.6-0.1-4.4-0.1-4.4h3
	C128.4,140.9,129.7,142.3,129.7,145.1L129.7,145.1z M128.5,145.1c0-2.4-1-3.7-3.1-3.7c-0.9,0-1.2,0-1.2,0s0.1,0.2,0.1,0.6
	c0,0.7,0,2.2,0,3.2c0,1.2,0,2.4,0,3.1c0,0.4-0.1,0.6-0.1,0.6s0.3,0,1.1,0C127.4,149,128.5,147.6,128.5,145.1L128.5,145.1z"/>
<path id="Fill-39" fill="#1A1918" d="M155.2,140.8c2.4,0,3.9,1.8,3.9,4.5s-1.6,4.5-3.9,4.5c-2.3,0-3.9-1.9-3.9-4.5
	C151.3,142.6,152.9,140.8,155.2,140.8L155.2,140.8z M155.2,149.1c1.7,0,2.6-1.4,2.6-3.9c0-2.5-0.9-3.9-2.6-3.9
	c-1.7,0-2.6,1.4-2.6,3.8C152.6,147.7,153.5,149.1,155.2,149.1L155.2,149.1z"/>
<path id="Fill-40" fill="#1A1918" d="M98.1,146.5c0,2.1,0.1,3.1,0.1,3.1h-0.9c0,0,0.1-3.5,0.1-6.8c0-0.6,0-1.8,0-1.8h0.6
	c0,0,2.3,3.4,3.9,5.7c0.2,0.3,0.4,0.7,0.6,1c0,0-0.1-0.6-0.1-1.1V144c0-2.2-0.1-3.1-0.1-3.1h0.9c0,0-0.1,3.2-0.1,6.9
	c0,0.3,0,1.8,0,1.8h-0.6c0,0-2.3-3.4-3.9-5.7c-0.2-0.3-0.4-0.6-0.5-0.9c0,0,0,0.7,0,1.1L98.1,146.5"/>
<path id="Fill-41" fill="#1A1918" d="M133.6,149.1c1,0,1.7-0.9,1.5-1.8c-0.1-0.7-0.6-1.2-1.5-1.7c-1.2-0.7-1.8-1.2-2-2.4
	c-0.2-1.4,1-2.5,2.4-2.5c0.8,0,1.5,0.2,1.8,0.3v0.9c0,0-0.6-0.7-1.7-0.7c-0.8,0-1.5,0.5-1.5,1.3c0,0.7,0.6,1.1,1.6,1.8
	c1.3,0.8,2,1.5,2,2.7c0,1.6-1.2,2.7-2.7,2.7c-0.8,0-1.5-0.2-1.8-0.3v-1C131.7,148.4,132.4,149.2,133.6,149.1"/>
<path id="Fill-42" fill="#1A1918" d="M142.8,140.9v0.8c0,0-0.6-0.2-1.6-0.2h-0.5v0.6v2c0,2.4,0.1,5.5,0.1,5.5h-1.3
	c0,0,0.1-3.1,0.1-5.5c0-0.4,0-2,0-2c0-0.3,0-0.6,0-0.6h-0.6c-1,0-1.6,0.2-1.6,0.2v-0.8H142.8"/>
<path id="Fill-43" fill="#1A1918" d="M168.9,149.6h-1.2c0,0-0.1-3.2-0.2-5.4v-0.9c0,0-0.2,0.4-0.3,0.9l-2.3,5.7c0,0-1.3-3.1-2.3-5.4
	c-0.2-0.3-0.3-0.9-0.5-1.2c0,0.5,0,1,0,1.3c-0.2,2.3-0.2,5-0.2,5H161l0.5-8.7h0.7c0,0,1.5,3.6,2.5,5.8c0.1,0.3,0.3,0.6,0.3,0.9
	c0.1-0.3,0.2-0.6,0.3-0.9c0.9-2.2,2.3-5.8,2.3-5.8h0.7L168.9,149.6"/>
<path id="Fill-44" fill="#1A1918" d="M149.5,142.9c0,1.2-0.7,2-1.9,2.3c0.8,1.5,2.4,4.4,2.4,4.4h-1.3c0,0-0.7-1.5-2.5-4.8h0.1
	c1.3,0,2.1-0.6,2.1-1.7c0-1-0.6-1.7-1.7-1.7c-0.3,0-0.8,0-0.8,0s0.1,0.2,0.1,0.7v4.5c0,2,0.1,2.9,0.1,2.9h-1.2c0,0,0.1-3.4,0.1-5.2
	c0-1.2-0.1-3.5-0.1-3.5h2.5C148.8,140.9,149.5,141.6,149.5,142.9"/>
<path id="Fill-45" fill="#1A1918" d="M120.4,142.9c0,1.2-0.7,2-1.9,2.3c0.8,1.5,2.4,4.4,2.4,4.4h-1.3c0,0-0.7-1.5-2.5-4.8h0.2
	c1.3,0,2-0.6,2-1.7c0-1-0.6-1.7-1.7-1.7c-0.3,0-0.8,0-0.8,0s0.1,0.2,0.1,0.7v4.5c0,2,0.1,2.9,0.1,2.9h-1.2c0,0,0.1-3.4,0.1-5.2
	c0-1.2-0.1-3.5-0.1-3.5h2.5C119.6,140.9,120.4,141.6,120.4,142.9"/>
<g>
	<path id="Fill-46" fill="#6F706F" d="M98.9,183.8h2.5v2.6h-2.5V183.8z"/>
	<path id="Fill-47" fill="#6F706F" d="M106,183.8h2.5v2.6H106V183.8z"/>
	<path id="Fill-48" fill="#6F706F" d="M113.4,183.8h2.5v2.6h-2.5V183.8z"/>
	<path id="Fill-49" fill="#6F706F" d="M120.7,183.8h2.5v2.6h-2.5V183.8z"/>
	<path id="Fill-50" fill="#6F706F" d="M135.4,178.8c-0.2,0-0.5,0.1-0.6,0.1c-0.2,0.1-0.3,0.2-0.4,0.4c-0.1,0.1-0.2,0.3-0.2,0.4
		c-0.1,0.2-0.1,0.3-0.1,0.6c0,0.3,0,0.7,0,1.1v6.5c0,0.6,0,1.1,0.1,1.3c0.1,0.3,0.2,0.5,0.3,0.7c0.2,0.3,0.6,0.5,1,0.5v0.2h-4.2
		v-0.2c0.2,0,0.5-0.1,0.6-0.2s0.3-0.2,0.4-0.4c0.1-0.2,0.2-0.4,0.3-0.7c0.1-0.3,0.1-0.7,0.1-1.3v-8l-3.3,10.7h-0.1l-3.3-10.6v7.8
		c0,0.6,0,1.1,0.1,1.3c0.1,0.3,0.2,0.5,0.3,0.7s0.2,0.3,0.4,0.4c0.2,0.1,0.4,0.1,0.6,0.2v0.2h-3v-0.2c0.2,0,0.5-0.1,0.6-0.2
		c0.2-0.1,0.3-0.2,0.4-0.4c0.1-0.2,0.2-0.4,0.3-0.7c0.1-0.3,0.1-0.7,0.1-1.3v-6.5c0-0.3,0-0.5,0-0.8c0-0.4-0.1-0.8-0.2-0.9
		c-0.1-0.3-0.2-0.5-0.5-0.6c-0.2-0.1-0.4-0.2-0.7-0.2v-0.2h2.8l2.8,9.5l2.9-9.5h2.7L135.4,178.8L135.4,178.8L135.4,178.8z"/>
	<path id="Stroke-51" fill="none" d="M135.4,178.8c-0.2,0-0.5,0.1-0.6,0.1c-0.2,0.1-0.3,0.2-0.4,0.4c-0.1,0.1-0.2,0.3-0.2,0.4
		c-0.1,0.2-0.1,0.3-0.1,0.6c0,0.3,0,0.7,0,1.1v6.5c0,0.6,0,1.1,0.1,1.3c0.1,0.3,0.2,0.5,0.3,0.7c0.2,0.3,0.6,0.5,1,0.5v0.2h-4.2
		v-0.2c0.2,0,0.5-0.1,0.6-0.2s0.3-0.2,0.4-0.4c0.1-0.2,0.2-0.4,0.3-0.7c0.1-0.3,0.1-0.7,0.1-1.3v-8l-3.3,10.7h-0.1l-3.3-10.6v7.8
		c0,0.6,0,1.1,0.1,1.3c0.1,0.3,0.2,0.5,0.3,0.7s0.2,0.3,0.4,0.4c0.2,0.1,0.4,0.1,0.6,0.2v0.2h-3v-0.2c0.2,0,0.5-0.1,0.6-0.2
		c0.2-0.1,0.3-0.2,0.4-0.4c0.1-0.2,0.2-0.4,0.3-0.7c0.1-0.3,0.1-0.7,0.1-1.3v-6.5c0-0.3,0-0.5,0-0.8c0-0.4-0.1-0.8-0.2-0.9
		c-0.1-0.3-0.2-0.5-0.5-0.6c-0.2-0.1-0.4-0.2-0.7-0.2v-0.2h2.8l2.8,9.5l2.9-9.5h2.7L135.4,178.8L135.4,178.8L135.4,178.8z"/>
	<path id="Fill-52" fill="#6F706F" d="M136,186.5c0-1,0.3-2,0.9-2.8c0.7-1,1.6-1.5,2.6-1.5c1,0,1.8,0.5,2.6,1.5
		c0.6,0.8,0.9,1.8,0.9,2.8c0,1-0.3,1.9-0.8,2.7c-0.7,1-1.6,1.5-2.6,1.5s-1.9-0.5-2.6-1.5c-0.3-0.4-0.5-0.8-0.6-1.3
		C136.1,187.5,136,187,136,186.5L136,186.5z M137.3,186.4c0,1.1,0.2,2.1,0.6,2.8c0.4,0.9,0.9,1.3,1.6,1.3c0.3,0,0.5-0.1,0.8-0.3
		c0.2-0.2,0.5-0.5,0.6-0.8c0.2-0.4,0.3-0.8,0.5-1.3c0.1-0.6,0.2-1.1,0.2-1.6c0-0.5-0.1-1-0.2-1.6c-0.1-0.5-0.3-1-0.5-1.4
		c-0.4-0.7-0.9-1.1-1.5-1.1c-0.6,0-1,0.4-1.4,1.1C137.5,184.3,137.3,185.3,137.3,186.4L137.3,186.4z"/>
	<path id="Stroke-53" fill="none" d="M136,186.5c0-1,0.3-2,0.9-2.8c0.7-1,1.6-1.5,2.6-1.5c1,0,1.8,0.5,2.6,1.5
		c0.6,0.8,0.9,1.8,0.9,2.8c0,1-0.3,1.9-0.8,2.7c-0.7,1-1.6,1.5-2.6,1.5s-1.9-0.5-2.6-1.5c-0.3-0.4-0.5-0.8-0.6-1.3
		C136.1,187.5,136,187,136,186.5L136,186.5z M137.3,186.4c0,1.1,0.2,2.1,0.6,2.8c0.4,0.9,0.9,1.3,1.6,1.3c0.3,0,0.5-0.1,0.8-0.3
		c0.2-0.2,0.5-0.5,0.6-0.8c0.2-0.4,0.3-0.8,0.5-1.3c0.1-0.6,0.2-1.1,0.2-1.6c0-0.5-0.1-1-0.2-1.6c-0.1-0.5-0.3-1-0.5-1.4
		c-0.4-0.7-0.9-1.1-1.5-1.1c-0.6,0-1,0.4-1.4,1.1C137.5,184.3,137.3,185.3,137.3,186.4L137.3,186.4z"/>
	<path id="Fill-54" fill="#6F706F" d="M145.6,184.1c0.2-0.3,0.4-0.5,0.6-0.7c0.4-0.3,0.8-0.4,1.3-0.4c0.7,0,1.4,0.3,1.9,0.8
		c0.7,0.7,1,1.7,1,2.9s-0.3,2.2-1,3c-0.6,0.6-1.3,0.9-2.2,0.9c-0.5,0-0.9-0.1-1.2-0.2l-0.4-0.2c-0.1-0.1-0.2-0.1-0.3-0.1
		c-0.2,0-0.5,0.2-0.7,0.7h-0.3v-10.2c0-0.6-0.1-1.1-0.3-1.4c-0.2-0.3-0.5-0.4-0.9-0.4v-0.2l2.3-0.4L145.6,184.1L145.6,184.1
		L145.6,184.1z M145.6,186.8c0,0.6,0,1.2,0.1,1.7c0.1,0.5,0.1,0.9,0.2,1.1c0.1,0.3,0.3,0.5,0.5,0.7c0.2,0.2,0.5,0.2,0.8,0.2
		c0.6,0,1.1-0.3,1.5-1c0.4-0.7,0.6-1.5,0.6-2.6c0-0.6-0.1-1.1-0.2-1.6s-0.3-0.9-0.6-1.3c-0.2-0.3-0.4-0.5-0.6-0.6
		c-0.2-0.2-0.5-0.2-0.7-0.2c-0.3,0-0.6,0.1-0.8,0.3s-0.4,0.5-0.6,0.8C145.7,184.9,145.6,185.7,145.6,186.8L145.6,186.8z"/>
	<path id="Stroke-55" fill="none" d="M145.6,184.1c0.2-0.3,0.4-0.5,0.6-0.7c0.4-0.3,0.8-0.4,1.3-0.4c0.7,0,1.4,0.3,1.9,0.8
		c0.7,0.7,1,1.7,1,2.9s-0.3,2.2-1,3c-0.6,0.6-1.3,0.9-2.2,0.9c-0.5,0-0.9-0.1-1.2-0.2l-0.4-0.2c-0.1-0.1-0.2-0.1-0.3-0.1
		c-0.2,0-0.5,0.2-0.7,0.7h-0.3v-10.2c0-0.6-0.1-1.1-0.3-1.4c-0.2-0.3-0.5-0.4-0.9-0.4v-0.2l2.3-0.4L145.6,184.1L145.6,184.1
		L145.6,184.1z M145.6,186.8c0,0.6,0,1.2,0.1,1.7c0.1,0.5,0.1,0.9,0.2,1.1c0.1,0.3,0.3,0.5,0.5,0.7c0.2,0.2,0.5,0.2,0.8,0.2
		c0.6,0,1.1-0.3,1.5-1c0.4-0.7,0.6-1.5,0.6-2.6c0-0.6-0.1-1.1-0.2-1.6s-0.3-0.9-0.6-1.3c-0.2-0.3-0.4-0.5-0.6-0.6
		c-0.2-0.2-0.5-0.2-0.7-0.2c-0.3,0-0.6,0.1-0.8,0.3s-0.4,0.5-0.6,0.8C145.7,184.9,145.6,185.7,145.6,186.8L145.6,186.8z"/>
	<path id="Fill-56" fill="#6F706F" d="M151.9,183.4l2.1-0.3v5v0.6c0,0.4,0,0.7,0.1,0.9c0,0.2,0.1,0.3,0.2,0.5
		c0.1,0.2,0.4,0.3,0.8,0.4v0.2h-3.3v-0.2c0.3-0.1,0.5-0.1,0.6-0.2c0.1-0.1,0.2-0.2,0.3-0.4c0.1-0.1,0.1-0.3,0.1-0.6
		c0-0.3,0-0.6,0-1.2v-2.2c0-0.6,0-1,0-1.3c0-0.2-0.1-0.4-0.2-0.6c-0.1-0.2-0.2-0.3-0.3-0.3s-0.3-0.1-0.5-0.1V183.4L151.9,183.4z
		 M153.5,179.9c-0.2,0-0.3-0.1-0.5-0.2c-0.1-0.2-0.2-0.3-0.2-0.6s0.1-0.4,0.2-0.6c0.1-0.2,0.3-0.2,0.5-0.2s0.3,0.1,0.5,0.2
		s0.2,0.3,0.2,0.6s-0.1,0.4-0.2,0.6C153.8,179.9,153.7,179.9,153.5,179.9L153.5,179.9z"/>
	<path id="Stroke-57" fill="none" d="M151.9,183.4l2.1-0.3v5v0.6c0,0.4,0,0.7,0.1,0.9c0,0.2,0.1,0.3,0.2,0.5
		c0.1,0.2,0.4,0.3,0.8,0.4v0.2h-3.3v-0.2c0.3-0.1,0.5-0.1,0.6-0.2c0.1-0.1,0.2-0.2,0.3-0.4c0.1-0.1,0.1-0.3,0.1-0.6
		c0-0.3,0-0.6,0-1.2v-2.2c0-0.6,0-1,0-1.3c0-0.2-0.1-0.4-0.2-0.6c-0.1-0.2-0.2-0.3-0.3-0.3s-0.3-0.1-0.5-0.1V183.4L151.9,183.4z
		 M153.5,179.9c-0.2,0-0.3-0.1-0.5-0.2c-0.1-0.2-0.2-0.3-0.2-0.6s0.1-0.4,0.2-0.6c0.1-0.2,0.3-0.2,0.5-0.2s0.3,0.1,0.5,0.2
		s0.2,0.3,0.2,0.6s-0.1,0.4-0.2,0.6C153.8,179.9,153.7,179.9,153.5,179.9L153.5,179.9z"/>
	<path id="Fill-58" fill="#6F706F" d="M156.1,178.6l2.1-0.3v9.7v0.7c0,0.4,0,0.7,0.1,0.9c0,0.2,0.1,0.3,0.2,0.5
		c0.1,0.2,0.4,0.3,0.8,0.4v0.2H156v-0.2c0.3-0.1,0.5-0.1,0.6-0.2c0.1-0.1,0.2-0.2,0.3-0.4c0.1-0.1,0.1-0.3,0.1-0.6
		c0-0.3,0-0.7,0-1.2v-6.8c0-0.6,0-1,0-1.3c0-0.2-0.1-0.4-0.2-0.6c-0.1-0.2-0.2-0.3-0.3-0.3s-0.3-0.1-0.5-0.1V178.6L156.1,178.6z"/>
	<path id="Stroke-59" fill="none" d="M156.1,178.6l2.1-0.3v9.7v0.7c0,0.4,0,0.7,0.1,0.9c0,0.2,0.1,0.3,0.2,0.5
		c0.1,0.2,0.4,0.3,0.8,0.4v0.2H156v-0.2c0.3-0.1,0.5-0.1,0.6-0.2c0.1-0.1,0.2-0.2,0.3-0.4c0.1-0.1,0.1-0.3,0.1-0.6
		c0-0.3,0-0.7,0-1.2v-6.8c0-0.6,0-1,0-1.3c0-0.2-0.1-0.4-0.2-0.6c-0.1-0.2-0.2-0.3-0.3-0.3s-0.3-0.1-0.5-0.1V178.6L156.1,178.6z"/>
	<path id="Fill-60" fill="#6F706F" d="M161.5,185.5c0,0.3,0,0.5,0,0.6c0,0.6,0.1,1.1,0.2,1.6c0.1,0.5,0.3,0.9,0.5,1.3
		c0.2,0.3,0.5,0.6,0.8,0.8c0.3,0.2,0.7,0.3,1,0.3c0.3,0,0.5-0.1,0.7-0.2c0.2-0.1,0.4-0.3,0.6-0.5c0.2-0.2,0.3-0.6,0.5-1l0.2,0.1
		c-0.1,0.7-0.4,1.3-0.8,1.7c-0.4,0.4-1,0.6-1.7,0.6c-0.6,0-1.1-0.1-1.6-0.4c-0.4-0.2-0.8-0.6-1.1-1.1c-0.4-0.7-0.6-1.6-0.6-2.6
		c0-1.4,0.4-2.5,1.2-3.3c0.6-0.6,1.2-0.9,2-0.9c0.4,0,0.8,0.1,1.1,0.3c0.3,0.2,0.6,0.4,0.9,0.8c0.4,0.5,0.5,1.2,0.5,1.9L161.5,185.5
		L161.5,185.5L161.5,185.5z M164.7,185.2c0-0.6-0.1-1.1-0.3-1.4c-0.1-0.3-0.3-0.6-0.5-0.7c-0.2-0.2-0.5-0.3-0.7-0.3
		c-0.4,0-0.8,0.2-1.1,0.7s-0.5,1-0.6,1.7L164.7,185.2L164.7,185.2z"/>
	<path id="Stroke-61" fill="none" d="M161.5,185.5c0,0.3,0,0.5,0,0.6c0,0.6,0.1,1.1,0.2,1.6c0.1,0.5,0.3,0.9,0.5,1.3
		c0.2,0.3,0.5,0.6,0.8,0.8c0.3,0.2,0.7,0.3,1,0.3c0.3,0,0.5-0.1,0.7-0.2c0.2-0.1,0.4-0.3,0.6-0.5c0.2-0.2,0.3-0.6,0.5-1l0.2,0.1
		c-0.1,0.7-0.4,1.3-0.8,1.7c-0.4,0.4-1,0.6-1.7,0.6c-0.6,0-1.1-0.1-1.6-0.4c-0.4-0.2-0.8-0.6-1.1-1.1c-0.4-0.7-0.6-1.6-0.6-2.6
		c0-1.4,0.4-2.5,1.2-3.3c0.6-0.6,1.2-0.9,2-0.9c0.4,0,0.8,0.1,1.1,0.3c0.3,0.2,0.6,0.4,0.9,0.8c0.4,0.5,0.5,1.2,0.5,1.9L161.5,185.5
		L161.5,185.5L161.5,185.5z M164.7,185.2c0-0.6-0.1-1.1-0.3-1.4c-0.1-0.3-0.3-0.6-0.5-0.7c-0.2-0.2-0.5-0.3-0.7-0.3
		c-0.4,0-0.8,0.2-1.1,0.7s-0.5,1-0.6,1.7L164.7,185.2L164.7,185.2z"/>
	<path id="Fill-62" fill="#ED0F84" d="M104.8,189.7h1.9v1h-5.6v-1h1.9v-11.1c0,0-3.1,0-3.1,4.2h-0.6V178h9.3v4.9h-0.6
		c0,0-0.2-4.2-3.1-4.2L104.8,189.7"/>
</g>
<g>
	<path id="Fill-1" fill="#1A1918" d="M120.8,220.9l-0.4,1.1h0.5l0.3-1c0.2,0,0.4,0.1,0.6,0.1c1.3,0,2.2-0.6,2.6-1.3
		c0.5-0.7,0.6-1.6,0.6-2.2c0-1.4-0.7-2.5-1.8-2.9l0.4-1.2h-0.5l-0.3,1.1c-0.2,0-0.4-0.1-0.6-0.1c-2,0-3.2,1.5-3.2,3.4
		C118.9,219.4,119.5,220.4,120.8,220.9L120.8,220.9z M123,215.5c0.7,0.6,0.9,1.5,0.9,2.5c0,1.4-0.5,2.6-1.9,2.6
		c-0.2,0-0.5-0.1-0.6-0.1L123,215.5L123,215.5z M121.9,215.1c0.2,0,0.5,0.1,0.7,0.2l-1.6,5c-0.7-0.6-0.9-1.8-0.9-2.6
		C120,216.3,120.5,215.1,121.9,215.1L121.9,215.1z M144.5,219.5c0-0.2-0.1-0.2-0.1-0.2c-0.2,0-0.2,0.3-0.5,0.6
		c-0.3,0.3-0.7,0.6-1.8,0.6c-0.5,0-0.5-0.2-0.5-0.7c0-0.1,0-0.1,0-0.2v-4.1c0-0.3,0.1-0.4,0.3-0.4c0.1,0,0.3,0,0.3-0.2
		c0-0.1,0-0.1-0.1-0.1c-0.1,0-0.1,0-0.2,0c-0.2,0-0.2,0-0.9,0c-0.3,0-0.8,0-1.1,0c-0.2,0-0.3,0.1-0.3,0.2c0,0.2,0.3,0.2,0.5,0.3
		c0.2,0.1,0.5,0.2,0.5,0.5v4.1c0,0.5-0.2,0.6-0.3,0.7c-0.1,0-0.2,0-0.2,0.1s-0.1,0.1-0.1,0.2c0,0.1,0.1,0.1,0.2,0.1
		c0.5,0,0.8,0,1.1,0c0.4,0,0.9,0,2.2,0C144,221,144.5,220.3,144.5,219.5L144.5,219.5z M131.1,217.5c0.6-0.2,0.9-0.7,0.9-1.3
		c0-0.1,0-0.5-0.3-0.9c-0.3-0.4-0.8-0.7-1.8-0.7c-0.7,0-1.4,0-2.2,0c-0.4,0-0.4,0-0.5,0c0,0,0,0,0,0s-0.1,0-0.1,0
		c0,0-0.1,0.1-0.1,0.2c0,0.1,0.1,0.2,0.2,0.2c0.3,0.1,0.7,0,0.7,0.9v3.9c0,0.4-0.2,0.6-0.3,0.6c-0.2,0.1-0.4,0.1-0.4,0.3
		c0,0.1,0,0.1,0.1,0.2c0.1,0,0.1,0,0.2,0c0.2,0,0.4,0,0.6,0c0.4,0,0.8,0,2.1,0c0.7,0,1.2-0.2,1.6-0.5c0.4-0.3,0.6-0.8,0.6-1.4
		C132.4,218.2,132,217.8,131.1,217.5L131.1,217.5z M129,215.9c0-0.5,0-0.8,0.6-0.8c0.7,0,1.3,0.6,1.3,1.3c0,0.6-0.2,0.9-0.9,0.9
		h-0.5c-0.5-0.1-0.5,0-0.5-0.5V215.9L129,215.9z M130,220.6c-0.8,0-1-0.2-1-1v-1c0-0.5,0-0.6,0.5-0.6c1.5,0,1.7,0.8,1.8,1.3
		C131.2,220,130.8,220.6,130,220.6L130,220.6z M151.2,219.5c0-0.2-0.1-0.2-0.1-0.2c-0.2,0-0.2,0.3-0.5,0.6c-0.3,0.3-0.7,0.6-1.8,0.6
		c-0.5,0-0.5-0.2-0.5-0.7c0-0.1,0-0.1,0-0.2v-1.1c0-0.1,0-0.2,0-0.2c0-0.3,0-0.4,0.3-0.4h0.6c0.4,0,0.6,0.2,0.6,0.4
		c0.1,0.2,0.1,0.5,0.3,0.5c0.2,0,0.2-0.2,0.2-0.3c0-0.1,0-0.2,0-0.2l-0.1-1.6c0-0.1,0-0.2-0.1-0.2c0,0-0.1-0.1-0.1,0h0
		c-0.1,0-0.1,0.1-0.2,0.2c-0.1,0.2-0.2,0.6-0.8,0.7h-0.5c-0.2,0-0.2,0-0.3-0.1c0,0,0-0.2,0-0.3v-1.2c0-0.3,0-0.4,0.1-0.5
		c0.1-0.1,0.4-0.1,0.9-0.1c0.8,0,1,0.2,1.1,0.5c0,0.1,0.1,0.2,0.1,0.3c0,0.1,0.1,0.2,0.2,0.2c0.2,0,0.2-0.2,0.2-0.3
		c0-0.1,0-0.1,0-0.2l0-0.9c0-0.1-0.1-0.2-0.2-0.2c-0.7,0-1.3,0-1.9,0c-1.3,0-1.9,0-2.2,0c-0.1,0-0.2,0.1-0.2,0.2
		c0,0.2,0.3,0.2,0.5,0.3c0.2,0.1,0.5,0.2,0.5,0.6v4.1c0,0.5-0.2,0.6-0.3,0.7c-0.1,0-0.2,0-0.2,0.1s-0.1,0.1-0.1,0.2
		c0,0.1,0.1,0.1,0.2,0.1c0.5,0,0.8,0,1.1,0c0.4,0,0.9,0,2.2,0C150.6,221,151.2,220.3,151.2,219.5L151.2,219.5z M135.1,220.6
		c-0.1,0.1-0.3,0.1-0.3,0.3c0,0.1,0,0.2,0.1,0.2c0.2,0,0.6,0,0.9,0c0.6,0,0.9,0,1.3,0c0.1,0,0.2,0,0.2,0c0.1,0,0.1-0.1,0.1-0.2
		c0-0.1-0.1-0.2-0.2-0.2c-0.3-0.1-0.8,0-0.8-0.8v-4.2c0-0.4,0.2-0.5,0.3-0.6c0.1,0,0.2,0,0.2-0.1c0.1,0,0.1-0.1,0.1-0.2
		c0-0.1,0-0.1-0.1-0.2c-0.1,0-0.1,0-0.2,0c-0.5,0-0.8,0-1.1,0s-0.6,0-0.9,0c0,0-0.1,0-0.1,0c-0.1,0-0.2,0-0.2,0.2
		c0,0.2,0.3,0.2,0.5,0.3c0.2,0.1,0.5,0.2,0.5,0.6v4.2C135.4,220.3,135.3,220.5,135.1,220.6L135.1,220.6z M115.9,221
		c0.2,0,0.5,0,0.7,0c0.2,0,0.2,0,0.3,0c0.1,0,0.1-0.1,0.1-0.2s-0.1-0.2-0.2-0.2c-0.2-0.1-0.6-0.1-0.7-0.9l-0.2-3.9c0,0,0,0,0-0.1
		c0-0.5,0.2-0.6,0.4-0.7c0.2-0.1,0.4-0.1,0.4-0.3c0,0,0-0.1-0.1-0.1c0,0-0.1,0-0.2,0c-0.2,0-0.4,0-0.6,0c-0.1,0-0.3,0-0.5,0
		c-0.2,0-0.2,0.2-0.2,0.2l-2,4.3c0,0,0,0.1-0.1,0.1c0,0,0,0,0,0.1l0,0l0,0c0,0,0,0-0.1-0.1l-1.8-4.2c-0.1-0.2-0.2-0.3-0.3-0.3h0
		c-0.3,0-0.6,0-0.8,0c-0.3,0-0.4,0-0.5,0s-0.1,0.1-0.2,0.2c0,0.2,0.2,0.2,0.5,0.3c0.2,0.1,0.4,0.3,0.4,1c0,0,0,0.1,0,0.1l-0.1,3.5
		c0,0.5-0.2,0.6-0.4,0.7c-0.2,0.1-0.4,0.1-0.4,0.3c0,0.1,0.1,0.2,0.2,0.2c0.1,0,0.4,0,0.8,0s0.6,0,0.9,0c0.1,0,0.2,0,0.2-0.1
		c0,0,0.1-0.1,0.1-0.1c0,0,0,0,0,0c0-0.1-0.1-0.2-0.2-0.2c-0.2-0.1-0.7,0-0.7-1c0,0,0-0.1,0-0.1l0.1-2.5c0,0,0-0.1,0-0.1s0,0,0-0.1
		c0,0,0,0.1,0.1,0.1l1.6,3.8c0,0.1,0.1,0.3,0.2,0.3s0.2-0.2,0.2-0.3l1.6-3.5c0.1-0.2,0.1-0.2,0.2-0.3c0,0,0-0.1,0.1-0.1l0,0
		c0,0,0,0,0,0.1c0,0.1,0,0.2,0,0.3l0.1,2.7c0,0,0,0.1,0,0.1c0,0.4-0.2,0.6-0.3,0.6c-0.1,0.1-0.3,0.1-0.3,0.3c0,0.2,0.2,0.2,0.3,0.2
		c0,0,0.1,0,0.1,0C115.2,221,115.4,221,115.9,221L115.9,221z M152.1,226.9c-0.6-0.2-1-0.4-1.3-0.6c-0.3-0.2-0.4-0.3-0.4-0.6
		c0-0.6,0.4-0.9,1-0.9c0.8,0,1.2,0.4,1.4,0.8c0.1,0.2,0.2,0.4,0.3,0.6c0.1,0.2,0.1,0.3,0.2,0.3c0.1,0,0.2,0,0.2-0.1
		c0-0.1,0.1-0.1,0.1-0.2c0,0,0-0.1,0-0.1l-0.1-1.2c0-0.1,0-0.2,0-0.2c0-0.1-0.1-0.1-0.2-0.1c-0.2,0-0.4,0.2-0.5,0.2
		c-0.2,0-0.6-0.3-1.4-0.3c-1.1,0-1.8,0.8-1.8,1.8c0,0.9,0.6,1.3,1.3,1.6c0.7,0.3,1.3,0.5,1.6,0.7c0.3,0.2,0.5,0.4,0.5,0.8
		c0,0.7-0.5,1.1-1.2,1.1c-1,0-1.5-0.8-1.8-1.6c0-0.1-0.1-0.2-0.2-0.2c-0.1,0-0.1,0-0.2,0.1c0,0,0,0.1,0,0.1c0,0.1,0,0.2,0,0.2h0h0
		l0.3,1.2c0,0.2,0.1,0.3,0.3,0.4c0.5,0.1,1,0.3,1.6,0.3c1.2,0,2.1-0.8,2.1-2C153.7,227.8,153.1,227.4,152.1,226.9L152.1,226.9z
		 M147.4,227.8c-0.3,0-0.6,0-0.9,0c-0.4,0-0.8,0-1.2,0c-0.1,0-0.1,0-0.2,0c-0.1,0-0.1,0-0.2,0c-0.1,0-0.1,0.1-0.1,0.2
		c0,0.1,0.1,0.2,0.2,0.2c0.3,0.1,0.8-0.1,0.8,0.9c0,0.5,0,1.2-1.5,1.2c-0.7,0-1.1-0.4-1.4-0.9c-0.3-0.6-0.5-1.2-0.5-1.8
		c0-2.2,1.1-2.7,1.8-2.7c1.1,0,1.6,0.5,1.9,0.9c0.2,0.2,0.2,0.5,0.3,0.6c0,0.1,0.1,0.2,0.1,0.2c0,0.1,0,0.1,0.1,0.1
		c0.1,0,0.2,0,0.2,0c0,0,0.1-0.1,0.1-0.2v-1.5c0-0.1,0-0.4-0.2-0.4c-0.1,0-0.2,0.1-0.2,0.2c0,0.1-0.1,0.1-0.2,0.1
		c-0.1,0-0.3-0.2-0.7-0.3c-0.4-0.2-0.8-0.3-1.4-0.3c-2.2,0-3,2-3,3.5c0,0.7,0.4,3,2.9,3c0.9,0,1.9-0.4,2.7-0.9
		c0.1-0.1,0.1-0.1,0.1-0.3c0-0.1,0-0.4,0-0.7c0-0.6,0.2-0.7,0.3-0.8c0.1,0,0.1,0,0.2-0.1c0.1,0,0.1-0.1,0.1-0.2
		C147.5,227.9,147.4,227.8,147.4,227.8L147.4,227.8z M139.4,224.5c-0.1,0-0.4,0-0.9,0c-0.6,0-0.8,0-0.9,0c-0.1,0-0.2,0.1-0.2,0.2
		c0,0.2,0.3,0.2,0.6,0.3s0.5,0.2,0.5,0.6v2.9c0,0.1,0,0.2,0,0.2c0,0,0,0,0,0l0,0c0,0-0.1-0.1-0.2-0.2l-3.4-3.9
		c-0.1-0.1-0.1-0.1-0.1-0.2c0-0.1-0.1-0.1-0.2-0.1c-0.5,0-0.7,0-0.9,0c-0.2,0-0.3,0-0.5,0c-0.1,0-0.2,0.1-0.2,0.2
		c0,0.1,0.1,0.2,0.2,0.2c0.3,0.1,0.8,0.1,0.8,1.3l0,0v3.3c0,0.4-0.2,0.6-0.4,0.7c-0.2,0.1-0.4,0.2-0.4,0.4c0,0.1,0,0.1,0.1,0.1
		c0,0,0.1,0,0.1,0s0.1,0,0.1,0c0.2,0,0.5,0,0.7,0c0.3,0,0.6,0,1,0h0c0.1,0,0.3,0,0.3-0.2c0-0.1-0.1-0.2-0.2-0.2
		c-0.3-0.1-0.9,0-0.9-1.3v-3c0,0,0-0.1,0-0.1c0,0,0,0,0,0c0,0,0.1,0,0.1,0.1l4.1,4.6c0.1,0.1,0.1,0.2,0.2,0.1l0,0
		c0.1,0,0.1,0,0.1-0.1c0-0.1,0-0.1,0-0.2v-5c0-0.5,0.2-0.6,0.3-0.7c0.2-0.1,0.4-0.1,0.4-0.3c0,0,0-0.1,0-0.1
		C139.5,224.5,139.5,224.5,139.4,224.5L139.4,224.5z M125.8,230.5c-0.2-0.1-0.5-0.1-0.9-0.8l-1.6-2.3c-0.1-0.2-0.2-0.3-0.2-0.3
		c0,0,0.1-0.2,0.2-0.2l0,0l0,0l1.5-1.4c0.4-0.4,0.7-0.5,0.8-0.6c0.1,0,0.2,0,0.2-0.1c0.1,0,0.1-0.1,0.1-0.2c0-0.2-0.2-0.2-0.2-0.2h0
		c-0.4,0-0.6,0-0.8,0c-0.2,0-0.8,0-0.9,0c-0.1,0-0.1,0-0.2,0c-0.1,0-0.1,0.1-0.1,0.2c0,0.2,0.2,0.2,0.3,0.2c0.1,0,0.2,0.1,0.2,0.2
		c0,0.3-0.8,1.1-1,1.3l-1.1,1.1c-0.1,0.1-0.2,0.2-0.2,0.2l0,0l0,0c0,0,0-0.1,0-0.1s0-0.1,0-0.1v-2c0-0.5,0.2-0.6,0.3-0.6
		c0.1,0,0.2,0,0.2-0.1c0.1,0,0.1-0.1,0.1-0.2c0-0.1,0-0.1-0.1-0.1c0,0-0.1,0-0.1,0c-0.2,0-0.7,0-1.2,0c-0.6,0-0.9,0-1,0
		c-0.1,0-0.1,0-0.2,0c0,0-0.1,0.1-0.1,0.1c0,0.1,0.1,0.2,0.2,0.2c0.3,0.1,0.7,0,0.7,0.8v3.8c0,0.6-0.2,0.8-0.3,0.9
		c-0.1,0-0.2,0.1-0.2,0.1c-0.1,0-0.1,0.1-0.1,0.2c0,0.1,0.2,0.1,0.3,0.1c0.3,0,0.7,0,1.1,0c0.5,0,0.7,0,0.9,0c0.1,0,0.2,0,0.2,0
		c0.1,0,0.1-0.1,0.1-0.1c0-0.2-0.2-0.2-0.4-0.3c-0.2-0.1-0.4-0.2-0.4-0.6v-1.2c0,0,0-0.1,0-0.1c0-0.1,0-0.2,0.1-0.3
		c0.2-0.2,0.3-0.4,0.4-0.4c0,0,0,0,0.1,0.1c0,0,0.1,0.1,0.1,0.2l1.7,2.4c0.2,0.2,0.3,0.3,0.4,0.3c0,0,0,0,0,0c0.2,0,0.4,0,0.6,0
		c0.2,0,0.4,0,0.6,0c0.1,0,0.1,0,0.1-0.1C125.9,230.7,125.9,230.7,125.8,230.5C125.9,230.6,125.9,230.5,125.8,230.5L125.8,230.5z
		 M117.8,230.5c-0.3-0.1-0.8,0-0.8-0.8v-4.2c0-0.4,0.2-0.5,0.3-0.6c0.1,0,0.2,0,0.2-0.1c0.1,0,0.1-0.1,0.1-0.2c0-0.1,0-0.1-0.1-0.2
		c-0.1,0-0.1,0-0.2,0c-0.5,0-0.8,0-1.1,0c-0.3,0-0.6,0-0.9,0c0,0-0.1,0-0.1,0c-0.1,0-0.2,0-0.2,0.2c0,0.2,0.3,0.2,0.5,0.3
		c0.2,0.1,0.5,0.2,0.5,0.6v4.2c0,0.4-0.2,0.5-0.3,0.6s-0.3,0.1-0.3,0.3c0,0.1,0,0.2,0.1,0.2c0.2,0,0.6,0,0.9,0c0.6,0,0.9,0,1.3,0
		c0.1,0,0.2,0,0.2,0c0.1,0,0.1-0.1,0.1-0.2C117.9,230.5,117.8,230.5,117.8,230.5L117.8,230.5z M113,224.5c0,0-0.1,0-0.2,0
		c0,0-0.1,0-0.1,0c-0.2,0-0.5,0-0.7,0s-0.5,0-0.7,0c0,0-0.1,0-0.1,0c-0.1,0-0.3,0-0.3,0.2c0,0.2,0.2,0.2,0.5,0.2
		c0.2,0.1,0.4,0.2,0.4,0.6c0,0.1,0,0.4-0.3,1l-1.2,2.7c0,0,0,0.1,0,0.1c0,0,0,0,0,0l0,0l0,0c0,0-0.1-0.1-0.1-0.2l-1.1-2.8
		c-0.2-0.5-0.3-0.9-0.3-1.2c0-0.2,0.1-0.2,0.2-0.2c0.1,0,0.3-0.1,0.3-0.2c0-0.1,0-0.1-0.1-0.2c-0.1,0-0.1,0-0.2,0c0,0-0.1,0-0.1,0
		c-0.2,0-0.4,0-0.9,0c-0.3,0-0.6,0-0.9,0c0,0-0.1,0-0.2,0c-0.1,0-0.2,0-0.2,0.2c0,0.1,0.1,0.2,0.2,0.2c0.3,0.1,0.4,0.2,0.6,0.5
		l2.1,5.1c0.2,0.4,0.2,0.5,0.4,0.5l0,0c0.1,0,0.2-0.1,0.2-0.3l0,0l2.3-5.3c0.1-0.2,0.2-0.4,0.4-0.4c0.1-0.1,0.2-0.1,0.2-0.2
		C113,224.6,113,224.5,113,224.5L113,224.5z M130.6,230.5c-0.3-0.1-0.8,0-0.8-0.8v-4.2c0-0.4,0.2-0.5,0.3-0.6c0.1,0,0.2,0,0.2-0.1
		c0.1,0,0.1-0.1,0.1-0.2c0-0.1,0-0.1-0.1-0.2c-0.1,0-0.1,0-0.2,0c-0.5,0-0.8,0-1.1,0c-0.3,0-0.6,0-0.9,0c0,0-0.1,0-0.1,0
		c-0.1,0-0.2,0-0.2,0.2c0,0.2,0.3,0.2,0.5,0.3c0.2,0.1,0.5,0.2,0.5,0.6v4.2c0,0.4-0.2,0.5-0.3,0.6c-0.1,0.1-0.3,0.1-0.3,0.3
		c0,0.1,0,0.2,0.1,0.2c0.2,0,0.6,0,0.9,0c0.6,0,0.9,0,1.3,0c0.1,0,0.2,0,0.2,0c0.1,0,0.1-0.1,0.1-0.2
		C130.7,230.5,130.7,230.5,130.6,230.5L130.6,230.5z"/>
</g>
<g>
	<path id="Fill-33" fill="#3A3B38" d="M257.4,188.1c-0.3,0.3-0.6,0.2-0.6,0.1l-1.8-2.4h0.1c3.5-0.8,2.6-5.2-0.2-5.2h-6v8.6h0.9v-2.8
		c0-0.4,0.1-0.6,0.5-0.6h3.5l2.4,3.1c0.5,0.4,1.3,0.6,1.9,0L257.4,188.1L257.4,188.1z M250.1,184.8c-0.3,0-0.4,0.2-0.4,0.2v-3.5h5.1
		c2.2,0.1,2.2,3.2,0,3.3H250.1L250.1,184.8z"/>
	<path id="Fill-34" fill="#3A3B38" d="M240.1,180.5h-7.6v8.6h7.8v-1h-6.9v-2.4c0-0.4,0.1-0.6,0.5-0.6h4.1v-1h-4.2
		c-0.3,0-0.4,0.2-0.4,0.2v-2.9h6.6L240.1,180.5"/>
	<path id="Fill-35" fill="#3A3B38" d="M223.1,184.7c1.6-1.3,0.9-3.9-1.1-4.2h-6.3v8.6h6.3C224,188.8,225,186.2,223.1,184.7
		L223.1,184.7z M216.7,181.5h5.2c1.7,0.2,1.6,2.6,0,2.7h-4.8c-0.3,0-0.4,0.2-0.4,0.2V181.5L216.7,181.5z M221.9,188.1h-5.2v-2.4
		c0-0.4,0.1-0.6,0.5-0.6h4.7C223.7,185.4,223.6,187.9,221.9,188.1L221.9,188.1z"/>
	<path id="Fill-36" fill="#3A3B38" d="M203.7,189.3c0.7,0,3.6-0.5,3.6-3.3v-5.4h-0.9v5.2c0,2.5-2.7,2.4-2.7,2.4h-0.9
		c0,0-2.7,0.1-2.7-2.4V182c0-0.8-0.6-1.5-1.5-1.5v1c0.4,0,0.6,0.4,0.6,0.6v3.8c0,2.8,2.9,3.3,3.6,3.3L203.7,189.3"/>
</g>
<g>
	<path fill="#ED2517" d="M211,139.2c-0.7,0-1.4,0-2.1,0c0,2.9,0,4.8,0,7.7c-0.9-2.8-1.8-4.7-2.8-7.7c-0.8,0-1.3,0-2.1,0
		c0,4.5,0,9.1,0,13.6c0.7-0.1,1.4-0.2,2.1-0.3c0-2.8,0-4.6,0-7.4c1,2.8,1.5,4.5,2.5,7.1c0.7-0.1,1.6-0.2,2.3-0.3
		C211,147.7,211,143.4,211,139.2"/>
	<path fill="#ED2517" d="M219,139.2c-2,0-3.9,0-5.9,0c0,4.2,0,8.4,0,12.6c2-0.2,4-0.3,5.9-0.4c0-0.6,0-1.5,0-2.1
		c-1.3,0.1-2.5,0.2-3.8,0.2c0-1.1,0-2.1,0-3.2c0.9,0,1.9,0,2.9,0c0-0.6,0-1.5,0-2.1c-1,0-2,0-2.9,0c0-1.1,0-1.7,0-2.9
		c0.6,0,1.2,0,1.7,0c0.1,0,0.2,0,0.3,0c0.1,0,0.2,0,0.3,0c0.5,0,1,0,1.5,0C219,140.7,219,139.8,219,139.2"/>
	<path fill="#ED2517" d="M227,139.2c-2.2,0-4.4,0-6.6,0c0,0.6,0,1.5,0,2.1c0.1,0,0.2,0,0.3,0c0.3,0,0.6,0,0.9,0c0.3,0,0.6,0,0.9,0
		c0.1,0,0.1,0,0.2,0c0,3.4,0,6.5,0,9.8c0.7,0,1.4,0,2.1-0.1c0-3.4,0-6.4,0-9.8c0.7,0,1.5,0,2.2,0C227,140.7,227,139.8,227,139.2"/>
	<path fill="#ED2517" d="M234.3,139.2c-2,0-4,0-5.9,0c0,3.9,0,7.9,0,11.8c0.2,0,0.5,0,0.7,0c0.5,0,1,0,1.4,0c0-1.7,0-3.2,0-4.9
		c0.1,0,0.2,0,0.4,0c0.3,0,0.6,0,0.8,0c0.3,0,0.6,0,0.8,0c0.3,0,0.6,0,0.9,0c0-0.6,0-1.5,0-2.1c-0.3,0-0.5,0-0.8,0
		c-0.3,0-0.6,0-0.9,0c-0.3,0-0.6,0-0.9,0c-0.1,0-0.2,0-0.3,0c0-1.1,0-1.7,0-2.8c0.2,0,0.5,0,0.7,0c0.2,0,0.5,0,0.7,0
		c0.2,0,0.5,0,0.7,0c0.6,0,1.1,0,1.7,0C234.3,140.7,234.3,139.8,234.3,139.2"/>
	<path fill="#ED2517" d="M235.7,139.2c0,4,0,8,0,11.9c1.9,0.1,3.9,0.1,5.8,0.3c0-0.6,0-1.5,0-2.1c-1.2-0.1-2.5-0.2-3.7-0.2
		c0-3.4,0-6.5,0-9.9C237.1,139.2,236.4,139.2,235.7,139.2"/>
	<path fill="#ED2517" d="M243.2,139.2c0,4.1,0,8.2,0,12.4c0.7,0.1,1.4,0.1,2.1,0.2c0-4.2,0-8.3,0-12.5
		C244.7,139.2,243.9,139.2,243.2,139.2"/>
	<path fill="#ED2517" d="M247.2,139.2c0.9,2.1,1.6,4.2,2.5,6.4c-0.9,2.1-1.8,4.2-2.7,6.3c0.7,0.1,1.5,0.2,2.3,0.3
		c0.5-1.3,1-2.3,1.6-3.7c0.5,1.4,1,2.5,1.6,4c0.7,0.1,1.7,0.2,2.5,0.3c-0.9-2.4-1.9-4.9-2.8-7.2c0.9-2.1,1.8-4.2,2.8-6.4
		c-0.8,0-1.6,0-2.3,0c-0.6,1.4-1,2.3-1.5,3.6c-0.5-1.4-0.9-2.3-1.4-3.6C248.7,139.2,248,139.2,247.2,139.2"/>
</g>
</svg>
