<?xml version="1.0" encoding="utf-8"?>
<!-- Generator: Adobe Illustrator 18.1.0, SVG Export Plug-In . SVG Version: 6.00 Build 0)  -->
<!DOCTYPE svg PUBLIC "-//W3C//DTD SVG 1.1//EN" "http://www.w3.org/Graphics/SVG/1.1/DTD/svg11.dtd">
<svg version="1.1" id="Layer_1" xmlns="http://www.w3.org/2000/svg" xmlns:xlink="http://www.w3.org/1999/xlink" x="0px" y="0px"
	 viewBox="0 0 716.4 527.6" enable-background="new 0 0 716.4 527.6" xml:space="preserve">
<g>
	<ellipse opacity="0.2" fill="#B4BFC2" cx="362.1" cy="460.4" rx="156.8" ry="8.6"/>
	<path fill="#FFFFFF" stroke="#B4BFC2" stroke-width="3" stroke-miterlimit="10" d="M418,460.4H306.2c-2.4,0-4.3-1.9-4.3-4.3v-2
		c0-2.4,1.9-4.3,4.3-4.3H418c2.4,0,4.3,1.9,4.3,4.3v2C422.3,458.5,420.4,460.4,418,460.4z"/>
	<path fill="#FFFFFF" stroke="#B4BFC2" stroke-width="3" stroke-miterlimit="10" d="M530.9,419.6H192.7c-5.2,0-9.4-4.2-9.4-9.4
		V201.5c0-5.2,4.2-9.4,9.4-9.4h338.2c5.2,0,9.4,4.2,9.4,9.4v208.7C540.3,415.4,536.1,419.6,530.9,419.6z"/>
	<path fill="#FFFFFF" stroke="#B4BFC2" stroke-width="3" stroke-miterlimit="10" d="M405.5,427.5c0-2.5,0.2-5,0.6-7.4h-87.9
		c0.4,2.4,0.6,4.9,0.6,7.4c0,8.3-2.1,15.9-5.8,22.3h8.6h81h8.6C407.6,443.4,405.5,435.7,405.5,427.5z"/>
	
		<rect x="194.5" y="202.1" fill="#FFFFFF" stroke="#B4BFC2" stroke-width="3" stroke-miterlimit="10" width="334.7" height="194.3"/>
	<path opacity="0.4" fill="#B4BFC2" d="M407.1,420.9h-82.7h-3.5h-1.1l0,0.2c0.4,2.5,0.6,5.1,0.6,7.6c0,0.9,0,1.8-0.1,2.7h1.1h1.1h84
		c0-0.9-0.1-1.8-0.1-2.7c0-2.5,0.2-5.1,0.6-7.6L407.1,420.9z"/>
	<g>
		<g>
			
				<ellipse fill="none" stroke="#E8EAEA" stroke-width="3" stroke-linecap="round" stroke-linejoin="round" stroke-miterlimit="10" cx="97.4" cy="381.8" rx="10.8" ry="12.9"/>
			<path fill="none" stroke="#E8EAEA" stroke-width="3" stroke-linecap="round" stroke-linejoin="round" stroke-miterlimit="10" d="
				M103.2,399.3l1,2.6l10.9,3.5c0,0,3.2,0.7,3.2,10.3H76.6c0-9.5,3.2-10.3,3.2-10.3l10.9-3.5l1.1-2.8"/>
		</g>
		<path fill="none" stroke="#E8EAEA" stroke-width="3" stroke-linecap="round" stroke-linejoin="round" stroke-miterlimit="10" d="
			M87,375.9c0,0,5.5,4.3,11.8,1.4c6.4-2.9,0.1,5.2,9.2-0.2"/>
	</g>
	<g>
		<path fill="#4E8DCB" d="M319.6,316.5c0-3,1.5-5.6,3.7-7.3c0.4-0.2,0.8-0.5,1.2-0.7c11.4-6.9,24.4-10.4,37.3-10.4
			c12.9,0,25.9,3.5,37.3,10.4c0.4,0.2,0.8,0.5,1.2,0.7c2.2,1.7,3.7,4.3,3.7,7.3c0,5-4.1,9.1-9.1,9.1c-1.9,0-3.7-0.6-5.1-1.6
			c-5.9-3.6-12.3-5.9-18.8-7v21.1c0,5-4.1,9.1-9.1,9.1c-5,0-9.1-4.1-9.1-9.1V317c-6.6,1.1-13,3.4-18.8,7c-1.4,1-3.2,1.6-5.1,1.6
			C323.7,325.6,319.6,321.5,319.6,316.5z"/>
		<g>
			<path fill="#4E8DCB" d="M323.3,289.2c0.4,0.2,0.8,0.5,1.2,0.7c4,2.5,8.3,4.4,12.6,6c8-2.9,16.3-4.4,24.7-4.4
				c8.4,0,16.7,1.5,24.7,4.4c4.4-1.6,8.6-3.6,12.6-6c0.4-0.2,0.8-0.5,1.2-0.7c2.2-1.7,3.7-4.3,3.7-7.3c0-5-4.1-9.1-9.1-9.1
				c-1.9,0-3.7,0.6-5.1,1.6c-5.9,3.6-12.3,5.9-18.8,7v-21.1c0-5-4.1-9.1-9.1-9.1c-5,0-9.1,4.1-9.1,9.1v21.1c-6.6-1.1-13-3.4-18.8-7
				c-1.5-1-3.2-1.6-5.1-1.6c-5,0-9.1,4.1-9.1,9.1C319.6,285,321.1,287.6,323.3,289.2z"/>
		</g>
	</g>
	<g>
		<path fill="#E8EAEA" d="M142.7,150.2c-0.3,0-0.5,0.2-0.5,0.5V177c0,0.3,0.2,0.5,0.5,0.5s0.5-0.2,0.5-0.5v-26.2
			C143.2,150.5,143,150.2,142.7,150.2z"/>
		<path fill="#E8EAEA" d="M133.9,164.9c-0.3,0-0.5,0.2-0.5,0.5V177c0,0.3,0.2,0.5,0.5,0.5s0.5-0.2,0.5-0.5v-11.6
			C134.4,165.1,134.2,164.9,133.9,164.9z"/>
		<path fill="#E8EAEA" d="M125.1,159.1c-0.3,0-0.5,0.2-0.5,0.5V177c0,0.3,0.2,0.5,0.5,0.5c0.3,0,0.5-0.2,0.5-0.5v-17.3
			C125.6,159.4,125.4,159.1,125.1,159.1z"/>
		<path fill="#E8EAEA" d="M116.3,164c-0.3,0-0.5,0.2-0.5,0.5V177c0,0.3,0.2,0.5,0.5,0.5c0.3,0,0.5-0.2,0.5-0.5v-12.5
			C116.7,164.2,116.5,164,116.3,164z"/>
		<path fill="#E8EAEA" d="M107.4,170.8c-0.3,0-0.5,0.2-0.5,0.5v5.6c0,0.3,0.2,0.5,0.5,0.5s0.5-0.2,0.5-0.5v-5.6
			C107.9,171.1,107.7,170.8,107.4,170.8z"/>
		<path fill="#E8EAEA" d="M98.6,167.6c-0.3,0-0.5,0.2-0.5,0.5v8.9c0,0.3,0.2,0.5,0.5,0.5s0.5-0.2,0.5-0.5V168
			C99,167.8,98.8,167.6,98.6,167.6z"/>
		<path fill="#E8EAEA" d="M143.2,139.8c-1.9,0-3.4,1.5-3.4,3.4c0,0.7,0.2,1.4,0.6,1.9l-7,9.8c-0.3-0.1-0.6-0.1-0.9-0.1
			c-0.8,0-1.6,0.3-2.2,0.8l-5.4-3c0-0.2,0.1-0.4,0.1-0.6c0-1.9-1.5-3.4-3.4-3.4c-1.9,0-3.4,1.5-3.4,3.4c0,0.6,0.2,1.2,0.5,1.8
			l-7.6,9.8c-0.3-0.1-0.7-0.2-1.1-0.2c-0.8,0-1.6,0.3-2.2,0.8l-5.5-3.2c0-0.2,0.1-0.4,0.1-0.6c0-1.9-1.5-3.4-3.4-3.4
			c-1.9,0-3.4,1.5-3.4,3.4c0,0.7,0.2,1.3,0.5,1.8l-6.6,8.5c-0.3-0.1-0.7-0.2-1-0.2c-1.9,0-3.4,1.5-3.4,3.4s1.5,3.4,3.4,3.4
			c1.9,0,3.4-1.5,3.4-3.4c0-0.7-0.2-1.3-0.5-1.8l6.6-8.5c0.3,0.1,0.7,0.2,1,0.2c0.8,0,1.6-0.3,2.2-0.8l5.5,3.2
			c0,0.2-0.1,0.4-0.1,0.6c0,1.9,1.5,3.4,3.4,3.4c1.9,0,3.4-1.5,3.4-3.4c0-0.6-0.2-1.2-0.5-1.8l7.6-9.8c0.3,0.1,0.7,0.2,1.1,0.2
			c0.8,0,1.6-0.3,2.2-0.8l5.4,3c0,0.2-0.1,0.4-0.1,0.6c0,1.9,1.5,3.4,3.4,3.4s3.4-1.5,3.4-3.4c0-0.7-0.2-1.4-0.6-1.9l7-9.8
			c0.3,0.1,0.6,0.1,0.9,0.1c1.9,0,3.4-1.5,3.4-3.4S145,139.8,143.2,139.8z M88.6,175c-0.6,0-1-0.5-1-1c0-0.6,0.5-1,1-1
			c0.6,0,1,0.5,1,1C89.6,174.5,89.2,175,88.6,175z M99.1,161.5c-0.6,0-1-0.5-1-1c0-0.6,0.5-1,1-1c0.6,0,1,0.5,1,1
			C100.1,161,99.7,161.5,99.1,161.5z M110,167.8c-0.6,0-1-0.5-1-1s0.5-1,1-1c0.6,0,1,0.5,1,1S110.6,167.8,110,167.8z M121.6,153.1
			c-0.6,0-1-0.5-1-1c0-0.6,0.5-1,1-1c0.6,0,1,0.5,1,1C122.7,152.6,122.2,153.1,121.6,153.1z M132.5,159.3c-0.6,0-1-0.5-1-1
			c0-0.6,0.5-1,1-1s1,0.5,1,1C133.6,158.8,133.1,159.3,132.5,159.3z M143.2,144.2c-0.6,0-1-0.5-1-1c0-0.6,0.5-1,1-1s1,0.5,1,1
			C144.2,143.8,143.7,144.2,143.2,144.2z"/>
	</g>
	<g>
		<g>
			<path fill="none" stroke="#E8EAEA" stroke-width="3" stroke-linecap="round" stroke-linejoin="round" stroke-miterlimit="10" d="
				M650.6,401.6c2,2.7,3.3,6,3.5,9.5h16.9c-0.2-8.1-3.2-15.5-8.1-21.2"/>
			<path fill="none" stroke="#E8EAEA" stroke-width="3" stroke-linecap="round" stroke-linejoin="round" stroke-miterlimit="10" d="
				M655.3,383.3c-5.4-3.5-11.8-5.5-18.6-5.5c-18.6,0-33.7,14.9-34.2,33.4h16.9c0.5-9.2,8.1-16.5,17.4-16.5c2.6,0,5.1,0.6,7.3,1.6"/>
		</g>
		
			<line fill="none" stroke="#E8EAEA" stroke-width="3" stroke-linecap="round" stroke-linejoin="round" stroke-miterlimit="10" x1="638.6" y1="408.4" x2="659.4" y2="386.2"/>
		
			<circle fill="none" stroke="#E8EAEA" stroke-width="3" stroke-linecap="round" stroke-linejoin="round" stroke-miterlimit="10" cx="636.3" cy="410.8" r="2.8"/>
	</g>
	<g>
		<g>
			<path fill="none" stroke="#E8EAEA" stroke-width="3" stroke-linecap="round" stroke-linejoin="round" stroke-miterlimit="10" d="
				M361.3,59.7c-12.9,0-23.4,10.5-23.4,23.4c0,12.9,10.5,23.4,23.4,23.4c12.9,0,23.4-10.5,23.4-23.4h-23.4V59.7z"/>
		</g>
		<g>
			<path fill="none" stroke="#E8EAEA" stroke-width="3" stroke-linecap="round" stroke-linejoin="round" stroke-miterlimit="10" d="
				M368.9,58.6v16.8h16.8C385.7,66.2,378.2,58.6,368.9,58.6z"/>
		</g>
	</g>
	<g>
		<path fill="#43609D" d="M250.3,70.4V83H240c-0.6,0-1.2,0.4-1.7,1.2c-0.5,0.8-0.8,1.7-0.8,2.8v6.6h12.9v12.9h-12.9v31.2h-12.8
			v-31.2h-10.3V93.5h10.3v-6.4c0-2.3,0.4-4.5,1.2-6.6c0.8-2,1.9-3.8,3.3-5.3c1.4-1.5,3-2.7,4.9-3.6c1.9-0.9,3.9-1.3,6-1.3H250.3
			 M250.3,67.4H240c-2.6,0-5,0.5-7.3,1.6c-2.2,1-4.2,2.5-5.8,4.2c-1.6,1.8-2.9,3.9-3.9,6.3c-0.9,2.4-1.4,5-1.4,7.7v3.4h-7.3
			c-1.7,0-3,1.3-3,3v12.9c0,1.7,1.3,3,3,3h7.3v28.2c0,1.7,1.3,3,3,3h12.8c1.7,0,3-1.3,3-3v-28.2h9.9c1.7,0,3-1.3,3-3V93.5
			c0-1.7-1.3-3-3-3h-9.9v-3.6c0-0.5,0.1-0.8,0.2-1h9.7c1.7,0,3-1.3,3-3V70.4C253.3,68.7,251.9,67.4,250.3,67.4L250.3,67.4z"/>
	</g>
	<g>
		<path fill="#4E8DCB" d="M99.5,244.2c2.1,0,3.9,0.4,5.6,1.2c1.7,0.8,3.1,1.8,4.4,3.1c1.5-0.2,3-0.6,4.6-1.3
			c1.5-0.6,2.9-1.3,4.2-1.9c-1.2,3.2-3.2,5.7-6,7.5c1.4-0.2,2.8-0.4,4.1-0.8c1.3-0.4,2.5-0.8,3.8-1.4c-1.8,2.7-4.1,5-6.8,7.2v1.6
			c0,4.6-0.9,9.2-2.6,13.8c-1.7,4.7-4.2,8.9-7.5,12.6c-3.3,3.8-7.4,6.8-12.2,9.2c-4.8,2.4-10.4,3.5-16.7,3.5
			c-3.9,0-7.6-0.6-11.1-1.7c-3.5-1.1-6.9-2.6-10-4.6c0.5,0.1,1.1,0.1,1.6,0.1c0.5,0,1.1,0,1.7,0c6.5,0,12.2-1.9,17-5.8
			c-3-0.1-5.7-1-8-2.8c-2.3-1.8-3.9-4-4.7-6.8c0.9,0.2,1.7,0.3,2.5,0.3c0.7,0,1.3,0,1.9-0.1c0.6-0.1,1.2-0.2,1.8-0.3
			c-3.2-0.7-5.8-2.3-7.9-4.7c-2.1-2.5-3.1-5.4-3.1-8.7v-0.1c0.9,0.5,1.9,0.8,2.9,1.1c1,0.3,2.2,0.5,3.5,0.5c-2-1.2-3.5-2.8-4.6-4.8
			c-1.1-2-1.6-4.2-1.6-6.6c0-2.4,0.6-4.7,1.8-6.9c3.4,4.3,7.6,7.6,12.4,10.2c4.9,2.5,10.1,3.9,15.8,4.2c-0.2-0.9-0.3-1.9-0.3-3
			c0-1.9,0.4-3.7,1.1-5.4c0.7-1.7,1.7-3.2,3-4.4c1.3-1.3,2.7-2.2,4.3-3C95.8,244.6,97.6,244.2,99.5,244.2 M118.3,245.4L118.3,245.4
			 M99.5,241.2c-2.3,0-4.5,0.4-6.5,1.3c-2,0.9-3.7,2.1-5.2,3.6c-1.5,1.5-2.7,3.3-3.6,5.4c-0.8,2-1.3,4.1-1.3,6.2
			c-3.9-0.5-7.7-1.7-11.1-3.5c-4.5-2.3-8.3-5.5-11.5-9.4c-0.6-0.7-1.4-1.1-2.3-1.1c-0.1,0-0.2,0-0.3,0c-1,0.1-1.9,0.7-2.4,1.5
			c-1.5,2.6-2.2,5.5-2.2,8.4c0,2.5,0.5,4.9,1.5,7.1c-0.1,0-0.2,0.1-0.3,0.2c-0.9,0.5-1.4,1.5-1.4,2.6v0.1c0,4.1,1.3,7.6,3.8,10.7
			c0.4,0.5,0.9,1,1.4,1.5c-0.4,0.7-0.5,1.5-0.2,2.3c1,3.3,3,6.1,5.8,8.3c0.7,0.6,1.5,1.1,2.3,1.5c-2.8,1.2-6,1.7-9.4,1.7h-1.7
			c-0.4,0-0.8,0-1.2-0.1c-0.1,0-0.3,0-0.4,0c-1.2,0-2.4,0.8-2.8,2c-0.5,1.3,0,2.8,1.2,3.6c3.3,2.1,6.9,3.8,10.7,4.9
			c3.8,1.2,7.8,1.8,12,1.8c6.7,0,12.8-1.3,18-3.8c5.2-2.5,9.6-5.8,13.1-9.9c3.5-4,6.3-8.6,8.1-13.6c1.8-5,2.7-10,2.7-14.9v-0.2
			c2.5-2.1,4.6-4.4,6.3-6.9c0.8-1.1,0.7-2.6-0.2-3.6c-0.5-0.6-1.2-1-1.9-1.1c0.2-0.4,0.3-0.8,0.5-1.2c0.2-0.4,0.2-0.8,0.2-1.2
			c0-1.6-1.3-3-3-3c0,0,0,0,0,0c-0.1,0-0.1,0-0.2,0c-0.5,0-0.9,0.2-1.3,0.4c-1.2,0.6-2.5,1.2-3.9,1.8c-0.8,0.3-1.7,0.6-2.5,0.8
			c-1.2-1-2.6-1.9-4.1-2.6C104.3,241.7,102,241.2,99.5,241.2L99.5,241.2z"/>
	</g>
	<g>
		<rect x="599.2" y="246.6" fill="none" stroke="#EE4544" stroke-width="3" stroke-miterlimit="10" width="77.5" height="54"/>
		<polyline fill="none" stroke="#EE4544" stroke-width="3" stroke-miterlimit="10" points="600.7,248 637.9,279.5 675.5,248 		"/>
		<line fill="none" stroke="#EE4544" stroke-width="3" stroke-miterlimit="10" x1="599.2" y1="293.5" x2="629.7" y2="273.2"/>
		<line fill="none" stroke="#EE4544" stroke-width="3" stroke-miterlimit="10" x1="676.7" y1="294.7" x2="646.1" y2="273.2"/>
	</g>
	<g>
		<path fill="none" stroke="#5BBF9B" stroke-width="3" stroke-linejoin="round" stroke-miterlimit="10" d="M496.4,68.3
			c-22.4,0-40.5,15.4-40.5,34.4c0,9.8,4.8,18.7,12.6,25v12.1l9-6.6c5.6,2.5,12.1,4,18.9,4c22.4,0,40.5-15.4,40.5-34.4
			S518.7,68.3,496.4,68.3z"/>
		<g>
			
				<circle fill="none" stroke="#5BBF9B" stroke-width="3" stroke-linejoin="round" stroke-miterlimit="10" cx="477.7" cy="104" r="5.6"/>
			
				<circle fill="none" stroke="#5BBF9B" stroke-width="3" stroke-linejoin="round" stroke-miterlimit="10" cx="496.4" cy="104" r="5.6"/>
			
				<circle fill="none" stroke="#5BBF9B" stroke-width="3" stroke-linejoin="round" stroke-miterlimit="10" cx="515" cy="104" r="5.6"/>
		</g>
	</g>
	<g>
		
			<rect x="587.1" y="152.3" fill="none" stroke="#E8EAEA" stroke-width="3" stroke-linecap="round" stroke-linejoin="round" stroke-miterlimit="10" width="11.5" height="28.1"/>
		
			<rect x="606.6" y="136.9" fill="none" stroke="#E8EAEA" stroke-width="3" stroke-linecap="round" stroke-linejoin="round" stroke-miterlimit="10" width="11.5" height="43.5"/>
		
			<rect x="626.2" y="162.9" fill="none" stroke="#E8EAEA" stroke-width="3" stroke-linecap="round" stroke-linejoin="round" stroke-miterlimit="10" width="11.5" height="17.5"/>
	</g>
</g>
</svg>
