<?xml version="1.0" encoding="utf-8"?>
<!-- Generator: Adobe Illustrator 18.1.0, SVG Export Plug-In . SVG Version: 6.00 Build 0)  -->
<!DOCTYPE svg PUBLIC "-//W3C//DTD SVG 1.1//EN" "http://www.w3.org/Graphics/SVG/1.1/DTD/svg11.dtd">
<svg version="1.1" id="Layer_1" xmlns:sketch="http://www.bohemiancoding.com/sketch/ns"
	 xmlns="http://www.w3.org/2000/svg" xmlns:xlink="http://www.w3.org/1999/xlink" x="0px" y="0px" viewBox="-1072 3192.7 57.7 62.2"
	 enable-background="new -1072 3192.7 57.7 62.2" xml:space="preserve">
<g>
	<title>delight-icon</title>
	<desc>Created with Sketch.</desc>
	
		<path id="Fill-1" sketch:type="MSShapeGroup" fill="#FFFFFF" stroke="#AEB9B8" stroke-linecap="round" stroke-linejoin="round" stroke-miterlimit="10" d="
		M-1029.7,3210.9c0,8.8-6,15.9-13.4,15.9c-7.4,0-13.4-7.1-13.4-15.9c0-8.8,6-15.9,13.4-15.9
		C-1035.7,3194.9-1029.7,3202-1029.7,3210.9L-1029.7,3210.9z"/>
	
		<path id="Stroke-2" sketch:type="MSShapeGroup" fill="#FFFFFF" stroke="#AEB9B8" stroke-linecap="round" stroke-linejoin="round" stroke-miterlimit="10" d="
		M-1029.7,3210.9c0,8.8-6,15.9-13.4,15.9c-7.4,0-13.4-7.1-13.4-15.9c0-8.8,6-15.9,13.4-15.9
		C-1035.7,3194.9-1029.7,3202-1029.7,3210.9L-1029.7,3210.9z"/>
	
		<path id="Fill-3" sketch:type="MSShapeGroup" fill="#FFFFFF" stroke="#AEB9B8" stroke-linecap="round" stroke-linejoin="round" stroke-miterlimit="10" d="
		M-1035.9,3232.5l1.3,3.2l13.6,4.3c0,0,3.9,0.9,3.9,12.7h-52.1c0-11.7,3.9-12.7,3.9-12.7l13.6-4.3l1.3-3.4"/>
	
		<path id="Stroke-4" sketch:type="MSShapeGroup" fill="#FFFFFF" stroke="#AEB9B8" stroke-linecap="round" stroke-linejoin="round" stroke-miterlimit="10" d="
		M-1035.9,3232.5l1.3,3.2l13.6,4.3c0,0,3.9,0.9,3.9,12.7h-52.1c0-11.7,3.9-12.7,3.9-12.7l13.6-4.3l1.3-3.4"/>
	
		<path id="Stroke-5" sketch:type="MSShapeGroup" fill="#FFFFFF" stroke="#AEB9B8" stroke-linecap="round" stroke-linejoin="round" stroke-miterlimit="10" d="
		M-1055.2,3203.9c0,0,6.1,5,13.7,1.4c7.6-3.6-0.1,6.5,10.7-0.2"/>
	
		<path id="Stroke-7" sketch:type="MSShapeGroup" fill="none" stroke="#4E8DCB" stroke-linecap="round" stroke-linejoin="round" stroke-miterlimit="10" d="
		M-1034.5,3240.1c0.1,0,0.3,0,0.5,0c1,0.1,2.2,0.9,2.3,2.6v0.5c-0.1,1.6-2.6,3.5-5.1,5.9c-2.7-2.5-5-4.3-5.1-5.9v-0.5
		c0.1-1.6,1.3-2.5,2.3-2.6c0.2,0,0.3,0,0.5,0c1.2,0,1.7,0.6,2.4,1.3C-1036.2,3240.6-1035.6,3240.1-1034.5,3240.1"/>
	
		<path id="Fill-8" sketch:type="MSShapeGroup" fill="#FFFFFF" stroke="#AEB9B8" stroke-linecap="round" stroke-linejoin="round" stroke-miterlimit="10" d="
		M-1043,3221.9c3.2,0,5.9-2.4,6.2-5.5h-12.4C-1048.9,3219.5-1046.3,3221.9-1043,3221.9L-1043,3221.9z"/>
	<path id="Stroke-9" sketch:type="MSShapeGroup" fill="#EDEEEF" stroke="#AEB9B8" d="M-1043,3221.9c3.2,0,5.9-2.4,6.2-5.5h-12.4
		C-1048.9,3219.5-1046.3,3221.9-1043,3221.9L-1043,3221.9z"/>
</g>
</svg>
