<?xml version="1.0" encoding="UTF-8" standalone="no"?>
<svg width="145px" height="131px" viewBox="0 0 145 131" version="1.1" xmlns="http://www.w3.org/2000/svg" xmlns:xlink="http://www.w3.org/1999/xlink" xmlns:sketch="http://www.bohemiancoding.com/sketch/ns">
    <!-- Generator: Sketch 3.2.2 (9983) - http://www.bohemiancoding.com/sketch -->
    <title>engage-icon</title>
    <desc>Created with Sketch.</desc>
    <defs></defs>
    <g id="Welcome" stroke="none" stroke-width="1" fill="none" fill-rule="evenodd" sketch:type="MSPage">
        <g id="Desktop-HD" sketch:type="MSArtboardGroup" transform="translate(-229.000000, -1024.000000)">
            <g id="engage-icon" sketch:type="MSLayerGroup" transform="translate(231.000000, 1024.000000)">
                <path d="M54.1325539,79.5072973 C54.1325539,90.1207432 46.9151318,98.7244595 38.0124951,98.7244595 C29.1098585,98.7244595 21.8933206,90.1207432 21.8933206,79.5072973 C21.8933206,68.8947297 29.1098585,60.2910135 38.0124951,60.2910135 C46.9151318,60.2910135 54.1325539,68.8947297 54.1325539,79.5072973 L54.1325539,79.5072973 Z" id="Fill-1" fill="#FFFFFF" sketch:type="MSShapeGroup"></path>
                <path d="M46.7117743,105.535405 L48.2219246,109.388851 L64.5559508,114.594122 C64.5559508,114.594122 69.2844542,115.669257 69.2844542,129.886689 L6.74053612,129.886689 C6.74053612,115.750068 11.4690395,114.594122 11.4690395,114.594122 L27.8039498,109.388851 L29.416663,105.27277" id="Fill-3" fill="#FFFFFF" sketch:type="MSShapeGroup"></path>
                <path d="M22.356622,70.8148649 C22.356622,70.8148649 30.5554649,77.2015541 40.1141504,72.8729054 C49.6719518,68.5442568 40.2547324,80.5789189 53.9530688,72.5215541" id="Fill-5" fill="#FFFFFF" sketch:type="MSShapeGroup"></path>
                <g id="Stroke-2-+-Stroke-4-+-Stroke-6" transform="translate(0.000000, 58.832117)" stroke="#AFBAB9" stroke-width="4" sketch:type="MSShapeGroup">
                    <path d="M47.4636349,19.7262754 C47.4636349,30.3397213 40.2462129,38.9434376 31.3435762,38.9434376 C22.4409396,38.9434376 15.2244017,30.3397213 15.2244017,19.7262754 C15.2244017,9.11370783 22.4409396,0.509991616 31.3435762,0.509991616 C40.2462129,0.509991616 47.4636349,9.11370783 47.4636349,19.7262754 L47.4636349,19.7262754 Z" id="Stroke-2"></path>
                    <path d="M40.0428554,45.7543835 L41.5530057,49.6078295 L57.8870318,54.8130997 C57.8870318,54.8130997 62.6155352,55.8882349 62.6155352,70.1056673 L0.0716171981,70.1056673 C0.0716171981,55.9690457 4.8001206,54.8130997 4.8001206,54.8130997 L21.1350309,49.6078295 L22.7477441,45.4917484" id="Stroke-4"></path>
                    <path d="M15.687703,11.033843 C15.687703,11.033843 23.886546,17.4205322 33.4452315,13.0918835 C43.0030329,8.76323486 33.5858134,20.797897 47.2841499,12.7405322" id="Stroke-6"></path>
                </g>
                <path d="M117.598654,84.4789189 C117.598654,92.4502027 112.179619,98.9106757 105.493579,98.9106757 C98.8084231,98.9106757 93.3885042,92.4502027 93.3885042,84.4789189 C93.3885042,76.5093919 98.8084231,70.0480405 105.493579,70.0480405 C112.179619,70.0480405 117.598654,76.5093919 117.598654,84.4789189 L117.598654,84.4789189 Z" id="Fill-7" fill="#FFFFFF" sketch:type="MSShapeGroup"></path>
                <path d="M112.026659,104.025473 L113.160156,106.91973 L125.427033,110.828514 C125.427033,110.828514 128.977831,111.636622 128.977831,122.313311 L82.0093272,122.313311 C82.0093272,111.696351 85.5601256,110.828514 85.5601256,110.828514 L97.8270022,106.91973 L99.0383054,103.827838" id="Fill-9" fill="#FFFFFF" sketch:type="MSShapeGroup"></path>
                <path d="M93.7359803,77.9516892 C93.7359803,77.9516892 99.893291,82.7476351 107.07181,79.4967568 C114.249445,76.2458784 107.177025,85.2843919 117.464261,79.2332432" id="Fill-11" fill="#FFFFFF" sketch:type="MSShapeGroup"></path>
                <g id="Stroke-8-+-Stroke-10-+-Stroke-12" transform="translate(93.364865, 67.372263)" stroke="#AFBAB9" stroke-width="4" sketch:type="MSShapeGroup">
                    <path d="M35.6662214,15.2088459 C35.6662214,23.1801297 30.2471868,29.6406027 23.5611466,29.6406027 C16.8759906,29.6406027 11.4560718,23.1801297 11.4560718,15.2088459 C11.4560718,7.2393189 16.8759906,0.777967548 23.5611466,0.777967548 C30.2471868,0.777967548 35.6662214,7.2393189 35.6662214,15.2088459 L35.6662214,15.2088459 Z" id="Stroke-8"></path>
                    <path d="M30.0942266,34.7554 L31.2277235,37.6496567 L43.4946001,41.5584405 C43.4946001,41.5584405 47.0453985,42.3665486 47.0453985,53.0432378 L0.0768947599,53.0432378 C0.0768947599,42.4262784 3.62769313,41.5584405 3.62769313,41.5584405 L15.8945698,37.6496567 L17.105873,34.5577648" id="Stroke-10"></path>
                    <path d="M11.8035478,8.6816162 C11.8035478,8.6816162 17.9608585,13.4775621 25.1393775,10.2266838 C32.3170122,6.97580539 25.2445928,16.0143189 35.5318287,9.96317025" id="Stroke-12"></path>
                </g>
                <path d="M43.0911271,53.5687838 L43.0911271,43.0747973 C37.4979123,38.3543919 34.4280986,32.0854054 34.4280986,25.3517568 C34.4280986,11.5858108 47.5649915,0.386486486 63.7115752,0.386486486 C79.8590429,0.386486486 92.9959359,11.5858108 92.9959359,25.3517568 C92.9959359,39.1177027 79.8590429,50.317027 63.7115752,50.317027 C59.2836871,50.317027 54.8787874,49.4527027 50.9115483,47.8092568 L43.0911271,53.5687838 L43.0911271,53.5687838 Z M63.7115752,3.30445946 C49.184778,3.30445946 37.366172,13.195 37.366172,25.3517568 C37.366172,31.4029054 40.2485432,37.05 45.483672,41.2547973 L46.0283164,41.6931081 L46.0283164,47.7732432 L50.535779,44.4538514 L51.3209157,44.8052027 C55.1139747,46.5022297 59.3977442,47.3990541 63.7115752,47.3990541 C78.2392564,47.3990541 90.0587466,37.5093919 90.0587466,25.3517568 C90.0587466,13.195 78.2392564,3.30445946 63.7115752,3.30445946 L63.7115752,3.30445946 Z" id="Fill-13" fill="#4690DC" sketch:type="MSShapeGroup"></path>
                <path d="M50.8717609,31.4362838 C47.9522549,31.4362838 45.5773933,29.0760811 45.5773933,26.1756757 C45.5773933,23.2743919 47.9522549,20.9150676 50.8717609,20.9150676 C53.791267,20.9150676 56.1670128,23.2743919 56.1670128,26.1756757 C56.1670128,29.0760811 53.791267,31.4362838 50.8717609,31.4362838 L50.8717609,31.4362838 Z M50.8717609,23.8339189 C49.5720414,23.8339189 48.5145825,24.8844595 48.5145825,26.1756757 C48.5145825,27.4668919 49.5720414,28.5174324 50.8717609,28.5174324 C52.1714805,28.5174324 53.2289393,27.4668919 53.2289393,26.1756757 C53.2289393,24.8844595 52.1714805,23.8339189 50.8717609,23.8339189 L50.8717609,23.8339189 Z" id="Fill-14" fill="#4690DC" sketch:type="MSShapeGroup"></path>
                <path d="M63.7115752,31.4362838 C60.7920691,31.4362838 58.4172075,29.0760811 58.4172075,26.1756757 C58.4172075,23.2743919 60.7920691,20.9150676 63.7115752,20.9150676 C66.6319653,20.9150676 69.006827,23.2743919 69.006827,26.1756757 C69.006827,29.0760811 66.6319653,31.4362838 63.7115752,31.4362838 L63.7115752,31.4362838 Z M63.7115752,23.8339189 C62.4127398,23.8339189 61.3543968,24.8844595 61.3543968,26.1756757 C61.3543968,27.4668919 62.4127398,28.5174324 63.7115752,28.5174324 C65.0112947,28.5174324 66.0696377,27.4668919 66.0696377,26.1756757 C66.0696377,24.8844595 65.0112947,23.8339189 63.7115752,23.8339189 L63.7115752,23.8339189 Z" id="Fill-15" fill="#4690DC" sketch:type="MSShapeGroup"></path>
                <path d="M76.5522735,31.4362838 C73.6327675,31.4362838 71.2570217,29.0760811 71.2570217,26.1756757 C71.2570217,23.2743919 73.6327675,20.9150676 76.5522735,20.9150676 C79.4708954,20.9150676 81.8466412,23.2743919 81.8466412,26.1756757 C81.8466412,29.0760811 79.4708954,31.4362838 76.5522735,31.4362838 L76.5522735,31.4362838 Z M76.5522735,23.8339189 C75.252554,23.8339189 74.1950951,24.8844595 74.1950951,26.1756757 C74.1950951,27.4668919 75.252554,28.5174324 76.5522735,28.5174324 C77.851993,28.5174324 78.9085678,27.4668919 78.9085678,26.1756757 C78.9085678,24.8844595 77.851993,23.8339189 76.5522735,23.8339189 L76.5522735,23.8339189 Z" id="Fill-16" fill="#4690DC" sketch:type="MSShapeGroup"></path>
                <path d="M94.0427848,21.6274324 C94.3248328,22.7192568 94.5220011,23.8365541 94.6316373,24.9766892 C103.059478,26.8854054 109.277796,33.3142568 109.277796,40.9324324 C109.277796,45.4560811 107.116018,49.6828378 103.192103,52.8335811 L102.599714,53.3087838 L102.599714,57.3036486 L99.6448412,55.1279054 L98.7925081,55.51 C95.9260519,56.7915541 92.6891313,57.4687838 89.4301067,57.4687838 C83.0694386,57.4687838 77.4019541,54.9592568 73.7671603,51.0706757 C72.6106751,51.3666892 71.4232443,51.6020946 70.2119411,51.7760135 C74.3374454,57.1086486 81.4098647,60.6353378 89.4301067,60.6353378 C92.81203,60.6353378 96.1798066,59.9906081 99.2319371,58.7652703 L105.787121,63.5937162 L105.787121,54.8037838 C110.040829,51.1304054 112.465204,46.1148649 112.465204,40.9324324 C112.465204,31.4187162 104.541336,23.4588514 94.0427848,21.6274324" id="Fill-17" fill="#4690DC" sketch:type="MSShapeGroup"></path>
            </g>
        </g>
    </g>
</svg>