<?xml version="1.0" encoding="utf-8"?>
<!-- Generator: Adobe Illustrator 18.1.0, SVG Export Plug-In . SVG Version: 6.00 Build 0)  -->
<!DOCTYPE svg PUBLIC "-//W3C//DTD SVG 1.1//EN" "http://www.w3.org/Graphics/SVG/1.1/DTD/svg11.dtd">
<svg version="1.1" id="Layer_1" xmlns:sketch="http://www.bohemiancoding.com/sketch/ns"
	 xmlns="http://www.w3.org/2000/svg" xmlns:xlink="http://www.w3.org/1999/xlink" x="0px" y="0px" viewBox="-1046 3192.7 83 62.2"
	 enable-background="new -1046 3192.7 83 62.2" xml:space="preserve">
<title>fastest-icon</title>
<desc>Created with Sketch.</desc>
<g>
	
		<rect x="-1043.7" y="3200.1" fill="#FFFFFF" stroke="#AEB9B8" stroke-linecap="round" stroke-linejoin="round" stroke-miterlimit="10" width="78.4" height="52.5"/>
	<path fill="#EDEEEF" stroke="#AEB9B8" d="M-965.3,3200.1h-78.4v-3.8c0-0.8,0.6-1.4,1.4-1.4h75.5c0.8,0,1.4,0.6,1.4,1.4V3200.1z"/>
	<circle fill="none" stroke="#AEB9B8" stroke-width="0.5" stroke-miterlimit="10" cx="-1040.5" cy="3197.5" r="0.9"/>
	<circle fill="none" stroke="#AEB9B8" stroke-width="0.5" stroke-miterlimit="10" cx="-1037.6" cy="3197.5" r="0.9"/>
	<circle fill="none" stroke="#AEB9B8" stroke-width="0.5" stroke-miterlimit="10" cx="-1034.7" cy="3197.5" r="0.9"/>
	<g>
		<path fill="none" stroke="#4E8DCB" stroke-linecap="round" stroke-linejoin="round" stroke-miterlimit="10" d="M-1018.4,3233.2
			c0.8,1.1,1.7,2.1,2.8,3v5.2l3.9-2.9c2.4,1.1,5.2,1.7,8.2,1.7c9.7,0,17.5-6.7,17.5-14.9s-7.8-14.9-17.5-14.9
			c-7,0-13.1,3.5-15.9,8.6h-3.7"/>
		<path fill="none" stroke="#4E8DCB" stroke-linecap="round" stroke-linejoin="round" stroke-miterlimit="10" d="M-1020.8,3227.9
			c0.2,1.2,0.7,2.4,1.2,3.5h-3"/>
		<path fill="none" stroke="#4E8DCB" stroke-linecap="round" stroke-linejoin="round" stroke-miterlimit="10" d="M-1020.4,3221.5
			c-0.4,1.3-0.6,2.6-0.6,3.9h-4.2"/>
		<g>
			
				<circle fill="none" stroke="#4E8DCB" stroke-linecap="round" stroke-linejoin="round" stroke-miterlimit="10" cx="-1011.6" cy="3225.9" r="2.4"/>
			
				<circle fill="none" stroke="#4E8DCB" stroke-linecap="round" stroke-linejoin="round" stroke-miterlimit="10" cx="-1003.5" cy="3225.9" r="2.4"/>
			
				<circle fill="none" stroke="#4E8DCB" stroke-linecap="round" stroke-linejoin="round" stroke-miterlimit="10" cx="-995.4" cy="3225.9" r="2.4"/>
		</g>
	</g>
	
		<line fill="none" stroke="#FFFFFF" stroke-linecap="round" stroke-linejoin="round" stroke-miterlimit="10" x1="-1028.2" y1="3221.2" x2="-1024.1" y2="3221.2"/>
	<g>
		
			<line fill="none" stroke="#4E8DCB" stroke-linecap="round" stroke-linejoin="round" stroke-miterlimit="10" x1="-1027.9" y1="3219.1" x2="-1025.3" y2="3219.1"/>
		
			<line fill="none" stroke="#4E8DCB" stroke-linecap="round" stroke-linejoin="round" stroke-miterlimit="10" x1="-1030.9" y1="3225.4" x2="-1027.3" y2="3225.4"/>
		
			<line fill="none" stroke="#4E8DCB" stroke-linecap="round" stroke-linejoin="round" stroke-miterlimit="10" x1="-1027.3" y1="3231.4" x2="-1024.7" y2="3231.4"/>
	</g>
</g>
</svg>
