<?xml version="1.0" encoding="utf-8"?>
<!-- Generator: Adobe Illustrator 18.1.1, SVG Export Plug-In . SVG Version: 6.00 Build 0)  -->
<!DOCTYPE svg PUBLIC "-//W3C//DTD SVG 1.1//EN" "http://www.w3.org/Graphics/SVG/1.1/DTD/svg11.dtd">
<svg version="1.1" id="Layer_1" xmlns:sketch="http://www.bohemiancoding.com/sketch/ns"
	 xmlns="http://www.w3.org/2000/svg" xmlns:xlink="http://www.w3.org/1999/xlink" x="0px" y="0px" viewBox="0 0 927.6 953.1"
	 enable-background="new 0 0 927.6 953.1" xml:space="preserve">
<title>Imported Layers</title>
<desc>Created with Sketch.</desc>
<g>
	<g>
		<path fill="#EF4725" d="M463.8,36.8c-78.3,42.1-131.5,124.8-131.5,219.9s53.2,177.8,131.5,219.9
			c78.3-42.1,131.5-124.8,131.5-219.9S542.1,78.9,463.8,36.8z"/>
		<path fill="#EF4725" d="M463.8,476.5c-78.3,42.1-131.5,124.8-131.5,219.9s53.2,177.8,131.5,219.9
			c78.3-42.1,131.5-124.8,131.5-219.9S542.1,518.6,463.8,476.5z"/>
	</g>
	<g>
		<path fill="#EF4725" d="M903.5,476.5C861.4,398.3,778.8,345,683.7,345s-177.8,53.2-219.9,131.5C505.9,554.8,588.5,608,683.7,608
			S861.4,554.8,903.5,476.5z"/>
		<path fill="#EF4725" d="M463.8,476.5C421.7,398.3,339,345,243.9,345S66.1,398.3,24,476.5C66.1,554.8,148.8,608,243.9,608
			S421.7,554.8,463.8,476.5z"/>
	</g>
	<g>
		<path fill="#EF4725" d="M774.7,165.6c-85.1-25.6-181.2-4.8-248.5,62.5s-88.1,163.3-62.5,248.5c85.1,25.6,181.2,4.8,248.5-62.5
			S800.3,250.7,774.7,165.6z"/>
		<path fill="#EF4725" d="M463.8,476.5c-85.1-25.6-181.2-4.8-248.5,62.5s-88.1,163.3-62.5,248.5c85.1,25.6,181.2,4.8,248.5-62.5
			S489.4,561.7,463.8,476.5z"/>
	</g>
	<g>
		<path fill="#EF4725" d="M152.8,165.6c-25.6,85.1-4.8,181.2,62.5,248.5s163.3,88.1,248.5,62.5c25.6-85.1,4.8-181.2-62.5-248.5
			S237.9,140,152.8,165.6z"/>
		<path fill="#EF4725" d="M463.8,476.5c-25.6,85.1-4.8,181.2,62.5,248.5s163.3,88.1,248.5,62.5c25.6-85.1,4.8-181.2-62.5-248.5
			S548.9,450.9,463.8,476.5z"/>
	</g>
	<circle fill="#FFFFFF" cx="463.8" cy="476.5" r="161"/>
</g>
</svg>
