<?xml version="1.0" encoding="utf-8"?>
<!-- Generator: Adobe Illustrator 18.1.1, SVG Export Plug-In . SVG Version: 6.00 Build 0)  -->
<svg version="1.0" id="Layer_1" xmlns:sketch="http://www.bohemiancoding.com/sketch/ns"
	 xmlns="http://www.w3.org/2000/svg" xmlns:xlink="http://www.w3.org/1999/xlink" x="0px" y="0px" viewBox="-107 -76 200 200"
	 enable-background="new -107 -76 200 200" xml:space="preserve">
<title>logo-ff-2015</title>
<desc>Created with Sketch.</desc>
<g id="Page-1" sketch:type="MSPage">
	<g id="logo-ff-2015" sketch:type="MSLayerGroup">
		<path id="Fill-1" sketch:type="MSShapeGroup" d="M-94.7,30.7v3.7h5V36h-5v5.2h-2.1V29h8.3v1.7H-94.7"/>
		<path id="Fill-2" sketch:type="MSShapeGroup" d="M-77.2,29c1.2,0,1.7,0.1,2.1,0.5c0.7,0.6,1.2,1.5,1.2,5.7c0,4.1-0.4,5-1.2,5.7
			c-0.4,0.4-0.9,0.5-2.1,0.5h-3.7c-1.2,0-1.7-0.1-2.1-0.5c-0.7-0.6-1.2-1.5-1.2-5.7c0-4.1,0.4-5,1.2-5.7c0.4-0.4,0.9-0.5,2.1-0.5
			H-77.2L-77.2,29z M-81.6,39.4c0.1,0.1,0.3,0.2,0.9,0.2h3.2c0.6,0,0.8-0.1,0.9-0.2c0.2-0.2,0.5-0.7,0.5-4.3c0-3.5-0.3-4.1-0.5-4.3
			c-0.1-0.1-0.3-0.2-0.9-0.2h-3.2c-0.6,0-0.8,0.1-0.9,0.2c-0.2,0.2-0.5,0.7-0.5,4.3C-82.1,38.7-81.8,39.2-81.6,39.4L-81.6,39.4z"/>
		<path id="Fill-3" sketch:type="MSShapeGroup" d="M-58.6,36.2c0,3.1-0.3,3.7-1,4.4c-0.6,0.6-1.5,0.7-3.2,0.7h-1.9
			c-1.7,0-2.5-0.2-3.1-0.7c-0.7-0.6-0.9-1.3-0.9-4.4V29h2.1v7.6c0,2.2,0.2,2.4,0.4,2.7c0.2,0.2,0.6,0.3,2,0.3h1.2
			c1.4,0,1.7-0.1,1.9-0.3c0.3-0.3,0.4-0.4,0.4-2.7V29h2.1V36.2"/>
		<path id="Fill-4" sketch:type="MSShapeGroup" d="M-42.7,41.3h-2.1c-0.5,0-0.7-0.1-1-0.6l-4.9-9H-51v9.6h-2V29h2.3
			c0.5,0,0.7,0.1,0.9,0.6l4.8,8.6h0.3V29h2V41.3"/>
		<path id="Fill-5" sketch:type="MSShapeGroup" d="M-31.5,29c1.6,0,2.4,0.2,3.1,0.9c0.8,0.7,1.3,2.3,1.3,5.3c0,3-0.4,4.5-1.3,5.3
			c-0.7,0.6-1.6,0.9-3.1,0.9h-5.6V29H-31.5L-31.5,29z M-29.9,31.1c-0.4-0.4-0.8-0.4-1.6-0.4H-35v8.9h3.5c0.8,0,1.2-0.1,1.6-0.4
			c0.5-0.4,0.7-1.3,0.7-4.1C-29.2,32.3-29.4,31.5-29.9,31.1L-29.9,31.1z"/>
		<path id="Fill-6" sketch:type="MSShapeGroup" d="M-13.1,41.3h-8.8V29h8.8v1.7h-6.7v3.4h5.6v1.7h-5.6v3.8h6.7V41.3"/>
		<path id="Fill-7" sketch:type="MSShapeGroup" d="M-1.2,36.4c-0.2-0.2-0.6-0.2-1.3-0.2h-3.6v5.1h-2.1V29h6.9c0.8,0,1.5,0.1,1.8,0.5
			c0.5,0.5,0.8,1.1,0.8,3c0,2.2-0.6,2.8-2.1,3v0c1.4,0.2,1.9,0.6,2,2.4c0.1,1.7,0.1,2.8,0.2,3.4h-2.1c-0.1-0.8-0.2-2-0.2-3.4
			C-0.8,36.9-0.9,36.7-1.2,36.4L-1.2,36.4z M-1.8,34.6c0.5,0,0.7-0.1,0.8-0.2c0.2-0.2,0.4-0.5,0.4-1.8c0-1.3-0.2-1.6-0.4-1.8
			c-0.1-0.1-0.3-0.1-0.8-0.1h-4.3v3.9H-1.8L-1.8,34.6z"/>
		<path id="Fill-8" sketch:type="MSShapeGroup" d="M15.5,40.7c-0.4,0.4-1,0.6-2,0.6H9.2c-1,0-1.6-0.1-2-0.5
			c-0.5-0.5-0.7-1.1-0.7-3.4h2c0,1.5,0.1,1.8,0.2,2c0.1,0.1,0.3,0.2,0.8,0.2h3.6c0.5,0,0.7-0.1,0.8-0.2c0.2-0.2,0.2-0.6,0.2-1.7
			c0-0.9,0-1.2-0.2-1.4c-0.1-0.1-0.3-0.2-0.8-0.2l-4.1-0.4c-0.9-0.1-1.5-0.3-1.9-0.6c-0.5-0.5-0.6-1.1-0.6-2.7
			c0-1.6,0.2-2.4,0.8-2.9c0.4-0.4,1-0.6,2-0.6h4c1,0,1.6,0.1,2,0.5c0.5,0.5,0.7,1.1,0.7,3.3h-2c0-1.4-0.1-1.8-0.2-1.9
			c-0.1-0.1-0.3-0.2-0.8-0.2H9.7c-0.5,0-0.7,0.1-0.8,0.2c-0.2,0.2-0.2,0.6-0.2,1.6c0,0.9,0,1.2,0.2,1.4C9,33.9,9.2,34,9.7,34
			l4.1,0.4c0.9,0.1,1.5,0.2,1.8,0.6c0.5,0.5,0.6,1.1,0.6,2.7C16.3,39.4,16.1,40.1,15.5,40.7"/>
		<path id="Fill-9" sketch:type="MSShapeGroup" d="M30.3,30.7v3.7h5V36h-5v5.2h-2.1V29h8.3v1.7H30.3"/>
		<path id="Fill-10" sketch:type="MSShapeGroup" d="M51.3,36.2c0,3.1-0.3,3.7-1,4.4c-0.6,0.6-1.5,0.7-3.2,0.7h-1.9
			c-1.7,0-2.5-0.2-3.1-0.7c-0.7-0.6-0.9-1.3-0.9-4.4V29h2.1v7.6c0,2.2,0.2,2.4,0.4,2.7c0.2,0.2,0.6,0.3,2,0.3h1.2
			c1.4,0,1.7-0.1,1.9-0.3c0.3-0.3,0.4-0.4,0.4-2.7V29h2.1V36.2"/>
		<path id="Fill-11" sketch:type="MSShapeGroup" d="M67.1,41.3H65c-0.5,0-0.7-0.1-1-0.6l-4.9-9h-0.3v9.6h-2V29h2.3
			c0.5,0,0.7,0.1,0.9,0.6l4.8,8.6h0.3V29h2V41.3"/>
		<path id="Fill-12" sketch:type="MSShapeGroup" d="M78.3,29c1.6,0,2.4,0.2,3.1,0.9c0.8,0.7,1.3,2.3,1.3,5.3c0,3-0.4,4.5-1.3,5.3
			c-0.7,0.6-1.6,0.9-3.1,0.9h-5.6V29H78.3L78.3,29z M79.9,31.1c-0.4-0.4-0.8-0.4-1.6-0.4h-3.5v8.9h3.5c0.8,0,1.2-0.1,1.6-0.4
			c0.5-0.4,0.7-1.3,0.7-4.1C80.6,32.3,80.4,31.5,79.9,31.1L79.9,31.1z"/>
		<path id="Fill-13" sketch:type="MSShapeGroup" fill="#EC292B" d="M-97.5,6.7h45.3v3.7h-45.3V6.7z"/>
		<path id="Fill-14" sketch:type="MSShapeGroup" fill="#175666" d="M38.2,6.7h45.3v3.7H38.2V6.7z"/>
		<path id="Fill-15" sketch:type="MSShapeGroup" fill="#95D6DA" d="M-52.3,6.7H-7v3.7h-45.3V6.7z"/>
		<path id="Fill-16" sketch:type="MSShapeGroup" fill="#33A8AD" d="M-7,6.7h45.3v3.7H-7V6.7z"/>
	</g>
</g>
</svg>
