<?xml version="1.0" encoding="utf-8"?>
<!-- Generator: Adobe Illustrator 17.0.0, SVG Export Plug-In . SVG Version: 6.00 Build 0)  -->
<!DOCTYPE svg PUBLIC "-//W3C//DTD SVG 1.1//EN" "http://www.w3.org/Graphics/SVG/1.1/DTD/svg11.dtd">
<svg version="1.1" id="Layer_1" xmlns="http://www.w3.org/2000/svg" xmlns:xlink="http://www.w3.org/1999/xlink" x="0px" y="0px"
	 width="69.25px" height="40px" viewBox="0 0 69.25 40" enable-background="new 0 0 69.25 40" xml:space="preserve">
<g>
	<g>
		<path fill="#4E8DCB" d="M21.272,38.612c-0.229,0-0.46-0.053-0.672-0.159c-0.507-0.255-0.828-0.773-0.828-1.341v-7.036
			c-5.032-3.01-7.898-7.358-7.898-12.042c0-8.749,10.208-15.866,22.757-15.866s22.757,7.117,22.757,15.866
			c0,8.749-10.209,15.866-22.757,15.866c-1.977,0-3.938-0.177-5.841-0.525l-6.62,4.939C21.905,38.512,21.589,38.612,21.272,38.612z
			 M34.63,5.168c-10.894,0-19.757,5.771-19.757,12.866c0,3.79,2.594,7.382,7.118,9.855c0.481,0.264,0.78,0.769,0.78,1.316v4.916
			l4.755-3.548c0.343-0.257,0.78-0.356,1.199-0.267c1.912,0.394,3.899,0.593,5.904,0.593c10.894,0,19.757-5.771,19.757-12.866
			C54.388,10.94,45.524,5.168,34.63,5.168z"/>
	</g>
	<g>
		<g>
			<circle fill="#4E8DCB" cx="24.803" cy="17.829" r="2.561"/>
		</g>
		<g>
			<circle fill="#4E8DCB" cx="34.63" cy="17.829" r="2.561"/>
		</g>
		<g>
			<circle fill="#4E8DCB" cx="44.458" cy="17.829" r="2.561"/>
		</g>
	</g>
</g>
</svg>
