<?xml version="1.0" encoding="utf-8"?>
<!-- Generator: Adobe Illustrator 17.0.0, SVG Export Plug-In . SVG Version: 6.00 Build 0)  -->
<!DOCTYPE svg PUBLIC "-//W3C//DTD SVG 1.1//EN" "http://www.w3.org/Graphics/SVG/1.1/DTD/svg11.dtd">
<svg version="1.1" id="Layer_1" xmlns="http://www.w3.org/2000/svg" xmlns:xlink="http://www.w3.org/1999/xlink" x="0px" y="0px"
	 width="69.25px" height="40px" viewBox="0 0 69.25 40" enable-background="new 0 0 69.25 40" xml:space="preserve">
<g>
	<g>
		<g>
			<path fill="#4E8DCB" d="M41.014,20.397c-0.228,0-0.457-0.052-0.668-0.157c-0.511-0.254-0.833-0.776-0.832-1.347l0.032-12.792
				c0.001-0.57,0.326-1.091,0.839-1.342c0.509-0.251,1.121-0.192,1.575,0.157l8.355,6.417c0.37,0.285,0.587,0.726,0.586,1.193
				c-0.001,0.467-0.22,0.907-0.593,1.19l-8.388,6.375C41.655,20.293,41.335,20.397,41.014,20.397z M42.538,9.143l-0.017,6.725
				l4.409-3.352L42.538,9.143z"/>
		</g>
		<g>
			<path fill="#4E8DCB" d="M40.9,14.001H18.129c-0.829,0-1.5-0.671-1.5-1.5s0.671-1.5,1.5-1.5H40.9c0.828,0,1.5,0.671,1.5,1.5
				S41.729,14.001,40.9,14.001z"/>
		</g>
	</g>
	<g>
		<g>
			<path fill="#4E8DCB" d="M26.485,35.63c-0.324,0-0.646-0.105-0.914-0.311l-8.355-6.417c-0.371-0.284-0.587-0.726-0.586-1.193
				c0.001-0.467,0.22-0.907,0.592-1.19l8.387-6.375c0.456-0.344,1.066-0.402,1.576-0.148c0.511,0.254,0.833,0.776,0.832,1.347
				l-0.032,12.792c-0.001,0.57-0.327,1.091-0.838,1.343C26.937,35.579,26.71,35.63,26.485,35.63z M20.6,27.719l4.392,3.374
				l0.017-6.725L20.6,27.719z"/>
		</g>
		<g>
			<path fill="#4E8DCB" d="M49.401,29.233H26.63c-0.829,0-1.5-0.672-1.5-1.5s0.671-1.5,1.5-1.5h22.771c0.828,0,1.5,0.672,1.5,1.5
				S50.229,29.233,49.401,29.233z"/>
		</g>
	</g>
</g>
</svg>
