<?xml version="1.0" encoding="utf-8"?>
<!-- Generator: Adobe Illustrator 17.0.0, SVG Export Plug-In . SVG Version: 6.00 Build 0)  -->
<!DOCTYPE svg PUBLIC "-//W3C//DTD SVG 1.1//EN" "http://www.w3.org/Graphics/SVG/1.1/DTD/svg11.dtd">
<svg version="1.1" id="Layer_1" xmlns="http://www.w3.org/2000/svg" xmlns:xlink="http://www.w3.org/1999/xlink" x="0px" y="0px"
	 width="186px" height="46px" viewBox="0 0 186 46" enable-background="new 0 0 186 46" xml:space="preserve">
<g>
	<path fill="#253351" d="M2.407,30.727c0-1.105,0.543-2.07,1.361-2.683c0.148-0.088,0.286-0.177,0.434-0.265
		c4.212-2.555,8.973-3.827,13.746-3.827c4.762,0,9.525,1.273,13.734,3.827c0.148,0.088,0.286,0.177,0.435,0.265
		c0.818,0.612,1.36,1.578,1.36,2.683c0,1.853-1.499,3.352-3.353,3.352c-0.7,0-1.351-0.217-1.892-0.582
		c-2.16-1.312-4.516-2.16-6.933-2.573v7.759c0,1.855-1.508,3.353-3.352,3.353c-1.853,0-3.362-1.499-3.362-3.353v-7.759
		c-2.416,0.413-4.773,1.261-6.933,2.573c-0.532,0.365-1.183,0.582-1.892,0.582C3.907,34.079,2.407,32.58,2.407,30.727z"/>
	<path fill="#4690DC" d="M3.768,20.689c0.148,0.088,0.286,0.178,0.434,0.266c1.488,0.903,3.048,1.638,4.651,2.221
		c2.931-1.068,6.009-1.607,9.095-1.607c3.078,0,6.155,0.54,9.083,1.607c1.603-0.583,3.162-1.317,4.651-2.221
		c0.148-0.088,0.286-0.178,0.434-0.266c0.818-0.61,1.361-1.578,1.361-2.682c0-1.853-1.499-3.353-3.353-3.353
		c-0.709,0-1.361,0.217-1.892,0.583c-2.16,1.312-4.516,2.16-6.933,2.573v-7.76c0-1.853-1.509-3.352-3.362-3.352
		c-1.844,0-3.352,1.499-3.352,3.352v7.76c-2.416-0.413-4.773-1.261-6.933-2.573c-0.54-0.366-1.191-0.582-1.891-0.582
		c-1.853,0-3.353,1.5-3.353,3.353C2.407,19.111,2.95,20.078,3.768,20.689z"/>
</g>
<g>
	<g>
		<g enable-background="new    ">
			<path fill="#253351" d="M46.832,29.892c1.104,0,1.908-0.187,2.412-0.561C49.746,28.958,50,28.429,50,27.746
				c0-0.405-0.086-0.755-0.256-1.048c-0.17-0.292-0.414-0.556-0.73-0.791c-0.317-0.236-0.704-0.456-1.158-0.658
				s-0.974-0.403-1.56-0.597c-0.584-0.21-1.149-0.442-1.694-0.694s-1.023-0.565-1.438-0.939c-0.414-0.373-0.748-0.82-1-1.34
				c-0.252-0.518-0.378-1.145-0.378-1.875c0-1.527,0.527-2.725,1.583-3.594c1.056-0.869,2.494-1.304,4.313-1.304
				c1.056,0,1.995,0.118,2.814,0.353c0.82,0.236,1.465,0.491,1.936,0.768l-0.949,2.486c-0.552-0.308-1.157-0.544-1.816-0.707
				c-0.657-0.162-1.336-0.244-2.034-0.244c-0.829,0-1.474,0.17-1.938,0.512s-0.695,0.821-0.695,1.438
				c0,0.373,0.077,0.694,0.231,0.961c0.155,0.269,0.374,0.509,0.657,0.72c0.284,0.212,0.617,0.407,1,0.584
				c0.381,0.179,0.8,0.351,1.255,0.513c0.795,0.292,1.507,0.588,2.133,0.89c0.625,0.3,1.153,0.658,1.583,1.071
				c0.431,0.414,0.76,0.901,0.987,1.462s0.34,1.239,0.34,2.034c0,1.527-0.54,2.709-1.621,3.546c-1.081,0.836-2.66,1.255-4.739,1.255
				c-0.699,0-1.336-0.044-1.913-0.134c-0.577-0.09-1.088-0.199-1.535-0.33c-0.447-0.13-0.834-0.264-1.158-0.403
				c-0.325-0.139-0.584-0.264-0.779-0.378l0.901-2.51c0.439,0.244,1.031,0.488,1.779,0.731
				C44.871,29.766,45.775,29.892,46.832,29.892z"/>
			<path fill="#253351" d="M67.225,25.823c0,0.974-0.125,1.868-0.375,2.679c-0.253,0.813-0.614,1.51-1.086,2.095
				c-0.471,0.584-1.06,1.04-1.765,1.365c-0.708,0.325-1.507,0.487-2.403,0.487c-0.601,0-1.152-0.073-1.656-0.219
				c-0.503-0.145-0.918-0.308-1.243-0.487v4.947h-2.948V19.852c0.6-0.162,1.34-0.317,2.217-0.464
				c0.878-0.145,1.804-0.218,2.778-0.218c1.007,0,1.91,0.153,2.704,0.462c0.796,0.308,1.477,0.751,2.036,1.327
				c0.561,0.575,0.99,1.274,1.291,2.095C67.075,23.877,67.225,24.799,67.225,25.823z M64.204,25.871c0-1.316-0.297-2.339-0.888-3.07
				c-0.594-0.73-1.547-1.096-2.864-1.096c-0.277,0-0.566,0.012-0.865,0.035c-0.301,0.026-0.596,0.078-0.891,0.158v7.286
				c0.261,0.179,0.607,0.345,1.038,0.5c0.429,0.155,0.888,0.231,1.375,0.231c1.073,0,1.857-0.365,2.352-1.096
				C63.958,28.088,64.204,27.106,64.204,25.871z"/>
			<path fill="#253351" d="M74.512,19.121c0.975,0,1.795,0.122,2.462,0.365c0.666,0.244,1.197,0.584,1.596,1.023
				s0.682,0.971,0.853,1.596c0.17,0.625,0.255,1.312,0.255,2.059v7.724c-0.455,0.097-1.142,0.216-2.059,0.353
				c-0.918,0.138-1.953,0.207-3.108,0.207c-0.764,0-1.461-0.073-2.095-0.219c-0.632-0.145-1.173-0.381-1.621-0.707
				c-0.447-0.325-0.795-0.747-1.048-1.268c-0.251-0.519-0.378-1.161-0.378-1.925c0-0.73,0.142-1.348,0.427-1.852
				c0.284-0.504,0.67-0.913,1.157-1.23c0.488-0.317,1.052-0.544,1.695-0.682c0.64-0.138,1.312-0.207,2.01-0.207
				c0.325,0,0.666,0.021,1.023,0.061c0.356,0.04,0.738,0.109,1.144,0.207V24.14c0-0.342-0.04-0.666-0.122-0.975
				c-0.081-0.308-0.223-0.579-0.426-0.816c-0.203-0.236-0.47-0.418-0.804-0.548c-0.332-0.131-0.751-0.195-1.255-0.195
				c-0.682,0-1.308,0.048-1.877,0.145s-1.031,0.212-1.388,0.342l-0.365-2.388c0.374-0.13,0.918-0.258,1.633-0.39
				C72.937,19.186,73.7,19.121,74.512,19.121z M74.755,30.111c0.91,0,1.6-0.048,2.072-0.145v-3.266
				c-0.162-0.048-0.399-0.097-0.707-0.145c-0.308-0.048-0.649-0.074-1.023-0.074c-0.325,0-0.653,0.026-0.987,0.074
				c-0.332,0.048-0.632,0.138-0.901,0.268c-0.268,0.131-0.483,0.313-0.645,0.549c-0.162,0.235-0.244,0.531-0.244,0.89
				c0,0.699,0.219,1.182,0.658,1.449C73.416,29.977,74.008,30.111,74.755,30.111z"/>
			<path fill="#253351" d="M90.545,22.094c-0.244-0.081-0.581-0.166-1.012-0.256c-0.43-0.088-0.93-0.134-1.497-0.134
				c-0.326,0-0.671,0.031-1.036,0.097c-0.365,0.065-0.622,0.122-0.768,0.17v10.209h-2.949V20.046
				c0.569-0.21,1.279-0.409,2.133-0.596c0.853-0.188,1.8-0.281,2.84-0.281c0.194,0,0.422,0.012,0.682,0.035
				c0.258,0.026,0.518,0.057,0.779,0.097c0.261,0.04,0.513,0.09,0.756,0.147c0.243,0.057,0.439,0.109,0.584,0.157L90.545,22.094z"/>
			<path fill="#253351" d="M96.052,24.408c0.374-0.39,0.771-0.808,1.194-1.255c0.422-0.447,0.838-0.894,1.243-1.34
				c0.405-0.447,0.792-0.878,1.158-1.291c0.365-0.414,0.678-0.777,0.939-1.084h3.485c-0.81,0.909-1.665,1.852-2.565,2.827
				c-0.9,0.974-1.804,1.923-2.712,2.849c0.487,0.407,0.997,0.897,1.533,1.475c0.535,0.578,1.055,1.19,1.556,1.839
				c0.503,0.651,0.973,1.3,1.41,1.949c0.438,0.651,0.803,1.252,1.095,1.804h-3.412c-0.294-0.504-0.63-1.031-1.01-1.584
				c-0.382-0.552-0.794-1.088-1.233-1.608c-0.438-0.519-0.886-1.01-1.339-1.474c-0.456-0.462-0.901-0.857-1.34-1.182v5.848h-2.949
				V13.761l2.949-0.487v11.134H96.052z"/>
			<path fill="#253351" d="M105.264,25.823c0-0.943,0.145-1.823,0.439-2.644c0.294-0.821,0.71-1.531,1.255-2.133
				s1.207-1.071,1.986-1.413s1.657-0.513,2.631-0.513c1.203,0,2.34,0.219,3.412,0.658l-0.634,2.412
				c-0.342-0.145-0.727-0.268-1.157-0.365c-0.431-0.097-0.89-0.147-1.378-0.147c-1.153,0-2.03,0.362-2.631,1.084
				c-0.601,0.723-0.9,1.743-0.9,3.059c0,1.268,0.283,2.27,0.852,3.008c0.569,0.739,1.527,1.109,2.875,1.109
				c0.504,0,1-0.048,1.487-0.145s0.909-0.219,1.268-0.365l0.414,2.436c-0.326,0.162-0.817,0.309-1.475,0.439
				c-0.657,0.13-1.335,0.195-2.034,0.195c-1.088,0-2.034-0.168-2.839-0.5c-0.805-0.332-1.471-0.795-1.999-1.388
				c-0.527-0.594-0.922-1.3-1.181-2.121C105.394,27.671,105.264,26.78,105.264,25.823z"/>
			<path fill="#253351" d="M116.764,25.871c0-1.121,0.166-2.104,0.5-2.949c0.332-0.844,0.777-1.547,1.327-2.108
				c0.552-0.56,1.186-0.982,1.901-1.268c0.714-0.284,1.445-0.426,2.192-0.426c1.755,0,3.122,0.544,4.105,1.633
				c0.983,1.09,1.474,2.714,1.474,4.874c0,0.162-0.004,0.345-0.012,0.548c-0.009,0.203-0.021,0.387-0.036,0.548h-8.407
				c0.081,1.023,0.443,1.816,1.084,2.377c0.642,0.561,1.571,0.839,2.79,0.839c0.714,0,1.368-0.065,1.961-0.194
				c0.594-0.131,1.06-0.269,1.401-0.414l0.39,2.412c-0.162,0.081-0.386,0.168-0.67,0.256c-0.284,0.088-0.609,0.17-0.975,0.244
				c-0.365,0.074-0.76,0.135-1.181,0.183c-0.423,0.049-0.853,0.074-1.292,0.074c-1.12,0-2.095-0.168-2.923-0.5
				c-0.829-0.332-1.51-0.795-2.047-1.388c-0.536-0.594-0.935-1.291-1.194-2.095C116.895,27.711,116.764,26.831,116.764,25.871z
				 M125.318,24.557c0-0.405-0.057-0.792-0.171-1.158c-0.114-0.366-0.281-0.682-0.5-0.949c-0.219-0.269-0.487-0.479-0.804-0.634
				c-0.316-0.153-0.694-0.231-1.133-0.231c-0.456,0-0.852,0.084-1.194,0.255c-0.342,0.171-0.63,0.395-0.865,0.671
				c-0.236,0.277-0.418,0.592-0.549,0.949c-0.13,0.357-0.219,0.723-0.268,1.097H125.318z"/>
			<path fill="#253351" d="M131.384,19.852c0.569-0.162,1.308-0.317,2.218-0.464c0.909-0.145,1.917-0.218,3.021-0.218
				c1.04,0,1.909,0.142,2.608,0.426c0.697,0.284,1.255,0.682,1.669,1.194c0.413,0.513,0.707,1.13,0.877,1.852
				c0.171,0.723,0.256,1.516,0.256,2.377v7.164h-2.949v-6.7c0-0.682-0.044-1.264-0.134-1.743c-0.09-0.479-0.236-0.869-0.439-1.169
				c-0.203-0.3-0.479-0.519-0.829-0.658c-0.351-0.138-0.777-0.207-1.279-0.207c-0.374,0-0.764,0.025-1.169,0.073
				c-0.405,0.049-0.707,0.09-0.901,0.122v10.283h-2.949V19.852H131.384z"/>
			<path fill="#253351" d="M145.492,16.076l2.949-0.487v3.849h4.531v2.461h-4.531v5.191c0,1.023,0.162,1.755,0.487,2.192
				c0.325,0.438,0.878,0.657,1.656,0.657c0.536,0,1.012-0.056,1.426-0.17c0.414-0.113,0.743-0.219,0.987-0.317l0.488,2.34
				c-0.342,0.145-0.788,0.296-1.34,0.451c-0.553,0.155-1.203,0.232-1.949,0.232c-0.909,0-1.669-0.123-2.278-0.366
				c-0.61-0.244-1.094-0.596-1.449-1.058c-0.357-0.462-0.61-1.023-0.756-1.682c-0.145-0.658-0.219-1.409-0.219-2.253V16.076H145.492
				z"/>
			<path fill="#253351" d="M163.086,22.094c-0.244-0.081-0.581-0.166-1.012-0.256c-0.43-0.088-0.93-0.134-1.497-0.134
				c-0.326,0-0.671,0.031-1.036,0.097c-0.365,0.065-0.622,0.122-0.768,0.17v10.209h-2.949V20.046
				c0.569-0.21,1.279-0.409,2.133-0.596c0.853-0.188,1.8-0.281,2.84-0.281c0.194,0,0.422,0.012,0.682,0.035
				c0.258,0.026,0.518,0.057,0.779,0.097c0.261,0.04,0.513,0.09,0.756,0.147c0.243,0.057,0.439,0.109,0.584,0.157L163.086,22.094z"
				/>
			<path fill="#253351" d="M169.885,19.121c0.975,0,1.795,0.122,2.462,0.365c0.666,0.244,1.197,0.584,1.596,1.023
				c0.399,0.439,0.682,0.971,0.853,1.596c0.17,0.625,0.255,1.312,0.255,2.059v7.724c-0.455,0.097-1.142,0.216-2.059,0.353
				c-0.918,0.138-1.953,0.207-3.108,0.207c-0.764,0-1.461-0.073-2.095-0.219c-0.632-0.145-1.173-0.381-1.621-0.707
				c-0.447-0.325-0.795-0.747-1.048-1.268c-0.251-0.519-0.378-1.161-0.378-1.925c0-0.73,0.142-1.348,0.427-1.852
				c0.284-0.504,0.67-0.913,1.157-1.23c0.488-0.317,1.052-0.544,1.695-0.682c0.64-0.138,1.312-0.207,2.01-0.207
				c0.325,0,0.666,0.021,1.023,0.061c0.356,0.04,0.738,0.109,1.144,0.207V24.14c0-0.342-0.04-0.666-0.122-0.975
				c-0.081-0.308-0.223-0.579-0.426-0.816c-0.203-0.236-0.47-0.418-0.804-0.548c-0.332-0.131-0.751-0.195-1.255-0.195
				c-0.682,0-1.308,0.048-1.877,0.145c-0.569,0.097-1.031,0.212-1.388,0.342l-0.365-2.388c0.374-0.13,0.918-0.258,1.633-0.39
				C168.31,19.186,169.074,19.121,169.885,19.121z M170.128,30.111c0.91,0,1.6-0.048,2.072-0.145v-3.266
				c-0.162-0.048-0.399-0.097-0.707-0.145s-0.649-0.074-1.023-0.074c-0.325,0-0.653,0.026-0.987,0.074
				c-0.332,0.048-0.632,0.138-0.901,0.268c-0.268,0.131-0.483,0.313-0.645,0.549c-0.162,0.235-0.244,0.531-0.244,0.89
				c0,0.699,0.219,1.182,0.658,1.449C168.789,29.977,169.381,30.111,170.128,30.111z"/>
			<path fill="#253351" d="M183.092,32.426c-0.878-0.017-1.604-0.114-2.181-0.292c-0.577-0.179-1.036-0.435-1.378-0.769
				c-0.342-0.332-0.581-0.747-0.72-1.242c-0.138-0.496-0.206-1.06-0.206-1.695V13.761l2.949-0.487V27.87
				c0,0.357,0.027,0.658,0.084,0.901c0.057,0.243,0.158,0.452,0.304,0.622c0.145,0.171,0.345,0.3,0.597,0.391
				c0.251,0.088,0.571,0.157,0.962,0.207L183.092,32.426z"/>
		</g>
	</g>
</g>
</svg>
