<?xml version="1.0" encoding="UTF-8" standalone="no"?>
<svg width="115px" height="32px" viewBox="0 0 115 32" version="1.1" xmlns="http://www.w3.org/2000/svg" xmlns:xlink="http://www.w3.org/1999/xlink" xmlns:sketch="http://www.bohemiancoding.com/sketch/ns">
    <!-- Generator: Sketch 3.2.2 (9983) - http://www.bohemiancoding.com/sketch -->
    <title>Netflix</title>
    <desc>Created with Sketch.</desc>
    <defs></defs>
    <g id="Welcome" stroke="none" stroke-width="1" fill="none" fill-rule="evenodd" sketch:type="MSPage">
        <g id="Netflix" sketch:type="MSLayerGroup" transform="translate(-48.000000, -32.000000)">
            <rect id="Rectangle-87" opacity="0" fill="#EDEFF0" sketch:type="MSShapeGroup" x="0" y="0" width="199" height="95"></rect>
            <g id="Imported-Layers" transform="translate(48.398026, 32.500893)" fill="#71777B" sketch:type="MSShapeGroup">
                <path d="M90.0214669,28.4796094 C90.0214669,28.4796094 91.1651496,28.5358956 93.1267462,28.6764072 L93.1267462,0.0827978618 L90.0214669,0.0876923167 L90.0214669,28.4796094 Z M37.7429668,2.93789655 L41.1249236,2.93789655 L41.1249236,27.8135556 C41.1249236,27.8135556 41.8514333,27.7572694 44.2219868,27.7017989 L44.2367758,2.94421855 L47.6610456,2.94421855 L47.6610456,0.0897316729 L37.7429668,0.0891198661 L37.7429668,2.93789655 Z M9.23573074,24.6621385 L9.01615516,24.6886501 L5.23653855,0.0919749648 L0.202116339,0.0856529605 L0.204170366,30.9598744 C0.204170366,30.9598744 1.20407111,30.8177313 3.32957911,30.5756597 L3.11082515,7.11143902 L3.32937371,7.09043365 L6.92494943,30.2100031 C6.92494943,30.2100031 8.15407968,30.0658206 12.3348479,29.65591 L12.3348479,0.0876923167 L9.12337541,0.0891198661 L9.23573074,24.6619346 L9.23573074,24.6621385 Z M114.154856,0.0827978618 L110.655203,0.0827978618 L108.896956,11.1146952 L108.690115,11.1146952 L106.866755,0.0827978618 L103.429955,0.0827978618 L106.11457,13.7281302 L103.519922,29.6760997 L106.857511,29.9913841 L108.576733,16.8432468 L108.787887,16.8467137 L110.454114,30.3617312 L114.115213,30.7683788 L111.499204,14.1176473 L114.154856,0.0827978618 Z M77.1759877,0.0793309563 L74.0579734,0.0856529605 L74.0579734,27.7136272 C74.0579734,27.7136272 76.1711573,27.7715449 81.2653517,27.9966898 L81.2653517,25.1952262 C81.2653517,25.1952262 80.695359,25.1358809 77.1759877,25.0155589 L77.1759877,0.0793309563 Z M22.6848888,28.8189582 C22.6848888,28.8189582 24.5252977,28.6937418 29.8479,28.3537811 L29.8479,25.531516 L25.8240595,25.8064213 L25.8240595,15.9159516 L29.8479,15.9128925 L29.8479,13.0355648 L25.8078327,13.0369924 L25.8078327,2.94075164 L29.8608404,2.94075164 L29.8608404,0.0854490249 L22.6848888,0.0891198661 L22.6848888,28.8189582 Z M57.0142667,27.4872586 L60.1602157,27.4872586 L60.1602157,15.9159516 L64.1830292,15.911465 L64.1830292,13.034953 L60.1448105,13.0369924 L60.1448105,2.94075164 L64.1980236,2.94075164 L64.1980236,0.0856529605 L57.0142667,0.0876923167 L57.0142667,27.4872586 Z" id="Fill-1"></path>
            </g>
        </g>
    </g>
</svg>