<?xml version="1.0" encoding="utf-8"?>
<!-- Generator: Adobe Illustrator 18.1.1, SVG Export Plug-In . SVG Version: 6.00 Build 0)  -->
<svg version="1.0" id="Layer_1" xmlns="http://www.w3.org/2000/svg" xmlns:xlink="http://www.w3.org/1999/xlink" x="0px" y="0px"
	 viewBox="0 0 800 600" enable-background="new 0 0 800 600" xml:space="preserve">
<g>
	<g>
		<path fill="#FFFFFF" stroke="#B5C0C3" stroke-width="3.4" stroke-miterlimit="10" d="M530.5,215.3v284.5c0,2.4-1.9,4.3-4.3,4.3
			H114.5c-2.4,0-4.3-1.9-4.3-4.3V215.3"/>
		<path fill="#E0E2E2" stroke="#B5C0C3" stroke-width="3.4" stroke-miterlimit="10" d="M530.5,215.3H110.2v-35.2
			c0-2.6,2.1-4.7,4.7-4.7h410.9c2.6,0,4.7,2.1,4.7,4.7V215.3L530.5,215.3z"/>
		<g>
			
				<ellipse fill="#FFFFFF" stroke="#B4BFC2" stroke-width="2.6463" stroke-miterlimit="10" cx="129.1" cy="195.4" rx="7.4" ry="7.4"/>
			<ellipse fill="#FFFFFF" stroke="#B4BFC2" stroke-width="2.6463" stroke-miterlimit="10" cx="153" cy="195.4" rx="7.4" ry="7.4"/>
			
				<ellipse fill="#FFFFFF" stroke="#B4BFC2" stroke-width="2.6463" stroke-miterlimit="10" cx="176.9" cy="195.4" rx="7.4" ry="7.4"/>
		</g>
		<g>
			<path opacity="0.5" fill="#82C1EA" enable-background="new    " d="M293.8,262.6H225c-0.4,0-0.9-0.4-0.9-0.9v-8.5
				c0-0.4,0.4-0.9,0.9-0.9h68.8c0.4,0,0.9,0.4,0.9,0.9v8.5C294.7,262.3,294.4,262.6,293.8,262.6z"/>
			<path fill="#E0E1E1" d="M369.1,274.3H225c-0.4,0-0.9-0.4-0.9-0.9v-5.6c0-0.4,0.4-0.9,0.9-0.9h144.1c0.4,0,0.9,0.4,0.9,0.9v5.6
				C370,273.9,369.6,274.3,369.1,274.3z"/>
			<path fill="#E0E1E1" d="M368.9,286H225.2c-0.6,0-1-0.4-1-1v-5.2c0-0.6,0.4-1,1-1h143.7c0.6,0,1,0.4,1,1v5.2
				C370,285.5,369.5,286,368.9,286z"/>
		</g>
		<g>
			<path fill="#B7B7B7" d="M242.7,401.5h-68.2c-0.7,0-1.2-0.5-1.2-1.2v-7.8c0-0.7,0.5-1.2,1.2-1.2h68.2c0.7,0,1.2,0.5,1.2,1.2v7.8
				C243.9,401,243.4,401.5,242.7,401.5z"/>
			<path fill="#E0E1E1" d="M507.1,413.2H174.6c-0.7,0-1.2-0.5-1.2-1.2v-4.9c0-0.7,0.5-1.2,1.2-1.2h332.5c0.7,0,1.2,0.5,1.2,1.2v4.9
				C508.3,412.7,507.8,413.2,507.1,413.2z"/>
			<path fill="#E0E1E1" d="M507.1,424.9H174.6c-0.7,0-1.2-0.5-1.2-1.2v-4.9c0-0.7,0.5-1.2,1.2-1.2h332.5c0.7,0,1.2,0.5,1.2,1.2v4.9
				C508.3,424.4,507.8,424.9,507.1,424.9z"/>
			<g>
				<path fill="#E0E1E1" d="M132.9,418.2l7.8-2.9l0.7-2.2c1,0.6,2.1,0.9,3.2,0.9s2.3-0.4,3.3-1l0.7,2.3l7.8,2.9c0,0,0.4,0.1,1,0.9
					c2.7-3,4.3-6.9,4.3-11.3c0-9.4-7.6-17-17-17s-17,7.6-17,17c0,4.4,1.6,8.3,4.3,11.3C132.5,418.3,132.9,418.2,132.9,418.2z
					 M144.6,396.3c2.7,0,5,1.9,6.1,4.7c-2,1.3-2.4,1.1-2.4,1.1c-0.1-0.1-0.1-0.2-0.1-0.4c-0.1-0.4-0.3-0.9-0.8-1.1s-1.2-0.1-2.1,0.4
					c-3.1,1.5-5.8-0.1-6.5-0.7C139.9,397.9,142.1,396.3,144.6,396.3z M138.2,401.5c1.1,0.7,4.1,2.3,7.5,0.7c0.7-0.3,1-0.4,1.1-0.4
					s0.1,0,0.1,0c0.1,0.1,0.1,0.2,0.1,0.4c0.1,0.4,0.3,0.9,0.9,1.1c0.1,0.1,0.3,0.1,0.4,0.1c0.7,0,1.5-0.4,2.7-1.1
					c0.2,0.7,0.3,1.6,0.3,2.4c0,3.6-2,6.7-4.7,7.8c-0.7,0.3-1.4,0.4-2.1,0.4c-0.8,0-1.6-0.2-2.4-0.5c-2.6-1.2-4.5-4.2-4.5-7.8
					C137.8,403.5,137.9,402.4,138.2,401.5z"/>
				<g>
					<path fill="#B7B7B7" d="M144.7,424.7c5,0,9.6-2.2,12.7-5.7c-0.5-0.7-1-0.9-1-0.9l-7.8-2.9l-0.7-2.3c-1,0.6-2.1,1-3.3,1
						s-2.2-0.3-3.2-0.9l-0.7,2.2l-7.8,2.9c0,0-0.4,0.1-1,0.9C135.1,422.6,139.6,424.7,144.7,424.7z"/>
					<path fill="#B7B7B7" d="M142.2,412.3c0.7,0.3,1.6,0.5,2.4,0.5c0.7,0,1.5-0.1,2.1-0.4c2.7-1.1,4.7-4.2,4.7-7.8
						c0-0.8-0.1-1.6-0.3-2.4c-1.3,0.8-2.1,1.1-2.7,1.1c-0.1,0-0.3,0-0.4-0.1c-0.6-0.2-0.7-0.7-0.9-1.1c0-0.1-0.1-0.3-0.1-0.4
						c0,0,0,0-0.1,0s-0.4,0.1-1.1,0.4c-3.4,1.6-6.4,0.1-7.5-0.7c-0.3,1-0.5,2-0.5,3C137.8,408.1,139.6,411.1,142.2,412.3z"/>
					<path fill="#B7B7B7" d="M145.2,401c1-0.5,1.7-0.6,2.1-0.4c0.5,0.2,0.7,0.7,0.8,1.1c0,0.1,0.1,0.3,0.1,0.4c0,0,0.4,0.1,2.4-1.1
						c-1.1-2.8-3.5-4.7-6.1-4.7c-2.5,0-4.7,1.6-5.9,4.1C139.4,400.9,142.2,402.6,145.2,401z"/>
				</g>
			</g>
		</g>
		<g>
			<g>
				<g>
					<g>
						<path fill="#82C1EA" d="M138.5,283.8l16-6l1.3-4.5c2,1.2,4.2,1.8,6.6,1.8c2.4,0,4.8-0.7,6.8-1.9l1.3,4.7l16,6
							c0,0,1,0.2,1.9,1.8c5.5-6.1,8.8-14.3,8.8-23.1c0-19.2-15.6-34.8-34.8-34.8s-34.8,15.6-34.8,34.8c0,8.9,3.3,17,8.8,23.1
							C137.6,284,138.5,283.8,138.5,283.8z M162.5,238.9c5.5,0,10.3,3.9,12.6,9.6c-4,2.5-4.9,2.3-5,2.3c-0.1-0.1-0.2-0.4-0.3-0.7
							c-0.2-0.7-0.5-1.8-1.6-2.2c-1-0.4-2.4-0.2-4.4,0.8c-6.4,3.1-11.8-0.4-13.3-1.4C152.9,242.2,157.3,238.9,162.5,238.9z
							 M149.5,249.5c2.3,1.6,8.3,4.7,15.3,1.3c1.4-0.7,2-0.7,2.3-0.7c0.1,0,0.1,0,0.1,0c0.1,0.1,0.2,0.5,0.3,0.7
							c0.2,0.7,0.6,1.8,1.8,2.3c0.3,0.1,0.6,0.1,1,0.1c1.3,0,3-0.7,5.7-2.4c0.4,1.6,0.6,3.2,0.6,4.9c0,7.5-4,13.8-9.5,16
							c-1.4,0.6-2.9,0.9-4.4,0.9c-1.7,0-3.3-0.4-4.8-1c-5.3-2.4-9.2-8.6-9.2-15.9C148.4,253.6,148.8,251.4,149.5,249.5z"/>
					</g>
				</g>
				<g>
					<path fill="#63A3D8" d="M162.5,297.2c10.3,0,19.6-4.5,26-11.7c-1-1.6-1.9-1.8-1.9-1.8l-16-6l-1.3-4.7c-2.1,1.3-4.4,1.9-6.8,1.9
						c-2.4,0-4.6-0.7-6.6-1.8l-1.3,4.5l-16,6c0,0-1,0.2-1.9,1.8C143,292.7,152.2,297.2,162.5,297.2z"/>
				</g>
				<g>
					<path fill="#63A3D8" d="M157.6,271.6c1.5,0.7,3.1,1,4.8,1c1.6,0,3-0.3,4.4-0.9c5.5-2.2,9.5-8.6,9.5-16c0-1.7-0.2-3.3-0.6-4.9
						c-2.6,1.6-4.4,2.4-5.7,2.4c-0.4,0-0.7-0.1-1-0.1c-1.2-0.4-1.6-1.6-1.8-2.3c-0.1-0.2-0.2-0.7-0.3-0.7c0,0,0,0-0.1,0
						c-0.2,0-0.9,0.1-2.3,0.7c-6.9,3.4-13,0.2-15.3-1.3c-0.7,1.9-1,4.1-1,6.3C148.4,263,152.3,269.2,157.6,271.6z"/>
				</g>
				<g>
					<path fill="#63A3D8" d="M163.6,248.6c2.1-1,3.4-1.3,4.4-0.8c1.1,0.4,1.4,1.6,1.6,2.2c0.1,0.2,0.2,0.6,0.3,0.7
						c0.1,0,1,0.2,5-2.3c-2.3-5.7-7.1-9.6-12.6-9.6c-5.1,0-9.6,3.3-12,8.3C151.8,248.2,157.4,251.7,163.6,248.6z"/>
				</g>
			</g>
		</g>
		<g>
			<g>
				<path fill="#B7B7B7" d="M242.7,457.4h-68.2c-0.7,0-1.2-0.5-1.2-1.2v-7.8c0-0.7,0.5-1.2,1.2-1.2h68.2c0.7,0,1.2,0.5,1.2,1.2v7.8
					C243.9,456.9,243.4,457.4,242.7,457.4z"/>
				<path fill="#E0E1E1" d="M507.1,469H174.6c-0.7,0-1.2-0.5-1.2-1.2V463c0-0.7,0.5-1.2,1.2-1.2h332.5c0.7,0,1.2,0.5,1.2,1.2v4.9
					C508.3,468.5,507.8,469,507.1,469z"/>
				<path fill="#E0E1E1" d="M507.1,480.7H174.6c-0.7,0-1.2-0.5-1.2-1.2v-4.9c0-0.7,0.5-1.2,1.2-1.2h332.5c0.7,0,1.2,0.5,1.2,1.2v4.9
					C508.3,480.1,507.8,480.7,507.1,480.7z"/>
			</g>
			<g>
				<g>
					<g>
						<g>
							<path fill="#B7B7B7" d="M132.9,474.6l7.8-2.9l0.7-2.2c1,0.6,2.1,0.9,3.2,0.9s2.3-0.4,3.3-1l0.7,2.3l7.8,2.9
								c0,0,0.4,0.1,1,0.9c2.7-3,4.3-6.9,4.3-11.3c0-9.4-7.6-17-17-17s-17,7.6-17,17c0,4.4,1.6,8.3,4.3,11.3
								C132.4,474.7,132.9,474.6,132.9,474.6z M144.5,452.7c2.7,0,5,1.9,6.1,4.7c-2,1.3-2.4,1.1-2.4,1.1c-0.1-0.1-0.1-0.2-0.1-0.4
								c-0.1-0.4-0.3-0.9-0.8-1.1s-1.2-0.1-2.1,0.4c-3.1,1.5-5.8-0.1-6.5-0.7C139.9,454.3,142,452.7,144.5,452.7z M138.2,457.8
								c1.1,0.7,4.1,2.3,7.5,0.7c0.7-0.3,1-0.4,1.1-0.4s0.1,0,0.1,0c0.1,0.1,0.1,0.2,0.1,0.4c0.1,0.4,0.3,0.9,0.9,1.1
								c0.1,0.1,0.3,0.1,0.4,0.1c0.7,0,1.5-0.4,2.7-1.2c0.2,0.7,0.3,1.6,0.3,2.4c0,3.6-2,6.7-4.7,7.8c-0.7,0.3-1.4,0.4-2.1,0.4
								c-0.8,0-1.6-0.2-2.4-0.5c-2.6-1.2-4.5-4.2-4.5-7.8C137.7,459.8,137.9,458.8,138.2,457.8z"/>
						</g>
					</g>
					<g>
						<path fill="#E0E1E1" d="M144.6,481.2c5,0,9.6-2.2,12.7-5.7c-0.5-0.7-1-0.9-1-0.9l-7.8-2.9l-0.7-2.3c-1,0.6-2.1,1-3.3,1
							s-2.2-0.3-3.2-0.9l-0.7,2.2l-7.8,2.9c0,0-0.4,0.1-1,0.9C135,478.9,139.6,481.2,144.6,481.2z"/>
					</g>
					<g>
						<path fill="#E0E1E1" d="M142.2,468.6c0.7,0.3,1.6,0.5,2.4,0.5c0.7,0,1.5-0.1,2.1-0.4c2.7-1.1,4.7-4.2,4.7-7.8
							c0-0.8-0.1-1.6-0.3-2.4c-1.3,0.8-2.1,1.2-2.7,1.2c-0.1,0-0.3,0-0.4-0.1c-0.6-0.2-0.7-0.7-0.9-1.1c0-0.1-0.1-0.3-0.1-0.4
							c0,0,0,0-0.1,0s-0.4,0.1-1.1,0.4c-3.4,1.6-6.4,0.1-7.5-0.7c-0.3,1-0.5,2-0.5,3C137.7,464.5,139.6,467.5,142.2,468.6z"/>
					</g>
					<g>
						<path fill="#E0E1E1" d="M145.1,457.4c1-0.5,1.7-0.6,2.1-0.4c0.5,0.2,0.7,0.7,0.8,1.1c0,0.1,0.1,0.3,0.1,0.4
							c0,0,0.4,0.1,2.4-1.1c-1.1-2.8-3.5-4.7-6.1-4.7c-2.5,0-4.7,1.6-5.9,4.1C139.4,457.2,142.1,458.9,145.1,457.4z"/>
					</g>
				</g>
			</g>
		</g>
		<g>
			<g>
				<path fill="#B7B7B7" d="M242.7,344.1h-68.2c-0.7,0-1.2-0.5-1.2-1.2v-7.8c0-0.7,0.5-1.2,1.2-1.2h68.2c0.7,0,1.2,0.5,1.2,1.2v7.8
					C243.9,343.6,243.4,344.1,242.7,344.1z"/>
				<path fill="#E0E1E1" d="M507.1,355.8H174.6c-0.7,0-1.2-0.5-1.2-1.2v-4.9c0-0.7,0.5-1.2,1.2-1.2h332.5c0.7,0,1.2,0.5,1.2,1.2v4.9
					C508.3,355.2,507.8,355.8,507.1,355.8z"/>
				<path fill="#E0E1E1" d="M507.1,367.4H174.6c-0.7,0-1.2-0.5-1.2-1.2v-4.9c0-0.7,0.5-1.2,1.2-1.2h332.5c0.7,0,1.2,0.5,1.2,1.2v4.9
					C508.3,366.8,507.8,367.4,507.1,367.4z"/>
			</g>
			<g>
				<g>
					<g>
						<g>
							<path fill="#B7B7B7" d="M132.9,361.3l7.8-2.9l0.7-2.2c1,0.6,2.1,0.9,3.2,0.9s2.3-0.4,3.3-1l0.7,2.3l7.8,2.9
								c0,0,0.4,0.1,1,0.9c2.7-3,4.3-6.9,4.3-11.3c0-9.4-7.6-17-17-17s-17,7.6-17,17c0,4.4,1.6,8.3,4.3,11.3
								C132.4,361.4,132.9,361.3,132.9,361.3z M144.5,339.4c2.7,0,5,1.9,6.1,4.7c-2,1.3-2.4,1.1-2.4,1.1c-0.1-0.1-0.1-0.2-0.1-0.4
								c-0.1-0.4-0.3-0.9-0.8-1.1s-1.2-0.1-2.1,0.4c-3.1,1.5-5.8-0.1-6.5-0.7C139.9,341,142,339.4,144.5,339.4z M138.2,344.5
								c1.1,0.7,4.1,2.3,7.5,0.7c0.7-0.3,1-0.4,1.1-0.4s0.1,0,0.1,0c0.1,0.1,0.1,0.2,0.1,0.4c0.1,0.4,0.3,0.9,0.9,1.1
								c0.1,0.1,0.3,0.1,0.4,0.1c0.7,0,1.5-0.4,2.7-1.1c0.2,0.7,0.3,1.6,0.3,2.4c0,3.6-2,6.7-4.7,7.8c-0.7,0.3-1.4,0.4-2.1,0.4
								c-0.8,0-1.6-0.2-2.4-0.5c-2.6-1.2-4.5-4.2-4.5-7.8C137.7,346.5,137.9,345.5,138.2,344.5z"/>
						</g>
					</g>
					<g>
						<path fill="#E0E1E1" d="M144.6,367.9c5,0,9.6-2.2,12.7-5.7c-0.5-0.7-1-0.9-1-0.9l-7.8-2.9l-0.7-2.3c-1,0.6-2.1,1-3.3,1
							s-2.2-0.3-3.2-0.9l-0.7,2.2l-7.8,2.9c0,0-0.4,0.1-1,0.9C135,365.7,139.6,367.9,144.6,367.9z"/>
					</g>
					<g>
						<path fill="#E0E1E1" d="M142.2,355.3c0.7,0.3,1.6,0.5,2.4,0.5c0.7,0,1.5-0.1,2.1-0.4c2.7-1.1,4.7-4.2,4.7-7.8
							c0-0.8-0.1-1.6-0.3-2.4c-1.3,0.8-2.1,1.1-2.7,1.1c-0.1,0-0.3,0-0.4-0.1c-0.6-0.2-0.7-0.7-0.9-1.1c0-0.1-0.1-0.3-0.1-0.4
							c0,0,0,0-0.1,0s-0.4,0.1-1.1,0.4c-3.4,1.6-6.4,0.1-7.5-0.7c-0.3,1-0.5,2-0.5,3C137.7,351.2,139.6,354.2,142.2,355.3z"/>
					</g>
					<g>
						<path fill="#E0E1E1" d="M145.1,344.1c1-0.5,1.7-0.6,2.1-0.4c0.5,0.2,0.7,0.7,0.8,1.1c0,0.1,0.1,0.3,0.1,0.4
							c0,0,0.4,0.1,2.4-1.1c-1.1-2.8-3.5-4.7-6.1-4.7c-2.5,0-4.7,1.6-5.9,4.1C139.4,343.9,142.1,345.6,145.1,344.1z"/>
					</g>
				</g>
			</g>
		</g>
		<rect x="111.9" y="308.2" fill="#E0E1E1" width="417.4" height="2.7"/>
		<g>
			<path fill="#E0E1E1" d="M507.5,261.2h-52.3c-0.4,0-0.8-0.4-0.8-0.8v-4.2c0-0.4,0.4-0.8,0.8-0.8h52.3c0.4,0,0.8,0.4,0.8,0.8v4.2
				C508.3,260.8,507.9,261.2,507.5,261.2z"/>
			<path fill="#E0E1E1" d="M507.5,251.6h-52.3c-0.4,0-0.8-0.4-0.8-0.8v-4.2c0-0.4,0.4-0.8,0.8-0.8h52.3c0.4,0,0.8,0.4,0.8,0.8v4.2
				C508.3,251.2,507.9,251.6,507.5,251.6z"/>
			<path fill="#E0E1E1" d="M507.5,270.6h-52.3c-0.4,0-0.8-0.4-0.8-0.8v-4.2c0-0.4,0.4-0.8,0.8-0.8h52.3c0.4,0,0.8,0.4,0.8,0.8v4.2
				C508.3,270.2,507.9,270.6,507.5,270.6z"/>
		</g>
		<g>
			<polygon fill="#63A3D8" points="230.9,235.5 233,239.6 237.5,240.2 234.2,243.4 235,247.9 230.9,245.8 226.9,247.9 227.7,243.4 
				224.4,240.2 228.9,239.6 			"/>
			<g>
				<path fill="#82C1EA" d="M241.6,238.3c-0.1-0.1,0-0.4,0.2-0.4h1.2c0.1,0,0.2,0.1,0.2,0.1l2.4,5.3h0.1l2.4-5.3
					c0-0.1,0.1-0.1,0.2-0.1h1.2c0.2,0,0.2,0.1,0.2,0.4l-3.8,8.3c0,0.1-0.1,0.1-0.2,0.1h-0.1c-0.1,0-0.1-0.1-0.2-0.1L241.6,238.3z"/>
				<path fill="#82C1EA" d="M250.9,238.3c0-0.1,0.1-0.2,0.2-0.2h1.1c0.1,0,0.2,0.1,0.2,0.2v8c0,0.1-0.1,0.2-0.2,0.2h-1.1
					c-0.1,0-0.2-0.1-0.2-0.2V238.3z"/>
				<path fill="#82C1EA" d="M254.7,238.3c0-0.1,0.1-0.2,0.2-0.2h2.9c1.6,0,2.8,1.2,2.8,2.8s-1.2,2.8-2.8,2.8h-1.6v2.9
					c0,0.1-0.1,0.2-0.2,0.2h-1.1c-0.1,0-0.2-0.1-0.2-0.2V238.3z M257.7,242.1c0.7,0,1.3-0.6,1.3-1.3c0-0.7-0.6-1.2-1.3-1.2h-1.4v2.4
					h1.4V242.1z"/>
			</g>
		</g>
	</g>
	<g>
		<path fill="#FFFFFF" d="M561.2,555.3H394.6c-20.4,0-37-16.6-37-37V81.7c0-20.4,16.6-37,37-37h166.6c20.4,0,37,16.6,37,37v436.6
			C598.2,538.8,581.7,555.3,561.2,555.3z"/>
		<path fill="#B5C0C3" d="M561.2,557H394.6c-21.3,0-38.7-17.4-38.7-38.7V81.7c0-21.3,17.4-38.7,38.7-38.7h166.6
			c21.3,0,38.7,17.4,38.7,38.7v436.6C599.9,539.7,582.6,557,561.2,557z M394.6,46.4c-19.5,0-35.3,15.8-35.3,35.3v436.6
			c0,19.5,15.8,35.3,35.3,35.3h166.6c19.5,0,35.3-15.8,35.3-35.3V81.7c0-19.5-15.8-35.3-35.3-35.3C561.2,46.4,394.6,46.4,394.6,46.4
			z"/>
	</g>
	<g>
		<circle fill="#E0E2E2" cx="477.9" cy="518.7" r="21.2"/>
		<path fill="#B5C0C3" d="M477.9,541.6c-12.6,0-22.9-10.3-22.9-22.9c0-12.6,10.3-22.9,22.9-22.9s22.9,10.3,22.9,22.9
			C500.9,531.3,490.6,541.6,477.9,541.6z M477.9,499.1c-10.8,0-19.5,8.8-19.5,19.5c0,10.7,8.8,19.5,19.5,19.5
			c10.8,0,19.5-8.8,19.5-19.5S488.7,499.1,477.9,499.1z"/>
	</g>
	<g>
		<rect x="371.5" y="115.4" fill="#FFFFFF" width="211.6" height="366.6"/>
		<path fill="#B5C0C3" d="M584.9,483.7h-215v-370h215V483.7z M373.2,480.3h208.3V117.1H373.2V480.3z"/>
	</g>
	<g>
		<path fill="#E0E2E2" d="M493,94.2h-30.1c-2,0-3.6-1.6-3.6-3.6v-0.5c0-2,1.6-3.6,3.6-3.6H493c2,0,3.6,1.6,3.6,3.6v0.5
			C496.6,92.6,495,94.2,493,94.2z"/>
		<path fill="#B5C0C3" d="M493,95.9h-30.1c-2.9,0-5.3-2.4-5.3-5.3v-0.5c0-2.9,2.4-5.3,5.3-5.3H493c2.9,0,5.3,2.4,5.3,5.3v0.5
			C498.3,93.5,495.9,95.9,493,95.9z M462.9,88.2c-1,0-1.9,0.8-1.9,1.9v0.5c0,1,0.8,1.9,1.9,1.9H493c1,0,1.9-0.8,1.9-1.9v-0.5
			c0-1-0.8-1.9-1.9-1.9H462.9z"/>
	</g>
	<polygon opacity="0.4" fill="#B5C0C3" enable-background="new    " points="357.6,505 320.4,505 346.3,174.5 357.6,174.5 	"/>
	<g>
		<g>
			<g>
				<path fill="#74C044" d="M668.3,233.4H501.4c-11.9,0-21.5-9.6-21.5-21.5v-43c0-11.9,9.6-21.5,21.5-21.5h166.9
					c11.9,0,21.5,9.6,21.5,21.5v43C689.8,223.8,680.2,233.4,668.3,233.4z"/>
			</g>
			<path fill="#74C044" d="M483.5,219.1c0,0-1,9-5.5,15.1c-0.2,0.2,0,0.5,0.3,0.5c3.1-0.6,15.2-3.4,22.9-14.8L483.5,219.1z"/>
		</g>
		<g>
			<g>
				<path fill="#FFFFFF" d="M497.6,163.9c-0.1-0.4,0.1-0.7,0.6-0.7h2.8c0.2,0,0.5,0.2,0.6,0.4l3.2,12.2h0.1l4.9-12.6
					c0.1-0.2,0.2-0.3,0.5-0.3h0.6c0.3,0,0.5,0.2,0.5,0.3l4.9,12.6h0.1l3.1-12.2c0.1-0.2,0.3-0.4,0.6-0.4h2.8c0.4,0,0.7,0.3,0.6,0.7
					l-5.8,20.6c-0.1,0.2-0.3,0.4-0.6,0.4h-0.5c-0.3,0-0.5-0.2-0.5-0.3l-5.5-13.9h-0.2l-5.4,13.9c-0.1,0.2-0.2,0.3-0.5,0.3H504
					c-0.2,0-0.5-0.2-0.6-0.4L497.6,163.9z"/>
				<path fill="#FFFFFF" d="M529.7,172c3.2,0,5.7,2.4,5.7,5.7c0,0.2,0,0.6-0.1,0.8c0,0.3-0.3,0.5-0.6,0.5h-7.8
					c0.1,1.3,1.2,2.7,2.9,2.7c0.9,0,1.8-0.4,2.4-0.8c0.3-0.2,0.6-0.2,0.8,0l1.3,1.4c0.2,0.2,0.3,0.6,0,0.8c-1,0.9-2.6,1.7-4.6,1.7
					c-3.7,0-6.3-2.9-6.3-6.4C523.4,175,526,172,529.7,172z M531.8,176.9c-0.1-1.1-1.1-2.1-2.2-2.1c-1.2,0-2.2,0.9-2.4,2.1H531.8z"/>
				<path fill="#FFFFFF" d="M537.9,163.7c0-0.3,0.3-0.6,0.6-0.6h2.6c0.3,0,0.6,0.3,0.6,0.6V184c0,0.3-0.3,0.6-0.6,0.6h-2.6
					c-0.3,0-0.6-0.3-0.6-0.6V163.7z"/>
				<path fill="#FFFFFF" d="M550.9,172c1.9,0,3.4,0.8,4.5,2.2c0.2,0.3,0.2,0.6-0.2,0.9l-1.4,1.3c-0.3,0.2-0.6,0.1-0.8-0.1
					c-0.5-0.6-1.3-1-2.1-1c-1.7,0-3,1.4-3,3.1c0,1.7,1.3,3.1,3,3.1c1.3,0,1.9-0.6,2.4-1.2c0.2-0.2,0.5-0.3,0.8-0.1l1.3,1.1
					c0.3,0.2,0.4,0.6,0.2,0.9c-1,1.6-2.7,2.6-4.8,2.6c-3.5,0-6.5-2.8-6.5-6.4C544.4,174.8,547.5,172,550.9,172z"/>
				<path fill="#FFFFFF" d="M563.7,172c3.5,0,6.3,2.9,6.3,6.4s-2.8,6.5-6.3,6.5s-6.3-2.9-6.3-6.5C557.4,175,560.3,172,563.7,172z
					 M563.7,181.6c1.6,0,2.9-1.4,2.9-3.2c0-1.7-1.3-3.1-2.9-3.1c-1.7,0-2.9,1.4-2.9,3.1C560.8,180.2,562.1,181.6,563.7,181.6z"/>
				<path fill="#FFFFFF" d="M572.7,172.9c0-0.3,0.3-0.6,0.6-0.6h1.1c0.3,0,0.5,0.2,0.5,0.3l0.4,1.2c0.5-0.6,1.9-1.8,4.1-1.8
					c1.7,0,3,0.7,4,1.9c0.5-0.6,2.1-1.9,4.3-1.9c3.9,0,5.4,2.9,5.4,6.1v5.8c0,0.3-0.2,0.6-0.6,0.6H590c-0.3,0-0.6-0.3-0.6-0.6v-6.1
					c0-1.6-0.8-2.6-2.3-2.6c-1.8,0-2.6,1.3-2.6,1.3s0,0.6,0,1.2v6.2c0,0.3-0.3,0.6-0.6,0.6h-2.3c-0.3,0-0.6-0.3-0.6-0.6v-6.1
					c0-1.6-0.7-2.6-2.3-2.6c-1.5,0-2.3,1.1-2.6,1.9v6.7c0,0.3-0.3,0.6-0.6,0.6H573c-0.3,0-0.6-0.3-0.6-0.6v-10.9H572.7z"/>
				<path fill="#FFFFFF" d="M601.9,172c3.2,0,5.7,2.4,5.7,5.7c0,0.2,0,0.6-0.1,0.8c0,0.3-0.3,0.5-0.6,0.5h-7.8
					c0.1,1.3,1.2,2.7,2.9,2.7c0.9,0,1.8-0.4,2.4-0.8c0.3-0.2,0.6-0.2,0.8,0l1.3,1.4c0.2,0.2,0.3,0.6,0,0.8c-1,0.9-2.6,1.7-4.6,1.7
					c-3.7,0-6.3-2.9-6.3-6.4C595.6,175,598.2,172,601.9,172z M604,176.9c-0.1-1.1-1.1-2.1-2.2-2.1c-1.2,0-2.2,0.9-2.4,2.1H604z"/>
				<path fill="#FFFFFF" d="M616.9,163.7c0-0.3,0.3-0.6,0.6-0.6h2.6c0.3,0,0.6,0.3,0.6,0.6v8.8c0.6-0.2,1.5-0.6,2.7-0.6
					c3.6,0,6.1,2.8,6.1,6.4c0,3.5-2.5,6.4-5.9,6.4c-2.6,0-4-1.8-4-1.8l-0.3,0.9c-0.1,0.3-0.3,0.6-0.6,0.6h-1.2
					c-0.3,0-0.6-0.3-0.6-0.6L616.9,163.7L616.9,163.7z M623.1,181.6c1.6,0,2.8-1.4,2.8-3.1c0-1.7-1.3-3.1-3-3.1
					c-1.5,0-2.4,0.7-2.4,0.7v3.5C620.8,180.3,621.5,181.6,623.1,181.6z"/>
				<path fill="#FFFFFF" d="M636.2,176.8c1.2,0,2.2,0.3,2.2,0.3c0-1.6-0.5-2.1-1.6-2.1s-2.7,0.2-3.4,0.5c-0.4,0.1-0.6-0.2-0.7-0.6
					l-0.3-1.6c-0.1-0.5,0.2-0.7,0.4-0.8s2.2-0.6,4.2-0.6c3.8,0,4.7,2,4.7,5.3v6.6c0,0.3-0.3,0.6-0.6,0.6H640c-0.2,0-0.4-0.1-0.5-0.4
					l-0.4-0.8c-0.7,0.6-1.8,1.6-3.7,1.6c-2.4,0-4.1-1.6-4.1-4.2C631.3,178.5,633.1,176.8,636.2,176.8z M636.3,182.3
					c1,0,1.9-0.8,2.1-1.2v-1.7c0,0-0.8-0.4-1.7-0.4c-1.2,0-2,0.7-2,1.7C634.7,181.6,635.3,182.3,636.3,182.3z"/>
				<path fill="#FFFFFF" d="M650.9,172c1.9,0,3.4,0.8,4.5,2.2c0.2,0.3,0.2,0.6-0.2,0.9l-1.4,1.3c-0.3,0.2-0.6,0.1-0.8-0.1
					c-0.5-0.6-1.3-1-2.1-1c-1.7,0-3,1.4-3,3.1c0,1.7,1.3,3.1,3,3.1c1.3,0,1.9-0.6,2.4-1.2c0.2-0.2,0.5-0.3,0.8-0.1l1.3,1.1
					c0.3,0.2,0.4,0.6,0.2,0.9c-1,1.6-2.7,2.6-4.8,2.6c-3.5,0-6.5-2.8-6.5-6.4C644.3,174.8,647.4,172,650.9,172z"/>
				<path fill="#FFFFFF" d="M658.3,163.7c0-0.3,0.3-0.6,0.6-0.6h2.6c0.3,0,0.6,0.3,0.6,0.6V177l4.2-4.3c0.2-0.2,0.4-0.4,0.8-0.4h2.8
					c0.5,0,0.7,0.6,0.4,0.9l-4.6,4.7l5.4,5.8c0.3,0.3,0.1,0.9-0.4,0.9h-3.3c-0.2,0-0.4-0.1-0.5-0.2l-4.8-5.5v5.2
					c0,0.3-0.3,0.6-0.6,0.6h-2.6c-0.3,0-0.6-0.3-0.6-0.6L658.3,163.7L658.3,163.7z"/>
				<path fill="#FFFFFF" d="M499.5,197c0-0.3,0.2-0.6,0.6-0.6h7c3.6,0,6.5,2.4,6.5,5.7c0,2.4-1.9,4.2-3.4,4.9c1.6,0.5,4,2.2,4,5
					c0,3.4-2.9,5.9-6.7,5.9h-7.4c-0.3,0-0.6-0.3-0.6-0.6L499.5,197L499.5,197z M506.7,205.5c1.6,0,2.6-1.2,2.6-2.8
					c0-1.5-1.1-2.6-2.6-2.6h-3.3v5.4L506.7,205.5L506.7,205.5z M507.2,214.3c1.5,0,2.8-1.2,2.8-2.8c0-1.5-1.5-2.7-3.1-2.7h-3.3v5.4
					h3.6V214.3z"/>
				<path fill="#FFFFFF" d="M522.5,205.3c3.2,0,5.7,2.4,5.7,5.7c0,0.2,0,0.6-0.1,0.8c0,0.3-0.3,0.5-0.6,0.5h-7.8
					c0.1,1.3,1.2,2.7,2.9,2.7c0.9,0,1.8-0.4,2.4-0.8c0.3-0.2,0.6-0.2,0.8,0l1.3,1.4c0.2,0.2,0.3,0.6,0,0.8c-1,0.9-2.6,1.7-4.6,1.7
					c-3.7,0-6.3-2.9-6.3-6.4C516.2,208.3,518.8,205.3,522.5,205.3z M524.6,210.2c-0.1-1.1-1.1-2.1-2.2-2.1c-1.2,0-2.2,0.9-2.4,2.1
					H524.6z"/>
				<path fill="#FFFFFF" d="M530.8,206.2c0-0.3,0.3-0.6,0.6-0.6h1.2c0.3,0,0.4,0.2,0.5,0.4l0.4,1.1c0.5-0.5,2-1.8,4.3-1.8
					c3.9,0,5.4,2.9,5.4,6.1v5.9c0,0.3-0.3,0.6-0.6,0.6h-2.5c-0.3,0-0.6-0.3-0.6-0.6v-6.1c0-1.6-0.8-2.6-2.3-2.6
					c-1.6,0-2.6,1.1-2.9,1.9v6.7c0,0.4-0.2,0.6-0.8,0.6h-2.3c-0.3,0-0.6-0.3-0.6-0.6v-11H530.8z"/>
				<path fill="#FFFFFF" d="M549.3,213.1c1.4,0,2.5,1.2,2.5,2.5c0,1.4-1.1,2.5-2.5,2.5c-1.3,0-2.5-1.1-2.5-2.5
					C546.8,214.3,547.9,213.1,549.3,213.1z M548.2,209.1l-1.2-8.5V197c0-0.3,0.3-0.6,0.6-0.6h3.4c0.3,0,0.6,0.3,0.6,0.6v3.4
					l-1.2,8.6c0,0.2-0.3,0.5-0.6,0.5h-1C548.5,209.6,548.3,209.3,548.2,209.1z"/>
			</g>
		</g>
	</g>
	<ellipse opacity="0.3" fill="#AAB8BF" enable-background="new    " cx="477.5" cy="344.3" rx="59.5" ry="8.5"/>
	<g>
		<g>
			<path fill="#62A5DA" d="M516.7,345.1h-78.4c-1.4,0-2.6-1.2-2.6-2.6v-85.2c0-1.4,1.2-2.6,2.6-2.6h78.4c1.4,0,2.6,1.2,2.6,2.6v85.2
				C519.2,343.9,518.1,345.1,516.7,345.1z"/>
		</g>
		<g>
			<path fill="#BFCED8" d="M508.1,324.9h-22c-1.5,0-2.6-1.2-2.6-2.6v-22c0-1.5,1.2-2.6,2.6-2.6h22c1.5,0,2.6,1.2,2.6,2.6v22
				C510.8,323.7,509.6,324.9,508.1,324.9z"/>
		</g>
		<g>
			<path fill="#FFFFFF" d="M469.3,297.6H450c-1.5,0-2.8,1.2-2.8,2.8v44.9H472v-44.9C472.1,298.9,470.8,297.6,469.3,297.6z"/>
		</g>
		<g>
			<rect x="450" y="300.2" fill="#BFCED8" width="19.4" height="19.4"/>
		</g>
		<g>
			<circle fill="#62A5DA" cx="467.9" cy="324.9" r="1.6"/>
		</g>
		<g>
			<g>
				<g>
					<path fill="#BFCED8" d="M446.2,281.9c0,5.7-4.6,10.4-10.4,10.4s-10.4-4.6-10.4-10.4"/>
				</g>
				<g>
					<path fill="#FFFFFF" d="M467,281.9c0,5.7-4.6,10.4-10.4,10.4c-5.7,0-10.4-4.6-10.4-10.4"/>
				</g>
				<g>
					<path fill="#BFCED8" d="M487.7,281.9c0,5.7-4.6,10.4-10.4,10.4s-10.4-4.6-10.4-10.4"/>
				</g>
				<g>
					<path fill="#FFFFFF" d="M508.5,281.9c0,5.7-4.6,10.4-10.4,10.4s-10.4-4.6-10.4-10.4"/>
				</g>
				<g>
					<path fill="#BFCED8" d="M529.2,281.9c0,5.7-4.6,10.4-10.4,10.4s-10.4-4.6-10.4-10.4"/>
				</g>
			</g>
			<g>
				<polygon fill="#AAB8BF" points="519.2,262 435.5,262 425.5,281.9 529.2,281.9 				"/>
			</g>
			<g opacity="0.7">
				<polygon fill="#FFFFFF" points="446.2,281.9 451.7,262 469.1,262 467.1,281.9 				"/>
			</g>
			<g opacity="0.7">
				<polygon fill="#FFFFFF" points="508.5,281.9 503,262 485.6,262 487.5,281.9 				"/>
			</g>
			<g>
				<polygon fill="#AAB8BF" points="485.6,262 469.1,262 467,281.9 487.7,281.9 				"/>
			</g>
		</g>
		<g opacity="0.7">
			
				<rect x="503.8" y="302.6" transform="matrix(-0.7071 -0.7071 0.7071 -0.7071 648.7916 874.3918)" fill="#FFFFFF" stroke="#FFFFFF" stroke-width="1.7" stroke-linejoin="round" stroke-miterlimit="10" width="3.4" height="0.5"/>
		</g>
		<g opacity="0.7">
			
				<rect x="497.2" y="305.2" transform="matrix(-0.7071 -0.7071 0.7071 -0.7071 640.7955 876.3421)" fill="#FFFFFF" stroke="#FFFFFF" stroke-width="1.7" stroke-linejoin="round" stroke-miterlimit="10" width="9.4" height="0.6"/>
		</g>
		<g opacity="0.7">
			
				<rect x="486.5" y="318.2" transform="matrix(-0.7071 -0.7071 0.7071 -0.7071 611.5001 890.1376)" fill="#FFFFFF" stroke="#FFFFFF" stroke-width="1.7" stroke-linejoin="round" stroke-miterlimit="10" width="7.2" height="0.5"/>
		</g>
		<g>
			<path fill="#AAB8BF" d="M521.7,254.8c0-0.1,0-0.1,0-0.2l0,0c-0.2-1.3-1.3-2.2-2.7-2.2h-83.2c-1.4,0-2.5,1-2.7,2.2l0,0
				c0,0.1,0,0.1,0,0.2c0,0.1,0,0.1,0,0.2l0,0c0.2,1.3,1.3,2.2,2.7,2.2H519c1.4,0,2.5-1,2.7-2.2l0,0
				C521.7,254.9,521.7,254.8,521.7,254.8z"/>
		</g>
	</g>
</g>
</svg>
