<?xml version="1.0" encoding="utf-8"?>
<!-- Generator: Adobe Illustrator 18.1.1, SVG Export Plug-In . SVG Version: 6.00 Build 0)  -->
<svg version="1.0" id="Layer_1" xmlns="http://www.w3.org/2000/svg" xmlns:xlink="http://www.w3.org/1999/xlink" x="0px" y="0px"
	 viewBox="0 0 800 600" enable-background="new 0 0 800 600" xml:space="preserve">
<g>
	<g>
		<g>
			<path fill="#FFFFFF" stroke="#B5C0C3" stroke-width="3.4" stroke-miterlimit="10" d="M551.2,215.3v284.5c0,2.4-1.9,4.3-4.3,4.3
				H135.2c-2.4,0-4.3-1.9-4.3-4.3V215.3"/>
			<path fill="#E0E2E2" stroke="#B5C0C3" stroke-width="3.4" stroke-miterlimit="10" d="M551.2,215.3H130.9v-35.2
				c0-2.6,2.1-4.7,4.7-4.7h410.9c2.6,0,4.7,2.1,4.7,4.7V215.3L551.2,215.3z"/>
			<g>
				
					<ellipse fill="#FFFFFF" stroke="#B4BFC2" stroke-width="2.6463" stroke-miterlimit="10" cx="149.8" cy="195.4" rx="7.4" ry="7.4"/>
				
					<ellipse fill="#FFFFFF" stroke="#B4BFC2" stroke-width="2.6463" stroke-miterlimit="10" cx="173.7" cy="195.4" rx="7.4" ry="7.4"/>
				
					<ellipse fill="#FFFFFF" stroke="#B4BFC2" stroke-width="2.6463" stroke-miterlimit="10" cx="197.6" cy="195.4" rx="7.4" ry="7.4"/>
			</g>
			<g>
				<path opacity="0.5" fill="#82C1EA" enable-background="new    " d="M314.6,262.6h-68.8c-0.4,0-0.9-0.4-0.9-0.9v-8.5
					c0-0.4,0.4-0.9,0.9-0.9h68.8c0.4,0,0.9,0.4,0.9,0.9v8.5C315.4,262.3,315.1,262.6,314.6,262.6z"/>
				<path fill="#E0E1E1" d="M389.8,274.3H245.7c-0.4,0-0.9-0.4-0.9-0.9v-5.6c0-0.4,0.4-0.9,0.9-0.9h144.1c0.4,0,0.9,0.4,0.9,0.9v5.6
					C390.7,273.9,390.3,274.3,389.8,274.3z"/>
				<path fill="#E0E1E1" d="M389.7,286H245.9c-0.6,0-1-0.4-1-1v-5.2c0-0.6,0.4-1,1-1h143.7c0.6,0,1,0.4,1,1v5.2
					C390.7,285.5,390.2,286,389.7,286z"/>
			</g>
			<g>
				<path fill="#B7B7B7" d="M263.4,401.5h-68.2c-0.7,0-1.2-0.5-1.2-1.2v-7.8c0-0.7,0.5-1.2,1.2-1.2h68.2c0.7,0,1.2,0.5,1.2,1.2v7.8
					C264.6,401,264.1,401.5,263.4,401.5z"/>
				<path fill="#E0E1E1" d="M527.8,413.2H195.3c-0.7,0-1.2-0.5-1.2-1.2v-4.9c0-0.7,0.5-1.2,1.2-1.2h332.5c0.7,0,1.2,0.5,1.2,1.2v4.9
					C529,412.7,528.5,413.2,527.8,413.2z"/>
				<path fill="#E0E1E1" d="M527.8,424.9H195.3c-0.7,0-1.2-0.5-1.2-1.2v-4.9c0-0.7,0.5-1.2,1.2-1.2h332.5c0.7,0,1.2,0.5,1.2,1.2v4.9
					C529,424.4,528.5,424.9,527.8,424.9z"/>
				<g>
					<path fill="#E0E1E1" d="M153.6,418.2l7.8-2.9l0.7-2.2c1,0.6,2.1,0.9,3.2,0.9s2.3-0.4,3.3-1l0.7,2.3l7.8,2.9c0,0,0.4,0.1,1,0.9
						c2.7-3,4.3-6.9,4.3-11.3c0-9.4-7.6-17-17-17s-17,7.6-17,17c0,4.4,1.6,8.3,4.3,11.3C153.2,418.3,153.6,418.2,153.6,418.2z
						 M165.3,396.3c2.7,0,5,1.9,6.1,4.7c-2,1.3-2.4,1.1-2.4,1.1c-0.1-0.1-0.1-0.2-0.1-0.4c-0.1-0.4-0.3-0.9-0.8-1.1
						s-1.2-0.1-2.1,0.4c-3.1,1.5-5.8-0.1-6.5-0.7C160.6,397.9,162.8,396.3,165.3,396.3z M159,401.5c1.1,0.7,4.1,2.3,7.5,0.7
						c0.7-0.3,1-0.4,1.1-0.4s0.1,0,0.1,0c0.1,0.1,0.1,0.2,0.1,0.4c0.1,0.4,0.3,0.9,0.9,1.1c0.1,0.1,0.3,0.1,0.4,0.1
						c0.7,0,1.5-0.4,2.7-1.1c0.2,0.7,0.3,1.6,0.3,2.4c0,3.6-2,6.7-4.7,7.8c-0.7,0.3-1.4,0.4-2.1,0.4c-0.8,0-1.6-0.2-2.4-0.5
						c-2.6-1.2-4.5-4.2-4.5-7.8C158.5,403.5,158.7,402.4,159,401.5z"/>
					<g>
						<path fill="#B7B7B7" d="M165.4,424.7c5,0,9.6-2.2,12.7-5.7c-0.5-0.7-1-0.9-1-0.9l-7.8-2.9l-0.7-2.3c-1,0.6-2.1,1-3.3,1
							s-2.2-0.3-3.2-0.9l-0.7,2.2l-7.8,2.9c0,0-0.4,0.1-1,0.9C155.8,422.6,160.4,424.7,165.4,424.7z"/>
						<path fill="#B7B7B7" d="M162.9,412.3c0.7,0.3,1.6,0.5,2.4,0.5c0.7,0,1.5-0.1,2.1-0.4c2.7-1.1,4.7-4.2,4.7-7.8
							c0-0.8-0.1-1.6-0.3-2.4c-1.3,0.8-2.1,1.1-2.7,1.1c-0.1,0-0.3,0-0.4-0.1c-0.6-0.2-0.7-0.7-0.9-1.1c0-0.1-0.1-0.3-0.1-0.4
							c0,0,0,0-0.1,0s-0.4,0.1-1.1,0.4c-3.4,1.6-6.4,0.1-7.5-0.7c-0.3,1-0.5,2-0.5,3C158.5,408.1,160.4,411.1,162.9,412.3z"/>
						<path fill="#B7B7B7" d="M165.9,401c1-0.5,1.7-0.6,2.1-0.4c0.5,0.2,0.7,0.7,0.8,1.1c0,0.1,0.1,0.3,0.1,0.4c0,0,0.4,0.1,2.4-1.1
							c-1.1-2.8-3.5-4.7-6.1-4.7c-2.5,0-4.7,1.6-5.9,4.1C160.1,400.9,162.9,402.6,165.9,401z"/>
					</g>
				</g>
			</g>
			<g>
				<g>
					<g>
						<g>
							<path fill="#82C1EA" d="M159.2,283.8l16-6l1.3-4.5c2,1.2,4.2,1.8,6.6,1.8c2.4,0,4.8-0.7,6.8-1.9l1.3,4.7l16,6
								c0,0,1,0.2,1.9,1.8c5.5-6.1,8.8-14.3,8.8-23.1c0-19.2-15.6-34.8-34.8-34.8s-34.8,15.6-34.8,34.8c0,8.9,3.3,17,8.8,23.1
								C158.3,284,159.2,283.8,159.2,283.8z M183.2,238.9c5.5,0,10.3,3.9,12.6,9.6c-4,2.5-4.9,2.3-5,2.3c-0.1-0.1-0.2-0.4-0.3-0.7
								c-0.2-0.7-0.5-1.8-1.6-2.2c-1-0.4-2.4-0.2-4.4,0.8c-6.4,3.1-11.8-0.4-13.3-1.4C173.6,242.2,178,238.9,183.2,238.9z
								 M170.2,249.5c2.3,1.6,8.3,4.7,15.3,1.3c1.4-0.7,2-0.7,2.3-0.7c0.1,0,0.1,0,0.1,0c0.1,0.1,0.2,0.5,0.3,0.7
								c0.2,0.7,0.6,1.8,1.8,2.3c0.3,0.1,0.6,0.1,1,0.1c1.3,0,3-0.7,5.7-2.4c0.4,1.6,0.6,3.2,0.6,4.9c0,7.5-4,13.8-9.5,16
								c-1.4,0.6-2.9,0.9-4.4,0.9c-1.7,0-3.3-0.4-4.8-1c-5.3-2.4-9.2-8.6-9.2-15.9C169.1,253.6,169.5,251.4,170.2,249.5z"/>
						</g>
					</g>
					<g>
						<path fill="#63A3D8" d="M183.2,297.2c10.3,0,19.6-4.5,26-11.7c-1-1.6-1.9-1.8-1.9-1.8l-16-6L190,273c-2.1,1.3-4.4,1.9-6.8,1.9
							c-2.4,0-4.6-0.7-6.6-1.8l-1.3,4.5l-16,6c0,0-1,0.2-1.9,1.8C163.7,292.7,172.9,297.2,183.2,297.2z"/>
					</g>
					<g>
						<path fill="#63A3D8" d="M178.3,271.6c1.5,0.7,3.1,1,4.8,1c1.6,0,3-0.3,4.4-0.9c5.5-2.2,9.5-8.6,9.5-16c0-1.7-0.2-3.3-0.6-4.9
							c-2.6,1.6-4.4,2.4-5.7,2.4c-0.4,0-0.7-0.1-1-0.1c-1.2-0.4-1.6-1.6-1.8-2.3c-0.1-0.2-0.2-0.7-0.3-0.7c0,0,0,0-0.1,0
							c-0.2,0-0.9,0.1-2.3,0.7c-6.9,3.4-13,0.2-15.3-1.3c-0.7,1.9-1,4.1-1,6.3C169.1,263,173,269.2,178.3,271.6z"/>
					</g>
					<g>
						<path fill="#63A3D8" d="M184.4,248.6c2.1-1,3.4-1.3,4.4-0.8c1.1,0.4,1.4,1.6,1.6,2.2c0.1,0.2,0.2,0.6,0.3,0.7
							c0.1,0,1,0.2,5-2.3c-2.3-5.7-7.1-9.6-12.6-9.6c-5.1,0-9.6,3.3-12,8.3C172.5,248.2,178.1,251.7,184.4,248.6z"/>
					</g>
				</g>
			</g>
			<g>
				<g>
					<path fill="#B7B7B7" d="M263.4,457.4h-68.2c-0.7,0-1.2-0.5-1.2-1.2v-7.8c0-0.7,0.5-1.2,1.2-1.2h68.2c0.7,0,1.2,0.5,1.2,1.2v7.8
						C264.6,456.9,264.1,457.4,263.4,457.4z"/>
					<path fill="#E0E1E1" d="M527.8,469H195.3c-0.7,0-1.2-0.5-1.2-1.2V463c0-0.7,0.5-1.2,1.2-1.2h332.5c0.7,0,1.2,0.5,1.2,1.2v4.9
						C529,468.5,528.5,469,527.8,469z"/>
					<path fill="#E0E1E1" d="M527.8,480.7H195.3c-0.7,0-1.2-0.5-1.2-1.2v-4.9c0-0.7,0.5-1.2,1.2-1.2h332.5c0.7,0,1.2,0.5,1.2,1.2
						v4.9C529,480.1,528.5,480.7,527.8,480.7z"/>
				</g>
				<g>
					<g>
						<path fill="#EF3D23" d="M151.9,472.3l11-18.9c1.1-1.7,3.6-1.7,4.7,0l11,18.9c1.3,1.9-0.1,4.5-2.4,4.5h-21.9
							C152,476.8,150.6,474.2,151.9,472.3z"/>
					</g>
					<g>
						<path fill="#FFFFFF" d="M165.2,469.4c0.9,0,1.6,0.7,1.6,1.6s-0.7,1.6-1.6,1.6c-0.9,0-1.6-0.7-1.6-1.6
							C163.6,470.2,164.4,469.4,165.2,469.4z M164.6,467.6l-0.8-4.7V461c0-0.2,0.2-0.3,0.3-0.3h2.3c0.2,0,0.3,0.2,0.3,0.3v1.9
							l-0.8,4.7c0,0.1-0.2,0.3-0.3,0.3h-0.7C164.7,467.9,164.6,467.8,164.6,467.6z"/>
					</g>
				</g>
			</g>
			<g>
				<g>
					<path fill="#B7B7B7" d="M263.4,344.1h-68.2c-0.7,0-1.2-0.5-1.2-1.2v-7.8c0-0.7,0.5-1.2,1.2-1.2h68.2c0.7,0,1.2,0.5,1.2,1.2v7.8
						C264.6,343.6,264.1,344.1,263.4,344.1z"/>
					<path fill="#E0E1E1" d="M527.8,355.8H195.3c-0.7,0-1.2-0.5-1.2-1.2v-4.9c0-0.7,0.5-1.2,1.2-1.2h332.5c0.7,0,1.2,0.5,1.2,1.2
						v4.9C529,355.2,528.5,355.8,527.8,355.8z"/>
					<path fill="#E0E1E1" d="M527.8,367.4H195.3c-0.7,0-1.2-0.5-1.2-1.2v-4.9c0-0.7,0.5-1.2,1.2-1.2h332.5c0.7,0,1.2,0.5,1.2,1.2
						v4.9C529,366.8,528.5,367.4,527.8,367.4z"/>
				</g>
				<g>
					<g>
						<path fill="#EF3D23" d="M152.1,359.3l11-18.9c1.1-1.7,3.6-1.7,4.7,0l11,18.9c1.3,1.9-0.1,4.5-2.4,4.5h-21.9
							C152.2,363.8,150.8,361.2,152.1,359.3z"/>
					</g>
					<g>
						<path fill="#FFFFFF" d="M165.4,356.4c0.9,0,1.6,0.7,1.6,1.6s-0.7,1.6-1.6,1.6c-0.9,0-1.6-0.7-1.6-1.6
							C163.9,357.2,164.6,356.4,165.4,356.4z M164.8,354.6L164,350v-1.9c0-0.2,0.2-0.3,0.3-0.3h2.3c0.2,0,0.3,0.2,0.3,0.3v1.9
							l-0.8,4.7c0,0.1-0.2,0.3-0.3,0.3h-0.7C164.9,354.9,164.8,354.8,164.8,354.6z"/>
					</g>
				</g>
			</g>
			<rect x="132.6" y="308.2" fill="#E0E1E1" width="417.4" height="2.7"/>
			<g>
				<path fill="#E0E1E1" d="M528.2,261.2h-52.3c-0.4,0-0.8-0.4-0.8-0.8v-4.2c0-0.4,0.4-0.8,0.8-0.8h52.3c0.4,0,0.8,0.4,0.8,0.8v4.2
					C529,260.8,528.6,261.2,528.2,261.2z"/>
				<path fill="#E0E1E1" d="M528.2,251.6h-52.3c-0.4,0-0.8-0.4-0.8-0.8v-4.2c0-0.4,0.4-0.8,0.8-0.8h52.3c0.4,0,0.8,0.4,0.8,0.8v4.2
					C529,251.2,528.6,251.6,528.2,251.6z"/>
				<path fill="#E0E1E1" d="M528.2,270.6h-52.3c-0.4,0-0.8-0.4-0.8-0.8v-4.2c0-0.4,0.4-0.8,0.8-0.8h52.3c0.4,0,0.8,0.4,0.8,0.8v4.2
					C529,270.2,528.6,270.6,528.2,270.6z"/>
			</g>
			<g>
				<polygon fill="#63A3D8" points="251.6,235.5 253.7,239.6 258.2,240.2 254.9,243.4 255.7,247.9 251.6,245.8 247.6,247.9 
					248.4,243.4 245.1,240.2 249.6,239.6 				"/>
				<g>
					<path fill="#82C1EA" d="M262.3,238.3c-0.1-0.1,0-0.4,0.2-0.4h1.2c0.1,0,0.2,0.1,0.2,0.1l2.4,5.3h0.1l2.4-5.3
						c0-0.1,0.1-0.1,0.2-0.1h1.2c0.2,0,0.2,0.1,0.2,0.4l-3.8,8.3c0,0.1-0.1,0.1-0.2,0.1h-0.1c-0.1,0-0.1-0.1-0.2-0.1L262.3,238.3z"
						/>
					<path fill="#82C1EA" d="M271.6,238.3c0-0.1,0.1-0.2,0.2-0.2h1.1c0.1,0,0.2,0.1,0.2,0.2v8c0,0.1-0.1,0.2-0.2,0.2h-1.1
						c-0.1,0-0.2-0.1-0.2-0.2V238.3z"/>
					<path fill="#82C1EA" d="M275.4,238.3c0-0.1,0.1-0.2,0.2-0.2h2.9c1.6,0,2.8,1.2,2.8,2.8s-1.2,2.8-2.8,2.8H277v2.9
						c0,0.1-0.1,0.2-0.2,0.2h-1.1c-0.1,0-0.2-0.1-0.2-0.2L275.4,238.3L275.4,238.3z M278.4,242.1c0.7,0,1.3-0.6,1.3-1.3
						s-0.6-1.2-1.3-1.2H277v2.4h1.4V242.1z"/>
				</g>
			</g>
		</g>
		<g>
			<path fill="#FFFFFF" d="M581.9,555.3H415.3c-20.4,0-37-16.6-37-37V81.7c0-20.4,16.6-37,37-37h166.6c20.4,0,37,16.6,37,37v436.6
				C618.9,538.8,602.4,555.3,581.9,555.3z"/>
			<path fill="#B5C0C3" d="M581.9,557H415.3c-21.3,0-38.7-17.4-38.7-38.7V81.7c0-21.3,17.4-38.7,38.7-38.7h166.6
				c21.3,0,38.7,17.4,38.7,38.7v436.6C620.6,539.7,603.3,557,581.9,557z M415.3,46.4c-19.5,0-35.3,15.8-35.3,35.3v436.6
				c0,19.5,15.8,35.3,35.3,35.3h166.6c19.5,0,35.3-15.8,35.3-35.3V81.7c0-19.5-15.8-35.3-35.3-35.3
				C581.9,46.4,415.3,46.4,415.3,46.4z"/>
		</g>
		<g>
			<circle fill="#E0E2E2" cx="498.6" cy="518.7" r="21.2"/>
			<path fill="#B5C0C3" d="M498.6,541.6c-12.6,0-22.9-10.3-22.9-22.9c0-12.6,10.3-22.9,22.9-22.9s22.9,10.3,22.9,22.9
				C521.6,531.3,511.3,541.6,498.6,541.6z M498.6,499.1c-10.8,0-19.5,8.8-19.5,19.5c0,10.7,8.8,19.5,19.5,19.5
				c10.8,0,19.5-8.8,19.5-19.5S509.4,499.1,498.6,499.1z"/>
		</g>
		<g>
			<rect x="392.2" y="115.4" fill="#FFFFFF" width="211.6" height="366.6"/>
			<path fill="#B5C0C3" d="M605.6,483.7h-215v-370h215V483.7z M393.9,480.3h208.3V117.1H393.9V480.3z"/>
		</g>
		<g>
			<path fill="#E0E2E2" d="M513.7,94.2h-30.1c-2,0-3.6-1.6-3.6-3.6v-0.5c0-2,1.6-3.6,3.6-3.6h30.1c2,0,3.6,1.6,3.6,3.6v0.5
				C517.3,92.6,515.7,94.2,513.7,94.2z"/>
			<path fill="#B5C0C3" d="M513.7,95.9h-30.1c-2.9,0-5.3-2.4-5.3-5.3v-0.5c0-2.9,2.4-5.3,5.3-5.3h30.1c2.9,0,5.3,2.4,5.3,5.3v0.5
				C519,93.5,516.6,95.9,513.7,95.9z M483.6,88.2c-1,0-1.9,0.8-1.9,1.9v0.5c0,1,0.8,1.9,1.9,1.9h30.1c1,0,1.9-0.8,1.9-1.9v-0.5
				c0-1-0.8-1.9-1.9-1.9H483.6z"/>
		</g>
		<polygon opacity="0.4" fill="#B5C0C3" enable-background="new    " points="378.3,505 341.1,505 367,174.5 378.3,174.5 		"/>
	</g>
	<g>
		<g>
			<g>
				<path fill="#EF3D23" d="M407.9,225.2l13.3-23c1.4-2,4.4-2,5.8,0l13.3,23c1.6,2.3-0.1,5.5-2.9,5.5h-26.6
					C408,230.7,406.3,227.5,407.9,225.2z"/>
			</g>
			<g>
				<path fill="#FFFFFF" d="M424.1,221.7c1.1,0,2,0.9,2,2c0,1-0.9,1.9-2,1.9c-1,0-1.9-0.9-1.9-1.9
					C422.2,222.6,423.1,221.7,424.1,221.7z M423.3,219.6l-1-5.7v-2.3c0-0.2,0.2-0.4,0.4-0.4h2.8c0.2,0,0.4,0.2,0.4,0.4v2.3l-1,5.7
					c0,0.2-0.2,0.3-0.4,0.3h-0.9C423.5,219.9,423.3,219.7,423.3,219.6z"/>
			</g>
		</g>
		<g>
			<g>
				<path fill="#74C044" d="M636.1,229.9H484.5c-11.9,0-21.5-9.6-21.5-21.5v-85.5c0-11.9,9.6-21.5,21.5-21.5h151.6
					c11.9,0,21.5,9.6,21.5,21.5v85.5C657.6,220.3,648,229.9,636.1,229.9z"/>
			</g>
			<g>
				<g>
					<path fill="#FFFFFF" d="M481.1,123.1c0-0.2,0.2-0.5,0.5-0.5h9.7c0.3,0,0.5,0.2,0.5,0.5v2c0,0.2-0.2,0.5-0.5,0.5h-7v4.5h5.9
						c0.2,0,0.5,0.2,0.5,0.5v2c0,0.2-0.2,0.5-0.5,0.5h-5.9v6c0,0.2-0.2,0.5-0.5,0.5h-2.2c-0.3,0-0.5-0.2-0.5-0.5V123.1z"/>
					<path fill="#FFFFFF" d="M494.5,123.1c0-0.2,0.2-0.5,0.5-0.5h6.8c2.9,0,5.2,2.3,5.2,5.1c0,2.2-1.5,4-3.5,4.8l3.3,6
						c0.2,0.3,0,0.7-0.4,0.7h-2.5c-0.2,0-0.3-0.1-0.4-0.2l-3.2-6.3h-2.6v6.1c0,0.2-0.2,0.5-0.5,0.5H495c-0.3,0-0.5-0.2-0.5-0.5
						V123.1z M501.5,130.2c1.3,0,2.4-1.1,2.4-2.4c0-1.3-1.1-2.3-2.4-2.3h-3.9v4.7H501.5z"/>
					<path fill="#FFFFFF" d="M508.2,138.6l7.4-16c0.1-0.1,0.2-0.3,0.4-0.3h0.2c0.2,0,0.3,0.1,0.4,0.3l7.3,16c0.1,0.3,0,0.6-0.4,0.6
						h-2.1c-0.4,0-0.5-0.1-0.7-0.5l-1.2-2.6h-7.1l-1.2,2.6c-0.1,0.2-0.3,0.5-0.7,0.5h-2.1C508.2,139.3,508,139,508.2,138.6z
						 M518.5,133.6l-2.4-5.2H516l-2.3,5.2H518.5z"/>
					<path fill="#FFFFFF" d="M525.7,123.1c0-0.2,0.2-0.5,0.5-0.5h2.3c0.3,0,0.5,0.2,0.5,0.5v9.7c0,2,1.4,3.6,3.5,3.6
						s3.5-1.6,3.5-3.6V123c0-0.2,0.2-0.5,0.5-0.5h2.3c0.2,0,0.5,0.2,0.5,0.5v9.9c0,3.6-2.9,6.5-6.6,6.5c-3.7,0-6.6-2.9-6.6-6.5v-9.8
						C526.1,123.1,525.7,123.1,525.7,123.1z"/>
					<path fill="#FFFFFF" d="M543,123.1c0-0.2,0.2-0.5,0.4-0.5h5.6c4.6,0,8.4,3.7,8.4,8.3c0,4.6-3.8,8.4-8.4,8.4h-5.6
						c-0.2,0-0.4-0.2-0.4-0.5V123.1z M548.8,136.4c3.1,0,5.4-2.3,5.4-5.5c0-3.1-2.3-5.4-5.4-5.4h-2.7v10.9H548.8z"/>
					<path fill="#FFFFFF" d="M563.7,138.6l7.4-16c0.1-0.1,0.2-0.3,0.4-0.3h0.2c0.2,0,0.3,0.1,0.4,0.3l7.3,16c0.1,0.3,0,0.6-0.4,0.6
						h-2c-0.4,0-0.5-0.1-0.7-0.5l-1.2-2.6H568l-1.2,2.6c-0.1,0.2-0.3,0.5-0.7,0.5H564C563.7,139.3,563.5,139,563.7,138.6z
						 M573.9,133.6l-2.4-5.2h-0.1l-2.3,5.2H573.9z"/>
					<path fill="#FFFFFF" d="M581.6,123.1c0-0.2,0.2-0.5,0.5-0.5h2.2c0.2,0,0.5,0.2,0.5,0.5v13.4h6.1c0.3,0,0.5,0.2,0.5,0.5v2
						c0,0.2-0.2,0.5-0.5,0.5h-8.7c-0.3,0-0.5-0.2-0.5-0.5L581.6,123.1L581.6,123.1z"/>
					<path fill="#FFFFFF" d="M593.6,123.1c0-0.2,0.2-0.5,0.5-0.5h9.7c0.3,0,0.5,0.2,0.5,0.5v2c0,0.2-0.2,0.5-0.5,0.5h-7v3.9h5.9
						c0.2,0,0.5,0.2,0.5,0.5v2c0,0.3-0.2,0.5-0.5,0.5h-5.9v4.2h7c0.3,0,0.5,0.2,0.5,0.5v2c0,0.2-0.2,0.5-0.5,0.5h-9.7
						c-0.3,0-0.5-0.2-0.5-0.5V123.1z"/>
					<path fill="#FFFFFF" d="M607.6,123.1c0-0.2,0.2-0.5,0.5-0.5h6.8c2.9,0,5.2,2.3,5.2,5.1c0,2.2-1.5,4-3.5,4.8l3.3,6
						c0.2,0.3,0,0.7-0.4,0.7H617c-0.2,0-0.3-0.1-0.4-0.2l-3.2-6.3h-2.6v6.1c0,0.2-0.2,0.5-0.5,0.5h-2.2c-0.3,0-0.5-0.2-0.5-0.5
						V123.1L607.6,123.1z M614.6,130.2c1.3,0,2.4-1.1,2.4-2.4c0-1.3-1.1-2.3-2.4-2.3h-3.9v4.7H614.6z"/>
					<path fill="#FFFFFF" d="M625.7,125.5h-3.6c-0.3,0-0.5-0.2-0.5-0.5v-2c0-0.2,0.2-0.5,0.5-0.5h10.4c0.3,0,0.5,0.2,0.5,0.5v2
						c0,0.2-0.2,0.5-0.5,0.5h-3.6v13.4c0,0.2-0.2,0.5-0.5,0.5h-2.2c-0.2,0-0.5-0.2-0.5-0.5L625.7,125.5L625.7,125.5z"/>
					<path fill="#FFFFFF" d="M636.9,135.6c1.1,0,2,0.9,2,2s-0.9,2-2,2c-1,0-1.9-0.9-1.9-2S635.8,135.6,636.9,135.6z M636.1,132.4
						l-0.9-6.6v-2.7c0-0.2,0.2-0.5,0.5-0.5h2.6c0.2,0,0.5,0.2,0.5,0.5v2.7l-0.9,6.7c0,0.2-0.2,0.4-0.5,0.4h-0.8
						C636.3,132.8,636.1,132.6,636.1,132.4z"/>
				</g>
			</g>
			<path fill="#74C044" d="M466.6,215.6c0,0-1,9-5.5,15.1c-0.2,0.2,0,0.5,0.3,0.5c3.1-0.6,15.2-3.4,22.9-14.8L466.6,215.6z"/>
			<path opacity="0.5" fill="#FFFFFF" enable-background="new    " d="M633.7,165.5H485.2c-2.3,0-4.2-1.9-4.2-4.2v-2.9
				c0-2.3,1.9-4.2,4.2-4.2h148.5c2.3,0,4.2,1.9,4.2,4.2v2.9C638,163.6,636.1,165.5,633.7,165.5z"/>
			<path opacity="0.5" fill="#FFFFFF" enable-background="new    " d="M633.7,188.1H485.2c-2.3,0-4.2-1.9-4.2-4.2V181
				c0-2.3,1.9-4.2,4.2-4.2h148.5c2.3,0,4.2,1.9,4.2,4.2v2.9C638,186.2,636.1,188.1,633.7,188.1z"/>
			<path opacity="0.5" fill="#FFFFFF" enable-background="new    " d="M560.3,210.7h-76.1c-1.8,0-3.3-1.5-3.3-3.3v-4.8
				c0-1.8,1.5-3.3,3.3-3.3h76.1c1.8,0,3.3,1.5,3.3,3.3v4.8C563.7,209.2,562.2,210.7,560.3,210.7z"/>
		</g>
	</g>
	<g>
		<g>
			<path fill="#74C044" d="M466.6,389.2c0,0-1,9-5.5,15.1c-0.2,0.2,0,0.5,0.3,0.5c3.1-0.6,15.2-3.4,22.9-14.8L466.6,389.2z"/>
			<g>
				<path fill="#74C044" d="M667,382.5v-7.2c0-11.9-9.6-21.5-21.5-21.5H484.7c-11.9,0-21.5,9.6-21.5,21.5v7.2
					c0,11.9,9.6,21.5,21.5,21.5h160.8C657.3,404,667,394.4,667,382.5z"/>
			</g>
			<path fill="#74C044" d="M484.5,389.5c-7.7,11.4-19.8,14.2-22.9,14.8c-0.3,0-0.5-0.3-0.3-0.5c4.5-6.1,5.5-15.1,5.5-15.1
				L484.5,389.5z"/>
			<g>
				<path fill="#FFFFFF" d="M487.4,369.2c2.4,0,4.1,0.8,5.8,2.2c0.2,0.2,0.2,0.5,0,0.7l-1.5,1.5c-0.2,0.2-0.4,0.2-0.6,0
					c-1-0.9-2.3-1.4-3.7-1.4c-3,0-5.3,2.5-5.3,5.5s2.3,5.5,5.3,5.5c1.4,0,2.6-0.5,3.6-1.4c0.2-0.2,0.5-0.1,0.6,0l1.5,1.5
					c0.2,0.2,0.1,0.5,0,0.6c-1.6,1.6-3.7,2.3-5.8,2.3c-4.8,0-8.6-3.8-8.6-8.5C478.8,373,482.7,369.2,487.4,369.2z"/>
				<path fill="#FFFFFF" d="M495.3,369.9c0-0.2,0.2-0.5,0.5-0.5h2c0.2,0,0.5,0.2,0.5,0.5v7.2c0.5-0.4,1.4-0.8,2.5-0.8
					c3,0,4.3,2.3,4.3,4.7v4.6c0,0.2-0.2,0.5-0.5,0.5h-1.9c-0.3,0-0.5-0.2-0.5-0.5V381c0-1.3-0.7-2.1-1.9-2.1c-1.1,0-1.8,0.7-2.1,1.7
					v5c0,0.3-0.1,0.5-0.5,0.5h-2c-0.2,0-0.5-0.2-0.5-0.5v-15.7H495.3z"/>
				<path fill="#FFFFFF" d="M510.8,380.1c1,0,1.7,0.3,1.7,0.3c0-1.2-0.4-1.6-1.2-1.6c-0.9,0-2.1,0.2-2.7,0.4
					c-0.3,0.1-0.5-0.1-0.5-0.4l-0.2-1.2c-0.1-0.4,0.1-0.5,0.3-0.6c0.2-0.1,1.7-0.5,3.2-0.5c3,0,3.7,1.5,3.7,4.1v5.2
					c0,0.2-0.2,0.5-0.5,0.5h-0.9c-0.2,0-0.3-0.1-0.4-0.3l-0.3-0.6c-0.5,0.5-1.4,1.2-2.9,1.2c-1.9,0-3.2-1.2-3.2-3.3
					C507,381.4,508.4,380.1,510.8,380.1z M510.9,384.3c0.8,0,1.5-0.6,1.6-0.9v-1.3c0,0-0.6-0.3-1.3-0.3c-0.9,0-1.5,0.5-1.5,1.3
					C509.6,383.8,510.1,384.3,510.9,384.3z"/>
				<path fill="#FFFFFF" d="M517.9,377c0-0.3,0.2-0.5,0.5-0.5h0.9c0.2,0,0.4,0.1,0.4,0.3l0.3,0.9c0.3-0.5,1.2-1.5,2.7-1.5
					c1.1,0,2.1,0.4,1.8,1l-0.9,1.5c-0.1,0.2-0.4,0.3-0.5,0.2c-0.1,0-0.4-0.1-0.7-0.1c-1,0-1.5,0.6-1.7,1v5.8c0,0.3-0.2,0.5-0.5,0.5
					h-1.8c-0.2,0-0.5-0.2-0.5-0.5V377z"/>
				<path fill="#FFFFFF" d="M526.4,382.7c0,0-0.7-0.8-0.7-2.2c0-2.2,1.8-4.1,4.1-4.1h4.3c0.3,0,0.5,0.2,0.5,0.5v0.8
					c0,0.2-0.1,0.4-0.3,0.4l-1.3,0.4c0,0,1,0.7,1,2.4c0,1.9-1.6,3.7-4.1,3.7c-0.9,0-1.5-0.2-1.9-0.2c-0.3,0-0.9,0.3-0.9,0.9
					c0,0.5,0.4,0.8,1,0.8h3c2.2,0,3.9,1.2,3.9,3.3c0,2.2-1.8,4-5.2,4c-3.5,0-4.9-1.7-4.9-3.3c0-1.4,1.2-2.1,1.4-2.3v0.1
					c-0.4-0.1-1.8-0.8-1.8-2.5C524.6,383.5,526.4,382.7,526.4,382.7z M529.8,391.1c1.3,0,2.2-0.6,2.2-1.5c0-0.4-0.3-1.2-1.7-1.2
					c-0.5,0-1,0-1.5,0.1c-0.3,0.1-1,0.4-1,1.2C527.7,390.5,528.5,391.1,529.8,391.1z M529.9,382.3c1,0,1.6-0.7,1.6-1.7
					s-0.7-1.7-1.6-1.7c-1,0-1.7,0.7-1.7,1.7S529,382.3,529.9,382.3z"/>
				<path fill="#FFFFFF" d="M540.8,376.3c2.5,0,4.5,1.9,4.5,4.4c0,0.2,0,0.5,0,0.6c0,0.2-0.2,0.4-0.5,0.4h-6.1
					c0.1,1,0.9,2.1,2.3,2.1c0.7,0,1.4-0.3,1.9-0.6c0.2-0.1,0.5-0.2,0.6,0l1,1.1c0.2,0.2,0.2,0.4,0,0.6c-0.8,0.7-2,1.3-3.5,1.3
					c-2.9,0-4.9-2.3-4.9-5C535.9,378.7,537.9,376.3,540.8,376.3z M542.4,380.2c-0.1-0.9-0.8-1.6-1.7-1.6c-1,0-1.7,0.7-1.9,1.6H542.4
					z"/>
				<path fill="#FFFFFF" d="M546.7,385l0.6-1.3c0.1-0.2,0.3-0.3,0.5-0.2c0,0,1.1,0.6,2.2,0.6c0.5,0,0.8-0.2,0.8-0.6
					s-0.3-0.7-1.6-1.2c-1.8-0.7-2.7-1.7-2.7-3.1s1.1-2.8,3.5-2.8c1.4,0,2.4,0.4,2.9,0.7c0.2,0.1,0.3,0.4,0.2,0.6l-0.6,1.2
					c-0.1,0.2-0.4,0.2-0.6,0.2c0,0-1.1-0.5-2-0.5c-0.6,0-0.8,0.2-0.8,0.5c0,0.4,0.4,0.6,1.3,0.9c1.8,0.7,3.2,1.5,3.2,3.4
					c0,1.6-1.4,2.9-3.8,2.9c-1.6,0-2.7-0.5-3.2-0.9C546.7,385.3,546.6,385.1,546.7,385z"/>
				<path fill="#FFFFFF" d="M561.1,377c0-0.3,0.2-0.5,0.5-0.5h0.9c0.2,0,0.4,0.1,0.4,0.3l0.3,0.9c0.3-0.5,1.2-1.5,2.7-1.5
					c1.1,0,2.1,0.4,1.8,1l-0.9,1.5c-0.1,0.2-0.4,0.3-0.5,0.2c-0.1,0-0.4-0.1-0.7-0.1c-1,0-1.5,0.6-1.7,1v5.8c0,0.3-0.2,0.5-0.5,0.5
					h-1.8c-0.2,0-0.5-0.2-0.5-0.5V377z"/>
				<path fill="#FFFFFF" d="M573.3,376.3c2.5,0,4.5,1.9,4.5,4.4c0,0.2,0,0.5,0,0.6c0,0.2-0.2,0.4-0.5,0.4h-6.1
					c0.1,1,0.9,2.1,2.3,2.1c0.7,0,1.4-0.3,1.9-0.6c0.2-0.1,0.5-0.2,0.6,0l1,1.1c0.2,0.2,0.2,0.4,0,0.6c-0.8,0.7-2,1.3-3.5,1.3
					c-2.9,0-4.9-2.3-4.9-5C568.5,378.7,570.5,376.3,573.3,376.3z M575,380.2c-0.1-0.9-0.8-1.6-1.7-1.6c-1,0-1.7,0.7-1.9,1.6H575z"/>
				<path fill="#FFFFFF" d="M579.8,377c0-0.3,0.2-0.5,0.5-0.5h0.9c0.2,0,0.4,0.1,0.4,0.3l0.3,0.9c0.4-0.5,1.5-1.4,3.2-1.4
					c1.4,0,2.3,0.5,3.1,1.5c0.4-0.4,1.6-1.5,3.4-1.5c3,0,4.2,2.3,4.2,4.8v4.5c0,0.2-0.2,0.5-0.5,0.5h-1.9c-0.3,0-0.5-0.2-0.5-0.5
					v-4.7c0-1.2-0.6-2-1.8-2c-1.4,0-2,1-2,1s0,0.5,0,0.9v4.8c0,0.2-0.2,0.5-0.5,0.5h-1.8c-0.3,0-0.5-0.2-0.5-0.5v-4.7
					c0-1.2-0.5-2-1.8-2c-1.2,0-1.8,0.9-2,1.5v5.2c0,0.2-0.2,0.5-0.5,0.5h-1.9c-0.2,0-0.5-0.2-0.5-0.5V377H579.8z"/>
				<path fill="#FFFFFF" d="M602.5,376.3c2.7,0,4.9,2.3,4.9,5s-2.2,5-4.9,5s-4.9-2.3-4.9-5C597.6,378.6,599.8,376.3,602.5,376.3z
					 M602.5,383.8c1.3,0,2.3-1.1,2.3-2.5c0-1.3-1-2.4-2.3-2.4s-2.3,1.1-2.3,2.4C600.2,382.7,601.2,383.8,602.5,383.8z"/>
				<path fill="#FFFFFF" d="M608.2,377.2c-0.1-0.3,0-0.6,0.3-0.6h2.1c0.2,0,0.4,0.1,0.4,0.3l1.9,4.4l0,0l2-4.4
					c0.1-0.2,0.3-0.3,0.6-0.3h1.9c0.4,0,0.5,0.3,0.3,0.6l-4.4,8.9c-0.1,0.1-0.2,0.2-0.4,0.2h-0.1c-0.2,0-0.3-0.1-0.4-0.2
					L608.2,377.2z"/>
				<path fill="#FFFFFF" d="M623.5,376.3c2.5,0,4.5,1.9,4.5,4.4c0,0.2,0,0.5,0,0.6c0,0.2-0.2,0.4-0.5,0.4h-6.1
					c0.1,1,0.9,2.1,2.3,2.1c0.7,0,1.4-0.3,1.9-0.6c0.2-0.1,0.5-0.2,0.6,0l1,1.1c0.2,0.2,0.2,0.4,0,0.6c-0.8,0.7-2,1.3-3.5,1.3
					c-2.9,0-4.9-2.3-4.9-5C618.7,378.7,620.7,376.3,623.5,376.3z M625.2,380.2c-0.1-0.9-0.8-1.6-1.7-1.6c-1,0-1.7,0.7-1.9,1.6H625.2
					z"/>
				<path fill="#FFFFFF" d="M634,376.3c1,0,1.7,0.3,2.1,0.4v-6.8c0-0.2,0.2-0.5,0.5-0.5h2c0.2,0,0.5,0.2,0.5,0.5v15.8
					c0,0.2-0.2,0.5-0.5,0.5h-0.9c-0.2,0-0.4-0.2-0.5-0.5L637,385c0,0-1.1,1.4-3.1,1.4c-2.6,0-4.6-2.3-4.6-5
					C629.3,378.6,631.2,376.3,634,376.3z M634.2,383.8c1.3,0,1.8-1,2-1.5v-2.8c0,0-0.7-0.5-1.9-0.5c-1.3,0-2.3,1.1-2.3,2.4
					S632.9,383.8,634.2,383.8z"/>
				<path fill="#FFFFFF" d="M644,382.4c1.1,0,2,0.9,2,2s-0.9,2-2,2c-1,0-1.9-0.9-1.9-2C642,383.3,642.9,382.4,644,382.4z
					 M643.2,379.2l-0.9-6.6v-2.7c0-0.2,0.2-0.5,0.5-0.5h2.6c0.2,0,0.5,0.2,0.5,0.5v2.7l-0.9,6.7c0,0.2-0.2,0.4-0.5,0.4h-0.8
					C643.4,379.6,643.2,379.4,643.2,379.2z"/>
			</g>
		</g>
		<g>
			<g>
				<path fill="#EF3D23" d="M408.8,395.8l13.3-23c1.4-2,4.4-2,5.8,0l13.3,23c1.6,2.3-0.1,5.5-2.9,5.5h-26.6
					C408.8,401.3,407.2,398.1,408.8,395.8z"/>
			</g>
			<g>
				<path fill="#FFFFFF" d="M424.9,392.4c1.1,0,2,0.9,2,2c0,1-0.9,1.9-2,1.9c-1,0-1.9-0.9-1.9-1.9
					C423,393.3,423.9,392.4,424.9,392.4z M424.2,390.2l-1-5.7v-2.3c0-0.2,0.2-0.4,0.4-0.4h2.8c0.2,0,0.4,0.2,0.4,0.4v2.3l-1,5.7
					c0,0.2-0.2,0.3-0.4,0.3h-0.9C424.4,390.5,424.2,390.3,424.2,390.2z"/>
			</g>
		</g>
	</g>
	<g>
		<g>
			<g>
				<g>
					<g>
						<path fill="#63A3D8" d="M556,308.6l10.4-3.9l0.9-2.9c1.3,0.8,2.7,1.2,4.3,1.2s3.1-0.5,4.4-1.2l0.9,3l10.4,3.9
							c0,0,0.6,0.1,1.2,1.2c3.5-4,5.7-9.2,5.7-15c0-12.5-10.1-22.6-22.6-22.6s-22.6,10-22.6,22.5c0,5.8,2.2,11,5.7,15
							C555.4,308.7,556,308.6,556,308.6z M571.5,279.4c3.6,0,6.7,2.5,8.2,6.2c-2.6,1.6-3.2,1.5-3.3,1.5c0,0-0.1-0.3-0.2-0.5
							c-0.1-0.5-0.3-1.2-1.1-1.4c-0.7-0.3-1.6-0.1-2.9,0.5c-4.1,2-7.7-0.2-8.6-0.9C565.3,281.6,568.2,279.4,571.5,279.4z
							 M563.1,286.3c1.5,1,5.4,3.1,9.9,0.9c0.9-0.4,1.3-0.5,1.5-0.5c0.1,0,0.1,0,0.1,0s0.1,0.3,0.2,0.5c0.1,0.5,0.4,1.2,1.2,1.5
							c0.2,0,0.4,0.1,0.6,0.1c0.8,0,2-0.5,3.7-1.5c0.2,1,0.4,2.1,0.4,3.2c0,4.8-2.6,9-6.2,10.4c-0.9,0.4-1.9,0.6-2.9,0.6
							c-1.1,0-2.2-0.2-3.1-0.7c-3.5-1.5-5.9-5.6-5.9-10.3C562.4,289,562.7,287.6,563.1,286.3z"/>
					</g>
				</g>
				<g>
					<path fill="#82C1EA" d="M571.6,317.3c6.7,0,12.7-2.9,16.9-7.6c-0.7-1-1.2-1.2-1.2-1.2l-10.4-3.9l-0.9-3
						c-1.3,0.8-2.8,1.2-4.4,1.2c-1.5,0-3-0.4-4.3-1.2l-0.9,2.9l-10.4,3.9c0,0-0.6,0.1-1.2,1.2C558.9,314.4,564.9,317.3,571.6,317.3z
						"/>
				</g>
				<g>
					<path fill="#82C1EA" d="M568.4,300.7c1,0.4,2,0.7,3.1,0.7c1,0,2-0.2,2.9-0.6c3.6-1.4,6.2-5.6,6.2-10.4c0-1.1-0.1-2.2-0.4-3.2
						c-1.7,1.1-2.8,1.5-3.7,1.5c-0.2,0-0.4,0-0.6-0.1c-0.8-0.3-1-1-1.2-1.5c0-0.1-0.1-0.4-0.2-0.5c0,0,0,0-0.1,0s-0.6,0-1.5,0.5
						c-4.5,2.2-8.4,0.1-9.9-0.9c-0.4,1.2-0.7,2.6-0.7,4.1C562.4,295.1,564.9,299.1,568.4,300.7z"/>
				</g>
				<g>
					<path fill="#82C1EA" d="M572.3,285.8c1.3-0.7,2.2-0.8,2.9-0.5s0.9,1,1.1,1.4c0,0.1,0.1,0.4,0.2,0.5c0,0,0.6,0.1,3.3-1.5
						c-1.5-3.7-4.6-6.2-8.2-6.2c-3.3,0-6.2,2.2-7.8,5.4C564.6,285.5,568.2,287.8,572.3,285.8z"/>
				</g>
			</g>
		</g>
		<g>
			<g>
				<path fill="#62A5DA" d="M378.3,315.6h130.8c11.9,0,21.5-9.6,21.5-21.5v-7.2c0-11.9-9.6-21.5-21.5-21.5H378.3
					c-11.9,0-21.5,9.6-21.5,21.5v7.2C356.8,306,366.5,315.6,378.3,315.6z"/>
			</g>
			<g>
				<g>
					<path fill="#FFFFFF" d="M381.3,284h-3.6c-0.3,0-0.5-0.2-0.5-0.5v-2c0-0.2,0.2-0.5,0.5-0.5h10.4c0.3,0,0.5,0.2,0.5,0.5v2
						c0,0.2-0.2,0.5-0.5,0.5h-3.6v13.4c0,0.2-0.2,0.5-0.5,0.5h-2.2c-0.2,0-0.5-0.2-0.5-0.5L381.3,284L381.3,284z"/>
					<path fill="#FFFFFF" d="M390,281.6c0-0.2,0.2-0.5,0.5-0.5h2c0.2,0,0.5,0.2,0.5,0.5v7.2c0.5-0.4,1.4-0.8,2.5-0.8
						c3,0,4.3,2.3,4.3,4.7v4.6c0,0.2-0.2,0.5-0.5,0.5h-1.9c-0.3,0-0.5-0.2-0.5-0.5v-4.6c0-1.3-0.7-2.1-1.9-2.1
						c-1.1,0-1.8,0.7-2.1,1.7v5c0,0.3-0.1,0.5-0.5,0.5h-2c-0.2,0-0.5-0.2-0.5-0.5v-15.7L390,281.6L390,281.6z"/>
					<path fill="#FFFFFF" d="M405.5,291.8c1,0,1.7,0.3,1.7,0.3c0-1.2-0.4-1.6-1.2-1.6c-0.9,0-2.1,0.2-2.7,0.4
						c-0.3,0.1-0.5-0.1-0.5-0.4l-0.2-1.2c-0.1-0.4,0.1-0.5,0.3-0.6c0.2-0.1,1.7-0.5,3.2-0.5c3,0,3.7,1.5,3.7,4.1v5.2
						c0,0.2-0.2,0.5-0.5,0.5h-0.9c-0.2,0-0.3-0.1-0.4-0.3l-0.3-0.6c-0.5,0.5-1.4,1.2-2.9,1.2c-1.9,0-3.2-1.2-3.2-3.3
						C401.7,293.1,403.1,291.8,405.5,291.8z M405.5,296c0.8,0,1.5-0.6,1.6-0.9v-1.3c0,0-0.6-0.3-1.3-0.3c-0.9,0-1.5,0.5-1.5,1.3
						C404.3,295.5,404.8,296,405.5,296z"/>
					<path fill="#FFFFFF" d="M413,290.8h-0.8c-0.2,0-0.4-0.2-0.4-0.5v-1.6c0-0.3,0.2-0.5,0.4-0.5h0.8v-2.6c0-0.2,0.2-0.5,0.5-0.5h2
						c0.2,0,0.4,0.2,0.4,0.5v2.7h2.1c0.3,0,0.5,0.2,0.5,0.5v1.6c0,0.2-0.2,0.5-0.5,0.5h-2.1v3.8c0,0.7,0.4,0.8,0.7,0.8
						c0.4,0,0.9-0.2,1.2-0.3c0.3-0.1,0.5,0,0.5,0.3l0.5,1.5c0.1,0.2,0,0.5-0.3,0.6c-0.1,0.1-1.7,0.6-2.8,0.6c-1.8,0-2.6-1.1-2.6-3.1
						v-4.3H413z"/>
					<path fill="#FFFFFF" d="M420.3,287.4c-0.2-0.2-0.1-0.4,0-0.5c0.2-0.2,1.6-1.2,1.6-2.9c0,0-0.3,0.1-0.7,0.1
						c-0.9,0-1.6-0.7-1.6-1.6s0.7-1.6,1.7-1.6c0.9,0,2,0.6,2,2.5c0,2.3-1.5,3.8-2.1,4.3c-0.2,0.1-0.4,0.2-0.5,0L420.3,287.4z"/>
					<path fill="#FFFFFF" d="M424.7,296.7l0.6-1.3c0.1-0.2,0.3-0.3,0.5-0.2c0,0,1.1,0.6,2.2,0.6c0.5,0,0.8-0.2,0.8-0.6
						s-0.3-0.7-1.6-1.2c-1.8-0.7-2.7-1.7-2.7-3.1c0-1.5,1.1-2.8,3.5-2.8c1.4,0,2.4,0.4,2.9,0.7c0.2,0.1,0.3,0.4,0.2,0.6l-0.6,1.2
						c-0.1,0.2-0.4,0.2-0.6,0.2c0,0-1.1-0.5-2-0.5c-0.6,0-0.8,0.2-0.8,0.5c0,0.4,0.4,0.6,1.3,0.9c1.8,0.7,3.2,1.5,3.2,3.4
						c0,1.6-1.4,2.9-3.8,2.9c-1.6,0-2.7-0.5-3.2-0.9C424.7,297.1,424.6,296.9,424.7,296.7z"/>
					<path fill="#FFFFFF" d="M439.1,288.8c0-0.3,0.2-0.5,0.5-0.5h0.9c0.2,0,0.3,0.1,0.4,0.3l0.3,0.9c0.4-0.4,1.5-1.4,3.4-1.4
						c3,0,4.2,2.3,4.2,4.7v4.6c0,0.2-0.2,0.5-0.5,0.5h-2c-0.3,0-0.5-0.2-0.5-0.5v-4.7c0-1.2-0.6-2-1.8-2c-1.2,0-2,0.9-2.2,1.5v5.2
						c0,0.3-0.1,0.5-0.6,0.5h-1.8c-0.2,0-0.5-0.2-0.5-0.5v-8.6H439.1z"/>
					<path fill="#FFFFFF" d="M455.6,288.1c2.7,0,4.9,2.3,4.9,5s-2.2,5-4.9,5s-4.9-2.3-4.9-5S452.9,288.1,455.6,288.1z M455.6,295.5
						c1.3,0,2.3-1.1,2.3-2.5c0-1.3-1-2.4-2.3-2.4s-2.3,1.1-2.3,2.4C453.3,294.4,454.3,295.5,455.6,295.5z"/>
					<path fill="#FFFFFF" d="M463.1,290.8h-0.8c-0.2,0-0.4-0.2-0.4-0.5v-1.6c0-0.3,0.2-0.5,0.4-0.5h0.8v-2.6c0-0.2,0.2-0.5,0.5-0.5
						h2c0.2,0,0.4,0.2,0.4,0.5v2.7h2.1c0.3,0,0.5,0.2,0.5,0.5v1.6c0,0.2-0.2,0.5-0.5,0.5H466v3.8c0,0.7,0.4,0.8,0.7,0.8
						c0.4,0,0.9-0.2,1.2-0.3c0.3-0.1,0.5,0,0.5,0.3l0.5,1.5c0.1,0.2,0,0.5-0.3,0.6c-0.1,0.1-1.7,0.6-2.8,0.6c-1.8,0-2.6-1.1-2.6-3.1
						v-4.3H463.1z"/>
					<path fill="#FFFFFF" d="M476.1,288.8c0-0.3,0.2-0.5,0.5-0.5h0.9c0.2,0,0.4,0.1,0.4,0.3l0.3,0.9c0.4-0.5,1.5-1.4,3.2-1.4
						c1.4,0,2.3,0.5,3.1,1.5c0.4-0.4,1.6-1.5,3.4-1.5c3,0,4.2,2.3,4.2,4.8v4.5c0,0.2-0.2,0.5-0.5,0.5h-1.9c-0.3,0-0.5-0.2-0.5-0.5
						v-4.7c0-1.2-0.6-2-1.8-2c-1.4,0-2,1-2,1s0,0.5,0,0.9v4.8c0,0.2-0.2,0.5-0.5,0.5h-1.8c-0.3,0-0.5-0.2-0.5-0.5v-4.7
						c0-1.2-0.5-2-1.8-2c-1.2,0-1.8,0.9-2,1.5v5.2c0,0.2-0.2,0.5-0.5,0.5h-1.9c-0.2,0-0.5-0.2-0.5-0.5v-8.6L476.1,288.8L476.1,288.8
						z"/>
					<path fill="#FFFFFF" d="M498.8,288.1c2.5,0,4.5,1.9,4.5,4.4c0,0.2,0,0.5,0,0.6c0,0.2-0.2,0.4-0.5,0.4h-6.1
						c0.1,1,0.9,2.1,2.3,2.1c0.7,0,1.4-0.3,1.9-0.6c0.2-0.1,0.5-0.2,0.6,0l1,1.1c0.2,0.2,0.2,0.4,0,0.6c-0.8,0.7-2,1.3-3.5,1.3
						c-2.9,0-4.9-2.3-4.9-5C493.9,290.4,495.9,288.1,498.8,288.1z M500.4,291.9c-0.1-0.9-0.8-1.6-1.7-1.6c-1,0-1.7,0.7-1.9,1.6
						H500.4z"/>
					<path fill="#FFFFFF" d="M507.2,294.1c1.1,0,2,0.9,2,2s-0.9,2-2,2c-1,0-1.9-0.9-1.9-2C505.3,295,506.2,294.1,507.2,294.1z
						 M506.4,291l-0.9-6.6v-2.7c0-0.2,0.2-0.5,0.5-0.5h2.6c0.2,0,0.5,0.2,0.5,0.5v2.7l-0.9,6.7c0,0.2-0.2,0.4-0.5,0.4h-0.8
						C506.7,291.4,506.5,291.2,506.4,291z"/>
				</g>
			</g>
			<path fill="#62A5DA" d="M527,300.3c0,0,1,9,5.5,15.1c0.2,0.2,0,0.5-0.3,0.5c-3.1-0.6-15.2-3.4-22.9-14.8L527,300.3z"/>
		</g>
	</g>
</g>
</svg>
