<?xml version="1.0" encoding="utf-8"?>
<!-- Generator: Adobe Illustrator 18.1.1, SVG Export Plug-In . SVG Version: 6.00 Build 0)  -->
<svg version="1.0" id="Layer_1" xmlns="http://www.w3.org/2000/svg" xmlns:xlink="http://www.w3.org/1999/xlink" x="0px" y="0px"
	 viewBox="0 0 500.2 257.8" enable-background="new 0 0 500.2 257.8" xml:space="preserve">
<g>
	<path fill="#C7CFD1" d="M478.9,238.4L373.9,84.2c-0.1-0.2-0.2-0.3-0.4-0.4l-30.3-30.3c-1.1-1.1-3.1-1.1-4.2,0l-28.3,28.3
		l-12.2-12.2l-3.2,5.2l12.8,12.8L356.5,229l-47-47l-20-97.2c-0.8,1.2-1.6,2.4-2.4,3.5l-2.1,3.4l18.6,90.8l-50.5,50.5v-91.4
		c-1.8,1.1-4.1,1.1-5.9,0v91.4l-50.5-50.5l19-92.8l-1.8-3c-1-1.4-1.9-2.8-2.7-4.3L190.8,182l-47,47L192,87.4l14.1-14.1l-3.1-5.3
		l-13.6,13.6l-28.3-28.3c-1.1-1.1-3.1-1.1-4.2,0l-30.3,30.3c-0.1,0.1-0.2,0.3-0.4,0.4L21.3,238.4c-0.9,1.3-0.6,3,0.6,3.9
		c1.2,1,2.9,0.9,4-0.2l54.5-54.5l54.5,54.5c1.1,1.1,3,1.1,4.2,0l54.5-54.5l54.5,54.5c1.1,1.1,3,1.1,4.2,0l54.5-54.5l54.5,54.5
		c1.1,1.1,3,1.1,4.2,0l54.5-54.5l54.5,54.5c0.6,0.6,1.3,0.9,2.1,0.9c0.7,0,1.3-0.2,1.9-0.7C479.6,241.3,479.8,239.6,478.9,238.4z
		 M78,181.6l-34.2,34.2l87.3-128.1l12.4-12.4L78,181.6z M135.7,234.6L84.1,183l75.6-122.8l26.4,26.4L135.7,234.6z M364.6,234.6
		l-50.4-148l26.4-26.4L416.2,183L364.6,234.6z M422.2,181.6L356.8,75.3l12.4,12.4l87.3,128.1L422.2,181.6z"/>
	<path fill="#4E8ECB" d="M284.9,76.2L284.9,76.2c2.3-4.8,3.5-10.2,3.5-15.8c0-20.6-16.7-37.3-37.3-37.3s-37.3,16.7-37.3,37.3
		c0,5.7,1.3,11,3.5,15.8h0l0,0c1,2.1,2.2,4.1,3.5,5.9l29.3,49.6l30-48.2C282.1,81.3,283.6,78.8,284.9,76.2L284.9,76.2z"/>
	<circle fill="#FFFFFF" cx="251.1" cy="53.1" r="13.8"/>
</g>
<g>
	<g>
		<g>
			<path fill="#F15B22" d="M48.9,28.5c0-0.3,0.3-0.6,0.6-0.6h2.9c0.3,0,0.6,0.3,0.6,0.6v17.6h8c0.3,0,0.6,0.3,0.6,0.6v2.6
				c0,0.3-0.3,0.6-0.6,0.6H49.5c-0.3,0-0.6-0.3-0.6-0.6V28.5z"/>
		</g>
		<g>
			<path fill="#F15B22" d="M64.2,28.5c0-0.3,0.3-0.6,0.6-0.6h2.9c0.3,0,0.6,0.3,0.6,0.6v20.8c0,0.3-0.3,0.6-0.6,0.6h-2.9
				c-0.3,0-0.6-0.3-0.6-0.6V28.5z"/>
		</g>
		<g>
			<path fill="#F15B22" d="M70.7,28.7c-0.2-0.4,0.1-0.8,0.5-0.8h3.2c0.3,0,0.5,0.2,0.5,0.3l6,13.5h0.2l6-13.5
				c0.1-0.2,0.3-0.3,0.5-0.3H91c0.5,0,0.7,0.4,0.5,0.8l-9.7,21.2c-0.1,0.2-0.3,0.3-0.5,0.3h-0.3c-0.3,0-0.4-0.2-0.5-0.3L70.7,28.7z"
				/>
		</g>
		<g>
			<path fill="#F15B22" d="M94,28.5c0-0.3,0.3-0.6,0.6-0.6h12.8c0.3,0,0.6,0.3,0.6,0.6v2.6c0,0.3-0.3,0.6-0.6,0.6h-9.3v5.2h7.8
				c0.3,0,0.6,0.3,0.6,0.6V40c0,0.3-0.3,0.6-0.6,0.6h-7.8v5.5h9.3c0.3,0,0.6,0.3,0.6,0.6v2.6c0,0.3-0.3,0.6-0.6,0.6H94.6
				c-0.3,0-0.6-0.3-0.6-0.6V28.5z"/>
		</g>
	</g>
	<g>
		<path fill="#F15B22" d="M131.4,61.8H20.8V16.7h110.6V61.8z M24.5,58.1h103.1V20.4H24.5V58.1z"/>
	</g>
	<g>
		<path fill="#F15B22" d="M117.2,45.1c1.5,0,2.7,1.2,2.7,2.7c0,1.4-1.2,2.6-2.7,2.6c-1.4,0-2.6-1.2-2.6-2.6
			C114.6,46.3,115.8,45.1,117.2,45.1z M116.1,40.8l-1.2-8.9v-3.6c0-0.3,0.3-0.6,0.6-0.6h3.5c0.3,0,0.6,0.3,0.6,0.6v3.6l-1.2,9
			c0,0.3-0.3,0.5-0.6,0.5h-1C116.5,41.3,116.2,41.1,116.1,40.8z"/>
	</g>
	<circle fill="#F15B22" cx="36.7" cy="38.5" r="6.6"/>
</g>
</svg>
