<?xml version="1.0" encoding="utf-8"?>
<!-- Generator: Adobe Illustrator 17.1.0, SVG Export Plug-In . SVG Version: 6.00 Build 0)  -->
<!DOCTYPE svg PUBLIC "-//W3C//DTD SVG 1.1//EN" "http://www.w3.org/Graphics/SVG/1.1/DTD/svg11.dtd">
<svg version="1.1" id="Layer_1" xmlns="http://www.w3.org/2000/svg" xmlns:xlink="http://www.w3.org/1999/xlink" x="0px" y="0px"
	 viewBox="0 0 82.606 83.46" enable-background="new 0 0 82.606 83.46" xml:space="preserve">
<g>
	<path fill="#434B4F" d="M23.287,49.105c0-1.281,0.63-2.401,1.579-3.111c0.171-0.102,0.331-0.205,0.502-0.307
		c4.884-2.963,10.406-4.439,15.941-4.439c5.523,0,11.046,1.476,15.928,4.439c0.172,0.102,0.332,0.205,0.504,0.307
		c0.949,0.71,1.578,1.83,1.578,3.111c0,2.149-1.738,3.887-3.888,3.887c-0.811,0-1.567-0.251-2.195-0.675
		c-2.505-1.521-5.237-2.504-8.039-2.983v8.998c0,2.15-1.749,3.888-3.887,3.888c-2.15,0-3.899-1.738-3.899-3.888v-8.998
		c-2.802,0.479-5.534,1.462-8.039,2.983c-0.618,0.424-1.372,0.675-2.195,0.675C25.026,52.992,23.287,51.254,23.287,49.105z"/>
	<path fill="#434B4F" d="M24.865,37.464c0.172,0.103,0.332,0.206,0.503,0.309c1.727,1.047,3.535,1.899,5.393,2.575
		c3.4-1.237,6.969-1.863,10.548-1.863c3.57,0,7.138,0.626,10.535,1.863c1.858-0.677,3.667-1.528,5.393-2.575
		c0.171-0.103,0.332-0.206,0.502-0.309c0.949-0.707,1.579-1.829,1.579-3.11c0-2.149-1.738-3.888-3.888-3.888
		c-0.823,0-1.578,0.251-2.195,0.676c-2.505,1.521-5.237,2.504-8.039,2.983v-8.999c0-2.149-1.75-3.887-3.899-3.887
		c-2.139,0-3.887,1.738-3.887,3.887v8.999c-2.802-0.479-5.534-1.462-8.039-2.983c-0.629-0.425-1.384-0.676-2.195-0.676
		c-2.15,0-3.889,1.739-3.889,3.888C23.287,35.635,23.916,36.757,24.865,37.464z"/>
</g>
</svg>
