<?xml version="1.0" encoding="utf-8"?>
<!-- Generator: Adobe Illustrator 17.1.0, SVG Export Plug-In . SVG Version: 6.00 Build 0)  -->
<!DOCTYPE svg PUBLIC "-//W3C//DTD SVG 1.1//EN" "http://www.w3.org/Graphics/SVG/1.1/DTD/svg11.dtd">
<svg version="1.1" id="Layer_1" xmlns="http://www.w3.org/2000/svg" xmlns:xlink="http://www.w3.org/1999/xlink" x="0px" y="0px"
	 viewBox="0 0 181.408 180.705" enable-background="new 0 0 181.408 180.705" xml:space="preserve">
<rect x="45.089" y="38.783" fill="none" stroke="#939A9E" stroke-width="0.25" stroke-miterlimit="10" width="89.466" height="100.958"/>
<g>
	<g>
		<path fill="#132A40" d="M46.358,107.315c0-3.137,1.542-5.878,3.865-7.615c0.419-0.251,0.811-0.503,1.23-0.752
			c11.954-7.253,25.472-10.865,39.02-10.865c13.519,0,27.038,3.612,38.988,10.865c0.421,0.249,0.812,0.501,1.233,0.752
			c2.324,1.737,3.861,4.478,3.861,7.615c0,5.261-4.255,9.515-9.517,9.515c-1.986,0-3.835-0.614-5.373-1.651
			c-6.132-3.723-12.82-6.13-19.678-7.302v22.025c0,5.263-4.28,9.517-9.515,9.517c-5.262,0-9.545-4.254-9.545-9.517v-22.025
			c-6.858,1.172-13.547,3.579-19.678,7.302c-1.512,1.037-3.359,1.651-5.373,1.651C50.615,116.83,46.358,112.576,46.358,107.315z"/>
	</g>
	<g>
		<path fill="#3E8EDE" d="M50.22,78.821c0.422,0.252,0.812,0.503,1.232,0.755c4.226,2.564,8.653,4.649,13.202,6.304
			c8.323-3.029,17.059-4.561,25.818-4.561c8.739,0,17.472,1.532,25.786,4.561c4.549-1.657,8.975-3.74,13.202-6.304
			c0.419-0.252,0.812-0.503,1.23-0.755c2.323-1.731,3.865-4.478,3.865-7.612c0-5.26-4.255-9.517-9.517-9.517
			c-2.014,0-3.863,0.614-5.373,1.654c-6.132,3.723-12.82,6.13-19.678,7.302V48.62c0-5.261-4.284-9.515-9.545-9.515
			c-5.236,0-9.515,4.254-9.515,9.515v22.027c-6.858-1.172-13.547-3.579-19.678-7.302c-1.539-1.04-3.387-1.654-5.373-1.654
			c-5.262,0-9.519,4.257-9.519,9.517C46.358,74.343,47.897,77.089,50.22,78.821z"/>
	</g>
</g>
<path fill="none" stroke="#767B7D" stroke-width="0.25" stroke-miterlimit="10" d="M172.617,178.524H8.296
	c-3.922,0-7.101-3.179-7.101-7.101V7.101C1.194,3.179,4.374,0,8.296,0h164.321c3.922,0,7.101,3.179,7.101,7.101v164.321
	C179.719,175.345,176.539,178.524,172.617,178.524z"/>
<g>
	<g>
		<g>
			<path fill="#55595E" d="M47.919,24.323l0.604-0.65c0.52,0.662,1.206,1.041,2.176,1.041c1.076,0,1.821-0.733,1.821-1.691
				c0-1.041-0.745-1.703-1.81-1.703c-0.698,0-1.289,0.225-1.821,0.745l-0.721-0.248v-4.257h4.825v0.875h-3.843v2.744
				c0.378-0.378,1.053-0.709,1.845-0.709c1.313,0,2.507,0.899,2.507,2.519c0,1.608-1.218,2.602-2.803,2.602
				C49.362,25.589,48.511,25.104,47.919,24.323z"/>
			<path fill="#55595E" d="M54.716,21.509c0-1.928,0.851-4.068,3.015-4.068c2.152,0,3.016,2.14,3.016,4.068
				c0,1.916-0.863,4.08-3.016,4.08C55.567,25.589,54.716,23.425,54.716,21.509z M59.742,21.509c0-1.573-0.509-3.193-2.011-3.193
				c-1.501,0-2.01,1.62-2.01,3.193s0.509,3.205,2.01,3.205C59.233,24.713,59.742,23.082,59.742,21.509z"/>
			<path fill="#55595E" d="M61.712,19.404c0-1.111,0.769-1.963,1.893-1.963c1.135,0,1.916,0.852,1.916,1.963
				c0,1.1-0.781,1.928-1.916,1.928C62.481,21.332,61.712,20.504,61.712,19.404z M64.811,19.404c0-0.78-0.497-1.36-1.206-1.36
				c-0.698,0-1.183,0.58-1.183,1.36c0,0.745,0.484,1.336,1.183,1.336C64.314,20.74,64.811,20.149,64.811,19.404z M62.86,25.447
				l5.038-7.888h0.65l-5.05,7.888H62.86z M65.828,23.661c0-1.112,0.77-1.963,1.893-1.963s1.904,0.851,1.904,1.963
				c0,1.1-0.781,1.928-1.904,1.928S65.828,24.761,65.828,23.661z M68.926,23.661c0-0.78-0.496-1.36-1.206-1.36
				s-1.194,0.58-1.194,1.36c0,0.745,0.484,1.336,1.194,1.336S68.926,24.406,68.926,23.661z"/>
			<path fill="#55595E" d="M79.989,25.447l-1.738-6.362l-1.738,6.362h-1.064l-2.246-7.888h1.088l1.75,6.575l1.81-6.575h0.815
				l1.81,6.575l1.738-6.575H83.3l-2.247,7.888H79.989z"/>
			<path fill="#55595E" d="M88.226,25.447v-3.761c0-1.005-0.521-1.301-1.289-1.301c-0.686,0-1.348,0.426-1.691,0.887v4.174h-0.887
				v-7.888h0.887v3.004c0.402-0.473,1.183-0.97,2.046-0.97c1.194,0,1.821,0.579,1.821,1.821v4.033H88.226z"/>
			<path fill="#55595E" d="M90.729,18.328c0-0.331,0.271-0.603,0.591-0.603c0.331,0,0.604,0.272,0.604,0.603
				s-0.272,0.591-0.604,0.591C91,18.919,90.729,18.659,90.729,18.328z M90.882,25.447v-5.712h0.887v5.712H90.882z"/>
			<path fill="#55595E" d="M93.719,24.252v-3.737h-0.946v-0.781h0.946v-1.561h0.887v1.561h1.159v0.781h-1.159v3.547
				c0,0.426,0.189,0.733,0.579,0.733c0.249,0,0.485-0.106,0.604-0.236l0.26,0.662c-0.225,0.213-0.544,0.367-1.063,0.367
				C94.145,25.589,93.719,25.104,93.719,24.252z"/>
			<path fill="#55595E" d="M96.686,22.585c0-1.656,1.183-2.992,2.814-2.992c1.727,0,2.744,1.348,2.744,3.062v0.225h-4.624
				c0.07,1.076,0.827,1.975,2.058,1.975c0.65,0,1.312-0.26,1.762-0.721l0.426,0.579c-0.567,0.568-1.336,0.875-2.271,0.875
				C97.904,25.589,96.686,24.371,96.686,22.585z M99.489,20.326c-1.218,0-1.821,1.029-1.868,1.904h3.748
				C101.357,21.379,100.79,20.326,99.489,20.326z"/>
			<path fill="#55595E" d="M103.175,24.69l0.461-0.639c0.378,0.438,1.1,0.816,1.88,0.816c0.875,0,1.349-0.414,1.349-0.981
				c0-1.383-3.536-0.532-3.536-2.649c0-0.887,0.769-1.644,2.129-1.644c0.97,0,1.655,0.367,2.116,0.828l-0.414,0.615
				c-0.343-0.414-0.97-0.721-1.702-0.721c-0.781,0-1.266,0.39-1.266,0.899c0,1.253,3.536,0.426,3.536,2.649
				c0,0.958-0.769,1.727-2.247,1.727C104.546,25.589,103.754,25.305,103.175,24.69z"/>
			<path fill="#55595E" d="M110.053,24.583v3.039h-0.887v-7.888h0.887v0.852c0.414-0.58,1.124-0.993,1.928-0.993
				c1.502,0,2.543,1.135,2.543,2.992c0,1.845-1.041,3.004-2.543,3.004C111.201,25.589,110.515,25.222,110.053,24.583z
				 M113.589,22.585c0-1.265-0.686-2.2-1.833-2.2c-0.697,0-1.396,0.414-1.703,0.911v2.578c0.308,0.497,1.006,0.922,1.703,0.922
				C112.904,24.796,113.589,23.85,113.589,22.585z"/>
			<path fill="#55595E" d="M119.499,25.447v-0.65c-0.473,0.521-1.123,0.792-1.892,0.792c-0.97,0-1.999-0.65-1.999-1.892
				c0-1.277,1.029-1.88,1.999-1.88c0.78,0,1.431,0.248,1.892,0.78v-1.029c0-0.769-0.614-1.206-1.442-1.206
				c-0.686,0-1.242,0.249-1.75,0.792l-0.414-0.615c0.615-0.639,1.348-0.946,2.282-0.946c1.206,0,2.211,0.544,2.211,1.927v3.926
				H119.499z M119.499,24.241v-1.076c-0.343-0.473-0.946-0.709-1.572-0.709c-0.828,0-1.407,0.52-1.407,1.253
				c0,0.721,0.579,1.242,1.407,1.242C118.552,24.95,119.156,24.713,119.499,24.241z"/>
			<path fill="#55595E" d="M121.826,22.585c0-1.691,1.147-2.992,2.851-2.992c1.04,0,1.655,0.426,2.093,0.993l-0.592,0.544
				c-0.378-0.52-0.863-0.745-1.454-0.745c-1.218,0-1.975,0.935-1.975,2.2s0.757,2.211,1.975,2.211c0.591,0,1.076-0.236,1.454-0.745
				l0.592,0.544c-0.438,0.568-1.053,0.994-2.093,0.994C122.973,25.589,121.826,24.288,121.826,22.585z"/>
			<path fill="#55595E" d="M127.676,22.585c0-1.656,1.183-2.992,2.814-2.992c1.727,0,2.744,1.348,2.744,3.062v0.225h-4.624
				c0.07,1.076,0.827,1.975,2.058,1.975c0.65,0,1.312-0.26,1.762-0.721l0.426,0.579c-0.567,0.568-1.336,0.875-2.271,0.875
				C128.894,25.589,127.676,24.371,127.676,22.585z M130.479,20.326c-1.218,0-1.821,1.029-1.868,1.904h3.748
				C132.347,21.379,131.78,20.326,130.479,20.326z"/>
		</g>
	</g>
	<g>
		<path fill="#55595E" d="M47.919,24.323l0.604-0.65c0.52,0.662,1.206,1.041,2.176,1.041c1.076,0,1.821-0.733,1.821-1.691
			c0-1.041-0.745-1.703-1.81-1.703c-0.698,0-1.289,0.225-1.821,0.745l-0.721-0.248v-4.257h4.825v0.875h-3.843v2.744
			c0.378-0.378,1.053-0.709,1.845-0.709c1.313,0,2.507,0.899,2.507,2.519c0,1.608-1.218,2.602-2.803,2.602
			C49.362,25.589,48.511,25.104,47.919,24.323z"/>
		<path fill="#55595E" d="M54.716,21.509c0-1.928,0.851-4.068,3.015-4.068c2.152,0,3.016,2.14,3.016,4.068
			c0,1.916-0.863,4.08-3.016,4.08C55.567,25.589,54.716,23.425,54.716,21.509z M59.742,21.509c0-1.573-0.509-3.193-2.011-3.193
			c-1.501,0-2.01,1.62-2.01,3.193s0.509,3.205,2.01,3.205C59.233,24.713,59.742,23.082,59.742,21.509z"/>
		<path fill="#55595E" d="M61.712,19.404c0-1.111,0.769-1.963,1.893-1.963c1.135,0,1.916,0.852,1.916,1.963
			c0,1.1-0.781,1.928-1.916,1.928C62.481,21.332,61.712,20.504,61.712,19.404z M64.811,19.404c0-0.78-0.497-1.36-1.206-1.36
			c-0.698,0-1.183,0.58-1.183,1.36c0,0.745,0.484,1.336,1.183,1.336C64.314,20.74,64.811,20.149,64.811,19.404z M62.86,25.447
			l5.038-7.888h0.65l-5.05,7.888H62.86z M65.828,23.661c0-1.112,0.77-1.963,1.893-1.963s1.904,0.851,1.904,1.963
			c0,1.1-0.781,1.928-1.904,1.928S65.828,24.761,65.828,23.661z M68.926,23.661c0-0.78-0.496-1.36-1.206-1.36
			s-1.194,0.58-1.194,1.36c0,0.745,0.484,1.336,1.194,1.336S68.926,24.406,68.926,23.661z"/>
		<path fill="#55595E" d="M79.989,25.447l-1.738-6.362l-1.738,6.362h-1.064l-2.246-7.888h1.088l1.75,6.575l1.81-6.575h0.815
			l1.81,6.575l1.738-6.575H83.3l-2.247,7.888H79.989z"/>
		<path fill="#55595E" d="M88.226,25.447v-3.761c0-1.005-0.521-1.301-1.289-1.301c-0.686,0-1.348,0.426-1.691,0.887v4.174h-0.887
			v-7.888h0.887v3.004c0.402-0.473,1.183-0.97,2.046-0.97c1.194,0,1.821,0.579,1.821,1.821v4.033H88.226z"/>
		<path fill="#55595E" d="M90.729,18.328c0-0.331,0.271-0.603,0.591-0.603c0.331,0,0.604,0.272,0.604,0.603
			s-0.272,0.591-0.604,0.591C91,18.919,90.729,18.659,90.729,18.328z M90.882,25.447v-5.712h0.887v5.712H90.882z"/>
		<path fill="#55595E" d="M93.719,24.252v-3.737h-0.946v-0.781h0.946v-1.561h0.887v1.561h1.159v0.781h-1.159v3.547
			c0,0.426,0.189,0.733,0.579,0.733c0.249,0,0.485-0.106,0.604-0.236l0.26,0.662c-0.225,0.213-0.544,0.367-1.063,0.367
			C94.145,25.589,93.719,25.104,93.719,24.252z"/>
		<path fill="#55595E" d="M96.686,22.585c0-1.656,1.183-2.992,2.814-2.992c1.727,0,2.744,1.348,2.744,3.062v0.225h-4.624
			c0.07,1.076,0.827,1.975,2.058,1.975c0.65,0,1.312-0.26,1.762-0.721l0.426,0.579c-0.567,0.568-1.336,0.875-2.271,0.875
			C97.904,25.589,96.686,24.371,96.686,22.585z M99.489,20.326c-1.218,0-1.821,1.029-1.868,1.904h3.748
			C101.357,21.379,100.79,20.326,99.489,20.326z"/>
		<path fill="#55595E" d="M103.175,24.69l0.461-0.639c0.378,0.438,1.1,0.816,1.88,0.816c0.875,0,1.349-0.414,1.349-0.981
			c0-1.383-3.536-0.532-3.536-2.649c0-0.887,0.769-1.644,2.129-1.644c0.97,0,1.655,0.367,2.116,0.828l-0.414,0.615
			c-0.343-0.414-0.97-0.721-1.702-0.721c-0.781,0-1.266,0.39-1.266,0.899c0,1.253,3.536,0.426,3.536,2.649
			c0,0.958-0.769,1.727-2.247,1.727C104.546,25.589,103.754,25.305,103.175,24.69z"/>
		<path fill="#55595E" d="M110.053,24.583v3.039h-0.887v-7.888h0.887v0.852c0.414-0.58,1.124-0.993,1.928-0.993
			c1.502,0,2.543,1.135,2.543,2.992c0,1.845-1.041,3.004-2.543,3.004C111.201,25.589,110.515,25.222,110.053,24.583z
			 M113.589,22.585c0-1.265-0.686-2.2-1.833-2.2c-0.697,0-1.396,0.414-1.703,0.911v2.578c0.308,0.497,1.006,0.922,1.703,0.922
			C112.904,24.796,113.589,23.85,113.589,22.585z"/>
		<path fill="#55595E" d="M119.499,25.447v-0.65c-0.473,0.521-1.123,0.792-1.892,0.792c-0.97,0-1.999-0.65-1.999-1.892
			c0-1.277,1.029-1.88,1.999-1.88c0.78,0,1.431,0.248,1.892,0.78v-1.029c0-0.769-0.614-1.206-1.442-1.206
			c-0.686,0-1.242,0.249-1.75,0.792l-0.414-0.615c0.615-0.639,1.348-0.946,2.282-0.946c1.206,0,2.211,0.544,2.211,1.927v3.926
			H119.499z M119.499,24.241v-1.076c-0.343-0.473-0.946-0.709-1.572-0.709c-0.828,0-1.407,0.52-1.407,1.253
			c0,0.721,0.579,1.242,1.407,1.242C118.552,24.95,119.156,24.713,119.499,24.241z"/>
		<path fill="#55595E" d="M121.826,22.585c0-1.691,1.147-2.992,2.851-2.992c1.04,0,1.655,0.426,2.093,0.993l-0.592,0.544
			c-0.378-0.52-0.863-0.745-1.454-0.745c-1.218,0-1.975,0.935-1.975,2.2s0.757,2.211,1.975,2.211c0.591,0,1.076-0.236,1.454-0.745
			l0.592,0.544c-0.438,0.568-1.053,0.994-2.093,0.994C122.973,25.589,121.826,24.288,121.826,22.585z"/>
		<path fill="#55595E" d="M127.676,22.585c0-1.656,1.183-2.992,2.814-2.992c1.727,0,2.744,1.348,2.744,3.062v0.225h-4.624
			c0.07,1.076,0.827,1.975,2.058,1.975c0.65,0,1.312-0.26,1.762-0.721l0.426,0.579c-0.567,0.568-1.336,0.875-2.271,0.875
			C128.894,25.589,127.676,24.371,127.676,22.585z M130.479,20.326c-1.218,0-1.821,1.029-1.868,1.904h3.748
			C132.347,21.379,131.78,20.326,130.479,20.326z"/>
	</g>
</g>
</svg>
