<?xml version="1.0" encoding="utf-8"?>
<!-- Generator: Adobe Illustrator 17.1.0, SVG Export Plug-In . SVG Version: 6.00 Build 0)  -->
<!DOCTYPE svg PUBLIC "-//W3C//DTD SVG 1.1//EN" "http://www.w3.org/Graphics/SVG/1.1/DTD/svg11.dtd">
<svg version="1.1" id="Layer_1" xmlns="http://www.w3.org/2000/svg" xmlns:xlink="http://www.w3.org/1999/xlink" x="0px" y="0px"
	 viewBox="0 0 427.331 185.423" enable-background="new 0 0 427.331 185.423" xml:space="preserve">
<g>
	<g>
		<path fill="#D9DEE4" d="M69.097,38.193c0-0.948,0.466-1.777,1.169-2.303c0.127-0.076,0.245-0.152,0.372-0.227
			c3.615-2.193,7.702-3.285,11.798-3.285c4.088,0,8.175,1.092,11.789,3.285c0.127,0.075,0.246,0.151,0.373,0.227
			c0.703,0.525,1.168,1.354,1.168,2.303c0,1.591-1.287,2.877-2.878,2.877c-0.601,0-1.16-0.186-1.625-0.499
			c-1.854-1.126-3.876-1.853-5.95-2.208v6.66c0,1.591-1.294,2.878-2.877,2.878c-1.591,0-2.886-1.286-2.886-2.878v-6.66
			c-2.074,0.355-4.096,1.082-5.95,2.208c-0.457,0.313-1.016,0.499-1.624,0.499C70.385,41.07,69.097,39.783,69.097,38.193z"/>
		<path fill="#D9DEE4" d="M70.265,29.577c0.127,0.076,0.246,0.152,0.373,0.228c1.278,0.775,2.616,1.406,3.992,1.906
			c2.516-0.916,5.158-1.379,7.807-1.379c2.642,0,5.283,0.463,7.797,1.379c1.375-0.501,2.714-1.131,3.992-1.906
			c0.127-0.076,0.246-0.152,0.372-0.228c0.702-0.524,1.169-1.354,1.169-2.302c0-1.591-1.287-2.878-2.878-2.878
			c-0.609,0-1.168,0.186-1.625,0.5c-1.854,1.126-3.876,1.853-5.95,2.208v-6.66c0-1.591-1.295-2.877-2.886-2.877
			c-1.583,0-2.877,1.286-2.877,2.877v6.66c-2.074-0.355-4.096-1.082-5.95-2.208c-0.465-0.314-1.024-0.5-1.624-0.5
			c-1.591,0-2.878,1.287-2.878,2.878C69.097,28.223,69.563,29.053,70.265,29.577z"/>
	</g>
	<g>
		<path fill="#E4E7E9" d="M69.097,38.193c0-0.948,0.466-1.777,1.169-2.303c0.127-0.076,0.245-0.152,0.372-0.227
			c3.615-2.193,7.702-3.285,11.798-3.285c4.088,0,8.175,1.092,11.789,3.285c0.127,0.075,0.246,0.151,0.373,0.227
			c0.703,0.525,1.168,1.354,1.168,2.303c0,1.591-1.287,2.877-2.878,2.877c-0.601,0-1.16-0.186-1.625-0.499
			c-1.854-1.126-3.876-1.853-5.95-2.208v6.66c0,1.591-1.294,2.878-2.877,2.878c-1.591,0-2.886-1.286-2.886-2.878v-6.66
			c-2.074,0.355-4.096,1.082-5.95,2.208c-0.457,0.313-1.016,0.499-1.624,0.499C70.385,41.07,69.097,39.783,69.097,38.193z"/>
		<path fill="#E4E7E9" d="M70.265,29.577c0.127,0.076,0.246,0.152,0.373,0.228c1.278,0.775,2.616,1.406,3.992,1.906
			c2.516-0.916,5.158-1.379,7.807-1.379c2.642,0,5.283,0.463,7.797,1.379c1.375-0.501,2.714-1.131,3.992-1.906
			c0.127-0.076,0.246-0.152,0.372-0.228c0.702-0.524,1.169-1.354,1.169-2.302c0-1.591-1.287-2.878-2.878-2.878
			c-0.609,0-1.168,0.186-1.625,0.5c-1.854,1.126-3.876,1.853-5.95,2.208v-6.66c0-1.591-1.295-2.877-2.886-2.877
			c-1.583,0-2.877,1.286-2.877,2.877v6.66c-2.074-0.355-4.096-1.082-5.95-2.208c-0.465-0.314-1.024-0.5-1.624-0.5
			c-1.591,0-2.878,1.287-2.878,2.878C69.097,28.223,69.563,29.053,70.265,29.577z"/>
	</g>
</g>
<g>
	<path fill="#E4E7E9" d="M69.097,158.549c0-0.948,0.466-1.777,1.169-2.303c0.127-0.076,0.245-0.152,0.372-0.227
		c3.615-2.193,7.702-3.285,11.798-3.285c4.088,0,8.175,1.092,11.789,3.285c0.127,0.075,0.246,0.151,0.373,0.227
		c0.703,0.525,1.168,1.354,1.168,2.303c0,1.591-1.287,2.877-2.878,2.877c-0.601,0-1.16-0.186-1.625-0.499
		c-1.854-1.126-3.876-1.853-5.95-2.208v6.66c0,1.591-1.294,2.878-2.877,2.878c-1.591,0-2.886-1.286-2.886-2.878v-6.66
		c-2.074,0.355-4.096,1.082-5.95,2.208c-0.457,0.313-1.016,0.499-1.624,0.499C70.385,161.426,69.097,160.14,69.097,158.549z"/>
	<path fill="#E4E7E9" d="M70.265,149.933c0.127,0.076,0.246,0.152,0.373,0.228c1.278,0.775,2.616,1.406,3.992,1.906
		c2.516-0.916,5.158-1.379,7.807-1.379c2.642,0,5.283,0.463,7.797,1.379c1.375-0.501,2.714-1.131,3.992-1.906
		c0.127-0.076,0.246-0.152,0.372-0.228c0.702-0.524,1.169-1.354,1.169-2.302c0-1.591-1.287-2.878-2.878-2.878
		c-0.609,0-1.168,0.186-1.625,0.5c-1.854,1.126-3.876,1.853-5.95,2.208v-6.66c0-1.591-1.295-2.877-2.886-2.877
		c-1.583,0-2.877,1.286-2.877,2.877v6.66c-2.074-0.355-4.096-1.082-5.95-2.208c-0.465-0.314-1.024-0.5-1.624-0.5
		c-1.591,0-2.878,1.287-2.878,2.878C69.097,148.579,69.563,149.41,70.265,149.933z"/>
</g>
<g>
	<path fill="#E4E7E9" d="M16.312,98.33c0-0.948,0.466-1.777,1.169-2.303c0.127-0.076,0.245-0.152,0.372-0.227
		c3.615-2.193,7.702-3.285,11.798-3.285c4.088,0,8.175,1.092,11.789,3.285c0.127,0.075,0.246,0.151,0.373,0.227
		c0.703,0.525,1.168,1.354,1.168,2.303c0,1.591-1.287,2.877-2.878,2.877c-0.601,0-1.16-0.186-1.625-0.499
		c-1.854-1.126-3.876-1.853-5.95-2.208v6.66c0,1.591-1.294,2.878-2.877,2.878c-1.591,0-2.886-1.286-2.886-2.878V98.5
		c-2.074,0.355-4.096,1.082-5.95,2.208c-0.457,0.313-1.016,0.499-1.624,0.499C17.599,101.207,16.312,99.921,16.312,98.33z"/>
	<path fill="#E4E7E9" d="M17.48,89.714c0.127,0.076,0.246,0.152,0.373,0.228c1.278,0.775,2.616,1.406,3.992,1.906
		c2.516-0.916,5.158-1.379,7.807-1.379c2.642,0,5.283,0.463,7.797,1.379c1.375-0.501,2.714-1.131,3.992-1.906
		c0.127-0.076,0.246-0.152,0.372-0.228c0.702-0.524,1.169-1.354,1.169-2.302c0-1.591-1.287-2.878-2.878-2.878
		c-0.609,0-1.168,0.186-1.625,0.5c-1.854,1.126-3.876,1.853-5.95,2.208v-6.66c0-1.591-1.295-2.877-2.886-2.877
		c-1.583,0-2.877,1.286-2.877,2.877v6.66c-2.074-0.355-4.096-1.082-5.95-2.208c-0.465-0.314-1.024-0.5-1.624-0.5
		c-1.591,0-2.878,1.287-2.878,2.878C16.312,88.36,16.778,89.191,17.48,89.714z"/>
</g>
<g>
	<path fill="#E4E7E9" d="M383.09,98.149c0-0.948,0.466-1.777,1.169-2.303c0.127-0.076,0.245-0.152,0.372-0.227
		c3.615-2.193,7.702-3.285,11.798-3.285c4.088,0,8.175,1.092,11.789,3.285c0.127,0.075,0.246,0.151,0.373,0.227
		c0.703,0.525,1.168,1.354,1.168,2.303c0,1.591-1.287,2.877-2.878,2.877c-0.601,0-1.16-0.186-1.625-0.499
		c-1.854-1.126-3.876-1.853-5.95-2.208v6.66c0,1.591-1.294,2.878-2.877,2.878c-1.591,0-2.886-1.286-2.886-2.878v-6.66
		c-2.074,0.355-4.096,1.082-5.95,2.208c-0.457,0.313-1.016,0.499-1.625,0.499C384.377,101.026,383.09,99.739,383.09,98.149z"/>
	<path fill="#E4E7E9" d="M384.257,89.533c0.127,0.076,0.246,0.152,0.373,0.228c1.278,0.775,2.616,1.406,3.992,1.906
		c2.516-0.916,5.158-1.379,7.807-1.379c2.642,0,5.283,0.463,7.797,1.379c1.375-0.501,2.714-1.131,3.992-1.906
		c0.127-0.076,0.246-0.152,0.372-0.228c0.702-0.524,1.169-1.354,1.169-2.302c0-1.591-1.287-2.878-2.878-2.878
		c-0.609,0-1.168,0.186-1.625,0.5c-1.854,1.126-3.876,1.853-5.95,2.208v-6.66c0-1.591-1.295-2.877-2.886-2.877
		c-1.583,0-2.877,1.286-2.877,2.877v6.66c-2.074-0.355-4.096-1.082-5.95-2.208c-0.465-0.314-1.024-0.5-1.625-0.5
		c-1.591,0-2.878,1.287-2.878,2.878C383.09,88.179,383.555,89.009,384.257,89.533z"/>
</g>
<g>
	<g>
		<g>
			<path fill="#132A40" d="M56.314,103.563c0-1.858,0.913-3.481,2.289-4.51c0.248-0.149,0.48-0.298,0.728-0.445
				c7.08-4.295,15.086-6.435,23.109-6.435c8.006,0,16.013,2.139,23.09,6.435c0.249,0.148,0.481,0.297,0.731,0.445
				c1.376,1.029,2.287,2.652,2.287,4.51c0,3.116-2.52,5.635-5.637,5.635c-1.176,0-2.271-0.364-3.182-0.978
				c-3.632-2.205-7.592-3.63-11.654-4.325v13.044c0,3.117-2.535,5.637-5.635,5.637c-3.116,0-5.653-2.519-5.653-5.637v-13.044
				c-4.061,0.694-8.023,2.12-11.654,4.325c-0.895,0.614-1.989,0.978-3.182,0.978C58.835,109.198,56.314,106.679,56.314,103.563z"/>
		</g>
		<g>
			<path fill="#3E8EDE" d="M58.602,86.688c0.25,0.149,0.481,0.298,0.73,0.447c2.503,1.518,5.125,2.754,7.819,3.733
				c4.929-1.794,10.103-2.701,15.291-2.701c5.176,0,10.348,0.907,15.272,2.701c2.694-0.981,5.316-2.215,7.819-3.733
				c0.248-0.149,0.481-0.298,0.728-0.447c1.376-1.025,2.289-2.652,2.289-4.508c0-3.115-2.52-5.637-5.637-5.637
				c-1.193,0-2.288,0.364-3.182,0.979c-3.632,2.205-7.592,3.63-11.654,4.325V68.802c0-3.116-2.537-5.635-5.653-5.635
				c-3.101,0-5.635,2.519-5.635,5.635v13.045c-4.061-0.694-8.023-2.12-11.654-4.325c-0.911-0.616-2.006-0.979-3.182-0.979
				c-3.116,0-5.638,2.521-5.638,5.637C56.314,84.036,57.226,85.662,58.602,86.688z"/>
		</g>
	</g>
	<g>
		<g>
			<path fill="#132A40" d="M130.722,102.161c1.857,0,3.209-0.314,4.056-0.942c0.846-0.628,1.27-1.516,1.27-2.663
				c0-0.683-0.144-1.27-0.43-1.762s-0.696-0.935-1.229-1.332c-0.533-0.396-1.182-0.764-1.946-1.106
				c-0.765-0.341-1.639-0.676-2.622-1.003c-0.983-0.354-1.932-0.744-2.847-1.167c-0.916-0.423-1.721-0.949-2.417-1.577
				c-0.697-0.628-1.257-1.379-1.68-2.253c-0.424-0.874-0.635-1.925-0.635-3.154c0-2.566,0.887-4.581,2.663-6.042
				c1.775-1.46,4.192-2.191,7.251-2.191c1.775,0,3.352,0.198,4.731,0.594c1.378,0.396,2.464,0.827,3.257,1.291l-1.598,4.179
				c-0.929-0.519-1.946-0.915-3.052-1.188s-2.247-0.41-3.42-0.41c-1.393,0-2.479,0.287-3.257,0.86
				c-0.778,0.573-1.167,1.379-1.167,2.417c0,0.628,0.129,1.167,0.389,1.618c0.259,0.451,0.628,0.854,1.106,1.208
				c0.478,0.355,1.038,0.683,1.68,0.983c0.641,0.301,1.345,0.587,2.11,0.86c1.337,0.492,2.533,0.99,3.584,1.495
				c1.051,0.506,1.938,1.106,2.663,1.802c0.723,0.697,1.276,1.516,1.659,2.458c0.382,0.942,0.573,2.083,0.573,3.421
				c0,2.567-0.908,4.554-2.724,5.96c-1.816,1.407-4.472,2.109-7.968,2.109c-1.174,0-2.247-0.075-3.216-0.225
				c-0.97-0.15-1.83-0.335-2.581-0.553c-0.751-0.218-1.4-0.443-1.946-0.676c-0.547-0.231-0.983-0.443-1.311-0.635l1.516-4.22
				c0.737,0.41,1.734,0.819,2.991,1.229C127.431,101.956,128.946,102.161,130.722,102.161z"/>
			<path fill="#132A40" d="M165.829,95.319c0,1.639-0.212,3.141-0.635,4.506c-0.424,1.366-1.031,2.54-1.823,3.523
				c-0.792,0.983-1.782,1.748-2.97,2.294s-2.533,0.819-4.035,0.819c-1.011,0-1.939-0.123-2.786-0.369
				c-0.847-0.246-1.543-0.519-2.089-0.819v8.316h-4.957V85.283c1.01-0.272,2.253-0.533,3.728-0.778
				c1.475-0.246,3.031-0.369,4.67-0.369c1.693,0,3.208,0.26,4.547,0.778c1.337,0.519,2.478,1.264,3.42,2.232
				c0.942,0.97,1.666,2.145,2.171,3.523C165.576,92.049,165.829,93.599,165.829,95.319z M160.749,95.401
				c0-2.212-0.499-3.933-1.495-5.162c-0.997-1.229-2.601-1.844-4.813-1.844c-0.464,0-0.949,0.021-1.454,0.062
				c-0.506,0.041-1.004,0.13-1.495,0.266v12.249c0.437,0.301,1.017,0.581,1.741,0.84c0.724,0.26,1.496,0.389,2.314,0.389
				c1.803,0,3.12-0.615,3.954-1.844C160.332,99.129,160.749,97.477,160.749,95.401z"/>
			<path fill="#132A40" d="M178.896,84.054c1.639,0,3.018,0.205,4.138,0.615c1.12,0.41,2.014,0.983,2.683,1.72
				c0.669,0.737,1.147,1.632,1.434,2.684c0.287,1.051,0.43,2.206,0.43,3.461v12.986c-0.765,0.164-1.919,0.362-3.461,0.594
				c-1.543,0.231-3.284,0.348-5.223,0.348c-1.284,0-2.458-0.123-3.523-0.369c-1.065-0.246-1.973-0.642-2.724-1.188
				c-0.751-0.546-1.338-1.256-1.762-2.13c-0.424-0.874-0.635-1.952-0.635-3.236c0-1.229,0.239-2.267,0.717-3.113
				c0.478-0.846,1.126-1.536,1.946-2.069c0.819-0.532,1.768-0.915,2.847-1.147c1.079-0.231,2.205-0.348,3.38-0.348
				c0.546,0,1.119,0.035,1.72,0.103c0.601,0.068,1.243,0.184,1.925,0.348v-0.819c0-0.574-0.068-1.12-0.205-1.639
				c-0.137-0.519-0.376-0.976-0.717-1.372c-0.342-0.396-0.792-0.703-1.352-0.922c-0.56-0.218-1.264-0.328-2.11-0.328
				c-1.147,0-2.199,0.082-3.154,0.246c-0.956,0.164-1.734,0.355-2.335,0.574l-0.614-4.015c0.628-0.218,1.542-0.437,2.745-0.656
				C176.247,84.163,177.531,84.054,178.896,84.054z M179.306,102.529c1.529,0,2.69-0.082,3.482-0.246v-5.489
				c-0.273-0.082-0.669-0.164-1.188-0.246c-0.519-0.082-1.092-0.123-1.72-0.123c-0.547,0-1.1,0.041-1.659,0.123
				c-0.56,0.082-1.065,0.232-1.516,0.451c-0.451,0.219-0.813,0.526-1.086,0.921c-0.273,0.396-0.41,0.895-0.41,1.496
				c0,1.174,0.369,1.987,1.106,2.437C177.053,102.304,178.05,102.529,179.306,102.529z"/>
			<path fill="#132A40" d="M206.671,89.052c-0.41-0.137-0.977-0.28-1.7-0.43c-0.724-0.15-1.564-0.226-2.52-0.226
				c-0.546,0-1.126,0.055-1.741,0.164c-0.614,0.109-1.044,0.205-1.29,0.287v17.165h-4.957V85.61
				c0.956-0.354,2.151-0.689,3.584-1.003s3.024-0.471,4.772-0.471c0.328,0,0.71,0.021,1.147,0.062
				c0.437,0.041,0.874,0.096,1.311,0.164c0.437,0.069,0.86,0.15,1.27,0.246s0.737,0.184,0.983,0.266L206.671,89.052z"/>
			<path fill="#132A40" d="M216.748,92.943c0.628-0.656,1.296-1.358,2.007-2.11c0.709-0.751,1.406-1.501,2.089-2.253
				c0.683-0.751,1.332-1.475,1.946-2.171c0.615-0.696,1.14-1.304,1.577-1.823h5.858c-1.363,1.53-2.8,3.113-4.312,4.752
				c-1.512,1.639-3.031,3.236-4.557,4.793c0.817,0.683,1.676,1.509,2.575,2.479c0.899,0.97,1.771,2,2.616,3.093
				c0.845,1.093,1.635,2.185,2.371,3.277c0.736,1.092,1.349,2.103,1.839,3.031h-5.735c-0.492-0.846-1.059-1.734-1.7-2.663
				c-0.642-0.928-1.332-1.83-2.069-2.704c-0.737-0.874-1.489-1.7-2.253-2.478c-0.765-0.778-1.516-1.44-2.253-1.987v9.832h-4.957
				v-30.97l4.957-0.819V92.943z"/>
			<path fill="#132A40" d="M233.053,95.319c0-1.583,0.246-3.065,0.737-4.445c0.492-1.379,1.194-2.574,2.11-3.584
				c0.915-1.01,2.028-1.802,3.339-2.376c1.311-0.574,2.786-0.86,4.424-0.86c2.021,0,3.933,0.369,5.735,1.106l-1.065,4.056
				c-0.574-0.246-1.223-0.451-1.946-0.614c-0.724-0.164-1.496-0.246-2.315-0.246c-1.939,0-3.414,0.608-4.424,1.823
				c-1.01,1.215-1.516,2.929-1.516,5.141c0,2.13,0.478,3.817,1.434,5.059c0.956,1.243,2.566,1.864,4.834,1.864
				c0.846,0,1.679-0.082,2.499-0.246s1.529-0.369,2.13-0.614l0.696,4.096c-0.546,0.273-1.372,0.519-2.479,0.737
				c-1.106,0.218-2.247,0.328-3.42,0.328c-1.83,0-3.42-0.281-4.772-0.84c-1.352-0.56-2.472-1.338-3.359-2.335
				c-0.888-0.997-1.55-2.185-1.987-3.564C233.271,98.426,233.053,96.931,233.053,95.319z"/>
			<path fill="#132A40" d="M253.207,95.401c0-1.885,0.28-3.537,0.84-4.957c0.56-1.419,1.304-2.601,2.232-3.543
				c0.928-0.942,1.993-1.652,3.195-2.13c1.202-0.478,2.431-0.717,3.687-0.717c2.95,0,5.25,0.916,6.903,2.745
				c1.652,1.83,2.478,4.562,2.478,8.193c0,0.273-0.007,0.581-0.02,0.921c-0.014,0.342-0.035,0.649-0.062,0.922h-14.133
				c0.136,1.721,0.744,3.052,1.823,3.994c1.078,0.942,2.642,1.413,4.69,1.413c1.201,0,2.3-0.108,3.298-0.328
				c0.997-0.218,1.782-0.451,2.355-0.696l0.655,4.056c-0.273,0.137-0.649,0.28-1.126,0.43c-0.478,0.15-1.024,0.287-1.639,0.41
				c-0.615,0.123-1.277,0.225-1.987,0.307c-0.71,0.082-1.434,0.123-2.171,0.123c-1.884,0-3.523-0.281-4.916-0.84
				c-1.393-0.56-2.54-1.338-3.441-2.335c-0.901-0.997-1.571-2.171-2.007-3.523C253.425,98.494,253.207,97.013,253.207,95.401z
				 M267.586,93.189c0-0.682-0.096-1.331-0.287-1.946c-0.191-0.614-0.471-1.147-0.84-1.598s-0.819-0.805-1.352-1.065
				c-0.532-0.259-1.167-0.389-1.905-0.389c-0.765,0-1.434,0.143-2.007,0.43c-0.574,0.287-1.059,0.662-1.454,1.126
				c-0.396,0.465-0.704,0.997-0.922,1.598c-0.219,0.601-0.369,1.215-0.451,1.843H267.586z"/>
			<path fill="#132A40" d="M278.605,85.283c0.956-0.272,2.198-0.533,3.728-0.778c1.529-0.246,3.222-0.369,5.08-0.369
				c1.748,0,3.208,0.239,4.383,0.717c1.174,0.478,2.11,1.147,2.806,2.007s1.188,1.898,1.475,3.113
				c0.287,1.216,0.43,2.547,0.43,3.994v12.044h-4.957V94.746c0-1.147-0.076-2.123-0.226-2.929c-0.15-0.805-0.396-1.461-0.737-1.966
				c-0.342-0.505-0.806-0.874-1.393-1.106c-0.587-0.231-1.304-0.348-2.15-0.348c-0.628,0-1.284,0.041-1.966,0.123
				c-0.683,0.082-1.188,0.15-1.516,0.205v17.288h-4.957V85.283z"/>
			<path fill="#132A40" d="M303.143,78.933l4.957-0.819v6.473h7.62v4.137h-7.62v8.726c0,1.72,0.273,2.949,0.819,3.687
				c0.546,0.737,1.475,1.106,2.786,1.106c0.901,0,1.7-0.095,2.396-0.287c0.696-0.19,1.25-0.369,1.659-0.532l0.819,3.933
				c-0.574,0.246-1.325,0.499-2.253,0.758c-0.929,0.259-2.021,0.389-3.277,0.389c-1.53,0-2.806-0.205-3.831-0.615
				c-1.024-0.41-1.837-1.003-2.437-1.782c-0.601-0.778-1.024-1.721-1.27-2.827c-0.246-1.106-0.369-2.369-0.369-3.79V78.933z"/>
			<path fill="#132A40" d="M333.539,89.052c-0.41-0.137-0.977-0.28-1.7-0.43c-0.724-0.15-1.564-0.226-2.52-0.226
				c-0.546,0-1.126,0.055-1.741,0.164c-0.614,0.109-1.044,0.205-1.29,0.287v17.165h-4.957V85.61
				c0.956-0.354,2.151-0.689,3.584-1.003s3.024-0.471,4.772-0.471c0.328,0,0.71,0.021,1.147,0.062
				c0.437,0.041,0.874,0.096,1.311,0.164c0.437,0.069,0.86,0.15,1.27,0.246s0.737,0.184,0.983,0.266L333.539,89.052z"/>
			<path fill="#132A40" d="M345.788,84.054c1.639,0,3.018,0.205,4.138,0.615c1.12,0.41,2.014,0.983,2.683,1.72
				c0.669,0.737,1.147,1.632,1.434,2.684c0.287,1.051,0.43,2.206,0.43,3.461v12.986c-0.765,0.164-1.919,0.362-3.461,0.594
				c-1.543,0.231-3.284,0.348-5.223,0.348c-1.284,0-2.458-0.123-3.523-0.369c-1.065-0.246-1.973-0.642-2.724-1.188
				c-0.751-0.546-1.338-1.256-1.762-2.13c-0.424-0.874-0.635-1.952-0.635-3.236c0-1.229,0.239-2.267,0.717-3.113
				c0.478-0.846,1.126-1.536,1.946-2.069c0.819-0.532,1.768-0.915,2.847-1.147c1.079-0.231,2.205-0.348,3.38-0.348
				c0.546,0,1.119,0.035,1.72,0.103c0.601,0.068,1.243,0.184,1.925,0.348v-0.819c0-0.574-0.068-1.12-0.205-1.639
				c-0.137-0.519-0.376-0.976-0.717-1.372c-0.342-0.396-0.792-0.703-1.352-0.922c-0.56-0.218-1.264-0.328-2.11-0.328
				c-1.147,0-2.199,0.082-3.154,0.246c-0.956,0.164-1.734,0.355-2.335,0.574l-0.614-4.015c0.628-0.218,1.542-0.437,2.745-0.656
				C343.139,84.163,344.422,84.054,345.788,84.054z M346.198,102.529c1.529,0,2.69-0.082,3.482-0.246v-5.489
				c-0.273-0.082-0.669-0.164-1.188-0.246c-0.519-0.082-1.092-0.123-1.72-0.123c-0.547,0-1.1,0.041-1.659,0.123
				c-0.56,0.082-1.065,0.232-1.516,0.451c-0.451,0.219-0.813,0.526-1.086,0.921c-0.273,0.396-0.41,0.895-0.41,1.496
				c0,1.174,0.369,1.987,1.106,2.437C343.945,102.304,344.941,102.529,346.198,102.529z"/>
			<path fill="#132A40" d="M368.81,106.421c-1.475-0.027-2.697-0.191-3.666-0.492c-0.97-0.3-1.741-0.73-2.315-1.291
				c-0.573-0.559-0.977-1.256-1.208-2.089s-0.348-1.782-0.348-2.847V75.042l4.957-0.819V98.76c0,0.601,0.047,1.106,0.143,1.516
				s0.267,0.758,0.512,1.045c0.246,0.287,0.58,0.505,1.004,0.655c0.423,0.15,0.962,0.266,1.618,0.348L368.81,106.421z"/>
		</g>
	</g>
</g>
<path fill="none" stroke="#767B7D" stroke-width="0.25" stroke-miterlimit="10" d="M419.284,182.091H7.786
	c-2.286,0-4.14-1.854-4.14-4.14V7.407c0-2.286,1.854-4.14,4.14-4.14h411.497c2.286,0,4.14,1.854,4.14,4.14v170.544
	C423.424,180.237,421.57,182.091,419.284,182.091z"/>
<rect x="108.548" y="62.794" fill="none" stroke="#BDC2C5" stroke-width="0.25" stroke-miterlimit="10" width="13.058" height="59.782"/>
<rect x="56.32" y="62.794" fill="none" stroke="#939A9E" stroke-width="0.25" stroke-miterlimit="10" width="313.394" height="59.791"/>
<line fill="none" stroke="#939A9E" stroke-width="0.25" stroke-miterlimit="10" x1="56.32" y1="3.267" x2="56.32" y2="182.091"/>
<line fill="none" stroke="#939A9E" stroke-width="0.25" stroke-miterlimit="10" x1="369.756" y1="3.267" x2="369.756" y2="182.091"/>
<line fill="none" x1="87.523" y1="55.406" x2="142.632" y2="55.406"/>
<line fill="none" x1="115.078" y1="55.406" x2="115.078" y2="75.903"/>
<line fill="none" stroke="#BDC2C5" stroke-width="0.25" stroke-miterlimit="10" x1="44.238" y1="92.69" x2="56.314" y2="92.69"/>
<line fill="none" stroke="#BDC2C5" stroke-width="0.25" stroke-miterlimit="10" x1="82.431" y1="122.586" x2="82.431" y2="134.662"/>
<line fill="none" stroke="#BDC2C5" stroke-width="0.25" stroke-miterlimit="10" x1="82.431" y1="170.015" x2="82.431" y2="182.091"/>
<line fill="none" stroke="#BDC2C5" stroke-width="0.25" stroke-miterlimit="10" x1="82.431" y1="3.267" x2="82.431" y2="15.343"/>
<line fill="none" stroke="#BDC2C5" stroke-width="0.25" stroke-miterlimit="10" x1="82.431" y1="50.696" x2="82.431" y2="62.772"/>
<line fill="none" stroke="#BDC2C5" stroke-width="0.25" stroke-miterlimit="10" x1="3.646" y1="92.69" x2="15.722" y2="92.69"/>
<line fill="none" stroke="#BDC2C5" stroke-width="0.25" stroke-miterlimit="10" x1="411.348" y1="92.69" x2="423.424" y2="92.69"/>
<line fill="none" stroke="#BDC2C5" stroke-width="0.25" stroke-miterlimit="10" x1="370.09" y1="92.69" x2="382.166" y2="92.69"/>
</svg>
