<?xml version="1.0" encoding="utf-8"?>
<!-- Generator: Adobe Illustrator 17.1.0, SVG Export Plug-In . SVG Version: 6.00 Build 0)  -->
<!DOCTYPE svg PUBLIC "-//W3C//DTD SVG 1.1//EN" "http://www.w3.org/Graphics/SVG/1.1/DTD/svg11.dtd">
<svg version="1.1" id="Layer_1" xmlns="http://www.w3.org/2000/svg" xmlns:xlink="http://www.w3.org/1999/xlink" x="0px" y="0px"
	 viewBox="0 0 256.996 83.46" enable-background="new 0 0 256.996 83.46" xml:space="preserve">
<g>
	<g>
		<g>
			<path fill="#142A40" d="M21.529,49.033c0-1.269,0.624-2.378,1.564-3.081c0.17-0.101,0.328-0.203,0.497-0.304
				c4.836-2.934,10.305-4.395,15.786-4.395c5.469,0,10.938,1.461,15.773,4.395c0.17,0.101,0.328,0.203,0.499,0.304
				c0.94,0.703,1.562,1.812,1.562,3.081c0,2.128-1.721,3.849-3.85,3.849c-0.804,0-1.551-0.249-2.174-0.668
				c-2.481-1.506-5.186-2.48-7.961-2.954v8.91c0,2.129-1.732,3.85-3.849,3.85c-2.129,0-3.861-1.721-3.861-3.85v-8.91
				c-2.774,0.474-5.481,1.448-7.961,2.954c-0.612,0.419-1.359,0.668-2.173,0.668C23.251,52.883,21.529,51.162,21.529,49.033z"/>
		</g>
		<g>
			<path fill="#142A40" d="M21.529,49.033c0-1.269,0.624-2.378,1.564-3.081c0.17-0.101,0.328-0.203,0.497-0.304
				c4.836-2.934,10.305-4.395,15.786-4.395c5.469,0,10.938,1.461,15.773,4.395c0.17,0.101,0.328,0.203,0.499,0.304
				c0.94,0.703,1.562,1.812,1.562,3.081c0,2.128-1.721,3.849-3.85,3.849c-0.804,0-1.551-0.249-2.174-0.668
				c-2.481-1.506-5.186-2.48-7.961-2.954v8.91c0,2.129-1.732,3.85-3.849,3.85c-2.129,0-3.861-1.721-3.861-3.85v-8.91
				c-2.774,0.474-5.481,1.448-7.961,2.954c-0.612,0.419-1.359,0.668-2.173,0.668C23.251,52.883,21.529,51.162,21.529,49.033z"/>
		</g>
	</g>
	<g>
		<g>
			<path fill="#4690DC" d="M23.091,37.506c0.171,0.102,0.328,0.204,0.499,0.305c1.71,1.037,3.501,1.881,5.341,2.55
				c3.367-1.225,6.901-1.845,10.445-1.845c3.535,0,7.068,0.62,10.432,1.845c1.84-0.67,3.631-1.513,5.341-2.55
				c0.17-0.102,0.328-0.204,0.497-0.305c0.94-0.7,1.564-1.812,1.564-3.079c0-2.128-1.721-3.85-3.85-3.85
				c-0.815,0-1.563,0.248-2.174,0.669c-2.481,1.506-5.186,2.48-7.961,2.954v-8.911c0-2.128-1.733-3.849-3.861-3.849
				c-2.118,0-3.849,1.721-3.849,3.849v8.911c-2.774-0.474-5.481-1.448-7.961-2.954c-0.623-0.421-1.37-0.669-2.173-0.669
				c-2.129,0-3.851,1.722-3.851,3.85C21.529,35.694,22.151,36.805,23.091,37.506z"/>
		</g>
		<g>
			<path fill="#3E8EDE" d="M23.091,37.506c0.171,0.102,0.328,0.204,0.499,0.305c1.71,1.037,3.501,1.881,5.341,2.55
				c3.367-1.225,6.901-1.845,10.445-1.845c3.535,0,7.068,0.62,10.432,1.845c1.84-0.67,3.631-1.513,5.341-2.55
				c0.17-0.102,0.328-0.204,0.497-0.305c0.94-0.7,1.564-1.812,1.564-3.079c0-2.128-1.721-3.85-3.85-3.85
				c-0.815,0-1.563,0.248-2.174,0.669c-2.481,1.506-5.186,2.48-7.961,2.954v-8.911c0-2.128-1.733-3.849-3.861-3.849
				c-2.118,0-3.849,1.721-3.849,3.849v8.911c-2.774-0.474-5.481-1.448-7.961-2.954c-0.623-0.421-1.37-0.669-2.173-0.669
				c-2.129,0-3.851,1.722-3.851,3.85C21.529,35.694,22.151,36.805,23.091,37.506z"/>
		</g>
	</g>
	<g>
		<g>
			<path fill="#00263D" d="M72.356,48.075c1.268,0,2.192-0.214,2.77-0.644c0.578-0.429,0.868-1.035,0.868-1.819
				c0-0.466-0.098-0.868-0.294-1.203c-0.196-0.336-0.476-0.639-0.84-0.91c-0.364-0.27-0.807-0.522-1.329-0.755
				c-0.523-0.233-1.119-0.462-1.791-0.685c-0.671-0.242-1.32-0.508-1.945-0.797c-0.625-0.289-1.175-0.648-1.651-1.077
				c-0.476-0.429-0.859-0.942-1.147-1.539c-0.29-0.597-0.434-1.315-0.434-2.155c0-1.753,0.606-3.129,1.819-4.128
				c1.212-0.998,2.863-1.497,4.953-1.497c1.212,0,2.29,0.135,3.232,0.406c0.942,0.271,1.683,0.565,2.225,0.882L77.7,35.007
				c-0.635-0.354-1.329-0.625-2.085-0.812c-0.755-0.186-1.535-0.28-2.336-0.28c-0.952,0-1.693,0.196-2.225,0.588
				c-0.532,0.392-0.797,0.942-0.797,1.651c0,0.429,0.088,0.797,0.266,1.105c0.177,0.308,0.429,0.583,0.755,0.826
				c0.326,0.243,0.709,0.467,1.147,0.672c0.438,0.205,0.919,0.401,1.441,0.588c0.914,0.336,1.73,0.676,2.449,1.021
				c0.718,0.346,1.324,0.755,1.819,1.231c0.494,0.476,0.872,1.036,1.133,1.679c0.261,0.644,0.392,1.423,0.392,2.337
				c0,1.754-0.62,3.111-1.861,4.072c-1.241,0.961-3.055,1.441-5.443,1.441c-0.802,0-1.535-0.051-2.197-0.154
				c-0.662-0.103-1.25-0.229-1.763-0.378c-0.513-0.149-0.956-0.303-1.329-0.462c-0.374-0.158-0.672-0.303-0.896-0.434l1.035-2.882
				c0.504,0.28,1.184,0.56,2.043,0.84C70.107,47.935,71.143,48.075,72.356,48.075z"/>
			<path fill="#00263D" d="M96.337,43.402c0,1.119-0.145,2.145-0.434,3.078c-0.29,0.933-0.704,1.735-1.245,2.406
				c-0.541,0.671-1.217,1.194-2.029,1.567c-0.812,0.373-1.73,0.56-2.756,0.56c-0.69,0-1.325-0.084-1.903-0.252
				c-0.578-0.168-1.054-0.354-1.427-0.56v5.681h-3.386V36.546c0.69-0.186,1.539-0.364,2.547-0.532
				c1.007-0.168,2.071-0.252,3.19-0.252c1.156,0,2.192,0.177,3.106,0.532c0.914,0.355,1.693,0.863,2.336,1.525
				c0.644,0.662,1.138,1.465,1.483,2.407C96.164,41.168,96.337,42.227,96.337,43.402z M92.867,43.458
				c0-1.511-0.341-2.686-1.021-3.526c-0.681-0.84-1.777-1.259-3.288-1.259c-0.317,0-0.648,0.014-0.993,0.042
				c-0.346,0.028-0.686,0.089-1.021,0.182v8.367c0.298,0.205,0.695,0.397,1.189,0.574c0.494,0.177,1.022,0.266,1.581,0.266
				c1.231,0,2.131-0.42,2.701-1.259C92.582,46.004,92.867,44.876,92.867,43.458z"/>
			<path fill="#00263D" d="M105.263,35.707c1.119,0,2.061,0.14,2.826,0.42c0.765,0.28,1.376,0.671,1.833,1.175
				c0.457,0.504,0.783,1.115,0.979,1.833c0.196,0.718,0.294,1.507,0.294,2.364v8.87c-0.522,0.112-1.311,0.247-2.364,0.406
				c-1.054,0.158-2.243,0.238-3.568,0.238c-0.877,0-1.679-0.084-2.406-0.252c-0.727-0.168-1.348-0.438-1.861-0.812
				c-0.513-0.373-0.914-0.858-1.203-1.455c-0.29-0.597-0.434-1.333-0.434-2.211c0-0.84,0.163-1.548,0.49-2.127
				c0.326-0.578,0.769-1.049,1.329-1.413c0.56-0.364,1.208-0.625,1.945-0.783c0.737-0.158,1.506-0.238,2.309-0.238
				c0.373,0,0.764,0.024,1.175,0.07c0.41,0.047,0.849,0.126,1.315,0.238v-0.56c0-0.392-0.047-0.765-0.14-1.119
				c-0.094-0.354-0.257-0.667-0.49-0.937c-0.233-0.271-0.541-0.48-0.924-0.63c-0.383-0.149-0.863-0.224-1.441-0.224
				c-0.783,0-1.502,0.056-2.155,0.168c-0.653,0.112-1.185,0.243-1.595,0.392l-0.42-2.742c0.429-0.149,1.054-0.298,1.875-0.448
				C103.453,35.781,104.33,35.707,105.263,35.707z M105.543,48.327c1.045,0,1.837-0.056,2.378-0.168v-3.75
				c-0.186-0.056-0.457-0.112-0.812-0.168c-0.355-0.056-0.746-0.084-1.175-0.084c-0.374,0-0.751,0.028-1.133,0.084
				c-0.383,0.056-0.727,0.159-1.035,0.308c-0.308,0.149-0.555,0.359-0.742,0.629c-0.186,0.271-0.28,0.611-0.28,1.022
				c0,0.802,0.252,1.357,0.756,1.665C104.004,48.173,104.685,48.327,105.543,48.327z"/>
			<path fill="#00263D" d="M124.236,39.121c-0.28-0.093-0.667-0.191-1.161-0.294c-0.495-0.102-1.068-0.154-1.721-0.154
				c-0.373,0-0.769,0.038-1.189,0.112c-0.42,0.075-0.713,0.14-0.881,0.196v11.725h-3.386V36.77c0.653-0.242,1.469-0.471,2.449-0.685
				s2.066-0.322,3.26-0.322c0.224,0,0.485,0.014,0.783,0.042c0.298,0.028,0.597,0.065,0.896,0.112
				c0.298,0.047,0.588,0.103,0.868,0.168s0.504,0.126,0.671,0.182L124.236,39.121z"/>
			<path fill="#00263D" d="M131.119,41.779c0.429-0.448,0.886-0.928,1.371-1.441c0.485-0.513,0.961-1.026,1.427-1.539
				c0.466-0.513,0.91-1.008,1.329-1.483c0.42-0.476,0.779-0.891,1.077-1.245h4.002c-0.931,1.045-1.913,2.127-2.946,3.246
				c-1.033,1.119-2.07,2.211-3.113,3.274c0.558,0.467,1.145,1.031,1.759,1.693c0.614,0.662,1.21,1.367,1.787,2.113
				c0.577,0.746,1.117,1.493,1.62,2.239c0.503,0.746,0.922,1.437,1.256,2.071h-3.917c-0.336-0.578-0.723-1.184-1.161-1.819
				c-0.439-0.634-0.91-1.25-1.413-1.847c-0.504-0.597-1.017-1.161-1.539-1.693c-0.523-0.532-1.035-0.984-1.539-1.357v6.716h-3.386
				V29.55l3.386-0.56V41.779z"/>
			<path fill="#00263D" d="M142.257,43.402c0-1.082,0.168-2.094,0.504-3.036c0.336-0.942,0.816-1.758,1.441-2.449
				c0.625-0.69,1.385-1.231,2.281-1.623c0.895-0.392,1.903-0.588,3.022-0.588c1.381,0,2.687,0.252,3.918,0.755l-0.727,2.77
				c-0.392-0.168-0.835-0.308-1.329-0.42c-0.495-0.112-1.022-0.168-1.581-0.168c-1.325,0-2.332,0.416-3.022,1.245
				c-0.69,0.83-1.035,2.001-1.035,3.512c0,1.455,0.326,2.607,0.98,3.456c0.653,0.849,1.753,1.273,3.302,1.273
				c0.578,0,1.147-0.056,1.707-0.168s1.045-0.252,1.455-0.42l0.476,2.798c-0.373,0.187-0.937,0.355-1.693,0.504
				c-0.755,0.149-1.535,0.224-2.336,0.224c-1.25,0-2.336-0.192-3.26-0.574c-0.924-0.382-1.689-0.914-2.295-1.595
				c-0.606-0.681-1.059-1.492-1.357-2.435C142.406,45.524,142.257,44.503,142.257,43.402z"/>
			<path fill="#00263D" d="M156.024,43.458c0-1.287,0.191-2.416,0.574-3.386c0.382-0.97,0.891-1.777,1.525-2.42
				c0.634-0.644,1.362-1.128,2.183-1.455c0.821-0.326,1.66-0.49,2.519-0.49c2.015,0,3.586,0.625,4.715,1.875
				c1.128,1.25,1.693,3.116,1.693,5.597c0,0.186-0.005,0.397-0.014,0.629c-0.01,0.233-0.024,0.444-0.042,0.63h-9.654
				c0.093,1.175,0.508,2.085,1.245,2.728c0.736,0.644,1.805,0.965,3.204,0.965c0.821,0,1.571-0.074,2.253-0.224
				c0.681-0.149,1.217-0.308,1.609-0.476l0.448,2.77c-0.187,0.093-0.443,0.191-0.769,0.294c-0.327,0.103-0.7,0.196-1.119,0.28
				c-0.42,0.084-0.872,0.154-1.357,0.21c-0.485,0.056-0.979,0.084-1.483,0.084c-1.287,0-2.406-0.192-3.358-0.574
				c-0.952-0.382-1.735-0.914-2.351-1.595c-0.615-0.681-1.073-1.483-1.371-2.407C156.173,45.571,156.024,44.559,156.024,43.458z
				 M165.846,41.947c0-0.466-0.066-0.909-0.196-1.329c-0.131-0.42-0.322-0.783-0.574-1.091c-0.252-0.308-0.56-0.55-0.924-0.727
				c-0.364-0.177-0.797-0.266-1.301-0.266c-0.523,0-0.979,0.098-1.371,0.294c-0.392,0.196-0.723,0.452-0.993,0.769
				c-0.271,0.318-0.481,0.681-0.63,1.091c-0.149,0.411-0.252,0.83-0.308,1.259H165.846z"/>
			<path fill="#00263D" d="M173.373,36.546c0.653-0.186,1.502-0.364,2.547-0.532c1.044-0.168,2.201-0.252,3.47-0.252
				c1.194,0,2.192,0.163,2.994,0.49c0.802,0.327,1.441,0.783,1.917,1.371c0.476,0.588,0.811,1.297,1.007,2.127
				c0.196,0.831,0.294,1.74,0.294,2.728v8.227h-3.386V43.01c0-0.783-0.052-1.45-0.154-2.001c-0.103-0.55-0.27-0.998-0.504-1.343
				c-0.233-0.345-0.55-0.597-0.952-0.756c-0.401-0.158-0.891-0.238-1.469-0.238c-0.429,0-0.877,0.028-1.343,0.084
				c-0.467,0.056-0.811,0.103-1.035,0.14v11.809h-3.386V36.546z"/>
			<path fill="#00263D" d="M190.135,32.209l3.386-0.56v4.421h5.205v2.826h-5.205v5.961c0,1.175,0.186,2.015,0.56,2.518
				c0.373,0.504,1.007,0.755,1.903,0.755c0.616,0,1.161-0.065,1.637-0.196c0.476-0.13,0.854-0.252,1.133-0.364l0.56,2.686
				c-0.392,0.168-0.905,0.341-1.539,0.518c-0.634,0.177-1.381,0.266-2.239,0.266c-1.045,0-1.917-0.14-2.617-0.42
				c-0.699-0.28-1.255-0.685-1.665-1.217c-0.411-0.532-0.7-1.175-0.868-1.931c-0.168-0.755-0.252-1.618-0.252-2.589V32.209z"/>
			<path fill="#00263D" d="M210.898,39.121c-0.28-0.093-0.667-0.191-1.161-0.294c-0.495-0.102-1.068-0.154-1.721-0.154
				c-0.373,0-0.769,0.038-1.189,0.112c-0.42,0.075-0.713,0.14-0.881,0.196v11.725h-3.386V36.77c0.653-0.242,1.469-0.471,2.449-0.685
				c0.979-0.214,2.066-0.322,3.26-0.322c0.224,0,0.485,0.014,0.783,0.042c0.298,0.028,0.597,0.065,0.896,0.112
				c0.298,0.047,0.588,0.103,0.868,0.168c0.28,0.065,0.504,0.126,0.671,0.182L210.898,39.121z"/>
			<path fill="#00263D" d="M219.265,35.707c1.119,0,2.061,0.14,2.826,0.42c0.765,0.28,1.376,0.671,1.833,1.175
				c0.457,0.504,0.783,1.115,0.979,1.833c0.196,0.718,0.294,1.507,0.294,2.364v8.87c-0.522,0.112-1.311,0.247-2.364,0.406
				c-1.054,0.158-2.243,0.238-3.568,0.238c-0.877,0-1.679-0.084-2.406-0.252c-0.727-0.168-1.348-0.438-1.861-0.812
				c-0.513-0.373-0.914-0.858-1.203-1.455c-0.29-0.597-0.434-1.333-0.434-2.211c0-0.84,0.163-1.548,0.49-2.127
				c0.326-0.578,0.769-1.049,1.329-1.413c0.56-0.364,1.208-0.625,1.945-0.783c0.737-0.158,1.506-0.238,2.309-0.238
				c0.373,0,0.764,0.024,1.175,0.07c0.41,0.047,0.849,0.126,1.315,0.238v-0.56c0-0.392-0.047-0.765-0.14-1.119
				c-0.094-0.354-0.257-0.667-0.49-0.937c-0.233-0.271-0.541-0.48-0.924-0.63c-0.383-0.149-0.863-0.224-1.441-0.224
				c-0.783,0-1.502,0.056-2.155,0.168c-0.653,0.112-1.185,0.243-1.595,0.392l-0.42-2.742c0.429-0.149,1.054-0.298,1.875-0.448
				C217.455,35.781,218.332,35.707,219.265,35.707z M219.545,48.327c1.045,0,1.837-0.056,2.378-0.168v-3.75
				c-0.186-0.056-0.457-0.112-0.811-0.168c-0.355-0.056-0.746-0.084-1.175-0.084c-0.374,0-0.751,0.028-1.133,0.084
				c-0.383,0.056-0.727,0.159-1.035,0.308c-0.308,0.149-0.555,0.359-0.742,0.629c-0.186,0.271-0.28,0.611-0.28,1.022
				c0,0.802,0.252,1.357,0.756,1.665C218.006,48.173,218.687,48.327,219.545,48.327z"/>
			<path fill="#00263D" d="M234.991,50.985c-1.007-0.019-1.842-0.131-2.504-0.336c-0.662-0.205-1.189-0.499-1.581-0.882
				c-0.392-0.382-0.667-0.858-0.826-1.427s-0.238-1.217-0.238-1.945V29.55l3.386-0.56v16.762c0,0.411,0.032,0.755,0.098,1.035
				c0.065,0.28,0.182,0.518,0.35,0.714c0.168,0.196,0.396,0.345,0.686,0.448c0.289,0.103,0.657,0.182,1.105,0.238L234.991,50.985z"
				/>
		</g>
	</g>
</g>
</svg>
