<?xml version="1.0" encoding="utf-8"?>
<!-- Generator: Adobe Illustrator 18.1.1, SVG Export Plug-In . SVG Version: 6.00 Build 0)  -->
<svg version="1.0" id="Layer_1" xmlns="http://www.w3.org/2000/svg" xmlns:xlink="http://www.w3.org/1999/xlink" x="0px" y="0px"
	 viewBox="0 0 350 220" enable-background="new 0 0 350 220" xml:space="preserve">
<g>
	<g>
		<path fill="#FFFFFF" d="M70.2,122.2c0,2.7-2.9,4.8-6.6,4.8c-3.6,0-6.6-2.2-6.6-4.8c0-2.7,2.9-4.8,6.6-4.8
			C67.2,117.3,70.2,119.5,70.2,122.2z"/>
		<path fill="#FFFFFF" d="M74.8,110.6c0,2.2-2.6,4-5.8,4c-3.2,0-5.8-1.8-5.8-4c0-2.2,2.6-4,5.8-4C72.2,106.6,74.8,108.4,74.8,110.6z
			"/>
		<path fill="#FFFFFF" d="M78.5,101c0,1.8-2.2,3.3-4.9,3.3c-2.7,0-4.9-1.5-4.9-3.3c0-1.8,2.2-3.3,4.9-3.3
			C76.3,97.8,78.5,99.2,78.5,101z"/>
		<path fill="#FFFFFF" d="M88.5,74.7c0,0.7-1.1,1.3-2.6,1.3c-1.4,0-2.6-0.6-2.6-1.3c0-0.7,1.1-1.3,2.6-1.3
			C87.4,73.4,88.5,74,88.5,74.7z"/>
		<path fill="#FFFFFF" d="M91.5,67.3c0,0.5-0.9,0.9-1.9,0.9c-1.1,0-1.9-0.4-1.9-0.9c0-0.5,0.9-0.9,1.9-0.9
			C90.6,66.4,91.5,66.8,91.5,67.3z"/>
		<path fill="#FFFFFF" d="M90.1,70.8c0,0.6-1,1.1-2.2,1.1c-1.2,0-2.2-0.5-2.2-1.1c0-0.6,1-1.1,2.2-1.1
			C89.1,69.8,90.1,70.2,90.1,70.8z"/>
		<path fill="#FFFFFF" d="M81.7,92.6c0,1.4-1.9,2.6-4.2,2.6c-2.3,0-4.2-1.2-4.2-2.6c0-1.4,1.9-2.6,4.2-2.6
			C79.8,89.9,81.7,91.1,81.7,92.6z"/>
		<path fill="#FFFFFF" d="M84.4,85.5c0,1.2-1.6,2.1-3.6,2.1c-2,0-3.6-0.9-3.6-2.1c0-1.2,1.6-2.1,3.6-2.1
			C82.9,83.4,84.4,84.3,84.4,85.5z"/>
		<path fill="#FFFFFF" d="M85.5,121.4c0,2.4-2.7,4.4-6,4.4c-3.3,0-6-1.9-6-4.4c0-2.4,2.7-4.4,6-4.4C82.8,117,85.5,119,85.5,121.4z"
			/>
		<path fill="#FFFFFF" d="M98.6,117.7c0,2.1-2.4,3.8-5.4,3.8c-3,0-5.4-1.7-5.4-3.8c0-2.1,2.4-3.8,5.4-3.8
			C96.2,113.9,98.6,115.6,98.6,117.7z"/>
		<path fill="#FFFFFF" d="M105.3,110.4c0,1.7-2,3-4.4,3c-2.4,0-4.4-1.4-4.4-3c0-1.7,2-3,4.4-3C103.3,107.3,105.3,108.7,105.3,110.4z
			"/>
		<path fill="#FFFFFF" d="M98.9,97.2c0,1.1-1.4,2-3.2,2c-1.8,0-3.2-0.9-3.2-2c0-1.1,1.4-2,3.2-2C97.4,95.2,98.9,96.1,98.9,97.2z"/>
		<path fill="#FFFFFF" d="M86.8,79.6c0,0.9-1.4,1.7-3,1.7c-1.7,0-3-0.8-3-1.7c0-0.9,1.4-1.7,3-1.7C85.5,77.9,86.8,78.7,86.8,79.6z"
			/>
		<path fill="#FFFFFF" d="M104.1,102.7c0,1.4-1.7,2.4-3.7,2.4c-2.1,0-3.7-1.1-3.7-2.4c0-1.3,1.7-2.4,3.7-2.4
			C102.4,100.3,104.1,101.4,104.1,102.7z"/>
	</g>
	<g>
		<path fill="#FFFFFF" d="M118.4,121.4v-18.6h3v6.9c1-0.3,1.9-0.5,2.7-0.5c1.9,0,3.3,0.6,4.3,1.9c0.9,1.1,1.3,2.5,1.3,4.2
			c0,2.3-0.8,4-2.3,5.1c-1.3,1-3.1,1.5-5.5,1.5C121,121.7,119.8,121.6,118.4,121.4z M121.4,111.9v7.4c0.4,0.1,0.8,0.1,1.2,0.1
			c2.8,0,4.2-1.3,4.2-4c0-1.3-0.3-2.3-1-2.9c-0.6-0.6-1.4-0.9-2.4-0.9C122.7,111.6,122.1,111.7,121.4,111.9z"/>
		<path fill="#FFFFFF" d="M132.8,121.6v-11.4c1.7-0.7,3.5-1.1,5.3-1.1c0.8,0,1.6,0.1,2.4,0.3v2.5c-0.6-0.2-1.3-0.3-2.1-0.3
			c-0.9,0-1.7,0.2-2.6,0.5v9.5H132.8z"/>
		<path fill="#FFFFFF" d="M142.5,109.3h3v7.3c0,1,0.2,1.7,0.6,2.1c0.4,0.3,1,0.5,1.9,0.5c0.6,0,1.3-0.1,2-0.2v-9.6h3v11.8
			c-2,0.4-3.7,0.6-5.2,0.6c-1.9,0-3.3-0.4-4.1-1.1c-0.4-0.4-0.8-1-0.9-1.6c-0.1-0.6-0.2-1.3-0.2-2.3V109.3z"/>
		<path fill="#FFFFFF" d="M156.2,121.2v-2.7c1.2,0.7,2.3,1.1,3.3,1.1c1.3,0,2-0.4,2-1.2c0-0.6-0.4-1-1.2-1.4l-1.2-0.6
			c-1.1-0.5-1.9-1.1-2.3-1.7c-0.4-0.5-0.6-1.2-0.6-1.9c0-1.2,0.5-2.1,1.4-2.8c0.8-0.6,1.9-0.9,3.2-0.9c1.1,0,2.1,0.2,3.2,0.7v2.6
			c-1-0.6-2-0.9-3-0.9c-1.3,0-2,0.4-2,1.2c0,0.3,0.1,0.6,0.4,0.8c0.3,0.2,0.8,0.5,1.7,0.9c1.2,0.6,2,1.2,2.5,1.6
			c0.5,0.6,0.8,1.4,0.8,2.2c0,1.2-0.5,2.2-1.5,2.9c-0.8,0.6-2,0.9-3.4,0.9C158.5,121.9,157.3,121.7,156.2,121.2z"/>
		<path fill="#FFFFFF" d="M166.9,121.2v-2.7c1.2,0.7,2.3,1.1,3.3,1.1c1.3,0,2-0.4,2-1.2c0-0.6-0.4-1-1.2-1.4l-1.2-0.6
			c-1.1-0.5-1.9-1.1-2.3-1.7c-0.4-0.5-0.6-1.2-0.6-1.9c0-1.2,0.5-2.1,1.4-2.8c0.8-0.6,1.9-0.9,3.2-0.9c1.1,0,2.1,0.2,3.2,0.7v2.6
			c-1-0.6-2-0.9-3-0.9c-1.3,0-2,0.4-2,1.2c0,0.3,0.1,0.6,0.4,0.8c0.3,0.2,0.8,0.5,1.7,0.9c1.2,0.6,2,1.2,2.5,1.6
			c0.5,0.6,0.8,1.4,0.8,2.2c0,1.2-0.5,2.2-1.5,2.9c-0.8,0.6-2,0.9-3.4,0.9C169.1,121.9,168,121.7,166.9,121.2z"/>
		<path fill="#FFFFFF" d="M188.7,116h-8.4c0.1,2.3,1.4,3.4,3.8,3.4c1.5,0,2.8-0.4,4-1.3v2.5c-1.4,0.8-2.9,1.2-4.4,1.2
			c-2.1,0-3.7-0.6-4.8-1.9c-1-1.1-1.4-2.6-1.4-4.4c0-2.1,0.6-3.8,1.9-5c1.1-1.1,2.5-1.6,4.1-1.6c1.2,0,2.2,0.3,3.1,0.8
			c0.8,0.5,1.3,1.2,1.7,2C188.5,112.8,188.7,114.1,188.7,116C188.7,116,188.7,116,188.7,116z M180.5,113.9h5.3
			c-0.1-1.7-1-2.6-2.5-2.6c-0.8,0-1.5,0.3-2,0.8C180.9,112.5,180.6,113.1,180.5,113.9z"/>
		<path fill="#FFFFFF" d="M191.8,121.6v-18.9h3v18.9H191.8z"/>
		<path fill="#FFFFFF" d="M198.1,121.2v-2.7c1.2,0.7,2.3,1.1,3.3,1.1c1.3,0,2-0.4,2-1.2c0-0.6-0.4-1-1.2-1.4l-1.2-0.6
			c-1.1-0.5-1.9-1.1-2.3-1.7c-0.4-0.5-0.6-1.2-0.6-1.9c0-1.2,0.5-2.1,1.4-2.8c0.8-0.6,1.9-0.9,3.2-0.9c1.1,0,2.1,0.2,3.2,0.7v2.6
			c-1-0.6-2-0.9-3-0.9c-1.3,0-2,0.4-2,1.2c0,0.3,0.1,0.6,0.4,0.8c0.3,0.2,0.8,0.5,1.7,0.9c1.2,0.6,2,1.2,2.5,1.6
			c0.5,0.6,0.8,1.4,0.8,2.2c0,1.2-0.5,2.2-1.5,2.9c-0.9,0.6-2,0.9-3.4,0.9C200.3,121.9,199.2,121.7,198.1,121.2z"/>
		<path fill="#FFFFFF" d="M214.5,112.9v-2.6c1.6-0.8,3.2-1.3,4.8-1.3c1.8,0,2.9,0.5,3.4,1.6c0.3,0.5,0.4,1.5,0.4,2.9v7.8
			c-2.1,0.3-3.8,0.4-5.2,0.4c-1.5,0-2.6-0.3-3.3-0.9c-0.6-0.6-0.9-1.4-0.9-2.5c0-1.7,0.7-2.8,2.1-3.5c0.9-0.5,2.3-0.8,4.2-1l0.3,0
			v-0.4c0-0.7-0.1-1.2-0.4-1.5c-0.3-0.2-0.7-0.3-1.3-0.3C217.3,111.6,215.9,112,214.5,112.9z M220.4,119.3V116
			c-1.5,0.1-2.6,0.3-3.2,0.7c-0.5,0.3-0.7,0.8-0.7,1.4c0,0.9,0.5,1.4,1.6,1.4C218.7,119.5,219.5,119.4,220.4,119.3z"/>
		<path fill="#FFFFFF" d="M226.7,107v-3.2h3.1v3.2H226.7z M226.8,121.6v-12.2h3v12.2H226.8z"/>
		<path fill="#FFFFFF" d="M233.6,121.6v-11.4c1.7-0.7,3.5-1.1,5.3-1.1c0.8,0,1.6,0.1,2.4,0.3v2.5c-0.6-0.2-1.3-0.3-2.1-0.3
			c-0.9,0-1.7,0.2-2.6,0.5v9.5H233.6z"/>
		<path fill="#FFFFFF" d="M243.7,121.6v-18.9h3v18.9H243.7z"/>
		<path fill="#FFFFFF" d="M250.5,107v-3.2h3.1v3.2H250.5z M250.5,121.6v-12.2h3v12.2H250.5z"/>
		<path fill="#FFFFFF" d="M257.4,121.6V110c1.9-0.6,3.8-0.8,5.6-0.8c1.9,0,3.3,0.4,4.1,1.3c0.7,0.7,1,1.8,1,3.3v7.9h-3v-7.7
			c0-0.9-0.2-1.6-0.6-1.9c-0.4-0.3-1-0.5-1.8-0.5c-0.7,0-1.4,0.1-2.2,0.3v9.7H257.4z"/>
		<path fill="#FFFFFF" d="M282.2,116h-8.4c0.1,2.3,1.4,3.4,3.8,3.4c1.5,0,2.8-0.4,4-1.3v2.5c-1.4,0.8-2.9,1.2-4.4,1.2
			c-2.1,0-3.7-0.6-4.8-1.9c-1-1.1-1.4-2.6-1.4-4.4c0-2.1,0.6-3.8,1.9-5c1.1-1.1,2.5-1.6,4.1-1.6c1.2,0,2.2,0.3,3.1,0.8
			c0.8,0.5,1.3,1.2,1.7,2C282,112.8,282.2,114.1,282.2,116C282.2,116,282.2,116,282.2,116z M274,113.9h5.3c-0.1-1.7-1-2.6-2.5-2.6
			c-0.8,0-1.5,0.3-2,0.8C274.4,112.5,274.1,113.1,274,113.9z"/>
		<path fill="#FFFFFF" d="M284.7,121.2v-2.7c1.2,0.7,2.3,1.1,3.3,1.1c1.3,0,2-0.4,2-1.2c0-0.6-0.4-1-1.2-1.4l-1.2-0.6
			c-1.1-0.5-1.9-1.1-2.3-1.7c-0.4-0.5-0.6-1.2-0.6-1.9c0-1.2,0.5-2.1,1.4-2.8c0.8-0.6,1.9-0.9,3.2-0.9c1.1,0,2.1,0.2,3.2,0.7v2.6
			c-1-0.6-2-0.9-3-0.9c-1.3,0-2,0.4-2,1.2c0,0.3,0.1,0.6,0.4,0.8c0.3,0.2,0.8,0.5,1.7,0.9c1.2,0.6,2,1.2,2.5,1.6
			c0.5,0.6,0.8,1.4,0.8,2.2c0,1.2-0.5,2.2-1.5,2.9c-0.8,0.6-2,0.9-3.4,0.9C287,121.9,285.8,121.7,284.7,121.2z"/>
	</g>
</g>
</svg>
