<?xml version="1.0" encoding="utf-8"?>
<!-- Generator: Adobe Illustrator 18.1.1, SVG Export Plug-In . SVG Version: 6.00 Build 0)  -->
<svg version="1.1" id="Layer_1" xmlns:sketch="http://www.bohemiancoding.com/sketch/ns"
	 xmlns="http://www.w3.org/2000/svg" xmlns:xlink="http://www.w3.org/1999/xlink" x="0px" y="0px" viewBox="-217 238 365 125"
	 enable-background="new -217 238 365 125" xml:space="preserve">
<title>buffer</title>
<desc>Created with Sketch.</desc>
<g id="Welcome" sketch:type="MSPage">
	<g id="Desktop-HD---Why-Us" transform="translate(-1006.000000, -1828.000000)" sketch:type="MSArtboardGroup">
		<g id="buffer" transform="translate(1006.000000, 1828.000000)" sketch:type="MSLayerGroup">
			<g transform="translate(78.108541, 41.286744)" sketch:type="MSShapeGroup">
				<path id="Fill-1" fill="#FFFFFF" d="M-178.9,287.2v6.2h-13v-68.8h13v25.3c0.5-0.5,0.9-1,1.3-1.4c4.4-4.7,9.9-6.6,16.3-6.1
					c4.8,0.4,9,2.2,12.5,5.6c3.2,3.1,5.2,7,6.4,11.3c1.1,3.9,1.3,7.8,1.1,11.9c-0.2,4.1-1.1,8.1-3,11.8c-3.3,6.6-8.5,10.5-15.9,11.6
					c-7.4,1-13.5-1.4-18.3-7.1c-0.1-0.1-0.1-0.1-0.2-0.2C-178.8,287.2-178.8,287.2-178.9,287.2L-178.9,287.2z M-178.9,268.6
					c0,2.7,0,5.4,0,8.1c0,0.5,0.1,0.9,0.5,1.3c3.8,4,8.4,5.7,13.8,4.7c4.4-0.8,7.1-3.7,8.7-7.7c1.3-3.5,1.4-7.2,0.6-10.9
					c-0.6-2.9-2-5.5-4.4-7.4c-3.1-2.6-6.7-3.1-10.5-2.4c-3.3,0.7-6.2,2.3-8.3,5c-0.2,0.3-0.3,0.7-0.3,1
					C-178.9,263.1-178.9,265.8-178.9,268.6L-178.9,268.6z"/>
				<path id="Fill-2" fill="#FFFFFF" d="M-5.9,272.6c0.2,0.8,0.3,1.6,0.5,2.3c1.8,5.1,5.3,8.3,10.7,9c6.1,0.9,11.6-0.7,16.4-4.6
					c0,0,0.1,0,0.2-0.1c1.9,2.8,3.8,5.6,5.8,8.4c-1.2,1.1-2.4,2-3.8,2.8c-3.2,1.9-6.7,2.9-10.4,3.6c-3.1,0.5-6.2,0.7-9.3,0.4
					c-9-0.9-16.2-4.8-20.7-12.9c-1.8-3.2-2.7-6.7-3-10.4c-0.3-4.3,0-8.6,1.7-12.6c3.5-8.9,10.1-14.3,19.4-15.9
					c7-1.2,13.6,0,19.4,4.3c4.3,3.2,7.1,7.5,8.7,12.6c1.1,3.3,1.5,6.8,1.5,10.3c0,0.9,0,1.9,0,2.8H-5.9L-5.9,272.6z M18.5,263.7
					c0-0.4-0.1-0.8-0.1-1.1c-0.5-2.9-1.7-5.4-4-7.2c-3.6-2.9-7.8-3.3-12.1-2.1c-4.2,1.2-6.6,4.2-7.9,8.2c-0.2,0.7-0.3,1.5-0.5,2.2
					H18.5L18.5,263.7z"/>
				<path id="Fill-3" fill="#FFFFFF" d="M-102,243.6h13.1v49.8H-102v-6.1c-0.9,0.8-1.7,1.5-2.5,2.2c-3.3,2.6-6.9,4.4-11.1,4.9
					c-3.3,0.4-6.7,0.4-10-0.4c-5.2-1.3-8.3-4.7-9.5-9.9c-0.4-1.5-0.5-3.1-0.6-4.7c0-11.7,0-23.4,0-35.1v-0.7h13.1v0.7
					c0,9.7,0,19.3,0,29c0,1.4,0.1,2.8,0.4,4.2c0.6,3,2.7,4.6,5.6,5.2c4.5,1,8.6,0,12.1-2.9c0.7-0.6,1.4-1.3,2-1.9
					c0.3-0.3,0.4-0.6,0.4-1.1c0-10.8,0-21.6,0-32.4V243.6"/>
				<path id="Fill-4" fill="#FFFFFF" d="M-20,243.5V255h-10.1v38.4h-13.2V255h-8.2v-11.4h8.2c0-1.2,0-2.3,0-3.4
					c0.1-3.4,0.7-6.6,2.6-9.5c2.3-3.5,5.5-5.8,9.6-6.7c4.6-1,9.1-0.6,13.4,1.1c1.5,0.6,2.8,1.5,4,2.7c0.2,0.2,0.3,0.3,0.1,0.6
					c-1.6,2.4-3.1,4.9-4.7,7.3c0,0-0.1,0-0.1,0.1c-0.8-0.8-1.8-1.4-3-1.7c-1.4-0.4-2.9-0.5-4.3-0.1c-2.4,0.6-4,2.5-4.3,5.2
					c-0.1,1.4-0.1,2.8-0.2,4.3H-20"/>
				<path id="Fill-5" fill="#FFFFFF" d="M-47.2,228.2c-1.6,2.6-3.3,5.1-4.9,7.6c-0.8-0.5-1.6-1-2.5-1.4c-1.6-0.7-3.3-0.7-4.9-0.3
					c-1.9,0.5-3.3,1.8-3.9,3.7c-0.6,1.9-0.5,3.8-0.5,5.8h10.1V255h-10.1v38.4h-13.2V255h-8.2v-11.4h8.2c0-0.3,0-0.5,0-0.8
					c0-2.2,0-4.4,0.4-6.7c1.3-6.6,6.4-11.5,13.1-12.4c4-0.6,8-0.2,11.8,1.3C-50,225.7-48.5,226.7-47.2,228.2"/>
				<path id="Fill-6" fill="#FFFFFF" d="M-256.7,223.1c0.9-0.1,1.7,0.1,2.5,0.5c10.5,4.9,21,9.8,31.5,14.7c0.3,0.1,0.6,0.3,0.8,0.5
					c0.5,0.4,0.5,0.9,0,1.3c-0.2,0.2-0.5,0.3-0.7,0.5c-10.6,4.9-21.1,9.9-31.7,14.8c-1.5,0.7-3.1,0.7-4.7,0
					c-10.6-4.9-21.1-9.8-31.6-14.8c-0.1-0.1-0.2-0.1-0.3-0.2c-0.4-0.2-0.8-0.4-0.8-1c0-0.5,0.4-0.8,0.8-1c2.1-1,4.2-2,6.3-3
					c8.5-4,17.1-8,25.6-11.9c0.7-0.3,1.5-0.4,2.3-0.6C-256.8,223-256.8,223.1-256.7,223.1"/>
				<path id="Fill-7" fill="#FFFFFF" d="M36.6,293.3v-49.8h13v6.7c4.4-4.7,9.4-7.8,15.9-8V255c-1.3-0.1-2.6-0.2-3.9-0.2
					c-4.1,0.1-7.7,1.6-10.8,4.2c0,0-0.1,0.1-0.1,0.1c-0.8,0.7-1.2,1.5-1.2,2.7c0.1,10.3,0,20.6,0,30.8v0.7H36.6"/>
				<path id="Fill-8" fill="#FFFFFF" d="M-256.8,275.5c-0.8-0.2-1.7-0.4-2.5-0.7c-10.5-4.9-21.1-9.8-31.6-14.7
					c-0.2-0.1-0.3-0.2-0.5-0.3c-0.8-0.5-0.8-1.2,0-1.7c0.8-0.5,1.7-0.8,2.6-1.2c1.1-0.5,2.3-1.1,3.4-1.6c1.7-0.8,3.3-0.8,5,0
					c7.1,3.3,14.1,6.6,21.2,9.9c1.5,0.7,3.1,0.7,4.6,0c7-3.2,14-6.5,20.9-9.8c1.9-0.9,3.7-0.9,5.5,0c1.7,0.8,3.5,1.6,5.2,2.4
					c0.5,0.2,1.1,0.4,1.1,1.2c0,0.7-0.6,0.9-1.1,1.1c-10.5,4.9-20.9,9.8-31.4,14.6c-0.8,0.4-1.7,0.6-2.6,0.6
					C-256.7,275.4-256.8,275.4-256.8,275.5"/>
				<path id="Fill-9" fill="#FFFFFF" d="M-256.7,294.7c-0.9,0.1-1.7-0.2-2.5-0.5c-10.5-4.9-21-9.8-31.5-14.7
					c-0.3-0.1-0.6-0.3-0.8-0.5c-0.5-0.4-0.5-0.9,0-1.3c0.2-0.2,0.5-0.3,0.8-0.5c1.8-0.9,3.7-1.7,5.5-2.6c1.6-0.7,3.2-0.7,4.9,0
					c7,3.3,14.1,6.6,21.1,9.8c1.6,0.8,3.3,0.8,5,0c7.1-3.3,14.2-6.6,21.3-9.9c1.4-0.7,3-0.7,4.4,0c2,0.9,4,1.8,5.9,2.7
					c0.1,0.1,0.2,0.1,0.4,0.2c0.9,0.5,0.9,1.3,0,1.8c-0.9,0.5-1.7,0.8-2.6,1.2c-9.8,4.6-19.7,9.2-29.5,13.8
					c-0.7,0.3-1.5,0.4-2.3,0.6C-256.7,294.8-256.7,294.8-256.7,294.7"/>
			</g>
		</g>
	</g>
</g>
</svg>
