<?xml version="1.0" encoding="utf-8"?>
<!-- Generator: Adobe Illustrator 18.1.0, SVG Export Plug-In . SVG Version: 6.00 Build 0)  -->
<!DOCTYPE svg PUBLIC "-//W3C//DTD SVG 1.1//EN" "http://www.w3.org/Graphics/SVG/1.1/DTD/svg11.dtd">
<svg version="1.1" id="Layer_1" xmlns:sketch="http://www.bohemiancoding.com/sketch/ns"
	 xmlns="http://www.w3.org/2000/svg" xmlns:xlink="http://www.w3.org/1999/xlink" x="0px" y="0px" viewBox="-1034 3211.7 199 95.1"
	 enable-background="new -1034 3211.7 199 95.1" xml:space="preserve">
<title>Dropbox</title>
<desc>Created with Sketch.</desc>
<g id="Welcome" sketch:type="MSPage">
	<g id="Dropbox" sketch:type="MSLayerGroup">
		<rect id="Rectangle-84" x="-1034" y="3211.8" sketch:type="MSShapeGroup" fill="#4690DC" width="199" height="95">
		</rect>
		<g id="Fill-36" transform="translate(44.000000, 33.078510)" sketch:type="MSShapeGroup">
			<path fill="#2D5E8F" d="M-1030.9,3209.7l-10.6,6.9l7.3,5.9l10.7-6.6L-1030.9,3209.7z M-1041.5,3228.3l10.6,6.9l7.4-6.2l-10.7-6.6
				L-1041.5,3228.3z M-1023.5,3229.1l7.4,6.2l10.6-6.9l-7.3-5.9L-1023.5,3229.1z M-1005.6,3216.6l-10.6-6.9l-7.4,6.2l10.7,6.6
				L-1005.6,3216.6z M-1023.5,3230.4l-7.4,6.2l-3.2-2.1v2.3l10.6,6.4l10.6-6.4v-2.3l-3.2,2.1L-1023.5,3230.4z M-996.5,3234.9h4.9
				c1.4,0,3.4,0,5.1-1.3c2-1.5,3-4.7,3-8.1c0-9.1-5.8-9.2-8.6-9.2h-4.4V3234.9z M-992.4,3219.5h0.7c1.6,0,3.9,0.2,3.9,5.9
				c0,6.1-2.3,6.3-3.9,6.3h-0.7V3219.5z M-982.1,3221.1v13.7h3.8v-5.9c0-1.1,0-4.2,2.8-4.2c0.1,0,0.3,0,0.6,0.1v-3.7
				c-0.2-0.1-0.4-0.1-0.7-0.1c-2.2,0-2.9,2.3-3.2,3.5v-3.3H-982.1z M-968.6,3220.8c-4.1,0-5.6,2.9-5.6,7.2c0,4.4,1.6,7.2,5.6,7.2
				c4,0,5.6-2.8,5.6-7.2C-963.1,3223.7-964.6,3220.8-968.6,3220.8z M-968.6,3223.5c1.2,0,1.6,0.9,1.6,4.5c0,3.7-0.5,4.5-1.6,4.5
				c-1.1,0-1.6-0.8-1.6-4.5C-970.3,3224.6-969.9,3223.5-968.6,3223.5L-968.6,3223.5z M-961.9,3221.1v18.4h3.8v-5.7
				c0.4,0.4,1.1,1.2,2.6,1.2c4.4,0,4.7-5.3,4.7-7.2c0-2.3-0.4-4.5-1.8-5.8c-0.7-0.7-1.7-1.1-2.6-1.1c-1.9,0-2.6,1.4-3.1,2.3v-2.1
				H-961.9z M-958.2,3226.7c0-1.2,0-3.2,1.7-3.2c1.5,0,1.6,1.9,1.6,4.3c0,2.9-0.1,4.6-1.7,4.6c-1.6,0-1.6-1.2-1.6-3.1V3226.7z
				 M-949.7,3216.3v18.6h2.3c0.3-1,0.4-1.3,0.7-1.8c0.3,0.7,1,2.1,3.2,2.1c0.7,0,1.5-0.1,2.2-0.5c2.5-1.3,2.7-5.4,2.7-6.7
				c0-3.3-1.1-7-4.4-7c-1.6,0-2.4,0.9-2.9,1.5v-6.1H-949.7z M-946,3226c0-0.7,0-1.4,0.4-1.9c0.3-0.4,0.7-0.6,1.2-0.6
				c1.1,0,1.7,0.9,1.7,4.5c0,3.5-0.5,4.5-1.7,4.5c-1.6,0-1.6-1.8-1.6-3.3V3226z M-932.1,3220.8c-4.1,0-5.6,2.9-5.6,7.2
				c0,4.4,1.6,7.2,5.6,7.2c4,0,5.6-2.8,5.6-7.2C-926.5,3223.7-928,3220.8-932.1,3220.8z M-932.1,3223.5c1.2,0,1.6,0.9,1.6,4.5
				c0,3.7-0.5,4.5-1.6,4.5c-1.1,0-1.6-0.8-1.6-4.5C-933.7,3224.6-933.3,3223.5-932.1,3223.5L-932.1,3223.5z M-926.7,3221.1l3.5,6.7
				l-4.1,7h3.3l2.3-4.1l2,4.1h4.2l-4.1-7.7l3.5-6h-3.3l-1.8,3.2l-1.5-3.2H-926.7z"/>
		</g>
	</g>
</g>
</svg>
