<?xml version="1.0" encoding="UTF-8" standalone="no"?>
<svg width="143px" height="150px" viewBox="0 0 143 150" version="1.1" xmlns="http://www.w3.org/2000/svg" xmlns:xlink="http://www.w3.org/1999/xlink" xmlns:sketch="http://www.bohemiancoding.com/sketch/ns">
    <!-- Generator: Sketch 3.2.2 (9983) - http://www.bohemiancoding.com/sketch -->
    <title>Imported Layers</title>
    <desc>Created with Sketch.</desc>
    <defs></defs>
    <g id="Welcome" stroke="none" stroke-width="1" fill="none" fill-rule="evenodd" sketch:type="MSPage">
        <g id="Desktop-HD" sketch:type="MSArtboardGroup" transform="translate(-222.000000, -1010.000000)">
            <g id="Imported-Layers" sketch:type="MSLayerGroup" transform="translate(224.000000, 1010.000000)">
                <path d="M53.682,90.516 C53.682,102.599 45.519,112.394 35.45,112.394 C25.381,112.394 17.219,102.599 17.219,90.516 C17.219,78.434 25.381,68.639 35.45,68.639 C45.519,68.639 53.682,78.434 53.682,90.516 L53.682,90.516 Z" id="Fill-1" fill="#FFFFFF" sketch:type="MSShapeGroup"></path>
                <path d="M53.682,90.516 C53.682,102.599 45.519,112.394 35.45,112.394 C25.381,112.394 17.219,102.599 17.219,90.516 C17.219,78.434 25.381,68.639 35.45,68.639 C45.519,68.639 53.682,78.434 53.682,90.516 L53.682,90.516 Z" id="Stroke-2" stroke="#AFBAB9" stroke-width="4" sketch:type="MSShapeGroup"></path>
                <path d="M45.289,120.148 L46.997,124.535 L65.471,130.461 C65.471,130.461 70.819,131.685 70.819,147.871 L0.081,147.871 C0.081,131.777 5.429,130.461 5.429,130.461 L23.904,124.535 L25.728,119.849" id="Fill-3" fill="#FFFFFF" sketch:type="MSShapeGroup"></path>
                <path d="M45.289,120.148 L46.997,124.535 L65.471,130.461 C65.471,130.461 70.819,131.685 70.819,147.871 L0.081,147.871 C0.081,131.777 5.429,130.461 5.429,130.461 L23.904,124.535 L25.728,119.849" id="Stroke-4" stroke="#AFBAB9" stroke-width="4" sketch:type="MSShapeGroup"></path>
                <path d="M17.743,80.62 C17.743,80.62 27.016,87.891 37.827,82.963 C48.637,78.035 37.986,91.736 53.479,82.563" id="Fill-5" fill="#FFFFFF" sketch:type="MSShapeGroup"></path>
                <path d="M17.743,80.62 C17.743,80.62 27.016,87.891 37.827,82.963 C48.637,78.035 37.986,91.736 53.479,82.563" id="Stroke-6" stroke="#AFBAB9" stroke-width="4" sketch:type="MSShapeGroup"></path>
                <path d="M125.463,96.176 C125.463,105.251 119.334,112.606 111.772,112.606 C104.211,112.606 98.081,105.251 98.081,96.176 C98.081,87.103 104.211,79.747 111.772,79.747 C119.334,79.747 125.463,87.103 125.463,96.176 L125.463,96.176 Z" id="Fill-7" fill="#FFFFFF" sketch:type="MSShapeGroup"></path>
                <path d="M125.463,96.176 C125.463,105.251 119.334,112.606 111.772,112.606 C104.211,112.606 98.081,105.251 98.081,96.176 C98.081,87.103 104.211,79.747 111.772,79.747 C119.334,79.747 125.463,87.103 125.463,96.176 L125.463,96.176 Z" id="Stroke-8" stroke="#AFBAB9" stroke-width="4" sketch:type="MSShapeGroup"></path>
                <path d="M119.161,118.429 L120.443,121.724 L134.317,126.174 C134.317,126.174 138.333,127.094 138.333,139.249 L85.211,139.249 C85.211,127.162 89.227,126.174 89.227,126.174 L103.101,121.724 L104.471,118.204" id="Fill-9" fill="#FFFFFF" sketch:type="MSShapeGroup"></path>
                <path d="M119.161,118.429 L120.443,121.724 L134.317,126.174 C134.317,126.174 138.333,127.094 138.333,139.249 L85.211,139.249 C85.211,127.162 89.227,126.174 89.227,126.174 L103.101,121.724 L104.471,118.204" id="Stroke-10" stroke="#AFBAB9" stroke-width="4" sketch:type="MSShapeGroup"></path>
                <path d="M98.474,88.745 C98.474,88.745 105.438,94.205 113.557,90.504 C121.675,86.803 113.676,97.093 125.311,90.204" id="Fill-11" fill="#FFFFFF" sketch:type="MSShapeGroup"></path>
                <path d="M98.474,88.745 C98.474,88.745 105.438,94.205 113.557,90.504 C121.675,86.803 113.676,97.093 125.311,90.204" id="Stroke-12" stroke="#AFBAB9" stroke-width="4" sketch:type="MSShapeGroup"></path>
                <path d="M41.194,60.986 L41.194,49.039 C34.868,43.665 31.396,36.528 31.396,28.862 C31.396,13.19 46.254,0.44 64.516,0.44 C82.779,0.44 97.637,13.19 97.637,28.862 C97.637,44.534 82.779,57.284 64.516,57.284 C59.508,57.284 54.526,56.3 50.039,54.429 L41.194,60.986 L41.194,60.986 Z M64.516,3.762 C48.086,3.762 34.719,15.022 34.719,28.862 C34.719,35.751 37.979,42.18 43.9,46.967 L44.516,47.466 L44.516,54.388 L49.614,50.609 L50.502,51.009 C54.792,52.941 59.637,53.962 64.516,53.962 C80.947,53.962 94.315,42.703 94.315,28.862 C94.315,15.022 80.947,3.762 64.516,3.762 L64.516,3.762 Z" id="Fill-13" fill="#4E83B7" sketch:type="MSShapeGroup"></path>
                <path d="M49.994,35.789 C46.692,35.789 44.006,33.102 44.006,29.8 C44.006,26.497 46.692,23.811 49.994,23.811 C53.296,23.811 55.983,26.497 55.983,29.8 C55.983,33.102 53.296,35.789 49.994,35.789 L49.994,35.789 Z M49.994,27.134 C48.524,27.134 47.328,28.33 47.328,29.8 C47.328,31.27 48.524,32.466 49.994,32.466 C51.464,32.466 52.66,31.27 52.66,29.8 C52.66,28.33 51.464,27.134 49.994,27.134 L49.994,27.134 Z" id="Fill-14" fill="#4E83B7" sketch:type="MSShapeGroup"></path>
                <path d="M64.516,35.789 C61.214,35.789 58.528,33.102 58.528,29.8 C58.528,26.497 61.214,23.811 64.516,23.811 C67.819,23.811 70.505,26.497 70.505,29.8 C70.505,33.102 67.819,35.789 64.516,35.789 L64.516,35.789 Z M64.516,27.134 C63.047,27.134 61.85,28.33 61.85,29.8 C61.85,31.27 63.047,32.466 64.516,32.466 C65.986,32.466 67.183,31.27 67.183,29.8 C67.183,28.33 65.986,27.134 64.516,27.134 L64.516,27.134 Z" id="Fill-15" fill="#4E83B7" sketch:type="MSShapeGroup"></path>
                <path d="M79.039,35.789 C75.737,35.789 73.05,33.102 73.05,29.8 C73.05,26.497 75.737,23.811 79.039,23.811 C82.34,23.811 85.027,26.497 85.027,29.8 C85.027,33.102 82.34,35.789 79.039,35.789 L79.039,35.789 Z M79.039,27.134 C77.569,27.134 76.373,28.33 76.373,29.8 C76.373,31.27 77.569,32.466 79.039,32.466 C80.509,32.466 81.704,31.27 81.704,29.8 C81.704,28.33 80.509,27.134 79.039,27.134 L79.039,27.134 Z" id="Fill-16" fill="#4E83B7" sketch:type="MSShapeGroup"></path>
                <path d="M98.821,24.622 C99.14,25.865 99.363,27.137 99.487,28.435 C109.019,30.608 116.052,37.927 116.052,46.6 C116.052,51.75 113.607,56.562 109.169,60.149 L108.499,60.69 L108.499,65.238 L105.157,62.761 L104.193,63.196 C100.951,64.655 97.29,65.426 93.604,65.426 C86.41,65.426 80,62.569 75.889,58.142 C74.581,58.479 73.238,58.747 71.868,58.945 C76.534,65.016 84.533,69.031 93.604,69.031 C97.429,69.031 101.238,68.297 104.69,66.902 L112.104,72.399 L112.104,62.392 C116.915,58.21 119.657,52.5 119.657,46.6 C119.657,35.769 110.695,26.707 98.821,24.622" id="Fill-17" fill="#4E83B7" sketch:type="MSShapeGroup"></path>
            </g>
        </g>
    </g>
</svg>