<?xml version="1.0" encoding="UTF-8" standalone="no"?>
<svg width="136px" height="151px" viewBox="0 0 136 151" version="1.1" xmlns="http://www.w3.org/2000/svg" xmlns:xlink="http://www.w3.org/1999/xlink" xmlns:sketch="http://www.bohemiancoding.com/sketch/ns">
    <!-- Generator: Sketch 3.2.2 (9983) - http://www.bohemiancoding.com/sketch -->
    <title>Imported Layers</title>
    <desc>Created with Sketch.</desc>
    <defs></defs>
    <g id="Welcome" stroke="none" stroke-width="1" fill="none" fill-rule="evenodd" sketch:type="MSPage">
        <g id="Desktop-HD" sketch:type="MSArtboardGroup" transform="translate(-1036.000000, -1007.000000)">
            <g id="Imported-Layers" sketch:type="MSLayerGroup" transform="translate(1038.000000, 1009.000000)">
                <path d="M99.738,40.883 C99.738,63.195 84.666,81.281 66.073,81.281 C47.48,81.281 32.408,63.195 32.408,40.883 C32.408,18.572 47.48,0.485 66.073,0.485 C84.666,0.485 99.738,18.572 99.738,40.883 L99.738,40.883 Z" id="Fill-1" fill="#FFFFFF" sketch:type="MSShapeGroup"></path>
                <path d="M99.738,40.883 C99.738,63.195 84.666,81.281 66.073,81.281 C47.48,81.281 32.408,63.195 32.408,40.883 C32.408,18.572 47.48,0.485 66.073,0.485 C84.666,0.485 99.738,18.572 99.738,40.883 L99.738,40.883 Z" id="Stroke-2" stroke="#AFBAB9" stroke-width="4" sketch:type="MSShapeGroup"></path>
                <path d="M84.24,95.599 L87.394,103.7 L121.508,114.642 C121.508,114.642 131.383,116.904 131.383,146.791 L0.763,146.791 C0.763,117.073 10.638,114.642 10.638,114.642 L44.752,103.7 L48.121,95.046" id="Fill-3" fill="#FFFFFF" sketch:type="MSShapeGroup"></path>
                <path d="M84.24,95.599 L87.394,103.7 L121.508,114.642 C121.508,114.642 131.383,116.904 131.383,146.791 L0.763,146.791 C0.763,117.073 10.638,114.642 10.638,114.642 L44.752,103.7 L48.121,95.046" id="Stroke-4" stroke="#AFBAB9" stroke-width="4" sketch:type="MSShapeGroup"></path>
                <path d="M34.292,23.264 C34.292,23.264 50.5,36.035 70.461,26.936 C90.423,17.835 70.196,43.465 98.804,26.526" id="Stroke-5" stroke="#AFBAB9" stroke-width="4" sketch:type="MSShapeGroup"></path>
                <path d="M87.795,114.848 C88.159,114.848 88.547,114.865 88.961,114.904 C91.482,115.132 94.398,117.278 94.753,121.389 L94.753,122.757 C94.422,126.69 88.23,131.737 81.886,137.633 C75.123,131.348 69.35,126.69 69.018,122.757 L69.018,121.389 C69.373,117.278 72.289,115.132 74.809,114.904 C75.223,114.865 75.612,114.848 75.976,114.848 C78.888,114.848 80.287,116.28 81.886,118.054 C83.485,116.28 84.88,114.848 87.795,114.848" id="Fill-6" fill="#FFFFFF" sketch:type="MSShapeGroup"></path>
                <path d="M87.795,114.848 C88.159,114.848 88.547,114.865 88.961,114.904 C91.482,115.132 94.398,117.278 94.753,121.389 L94.753,122.757 C94.422,126.69 88.23,131.737 81.886,137.633 C75.123,131.348 69.35,126.69 69.018,122.757 L69.018,121.389 C69.373,117.278 72.289,115.132 74.809,114.904 C75.223,114.865 75.612,114.848 75.976,114.848 C78.888,114.848 80.287,116.28 81.886,118.054 C83.485,116.28 84.88,114.848 87.795,114.848" id="Stroke-7" stroke="#4E83B7" stroke-width="4" sketch:type="MSShapeGroup"></path>
                <path d="M66.37,68.842 C74.453,68.842 81.099,62.692 81.886,54.816 L50.853,54.816 C51.641,62.692 58.286,68.842 66.37,68.842 L66.37,68.842 Z" id="Fill-8" fill="#DFE0DC" sketch:type="MSShapeGroup"></path>
                <path d="M66.37,68.842 C74.453,68.842 81.099,62.692 81.886,54.816 L50.853,54.816 C51.641,62.692 58.286,68.842 66.37,68.842 L66.37,68.842 Z" id="Stroke-9" stroke="#AFBAB9" stroke-width="4" sketch:type="MSShapeGroup"></path>
            </g>
        </g>
    </g>
</svg>