<?xml version="1.0" encoding="utf-8"?>
<!-- Generator: Adobe Illustrator 18.1.0, SVG Export Plug-In . SVG Version: 6.00 Build 0)  -->
<!DOCTYPE svg PUBLIC "-//W3C//DTD SVG 1.1//EN" "http://www.w3.org/Graphics/SVG/1.1/DTD/svg11.dtd">
<svg version="1.1" id="Layer_1" xmlns:sketch="http://www.bohemiancoding.com/sketch/ns"
	 xmlns="http://www.w3.org/2000/svg" xmlns:xlink="http://www.w3.org/1999/xlink" x="0px" y="0px" viewBox="0 2718.6 2267.7 1082.6"
	 enable-background="new 0 2718.6 2267.7 1082.6" xml:space="preserve">
<title>Uber</title>
<desc>Created with Sketch.</desc>
<rect id="Rectangle-83" y="2718.6" sketch:type="MSShapeGroup" fill="#4690DC" width="2267.7" height="1082.6">
</rect>
<g>
	<path id="Fill-14" fill="#2D5E8F" d="M1799.9,3329.4c-5.7,6.8-12.5,3.4-14.8,1.1l-42.2-52.4h2.3c80.9-17.1,60.4-112.8-5.7-115.1
		h-137.9v188h21.7v-61.5c0-8,3.4-11.4,11.4-11.4h79.8l54.7,68.4c11.4,9.1,30.8,13.7,43.3,0L1799.9,3329.4L1799.9,3329.4z
		 M1634.7,3257.6c-8,0-10.3,4.6-10.3,4.6v-77.5h116.2c49,2.3,50.1,70.7,0,72.9L1634.7,3257.6L1634.7,3257.6z"/>
	<path id="Fill-15" fill="#2D5E8F" d="M1405.6,3163h-173.2v188h178.9v-21.7h-157.3v-53.6c0-8,3.4-11.4,11.4-11.4h93.4v-20.5h-95.7
		c-8,0-10.3,4.6-10.3,4.6v-63.8h151.6V3163"/>
	<path id="Fill-16" fill="#2D5E8F" d="M1017.1,3254.1c37.6-27.3,21.7-85.5-26.2-91.2H847.3v188h143.6
		C1037.6,3345.3,1060.4,3286.1,1017.1,3254.1L1017.1,3254.1z M868.9,3183.5h119.7c38.7,4.6,37.6,55.8,0,60.4H879.2
		c-8,0-10.3,4.6-10.3,4.6V3183.5L868.9,3183.5z M988.6,3329.4H868.9v-53.6c0-8,3.4-11.4,11.4-11.4h108.3
		C1029.6,3270.1,1028.5,3325.9,988.6,3329.4L988.6,3329.4z"/>
	<path id="Fill-17" fill="#2D5E8F" d="M572.6,3355.6c16,0,82-10.3,82-72.9V3163H633v115.1c0,54.7-61.5,52.4-61.5,52.4h-19.4
		c0,0-61.5,2.3-61.5-52.4v-82c0-17.1-13.7-31.9-35.3-31.9v21.7c9.1,0,12.5,8,12.5,14.8v83.2c0,62.7,66.1,72.9,82,72.9h22.8"/>
</g>
</svg>
